<?xml version="1.0" standalone="no"?>
<!DOCTYPE svg PUBLIC "-//W3C//DTD SVG 1.1//EN" "http://www.w3.org/Graphics/SVG/1.1/DTD/svg11.dtd" >
<svg xmlns="http://www.w3.org/2000/svg" xmlns:xlink="http://www.w3.org/1999/xlink" version="1.1">
<metadata>
Created by FontForge 20170731 at Wed Feb 20 13:01:24 2019
 By Aleksey,,,
Copyright (c) 2018 Monotype GmbH. All rights reserved.
</metadata>
<defs>
<font id="iCielVAGRoundedNext-Bold" horiz-adv-x="552" >
  <font-face 
    font-family="iCiel VAG Rounded Next Bold"
    font-weight="400"
    font-stretch="normal"
    units-per-em="1000"
    panose-1="2 15 2 2 2 2 3 2 2 4"
    ascent="800"
    descent="-200"
    x-height="532"
    cap-height="712"
    bbox="-655 -310 1314 1139"
    underline-thickness="50"
    underline-position="-150"
    unicode-range="U+0020-FEFF"
  />
<missing-glyph horiz-adv-x="485" 
d="M0 680h485v-680h-485v680zM438 47v585h-391v-585h391zM211 237q0 50 10.5 74.5t32.5 44.5q25 23 42.5 43.5t17.5 49.5q0 32 -21 56t-51 24q-33 0 -53 -24t-24 -66l-48 8q7 64 40 97t88 33q52 0 85 -34.5t33 -89.5q0 -35 -15 -60.5t-48 -55.5q-15 -13 -23.5 -22.5
t-13 -19.5t-6 -22t-1.5 -31v-20h-45v15zM210 174h53v-63h-53v63z" />
    <glyph glyph-name="uniFB00" unicode="ff" horiz-adv-x="589" 
d="M147 -6q-30 0 -49.5 21t-19.5 51v339h-18q-41 0 -59.5 15.5t-18.5 47.5q0 64 74 64h22v82q0 32 10 60t28.5 49.5t45.5 34t61 12.5h12q45 0 68.5 -17t23.5 -47q0 -64 -67 -64h-10q-17 0 -25 -12t-8 -31v-67h135v82q0 32 10 60t29 49.5t46 34t61 12.5h12q45 0 68 -17
t23 -47q0 -64 -67 -64h-9q-17 0 -25 -12t-8 -31v-67h50q29 0 49 -15t20 -49q0 -33 -20 -48t-49 -15h-50v-339q0 -30 -19.5 -51t-50.5 -21t-50.5 21t-19.5 51v339h-135v-339q0 -30 -19.5 -51t-50.5 -21z" />
    <glyph glyph-name="uniFB03" unicode="ffi" horiz-adv-x="809" 
d="M147 -6q-30 0 -49.5 21t-19.5 51v339h-18q-41 0 -59.5 15.5t-18.5 47.5q0 64 74 64h22v82q0 32 10 60t28.5 49.5t45.5 34t61 12.5h12q45 0 68.5 -17t23.5 -47q0 -64 -67 -64h-10q-17 0 -25 -12t-8 -31v-67h135v82q0 32 10 60t29 49.5t46 34t61 12.5h12q45 0 68 -17
t23 -47q0 -64 -67 -64h-9q-17 0 -25 -12t-8 -31v-67h50q29 0 49 -15t20 -49q0 -33 -20 -48t-49 -15h-50v-339q0 -30 -19.5 -51t-50.5 -21t-50.5 21t-19.5 51v339h-135v-339q0 -30 -19.5 -51t-50.5 -21zM702 591q-33 0 -58.5 24t-25.5 60q0 35 24.5 60t59.5 25q36 0 60.5 -25
t24.5 -60t-25 -59.5t-60 -24.5zM702 -6q-30 0 -49.5 21t-19.5 51v400q0 30 19.5 51t49.5 21q32 0 51 -21t19 -51v-400q0 -30 -19.5 -51t-50.5 -21z" />
    <glyph glyph-name="uniFB04" unicode="ffl" horiz-adv-x="808" 
d="M147 -6q-30 0 -49.5 21t-19.5 51v339h-18q-41 0 -59.5 15.5t-18.5 47.5q0 64 74 64h22v82q0 32 10 60t28.5 49.5t45.5 34t61 12.5h12q45 0 68.5 -17t23.5 -47q0 -64 -67 -64h-10q-17 0 -25 -12t-8 -31v-67h135v82q0 32 10 60t29 49.5t46 34t61 12.5h12q45 0 68 -17
t23 -47q0 -64 -67 -64h-9q-17 0 -25 -12t-8 -31v-67h50q29 0 49 -15t20 -49q0 -33 -20 -48t-49 -15h-50v-339q0 -30 -19.5 -51t-50.5 -21t-50.5 21t-19.5 51v339h-135v-339q0 -30 -19.5 -51t-50.5 -21zM699 -6q-31 0 -50 21t-19 51v633q0 29 19 50t50 21q32 0 51 -21t19 -50
v-633q0 -30 -19.5 -51t-50.5 -21z" />
    <glyph glyph-name="f_i" unicode="fi" horiz-adv-x="534" 
d="M155 -6q-30 0 -49.5 21t-19.5 51v339h-18q-41 0 -59.5 15.5t-18.5 47.5q0 64 74 64h22v82q0 32 10 60t28.5 49.5t45.5 34t61 12.5h12q45 0 68.5 -17t23.5 -47q0 -64 -67 -64h-10q-17 0 -25 -12t-8 -31v-67h50q29 0 49 -15t20 -49q0 -33 -20 -48t-49 -15h-50v-339
q0 -30 -19.5 -51t-50.5 -21zM427 591q-34 0 -59 24t-25 60q0 35 24.5 60t59.5 25q36 0 60 -25t24 -60t-24.5 -59.5t-59.5 -24.5zM427 -6q-31 0 -50.5 21t-19.5 51v400q0 30 19.5 51t50.5 21q32 0 50.5 -21t18.5 -51v-400q0 -30 -19 -51t-50 -21z" />
    <glyph glyph-name="f_l" unicode="fl" horiz-adv-x="534" 
d="M155 -6q-30 0 -49.5 21t-19.5 51v339h-18q-41 0 -59.5 15.5t-18.5 47.5q0 64 74 64h22v82q0 32 10 60t28.5 49.5t45.5 34t61 12.5h12q45 0 68.5 -17t23.5 -47q0 -64 -67 -64h-10q-17 0 -25 -12t-8 -31v-67h50q29 0 49 -15t20 -49q0 -33 -20 -48t-49 -15h-50v-339
q0 -30 -19.5 -51t-50.5 -21zM424 -6q-30 0 -49.5 21t-19.5 51v633q0 29 19.5 50t49.5 21q32 0 51 -21t19 -50v-633q0 -30 -19.5 -51t-50.5 -21z" />
    <glyph glyph-name=".notdef" horiz-adv-x="485" 
d="M0 680h485v-680h-485v680zM438 47v585h-391v-585h391zM211 237q0 50 10.5 74.5t32.5 44.5q25 23 42.5 43.5t17.5 49.5q0 32 -21 56t-51 24q-33 0 -53 -24t-24 -66l-48 8q7 64 40 97t88 33q52 0 85 -34.5t33 -89.5q0 -35 -15 -60.5t-48 -55.5q-15 -13 -23.5 -22.5
t-13 -19.5t-6 -22t-1.5 -31v-20h-45v15zM210 174h53v-63h-53v63z" />
    <glyph glyph-name=".null" horiz-adv-x="0" 
 />
    <glyph glyph-name="nonmarkingreturn" horiz-adv-x="270" 
 />
    <glyph glyph-name="space" unicode=" " horiz-adv-x="270" 
 />
    <glyph glyph-name="exclam" unicode="!" horiz-adv-x="264" 
d="M132 201q-32 0 -51 23t-19 55v370q0 32 19 54.5t51 22.5t50.5 -22.5t18.5 -54.5v-370q0 -32 -18.5 -55t-50.5 -23zM132 -14q-32 0 -55.5 23.5t-23.5 55.5q0 15 6.5 29.5t17.5 25.5t25.5 17.5t29.5 6.5t29.5 -6.5t25.5 -17.5t17.5 -25.5t6.5 -29.5q0 -32 -23.5 -55.5
t-55.5 -23.5z" />
    <glyph glyph-name="quotedbl" unicode="&#x22;" horiz-adv-x="448" 
d="M134 429q-28 0 -44 18t-16 44v165q0 26 16 44t44 18q27 0 43 -18t16 -44v-165q0 -26 -16 -44t-43 -18zM314 429q-28 0 -43.5 18t-15.5 44v165q0 26 15.5 44t43.5 18t43.5 -18t15.5 -44v-165q0 -26 -15.5 -44t-43.5 -18z" />
    <glyph glyph-name="numbersign" unicode="#" horiz-adv-x="587" 
d="M149 -6q-18 0 -29.5 10.5t-11.5 28.5q0 7 1.5 18t3.5 25l18 127h-43q-22 0 -34.5 12.5t-12.5 32.5t12.5 32t34.5 12h55l17 127h-44q-19 0 -32 11.5t-13 33.5q0 20 13 32t33 12h57l20 151q5 32 16 45.5t37 13.5q17 0 29.5 -10.5t12.5 -28.5q0 -6 -1.5 -16t-3.5 -23
l-18 -132h98l21 150q4 28 13.5 44t39.5 16q18 0 29.5 -10.5t11.5 -28.5q0 -6 -1 -16t-3 -23l-18 -132h41q23 0 35.5 -12t12.5 -32t-12.5 -32.5t-34.5 -12.5h-55l-17 -127h45q19 0 31.5 -11.5t12.5 -32.5q0 -20 -12.5 -32.5t-32.5 -12.5h-58l-21 -160q-4 -27 -16.5 -38
t-35.5 -11q-18 0 -29.5 10.5t-11.5 28.5q0 8 2.5 23.5t2.5 20.5l17 126h-98l-22 -160q-7 -49 -52 -49zM335 292l17 127h-99l-17 -127h99z" />
    <glyph glyph-name="dollar" unicode="$" horiz-adv-x="597" 
d="M297 -86q-15 0 -21 7.5t-6 21.5v43q-55 3 -97 13t-70 25q-52 28 -52 72q0 29 19 51t45 22q8 0 17 -3t20 -8q23 -11 52 -22.5t66 -11.5v183q-112 33 -163 79t-51 121q0 43 15 80.5t42.5 66.5t67.5 48t89 24v46q0 28 27 28q28 0 28 -28v-46q77 -3 122 -28q51 -26 51 -73
q0 -27 -16.5 -46.5t-43.5 -19.5q-11 0 -22.5 5t-23.5 11q-15 8 -31.5 15t-35.5 8v-160q61 -18 103 -40t68 -49t37.5 -60t11.5 -75q0 -48 -18 -88.5t-48.5 -70.5t-70.5 -48t-83 -21v-44q0 -28 -28 -28zM270 597q-30 -7 -47.5 -25.5t-17.5 -48.5q0 -25 17 -42.5t48 -25.5v142z
M325 124q31 2 51.5 27.5t20.5 57.5t-17 51.5t-55 31.5v-168z" />
    <glyph glyph-name="percent" unicode="%" horiz-adv-x="696" 
d="M178 -16q-23 0 -38 14.5t-15 34.5q0 17 9.5 34.5t18.5 33.5l318 595q8 14 20 23t27 9q22 0 37.5 -14.5t15.5 -34.5q0 -17 -10 -35t-17 -31l-308 -578q-18 -32 -29.5 -41.5t-28.5 -9.5zM177 399q-32 0 -60 12.5t-49 34.5t-33.5 52t-12.5 64q0 35 12.5 64.5t33.5 52
t49.5 35t59.5 12.5q32 0 60.5 -13t49.5 -35.5t33.5 -52.5t12.5 -63q0 -34 -12.5 -63.5t-33.5 -51.5t-49.5 -35t-60.5 -13zM177 500q23 0 38 17.5t15 44.5q0 26 -15 44.5t-39 18.5q-22 0 -36.5 -17.5t-14.5 -45.5q0 -26 14.5 -44t37.5 -18zM519 -14q-32 0 -60.5 12.5
t-49.5 34.5t-33.5 52t-12.5 64q0 35 12.5 64.5t34 52t50 35t59.5 12.5q33 0 61.5 -13t49.5 -35.5t33 -52.5t12 -63t-12 -62.5t-33 -52t-49.5 -35.5t-61.5 -13zM519 87q23 0 37.5 17.5t14.5 44.5q0 28 -14.5 45.5t-37.5 17.5t-37.5 -17.5t-14.5 -45.5q0 -27 14.5 -44.5
t37.5 -17.5z" />
    <glyph glyph-name="ampersand" unicode="&#x26;" horiz-adv-x="697" 
d="M257 -14q-50 0 -93 15.5t-74 43.5t-48.5 67t-17.5 86q0 67 37.5 120t125.5 98q-40 44 -55 74.5t-15 64.5q0 37 14.5 67.5t40 52t61.5 33.5t78 12q91 0 145 -42.5t54 -120.5q0 -52 -31.5 -96t-91.5 -78l116 -134q17 21 30 38.5t24 31.5q14 17 25.5 26t26.5 9
q25 0 44.5 -19t19.5 -42q0 -10 -3.5 -20t-13.5 -24.5t-28 -35.5t-47 -52l39 -43q12 -14 19 -23.5t10.5 -15.5t4 -11t0.5 -10q0 -26 -20 -44.5t-52 -18.5q-21 0 -33 11.5t-29 31.5l-32 36q-53 -47 -107.5 -67.5t-123.5 -20.5zM308 464q42 20 62 41.5t20 47.5q0 31 -20.5 49.5
t-54.5 18.5q-29 0 -48.5 -17.5t-19.5 -45.5q0 -24 14.5 -45.5t46.5 -48.5zM272 100q42 0 76 17t60 46l-145 163q-17 -9 -34.5 -21.5t-31.5 -27.5t-23 -33.5t-9 -39.5q0 -45 29.5 -74.5t77.5 -29.5z" />
    <glyph glyph-name="quotesingle" unicode="'" horiz-adv-x="244" 
d="M123 429q-28 0 -44 18t-16 44v165q0 26 16 44t44 18q27 0 43 -18t16 -44v-165q0 -26 -16 -44t-43 -18z" />
    <glyph glyph-name="parenleft" unicode="(" horiz-adv-x="248" 
d="M172 -150q-15 0 -26 7.5t-22 27.5q-15 21 -30 62.5t-27 95.5t-19.5 117.5t-7.5 129.5q0 88 12.5 174t35.5 154q11 35 20.5 56.5t19.5 34t20.5 17t23.5 4.5q28 0 44.5 -15t16.5 -40q0 -8 -4 -22t-10 -34q-8 -23 -17.5 -55t-18 -72.5t-14.5 -91t-6 -110.5q0 -63 5.5 -113
t14 -89.5t18 -69t16.5 -51.5q7 -21 11.5 -36t4.5 -26q0 -26 -16.5 -40.5t-44.5 -14.5z" />
    <glyph glyph-name="parenright" unicode=")" horiz-adv-x="248" 
d="M76 -150q-28 0 -44.5 14.5t-16.5 40.5q0 11 4.5 26t11.5 36q8 22 17 51.5t17.5 69t14 89.5t5.5 113q0 60 -6 110.5t-14.5 91t-18 72.5t-17.5 55q-6 20 -10 34t-4 22q0 25 16.5 40t44.5 15q13 0 23.5 -4.5t20.5 -17t19.5 -34t20.5 -56.5q23 -68 35.5 -154t12.5 -174
q0 -66 -7.5 -129.5t-19.5 -117.5t-27 -95.5t-30 -62.5q-11 -20 -22 -27.5t-26 -7.5z" />
    <glyph glyph-name="asterisk" unicode="*" horiz-adv-x="389" 
d="M194 343q-23 0 -36 12t-13 33q0 11 3.5 30.5t6.5 42.5q-38 -28 -54.5 -37.5t-28.5 -9.5q-21 0 -34 15t-13 37q0 12 7 21t19.5 15.5t29 13t34.5 14.5q-18 8 -34.5 14.5t-29 13.5t-19.5 16t-7 21q0 22 13 37t34 15q12 0 28.5 -9.5t54.5 -37.5q-3 23 -6.5 42.5t-3.5 30.5
q0 21 13 33t36 12t36 -11.5t13 -33.5q0 -14 -4 -34.5t-6 -38.5q23 16 42.5 31.5t39.5 15.5q21 0 35 -15.5t14 -36.5q0 -23 -23.5 -34.5t-67.5 -30.5q44 -18 67.5 -29.5t23.5 -34.5q0 -21 -14 -36.5t-35 -15.5q-20 0 -39.5 15.5t-42.5 31.5q2 -18 6 -38.5t4 -34.5
q0 -22 -13 -33.5t-36 -11.5z" />
    <glyph glyph-name="plus" unicode="+" horiz-adv-x="600" 
d="M300 0q-29 0 -44 18t-15 43v157h-156q-24 0 -43 16.5t-19 42.5q0 29 17.5 44t43.5 15h157v157q0 25 15 43t44 18t44 -18.5t15 -42.5v-157h157q26 0 43.5 -15t17.5 -44t-17.5 -44t-43.5 -15h-157v-157q0 -24 -15 -42.5t-44 -18.5z" />
    <glyph glyph-name="comma" unicode="," horiz-adv-x="270" 
d="M60 -145q-30 0 -49 17t-19 43q0 8 2 17.5t12 27.5l77 141q11 20 26 31.5t37 11.5q31 0 49.5 -17.5t18.5 -43.5q0 -8 -2 -17t-11 -27l-78 -143q-8 -17 -23.5 -29t-39.5 -12z" />
    <glyph glyph-name="hyphen" unicode="-" horiz-adv-x="411" 
d="M90 217q-26 0 -42.5 16t-16.5 43q0 28 16.5 44t42.5 16h231q26 0 42.5 -16t16.5 -44q0 -27 -16.5 -43t-42.5 -16h-231z" />
    <glyph glyph-name="period" unicode="." horiz-adv-x="270" 
d="M135 -14q-32 0 -55.5 23t-23.5 56q0 32 23.5 55.5t55.5 23.5t55.5 -23.5t23.5 -55.5t-23 -55.5t-56 -23.5z" />
    <glyph glyph-name="slash" unicode="/" horiz-adv-x="452" 
d="M67 -14q-22 0 -36 12.5t-14 35.5q0 12 6.5 28.5t24.5 51.5l277 559q27 53 59 53q24 0 37.5 -12.5t13.5 -35.5q0 -15 -10 -36.5t-20 -41.5l-267 -542q-12 -24 -21.5 -38t-17.5 -21.5t-15.5 -10t-16.5 -2.5z" />
    <glyph glyph-name="zero" unicode="0" horiz-adv-x="611" 
d="M306 -14q-65 0 -117.5 27.5t-89.5 76.5t-57 116t-20 146q0 88 21 157.5t59 117.5t90 73.5t114 25.5q64 0 116 -26.5t89 -74.5t57.5 -116.5t20.5 -152.5q0 -85 -20.5 -153.5t-58 -116.5t-89.5 -74t-115 -26zM306 124q32 0 56.5 17.5t41.5 48t26 73t9 93.5q0 48 -8 90.5
t-24.5 74t-42 49.5t-59.5 18q-32 0 -57 -17.5t-42 -48t-25.5 -73t-8.5 -93.5q0 -49 8.5 -91t25 -73.5t42 -49.5t58.5 -18z" />
    <glyph glyph-name="one" unicode="1" horiz-adv-x="337" 
d="M205 -6q-32 0 -52 20t-20 55v510h-59q-31 0 -49.5 18.5t-18.5 47.5t19 48t46 19h127q79 0 79 -70v-573q0 -35 -19.5 -55t-52.5 -20z" />
    <glyph glyph-name="two" unicode="2" horiz-adv-x="507" 
d="M92 0q-35 0 -56.5 17.5t-21.5 47.5q0 17 11 36.5t31 42.5l197 232q27 32 46.5 67.5t19.5 66.5q0 41 -20.5 59.5t-55.5 18.5q-40 0 -63.5 -29t-28.5 -75q-3 -28 -20 -42.5t-42 -14.5q-31 0 -50 20.5t-19 52.5q0 46 17.5 87t49 72t74.5 49t94 18q48 0 88 -15.5t69.5 -43
t45.5 -66t16 -84.5q0 -55 -28.5 -109t-80.5 -115l-133 -160h193q28 0 47 -18.5t19 -47.5t-19.5 -48t-46.5 -19h-333z" />
    <glyph glyph-name="three" unicode="3" horiz-adv-x="522" 
d="M252 -14q-52 0 -96 16.5t-76.5 43t-51 59.5t-18.5 65q0 29 21 49.5t47 20.5q24 0 39 -12.5t31 -38.5q16 -29 40.5 -47t63.5 -18q41 0 67 27.5t26 68.5q0 43 -26.5 64.5t-68.5 24.5q-38 2 -56.5 19.5t-18.5 48.5q0 32 18 44.5t62 23.5q27 5 45 23.5t18 53.5
q0 29 -18.5 47.5t-50.5 18.5q-38 0 -59 -20t-35 -43q-11 -16 -25.5 -25.5t-35.5 -9.5q-26 0 -43 21t-17 47q0 35 19 66t49.5 53.5t68.5 35.5t77 13q46 0 84.5 -14t66.5 -39.5t44 -60.5t16 -77t-19.5 -80t-61.5 -69q55 -21 86 -68t31 -110q0 -48 -19 -89t-51.5 -70.5t-77 -46
t-95.5 -16.5z" />
    <glyph glyph-name="four" unicode="4" horiz-adv-x="596" 
d="M412 -6q-33 0 -51.5 21t-18.5 56v87h-274q-32 0 -50.5 16.5t-18.5 40.5q0 14 6.5 30.5t23.5 44.5l239 376q14 22 37.5 37t68.5 15q51 0 79 -31t28 -76v-324h35q35 0 54.5 -15.5t19.5 -49.5q0 -33 -20.5 -48.5t-53.5 -15.5h-35v-86q0 -35 -18 -56.5t-51 -21.5zM342 287
v284h-2l-164 -284h166z" />
    <glyph glyph-name="five" unicode="5" horiz-adv-x="507" 
d="M237 -14q-42 0 -82 11t-72 29t-51.5 41t-19.5 47q0 31 18 51.5t44 20.5q17 0 33.5 -9.5t35 -21.5t40 -21.5t49.5 -9.5q48 0 76.5 33.5t28.5 94.5q0 48 -25 78t-67 30q-22 0 -36.5 -5.5t-27 -12t-25 -12t-29.5 -5.5q-26 0 -42 14t-16 40q0 17 1.5 35.5t3.5 29.5l27 202
q5 35 22 50.5t52 15.5h244q27 0 46.5 -19t19.5 -48t-19.5 -47.5t-46.5 -18.5h-194l-15 -112q16 6 36 9t39 3q48 0 86 -17.5t65 -49t41.5 -73.5t14.5 -92q0 -55 -19 -103t-53 -83t-80.5 -55t-102.5 -20z" />
    <glyph glyph-name="six" unicode="6" horiz-adv-x="538" 
d="M270 -14q-58 0 -104 18.5t-78.5 51t-50 76.5t-17.5 96q0 88 40 177.5t118 182.5q35 42 58.5 69t40.5 43t30.5 22t28.5 6t28 -6.5t22 -17t14 -22.5t5 -24q0 -21 -16.5 -41t-56.5 -61q-52 -55 -86 -111l2 -2q14 5 30.5 8.5t39.5 3.5q45 0 81.5 -18t62.5 -49t40.5 -71.5
t14.5 -85.5q0 -51 -17.5 -95.5t-49.5 -78t-78 -52.5t-102 -19zM268 124q20 0 38 8t31.5 22.5t21.5 34t8 41.5q0 45 -28.5 76t-70.5 31t-70 -30t-28 -77q0 -22 7.5 -41t21 -33.5t31 -23t38.5 -8.5z" />
    <glyph glyph-name="seven" unicode="7" horiz-adv-x="481" 
d="M142 -6q-31 0 -51 20t-20 44q0 17 8.5 37t14.5 32l209 452h-235q-26 0 -45.5 18.5t-19.5 47.5t19 48t46 19h337q30 0 51.5 -19.5t21.5 -46.5q0 -16 -8 -36l-14 -35l-244 -536q-9 -20 -26.5 -32.5t-43.5 -12.5z" />
    <glyph glyph-name="eight" unicode="8" 
d="M276 -14q-55 0 -101 17t-79 48t-51.5 73t-18.5 91q0 48 23 95.5t78 76.5v2q-31 25 -51.5 62.5t-20.5 81.5t16.5 79.5t46 60.5t70 39t88.5 14q47 0 87.5 -14t70 -39t46.5 -60.5t17 -79.5t-20.5 -81.5t-51.5 -62.5v-2q55 -29 78 -76.5t23 -95.5q0 -49 -18 -91t-51 -72.5
t-79 -48t-102 -17.5zM276 443q32 0 54.5 23t22.5 55q0 31 -23 54t-55 23q-31 0 -53.5 -23t-22.5 -54q0 -33 22.5 -55.5t54.5 -22.5zM276 124q21 0 39.5 8.5t32 23t21 33.5t7.5 41q0 43 -28.5 73.5t-72.5 30.5q-20 0 -38 -8t-31.5 -22.5t-21.5 -33.5t-8 -40t7.5 -40.5t21 -34
t32 -23t39.5 -8.5z" />
    <glyph glyph-name="nine" unicode="9" horiz-adv-x="538" 
d="M202 -16q-16 0 -29 6.5t-22 17t-13.5 22.5t-4.5 24q0 11 4.5 20.5t16.5 23.5q9 12 26.5 31.5t37.5 42.5t40 47.5t33 47.5l-2 2q-14 -5 -30.5 -8.5t-39.5 -3.5q-43 0 -79.5 18t-63 48.5t-41.5 71.5t-15 86q0 51 18 96t51 78t78.5 52t100.5 19q58 0 104 -18.5t78.5 -50.5
t49.5 -76.5t17 -96.5q0 -88 -40 -178.5t-117 -181.5q-33 -40 -56.5 -66.5t-40.5 -43t-31.5 -23.5t-29.5 -7zM269 375q42 0 70 30.5t28 76.5q0 22 -7.5 41t-20.5 33.5t-31 23t-39 8.5q-42 0 -70.5 -30.5t-28.5 -75.5q0 -22 7.5 -41.5t21 -34t31.5 -23t39 -8.5z" />
    <glyph glyph-name="colon" unicode=":" horiz-adv-x="270" 
d="M135 303q-32 0 -55.5 23.5t-23.5 55.5q0 33 24 56t55 23t55 -23.5t24 -55.5t-23.5 -55.5t-55.5 -23.5zM135 -14q-32 0 -55.5 23t-23.5 56q0 32 24 55.5t55 23.5t55 -23.5t24 -55.5t-23.5 -55.5t-55.5 -23.5z" />
    <glyph glyph-name="semicolon" unicode=";" horiz-adv-x="270" 
d="M135 303q-32 0 -55.5 23.5t-23.5 55.5q0 16 6.5 30.5t18 25t25.5 17t29 6.5q31 0 55 -23t24 -56q0 -32 -23.5 -55.5t-55.5 -23.5zM60 -145q-30 0 -49 17t-19 43q0 12 2.5 20t11.5 25l77 141q11 20 26 31.5t37 11.5q31 0 49.5 -17.5t18.5 -43.5q0 -8 -2 -17t-11 -27
l-78 -143q-8 -17 -23.5 -29t-39.5 -12z" />
    <glyph glyph-name="less" unicode="&#x3c;" horiz-adv-x="600" 
d="M524 19q-9 0 -21.5 3t-32.5 12l-409 190q-35 18 -35 53q0 17 10 31t24 21l415 194q18 8 29 10t20 2q22 0 36 -13.5t14 -39.5q0 -21 -10 -34.5t-35 -24.5l-335 -146l334 -146q25 -11 35.5 -23t10.5 -35q0 -26 -14 -40t-36 -14z" />
    <glyph glyph-name="equal" unicode="=" horiz-adv-x="600" 
d="M84 332q-26 0 -43.5 15t-17.5 44t17.5 44.5t43.5 15.5h432q26 0 43.5 -15.5t17.5 -44.5t-17.5 -44t-43.5 -15h-432zM84 103q-26 0 -43.5 15.5t-17.5 44.5t17.5 44t43.5 15h432q26 0 43.5 -15t17.5 -44t-17.5 -44.5t-43.5 -15.5h-432z" />
    <glyph glyph-name="greater" unicode="&#x3e;" horiz-adv-x="600" 
d="M76 19q-22 0 -36 14t-14 40q0 23 11 35t34 23l335 146l-335 146q-26 11 -35.5 24.5t-9.5 34.5q0 26 14 39.5t36 13.5q9 0 20.5 -2t32.5 -12l410 -191q16 -8 25.5 -22t9.5 -31t-9.5 -31t-24.5 -21l-402 -187q-26 -13 -39.5 -16t-22.5 -3z" />
    <glyph glyph-name="question" unicode="?" horiz-adv-x="489" 
d="M229 201q-32 0 -51 20t-19 49v91q0 26 12 40.5t56 20.5q43 8 66 29t23 57q0 32 -24 53.5t-59 21.5q-32 0 -53.5 -14t-35.5 -38q-14 -23 -29 -33.5t-38 -10.5q-27 0 -45.5 20.5t-18.5 47.5q0 39 19.5 70.5t50.5 54t70.5 34.5t79.5 12q51 0 94.5 -15.5t75.5 -43.5t50 -67
t18 -87q0 -168 -173 -203v-33q0 -40 -20 -58t-49 -18zM229 -14q-32 0 -55.5 23.5t-23.5 55.5t23 55.5t56 23.5q32 0 55 -23.5t23 -55.5t-23 -55.5t-55 -23.5z" />
    <glyph glyph-name="at" unicode="@" horiz-adv-x="919" 
d="M476 -135q-90 0 -170 32.5t-140 89.5t-95 134.5t-35 167.5q0 96 35 176t95 138t140.5 90.5t171.5 32.5q87 0 161.5 -26.5t129 -73.5t85 -111t30.5 -139q0 -78 -20.5 -137.5t-58 -99.5t-89.5 -60t-115 -20q-21 0 -45.5 14t-33.5 43q-26 -25 -60 -41t-79 -16q-37 0 -67 14
t-51 39.5t-32.5 61t-11.5 78.5q0 59 18.5 110.5t50 90t74.5 61t92 22.5q51 0 83 -18t57 -56l4 15q6 23 19 35t36 12q19 0 33 -11.5t14 -34.5q0 -6 -2 -17.5t-4 -17.5l-47 -217q-2 -11 -4 -20t-2 -14q0 -23 25 -23q24 0 45.5 12.5t37.5 35.5t25.5 55.5t9.5 72.5
q0 68 -23 120.5t-64 89t-97.5 55.5t-124.5 19t-127.5 -26t-104 -71t-70 -106.5t-25.5 -132.5q0 -72 24.5 -133t68.5 -105.5t105 -69t134 -24.5q72 0 129 18t89 44q17 14 35 14q16 0 28 -12t12 -28q0 -28 -33 -53q-19 -16 -48 -30.5t-64 -25t-74 -17t-80 -6.5zM423 176
q27 0 50 14t40 36.5t26.5 51t9.5 56.5q0 42 -19 67t-57 25q-24 0 -46 -13t-38.5 -35t-26.5 -50.5t-10 -60.5q0 -39 19 -65t52 -26z" />
    <glyph glyph-name="A" unicode="A" horiz-adv-x="626" 
d="M71 -6q-32 0 -50.5 16t-18.5 43q0 22 7.5 46.5t16.5 48.5l182 487q17 45 41.5 68t64.5 23q38 0 63 -23t42 -68l184 -494q8 -20 14.5 -42.5t6.5 -45.5q0 -27 -18.5 -43t-49.5 -16q-34 0 -50 18.5t-27 54.5l-25 74h-282l-24 -72q-14 -44 -31 -59.5t-46 -15.5zM411 274
l-94 289h-2l-100 -289h196z" />
    <glyph glyph-name="B" unicode="B" horiz-adv-x="582" 
d="M116 0q-30 0 -51 20t-21 50v572q0 30 21 50t51 20h184q43 0 79 -13t62.5 -37t41.5 -58t15 -76q0 -46 -22.5 -81.5t-67.5 -55.5v-3q68 -14 107.5 -58t39.5 -117q0 -49 -17 -88t-48 -67t-75.5 -43t-98.5 -15h-200zM272 429q34 0 58 20t24 58q0 37 -23 57t-60 20h-83v-155
h84zM299 128q49 0 78 22t29 65q0 42 -31.5 64t-76.5 22h-110v-173h111z" />
    <glyph glyph-name="C" unicode="C" horiz-adv-x="593" 
d="M369 -14q-81 0 -145 28t-108 77t-67.5 116t-23.5 144q0 82 24 150.5t69 118.5t108.5 78t142.5 28q49 0 89.5 -9.5t69.5 -24.5q26 -14 41 -34.5t15 -43.5q0 -29 -18 -49t-44 -20q-8 0 -18.5 3.5t-22.5 8.5q-26 13 -53 22t-57 9q-45 0 -80 -17.5t-60 -49t-38 -74t-13 -93.5
q0 -49 12.5 -90.5t36.5 -71.5t58 -46.5t77 -16.5q42 0 70.5 8t48.5 18q13 6 24 10t22 4q31 0 47 -18.5t16 -47.5q0 -23 -14 -43t-38 -34q-31 -18 -75.5 -29t-95.5 -11z" />
    <glyph glyph-name="D" unicode="D" horiz-adv-x="660" 
d="M116 0q-30 0 -51 20t-21 50v572q0 30 21 50t51 20h197q70 0 129 -26.5t102 -74t67 -112t24 -140.5q0 -87 -27 -154t-72 -112.5t-103 -69t-121 -23.5h-196zM289 133q89 0 140 58.5t51 169.5q0 103 -50 160.5t-135 57.5h-107v-446h101z" />
    <glyph glyph-name="E" unicode="E" horiz-adv-x="459" 
d="M116 0q-30 0 -51 20t-21 51v571q0 30 21 50t51 20h250q30 0 50 -18.5t20 -48.5q0 -32 -20 -49t-50 -17h-177v-155h164q30 0 50 -17.5t20 -49.5q0 -31 -19 -48.5t-51 -17.5h-165v-158h184q32 0 51.5 -17t19.5 -49q0 -30 -20 -48.5t-50 -18.5h-257z" />
    <glyph glyph-name="F" unicode="F" horiz-adv-x="437" 
d="M116 -6q-32 0 -52 20t-20 55v572q0 31 21.5 51t50.5 20h252q30 0 50 -18.5t20 -48.5q0 -32 -20 -49t-50 -17h-180v-153h158q30 0 50 -17.5t20 -49.5t-20 -49.5t-50 -17.5h-158v-223q0 -35 -19.5 -55t-52.5 -20z" />
    <glyph glyph-name="G" unicode="G" horiz-adv-x="711" 
d="M371 -14q-86 0 -151 30t-108.5 80.5t-65 117t-21.5 138.5q0 81 25.5 150t70.5 118.5t108 77.5t138 28q71 0 133 -20.5t98 -52.5q38 -35 38 -74q0 -28 -17.5 -45t-46.5 -17q-15 0 -28 6t-28 16q-30 22 -62.5 38t-80.5 16q-43 0 -78.5 -18t-61 -50t-39.5 -75t-14 -94
q0 -52 13 -95.5t38 -75t60.5 -49t80.5 -17.5q69 0 114 44t50 122h-102q-32 0 -51 17.5t-19 48.5q0 32 19 49.5t50 17.5h173q36 0 57 -21.5t21 -69.5q0 -76 -22.5 -139t-64 -108t-99 -69.5t-127.5 -24.5z" />
    <glyph glyph-name="H" unicode="H" horiz-adv-x="697" 
d="M116 -6q-32 0 -52 20t-20 55v574q0 35 20 55t52 20q33 0 52.5 -20t19.5 -55v-211h320v211q0 35 20 55t52 20t52 -20t20 -55v-574q0 -35 -20 -55t-52 -20t-52 20t-20 55v229h-320v-229q0 -35 -19.5 -55t-52.5 -20z" />
    <glyph glyph-name="I" unicode="I" horiz-adv-x="233" 
d="M116 -6q-32 0 -52 20t-20 55v574q0 35 20 55t52 20q33 0 52.5 -20t19.5 -55v-574q0 -35 -19.5 -55t-52.5 -20z" />
    <glyph glyph-name="J" unicode="J" horiz-adv-x="411" 
d="M163 -14q-30 1 -60.5 7.5t-55.5 19t-41 32t-16 46.5q0 32 17 51.5t48 19.5q13 0 24.5 -6t23.5 -13.5t25.5 -13.5t30.5 -6q35 0 49.5 25t14.5 79v416q0 35 20 55t52 20t52 -20t20 -55v-439q0 -218 -204 -218z" />
    <glyph glyph-name="K" unicode="K" horiz-adv-x="598" 
d="M116 -6q-32 0 -52 20t-20 55v574q0 35 20 55t52 20q33 0 52.5 -20t19.5 -55v-214l238 247q21 22 36.5 32t37.5 10q13 0 26 -5.5t23 -15t16 -22t6 -25.5q0 -18 -10.5 -34.5t-25.5 -30.5l-209 -205l251 -264q24 -24 24 -52q0 -31 -21 -50.5t-54 -19.5q-7 0 -15 1.5t-18 7
t-23 17.5t-32 33l-250 269v-253q0 -35 -19.5 -55t-52.5 -20z" />
    <glyph glyph-name="L" unicode="L" horiz-adv-x="429" 
d="M115 0q-29 0 -50 20t-21 50v573q0 35 20 55t52 20q33 0 52.5 -20t19.5 -55v-510h179q32 0 51.5 -17t19.5 -49q0 -30 -20 -48.5t-50 -18.5h-253z" />
    <glyph glyph-name="M" unicode="M" horiz-adv-x="863" 
d="M88 -6q-29 0 -48.5 20.5t-19.5 47.5q0 10 5 42.5t18 107.5l68 405q9 55 34 78t67 23q26 0 43 -7.5t30 -23.5t23 -39.5t20 -56.5l102 -329h2l96 306q13 41 24.5 69.5t24.5 46.5t29.5 26t39.5 8q45 0 70.5 -22.5t35.5 -77.5l82 -486q5 -27 6.5 -44.5t1.5 -25.5
q0 -27 -18.5 -47.5t-49.5 -20.5q-42 0 -58.5 24.5t-24.5 75.5l-55 368h-2l-124 -403q-11 -35 -29 -50t-50 -15q-34 0 -50.5 16.5t-27.5 48.5l-124 402h-2l-56 -374q-4 -30 -12 -48t-19 -28t-24 -13.5t-28 -3.5z" />
    <glyph glyph-name="N" unicode="N" horiz-adv-x="696" 
d="M116 -6q-32 0 -52 20t-20 55v575q0 34 20 54t52 20q26 0 41 -11t32 -32l317 -413h2v381q0 35 20 55t52 20t52 -20t20 -55v-574q0 -35 -19.5 -55t-52.5 -20q-24 0 -40.5 12t-36.5 38l-313 408h-2v-383q0 -35 -19.5 -55t-52.5 -20z" />
    <glyph glyph-name="O" unicode="O" horiz-adv-x="730" 
d="M365 -14q-77 0 -140 27t-107.5 76t-68.5 117t-24 150q0 84 24.5 152.5t69.5 116.5t107.5 74.5t138.5 26.5q77 0 140 -27t107.5 -75.5t69 -116.5t24.5 -151q0 -81 -23.5 -149t-68 -117t-107.5 -76.5t-142 -27.5zM366 119q45 0 79.5 18t58 49.5t35.5 74.5t12 94t-12 95
t-35.5 75.5t-58.5 49.5t-81 18q-43 0 -77 -17t-58 -48.5t-36.5 -75t-12.5 -96.5q0 -51 12.5 -94.5t36 -75t58 -49.5t79.5 -18z" />
    <glyph glyph-name="P" unicode="P" horiz-adv-x="563" 
d="M116 -6q-32 0 -52 20t-20 55v573q0 30 20.5 50t51.5 20h199q46 0 88.5 -15.5t75.5 -45.5t52.5 -73t19.5 -97q0 -57 -16.5 -102t-47.5 -76.5t-74 -48t-97 -16.5h-128v-169q0 -35 -19.5 -55t-52.5 -20zM287 366q51 0 83 31.5t32 76.5q0 51 -32 80.5t-83 29.5h-99v-218h99z
" />
    <glyph glyph-name="Q" unicode="Q" horiz-adv-x="730" 
d="M673 -46q-21 0 -37.5 10t-34.5 27l-52 47q-38 -25 -84 -38.5t-100 -13.5q-77 0 -140 27t-107.5 76t-68.5 117t-24 150q0 83 24.5 151.5t69 117t107 75t139.5 26.5t140 -26.5t107.5 -75.5t69 -117t24.5 -151q0 -67 -16.5 -124.5t-46.5 -104.5l45 -42q25 -23 35 -37.5
t10 -32.5q0 -26 -17.5 -43.5t-42.5 -17.5zM365 118q44 0 76 17l-32 30q-16 14 -24 26.5t-8 29.5q0 26 17 43.5t43 17.5q20 0 37 -9.5t33 -23.5l21 -20q23 57 23 127q0 52 -12 95.5t-36 75t-59 49.5t-80 18q-43 0 -77 -17.5t-58 -49t-36.5 -75t-12.5 -96.5q0 -52 12.5 -96
t36.5 -75.5t58.5 -49t77.5 -17.5z" />
    <glyph glyph-name="R" unicode="R" horiz-adv-x="563" 
d="M116 -6q-32 0 -52 20t-20 55v573q0 30 20.5 50t51.5 20h190q52 0 95 -15.5t73.5 -44t47.5 -68t17 -87.5q0 -35 -10 -68t-31 -60t-52 -46t-73 -26l-18 -1l162 -174q13 -14 21.5 -28.5t8.5 -33.5q0 -25 -20 -45.5t-53 -20.5q-20 0 -35 6t-33 29l-216 262h-2v-222
q0 -35 -19.5 -55t-52.5 -20zM302 400q42 0 67.5 23.5t25.5 65.5q0 43 -27 66.5t-66 23.5h-114v-179h114z" />
    <glyph glyph-name="S" unicode="S" horiz-adv-x="522" 
d="M239 -14q-51 0 -99.5 11t-81.5 31q-23 14 -36.5 31.5t-13.5 37.5q0 30 18.5 52.5t49.5 22.5q8 0 18.5 -2.5t22.5 -7.5q26 -11 57.5 -22t70.5 -11q50 0 76.5 22.5t26.5 60.5q0 32 -25.5 51.5t-77.5 36.5q-47 15 -88 30.5t-71.5 38t-48 55.5t-17.5 84q0 52 19 92.5t52 68.5
t78 42.5t97 14.5q40 0 75 -7.5t60 -19.5q59 -28 59 -74q0 -30 -18 -49.5t-46 -19.5q-10 0 -18.5 2t-16.5 4q-23 8 -45.5 17t-56.5 9q-37 0 -61 -18.5t-24 -50.5q0 -29 27 -44t80 -33q52 -17 93 -35t69 -42.5t43 -59t15 -85.5q0 -55 -18.5 -98.5t-52.5 -73.5t-82.5 -46
t-108.5 -16z" />
    <glyph glyph-name="T" unicode="T" horiz-adv-x="456" 
d="M228 -6q-32 0 -52 20t-20 55v510h-103q-32 0 -52 17.5t-20 48.5q0 32 20 49.5t52 17.5h350q32 0 52 -17.5t20 -49.5q0 -31 -20 -48.5t-52 -17.5h-103v-510q0 -35 -20 -55t-52 -20z" />
    <glyph glyph-name="U" unicode="U" horiz-adv-x="681" 
d="M341 -14q-68 0 -123.5 21.5t-95 59.5t-61 90.5t-21.5 115.5v370q0 35 20 55t52 20q33 0 52.5 -20t19.5 -55v-367q0 -33 11.5 -61t32 -48.5t49 -31.5t63.5 -11t64 11t49.5 31.5t32 48.5t11.5 61v367q0 35 19.5 55t52.5 20q32 0 52 -20t20 -55v-370q0 -63 -21.5 -115.5
t-61 -91t-94.5 -59.5t-123 -21z" />
    <glyph glyph-name="V" unicode="V" horiz-adv-x="570" 
d="M284 -6q-27 0 -44.5 14.5t-28.5 43.5l-207 535q-8 21 -13 37t-5 25q0 27 19 48t51 21q26 0 45.5 -11.5t35.5 -55.5l147 -402h2l145 394q17 46 34.5 60.5t48.5 14.5t50.5 -21t19.5 -48q0 -9 -4 -22t-12 -35l-213 -544q-11 -26 -28 -40t-43 -14z" />
    <glyph glyph-name="W" unicode="W" horiz-adv-x="890" 
d="M226 -6q-28 0 -45 7.5t-28.5 23.5t-18.5 39.5t-15 54.5l-99 439q-2 7 -5 19t-6 25t-5 25.5t-2 21.5q0 31 21 50t51 19q62 0 76 -68l84 -425h2l127 416q14 43 33 60t49 17q58 0 80 -73l128 -420h2l84 420q9 42 28.5 57.5t48.5 15.5q31 0 51 -19.5t20 -49.5q0 -17 -7 -48
l-115 -502q-15 -59 -36 -82t-66 -23q-42 0 -66.5 21t-36.5 59l-114 374h-2l-114 -373q-12 -38 -37 -59.5t-67 -21.5z" />
    <glyph glyph-name="X" unicode="X" horiz-adv-x="608" 
d="M72 -6q-29 0 -49.5 20.5t-20.5 49.5q0 12 3.5 23.5t13.5 24.5l199 271l-152 205q-10 12 -18.5 28.5t-8.5 35.5q0 27 20.5 46.5t54.5 19.5q36 0 63 -39l127 -177l121 170q16 23 32 34.5t38 11.5q34 0 54 -20t20 -46q0 -20 -8 -35t-18 -28l-152 -206l181 -246
q11 -17 22.5 -33.5t11.5 -39.5q0 -32 -20.5 -51t-49.5 -19q-23 0 -38 9.5t-31 32.5l-163 224l-159 -220q-19 -26 -34.5 -36t-38.5 -10z" />
    <glyph glyph-name="Y" unicode="Y" horiz-adv-x="527" 
d="M263 -6q-32 0 -52 20t-20 55v266l-146 209q-31 42 -45.5 66t-14.5 45q0 27 21.5 45t53.5 18q16 0 28 -6t21 -14.5t16 -18.5t13 -18l125 -186l129 192q25 36 42 43.5t33 7.5q32 0 53.5 -18t21.5 -45q0 -20 -13 -42.5t-44 -64.5l-150 -213v-266q0 -35 -19.5 -55t-52.5 -20z
" />
    <glyph glyph-name="Z" unicode="Z" horiz-adv-x="573" 
d="M112 0q-48 0 -73.5 18.5t-25.5 60.5q0 17 7 33t22 36l317 436h-260q-35 0 -55 17.5t-20 46.5t20 46.5t54 17.5h364q41 0 62 -19t21 -51t-37 -82l-310 -427h288q34 0 54 -17.5t20 -48.5q0 -32 -20 -49.5t-54 -17.5h-374z" />
    <glyph glyph-name="bracketleft" unicode="[" horiz-adv-x="326" 
d="M143 -146q-64 0 -64 62v749q0 29 16 45t44 16h126q22 0 36.5 -14t14.5 -38q0 -23 -15 -37t-35 -14h-62v-666h62q22 0 36 -14t14 -37q0 -24 -14 -38t-36 -14h-123z" />
    <glyph glyph-name="backslash" unicode="\" horiz-adv-x="452" 
d="M384 -14q-6 0 -12.5 1.5t-15 9t-19 22t-24.5 41.5l-265 538q-12 23 -21.5 44t-9.5 36q0 23 14 35.5t36 12.5q18 0 33 -14t38 -58l265 -538q20 -38 26 -54.5t6 -27.5q0 -23 -13.5 -35.5t-37.5 -12.5z" />
    <glyph glyph-name="bracketright" unicode="]" horiz-adv-x="326" 
d="M61 -146q-21 0 -36 14t-15 38q0 23 15 37t35 14h62v666h-62q-20 0 -35 14t-15 37q0 24 15 38t35 14h119q68 0 68 -61v-751q0 -28 -16 -44t-44 -16h-126z" />
    <glyph glyph-name="asciicircum" unicode="^" horiz-adv-x="600" 
d="M111 304q-23 0 -35.5 9.5t-12.5 25.5q0 8 2 17t16 34l157 284q17 30 30.5 37t31.5 7q19 0 33 -7.5t26 -30.5l165 -300q13 -24 13 -41t-12.5 -26t-34.5 -9q-25 0 -39 9t-25 30l-126 231l-126 -230q-11 -21 -25 -30.5t-38 -9.5z" />
    <glyph glyph-name="underscore" unicode="_" horiz-adv-x="500" 
d="M-1 -125q-11 0 -19.5 6t-8.5 19t8.5 19t19.5 6h502q11 0 19.5 -6t8.5 -19t-8.5 -19t-19.5 -6h-502z" />
    <glyph glyph-name="grave" unicode="`" horiz-adv-x="218" 
d="M165 595q-8 0 -18 1.5t-34 12.5l-133 57q-21 8 -28.5 21t-7.5 30q0 24 16 42.5t42 18.5q9 0 19 -2t21 -7l145 -61q21 -9 28 -21.5t7 -29.5q0 -26 -15.5 -44t-41.5 -18z" />
    <glyph glyph-name="a" unicode="a" horiz-adv-x="570" 
d="M258 -14q-51 0 -94.5 21.5t-75.5 59t-50 89t-18 110.5t18 110t50 89t75.5 59.5t94.5 21.5q45 0 77.5 -15.5t59.5 -49.5h2l2 11q5 18 20 32t44 14q31 0 49.5 -21t18.5 -51v-400q0 -30 -18.5 -51t-49.5 -21q-29 0 -44 14t-20 32l-2 11h-2q-26 -34 -59 -49.5t-78 -15.5z
M276 118q54 0 85 41.5t31 106.5q0 64 -30.5 106t-86.5 42q-26 0 -47.5 -11t-36.5 -31t-23 -47t-8 -59q0 -65 31 -106.5t85 -41.5z" />
    <glyph glyph-name="b" unicode="b" horiz-adv-x="570" 
d="M312 -14q-45 0 -78 15.5t-59 49.5h-2l-1 -11q-6 -18 -21 -32t-43 -14q-31 0 -49.5 21t-18.5 51v633q0 29 19 50t50 21q32 0 51 -21t19 -50v-203h2q28 26 58.5 38t72.5 12q53 0 96.5 -22t75.5 -60.5t49.5 -89.5t17.5 -108q0 -60 -18 -111t-50.5 -88.5t-76 -59t-94.5 -21.5
zM294 118q54 0 85 41.5t31 106.5q0 64 -30.5 106t-86.5 42q-52 0 -83 -41.5t-31 -106.5t30.5 -106.5t84.5 -41.5z" />
    <glyph glyph-name="c" unicode="c" horiz-adv-x="459" 
d="M275 -14q-56 0 -103 22t-80.5 59.5t-52.5 88.5t-19 109q0 59 19 110.5t53 89.5t81.5 59.5t104.5 21.5q72 0 120 -23q26 -11 40 -29t14 -42q0 -28 -16.5 -47t-42.5 -19q-16 0 -32 8q-19 8 -36 13.5t-41 5.5q-59 0 -91.5 -42t-32.5 -104q0 -31 8 -58.5t23.5 -47t37 -31
t48.5 -11.5q23 0 42 4.5t33 9.5t24.5 9t17.5 4q23 0 40.5 -18.5t17.5 -42.5q0 -23 -15.5 -41t-41.5 -31q-26 -14 -57.5 -20.5t-62.5 -6.5z" />
    <glyph glyph-name="d" unicode="d" horiz-adv-x="570" 
d="M258 -14q-51 0 -94.5 21.5t-75.5 59t-50 88.5t-18 111q0 58 17.5 109t49.5 89t76 60t96 22q42 0 72 -12t58 -38h3v203q0 29 18.5 50t50.5 21q31 0 50.5 -21t19.5 -50v-633q0 -30 -18.5 -51t-49.5 -21q-29 0 -44 14t-20 32l-2 11h-2q-26 -34 -59 -49.5t-78 -15.5zM276 118
q54 0 85 41.5t31 106.5q0 32 -8 59t-23 47t-36.5 31t-47.5 11q-27 0 -49 -11.5t-37 -31t-23 -46.5t-8 -59q0 -65 31 -106.5t85 -41.5z" />
    <glyph glyph-name="e" unicode="e" horiz-adv-x="549" 
d="M286 -14q-61 0 -110.5 21.5t-84 59t-53 89t-18.5 110.5q0 56 19.5 107t54 89.5t83.5 61t107 22.5q56 0 102 -21.5t78.5 -58t50 -84.5t17.5 -100q0 -34 -16 -48.5t-52 -14.5h-294q2 -48 36.5 -77t94.5 -29q32 0 62.5 10.5t61.5 30.5q26 15 40 15q26 0 42.5 -17.5
t16.5 -42.5q0 -19 -11.5 -36.5t-31.5 -31.5q-34 -25 -86 -40t-109 -15zM391 316q-1 22 -10 42.5t-24 36t-35 24.5t-42 9t-41.5 -9t-34.5 -24.5t-24 -36t-10 -42.5h221z" />
    <glyph glyph-name="f" unicode="f" horiz-adv-x="331" 
d="M155 -6q-30 0 -49.5 21t-19.5 51v339h-18q-41 0 -59.5 15.5t-18.5 47.5q0 64 74 64h22v82q0 32 10 60t28.5 49.5t45.5 34t61 12.5h12q45 0 68.5 -17t23.5 -47q0 -64 -67 -64h-10q-17 0 -25 -12t-8 -31v-67h50q29 0 49 -15t20 -49q0 -33 -20 -48t-49 -15h-50v-339
q0 -30 -19.5 -51t-50.5 -21z" />
    <glyph glyph-name="g" unicode="g" horiz-adv-x="570" 
d="M258 -221q-48 0 -96 12t-82 32q-23 14 -36 31t-13 37q0 23 18 42.5t41 19.5q11 0 22.5 -4.5t25.5 -11.5q22 -12 49.5 -23t66.5 -11q63 0 100.5 32.5t37.5 107.5v15h-2q-45 -64 -144 -64q-52 0 -94 20.5t-71.5 57t-45 86.5t-15.5 108t18 109t49.5 89t75 60t95.5 22
q86 0 137 -64h2l2 10q5 18 20 32t44 14q31 0 49.5 -21t18.5 -51v-424q0 -62 -19 -110.5t-54 -82.5t-86 -52t-114 -18zM276 116q54 0 85 42t31 108q0 64 -30.5 106t-86.5 42q-26 0 -47 -11t-36 -31t-23.5 -47t-8.5 -59q0 -66 31 -108t85 -42z" />
    <glyph glyph-name="h" unicode="h" 
d="M112 -6q-31 0 -50.5 21t-19.5 51v633q0 29 19.5 50t50.5 21q30 0 49.5 -21t19.5 -50v-199h2q35 26 66 36t68 10q89 0 141 -49.5t52 -131.5v-299q0 -31 -19.5 -51.5t-50.5 -20.5q-30 0 -49.5 21t-19.5 51v265q0 40 -25 68t-70 28q-44 0 -69.5 -29t-25.5 -71v-261
q0 -30 -19.5 -51t-49.5 -21z" />
    <glyph glyph-name="i" unicode="i" horiz-adv-x="223" 
d="M112 591q-34 0 -59.5 24t-25.5 60q0 35 25 60t60 25q36 0 60 -25t24 -60t-24.5 -59.5t-59.5 -24.5zM112 -6q-31 0 -50.5 21t-19.5 51v400q0 30 19.5 51t50.5 21q32 0 50.5 -21t18.5 -51v-400q0 -30 -19.5 -51t-49.5 -21z" />
    <glyph glyph-name="j" unicode="j" horiz-adv-x="218" 
d="M109 591q-33 0 -58.5 24.5t-25.5 59.5t24.5 60t59.5 25q36 0 60 -25t24 -60t-24.5 -59.5t-59.5 -24.5zM109 -221q-31 0 -50 21t-19 50v616q0 30 19 51t50 21q32 0 51 -21t19 -51v-616q0 -29 -19.5 -50t-50.5 -21z" />
    <glyph glyph-name="k" unicode="k" horiz-adv-x="489" 
d="M112 -6q-31 0 -50.5 21t-19.5 51v633q0 29 19.5 50t50.5 21q30 0 49.5 -21t19.5 -50v-345l164 156q13 12 27.5 20t31.5 8q29 0 47.5 -18.5t18.5 -45.5q0 -18 -11 -33t-41 -44l-106 -96l159 -187q16 -20 22 -32.5t6 -23.5q0 -26 -19 -45t-48 -19q-25 0 -41 10.5t-36 35.5
l-174 213v-187q0 -30 -19.5 -51t-49.5 -21z" />
    <glyph glyph-name="l" unicode="l" horiz-adv-x="218" 
d="M109 -6q-31 0 -50 21t-19 51v633q0 29 19 50t50 21q32 0 51 -21t19 -50v-633q0 -30 -19.5 -51t-50.5 -21z" />
    <glyph glyph-name="m" unicode="m" horiz-adv-x="848" 
d="M112 -6q-31 0 -50.5 21t-19.5 51v400q0 30 19.5 51t50.5 21q29 0 45.5 -14t21.5 -32l1 -9h2q20 32 53 47.5t82 15.5q45 0 84 -19t60 -51q39 36 76 53t76 17q89 0 141 -49.5t52 -132.5v-298q0 -30 -19.5 -51t-50.5 -21q-30 0 -49.5 21t-19.5 51v261q0 42 -22.5 71
t-63.5 29q-38 0 -62.5 -28.5t-24.5 -71.5v-261q0 -30 -19.5 -51t-50.5 -21t-50.5 21t-19.5 51v261q0 40 -21.5 70t-64.5 30q-39 0 -63 -29.5t-24 -71.5v-260q0 -30 -19.5 -51t-49.5 -21z" />
    <glyph glyph-name="n" unicode="n" 
d="M112 -6q-31 0 -50.5 21t-19.5 51v400q0 30 19.5 51t50.5 21q29 0 45.5 -14t21.5 -32l1 -9h2q20 32 53 47.5t82 15.5q89 0 141 -49.5t52 -131.5v-299q0 -29 -19.5 -50.5t-50.5 -21.5q-30 0 -49.5 21.5t-19.5 50.5v264q0 41 -25.5 69t-69.5 28q-43 0 -69 -29t-26 -71v-261
q0 -30 -19.5 -51t-49.5 -21z" />
    <glyph glyph-name="o" unicode="o" 
d="M276 -14q-57 0 -104.5 21.5t-81 59t-52 88.5t-18.5 111t18.5 111t52.5 88.5t81 59t104 21.5q56 0 103 -21t81 -58.5t53 -88.5t19 -112q0 -60 -18.5 -111t-52 -88.5t-81 -59t-104.5 -21.5zM276 118q54 0 85 41.5t31 106.5q0 64 -30.5 106t-86.5 42q-53 0 -84 -41.5
t-31 -106.5t31 -106.5t85 -41.5z" />
    <glyph glyph-name="p" unicode="p" horiz-adv-x="570" 
d="M109 -221q-31 0 -50 21t-19 50v616q0 30 18 51t48 21t45 -14t21 -32l1 -11h2q20 32 55.5 48.5t81.5 16.5q52 0 95.5 -22t75.5 -59.5t50 -88.5t18 -110q0 -58 -18 -109.5t-50 -89t-76 -59.5t-95 -22q-42 0 -72.5 12t-58.5 37h-2v-185q0 -29 -19.5 -50t-50.5 -21zM294 118
q54 0 85 41.5t31 106.5q0 64 -30.5 106t-86.5 42q-52 0 -83 -41.5t-31 -106.5t30.5 -106.5t84.5 -41.5z" />
    <glyph glyph-name="q" unicode="q" horiz-adv-x="570" 
d="M461 -221q-30 0 -49.5 21.5t-19.5 50.5v184h-3q-27 -25 -58 -37t-73 -12q-51 0 -94.5 22t-75.5 60t-50 89t-18 109q0 59 18 110t49.5 89t75 59.5t95.5 21.5q46 0 81.5 -16.5t54.5 -48.5h2l2 11q5 18 20 32t43 14q31 0 50.5 -21.5t19.5 -50.5v-615q0 -29 -19.5 -50.5
t-50.5 -21.5zM276 118q54 0 85 41.5t31 106.5q0 64 -30.5 106t-86.5 42q-53 0 -84 -41.5t-31 -106.5t31 -106.5t85 -41.5z" />
    <glyph glyph-name="r" unicode="r" horiz-adv-x="345" 
d="M112 -6q-31 0 -50.5 21t-19.5 51v400q0 30 19.5 51t49.5 21t46 -14t21 -32l2 -14h2q23 32 51 50t58 18q32 0 53 -21t21 -51q0 -11 -2.5 -21.5t-11.5 -19.5t-27 -18t-48 -17q-56 -14 -75.5 -43t-19.5 -79v-210q0 -30 -19.5 -51t-49.5 -21z" />
    <glyph glyph-name="s" unicode="s" horiz-adv-x="430" 
d="M216 -14q-51 0 -94 12.5t-72 33.5q-17 12 -27.5 27.5t-10.5 32.5q0 29 17.5 48.5t40.5 19.5q19 0 42 -14q24 -13 51 -25.5t59 -12.5q30 0 44.5 13t14.5 30q0 21 -19 33.5t-47 23t-61 22t-61 30t-47 46t-19 70.5q0 35 14.5 65.5t40.5 54t61.5 37t77.5 13.5q37 0 72.5 -8.5
t61.5 -25.5q21 -14 34.5 -31.5t13.5 -39.5q0 -28 -17 -44t-42 -16q-8 0 -18 4t-21 9q-20 10 -43 20t-46 10t-38 -11t-15 -31q0 -17 18.5 -29t47 -22.5t61 -23t61 -31.5t47 -47.5t18.5 -71.5q0 -39 -15 -70.5t-42 -54t-63.5 -34.5t-79.5 -12z" />
    <glyph glyph-name="t" unicode="t" horiz-adv-x="330" 
d="M155 -6q-30 0 -49.5 21t-19.5 51v339h-18q-41 0 -59.5 15.5t-18.5 47.5q0 64 77 64h19v107q0 30 19.5 51t49.5 21q31 0 50.5 -21t19.5 -51v-107h46q30 0 49.5 -15t19.5 -49q0 -33 -19.5 -48t-49.5 -15h-46v-339q0 -30 -19.5 -51t-50.5 -21z" />
    <glyph glyph-name="u" unicode="u" 
d="M276 -14q-53 0 -96.5 14t-74 40t-47 62.5t-16.5 82.5v281q0 30 19.5 51t50.5 21q30 0 49.5 -21t19.5 -51v-259q0 -42 26.5 -68t68.5 -26t68.5 26t26.5 68v259q0 29 19.5 50.5t49.5 21.5q31 0 50.5 -21.5t19.5 -50.5v-281q0 -45 -16.5 -81.5t-47 -62.5t-73.5 -40.5
t-97 -14.5z" />
    <glyph glyph-name="v" unicode="v" horiz-adv-x="456" 
d="M228 -6q-29 0 -47.5 15.5t-28.5 40.5l-126 325q-9 24 -14.5 39t-8.5 25t-4 16.5t-1 13.5q0 29 21 49t50 20q17 0 35.5 -9.5t31.5 -47.5l91 -263h2l90 259q13 37 29 49t41 12q29 0 49 -21t20 -48q0 -14 -4.5 -29.5t-18.5 -50.5l-131 -341q-9 -23 -28 -38.5t-48 -15.5z" />
    <glyph glyph-name="w" unicode="w" horiz-adv-x="756" 
d="M222 -6q-37 0 -56.5 18.5t-30.5 49.5l-116 329q-12 33 -17 50.5t-5 30.5q0 27 18.5 46.5t51.5 19.5q26 0 43 -13t23 -33l87 -286h2l88 276q8 26 25 41t43 15q23 0 41.5 -14t33.5 -61l81 -257h2l85 280q16 52 68 52q33 0 51.5 -19.5t18.5 -46.5q0 -9 -4 -23.5t-9.5 -31.5
t-12 -34.5t-11.5 -31.5l-97 -279q-14 -38 -31.5 -58t-58.5 -20q-32 0 -50 15.5t-32 57.5l-74 226h-2l-75 -229q-11 -32 -27 -51t-53 -19z" />
    <glyph glyph-name="x" unicode="x" horiz-adv-x="492" 
d="M66 -6q-30 0 -50 19t-20 50q0 17 7.5 31.5t20.5 28.5l139 158l-92 105q-6 7 -15.5 16t-17.5 19t-14 21.5t-6 22.5q0 33 20 53t47 20q24 0 38.5 -7t31.5 -30l91 -116l90 116q17 21 32.5 29t39.5 8q26 0 46 -19.5t20 -51.5q0 -8 -2 -15.5t-8 -16t-16 -20.5t-26 -29
l-92 -105l139 -158q17 -18 22.5 -31.5t5.5 -28.5q0 -31 -20.5 -50t-50.5 -19q-16 0 -30 7.5t-24 18.5l-126 155l-106 -131q-13 -15 -29.5 -32.5t-44.5 -17.5z" />
    <glyph glyph-name="y" unicode="y" horiz-adv-x="485" 
d="M160 -221q-32 0 -50 19t-18 44q0 17 7 36t16 39l54 126l-138 345q-3 7 -7.5 18.5t-9.5 24.5t-8.5 24.5t-3.5 17.5q0 29 19.5 47t48.5 18q19 0 38.5 -10t33.5 -45l98 -265h2l95 247q28 73 75 73q32 0 51.5 -19t19.5 -51q0 -12 -6.5 -31.5t-17.5 -45.5l-223 -547
q-18 -41 -34 -53t-42 -12z" />
    <glyph glyph-name="z" unicode="z" horiz-adv-x="459" 
d="M65 0q-31 0 -47 13.5t-16 36.5q0 15 7 29t19 32l209 293h-159q-29 0 -49.5 14.5t-20.5 49.5q0 34 20.5 49t50.5 15h302q32 0 48 -13.5t16 -36.5q0 -14 -6.5 -25t-16.5 -25l-221 -304h186q29 0 50 -14.5t21 -49.5q0 -34 -21 -49t-50 -15h-322z" />
    <glyph glyph-name="braceleft" unicode="{" horiz-adv-x="333" 
d="M219 -146q-61 0 -91.5 32t-30.5 91v193q0 40 -11.5 58t-37.5 18q-23 0 -34.5 12.5t-11.5 31.5q0 18 11.5 31t34.5 13q26 0 37.5 17t11.5 59v192q0 62 31.5 93t91.5 31h63q48 0 48 -41q0 -20 -11 -31t-34 -11h-22q-23 0 -33 -16t-10 -45v-184q0 -43 -23.5 -72t-78.5 -35
v-2q55 -6 78.5 -35t23.5 -72v-184q0 -29 10 -45t32 -16h23q23 0 34 -11t11 -31q0 -41 -48 -41h-64z" />
    <glyph glyph-name="bar" unicode="|" horiz-adv-x="222" 
d="M111 -310q-25 0 -40 16.5t-15 41.5v1004q0 25 15 41.5t40 16.5t40 -16.5t15 -41.5v-1004q0 -25 -15 -41.5t-40 -16.5z" />
    <glyph glyph-name="braceright" unicode="}" horiz-adv-x="333" 
d="M50 -146q-48 0 -48 41q0 20 11.5 31t34.5 11h22q22 0 32 16t10 45v184q0 43 23.5 72t78.5 35v2q-55 6 -78.5 35t-23.5 72v184q0 29 -10 45t-33 16h-22q-23 0 -34 11t-11 31q0 41 48 41h64q60 0 91 -31t31 -93v-192q0 -42 12 -59t37 -17q23 0 34.5 -13t11.5 -31
q0 -19 -11.5 -31.5t-34.5 -12.5q-26 0 -37.5 -18t-11.5 -58v-193q0 -59 -30.5 -91t-91.5 -32h-64z" />
    <glyph glyph-name="asciitilde" unicode="~" horiz-adv-x="600" 
d="M409 183q-28 0 -57.5 11t-57.5 24t-53 24t-45 11q-22 0 -35 -10t-24 -21q-12 -13 -23 -22.5t-28 -9.5q-39 0 -39 49q0 25 10.5 49t29 42.5t44 30t55.5 11.5t60.5 -11t58.5 -24t53.5 -24t45.5 -11q19 0 32.5 8.5t24.5 20.5q12 14 24 24t29 10q18 0 28.5 -12t10.5 -37
t-10.5 -49t-30 -42.5t-45.5 -30t-58 -11.5z" />
    <glyph glyph-name="uni00A0" unicode="&#xa0;" horiz-adv-x="270" 
 />
    <glyph glyph-name="exclamdown" unicode="&#xa1;" horiz-adv-x="264" 
d="M132 388q-32 0 -55.5 23.5t-23.5 55.5t23.5 55.5t55.5 23.5t55.5 -23.5t23.5 -55.5t-23.5 -55.5t-55.5 -23.5zM132 -194q-32 0 -51 22.5t-19 54.5v371q0 31 19 54t51 23t50.5 -23t18.5 -54v-371q0 -32 -18.5 -54.5t-50.5 -22.5z" />
    <glyph glyph-name="cent" unicode="&#xa2;" horiz-adv-x="593" 
d="M335 -105q-12 0 -19.5 8.5t-7.5 21.5v61q-53 6 -95 30.5t-71.5 62t-45.5 85.5t-16 101q0 54 16 102t46 85.5t72 62t94 30.5v57q0 13 8 21.5t19 8.5q12 0 20 -8.5t8 -20.5v-57q55 -3 92 -20q58 -27 58 -73q0 -28 -16.5 -47t-42.5 -19q-10 0 -19 3t-18 7q-13 5 -26 9.5
t-28 5.5v-292q16 2 31 6t29 9q23 10 32 10q23 0 40 -18.5t17 -41.5q0 -37 -42 -65q-40 -26 -107 -34v-61q0 -12 -8 -21t-20 -9zM308 408q-42 -11 -64.5 -50t-22.5 -91q0 -54 22.5 -94t64.5 -51v286z" />
    <glyph glyph-name="sterling" unicode="&#xa3;" horiz-adv-x="623" 
d="M160 0q-35 0 -58 18t-23 51q0 21 8 36t24 34q21 22 38.5 59t17.5 74q0 5 -0.5 9t-1.5 11h-73q-31 0 -52.5 19t-21.5 48t21.5 47.5t53.5 18.5h45q-14 32 -21.5 54.5t-7.5 45.5q0 45 18 82t51 63.5t79.5 41t104.5 14.5q56 0 102 -15.5t79 -41t51 -58t18 -67.5
q0 -27 -20 -46.5t-47 -19.5q-23 0 -36 12.5t-27 36.5q-15 32 -43.5 51.5t-74.5 19.5q-48 0 -76.5 -24t-28.5 -65q0 -19 7.5 -39t18.5 -45h96q32 0 53 -18.5t21 -47.5q0 -28 -20.5 -47.5t-52.5 -19.5h-76q2 -5 2 -9.5v-9.5q0 -46 -13 -76t-37 -59h285q32 0 53.5 -19t21.5 -50
t-22 -50t-54 -19h-382z" />
    <glyph glyph-name="currency" unicode="&#xa4;" horiz-adv-x="642" 
d="M110 88q-20 0 -34.5 16.5t-14.5 35.5q0 18 14.5 31t40.5 39q-20 24 -32 63t-12 80q0 37 12 74t30 60q-26 26 -40 39.5t-14 32.5t14.5 35t33.5 16q15 0 31 -11.5t45 -40.5q23 20 60.5 31t77.5 11q39 0 75 -11t62 -31q24 25 41.5 38.5t33.5 13.5q20 0 34.5 -16t14.5 -35
t-14.5 -32t-40.5 -39q20 -25 32.5 -63t12.5 -75q0 -38 -12 -77t-33 -62q26 -26 40.5 -38.5t14.5 -32.5q0 -18 -14.5 -34.5t-34.5 -16.5q-16 0 -33.5 14t-41.5 38q-53 -42 -137 -42q-42 0 -77.5 11t-59.5 31q-28 -29 -44.5 -41t-30.5 -12zM322 226q25 0 47.5 9t39 25.5
t26 39.5t9.5 50t-9.5 49.5t-26.5 39t-39 25.5t-48 9q-24 0 -46 -9t-38.5 -25.5t-26.5 -39t-10 -49.5t9.5 -49.5t26 -39t39 -26t47.5 -9.5z" />
    <glyph glyph-name="yen" unicode="&#xa5;" horiz-adv-x="611" 
d="M305 -6q-31 0 -51 19.5t-20 53.5v117h-145q-17 0 -30 13t-13 32q0 17 14 30t29 13h145v60h-145q-17 0 -30 13.5t-13 32.5q0 17 14 30t29 13h85l-67 97q-21 28 -36 48.5t-24.5 36.5t-14 28t-4.5 24q0 27 21 45t54 18q39 0 63 -36l140 -207l128 192q23 33 39.5 42t35.5 9
q32 0 53 -18t21 -45q0 -7 -2 -15.5t-8.5 -22t-20 -33.5t-37.5 -51l-77 -112h84q16 0 29.5 -13t13.5 -30q0 -19 -13 -32.5t-30 -13.5h-145v-60h145q15 0 29 -13t14 -30q0 -19 -13 -32t-30 -13h-145v-117q0 -34 -20 -53.5t-52 -19.5z" />
    <glyph glyph-name="brokenbar" unicode="&#xa6;" horiz-adv-x="222" 
d="M111 325q-25 0 -40 16.5t-15 41.5v234q0 25 15 41.5t40 16.5t40 -16.5t15 -41.5v-234q0 -25 -15 -41.5t-40 -16.5zM111 -175q-25 0 -40 16.5t-15 41.5v234q0 25 15 41.5t40 16.5t40 -16.5t15 -41.5v-234q0 -25 -15 -41.5t-40 -16.5z" />
    <glyph glyph-name="section" unicode="&#xa7;" horiz-adv-x="600" 
d="M297 -192q-46 0 -85 11.5t-67.5 31.5t-44.5 46t-16 55q0 25 17 42t43 17q20 0 33 -12.5t25 -29.5q14 -20 36.5 -36t59.5 -16q33 0 53 13.5t20 38.5q0 26 -23.5 46.5t-59 40t-76.5 40t-76.5 47t-59 60t-23.5 79.5q0 51 24 88t79 68q-31 25 -43.5 50t-12.5 64q0 40 15.5 72
t43.5 54.5t65.5 35t80.5 12.5q42 0 79 -11t65.5 -30.5t45 -45.5t16.5 -56q0 -25 -16.5 -44.5t-39.5 -19.5q-35 0 -65 46q-16 23 -37.5 37.5t-51.5 14.5q-28 0 -47.5 -14.5t-19.5 -37.5q0 -28 23 -48t58 -38t75.5 -37t75.5 -44t58 -59.5t23 -83.5q0 -59 -26.5 -99t-70.5 -64
q25 -21 40.5 -47t15.5 -58q0 -41 -15 -74.5t-42.5 -56.5t-66 -35.5t-85.5 -12.5zM370 153q52 29 52 78q0 39 -55 70l-132 76q-30 -16 -43.5 -34t-13.5 -41q0 -40 55 -70z" />
    <glyph glyph-name="dieresis" unicode="&#xa8;" horiz-adv-x="218" 
d="M-1 609q-30 0 -51.5 21.5t-21.5 51.5q0 29 21.5 50.5t51.5 21.5q29 0 50.5 -21.5t21.5 -50.5q0 -30 -21.5 -51.5t-50.5 -21.5zM220 609q-30 0 -51 21.5t-21 51.5q0 29 21 50.5t51 21.5q29 0 50.5 -21.5t21.5 -50.5q0 -30 -21 -51.5t-51 -21.5z" />
    <glyph glyph-name="copyright" unicode="&#xa9;" horiz-adv-x="800" 
d="M400 -14q-82 0 -150 28.5t-117 78.5t-76 117.5t-27 145.5q0 84 30 152.5t81 117t118 74.5t141 26q79 0 146.5 -28t117 -77.5t78 -117t28.5 -147.5q0 -82 -29 -150t-79 -117t-117.5 -76t-144.5 -27zM399 70q64 0 114 25t84 65t51.5 90.5t17.5 102.5q0 63 -20.5 116.5
t-56.5 91.5t-84.5 59.5t-105.5 21.5q-54 0 -102.5 -21t-84.5 -59t-57 -90.5t-21 -115.5t21 -116t57 -90.5t84.5 -58.5t102.5 -21zM413 141q-44 0 -81 16t-64 45t-42 69t-15 87t14.5 86.5t40.5 68.5t62.5 45t81.5 16q38 0 69.5 -11.5t53.5 -29.5t34 -39t12 -41q0 -22 -12 -34
t-27 -12q-22 0 -33 13.5t-19 30.5q-9 17 -27.5 28t-49.5 11q-47 0 -73.5 -35t-26.5 -96q0 -60 27.5 -97t74.5 -37q54 0 80 48q20 39 50 39q17 0 27.5 -10.5t10.5 -29.5q0 -18 -12 -40.5t-34 -42.5t-53 -34t-69 -14z" />
    <glyph glyph-name="ordfeminine" unicode="&#xaa;" horiz-adv-x="370" 
d="M171 391q-34 0 -63 13t-50 36t-33 54t-12 66t12 65t33.5 52.5t50.5 35.5t62 13q58 0 88 -37h2l1 7q2 11 13 20.5t31 9.5q23 0 35 -11t12 -28v-256q0 -16 -11 -28t-36 -12q-20 0 -31 9t-13 21l-1 8h-2q-29 -38 -88 -38zM183 477q33 0 52.5 22.5t19.5 58.5t-19.5 59
t-52.5 23q-31 0 -50.5 -24.5t-19.5 -57.5t19 -57t51 -24z" />
    <glyph glyph-name="guillemotleft" unicode="&#xab;" 
d="M222 105q-14 0 -25.5 6.5t-28.5 20.5l-77 73q-20 16 -27.5 33.5t-7.5 37.5t8 39t28 36l87 77q11 8 21.5 14t21.5 6q21 0 34 -14t13 -34q0 -31 -24 -49l-88 -75l88 -75q14 -11 19 -22.5t5 -25.5q0 -20 -13 -34t-34 -14zM449 105q-13 0 -24.5 6.5t-28.5 20.5l-78 73
q-20 16 -27 33.5t-7 37.5t7.5 39t27.5 36l87 77q11 8 21.5 14t21.5 6q21 0 34 -14t13 -34q0 -14 -5 -26.5t-19 -22.5l-88 -75l88 -75q14 -11 19 -22.5t5 -25.5q0 -20 -13 -34t-34 -14z" />
    <glyph glyph-name="logicalnot" unicode="&#xac;" horiz-adv-x="600" 
d="M520 113q-28 0 -42.5 18t-14.5 43v158h-379q-26 0 -43.5 15t-17.5 44t17.5 44.5t43.5 15.5h423q38 0 54 -14.5t16 -55.5v-207q0 -25 -14.5 -43t-42.5 -18z" />
    <glyph glyph-name="uni00AD" unicode="&#xad;" horiz-adv-x="411" 
d="M90 217q-26 0 -42.5 16t-16.5 43q0 28 16.5 44t42.5 16h231q26 0 42.5 -16t16.5 -44q0 -27 -16.5 -43t-42.5 -16h-231z" />
    <glyph glyph-name="registered" unicode="&#xae;" horiz-adv-x="400" 
d="M200 348q-39 0 -73 13.5t-58.5 38t-39 58.5t-14.5 75q0 42 14.5 76t40 58t59 37.5t71.5 13.5q39 0 73 -13.5t58.5 -38.5t39 -58.5t14.5 -74.5t-14.5 -75t-39.5 -58.5t-58.5 -38t-72.5 -13.5zM200 390q28 0 52 11t42 30t28.5 45t10.5 57t-10.5 57.5t-28.5 45.5t-42.5 29.5
t-52.5 10.5q-27 0 -51 -10.5t-42 -29t-28.5 -45t-10.5 -58.5q0 -30 10 -56.5t27.5 -45.5t42 -30t53.5 -11zM148 433q-9 0 -15 6t-6 16v157q0 21 21 21h64q36 0 53.5 -13.5t17.5 -45.5q0 -52 -47 -57l35 -48q8 -11 8 -20q0 -4 -4.5 -10t-15.5 -6q-10 0 -14.5 5t-9.5 13
l-46 66h-20v-61q0 -23 -21 -23zM205 551q17 0 25.5 4.5t8.5 19.5q0 25 -30 25h-40v-49h36z" />
    <glyph glyph-name="macron" unicode="&#xaf;" horiz-adv-x="218" 
d="M-8 623q-25 0 -41 15t-16 42t16 42.5t41 15.5h234q26 0 42 -15.5t16 -42.5q0 -28 -16 -42.5t-42 -14.5h-234z" />
    <glyph glyph-name="degree" unicode="&#xb0;" horiz-adv-x="400" 
d="M200 440q-30 0 -56 11t-45.5 30.5t-30.5 45.5t-11 56t11.5 56.5t31 45.5t45.5 30t55 11q30 0 56 -11t45.5 -30.5t30.5 -45.5t11 -56q0 -29 -11 -55t-30 -45.5t-45.5 -31t-56.5 -11.5zM200 507q32 0 54 23t22 53q0 29 -22.5 52.5t-53.5 23.5q-32 0 -54 -23t-22 -53
t22.5 -53t53.5 -23z" />
    <glyph glyph-name="plusminus" unicode="&#xb1;" horiz-adv-x="600" 
d="M300 150q-29 0 -44 18.5t-15 42.5v82h-157q-26 0 -43.5 15t-17.5 44t17.5 44.5t43.5 15.5h157v81q0 25 15 43t44 18t44 -18.5t15 -42.5v-81h157q26 0 43.5 -15.5t17.5 -44.5t-17.5 -44t-43.5 -15h-157v-82q0 -24 -15 -42.5t-44 -18.5zM84 0q-26 0 -43.5 15t-17.5 44
t17.5 44.5t43.5 15.5h432q26 0 43.5 -15.5t17.5 -44.5t-17.5 -44t-43.5 -15h-432z" />
    <glyph glyph-name="uni00B2" unicode="&#xb2;" horiz-adv-x="358" 
d="M65 291q-19 0 -31 10t-12 28q0 8 4.5 21t19.5 28l132 134q45 45 45 81q0 20 -10.5 33.5t-37.5 13.5q-22 0 -33.5 -13t-16.5 -36q-6 -18 -17 -28.5t-31 -10.5q-23 0 -35.5 13t-12.5 31q0 25 10.5 48.5t30 41.5t47 29t61.5 11q70 0 109.5 -35t39.5 -91q0 -37 -21.5 -71.5
t-61.5 -74.5l-68 -71h120q17 0 29.5 -13t12.5 -33t-12.5 -33t-29.5 -13h-231z" />
    <glyph glyph-name="uni00B3" unicode="&#xb3;" horiz-adv-x="368" 
d="M183 285q-30 0 -58 8.5t-49.5 24t-34.5 36.5t-13 45q0 18 12 30.5t32 12.5q18 0 29 -8t19 -19q9 -15 22.5 -26t39.5 -11t41 15t15 37q0 25 -15.5 34t-37.5 11q-20 2 -36.5 9.5t-16.5 30.5t14.5 30t32.5 12q20 5 32 14.5t12 28.5q0 17 -10.5 27.5t-30.5 10.5t-34.5 -11.5
t-23.5 -24.5q-8 -8 -18 -13.5t-24 -5.5q-17 0 -29 12t-12 29q0 21 11 40t30.5 32.5t45.5 21.5t55 8t54.5 -8t44 -23t29.5 -36t11 -47q0 -29 -15.5 -52.5t-39.5 -37.5q35 -12 55 -37t20 -63q0 -33 -13.5 -59t-35.5 -43t-50.5 -26t-59.5 -9z" />
    <glyph glyph-name="acute" unicode="&#xb4;" horiz-adv-x="218" 
d="M54 595q-27 0 -42.5 18t-15.5 44q0 17 7.5 29.5t27.5 21.5l145 61q11 5 21 7t20 2q26 0 41.5 -18.5t15.5 -42.5q0 -17 -7.5 -30t-27.5 -21l-133 -57q-24 -11 -34 -12.5t-18 -1.5z" />
    <glyph glyph-name="uni00B5" unicode="&#xb5;" horiz-adv-x="562" 
d="M109 -221q-31 0 -50 21t-19 50v616q0 30 19 51t50 21t50.5 -21t19.5 -51v-251q0 -48 25 -75t70 -27t69.5 27t24.5 75v251q0 29 19.5 50.5t50.5 21.5t50.5 -21.5t19.5 -50.5v-266q0 -22 4 -39.5t14 -34.5l7 -13q14 -25 14 -49q0 -29 -20.5 -49t-51.5 -20q-40 0 -64 35
l-9 12q-2 3 -4.5 7.5t-3.5 7.5h-2q-29 -38 -62.5 -53.5t-65.5 -15.5q-26 0 -45.5 5.5t-37.5 19.5h-2v-163q0 -29 -19.5 -50t-50.5 -21z" />
    <glyph glyph-name="paragraph" unicode="&#xb6;" horiz-adv-x="616" 
d="M293 -187q-26 0 -40.5 15.5t-14.5 37.5v491q-106 0 -163 46.5t-57 128.5q0 91 57.5 135.5t178.5 44.5h248q28 0 42.5 -15t14.5 -41v-790q0 -22 -14.5 -37.5t-40.5 -15.5t-40 15.5t-14 37.5v762h-103v-762q0 -22 -14.5 -37.5t-39.5 -15.5z" />
    <glyph glyph-name="periodcentered" unicode="&#xb7;" horiz-adv-x="270" 
d="M135 207q-32 0 -55.5 23.5t-23.5 55.5t23.5 55.5t55.5 23.5t55.5 -23.5t23.5 -55.5t-23.5 -55.5t-55.5 -23.5z" />
    <glyph glyph-name="cedilla" unicode="&#xb8;" horiz-adv-x="218" 
d="M106 -213q-42 0 -68.5 11t-26.5 34q0 11 7.5 21.5t20.5 10.5q12 0 25.5 -7.5t30.5 -7.5q14 0 23.5 8.5t9.5 22.5q0 12 -8.5 20t-29.5 8h-13q-25 0 -25 20q0 7 5 17.5t17 25.5l24 29h64l-37 -49l2 -2q11 3 21 3q34 0 56 -19.5t22 -56.5q0 -21 -10.5 -37.5t-27 -28
t-38 -17.5t-44.5 -6z" />
    <glyph glyph-name="uni00B9" unicode="&#xb9;" horiz-adv-x="247" 
d="M129 285q-24 0 -37.5 15t-13.5 35v297h-40q-20 0 -31.5 12t-11.5 32q0 19 11 31.5t30 12.5h95q22 0 36 -13t14 -35v-337q0 -20 -14 -35t-38 -15z" />
    <glyph glyph-name="ordmasculine" unicode="&#xba;" horiz-adv-x="358" 
d="M179 391q-38 0 -69.5 13t-54 35.5t-34.5 53.5t-12 67q0 35 12 65t34.5 52.5t54 35.5t69.5 13t69 -13t53 -35.5t34.5 -53t12.5 -65.5q0 -36 -12.5 -66.5t-35 -53t-53.5 -35.5t-68 -13zM179 477q32 0 51 23.5t19 57.5t-19 58t-51 24t-51 -24t-19 -58t19 -57.5t51 -23.5z
" />
    <glyph glyph-name="guillemotright" unicode="&#xbb;" 
d="M103 105q-21 0 -34 14t-13 34q0 14 5 26t19 22l88 75l-87 75q-14 11 -19.5 23t-5.5 26q0 20 13 34t34 14q11 0 21.5 -6t21.5 -14l87 -77q20 -17 28 -36t8 -39t-7.5 -37.5t-27.5 -33.5l-77 -73q-17 -14 -28.5 -20.5t-25.5 -6.5zM330 105q-20 0 -33 14t-13 34q0 14 4.5 26
t18.5 22l88 75l-87 75q-14 11 -19 23t-5 26q0 20 13 34t33 14q11 0 22 -6t22 -14l87 -77q20 -17 27.5 -36t7.5 -39t-7 -37.5t-27 -33.5l-78 -73q-17 -14 -28.5 -20.5t-25.5 -6.5z" />
    <glyph glyph-name="onequarter" unicode="&#xbc;" horiz-adv-x="931" 
d="M244 -16q-23 0 -38 15t-15 34q0 16 7 29.5t20 36.5l308 576q19 35 31 44t28 9q22 0 37 -14.5t15 -34.5q0 -14 -5.5 -26t-19.5 -37l-312 -584q-17 -30 -28.5 -39t-27.5 -9zM175 285q-25 0 -38.5 15t-13.5 35v297h-39q-20 0 -32 12t-12 32q0 19 11.5 31.5t30.5 12.5h95
q22 0 35.5 -13t13.5 -35v-337q0 -20 -13.5 -35t-37.5 -15zM769 -6q-26 0 -38.5 12t-12.5 31v50h-175q-22 0 -34.5 10.5t-12.5 27.5q0 5 0.5 9.5t3.5 11t9 16t16 24.5l150 219q10 14 25 21.5t44 7.5q39 0 58 -19t19 -48v-192h29q19 0 30 -12t11 -32q0 -19 -10.5 -31.5
t-30.5 -12.5h-29v-50q0 -19 -13 -31t-39 -12zM718 175v145h-2l-95 -145h97z" />
    <glyph glyph-name="onehalf" unicode="&#xbd;" horiz-adv-x="931" 
d="M256 -16q-23 0 -38 15t-15 34q0 16 7 29.5t20 36.5l308 576q19 35 31 44t28 9q22 0 37 -14.5t15 -34.5q0 -14 -5.5 -26t-19.5 -37l-312 -584q-17 -30 -28.5 -39t-27.5 -9zM187 285q-24 0 -37.5 15t-13.5 35v297h-39q-20 0 -32 12t-12 32q0 19 11.5 31.5t30.5 12.5h95
q21 0 35 -13t14 -35v-337q0 -20 -14 -35t-38 -15zM605 0q-20 0 -31.5 10t-11.5 28q0 8 4.5 21t19.5 28l131 134q22 22 34 43t12 38q0 20 -11 33.5t-37 13.5q-22 0 -34 -13t-17 -36q-5 -18 -16 -28.5t-32 -10.5q-23 0 -35.5 13t-12.5 31q0 25 10.5 48.5t30 41.5t47 29
t61.5 11q70 0 110 -35t40 -91q0 -37 -22 -71.5t-62 -74.5l-68 -71h120q17 0 29.5 -13t12.5 -33t-12.5 -33t-29.5 -13h-230z" />
    <glyph glyph-name="threequarters" unicode="&#xbe;" horiz-adv-x="931" 
d="M300 -16q-23 0 -38 15t-15 34q0 16 7 29.5t20 36.5l308 576q19 35 31 44t28 9q22 0 37 -14.5t15 -34.5q0 -14 -5.5 -26t-19.5 -37l-312 -584q-17 -30 -28.5 -39t-27.5 -9zM196 285q-30 0 -58 8.5t-49.5 24t-34.5 36.5t-13 45q0 18 12 30.5t32 12.5q18 0 29 -8t19 -19
q9 -15 22.5 -26t39.5 -11t41 15t15 37q0 25 -15.5 34t-37.5 11q-20 2 -36.5 9.5t-16.5 30.5t14.5 30t32.5 12q20 5 32 14.5t12 28.5q0 17 -10.5 27.5t-30.5 10.5t-34.5 -11.5t-24.5 -24.5q-8 -8 -17.5 -13.5t-23.5 -5.5q-17 0 -29 12t-12 29q0 21 11 40t30.5 32.5t45 21.5
t54.5 8t54.5 -8t44.5 -23t30 -36t11 -47q0 -29 -15.5 -52.5t-39.5 -37.5q35 -12 55 -37t20 -63q0 -33 -13.5 -59t-35.5 -43t-50.5 -26t-59.5 -9zM772 -6q-26 0 -38.5 12t-12.5 31v50h-176q-21 0 -33.5 10.5t-12.5 27.5q0 5 0.5 9.5t3.5 11t8.5 16t15.5 24.5l150 219
q10 14 25.5 21.5t43.5 7.5q40 0 59 -19t19 -48v-192h28q20 0 30.5 -12t10.5 -32q0 -19 -10.5 -31.5t-30.5 -12.5h-28v-50q0 -19 -13 -31t-39 -12zM721 175v145h-2l-95 -145h97z" />
    <glyph glyph-name="questiondown" unicode="&#xbf;" horiz-adv-x="489" 
d="M260 388q-32 0 -55.5 23.5t-23.5 55.5t23.5 55.5t55.5 23.5t55.5 -23.5t23.5 -55.5t-23.5 -55.5t-55.5 -23.5zM256 -194q-49 0 -92.5 14.5t-76 42.5t-51 67t-18.5 89q0 166 173 203v36q0 35 19.5 54t49.5 19q32 0 51 -20t19 -49v-94q0 -23 -13.5 -38t-52.5 -20
q-91 -15 -91 -87q0 -31 24 -52.5t59 -21.5q31 0 52.5 13t36.5 39t30.5 35t36.5 9q26 0 45 -19.5t19 -51.5q0 -36 -19 -67t-50 -53.5t-70.5 -35t-80.5 -12.5z" />
    <glyph glyph-name="Agrave" unicode="&#xc0;" horiz-adv-x="626" 
d="M381 764q-7 0 -15 1.5t-28 10.5l-110 47q-17 7 -23.5 17.5t-6.5 24.5q0 20 13 35t35 15q8 0 16 -1t17 -6l120 -51q17 -8 23 -18t6 -24q0 -22 -12.5 -36.5t-34.5 -14.5zM71 -6q-32 0 -50.5 16t-18.5 43q0 22 7.5 46.5t16.5 48.5l182 487q17 45 41.5 68t64.5 23
q38 0 63 -23t42 -68l184 -494q8 -20 14.5 -42.5t6.5 -45.5q0 -27 -18.5 -43t-49.5 -16q-34 0 -50 18.5t-27 54.5l-25 74h-282l-24 -72q-14 -44 -31 -59.5t-46 -15.5zM411 274l-94 289h-2l-100 -289h196z" />
    <glyph glyph-name="Aacute" unicode="&#xc1;" horiz-adv-x="626" 
d="M246 764q-23 0 -35.5 14.5t-12.5 36.5q0 14 6 24t23 18l120 51q9 5 17.5 6t16.5 1q21 0 34 -15t13 -35q0 -14 -6 -24.5t-23 -17.5l-110 -47q-20 -9 -28.5 -10.5t-14.5 -1.5zM71 -6q-32 0 -50.5 16t-18.5 43q0 22 7.5 46.5t16.5 48.5l182 487q17 45 41.5 68t64.5 23
q38 0 63 -23t42 -68l184 -494q8 -20 14.5 -42.5t6.5 -45.5q0 -27 -18.5 -43t-49.5 -16q-34 0 -50 18.5t-27 54.5l-25 74h-282l-24 -72q-14 -44 -31 -59.5t-46 -15.5zM411 274l-94 289h-2l-100 -289h196z" />
    <glyph glyph-name="Acircumflex" unicode="&#xc2;" horiz-adv-x="626" 
d="M192 763q-16 0 -27.5 13.5t-11.5 31.5q0 22 8.5 34t30.5 22l87 39q9 4 19 7t14 3q7 0 19.5 -5t30.5 -13l76 -34q14 -6 24 -16.5t10 -36.5q0 -18 -11.5 -31.5t-28.5 -13.5q-10 0 -20 3t-28 11l-72 33l-78 -35q-6 -4 -18 -8t-24 -4zM71 -6q-32 0 -50.5 16t-18.5 43
q0 22 7.5 46.5t16.5 48.5l182 487q17 45 41.5 68t64.5 23q38 0 63 -23t42 -68l184 -494q8 -20 14.5 -42.5t6.5 -45.5q0 -27 -18.5 -43t-49.5 -16q-34 0 -50 18.5t-27 54.5l-25 74h-282l-24 -72q-14 -44 -31 -59.5t-46 -15.5zM411 274l-94 289h-2l-100 -289h196z" />
    <glyph glyph-name="Atilde" unicode="&#xc3;" horiz-adv-x="626" 
d="M398 766q-20 0 -39.5 5.5t-37.5 12.5t-34 12.5t-28 5.5q-11 0 -19 -5.5t-15 -12t-14.5 -12t-18.5 -5.5q-18 0 -30.5 11.5t-12.5 34.5q0 16 7 31t18 26.5t25.5 18.5t30.5 7q20 0 39 -5.5t37 -12.5t33.5 -12.5t28.5 -5.5q11 0 19 5.5t15 12.5t14.5 12.5t17.5 5.5
q20 0 31.5 -14t11.5 -34q0 -16 -6.5 -30.5t-17.5 -26t-25.5 -18.5t-29.5 -7zM71 -6q-32 0 -50.5 16t-18.5 43q0 22 7.5 46.5t16.5 48.5l182 487q17 45 41.5 68t64.5 23q38 0 63 -23t42 -68l184 -494q8 -20 14.5 -42.5t6.5 -45.5q0 -27 -18.5 -43t-49.5 -16q-34 0 -50 18.5
t-27 54.5l-25 74h-282l-24 -72q-14 -44 -31 -59.5t-46 -15.5zM411 274l-94 289h-2l-100 -289h196z" />
    <glyph glyph-name="Adieresis" unicode="&#xc4;" horiz-adv-x="626" 
d="M203 774q-30 0 -51.5 21.5t-21.5 50.5q0 30 21.5 51.5t51.5 21.5q29 0 50.5 -21.5t21.5 -51.5q0 -29 -21.5 -50.5t-50.5 -21.5zM424 774q-30 0 -51 21.5t-21 50.5q0 30 21 51.5t51 21.5q29 0 50.5 -21.5t21.5 -51.5q0 -29 -21 -50.5t-51 -21.5zM71 -6q-32 0 -50.5 16
t-18.5 43q0 22 7.5 46.5t16.5 48.5l182 487q17 45 41.5 68t64.5 23q38 0 63 -23t42 -68l184 -494q8 -20 14.5 -42.5t6.5 -45.5q0 -27 -18.5 -43t-49.5 -16q-34 0 -50 18.5t-27 54.5l-25 74h-282l-24 -72q-14 -44 -31 -59.5t-46 -15.5zM411 274l-94 289h-2l-100 -289h196z
" />
    <glyph glyph-name="Aring" unicode="&#xc5;" horiz-adv-x="626" 
d="M313 746q-20 0 -38 8t-31.5 21t-21 31t-7.5 37q0 20 8 37.5t21.5 31t31 21.5t37.5 8t37.5 -8t31 -21.5t21.5 -31t8 -37.5q0 -19 -7.5 -37t-21 -31t-31 -21t-38.5 -8zM313 797q19 0 32.5 14t13.5 32q0 19 -14 33t-33 14q-18 0 -31.5 -14t-13.5 -33q0 -17 13.5 -31.5
t32.5 -14.5zM71 -6q-32 0 -50.5 16t-18.5 43q0 22 7.5 46.5t16.5 48.5l182 487q17 45 41.5 68t64.5 23q38 0 63 -23t42 -68l184 -494q8 -20 14.5 -42.5t6.5 -45.5q0 -27 -18.5 -43t-49.5 -16q-34 0 -50 18.5t-27 54.5l-25 74h-282l-24 -72q-14 -44 -31 -59.5t-46 -15.5z
M411 274l-94 289h-2l-100 -289h196z" />
    <glyph glyph-name="AE" unicode="&#xc6;" horiz-adv-x="830" 
d="M64 -6q-27 0 -45 18.5t-18 50.5q0 21 7.5 38.5t14.5 28.5l296 524q9 16 18 27t20.5 18t28.5 10t42 3h312q31 0 50 -18.5t19 -48.5q0 -32 -19.5 -49t-49.5 -17h-178v-155h165q30 0 49.5 -17.5t19.5 -49.5q0 -31 -19.5 -48.5t-49.5 -17.5h-165v-158h185q30 0 50 -17t20 -49
q0 -30 -20 -48.5t-50 -18.5h-259q-28 0 -49 19.5t-21 54.5v68h-228l-45 -91q-16 -32 -34 -44.5t-47 -12.5zM418 274v300h-2l-156 -300h158z" />
    <glyph glyph-name="Ccedilla" unicode="&#xc7;" horiz-adv-x="593" 
d="M313 -213q-42 0 -68.5 11t-26.5 34q0 11 7.5 21.5t20.5 10.5q12 0 25.5 -7.5t30.5 -7.5q14 0 23.5 8.5t9.5 22.5q0 12 -8.5 20t-29.5 8h-13q-25 0 -25 20q0 7 5 17.5t17 25.5l17 21q-65 12 -115.5 43.5t-85.5 79t-53.5 107.5t-18.5 129q0 82 24 150.5t69 118.5t108.5 78
t142.5 28q49 0 89.5 -9.5t69.5 -24.5q26 -14 41 -34.5t15 -43.5q0 -29 -18 -49t-44 -20q-8 0 -18.5 3.5t-22.5 8.5q-26 13 -53 22t-57 9q-45 0 -80 -17.5t-60 -49t-38 -74t-13 -93.5q0 -49 12.5 -90.5t36.5 -71.5t58 -46.5t77 -16.5q42 0 70.5 8t48.5 18q13 6 24 10t22 4
q31 0 47 -18.5t16 -47.5q0 -23 -14 -43t-38 -34q-31 -18 -75 -29t-95 -11h-12l-26 -35l2 -2q11 3 21 3q34 0 56 -19.5t22 -56.5q0 -21 -10.5 -37.5t-27 -28t-38 -17.5t-44.5 -6z" />
    <glyph glyph-name="Egrave" unicode="&#xc8;" horiz-adv-x="459" 
d="M298 764q-7 0 -15 1.5t-28 10.5l-110 47q-17 7 -23.5 17.5t-6.5 24.5q0 20 13 35t35 15q8 0 16 -1t17 -6l120 -51q17 -8 23 -18t6 -24q0 -22 -12.5 -36.5t-34.5 -14.5zM116 0q-30 0 -51 20t-21 51v571q0 30 21 50t51 20h250q30 0 50 -18.5t20 -48.5q0 -32 -20 -49
t-50 -17h-177v-155h164q30 0 50 -17.5t20 -49.5q0 -31 -19 -48.5t-51 -17.5h-165v-158h184q32 0 51.5 -17t19.5 -49q0 -30 -20 -48.5t-50 -18.5h-257z" />
    <glyph glyph-name="Eacute" unicode="&#xc9;" horiz-adv-x="459" 
d="M163 764q-23 0 -35.5 14.5t-12.5 36.5q0 14 6 24t23 18l120 51q9 5 17.5 6t16.5 1q21 0 34 -15t13 -35q0 -14 -6 -24.5t-23 -17.5l-110 -47q-20 -9 -28.5 -10.5t-14.5 -1.5zM116 0q-30 0 -51 20t-21 51v571q0 30 21 50t51 20h250q30 0 50 -18.5t20 -48.5q0 -32 -20 -49
t-50 -17h-177v-155h164q30 0 50 -17.5t20 -49.5q0 -31 -19 -48.5t-51 -17.5h-165v-158h184q32 0 51.5 -17t19.5 -49q0 -30 -20 -48.5t-50 -18.5h-257z" />
    <glyph glyph-name="Ecircumflex" unicode="&#xca;" horiz-adv-x="459" 
d="M109 763q-16 0 -27.5 13.5t-11.5 31.5q0 22 8.5 34t30.5 22l87 39q9 4 19 7t14 3q7 0 19.5 -5t30.5 -13l76 -34q14 -6 24 -16.5t10 -36.5q0 -18 -11.5 -31.5t-28.5 -13.5q-10 0 -20 3t-28 11l-72 33l-78 -35q-6 -4 -18 -8t-24 -4zM116 0q-30 0 -51 20t-21 51v571
q0 30 21 50t51 20h250q30 0 50 -18.5t20 -48.5q0 -32 -20 -49t-50 -17h-177v-155h164q30 0 50 -17.5t20 -49.5q0 -31 -19 -48.5t-51 -17.5h-165v-158h184q32 0 51.5 -17t19.5 -49q0 -30 -20 -48.5t-50 -18.5h-257z" />
    <glyph glyph-name="Edieresis" unicode="&#xcb;" horiz-adv-x="459" 
d="M119 774q-29 0 -50.5 21.5t-21.5 50.5q0 30 21.5 51.5t50.5 21.5q30 0 51.5 -21.5t21.5 -51.5q0 -29 -21.5 -50.5t-51.5 -21.5zM341 774q-30 0 -51.5 21.5t-21.5 50.5q0 30 21.5 51.5t51.5 21.5q29 0 50.5 -21.5t21.5 -51.5q0 -29 -21.5 -50.5t-50.5 -21.5zM116 0
q-30 0 -51 20t-21 51v571q0 30 21 50t51 20h250q30 0 50 -18.5t20 -48.5q0 -32 -20 -49t-50 -17h-177v-155h164q30 0 50 -17.5t20 -49.5q0 -31 -19 -48.5t-51 -17.5h-165v-158h184q32 0 51.5 -17t19.5 -49q0 -30 -20 -48.5t-50 -18.5h-257z" />
    <glyph glyph-name="Igrave" unicode="&#xcc;" horiz-adv-x="233" 
d="M185 764q-7 0 -15 1.5t-28 10.5l-110 47q-17 7 -23.5 17.5t-6.5 24.5q0 20 13 35t35 15q8 0 16 -1t17 -6l120 -51q17 -8 23 -18t6 -24q0 -22 -12.5 -36.5t-34.5 -14.5zM116 -6q-32 0 -52 20t-20 55v574q0 35 20 55t52 20q33 0 52.5 -20t19.5 -55v-574q0 -35 -19.5 -55
t-52.5 -20z" />
    <glyph glyph-name="Iacute" unicode="&#xcd;" horiz-adv-x="233" 
d="M50 764q-23 0 -35.5 14.5t-12.5 36.5q0 14 6 24t23 18l120 51q9 5 17.5 6t16.5 1q21 0 34 -15t13 -35q0 -14 -6 -24.5t-23 -17.5l-110 -47q-20 -9 -28.5 -10.5t-14.5 -1.5zM116 -6q-32 0 -52 20t-20 55v574q0 35 20 55t52 20q33 0 52.5 -20t19.5 -55v-574
q0 -35 -19.5 -55t-52.5 -20z" />
    <glyph glyph-name="Icircumflex" unicode="&#xce;" horiz-adv-x="233" 
d="M-29 759q-20 0 -34 16t-14 38q0 27 11 41.5t37 26.5l105 47q11 5 23 8.5t17 3.5q8 0 23.5 -5.5t36.5 -15.5l92 -41q18 -8 30 -21t12 -44q0 -22 -14 -38t-34 -16q-13 0 -25 3.5t-34 13.5l-87 40l-94 -43q-8 -4 -22 -9t-29 -5zM116 -6q-32 0 -52 20t-20 55v574q0 35 20 55
t52 20q33 0 52.5 -20t19.5 -55v-574q0 -35 -19.5 -55t-52.5 -20z" />
    <glyph glyph-name="Idieresis" unicode="&#xcf;" horiz-adv-x="233" 
d="M6 774q-30 0 -51 21.5t-21 50.5q0 30 21 51.5t51 21.5t51 -21.5t21 -51.5q0 -29 -21 -50.5t-51 -21.5zM227 774q-30 0 -51 21.5t-21 50.5q0 30 21 51.5t51 21.5t51 -21.5t21 -51.5q0 -29 -21 -50.5t-51 -21.5zM116 -6q-32 0 -52 20t-20 55v574q0 35 20 55t52 20
q33 0 52.5 -20t19.5 -55v-574q0 -35 -19.5 -55t-52.5 -20z" />
    <glyph glyph-name="Eth" unicode="&#xd0;" horiz-adv-x="660" 
d="M116 0q-30 0 -51 20t-21 50v234h-16q-31 0 -50 11.5t-19 45.5q0 28 15.5 42.5t53.5 14.5h16v224q0 30 21 50t51 20h197q70 0 129 -26.5t102 -74t67 -112t24 -140.5q0 -87 -27 -154t-72 -112.5t-103 -69t-121 -23.5h-196zM289 133q89 0 140 58.5t51 169.5q0 103 -50 160.5
t-135 57.5h-107v-161h97q24 0 39.5 -15.5t15.5 -41.5t-15.5 -41.5t-39.5 -15.5h-97v-171h101z" />
    <glyph glyph-name="Ntilde" unicode="&#xd1;" horiz-adv-x="696" 
d="M201 762q-22 0 -37 15t-15 42q0 20 8.5 38t22 31.5t31 22t36.5 8.5q24 0 47.5 -6.5t45 -15t40.5 -15t34 -6.5q14 0 23.5 6.5t18 14.5t17.5 14.5t22 6.5q24 0 38 -16.5t14 -40.5q0 -19 -8 -36.5t-21.5 -31.5t-30.5 -22.5t-36 -8.5q-25 0 -48.5 6.5t-45.5 15t-40.5 15
t-33.5 6.5q-14 0 -23.5 -6.5t-18 -15t-18 -15t-22.5 -6.5zM116 -6q-32 0 -52 20t-20 55v575q0 34 20 54t52 20q26 0 41 -11t32 -32l317 -413h2v381q0 35 20 55t52 20t52 -20t20 -55v-574q0 -35 -19.5 -55t-52.5 -20q-24 0 -40.5 12t-36.5 38l-313 408h-2v-383
q0 -35 -19.5 -55t-52.5 -20z" />
    <glyph glyph-name="Ograve" unicode="&#xd2;" horiz-adv-x="730" 
d="M433 764q-7 0 -15 1.5t-28 10.5l-110 47q-17 7 -23.5 17.5t-6.5 24.5q0 20 13 35t35 15q8 0 16 -1t17 -6l120 -51q17 -8 23 -18t6 -24q0 -22 -12.5 -36.5t-34.5 -14.5zM365 -14q-77 0 -140 27t-107.5 76t-68.5 117t-24 150q0 84 24.5 152.5t69.5 116.5t107.5 74.5
t138.5 26.5q77 0 140 -27t107.5 -75.5t69 -116.5t24.5 -151q0 -81 -23.5 -149t-68 -117t-107.5 -76.5t-142 -27.5zM366 119q45 0 79.5 18t58 49.5t35.5 74.5t12 94t-12 95t-35.5 75.5t-58.5 49.5t-81 18q-43 0 -77 -17t-58 -48.5t-36.5 -75t-12.5 -96.5q0 -51 12.5 -94.5
t36 -75t58 -49.5t79.5 -18z" />
    <glyph glyph-name="Oacute" unicode="&#xd3;" horiz-adv-x="730" 
d="M298 764q-23 0 -35.5 14.5t-12.5 36.5q0 14 6 24t23 18l120 51q9 5 17.5 6t16.5 1q21 0 34 -15t13 -35q0 -14 -6 -24.5t-23 -17.5l-110 -47q-20 -9 -28.5 -10.5t-14.5 -1.5zM365 -14q-77 0 -140 27t-107.5 76t-68.5 117t-24 150q0 84 24.5 152.5t69.5 116.5t107.5 74.5
t138.5 26.5q77 0 140 -27t107.5 -75.5t69 -116.5t24.5 -151q0 -81 -23.5 -149t-68 -117t-107.5 -76.5t-142 -27.5zM366 119q45 0 79.5 18t58 49.5t35.5 74.5t12 94t-12 95t-35.5 75.5t-58.5 49.5t-81 18q-43 0 -77 -17t-58 -48.5t-36.5 -75t-12.5 -96.5q0 -51 12.5 -94.5
t36 -75t58 -49.5t79.5 -18z" />
    <glyph glyph-name="Ocircumflex" unicode="&#xd4;" horiz-adv-x="730" 
d="M244 763q-16 0 -27.5 13.5t-11.5 31.5q0 22 8.5 34t30.5 22l87 39q9 4 19 7t14 3q7 0 19.5 -5t30.5 -13l76 -34q14 -6 24 -16.5t10 -36.5q0 -18 -11.5 -31.5t-28.5 -13.5q-10 0 -20 3t-28 11l-72 33l-78 -35q-6 -4 -18 -8t-24 -4zM365 -14q-77 0 -140 27t-107.5 76
t-68.5 117t-24 150q0 84 24.5 152.5t69.5 116.5t107.5 74.5t138.5 26.5q77 0 140 -27t107.5 -75.5t69 -116.5t24.5 -151q0 -81 -23.5 -149t-68 -117t-107.5 -76.5t-142 -27.5zM366 119q45 0 79.5 18t58 49.5t35.5 74.5t12 94t-12 95t-35.5 75.5t-58.5 49.5t-81 18
q-43 0 -77 -17t-58 -48.5t-36.5 -75t-12.5 -96.5q0 -51 12.5 -94.5t36 -75t58 -49.5t79.5 -18z" />
    <glyph glyph-name="Otilde" unicode="&#xd5;" horiz-adv-x="730" 
d="M450 766q-20 0 -39.5 5.5t-37.5 12.5t-34 12.5t-28 5.5q-11 0 -19 -5.5t-15 -12t-14.5 -12t-18.5 -5.5q-18 0 -30.5 11.5t-12.5 34.5q0 16 7 31t18 26.5t25.5 18.5t30.5 7q20 0 39 -5.5t37 -12.5t33.5 -12.5t28.5 -5.5q11 0 19 5.5t15 12.5t14.5 12.5t17.5 5.5
q20 0 31.5 -14t11.5 -34q0 -16 -6.5 -30.5t-17.5 -26t-25.5 -18.5t-29.5 -7zM365 -14q-77 0 -140 27t-107.5 76t-68.5 117t-24 150q0 84 24.5 152.5t69.5 116.5t107.5 74.5t138.5 26.5q77 0 140 -27t107.5 -75.5t69 -116.5t24.5 -151q0 -81 -23.5 -149t-68 -117
t-107.5 -76.5t-142 -27.5zM366 119q45 0 79.5 18t58 49.5t35.5 74.5t12 94t-12 95t-35.5 75.5t-58.5 49.5t-81 18q-43 0 -77 -17t-58 -48.5t-36.5 -75t-12.5 -96.5q0 -51 12.5 -94.5t36 -75t58 -49.5t79.5 -18z" />
    <glyph glyph-name="Odieresis" unicode="&#xd6;" horiz-adv-x="730" 
d="M255 774q-30 0 -51.5 21.5t-21.5 50.5q0 30 21.5 51.5t51.5 21.5q29 0 50.5 -21.5t21.5 -51.5q0 -29 -21.5 -50.5t-50.5 -21.5zM476 774q-30 0 -51 21.5t-21 50.5q0 30 21 51.5t51 21.5q29 0 50.5 -21.5t21.5 -51.5q0 -29 -21 -50.5t-51 -21.5zM365 -14q-77 0 -140 27
t-107.5 76t-68.5 117t-24 150q0 84 24.5 152.5t69.5 116.5t107.5 74.5t138.5 26.5q77 0 140 -27t107.5 -75.5t69 -116.5t24.5 -151q0 -81 -23.5 -149t-68 -117t-107.5 -76.5t-142 -27.5zM366 119q45 0 79.5 18t58 49.5t35.5 74.5t12 94t-12 95t-35.5 75.5t-58.5 49.5t-81 18
q-43 0 -77 -17t-58 -48.5t-36.5 -75t-12.5 -96.5q0 -51 12.5 -94.5t36 -75t58 -49.5t79.5 -18z" />
    <glyph glyph-name="multiply" unicode="&#xd7;" horiz-adv-x="600" 
d="M119 33q-10 0 -21.5 5.5t-20.5 14.5t-15 19.5t-6 19.5q0 16 5 24.5t12 15.5l145 145l-146 145q-6 6 -11 15t-5 20t5.5 22.5t14 20.5t19.5 15t22 6t20.5 -5.5t17.5 -13.5l145 -144l147 146q15 17 35 17q9 0 20 -5.5t20 -14.5t15.5 -20.5t6.5 -23.5q0 -8 -5 -18t-22 -26
l-136 -136l144 -144q19 -19 19 -38q0 -11 -5.5 -22t-14.5 -20t-20.5 -14.5t-23.5 -5.5q-11 0 -19 5t-16 13l-145 145l-145 -145q-8 -8 -17 -13t-19 -5z" />
    <glyph glyph-name="Oslash" unicode="&#xd8;" horiz-adv-x="730" 
d="M53 -36q-18 0 -30 10.5t-12 27.5t7.5 28t15.5 20l60 68q-33 48 -51 107t-18 131q0 82 24.5 150t69 117t107 76t139.5 27q64 0 116.5 -18t94.5 -51l60 69q12 14 21 19t20 5q19 0 31 -10t12 -27q0 -14 -5 -23.5t-20 -26.5l-60 -66q34 -48 52.5 -108.5t18.5 -132.5
q0 -81 -24 -149t-68 -117t-107.5 -76.5t-141.5 -27.5q-64 0 -116.5 18t-94.5 52l-61 -68q-23 -24 -40 -24zM479 551q-21 20 -48.5 31t-66.5 11q-43 0 -77 -17.5t-58 -49t-36.5 -75t-12.5 -95.5q0 -31 5 -61t17 -58zM366 119q44 0 78.5 18t58 49.5t36 75t12.5 94.5
q0 67 -23 122l-278 -316q20 -20 49 -31.5t67 -11.5z" />
    <glyph glyph-name="Ugrave" unicode="&#xd9;" horiz-adv-x="681" 
d="M409 764q-7 0 -15 1.5t-28 10.5l-110 47q-17 7 -23.5 17.5t-6.5 24.5q0 20 13 35t35 15q8 0 16 -1t17 -6l120 -51q17 -8 23 -18t6 -24q0 -22 -12.5 -36.5t-34.5 -14.5zM341 -14q-68 0 -123.5 21.5t-95 59.5t-61 90.5t-21.5 115.5v370q0 35 20 55t52 20q33 0 52.5 -20
t19.5 -55v-367q0 -33 11.5 -61t32 -48.5t49 -31.5t63.5 -11t64 11t49.5 31.5t32 48.5t11.5 61v367q0 35 19.5 55t52.5 20q32 0 52 -20t20 -55v-370q0 -63 -21.5 -115.5t-61 -91t-94.5 -59.5t-123 -21z" />
    <glyph glyph-name="Uacute" unicode="&#xda;" horiz-adv-x="681" 
d="M274 764q-23 0 -35.5 14.5t-12.5 36.5q0 14 6 24t23 18l120 51q9 5 17.5 6t16.5 1q21 0 34 -15t13 -35q0 -14 -6 -24.5t-23 -17.5l-110 -47q-20 -9 -28.5 -10.5t-14.5 -1.5zM341 -14q-68 0 -123.5 21.5t-95 59.5t-61 90.5t-21.5 115.5v370q0 35 20 55t52 20
q33 0 52.5 -20t19.5 -55v-367q0 -33 11.5 -61t32 -48.5t49 -31.5t63.5 -11t64 11t49.5 31.5t32 48.5t11.5 61v367q0 35 19.5 55t52.5 20q32 0 52 -20t20 -55v-370q0 -63 -21.5 -115.5t-61 -91t-94.5 -59.5t-123 -21z" />
    <glyph glyph-name="Ucircumflex" unicode="&#xdb;" horiz-adv-x="681" 
d="M196 759q-20 0 -34.5 16t-14.5 38q0 27 11 41.5t38 26.5l105 47q11 5 23 8.5t17 3.5q8 0 23 -5.5t37 -15.5l92 -41q17 -8 29.5 -21t12.5 -44q0 -22 -14.5 -38t-34.5 -16q-12 0 -24 3.5t-34 13.5l-87 40l-94 -43q-8 -4 -22.5 -9t-28.5 -5zM341 -14q-68 0 -123.5 21.5
t-95 59.5t-61 90.5t-21.5 115.5v370q0 35 20 55t52 20q33 0 52.5 -20t19.5 -55v-367q0 -33 11.5 -61t32 -48.5t49 -31.5t63.5 -11t64 11t49.5 31.5t32 48.5t11.5 61v367q0 35 19.5 55t52.5 20q32 0 52 -20t20 -55v-370q0 -63 -21.5 -115.5t-61 -91t-94.5 -59.5t-123 -21z
" />
    <glyph glyph-name="Udieresis" unicode="&#xdc;" horiz-adv-x="681" 
d="M230 774q-29 0 -50.5 21.5t-21.5 50.5q0 30 21.5 51.5t50.5 21.5q30 0 51.5 -21.5t21.5 -51.5q0 -29 -21.5 -50.5t-51.5 -21.5zM452 774q-30 0 -51.5 21.5t-21.5 50.5q0 30 21.5 51.5t51.5 21.5q29 0 50.5 -21.5t21.5 -51.5q0 -29 -21.5 -50.5t-50.5 -21.5zM341 -14
q-68 0 -123.5 21.5t-95 59.5t-61 90.5t-21.5 115.5v370q0 35 20 55t52 20q33 0 52.5 -20t19.5 -55v-367q0 -33 11.5 -61t32 -48.5t49 -31.5t63.5 -11t64 11t49.5 31.5t32 48.5t11.5 61v367q0 35 19.5 55t52.5 20q32 0 52 -20t20 -55v-370q0 -63 -21.5 -115.5t-61 -91
t-94.5 -59.5t-123 -21z" />
    <glyph glyph-name="Yacute" unicode="&#xdd;" horiz-adv-x="527" 
d="M197 764q-23 0 -35.5 14.5t-12.5 36.5q0 14 6 24t23 18l120 51q9 5 17.5 6t16.5 1q21 0 34 -15t13 -35q0 -14 -6 -24.5t-23 -17.5l-110 -47q-20 -9 -28.5 -10.5t-14.5 -1.5zM263 -6q-32 0 -52 20t-20 55v266l-146 209q-31 42 -45.5 66t-14.5 45q0 27 21.5 45t53.5 18
q16 0 28 -6t21 -14.5t16 -18.5t13 -18l125 -186l129 192q25 36 42 43.5t33 7.5q32 0 53.5 -18t21.5 -45q0 -20 -13 -42.5t-44 -64.5l-150 -213v-266q0 -35 -19.5 -55t-52.5 -20z" />
    <glyph glyph-name="Thorn" unicode="&#xde;" horiz-adv-x="563" 
d="M116 -6q-35 0 -53.5 20.5t-18.5 55.5v573q0 33 18.5 54t53.5 21q34 0 53 -17.5t19 -68.5v-29h128q51 0 94 -18t74.5 -49t49 -73t17.5 -90q0 -56 -16.5 -101.5t-47 -77t-74.5 -48.5t-98 -17h-127v-61q0 -33 -18.5 -53.5t-53.5 -20.5zM287 258q51 0 83 31.5t32 76.5
q0 50 -31 79t-84 29h-99v-216h99z" />
    <glyph glyph-name="germandbls" unicode="&#xdf;" horiz-adv-x="570" 
d="M325 -14q-40 0 -63 16.5t-23 51.5q0 30 17.5 45.5t52.5 20.5q41 5 65.5 37.5t24.5 77.5t-22 73.5t-66 35.5q-42 6 -60 21.5t-18 47.5q0 28 13 41.5t42 21.5q32 9 47 28t15 55q0 34 -21.5 56t-58.5 22q-45 0 -67 -30.5t-22 -89.5v-451q0 -30 -19.5 -51t-49.5 -21
q-31 0 -50.5 21t-19.5 51v477q0 48 16.5 89.5t46.5 72t71.5 48t92.5 17.5q50 0 90.5 -15.5t69.5 -43t44.5 -65.5t15.5 -84q0 -43 -17 -79t-50 -59q61 -22 92 -74t31 -121q0 -54 -19.5 -99t-51 -77t-71 -49.5t-78.5 -17.5z" />
    <glyph glyph-name="agrave" unicode="&#xe0;" horiz-adv-x="570" 
d="M353 584q-7 0 -15 1.5t-28 10.5l-110 47q-17 7 -23.5 17.5t-6.5 24.5q0 20 13 35t35 15q8 0 16 -1t17 -6l120 -51q17 -8 23 -18t6 -24q0 -22 -12.5 -36.5t-34.5 -14.5zM258 -14q-51 0 -94.5 21.5t-75.5 59t-50 89t-18 110.5t18 110t50 89t75.5 59.5t94.5 21.5
q45 0 77.5 -15.5t59.5 -49.5h2l2 11q5 18 20 32t44 14q31 0 49.5 -21t18.5 -51v-400q0 -30 -18.5 -51t-49.5 -21q-29 0 -44 14t-20 32l-2 11h-2q-26 -34 -59 -49.5t-78 -15.5zM276 118q54 0 85 41.5t31 106.5q0 64 -30.5 106t-86.5 42q-26 0 -47.5 -11t-36.5 -31t-23 -47
t-8 -59q0 -65 31 -106.5t85 -41.5z" />
    <glyph glyph-name="aacute" unicode="&#xe1;" horiz-adv-x="570" 
d="M218 584q-23 0 -35.5 14.5t-12.5 36.5q0 14 6 24t23 18l120 51q9 5 17.5 6t16.5 1q21 0 34 -15t13 -35q0 -14 -6 -24.5t-23 -17.5l-110 -47q-20 -9 -28.5 -10.5t-14.5 -1.5zM258 -14q-51 0 -94.5 21.5t-75.5 59t-50 89t-18 110.5t18 110t50 89t75.5 59.5t94.5 21.5
q45 0 77.5 -15.5t59.5 -49.5h2l2 11q5 18 20 32t44 14q31 0 49.5 -21t18.5 -51v-400q0 -30 -18.5 -51t-49.5 -21q-29 0 -44 14t-20 32l-2 11h-2q-26 -34 -59 -49.5t-78 -15.5zM276 118q54 0 85 41.5t31 106.5q0 64 -30.5 106t-86.5 42q-26 0 -47.5 -11t-36.5 -31t-23 -47
t-8 -59q0 -65 31 -106.5t85 -41.5z" />
    <glyph glyph-name="acircumflex" unicode="&#xe2;" horiz-adv-x="570" 
d="M164 583q-16 0 -27.5 13.5t-11.5 31.5q0 22 8.5 34t30.5 22l87 39q9 4 19 7t14 3q7 0 19.5 -5t30.5 -13l76 -34q14 -6 24 -16.5t10 -36.5q0 -18 -11.5 -31.5t-28.5 -13.5q-10 0 -20 3t-28 11l-72 33l-78 -35q-6 -4 -18 -8t-24 -4zM258 -14q-51 0 -94.5 21.5t-75.5 59
t-50 89t-18 110.5t18 110t50 89t75.5 59.5t94.5 21.5q45 0 77.5 -15.5t59.5 -49.5h2l2 11q5 18 20 32t44 14q31 0 49.5 -21t18.5 -51v-400q0 -30 -18.5 -51t-49.5 -21q-29 0 -44 14t-20 32l-2 11h-2q-26 -34 -59 -49.5t-78 -15.5zM276 118q54 0 85 41.5t31 106.5
q0 64 -30.5 106t-86.5 42q-26 0 -47.5 -11t-36.5 -31t-23 -47t-8 -59q0 -65 31 -106.5t85 -41.5z" />
    <glyph glyph-name="atilde" unicode="&#xe3;" horiz-adv-x="570" 
d="M370 586q-20 0 -39.5 5.5t-37.5 12.5t-34 12.5t-28 5.5q-11 0 -19 -5.5t-15 -12t-14.5 -12t-18.5 -5.5q-18 0 -30.5 11.5t-12.5 34.5q0 16 7 31t18 26.5t25.5 18.5t30.5 7q20 0 39 -5.5t37 -12.5t33.5 -12.5t28.5 -5.5q11 0 19 5.5t15 12.5t14.5 12.5t17.5 5.5
q20 0 31.5 -14t11.5 -34q0 -16 -6.5 -30.5t-17.5 -26t-25.5 -18.5t-29.5 -7zM258 -14q-51 0 -94.5 21.5t-75.5 59t-50 89t-18 110.5t18 110t50 89t75.5 59.5t94.5 21.5q45 0 77.5 -15.5t59.5 -49.5h2l2 11q5 18 20 32t44 14q31 0 49.5 -21t18.5 -51v-400q0 -30 -18.5 -51
t-49.5 -21q-29 0 -44 14t-20 32l-2 11h-2q-26 -34 -59 -49.5t-78 -15.5zM276 118q54 0 85 41.5t31 106.5q0 64 -30.5 106t-86.5 42q-26 0 -47.5 -11t-36.5 -31t-23 -47t-8 -59q0 -65 31 -106.5t85 -41.5z" />
    <glyph glyph-name="adieresis" unicode="&#xe4;" horiz-adv-x="570" 
d="M175 609q-30 0 -51.5 21.5t-21.5 51.5q0 29 21.5 50.5t51.5 21.5q29 0 50.5 -21.5t21.5 -50.5q0 -30 -21.5 -51.5t-50.5 -21.5zM396 609q-30 0 -51 21.5t-21 51.5q0 29 21 50.5t51 21.5q29 0 50.5 -21.5t21.5 -50.5q0 -30 -21 -51.5t-51 -21.5zM258 -14q-51 0 -94.5 21.5
t-75.5 59t-50 89t-18 110.5t18 110t50 89t75.5 59.5t94.5 21.5q45 0 77.5 -15.5t59.5 -49.5h2l2 11q5 18 20 32t44 14q31 0 49.5 -21t18.5 -51v-400q0 -30 -18.5 -51t-49.5 -21q-29 0 -44 14t-20 32l-2 11h-2q-26 -34 -59 -49.5t-78 -15.5zM276 118q54 0 85 41.5t31 106.5
q0 64 -30.5 106t-86.5 42q-26 0 -47.5 -11t-36.5 -31t-23 -47t-8 -59q0 -65 31 -106.5t85 -41.5z" />
    <glyph glyph-name="aring" unicode="&#xe5;" horiz-adv-x="570" 
d="M285 572q-19 0 -37 7.5t-31.5 20.5t-21.5 31t-8 38t8 38t21.5 31.5t31 21t37.5 7.5t38 -8t31.5 -21.5t21 -31t7.5 -37.5t-7.5 -37.5t-21 -31t-31.5 -21t-38 -7.5zM285 623q19 0 32.5 14t13.5 32q0 19 -14 33t-33 14q-18 0 -31.5 -14t-13.5 -33q0 -18 13.5 -32t32.5 -14z
M258 -14q-51 0 -94.5 21.5t-75.5 59t-50 89t-18 110.5t18 110t50 89t75.5 59.5t94.5 21.5q45 0 77.5 -15.5t59.5 -49.5h2l2 11q5 18 20 32t44 14q31 0 49.5 -21t18.5 -51v-400q0 -30 -18.5 -51t-49.5 -21q-29 0 -44 14t-20 32l-2 11h-2q-26 -34 -59 -49.5t-78 -15.5z
M276 118q54 0 85 41.5t31 106.5q0 64 -30.5 106t-86.5 42q-26 0 -47.5 -11t-36.5 -31t-23 -47t-8 -59q0 -65 31 -106.5t85 -41.5z" />
    <glyph glyph-name="ae" unicode="&#xe6;" horiz-adv-x="919" 
d="M258 -14q-51 0 -94.5 21.5t-75.5 59t-50 88.5t-18 111q0 59 18 110t50 89t75.5 59.5t94.5 21.5q45 0 77 -14.5t59 -48.5h2v11q0 25 15 39t41 14q17 0 32.5 -7.5t21.5 -27.5l2 -10h2q52 44 142 44q57 0 103 -22t78.5 -58.5t49.5 -84t17 -97.5q0 -35 -15 -50t-52 -15h-303
q2 -45 40 -75.5t101 -30.5q37 0 67 13t62 31q9 5 17.5 8.5t16.5 3.5q24 0 41 -16.5t17 -43.5q0 -21 -12.5 -38.5t-34.5 -32.5q-33 -23 -83 -37.5t-104 -14.5q-46 0 -82 10.5t-67 33.5h-2l-1 -9q-8 -20 -23 -27.5t-32 -7.5q-26 0 -40.5 14t-14.5 38v12h-3q-24 -35 -57 -49.5
t-78 -14.5zM760 316q-1 21 -10 41.5t-24.5 36t-36.5 25t-46 9.5q-22 0 -42 -9t-35.5 -24t-25 -35.5t-10.5 -43.5h230zM276 118q54 0 85 42t31 106q0 31 -7.5 58t-22.5 47t-37 31.5t-50 11.5q-27 0 -48 -11.5t-36 -31.5t-23 -47t-8 -58q0 -64 31 -106t85 -42z" />
    <glyph glyph-name="ccedilla" unicode="&#xe7;" horiz-adv-x="459" 
d="M237 -213q-43 0 -69 11t-26 34q0 11 7.5 21.5t19.5 10.5q13 0 26.5 -7.5t30.5 -7.5q13 0 23 8.5t10 22.5q0 12 -8.5 20t-29.5 8h-13q-25 0 -25 20q0 7 5 17.5t17 25.5l17 21q-45 9 -82.5 34t-64 61t-41 81.5t-14.5 96.5q0 59 19 110.5t53 89.5t81.5 59.5t104.5 21.5
q72 0 120 -23q26 -11 40 -29t14 -42q0 -28 -16.5 -47t-42.5 -19q-16 0 -32 8q-19 8 -36 13.5t-41 5.5q-59 0 -91.5 -42t-32.5 -104q0 -31 8 -58.5t23.5 -47t37 -31t48.5 -11.5q23 0 42 4.5t33 9.5t24.5 9t17.5 4q23 0 40.5 -18.5t17.5 -42.5q0 -23 -15.5 -41t-41.5 -31
q-24 -14 -54 -20t-59 -7l-26 -35l1 -2q12 3 22 3q33 0 55.5 -19.5t22.5 -56.5q0 -21 -10.5 -37.5t-27 -28t-38 -17.5t-44.5 -6z" />
    <glyph glyph-name="egrave" unicode="&#xe8;" horiz-adv-x="549" 
d="M343 584q-7 0 -15 1.5t-28 10.5l-110 47q-17 7 -23.5 17.5t-6.5 24.5q0 20 13 35t35 15q8 0 16 -1t17 -6l120 -51q17 -8 23 -18t6 -24q0 -22 -12.5 -36.5t-34.5 -14.5zM286 -14q-61 0 -110.5 21.5t-84 59t-53 89t-18.5 110.5q0 56 19.5 107t54 89.5t83.5 61t107 22.5
q56 0 102 -21.5t78.5 -58t50 -84.5t17.5 -100q0 -34 -16 -48.5t-52 -14.5h-294q2 -48 36.5 -77t94.5 -29q32 0 62.5 10.5t61.5 30.5q26 15 40 15q26 0 42.5 -17.5t16.5 -42.5q0 -19 -11.5 -36.5t-31.5 -31.5q-34 -25 -86 -40t-109 -15zM391 316q-1 22 -10 42.5t-24 36
t-35 24.5t-42 9t-41.5 -9t-34.5 -24.5t-24 -36t-10 -42.5h221z" />
    <glyph glyph-name="eacute" unicode="&#xe9;" horiz-adv-x="549" 
d="M208 584q-23 0 -35.5 14.5t-12.5 36.5q0 14 6 24t23 18l120 51q9 5 17.5 6t16.5 1q21 0 34 -15t13 -35q0 -14 -6 -24.5t-23 -17.5l-110 -47q-20 -9 -28.5 -10.5t-14.5 -1.5zM286 -14q-61 0 -110.5 21.5t-84 59t-53 89t-18.5 110.5q0 56 19.5 107t54 89.5t83.5 61
t107 22.5q56 0 102 -21.5t78.5 -58t50 -84.5t17.5 -100q0 -34 -16 -48.5t-52 -14.5h-294q2 -48 36.5 -77t94.5 -29q32 0 62.5 10.5t61.5 30.5q26 15 40 15q26 0 42.5 -17.5t16.5 -42.5q0 -19 -11.5 -36.5t-31.5 -31.5q-34 -25 -86 -40t-109 -15zM391 316q-1 22 -10 42.5
t-24 36t-35 24.5t-42 9t-41.5 -9t-34.5 -24.5t-24 -36t-10 -42.5h221z" />
    <glyph glyph-name="ecircumflex" unicode="&#xea;" horiz-adv-x="549" 
d="M154 583q-16 0 -27.5 13.5t-11.5 31.5q0 22 8.5 34t30.5 22l87 39q9 4 19 7t14 3q7 0 19.5 -5t30.5 -13l76 -34q14 -6 24 -16.5t10 -36.5q0 -18 -11.5 -31.5t-28.5 -13.5q-10 0 -20 3t-28 11l-72 33l-78 -35q-6 -4 -18 -8t-24 -4zM286 -14q-61 0 -110.5 21.5t-84 59
t-53 89t-18.5 110.5q0 56 19.5 107t54 89.5t83.5 61t107 22.5q56 0 102 -21.5t78.5 -58t50 -84.5t17.5 -100q0 -34 -16 -48.5t-52 -14.5h-294q2 -48 36.5 -77t94.5 -29q32 0 62.5 10.5t61.5 30.5q26 15 40 15q26 0 42.5 -17.5t16.5 -42.5q0 -19 -11.5 -36.5t-31.5 -31.5
q-34 -25 -86 -40t-109 -15zM391 316q-1 22 -10 42.5t-24 36t-35 24.5t-42 9t-41.5 -9t-34.5 -24.5t-24 -36t-10 -42.5h221z" />
    <glyph glyph-name="edieresis" unicode="&#xeb;" horiz-adv-x="549" 
d="M164 609q-30 0 -51.5 21.5t-21.5 51.5q0 29 21.5 50.5t51.5 21.5q29 0 50.5 -21.5t21.5 -50.5q0 -30 -21.5 -51.5t-50.5 -21.5zM385 609q-30 0 -51 21.5t-21 51.5q0 29 21 50.5t51 21.5q29 0 50.5 -21.5t21.5 -50.5q0 -30 -21 -51.5t-51 -21.5zM286 -14
q-61 0 -110.5 21.5t-84 59t-53 89t-18.5 110.5q0 56 19.5 107t54 89.5t83.5 61t107 22.5q56 0 102 -21.5t78.5 -58t50 -84.5t17.5 -100q0 -34 -16 -48.5t-52 -14.5h-294q2 -48 36.5 -77t94.5 -29q32 0 62.5 10.5t61.5 30.5q26 15 40 15q26 0 42.5 -17.5t16.5 -42.5
q0 -19 -11.5 -36.5t-31.5 -31.5q-34 -25 -86 -40t-109 -15zM391 316q-1 22 -10 42.5t-24 36t-35 24.5t-42 9t-41.5 -9t-34.5 -24.5t-24 -36t-10 -42.5h221z" />
    <glyph glyph-name="igrave" unicode="&#xec;" horiz-adv-x="218" 
d="M177 584q-7 0 -15 1.5t-28 10.5l-110 47q-17 7 -23.5 17.5t-6.5 24.5q0 20 13 35t35 15q8 0 16 -1t17 -6l120 -51q17 -8 23 -18t6 -24q0 -22 -12.5 -36.5t-34.5 -14.5zM109 -6q-31 0 -50 21t-19 51v400q0 30 19 51t50 21q32 0 51 -21t19 -51v-400q0 -30 -19.5 -51
t-50.5 -21z" />
    <glyph glyph-name="iacute" unicode="&#xed;" horiz-adv-x="218" 
d="M42 584q-23 0 -35.5 14.5t-12.5 36.5q0 14 6 24t23 18l120 51q9 5 17.5 6t16.5 1q21 0 34 -15t13 -35q0 -14 -6 -24.5t-23 -17.5l-110 -47q-20 -9 -28.5 -10.5t-14.5 -1.5zM109 -6q-31 0 -50 21t-19 51v400q0 30 19 51t50 21q32 0 51 -21t19 -51v-400q0 -30 -19.5 -51
t-50.5 -21z" />
    <glyph glyph-name="icircumflex" unicode="&#xee;" horiz-adv-x="218" 
d="M-36 594q-20 0 -34 16t-14 38q0 27 11 41.5t37 26.5l105 47q11 5 23 9t17 4q8 0 23 -6t37 -16l92 -41q17 -8 29.5 -21t12.5 -44q0 -22 -14.5 -38t-34.5 -16q-12 0 -24 3.5t-34 13.5l-87 40l-94 -43q-8 -4 -22.5 -9t-28.5 -5zM109 -6q-31 0 -50 21t-19 51v400q0 30 19 51
t50 21q32 0 51 -21t19 -51v-400q0 -30 -19.5 -51t-50.5 -21z" />
    <glyph glyph-name="idieresis" unicode="&#xef;" horiz-adv-x="218" 
d="M-1 609q-30 0 -51.5 21.5t-21.5 51.5q0 29 21.5 50.5t51.5 21.5q29 0 50.5 -21.5t21.5 -50.5q0 -30 -21.5 -51.5t-50.5 -21.5zM220 609q-30 0 -51 21.5t-21 51.5q0 29 21 50.5t51 21.5q29 0 50.5 -21.5t21.5 -50.5q0 -30 -21 -51.5t-51 -21.5zM109 -6q-31 0 -50 21
t-19 51v400q0 30 19 51t50 21q32 0 51 -21t19 -51v-400q0 -30 -19.5 -51t-50.5 -21z" />
    <glyph glyph-name="eth" unicode="&#xf0;" 
d="M276 -14q-55 0 -102 20t-81.5 56t-53.5 84.5t-19 105.5q0 59 18 108.5t50.5 84.5t77 54.5t96.5 19.5q74 0 109 -39l2 1q-18 40 -47 74.5t-60 51.5l-107 -52q-18 -8 -29 -8q-15 0 -24 12t-9 26t7.5 21.5t23.5 15.5l66 33q-23 13 -38.5 22t-25 16.5t-13.5 15t-4 17.5
q0 22 21 37t53 15t70.5 -15t76.5 -41l81 40q12 7 18 8.5t14 1.5q14 0 24.5 -10.5t10.5 -27.5q0 -22 -24 -33l-62 -30q70 -62 103 -156t33 -219q0 -71 -17.5 -128t-50.5 -97.5t-80.5 -62.5t-107.5 -22zM276 118q26 0 47.5 11t36.5 29t23.5 42.5t8.5 51.5t-8.5 51.5t-24 43
t-37 29.5t-47.5 11q-24 0 -45 -10.5t-36.5 -29t-24.5 -43t-9 -52.5q0 -27 8.5 -51.5t24 -42.5t37 -29t46.5 -11z" />
    <glyph glyph-name="ntilde" unicode="&#xf1;" 
d="M378 597q-24 0 -48 6.5t-45.5 15t-40.5 15t-34 6.5q-13 0 -22.5 -6.5t-18 -14.5t-18 -14.5t-22.5 -6.5q-22 0 -37 14.5t-15 41.5q0 20 8.5 38t22 31.5t31 22t35.5 8.5q24 0 47.5 -6.5t45.5 -15t41 -15t34 -6.5q14 0 23.5 6.5t17.5 15t17.5 15t22.5 6.5q24 0 38 -16.5
t14 -41.5q0 -19 -8 -36.5t-21.5 -31.5t-31 -22.5t-36.5 -8.5zM112 -6q-31 0 -50.5 21t-19.5 51v400q0 30 19.5 51t50.5 21q29 0 45.5 -14t21.5 -32l1 -9h2q20 32 53 47.5t82 15.5q89 0 141 -49.5t52 -131.5v-299q0 -29 -19.5 -50.5t-50.5 -21.5q-30 0 -49.5 21.5t-19.5 50.5
v264q0 41 -25.5 69t-69.5 28q-43 0 -69 -29t-26 -71v-261q0 -30 -19.5 -51t-49.5 -21z" />
    <glyph glyph-name="ograve" unicode="&#xf2;" 
d="M344 584q-7 0 -15 1.5t-28 10.5l-110 47q-17 7 -23.5 17.5t-6.5 24.5q0 20 13 35t35 15q8 0 16 -1t17 -6l120 -51q17 -8 23 -18t6 -24q0 -22 -12.5 -36.5t-34.5 -14.5zM276 -14q-57 0 -104.5 21.5t-81 59t-52 88.5t-18.5 111t18.5 111t52.5 88.5t81 59t104 21.5
q56 0 103 -21t81 -58.5t53 -88.5t19 -112q0 -60 -18.5 -111t-52 -88.5t-81 -59t-104.5 -21.5zM276 118q54 0 85 41.5t31 106.5q0 64 -30.5 106t-86.5 42q-53 0 -84 -41.5t-31 -106.5t31 -106.5t85 -41.5z" />
    <glyph glyph-name="oacute" unicode="&#xf3;" 
d="M209 584q-23 0 -35.5 14.5t-12.5 36.5q0 14 6 24t23 18l120 51q9 5 17.5 6t16.5 1q21 0 34 -15t13 -35q0 -14 -6 -24.5t-23 -17.5l-110 -47q-20 -9 -28.5 -10.5t-14.5 -1.5zM276 -14q-57 0 -104.5 21.5t-81 59t-52 88.5t-18.5 111t18.5 111t52.5 88.5t81 59t104 21.5
q56 0 103 -21t81 -58.5t53 -88.5t19 -112q0 -60 -18.5 -111t-52 -88.5t-81 -59t-104.5 -21.5zM276 118q54 0 85 41.5t31 106.5q0 64 -30.5 106t-86.5 42q-53 0 -84 -41.5t-31 -106.5t31 -106.5t85 -41.5z" />
    <glyph glyph-name="ocircumflex" unicode="&#xf4;" 
d="M155 583q-16 0 -27.5 13.5t-11.5 31.5q0 22 8.5 34t30.5 22l87 39q9 4 19 7t14 3q7 0 19.5 -5t30.5 -13l76 -34q14 -6 24 -16.5t10 -36.5q0 -18 -11.5 -31.5t-28.5 -13.5q-10 0 -20 3t-28 11l-72 33l-78 -35q-6 -4 -18 -8t-24 -4zM276 -14q-57 0 -104.5 21.5t-81 59
t-52 88.5t-18.5 111t18.5 111t52.5 88.5t81 59t104 21.5q56 0 103 -21t81 -58.5t53 -88.5t19 -112q0 -60 -18.5 -111t-52 -88.5t-81 -59t-104.5 -21.5zM276 118q54 0 85 41.5t31 106.5q0 64 -30.5 106t-86.5 42q-53 0 -84 -41.5t-31 -106.5t31 -106.5t85 -41.5z" />
    <glyph glyph-name="otilde" unicode="&#xf5;" 
d="M361 586q-20 0 -39.5 5.5t-37.5 12.5t-34 12.5t-28 5.5q-11 0 -19 -5.5t-15 -12t-14.5 -12t-18.5 -5.5q-18 0 -30.5 11.5t-12.5 34.5q0 16 7 31t18 26.5t25.5 18.5t30.5 7q20 0 39 -5.5t37 -12.5t33.5 -12.5t28.5 -5.5q11 0 19 5.5t15 12.5t14.5 12.5t17.5 5.5
q20 0 31.5 -14t11.5 -34q0 -16 -6.5 -30.5t-17.5 -26t-25.5 -18.5t-29.5 -7zM276 -14q-57 0 -104.5 21.5t-81 59t-52 88.5t-18.5 111t18.5 111t52.5 88.5t81 59t104 21.5q56 0 103 -21t81 -58.5t53 -88.5t19 -112q0 -60 -18.5 -111t-52 -88.5t-81 -59t-104.5 -21.5zM276 118
q54 0 85 41.5t31 106.5q0 64 -30.5 106t-86.5 42q-53 0 -84 -41.5t-31 -106.5t31 -106.5t85 -41.5z" />
    <glyph glyph-name="odieresis" unicode="&#xf6;" 
d="M166 609q-30 0 -51.5 21.5t-21.5 51.5q0 29 21.5 50.5t51.5 21.5q29 0 50.5 -21.5t21.5 -50.5q0 -30 -21.5 -51.5t-50.5 -21.5zM387 609q-30 0 -51 21.5t-21 51.5q0 29 21 50.5t51 21.5q29 0 50.5 -21.5t21.5 -50.5q0 -30 -21 -51.5t-51 -21.5zM276 -14
q-57 0 -104.5 21.5t-81 59t-52 88.5t-18.5 111t18.5 111t52.5 88.5t81 59t104 21.5q56 0 103 -21t81 -58.5t53 -88.5t19 -112q0 -60 -18.5 -111t-52 -88.5t-81 -59t-104.5 -21.5zM276 118q54 0 85 41.5t31 106.5q0 64 -30.5 106t-86.5 42q-53 0 -84 -41.5t-31 -106.5
t31 -106.5t85 -41.5z" />
    <glyph glyph-name="divide" unicode="&#xf7;" horiz-adv-x="600" 
d="M300 402q-17 0 -33 7t-28 19t-19 27.5t-7 33.5q0 17 7 33t19 28t28 19t33 7t33 -7t28 -19t19 -28t7 -33q0 -18 -7 -33.5t-19 -27.5t-28 -19t-33 -7zM84 218q-26 0 -43.5 15t-17.5 44t17.5 44t43.5 15h432q26 0 43.5 -15t17.5 -44t-17.5 -44t-43.5 -15h-432zM300 -22
q-18 0 -33.5 7t-27.5 19t-19 28t-7 33q0 18 7 33.5t19 27.5t28 19t33 7t33 -7t28 -19t19 -27.5t7 -33.5q0 -17 -7 -33t-19 -28t-27.5 -19t-33.5 -7z" />
    <glyph glyph-name="oslash" unicode="&#xf8;" 
d="M35 -28q-14 0 -24 10t-10 25q0 10 3 17t16 21l49 52q-49 71 -49 171q0 59 19 110.5t52.5 89t80.5 59t103 21.5q48 0 87.5 -14.5t71.5 -40.5l53 55q16 16 30 16t24 -10.5t10 -24.5q0 -9 -3 -17t-12 -17l-52 -57q24 -36 36 -79t12 -91q0 -60 -18.5 -111t-52 -88.5t-81 -59
t-104.5 -21.5q-48 0 -87.5 14t-71.5 40l-41 -44q-14 -15 -23 -20.5t-18 -5.5zM341 392q-13 11 -29 17.5t-37 6.5q-26 0 -47.5 -11t-36.5 -31t-23 -47t-8 -59q0 -35 10 -64zM276 120q54 0 85 41.5t31 106.5q0 16 -2.5 32t-7.5 30l-170 -188q25 -22 64 -22z" />
    <glyph glyph-name="ugrave" unicode="&#xf9;" 
d="M344 584q-7 0 -15 1.5t-28 10.5l-110 47q-17 7 -23.5 17.5t-6.5 24.5q0 20 13 35t35 15q8 0 16 -1t17 -6l120 -51q17 -8 23 -18t6 -24q0 -22 -12.5 -36.5t-34.5 -14.5zM276 -14q-53 0 -96.5 14t-74 40t-47 62.5t-16.5 82.5v281q0 30 19.5 51t50.5 21q30 0 49.5 -21
t19.5 -51v-259q0 -42 26.5 -68t68.5 -26t68.5 26t26.5 68v259q0 29 19.5 50.5t49.5 21.5q31 0 50.5 -21.5t19.5 -50.5v-281q0 -45 -16.5 -81.5t-47 -62.5t-73.5 -40.5t-97 -14.5z" />
    <glyph glyph-name="uacute" unicode="&#xfa;" 
d="M209 584q-23 0 -35.5 14.5t-12.5 36.5q0 14 6 24t23 18l120 51q9 5 17.5 6t16.5 1q21 0 34 -15t13 -35q0 -14 -6 -24.5t-23 -17.5l-110 -47q-20 -9 -28.5 -10.5t-14.5 -1.5zM276 -14q-53 0 -96.5 14t-74 40t-47 62.5t-16.5 82.5v281q0 30 19.5 51t50.5 21q30 0 49.5 -21
t19.5 -51v-259q0 -42 26.5 -68t68.5 -26t68.5 26t26.5 68v259q0 29 19.5 50.5t49.5 21.5q31 0 50.5 -21.5t19.5 -50.5v-281q0 -45 -16.5 -81.5t-47 -62.5t-73.5 -40.5t-97 -14.5z" />
    <glyph glyph-name="ucircumflex" unicode="&#xfb;" 
d="M131 594q-20 0 -34.5 16t-14.5 38q0 27 11 41.5t38 26.5l105 47q11 5 23 9t17 4q8 0 23 -6t37 -16l92 -41q17 -8 29.5 -21t12.5 -44q0 -22 -14.5 -38t-34.5 -16q-12 0 -24 3.5t-34 13.5l-87 40l-94 -43q-8 -4 -22.5 -9t-28.5 -5zM276 -14q-53 0 -96.5 14t-74 40t-47 62.5
t-16.5 82.5v281q0 30 19.5 51t50.5 21q30 0 49.5 -21t19.5 -51v-259q0 -42 26.5 -68t68.5 -26t68.5 26t26.5 68v259q0 29 19.5 50.5t49.5 21.5q31 0 50.5 -21.5t19.5 -50.5v-281q0 -45 -16.5 -81.5t-47 -62.5t-73.5 -40.5t-97 -14.5z" />
    <glyph glyph-name="udieresis" unicode="&#xfc;" 
d="M166 609q-30 0 -51.5 21.5t-21.5 51.5q0 29 21.5 50.5t51.5 21.5q29 0 50.5 -21.5t21.5 -50.5q0 -30 -21.5 -51.5t-50.5 -21.5zM387 609q-30 0 -51 21.5t-21 51.5q0 29 21 50.5t51 21.5q29 0 50.5 -21.5t21.5 -50.5q0 -30 -21 -51.5t-51 -21.5zM276 -14q-53 0 -96.5 14
t-74 40t-47 62.5t-16.5 82.5v281q0 30 19.5 51t50.5 21q30 0 49.5 -21t19.5 -51v-259q0 -42 26.5 -68t68.5 -26t68.5 26t26.5 68v259q0 29 19.5 50.5t49.5 21.5q31 0 50.5 -21.5t19.5 -50.5v-281q0 -45 -16.5 -81.5t-47 -62.5t-73.5 -40.5t-97 -14.5z" />
    <glyph glyph-name="yacute" unicode="&#xfd;" horiz-adv-x="485" 
d="M176 584q-23 0 -35.5 14.5t-12.5 36.5q0 14 6 24t23 18l120 51q9 5 17.5 6t16.5 1q21 0 34 -15t13 -35q0 -14 -6 -24.5t-23 -17.5l-110 -47q-20 -9 -28.5 -10.5t-14.5 -1.5zM160 -221q-32 0 -50 19t-18 44q0 17 7 36t16 39l54 126l-138 345q-3 7 -7.5 18.5t-9.5 24.5
t-8.5 24.5t-3.5 17.5q0 29 19.5 47t48.5 18q19 0 38.5 -10t33.5 -45l98 -265h2l95 247q28 73 75 73q32 0 51.5 -19t19.5 -51q0 -12 -6.5 -31.5t-17.5 -45.5l-223 -547q-18 -41 -34 -53t-42 -12z" />
    <glyph glyph-name="thorn" unicode="&#xfe;" horiz-adv-x="570" 
d="M109 -221q-31 0 -50 18t-19 47v855q0 35 19 53.5t50 18.5q32 0 51 -19t19 -53v-202h2q24 23 54.5 36t76.5 13q52 0 95.5 -22t75.5 -60.5t50 -89.5t18 -108q0 -58 -18 -109.5t-50 -89t-76 -59.5t-95 -22q-46 0 -76.5 13t-55.5 36h-2l1 -191q0 -29 -19.5 -47t-50.5 -18z
M294 118q54 0 85 41.5t31 106.5q0 64 -30.5 106t-86.5 42q-52 0 -83 -41.5t-31 -106.5t30.5 -106.5t84.5 -41.5z" />
    <glyph glyph-name="ydieresis" unicode="&#xff;" horiz-adv-x="485" 
d="M132 609q-30 0 -51 21.5t-21 51.5q0 29 21 50.5t51 21.5t51 -21.5t21 -50.5q0 -30 -21 -51.5t-51 -21.5zM353 609q-30 0 -51 21.5t-21 51.5q0 29 21 50.5t51 21.5t51 -21.5t21 -50.5q0 -30 -21 -51.5t-51 -21.5zM160 -221q-32 0 -50 19t-18 44q0 17 7 36t16 39l54 126
l-138 345q-3 7 -7.5 18.5t-9.5 24.5t-8.5 24.5t-3.5 17.5q0 29 19.5 47t48.5 18q19 0 38.5 -10t33.5 -45l98 -265h2l95 247q28 73 75 73q32 0 51.5 -19t19.5 -51q0 -12 -6.5 -31.5t-17.5 -45.5l-223 -547q-18 -41 -34 -53t-42 -12z" />
    <glyph glyph-name="Amacron" unicode="&#x100;" horiz-adv-x="626" 
d="M200 787q-25 0 -41.5 15.5t-16.5 42.5t16.5 42.5t41.5 15.5h233q26 0 42 -15.5t16 -42.5q0 -28 -16 -43t-42 -15h-233zM71 -6q-32 0 -50.5 16t-18.5 43q0 22 7.5 46.5t16.5 48.5l182 487q17 45 41.5 68t64.5 23q38 0 63 -23t42 -68l184 -494q8 -20 14.5 -42.5t6.5 -45.5
q0 -27 -18.5 -43t-49.5 -16q-34 0 -50 18.5t-27 54.5l-25 74h-282l-24 -72q-14 -44 -31 -59.5t-46 -15.5zM411 274l-94 289h-2l-100 -289h196z" />
    <glyph glyph-name="amacron" unicode="&#x101;" horiz-adv-x="570" 
d="M168 623q-25 0 -41 15t-16 42t16 42.5t41 15.5h234q26 0 42 -15.5t16 -42.5q0 -28 -16 -42.5t-42 -14.5h-234zM258 -14q-51 0 -94.5 21.5t-75.5 59t-50 89t-18 110.5t18 110t50 89t75.5 59.5t94.5 21.5q45 0 77.5 -15.5t59.5 -49.5h2l2 11q5 18 20 32t44 14
q31 0 49.5 -21t18.5 -51v-400q0 -30 -18.5 -51t-49.5 -21q-29 0 -44 14t-20 32l-2 11h-2q-26 -34 -59 -49.5t-78 -15.5zM276 118q54 0 85 41.5t31 106.5q0 64 -30.5 106t-86.5 42q-26 0 -47.5 -11t-36.5 -31t-23 -47t-8 -59q0 -65 31 -106.5t85 -41.5z" />
    <glyph glyph-name="Abreve" unicode="&#x102;" horiz-adv-x="626" 
d="M313 756q-30 0 -56 9t-45.5 25t-30.5 37t-11 46q0 21 10.5 34t31.5 13q15 0 25 -10t18 -29q10 -20 22.5 -31t35.5 -11t36 11t22 31q8 19 18 29t25 10q22 0 32 -13t10 -34q0 -25 -11 -46t-30.5 -37t-45.5 -25t-56 -9zM71 -6q-32 0 -50.5 16t-18.5 43q0 22 7.5 46.5
t16.5 48.5l182 487q17 45 41.5 68t64.5 23q38 0 63 -23t42 -68l184 -494q8 -20 14.5 -42.5t6.5 -45.5q0 -27 -18.5 -43t-49.5 -16q-34 0 -50 18.5t-27 54.5l-25 74h-282l-24 -72q-14 -44 -31 -59.5t-46 -15.5zM411 274l-94 289h-2l-100 -289h196z" />
    <glyph glyph-name="abreve" unicode="&#x103;" horiz-adv-x="570" 
d="M285 576q-30 0 -56 9t-45.5 25t-30.5 37t-11 46q0 21 10.5 34t31.5 13q15 0 25 -10t18 -29q10 -20 22.5 -31t35.5 -11t36 11t22 31q8 19 18 29t25 10q22 0 32 -13t10 -34q0 -25 -11 -46t-30.5 -37t-45.5 -25t-56 -9zM258 -14q-51 0 -94.5 21.5t-75.5 59t-50 89t-18 110.5
t18 110t50 89t75.5 59.5t94.5 21.5q45 0 77.5 -15.5t59.5 -49.5h2l2 11q5 18 20 32t44 14q31 0 49.5 -21t18.5 -51v-400q0 -30 -18.5 -51t-49.5 -21q-29 0 -44 14t-20 32l-2 11h-2q-26 -34 -59 -49.5t-78 -15.5zM276 118q54 0 85 41.5t31 106.5q0 64 -30.5 106t-86.5 42
q-26 0 -47.5 -11t-36.5 -31t-23 -47t-8 -59q0 -65 31 -106.5t85 -41.5z" />
    <glyph glyph-name="Aogonek" unicode="&#x104;" horiz-adv-x="626" 
d="M498 -213q-43 0 -67 21.5t-24 58.5q0 41 32 77.5t78 59.5q-12 5 -21 21t-17 40l-25 76h-282l-24 -74q-14 -41 -31 -57t-46 -16q-32 0 -50.5 16t-18.5 43q0 22 7.5 46.5t16.5 48.5l182 487q17 45 41.5 68t64.5 23q38 0 63 -23t42 -68l184 -494q8 -20 14.5 -42.5t6.5 -45.5
q0 -40 -37 -54q-33 -21 -56.5 -50t-23.5 -52q0 -37 33 -37q12 0 22 4t19 4q23 0 23 -27q0 -21 -24 -37q-29 -17 -82 -17zM411 274l-94 289h-2l-100 -289h196z" />
    <glyph glyph-name="aogonek" unicode="&#x105;" horiz-adv-x="570" 
d="M399 -213q-44 0 -67.5 21.5t-23.5 58.5q0 38 26.5 73t86.5 66q-15 13 -22 34l-2 11h-2q-26 -34 -59 -49.5t-78 -15.5q-51 0 -94.5 21.5t-75.5 59t-50 89t-18 110.5t18 110t50 89t75.5 59.5t94.5 21.5q45 0 77.5 -15.5t59.5 -49.5h2l2 11q5 18 20 32t44 14q31 0 49.5 -21
t18.5 -51v-400q0 -25 -13 -44t-36 -25q-32 -23 -53.5 -51t-21.5 -49q0 -37 34 -37q11 0 21.5 4t18.5 4q23 0 23 -27q0 -22 -24 -36q-14 -9 -35 -13.5t-46 -4.5zM276 118q54 0 85 41.5t31 106.5q0 64 -30.5 106t-86.5 42q-26 0 -47.5 -11t-36.5 -31t-23 -47t-8 -59
q0 -65 31 -106.5t85 -41.5z" />
    <glyph glyph-name="Cacute" unicode="&#x106;" horiz-adv-x="593" 
d="M314 760q-26 0 -41.5 18t-15.5 44q0 17 7 29.5t28 20.5l145 62q11 5 21 7t19 2q26 0 42 -18.5t16 -42.5q0 -17 -7.5 -30t-28.5 -22l-133 -56q-24 -11 -34 -12.5t-18 -1.5zM369 -14q-81 0 -145 28t-108 77t-67.5 116t-23.5 144q0 82 24 150.5t69 118.5t108.5 78t142.5 28
q49 0 89.5 -9.5t69.5 -24.5q26 -14 41 -34.5t15 -43.5q0 -29 -18 -49t-44 -20q-8 0 -18.5 3.5t-22.5 8.5q-26 13 -53 22t-57 9q-45 0 -80 -17.5t-60 -49t-38 -74t-13 -93.5q0 -49 12.5 -90.5t36.5 -71.5t58 -46.5t77 -16.5q42 0 70.5 8t48.5 18q13 6 24 10t22 4
q31 0 47 -18.5t16 -47.5q0 -23 -14 -43t-38 -34q-31 -18 -75.5 -29t-95.5 -11z" />
    <glyph glyph-name="cacute" unicode="&#x107;" horiz-adv-x="459" 
d="M203 595q-26 0 -42 18t-16 44q0 17 7.5 29.5t28.5 21.5l145 61q11 5 20.5 7t19.5 2q26 0 42 -18.5t16 -42.5q0 -17 -7.5 -30t-28.5 -21l-133 -57q-24 -11 -34 -12.5t-18 -1.5zM275 -14q-56 0 -103 22t-80.5 59.5t-52.5 88.5t-19 109q0 59 19 110.5t53 89.5t81.5 59.5
t104.5 21.5q72 0 120 -23q26 -11 40 -29t14 -42q0 -28 -16.5 -47t-42.5 -19q-16 0 -32 8q-19 8 -36 13.5t-41 5.5q-59 0 -91.5 -42t-32.5 -104q0 -31 8 -58.5t23.5 -47t37 -31t48.5 -11.5q23 0 42 4.5t33 9.5t24.5 9t17.5 4q23 0 40.5 -18.5t17.5 -42.5q0 -23 -15.5 -41
t-41.5 -31q-26 -14 -57.5 -20.5t-62.5 -6.5z" />
    <glyph glyph-name="Ccircumflex" unicode="&#x108;" horiz-adv-x="593" 
d="M214 759q-20 0 -34 16t-14 38q0 27 11 41.5t37 26.5l105 47q11 5 23 8.5t17 3.5q8 0 23 -5.5t37 -15.5l92 -41q17 -8 29.5 -21t12.5 -44q0 -22 -14.5 -38t-34.5 -16q-12 0 -24 3.5t-34 13.5l-87 40l-94 -43q-8 -4 -22.5 -9t-28.5 -5zM369 -14q-81 0 -145 28t-108 77
t-67.5 116t-23.5 144q0 82 24 150.5t69 118.5t108.5 78t142.5 28q49 0 89.5 -9.5t69.5 -24.5q26 -14 41 -34.5t15 -43.5q0 -29 -18 -49t-44 -20q-8 0 -18.5 3.5t-22.5 8.5q-26 13 -53 22t-57 9q-45 0 -80 -17.5t-60 -49t-38 -74t-13 -93.5q0 -49 12.5 -90.5t36.5 -71.5
t58 -46.5t77 -16.5q42 0 70.5 8t48.5 18q13 6 24 10t22 4q31 0 47 -18.5t16 -47.5q0 -23 -14 -43t-38 -34q-31 -18 -75.5 -29t-95.5 -11z" />
    <glyph glyph-name="ccircumflex" unicode="&#x109;" horiz-adv-x="459" 
d="M109 594q-20 0 -34 16t-14 38q0 27 11 41.5t37 26.5l105 47q11 5 23 9t17 4q8 0 23 -6t37 -16l92 -41q17 -8 29.5 -21t12.5 -44q0 -22 -14.5 -38t-34.5 -16q-12 0 -24 3.5t-34 13.5l-87 40l-94 -43q-8 -4 -22.5 -9t-28.5 -5zM275 -14q-56 0 -103 22t-80.5 59.5
t-52.5 88.5t-19 109q0 59 19 110.5t53 89.5t81.5 59.5t104.5 21.5q72 0 120 -23q26 -11 40 -29t14 -42q0 -28 -16.5 -47t-42.5 -19q-16 0 -32 8q-19 8 -36 13.5t-41 5.5q-59 0 -91.5 -42t-32.5 -104q0 -31 8 -58.5t23.5 -47t37 -31t48.5 -11.5q23 0 42 4.5t33 9.5t24.5 9
t17.5 4q23 0 40.5 -18.5t17.5 -42.5q0 -23 -15.5 -41t-41.5 -31q-26 -14 -57.5 -20.5t-62.5 -6.5z" />
    <glyph glyph-name="Cdotaccent" unicode="&#x10a;" horiz-adv-x="593" 
d="M359 774q-29 0 -50.5 21t-21.5 51t21 51.5t51 21.5t51 -21.5t21 -51.5t-21 -51t-51 -21zM369 -14q-81 0 -145 28t-108 77t-67.5 116t-23.5 144q0 82 24 150.5t69 118.5t108.5 78t142.5 28q49 0 89.5 -9.5t69.5 -24.5q26 -14 41 -34.5t15 -43.5q0 -29 -18 -49t-44 -20
q-8 0 -18.5 3.5t-22.5 8.5q-26 13 -53 22t-57 9q-45 0 -80 -17.5t-60 -49t-38 -74t-13 -93.5q0 -49 12.5 -90.5t36.5 -71.5t58 -46.5t77 -16.5q42 0 70.5 8t48.5 18q13 6 24 10t22 4q31 0 47 -18.5t16 -47.5q0 -23 -14 -43t-38 -34q-31 -18 -75.5 -29t-95.5 -11z" />
    <glyph glyph-name="cdotaccent" unicode="&#x10b;" horiz-adv-x="459" 
d="M254 609q-29 0 -50.5 21.5t-21.5 51.5t21.5 51t50.5 21q30 0 51.5 -21t21.5 -51t-21.5 -51.5t-51.5 -21.5zM275 -14q-56 0 -103 22t-80.5 59.5t-52.5 88.5t-19 109q0 59 19 110.5t53 89.5t81.5 59.5t104.5 21.5q72 0 120 -23q26 -11 40 -29t14 -42q0 -28 -16.5 -47
t-42.5 -19q-16 0 -32 8q-19 8 -36 13.5t-41 5.5q-59 0 -91.5 -42t-32.5 -104q0 -31 8 -58.5t23.5 -47t37 -31t48.5 -11.5q23 0 42 4.5t33 9.5t24.5 9t17.5 4q23 0 40.5 -18.5t17.5 -42.5q0 -23 -15.5 -41t-41.5 -31q-26 -14 -57.5 -20.5t-62.5 -6.5z" />
    <glyph glyph-name="Ccaron" unicode="&#x10c;" horiz-adv-x="593" 
d="M359 759q-5 0 -17 3.5t-23 8.5l-105 47q-26 12 -37 27t-11 41q0 22 14 38t34 16q14 0 28.5 -5t22.5 -9l94 -43l87 40q22 11 34 14t24 3q20 0 34.5 -16t14.5 -38q0 -31 -12.5 -44t-29.5 -21l-92 -41q-22 -10 -37 -15.5t-23 -5.5zM369 -14q-81 0 -145 28t-108 77t-67.5 116
t-23.5 144q0 82 24 150.5t69 118.5t108.5 78t142.5 28q49 0 89.5 -9.5t69.5 -24.5q26 -14 41 -34.5t15 -43.5q0 -29 -18 -49t-44 -20q-8 0 -18.5 3.5t-22.5 8.5q-26 13 -53 22t-57 9q-45 0 -80 -17.5t-60 -49t-38 -74t-13 -93.5q0 -49 12.5 -90.5t36.5 -71.5t58 -46.5
t77 -16.5q42 0 70.5 8t48.5 18q13 6 24 10t22 4q31 0 47 -18.5t16 -47.5q0 -23 -14 -43t-38 -34q-31 -18 -75.5 -29t-95.5 -11z" />
    <glyph glyph-name="ccaron" unicode="&#x10d;" horiz-adv-x="459" 
d="M254 594q-5 0 -17 4t-23 8l-105 47q-26 12 -37 27t-11 42q0 22 14 38t34 16q14 0 28.5 -5.5t22.5 -9.5l94 -43l87 40q22 11 34 14.5t24 3.5q20 0 34.5 -16t14.5 -38q0 -31 -12.5 -44t-29.5 -21l-92 -42q-22 -10 -37 -15.5t-23 -5.5zM275 -14q-56 0 -103 22t-80.5 59.5
t-52.5 88.5t-19 109q0 59 19 110.5t53 89.5t81.5 59.5t104.5 21.5q72 0 120 -23q26 -11 40 -29t14 -42q0 -28 -16.5 -47t-42.5 -19q-16 0 -32 8q-19 8 -36 13.5t-41 5.5q-59 0 -91.5 -42t-32.5 -104q0 -31 8 -58.5t23.5 -47t37 -31t48.5 -11.5q23 0 42 4.5t33 9.5t24.5 9
t17.5 4q23 0 40.5 -18.5t17.5 -42.5q0 -23 -15.5 -41t-41.5 -31q-26 -14 -57.5 -20.5t-62.5 -6.5z" />
    <glyph glyph-name="Dcaron" unicode="&#x10e;" horiz-adv-x="660" 
d="M273 759q-5 0 -17 3.5t-23 8.5l-105 47q-26 12 -37 27t-11 41q0 22 14 38t34 16q14 0 28.5 -5t22.5 -9l94 -43l87 40q22 11 34 14t24 3q20 0 34.5 -16t14.5 -38q0 -31 -12.5 -44t-29.5 -21l-92 -41q-22 -10 -37 -15.5t-23 -5.5zM116 0q-30 0 -51 20t-21 50v572
q0 30 21 50t51 20h197q70 0 129 -26.5t102 -74t67 -112t24 -140.5q0 -87 -27 -154t-72 -112.5t-103 -69t-121 -23.5h-196zM289 133q89 0 140 58.5t51 169.5q0 103 -50 160.5t-135 57.5h-107v-446h101z" />
    <glyph glyph-name="dcaron" unicode="&#x10f;" horiz-adv-x="570" 
d="M629 590q-28 0 -42 14t-14 34q0 14 4.5 25.5t6.5 18.5l26 75q8 24 23.5 32t30.5 8q28 0 45 -15t17 -38q0 -14 -8 -33l-41 -92q-5 -9 -15 -19t-33 -10zM258 -14q-51 0 -94.5 21.5t-75.5 59t-50 88.5t-18 111q0 58 17.5 109t49.5 89t76 60t96 22q42 0 72 -12t58 -38h3v203
q0 29 18.5 50t50.5 21q31 0 50.5 -21t19.5 -50v-633q0 -30 -18.5 -51t-49.5 -21q-29 0 -44 14t-20 32l-2 11h-2q-26 -34 -59 -49.5t-78 -15.5zM276 118q54 0 85 41.5t31 106.5q0 32 -8 59t-23 47t-36.5 31t-47.5 11q-27 0 -49 -11.5t-37 -31t-23 -46.5t-8 -59
q0 -65 31 -106.5t85 -41.5z" />
    <glyph glyph-name="Dcroat" unicode="&#x110;" horiz-adv-x="660" 
d="M116 0q-30 0 -51 20t-21 50v234h-16q-31 0 -50 11.5t-19 45.5q0 28 15.5 42.5t53.5 14.5h16v224q0 30 21 50t51 20h197q70 0 129 -26.5t102 -74t67 -112t24 -140.5q0 -87 -27 -154t-72 -112.5t-103 -69t-121 -23.5h-196zM289 133q89 0 140 58.5t51 169.5q0 103 -50 160.5
t-135 57.5h-107v-161h97q24 0 39.5 -15.5t15.5 -41.5t-15.5 -41.5t-39.5 -15.5h-97v-171h101z" />
    <glyph glyph-name="dcroat" unicode="&#x111;" horiz-adv-x="570" 
d="M258 -14q-51 0 -94.5 21.5t-75.5 59t-50 88.5t-18 111q0 58 17.5 109t49.5 89t76 60t96 22q42 0 72 -12t58 -38h3v85h-89q-20 0 -32.5 12t-12.5 32q0 23 12.5 34.5t32.5 11.5h89v28q0 28 19.5 49.5t49.5 21.5q31 0 50.5 -21.5t19.5 -49.5v-28h29q47 0 48 -46
q0 -20 -11.5 -32t-34.5 -12h-31v-515q0 -30 -18.5 -51t-49.5 -21q-29 0 -44 14t-20 32l-2 11h-2q-26 -34 -59 -49.5t-78 -15.5zM276 118q54 0 85 41.5t31 106.5q0 32 -8 59t-23 47t-36.5 31t-47.5 11q-27 0 -49 -11.5t-37 -31t-23 -46.5t-8 -59q0 -65 31 -106.5t85 -41.5z
" />
    <glyph glyph-name="Emacron" unicode="&#x112;" horiz-adv-x="459" 
d="M117 787q-25 0 -41 15.5t-16 42.5t16 42.5t41 15.5h234q26 0 41.5 -15.5t15.5 -42.5q0 -28 -15.5 -43t-41.5 -15h-234zM116 0q-30 0 -51 20t-21 51v571q0 30 21 50t51 20h250q30 0 50 -18.5t20 -48.5q0 -32 -20 -49t-50 -17h-177v-155h164q30 0 50 -17.5t20 -49.5
q0 -31 -19 -48.5t-51 -17.5h-165v-158h184q32 0 51.5 -17t19.5 -49q0 -30 -20 -48.5t-50 -18.5h-257z" />
    <glyph glyph-name="emacron" unicode="&#x113;" horiz-adv-x="549" 
d="M160 623q-25 0 -41 15t-16 42t16 42.5t41 15.5h234q26 0 42 -15.5t16 -42.5q0 -28 -16 -42.5t-42 -14.5h-234zM286 -14q-61 0 -110.5 21.5t-84 59t-53 89t-18.5 110.5q0 56 19.5 107t54 89.5t83.5 61t107 22.5q56 0 102 -21.5t78.5 -58t50 -84.5t17.5 -100
q0 -34 -16 -48.5t-52 -14.5h-294q2 -48 36.5 -77t94.5 -29q32 0 62.5 10.5t61.5 30.5q26 15 40 15q26 0 42.5 -17.5t16.5 -42.5q0 -19 -11.5 -36.5t-31.5 -31.5q-34 -25 -86 -40t-109 -15zM391 316q-1 22 -10 42.5t-24 36t-35 24.5t-42 9t-41.5 -9t-34.5 -24.5t-24 -36
t-10 -42.5h221z" />
    <glyph glyph-name="Ebreve" unicode="&#x114;" horiz-adv-x="459" 
d="M234 750q-36 0 -68 11t-55 30t-36.5 44.5t-13.5 55.5q0 26 12.5 42t38.5 16q18 0 30 -12.5t22 -35.5q11 -26 26 -39t44 -13t44 13t26 38q10 24 21.5 36.5t30.5 12.5q26 0 38.5 -16t12.5 -42q0 -30 -13.5 -55.5t-36.5 -44.5t-55 -30t-68 -11zM116 0q-30 0 -51 20t-21 51
v571q0 30 21 50t51 20h250q30 0 50 -18.5t20 -48.5q0 -32 -20 -49t-50 -17h-177v-155h164q30 0 50 -17.5t20 -49.5q0 -31 -19 -48.5t-51 -17.5h-165v-158h184q32 0 51.5 -17t19.5 -49q0 -30 -20 -48.5t-50 -18.5h-257z" />
    <glyph glyph-name="ebreve" unicode="&#x115;" horiz-adv-x="549" 
d="M277 585q-36 0 -68 11t-55 30t-36.5 44.5t-13.5 55.5q0 26 12.5 42t38.5 16q18 0 30 -12.5t22 -35.5q11 -25 26.5 -38t43.5 -13q29 0 44 13t26 38q10 23 22 35.5t30 12.5q26 0 38.5 -16t12.5 -42q0 -30 -13.5 -55.5t-36.5 -44.5t-55 -30t-68 -11zM286 -14
q-61 0 -110.5 21.5t-84 59t-53 89t-18.5 110.5q0 56 19.5 107t54 89.5t83.5 61t107 22.5q56 0 102 -21.5t78.5 -58t50 -84.5t17.5 -100q0 -34 -16 -48.5t-52 -14.5h-294q2 -48 36.5 -77t94.5 -29q32 0 62.5 10.5t61.5 30.5q26 15 40 15q26 0 42.5 -17.5t16.5 -42.5
q0 -19 -11.5 -36.5t-31.5 -31.5q-34 -25 -86 -40t-109 -15zM391 316q-1 22 -10 42.5t-24 36t-35 24.5t-42 9t-41.5 -9t-34.5 -24.5t-24 -36t-10 -42.5h221z" />
    <glyph glyph-name="Edotaccent" unicode="&#x116;" horiz-adv-x="459" 
d="M234 774q-30 0 -51 21t-21 51t21 51.5t51 21.5t51 -21.5t21 -51.5t-21 -51t-51 -21zM116 0q-30 0 -51 20t-21 51v571q0 30 21 50t51 20h250q30 0 50 -18.5t20 -48.5q0 -32 -20 -49t-50 -17h-177v-155h164q30 0 50 -17.5t20 -49.5q0 -31 -19 -48.5t-51 -17.5h-165v-158
h184q32 0 51.5 -17t19.5 -49q0 -30 -20 -48.5t-50 -18.5h-257z" />
    <glyph glyph-name="edotaccent" unicode="&#x117;" horiz-adv-x="549" 
d="M277 609q-30 0 -51 21.5t-21 51.5t21.5 51t50.5 21q30 0 51 -21t21 -51t-21 -51.5t-51 -21.5zM286 -14q-61 0 -110.5 21.5t-84 59t-53 89t-18.5 110.5q0 56 19.5 107t54 89.5t83.5 61t107 22.5q56 0 102 -21.5t78.5 -58t50 -84.5t17.5 -100q0 -34 -16 -48.5t-52 -14.5
h-294q2 -48 36.5 -77t94.5 -29q32 0 62.5 10.5t61.5 30.5q26 15 40 15q26 0 42.5 -17.5t16.5 -42.5q0 -19 -11.5 -36.5t-31.5 -31.5q-34 -25 -86 -40t-109 -15zM391 316q-1 22 -10 42.5t-24 36t-35 24.5t-42 9t-41.5 -9t-34.5 -24.5t-24 -36t-10 -42.5h221z" />
    <glyph glyph-name="Eogonek" unicode="&#x118;" horiz-adv-x="459" 
d="M266 -213q-45 0 -68 22t-23 58q0 38 29.5 74.5t77.5 58.5h-166q-30 0 -51 20t-21 51v571q0 30 21 50t52 20h249q30 0 50 -18.5t20 -48.5q0 -32 -20 -49t-50 -17h-177v-155h164q30 0 50 -17.5t20 -49.5q0 -31 -20 -48.5t-50 -17.5h-165v-158h184q32 0 51.5 -17t19.5 -49
q0 -30 -19.5 -48.5t-55.5 -18.5h-12q-16 -10 -31 -23t-26.5 -27.5t-18 -28t-6.5 -24.5q0 -37 34 -37q11 0 21 4t20 4q22 0 22 -27q0 -20 -21 -35q-30 -19 -84 -19z" />
    <glyph glyph-name="eogonek" unicode="&#x119;" horiz-adv-x="549" 
d="M265 -213q-43 0 -67 21.5t-24 58.5q0 35 23.5 66.5t59.5 54.5q-55 5 -98.5 28t-74.5 60t-47.5 86t-16.5 104q0 56 19.5 107t54 89.5t83.5 61t107 22.5q56 0 102 -21.5t78.5 -58t50 -84.5t17.5 -100q0 -34 -16 -48.5t-52 -14.5h-294q2 -48 36.5 -77t94.5 -29
q32 0 62.5 10.5t61.5 30.5q26 15 40 15q26 0 42.5 -17.5t16.5 -42.5q0 -18 -11 -35t-29 -31q-26 -20 -64 -34t-81 -19q-28 -22 -46.5 -47.5t-18.5 -45.5q0 -37 33 -37q12 0 22.5 4t18.5 4q23 0 23 -27q0 -23 -26 -38q-30 -16 -80 -16zM391 316q-1 22 -10 42.5t-24 36
t-35 24.5t-42 9t-41.5 -9t-34.5 -24.5t-24 -36t-10 -42.5h221z" />
    <glyph glyph-name="Ecaron" unicode="&#x11a;" horiz-adv-x="459" 
d="M234 759q-5 0 -17 3.5t-23 8.5l-105 47q-26 12 -37 27t-11 41q0 22 14 38t34 16q14 0 28.5 -5t22.5 -9l94 -43l87 40q22 11 34 14t24 3q20 0 34.5 -16t14.5 -38q0 -31 -12.5 -44t-29.5 -21l-92 -41q-22 -10 -37 -15.5t-23 -5.5zM116 0q-30 0 -51 20t-21 51v571
q0 30 21 50t51 20h250q30 0 50 -18.5t20 -48.5q0 -32 -20 -49t-50 -17h-177v-155h164q30 0 50 -17.5t20 -49.5q0 -31 -19 -48.5t-51 -17.5h-165v-158h184q32 0 51.5 -17t19.5 -49q0 -30 -20 -48.5t-50 -18.5h-257z" />
    <glyph glyph-name="ecaron" unicode="&#x11b;" horiz-adv-x="549" 
d="M277 594q-5 0 -17 4t-23 8l-105 47q-26 12 -37 27t-11 42q0 22 14 38t34 16q14 0 28.5 -5.5t22.5 -9.5l94 -43l87 40q22 11 34 14.5t24 3.5q20 0 34.5 -16t14.5 -38q0 -31 -12.5 -44t-29.5 -21l-92 -42q-22 -10 -37 -15.5t-23 -5.5zM286 -14q-61 0 -110.5 21.5t-84 59
t-53 89t-18.5 110.5q0 56 19.5 107t54 89.5t83.5 61t107 22.5q56 0 102 -21.5t78.5 -58t50 -84.5t17.5 -100q0 -34 -16 -48.5t-52 -14.5h-294q2 -48 36.5 -77t94.5 -29q32 0 62.5 10.5t61.5 30.5q26 15 40 15q26 0 42.5 -17.5t16.5 -42.5q0 -19 -11.5 -36.5t-31.5 -31.5
q-34 -25 -86 -40t-109 -15zM391 316q-1 22 -10 42.5t-24 36t-35 24.5t-42 9t-41.5 -9t-34.5 -24.5t-24 -36t-10 -42.5h221z" />
    <glyph glyph-name="Gcircumflex" unicode="&#x11c;" horiz-adv-x="711" 
d="M206 759q-20 0 -34 16t-14 38q0 27 11 41.5t37 26.5l105 47q11 5 23 8.5t17 3.5q8 0 23 -5.5t37 -15.5l92 -41q17 -8 29.5 -21t12.5 -44q0 -22 -14.5 -38t-34.5 -16q-12 0 -24 3.5t-34 13.5l-87 40l-94 -43q-8 -4 -22.5 -9t-28.5 -5zM371 -14q-86 0 -151 30t-108.5 80.5
t-65 117t-21.5 138.5q0 81 25.5 150t70.5 118.5t108 77.5t138 28q71 0 133 -20.5t98 -52.5q38 -35 38 -74q0 -28 -17.5 -45t-46.5 -17q-15 0 -28 6t-28 16q-30 22 -62.5 38t-80.5 16q-43 0 -78.5 -18t-61 -50t-39.5 -75t-14 -94q0 -52 13 -95.5t38 -75t60.5 -49t80.5 -17.5
q69 0 114 44t50 122h-102q-32 0 -51 17.5t-19 48.5q0 32 19 49.5t50 17.5h173q36 0 57 -21.5t21 -69.5q0 -76 -22.5 -139t-64 -108t-99 -69.5t-127.5 -24.5z" />
    <glyph glyph-name="gcircumflex" unicode="&#x11d;" horiz-adv-x="570" 
d="M154 594q-20 0 -34 16t-14 38q0 27 11 41.5t37 26.5l105 47q11 5 23 9t17 4q8 0 23 -6t37 -16l92 -41q17 -8 29.5 -21t12.5 -44q0 -22 -14.5 -38t-34.5 -16q-12 0 -24 3.5t-34 13.5l-87 40l-94 -43q-8 -4 -22.5 -9t-28.5 -5zM258 -221q-48 0 -96 12t-82 32q-23 14 -36 31
t-13 37q0 23 18 42.5t41 19.5q11 0 22.5 -4.5t25.5 -11.5q22 -12 49.5 -23t66.5 -11q63 0 100.5 32.5t37.5 107.5v15h-2q-45 -64 -144 -64q-52 0 -94 20.5t-71.5 57t-45 86.5t-15.5 108t18 109t49.5 89t75 60t95.5 22q86 0 137 -64h2l2 10q5 18 20 32t44 14q31 0 49.5 -21
t18.5 -51v-424q0 -62 -19 -110.5t-54 -82.5t-86 -52t-114 -18zM276 116q54 0 85 42t31 108q0 64 -30.5 106t-86.5 42q-26 0 -47 -11t-36 -31t-23.5 -47t-8.5 -59q0 -66 31 -108t85 -42z" />
    <glyph glyph-name="Gbreve" unicode="&#x11e;" horiz-adv-x="711" 
d="M351 750q-36 0 -68 11t-55 30t-36.5 44.5t-13.5 55.5q0 26 12.5 42t38.5 16q18 0 30 -12.5t22 -35.5q11 -26 26.5 -39t43.5 -13q29 0 44 13t26 38q10 24 22 36.5t30 12.5q26 0 38.5 -16t12.5 -42q0 -30 -13.5 -55.5t-36.5 -44.5t-55 -30t-68 -11zM371 -14q-86 0 -151 30
t-108.5 80.5t-65 117t-21.5 138.5q0 81 25.5 150t70.5 118.5t108 77.5t138 28q71 0 133 -20.5t98 -52.5q38 -35 38 -74q0 -28 -17.5 -45t-46.5 -17q-15 0 -28 6t-28 16q-30 22 -62.5 38t-80.5 16q-43 0 -78.5 -18t-61 -50t-39.5 -75t-14 -94q0 -52 13 -95.5t38 -75t60.5 -49
t80.5 -17.5q69 0 114 44t50 122h-102q-32 0 -51 17.5t-19 48.5q0 32 19 49.5t50 17.5h173q36 0 57 -21.5t21 -69.5q0 -76 -22.5 -139t-64 -108t-99 -69.5t-127.5 -24.5z" />
    <glyph glyph-name="gbreve" unicode="&#x11f;" horiz-adv-x="570" 
d="M299 585q-36 0 -68 11t-55 30t-36.5 44.5t-13.5 55.5q0 26 12.5 42t38.5 16q18 0 30 -12.5t22 -35.5q11 -25 26.5 -38t43.5 -13q29 0 44 13t26 38q10 23 22 35.5t30 12.5q26 0 38.5 -16t12.5 -42q0 -30 -13.5 -55.5t-36.5 -44.5t-55 -30t-68 -11zM258 -221q-48 0 -96 12
t-82 32q-23 14 -36 31t-13 37q0 23 18 42.5t41 19.5q11 0 22.5 -4.5t25.5 -11.5q22 -12 49.5 -23t66.5 -11q63 0 100.5 32.5t37.5 107.5v15h-2q-45 -64 -144 -64q-52 0 -94 20.5t-71.5 57t-45 86.5t-15.5 108t18 109t49.5 89t75 60t95.5 22q86 0 137 -64h2l2 10q5 18 20 32
t44 14q31 0 49.5 -21t18.5 -51v-424q0 -62 -19 -110.5t-54 -82.5t-86 -52t-114 -18zM276 116q54 0 85 42t31 108q0 64 -30.5 106t-86.5 42q-26 0 -47 -11t-36 -31t-23.5 -47t-8.5 -59q0 -66 31 -108t85 -42z" />
    <glyph glyph-name="Gdotaccent" unicode="&#x120;" horiz-adv-x="711" 
d="M351 774q-29 0 -50.5 21t-21.5 51t21 51.5t51 21.5t51 -21.5t21 -51.5t-21 -51t-51 -21zM371 -14q-86 0 -151 30t-108.5 80.5t-65 117t-21.5 138.5q0 81 25.5 150t70.5 118.5t108 77.5t138 28q71 0 133 -20.5t98 -52.5q38 -35 38 -74q0 -28 -17.5 -45t-46.5 -17
q-15 0 -28 6t-28 16q-30 22 -62.5 38t-80.5 16q-43 0 -78.5 -18t-61 -50t-39.5 -75t-14 -94q0 -52 13 -95.5t38 -75t60.5 -49t80.5 -17.5q69 0 114 44t50 122h-102q-32 0 -51 17.5t-19 48.5q0 32 19 49.5t50 17.5h173q36 0 57 -21.5t21 -69.5q0 -76 -22.5 -139t-64 -108
t-99 -69.5t-127.5 -24.5z" />
    <glyph glyph-name="gdotaccent" unicode="&#x121;" horiz-adv-x="570" 
d="M299 609q-30 0 -51 21.5t-21 51.5t21.5 51t50.5 21q30 0 51 -21t21 -51t-21 -51.5t-51 -21.5zM258 -221q-48 0 -96 12t-82 32q-23 14 -36 31t-13 37q0 23 18 42.5t41 19.5q11 0 22.5 -4.5t25.5 -11.5q22 -12 49.5 -23t66.5 -11q63 0 100.5 32.5t37.5 107.5v15h-2
q-45 -64 -144 -64q-52 0 -94 20.5t-71.5 57t-45 86.5t-15.5 108t18 109t49.5 89t75 60t95.5 22q86 0 137 -64h2l2 10q5 18 20 32t44 14q31 0 49.5 -21t18.5 -51v-424q0 -62 -19 -110.5t-54 -82.5t-86 -52t-114 -18zM276 116q54 0 85 42t31 108q0 64 -30.5 106t-86.5 42
q-26 0 -47 -11t-36 -31t-23.5 -47t-8.5 -59q0 -66 31 -108t85 -42z" />
    <glyph glyph-name="uni0122" unicode="&#x122;" horiz-adv-x="711" 
d="M371 -14q-86 0 -151 30t-108.5 80.5t-65 117t-21.5 138.5q0 81 25.5 150t70.5 118.5t108 77.5t138 28q71 0 133 -20.5t98 -52.5q38 -35 38 -74q0 -28 -17.5 -45t-46.5 -17q-15 0 -28 6t-28 16q-30 22 -62.5 38t-80.5 16q-43 0 -78.5 -18t-61 -50t-39.5 -75t-14 -94
q0 -52 13 -95.5t38 -75t60.5 -49t80.5 -17.5q69 0 114 44t50 122h-102q-32 0 -51 17.5t-19 48.5q0 32 19 49.5t50 17.5h173q36 0 57 -21.5t21 -69.5q0 -76 -22.5 -139t-64 -108t-99 -69.5t-127.5 -24.5zM307 -213q-22 0 -35.5 11t-13.5 30q0 16 11 30l48 75q9 14 21 24.5
t34 10.5q29 0 46 -15.5t17 -36.5q0 -11 -4 -19t-12 -17l-48 -60q-14 -19 -28.5 -26t-35.5 -7z" />
    <glyph glyph-name="uni0123" unicode="&#x123;" horiz-adv-x="570" 
d="M312 590q-27 0 -45 15t-18 38q0 9 3 17t11 24l36 72q8 15 19 24.5t33 9.5q26 0 40.5 -14t14.5 -34q0 -16 -10 -33l-30 -76q-8 -24 -21 -33.5t-33 -9.5zM258 -221q-48 0 -96 12t-82 32q-23 14 -36 31t-13 37q0 23 18 42.5t41 19.5q11 0 22.5 -4.5t25.5 -11.5
q22 -12 49.5 -23t66.5 -11q63 0 100.5 32.5t37.5 107.5v15h-2q-45 -64 -144 -64q-52 0 -94 20.5t-71.5 57t-45 86.5t-15.5 108t18 109t49.5 89t75 60t95.5 22q86 0 137 -64h2l2 10q5 18 20 32t44 14q31 0 49.5 -21t18.5 -51v-424q0 -62 -19 -110.5t-54 -82.5t-86 -52
t-114 -18zM276 116q54 0 85 42t31 108q0 64 -30.5 106t-86.5 42q-26 0 -47 -11t-36 -31t-23.5 -47t-8.5 -59q0 -66 31 -108t85 -42z" />
    <glyph glyph-name="Hcircumflex" unicode="&#x124;" horiz-adv-x="697" 
d="M205 759q-20 0 -34.5 16t-14.5 38q0 27 11 41.5t38 26.5l105 47q11 5 23 8.5t17 3.5q8 0 23 -5.5t37 -15.5l92 -41q17 -8 29.5 -21t12.5 -44q0 -22 -14.5 -38t-34.5 -16q-12 0 -24 3.5t-34 13.5l-87 40l-94 -43q-8 -4 -22.5 -9t-28.5 -5zM116 -6q-32 0 -52 20t-20 55v574
q0 35 20 55t52 20q33 0 52.5 -20t19.5 -55v-211h320v211q0 35 20 55t52 20t52 -20t20 -55v-574q0 -35 -20 -55t-52 -20t-52 20t-20 55v229h-320v-229q0 -35 -19.5 -55t-52.5 -20z" />
    <glyph glyph-name="hcircumflex" unicode="&#x125;" 
d="M90 821q-20 0 -34 16t-14 38q0 27 11 41.5t37 26.5l106 47q10 5 22.5 8.5t17.5 3.5q8 0 23 -5.5t37 -15.5l91 -41q18 -8 30 -21t12 -44q0 -22 -14 -38t-34 -16q-12 0 -24 3.5t-34 13.5l-87 40l-95 -43q-7 -4 -21.5 -9t-29.5 -5zM112 -6q-31 0 -50.5 21t-19.5 51v633
q0 29 19.5 50t50.5 21q30 0 49.5 -21t19.5 -50v-199h2q35 26 66 36t68 10q89 0 141 -49.5t52 -131.5v-299q0 -31 -19.5 -51.5t-50.5 -20.5q-30 0 -49.5 21t-19.5 51v265q0 40 -25 68t-70 28q-44 0 -69.5 -29t-25.5 -71v-261q0 -30 -19.5 -51t-49.5 -21z" />
    <glyph glyph-name="Hbar" unicode="&#x126;" horiz-adv-x="697" 
d="M116 -6q-32 0 -52 20t-20 55v574q0 35 20 55t52 20t52 -19.5t20 -60.5v-23h320v23q0 41 20 60.5t52 19.5t52 -20t20 -55v-574q0 -35 -20 -55t-52 -20t-52 20t-20 55v229h-320v-229q0 -35 -19.5 -55t-52.5 -20zM508 432v77h-320v-77h320z" />
    <glyph glyph-name="hbar" unicode="&#x127;" 
d="M112 -6q-31 0 -50.5 21t-19.5 51v515h-30q-23 0 -34.5 12t-11.5 32q0 46 48 46h28v28q0 29 19.5 50t50.5 21q30 0 49.5 -21t19.5 -50v-28h88q19 0 31.5 -11.5t12.5 -34.5q0 -20 -12.5 -32t-31.5 -12h-88v-81h2q35 26 66 36t68 10q89 0 141 -49.5t52 -131.5v-299
q0 -31 -19.5 -51.5t-50.5 -20.5q-30 0 -49.5 21t-19.5 51v265q0 40 -25 68t-70 28q-44 0 -69.5 -29t-25.5 -71v-261q0 -30 -19.5 -51t-49.5 -21z" />
    <glyph glyph-name="Itilde" unicode="&#x128;" horiz-adv-x="233" 
d="M202 766q-20 0 -39.5 5.5t-37.5 12.5t-34 12.5t-28 5.5q-11 0 -19 -5.5t-15 -12t-14.5 -12t-18.5 -5.5q-18 0 -30.5 11.5t-12.5 34.5q0 16 6.5 31t18 26.5t26 18.5t30.5 7q20 0 39 -5.5t37 -12.5t33.5 -12.5t28.5 -5.5q11 0 19 5.5t15 12.5t14.5 12.5t17.5 5.5
q20 0 31.5 -14t11.5 -34q0 -16 -6.5 -30.5t-17.5 -26t-25.5 -18.5t-29.5 -7zM116 -6q-32 0 -52 20t-20 55v574q0 35 20 55t52 20q33 0 52.5 -20t19.5 -55v-574q0 -35 -19.5 -55t-52.5 -20z" />
    <glyph glyph-name="itilde" unicode="&#x129;" horiz-adv-x="218" 
d="M194 586q-20 0 -39.5 5.5t-37.5 12.5t-34 12.5t-28 5.5q-11 0 -19 -5.5t-15 -12t-15 -12t-18 -5.5q-18 0 -30.5 11.5t-12.5 34.5q0 16 6.5 31t18 26.5t26 18.5t30.5 7q20 0 39 -5.5t37 -12.5t33.5 -12.5t28.5 -5.5q11 0 19 5.5t15 12.5t14.5 12.5t17.5 5.5q20 0 31.5 -14
t11.5 -34q0 -16 -6.5 -30.5t-17.5 -26t-25.5 -18.5t-29.5 -7zM109 -6q-31 0 -50 21t-19 51v400q0 30 19 51t50 21q32 0 51 -21t19 -51v-400q0 -30 -19.5 -51t-50.5 -21z" />
    <glyph glyph-name="Imacron" unicode="&#x12a;" horiz-adv-x="233" 
d="M0 787q-25 0 -41 15.5t-16 42.5t16 42.5t41 15.5h234q26 0 42 -15.5t16 -42.5q0 -28 -16 -43t-42 -15h-234zM116 -6q-32 0 -52 20t-20 55v574q0 35 20 55t52 20q33 0 52.5 -20t19.5 -55v-574q0 -35 -19.5 -55t-52.5 -20z" />
    <glyph glyph-name="imacron" unicode="&#x12b;" horiz-adv-x="218" 
d="M-8 623q-25 0 -41 15t-16 42t16 42.5t41 15.5h234q26 0 42 -15.5t16 -42.5q0 -28 -16 -42.5t-42 -14.5h-234zM109 -6q-31 0 -50 21t-19 51v400q0 30 19 51t50 21q32 0 51 -21t19 -51v-400q0 -30 -19.5 -51t-50.5 -21z" />
    <glyph glyph-name="Ibreve" unicode="&#x12c;" horiz-adv-x="233" 
d="M117 750q-36 0 -68 11t-55 30t-36.5 44.5t-13.5 55.5q0 26 12.5 42t38.5 16q18 0 30 -12.5t22 -35.5q11 -26 26.5 -39t43.5 -13q29 0 44 13t26 38q10 24 22 36.5t30 12.5q26 0 38.5 -16t12.5 -42q0 -30 -13.5 -55.5t-36.5 -44.5t-55 -30t-68 -11zM116 -6q-32 0 -52 20
t-20 55v574q0 35 20 55t52 20q33 0 52.5 -20t19.5 -55v-574q0 -35 -19.5 -55t-52.5 -20z" />
    <glyph glyph-name="ibreve" unicode="&#x12d;" horiz-adv-x="218" 
d="M109 585q-36 0 -68 11t-55 30t-36.5 44.5t-13.5 55.5q0 26 12.5 42t38.5 16q18 0 30 -12.5t22 -35.5q11 -25 26.5 -38t43.5 -13q29 0 44 13t26 38q10 23 22 35.5t30 12.5q26 0 38.5 -16t12.5 -42q0 -30 -13.5 -55.5t-36.5 -44.5t-55 -30t-68 -11zM109 -6q-31 0 -50 21
t-19 51v400q0 30 19 51t50 21q32 0 51 -21t19 -51v-400q0 -30 -19.5 -51t-50.5 -21z" />
    <glyph glyph-name="Iogonek" unicode="&#x12e;" horiz-adv-x="233" 
d="M57 -213q-44 0 -67.5 22t-23.5 58q0 19 9 39t24 38t35.5 33t43.5 26q-17 9 -25.5 27t-8.5 40v573q0 35 20 55t52 20q33 0 52.5 -20t19.5 -55v-573q0 -24 -10 -42.5t-30 -27.5q-15 -8 -30 -20.5t-26.5 -26.5t-19 -28.5t-7.5 -27.5q0 -37 34 -37q11 0 20.5 4t20.5 4
q22 0 22 -27q0 -23 -24 -36q-14 -8 -35 -13t-46 -5z" />
    <glyph glyph-name="iogonek" unicode="&#x12f;" horiz-adv-x="218" 
d="M109 591q-33 0 -58.5 24.5t-25.5 59.5t24.5 60t59.5 25q34 0 59 -25t25 -60t-25 -59.5t-59 -24.5zM46 -213q-45 0 -68 22t-23 58q0 19 9 39t24.5 38t36.5 34t45 27q-16 11 -23 27.5t-7 33.5v400q0 30 19 51t50 21q32 0 51 -21t19 -51v-400q0 -23 -11.5 -42t-34.5 -25
q-32 -20 -55 -49.5t-23 -52.5q0 -37 34 -37q11 0 21.5 4t18.5 4q23 0 23 -27q0 -21 -25 -37q-29 -17 -81 -17z" />
    <glyph glyph-name="Idotaccent" unicode="&#x130;" horiz-adv-x="233" 
d="M117 774q-29 0 -50.5 21t-21.5 51t21 51.5t51 21.5t51 -21.5t21 -51.5t-21 -51t-51 -21zM116 -6q-32 0 -52 20t-20 55v574q0 35 20 55t52 20q33 0 52.5 -20t19.5 -55v-574q0 -35 -19.5 -55t-52.5 -20z" />
    <glyph glyph-name="dotlessi" unicode="&#x131;" horiz-adv-x="218" 
d="M109 -6q-31 0 -50 21t-19 51v400q0 30 19 51t50 21q32 0 51 -21t19 -51v-400q0 -30 -19.5 -51t-50.5 -21z" />
    <glyph glyph-name="IJ" unicode="&#x132;" horiz-adv-x="652" 
d="M116 -6q-32 0 -52 20t-20 55v574q0 35 20 55t52 20q33 0 52.5 -20t19.5 -55v-574q0 -35 -19.5 -55t-52.5 -20zM404 -16q-30 1 -61 8t-55.5 19.5t-40.5 32t-16 46.5q0 31 17 50.5t48 19.5q12 0 23.5 -6t23.5 -13.5t25.5 -13.5t30.5 -6q36 0 50.5 25t14.5 79v416
q0 35 19.5 55t52.5 20q32 0 52 -20t20 -55v-438q0 -109 -50.5 -164t-153.5 -55z" />
    <glyph glyph-name="ij" unicode="&#x133;" horiz-adv-x="435" 
d="M112 591q-34 0 -59.5 24t-25.5 60q0 35 25 60t60 25q36 0 60 -25t24 -60t-24.5 -59.5t-59.5 -24.5zM325 591q-33 0 -58.5 24.5t-25.5 59.5t24.5 60t59.5 25q36 0 60.5 -25t24.5 -60t-24.5 -59.5t-60.5 -24.5zM112 -6q-31 0 -50.5 21t-19.5 51v400q0 30 19.5 51t50.5 21
q32 0 50.5 -21t18.5 -51v-400q0 -30 -19.5 -51t-49.5 -21zM325 -221q-30 0 -49.5 21t-19.5 50v616q0 30 19.5 51t49.5 21q32 0 51 -21t19 -51v-616q0 -29 -19.5 -50t-50.5 -21z" />
    <glyph glyph-name="Jcircumflex" unicode="&#x134;" horiz-adv-x="411" 
d="M149 759q-20 0 -34 16t-14 38q0 27 11 41.5t37 26.5l105 47q11 5 23 8.5t17 3.5q8 0 23.5 -5.5t36.5 -15.5l92 -41q18 -8 30 -21t12 -44q0 -22 -14 -38t-34 -16q-13 0 -25 3.5t-34 13.5l-87 40l-94 -43q-8 -4 -22 -9t-29 -5zM163 -14q-30 1 -60.5 7.5t-55.5 19t-41 32
t-16 46.5q0 32 17 51.5t48 19.5q13 0 24.5 -6t23.5 -13.5t25.5 -13.5t30.5 -6q35 0 49.5 25t14.5 79v416q0 35 20 55t52 20t52 -20t20 -55v-439q0 -218 -204 -218z" />
    <glyph glyph-name="jcircumflex" unicode="&#x135;" horiz-adv-x="218" 
d="M-36 594q-20 0 -34 16t-14 38q0 27 11 41.5t37 26.5l105 47q11 5 23 9t17 4q8 0 23 -6t37 -16l92 -41q17 -8 29.5 -21t12.5 -44q0 -22 -14.5 -38t-34.5 -16q-12 0 -24 3.5t-34 13.5l-87 40l-94 -43q-8 -4 -22.5 -9t-28.5 -5zM109 -221q-31 0 -50 21t-19 50v616
q0 30 19 51t50 21q32 0 51 -21t19 -51v-616q0 -29 -19.5 -50t-50.5 -21z" />
    <glyph glyph-name="uni0136" unicode="&#x136;" horiz-adv-x="586" 
d="M116 -6q-32 0 -52 20t-20 55v574q0 35 20 55t52 20q33 0 52.5 -20t19.5 -55v-214l238 247q21 22 36.5 32t37.5 10q13 0 26 -5.5t23 -15t16 -22t6 -25.5q0 -18 -10.5 -34.5t-25.5 -30.5l-209 -205l251 -264q24 -24 24 -52q0 -31 -21 -50.5t-54 -19.5q-7 0 -15 1.5t-18 7
t-23 17.5t-32 33l-250 269v-253q0 -35 -19.5 -55t-52.5 -20zM240 -213q-23 0 -36 11t-13 30q0 15 10 30l49 75q9 14 21 24.5t33 10.5q29 0 46 -15.5t17 -36.5q0 -11 -4 -19t-12 -17l-48 -60q-14 -19 -28.5 -26t-34.5 -7z" />
    <glyph glyph-name="uni0137" unicode="&#x137;" horiz-adv-x="489" 
d="M112 -6q-31 0 -50.5 21t-19.5 51v633q0 29 19.5 50t50.5 21q30 0 49.5 -21t19.5 -50v-345l164 156q13 12 27.5 20t31.5 8q29 0 47.5 -18.5t18.5 -45.5q0 -18 -11 -33t-41 -44l-106 -96l159 -187q16 -20 22 -32.5t6 -23.5q0 -26 -19 -45t-48 -19q-25 0 -41 10.5t-36 35.5
l-174 213v-187q0 -30 -19.5 -51t-49.5 -21zM194 -213q-23 0 -36 11t-13 30q0 16 11 30l48 75q9 14 21 24.5t34 10.5q29 0 46 -15.5t17 -36.5q0 -11 -4 -19t-12 -17l-48 -60q-15 -19 -29 -26t-35 -7z" />
    <glyph glyph-name="kgreenlandic" unicode="&#x138;" horiz-adv-x="489" 
d="M112 -6q-31 0 -50.5 21t-19.5 51v400q0 30 19.5 51t50.5 21q30 0 49.5 -21t19.5 -51v-112l164 156q13 12 27.5 20t31.5 8q29 0 47.5 -18.5t18.5 -45.5q0 -18 -11.5 -34t-40.5 -44l-106 -95l159 -187q16 -20 22 -32.5t6 -23.5q0 -26 -19 -45t-48 -19q-25 0 -41 10.5
t-36 35.5l-174 213v-187q0 -30 -19.5 -51t-49.5 -21z" />
    <glyph glyph-name="Lacute" unicode="&#x139;" horiz-adv-x="429" 
d="M74 760q-26 0 -41.5 18t-15.5 44q0 17 7.5 29.5t27.5 20.5l145 62q11 5 21 7t20 2q26 0 41.5 -18.5t15.5 -42.5q0 -17 -7.5 -30t-28.5 -22l-132 -56q-25 -11 -35 -12.5t-18 -1.5zM115 0q-29 0 -50 20t-21 50v573q0 35 20 55t52 20q33 0 52.5 -20t19.5 -55v-510h179
q32 0 51.5 -17t19.5 -49q0 -30 -20 -48.5t-50 -18.5h-253z" />
    <glyph glyph-name="lacute" unicode="&#x13a;" horiz-adv-x="218" 
d="M53 790q-26 0 -41.5 18t-15.5 44q0 17 7 29.5t28 21.5l145 61q21 10 40 10q26 0 42 -18.5t16 -43.5q0 -17 -7.5 -30t-28.5 -21l-133 -57q-24 -11 -34 -12.5t-18 -1.5zM109 -6q-31 0 -50 21t-19 51v633q0 29 19 50t50 21q32 0 51 -21t19 -50v-633q0 -30 -19.5 -51
t-50.5 -21z" />
    <glyph glyph-name="uni013B" unicode="&#x13b;" horiz-adv-x="429" 
d="M115 0q-29 0 -50 20t-21 50v573q0 35 20 55t52 20q33 0 52.5 -20t19.5 -55v-510h179q32 0 51.5 -17t19.5 -49q0 -30 -20 -48.5t-50 -18.5h-253zM176 -213q-22 0 -35.5 11t-13.5 30q0 16 11 30l48 75q9 14 21 24.5t34 10.5q29 0 46 -15.5t17 -36.5q0 -11 -4 -19t-12 -17
l-48 -60q-14 -19 -28.5 -26t-35.5 -7z" />
    <glyph glyph-name="uni013C" unicode="&#x13c;" horiz-adv-x="218" 
d="M109 -6q-31 0 -50 21t-19 51v633q0 29 19 50t50 21q32 0 51 -21t19 -50v-633q0 -30 -19.5 -51t-50.5 -21zM50 -213q-23 0 -36 11t-13 30q0 16 11 30l48 75q9 14 21 24.5t33 10.5q29 0 46.5 -15.5t17.5 -36.5q0 -11 -4.5 -19t-12.5 -17l-48 -60q-14 -19 -28 -26t-35 -7z
" />
    <glyph glyph-name="Lcaron" unicode="&#x13d;" horiz-adv-x="429" 
d="M297 590q-29 0 -42.5 14t-13.5 34q0 14 4 25.5t6 18.5l26 75q8 24 23.5 32t30.5 8q29 0 45.5 -15t16.5 -38q0 -14 -8 -33l-41 -92q-5 -9 -14.5 -19t-32.5 -10zM115 0q-29 0 -50 20t-21 50v573q0 35 20 55t52 20q33 0 52.5 -20t19.5 -55v-510h179q32 0 51.5 -17t19.5 -49
q0 -30 -20 -48.5t-50 -18.5h-253z" />
    <glyph glyph-name="lcaron" unicode="&#x13e;" horiz-adv-x="214" 
d="M273 590q-29 0 -42.5 14t-13.5 34q0 14 4 25.5t6 18.5l26 75q8 24 23.5 32t30.5 8q29 0 45.5 -15t16.5 -38q0 -14 -8 -33l-41 -92q-5 -9 -14.5 -19t-32.5 -10zM109 -6q-31 0 -50 21t-19 51v633q0 29 19 50t50 21q32 0 51 -21t19 -50v-633q0 -30 -19.5 -51t-50.5 -21z" />
    <glyph glyph-name="Ldot" unicode="&#x13f;" horiz-adv-x="429" 
d="M115 0q-29 0 -50 20t-21 50v573q0 35 20 55t52 20q33 0 52.5 -20t19.5 -55v-510h179q32 0 51.5 -17t19.5 -49q0 -30 -20 -48.5t-50 -18.5h-253zM331 299q-30 0 -51.5 21t-21.5 51t21.5 51t51.5 21q29 0 50.5 -21t21.5 -51t-21.5 -51t-50.5 -21z" />
    <glyph glyph-name="ldot" unicode="&#x140;" horiz-adv-x="338" 
d="M109 -6q-31 0 -50 21t-19 51v633q0 29 19 50t50 21q32 0 51 -21t19 -50v-633q0 -30 -19.5 -51t-50.5 -21zM280 299q-30 0 -51 21t-21 51t21.5 51t50.5 21q30 0 51 -21t21 -51t-21 -51t-51 -21z" />
    <glyph glyph-name="Lslash" unicode="&#x141;" horiz-adv-x="429" 
d="M115 0q-29 0 -50 20t-21 51v177q-15 -11 -28.5 -19t-21.5 -8q-21 0 -31.5 13.5t-10.5 35.5q0 16 7.5 27t30.5 27l54 38v281q0 35 20 55t52 20q33 0 52.5 -20t19.5 -55v-179l73 51q22 15 32 20.5t19 5.5q20 0 30 -13.5t10 -34.5q0 -17 -8.5 -29t-29.5 -26l-126 -88v-217
h179q32 0 51.5 -17t19.5 -49q0 -30 -20 -48.5t-50 -18.5h-253z" />
    <glyph glyph-name="lslash" unicode="&#x142;" horiz-adv-x="322" 
d="M161 -6q-31 0 -50.5 21t-19.5 51v213q-19 -19 -30 -25t-19 -6q-20 0 -31.5 14t-11.5 33q0 11 5 20t24 27l63 62v295q0 29 19.5 50t50.5 21q32 0 51 -21t19 -50v-192q15 16 26.5 23.5t22.5 7.5q19 0 31 -13.5t12 -33.5q0 -13 -6 -22t-16 -18l-70 -69v-316q0 -30 -19.5 -51
t-50.5 -21z" />
    <glyph glyph-name="Nacute" unicode="&#x143;" horiz-adv-x="696" 
d="M296 760q-26 0 -42 18t-16 44q0 17 7.5 29.5t28.5 20.5l145 62q11 5 20.5 7t19.5 2q26 0 42 -18.5t16 -42.5q0 -17 -7.5 -30t-28.5 -22l-133 -56q-24 -11 -34 -12.5t-18 -1.5zM116 -6q-32 0 -52 20t-20 55v575q0 34 20 54t52 20q26 0 41 -11t32 -32l317 -413h2v381
q0 35 20 55t52 20t52 -20t20 -55v-574q0 -35 -19.5 -55t-52.5 -20q-24 0 -40.5 12t-36.5 38l-313 408h-2v-383q0 -35 -19.5 -55t-52.5 -20z" />
    <glyph glyph-name="nacute" unicode="&#x144;" 
d="M220 595q-26 0 -42 18t-16 44q0 17 7.5 29.5t28.5 21.5l145 61q11 5 21 7t19 2q26 0 42 -18.5t16 -42.5q0 -17 -7.5 -30t-28.5 -21l-133 -57q-24 -11 -34 -12.5t-18 -1.5zM112 -6q-31 0 -50.5 21t-19.5 51v400q0 30 19.5 51t50.5 21q29 0 45.5 -14t21.5 -32l1 -9h2
q20 32 53 47.5t82 15.5q89 0 141 -49.5t52 -131.5v-299q0 -29 -19.5 -50.5t-50.5 -21.5q-30 0 -49.5 21.5t-19.5 50.5v264q0 41 -25.5 69t-69.5 28q-43 0 -69 -29t-26 -71v-261q0 -30 -19.5 -51t-49.5 -21z" />
    <glyph glyph-name="uni0145" unicode="&#x145;" horiz-adv-x="696" 
d="M116 -6q-32 0 -52 20t-20 55v575q0 34 20 54t52 20q26 0 41 -11t32 -32l317 -413h2v381q0 35 20 55t52 20t52 -20t20 -55v-574q0 -35 -19.5 -55t-52.5 -20q-24 0 -40.5 12t-36.5 38l-313 408h-2v-383q0 -35 -19.5 -55t-52.5 -20zM306 -213q-23 0 -36 11t-13 30
q0 16 11 30l48 75q9 14 21 24.5t34 10.5q29 0 46 -15.5t17 -36.5q0 -11 -4 -19t-12 -17l-48 -60q-15 -19 -29 -26t-35 -7z" />
    <glyph glyph-name="uni0146" unicode="&#x146;" 
d="M112 -6q-31 0 -50.5 21t-19.5 51v400q0 30 19.5 51t50.5 21q29 0 45.5 -14t21.5 -32l1 -9h2q20 32 53 47.5t82 15.5q89 0 141 -49.5t52 -131.5v-299q0 -29 -19.5 -50.5t-50.5 -21.5q-30 0 -49.5 21.5t-19.5 50.5v264q0 41 -25.5 69t-69.5 28q-43 0 -69 -29t-26 -71v-261
q0 -30 -19.5 -51t-49.5 -21zM215 -213q-22 0 -35.5 11t-13.5 30q0 16 11 30l48 75q9 14 21 24.5t34 10.5q29 0 46 -15.5t17 -36.5q0 -11 -4 -19t-12 -17l-48 -60q-14 -19 -28.5 -26t-35.5 -7z" />
    <glyph glyph-name="Ncaron" unicode="&#x147;" horiz-adv-x="696" 
d="M349 759q-5 0 -17 3.5t-23 8.5l-105 47q-26 12 -37 27t-11 41q0 22 14 38t34 16q14 0 28.5 -5t22.5 -9l94 -43l87 40q22 11 34 14t24 3q20 0 34.5 -16t14.5 -38q0 -31 -12.5 -44t-29.5 -21l-92 -41q-22 -10 -37 -15.5t-23 -5.5zM116 -6q-32 0 -52 20t-20 55v575
q0 34 20 54t52 20q26 0 41 -11t32 -32l317 -413h2v381q0 35 20 55t52 20t52 -20t20 -55v-574q0 -35 -19.5 -55t-52.5 -20q-24 0 -40.5 12t-36.5 38l-313 408h-2v-383q0 -35 -19.5 -55t-52.5 -20z" />
    <glyph glyph-name="ncaron" unicode="&#x148;" 
d="M271 594q-5 0 -17 4t-23 8l-105 47q-26 12 -37 27t-11 42q0 22 14 38t34 16q14 0 28.5 -5.5t22.5 -9.5l94 -43l87 40q22 11 34 14.5t24 3.5q20 0 34.5 -16t14.5 -38q0 -31 -12.5 -44t-29.5 -21l-92 -42q-22 -10 -37 -15.5t-23 -5.5zM112 -6q-31 0 -50.5 21t-19.5 51v400
q0 30 19.5 51t50.5 21q29 0 45.5 -14t21.5 -32l1 -9h2q20 32 53 47.5t82 15.5q89 0 141 -49.5t52 -131.5v-299q0 -29 -19.5 -50.5t-50.5 -21.5q-30 0 -49.5 21.5t-19.5 50.5v264q0 41 -25.5 69t-69.5 28q-43 0 -69 -29t-26 -71v-261q0 -30 -19.5 -51t-49.5 -21z" />
    <glyph glyph-name="napostrophe" unicode="&#x149;" 
d="M23 590q-29 0 -42.5 14t-13.5 34q0 14 4 25.5t6 18.5l26 75q8 24 23.5 32t30.5 8q29 0 45.5 -15t16.5 -38q0 -14 -8 -33l-41 -92q-5 -9 -14.5 -19t-32.5 -10zM112 -6q-31 0 -50.5 21t-19.5 51v400q0 30 19.5 51t50.5 21q29 0 45.5 -14t21.5 -32l1 -9h2q20 32 53 47.5
t82 15.5q89 0 141 -49.5t52 -131.5v-299q0 -29 -19.5 -50.5t-50.5 -21.5q-30 0 -49.5 21.5t-19.5 50.5v264q0 41 -25.5 69t-69.5 28q-43 0 -69 -29t-26 -71v-261q0 -30 -19.5 -51t-49.5 -21z" />
    <glyph glyph-name="Eng" unicode="&#x14a;" horiz-adv-x="681" 
d="M448 -218q-34 0 -66 7.5t-57 21t-39.5 33t-14.5 44.5q0 20 15.5 37.5t35.5 17.5q12 0 26 -6t29 -13t31 -13t33 -6q62 0 62 77v55l-322 436h-2v-410q0 -32 -18.5 -50.5t-48.5 -18.5t-49 19t-19 50v587q0 30 18.5 49t48.5 19q14 -1 32 -9.5t28 -22.5l329 -450h2v413
q0 31 19 50t49 19t49 -20t19 -49v-667q0 -94 -50 -147t-140 -53z" />
    <glyph glyph-name="eng" unicode="&#x14b;" 
d="M319 -218q-34 0 -65.5 7.5t-56.5 21.5t-40 34t-15 45q0 21 14.5 42t37.5 21q14 0 28 -6t29 -13.5t31 -13.5t34 -6q32 0 43.5 22t11.5 60v335q0 40 -25.5 68t-69.5 28q-43 0 -69 -28.5t-26 -71.5v-261q0 -30 -19.5 -51t-49.5 -21q-31 0 -50.5 21t-19.5 51v400
q0 30 19.5 51t50.5 21q29 0 45.5 -14t21.5 -32l1 -9h2q20 32 53 47.5t82 15.5q44 0 80 -13t61 -37t38.5 -57t13.5 -74v-374q0 -107 -50.5 -158t-140.5 -51z" />
    <glyph glyph-name="Omacron" unicode="&#x14c;" horiz-adv-x="730" 
d="M248 787q-25 0 -41 15.5t-16 42.5t16 42.5t41 15.5h234q26 0 42 -15.5t16 -42.5q0 -28 -16 -43t-42 -15h-234zM365 -14q-77 0 -140 27t-107.5 76t-68.5 117t-24 150q0 84 24.5 152.5t69.5 116.5t107.5 74.5t138.5 26.5q77 0 140 -27t107.5 -75.5t69 -116.5t24.5 -151
q0 -81 -23.5 -149t-68 -117t-107.5 -76.5t-142 -27.5zM366 119q45 0 79.5 18t58 49.5t35.5 74.5t12 94t-12 95t-35.5 75.5t-58.5 49.5t-81 18q-43 0 -77 -17t-58 -48.5t-36.5 -75t-12.5 -96.5q0 -51 12.5 -94.5t36 -75t58 -49.5t79.5 -18z" />
    <glyph glyph-name="omacron" unicode="&#x14d;" 
d="M162 623q-25 0 -41 15t-16 42t16 42.5t41 15.5h234q26 0 42 -15.5t16 -42.5q0 -28 -16 -42.5t-42 -14.5h-234zM276 -14q-57 0 -104.5 21.5t-81 59t-52 88.5t-18.5 111t18.5 111t52.5 88.5t81 59t104 21.5q56 0 103 -21t81 -58.5t53 -88.5t19 -112q0 -60 -18.5 -111
t-52 -88.5t-81 -59t-104.5 -21.5zM276 118q54 0 85 41.5t31 106.5q0 64 -30.5 106t-86.5 42q-53 0 -84 -41.5t-31 -106.5t31 -106.5t85 -41.5z" />
    <glyph glyph-name="Obreve" unicode="&#x14e;" horiz-adv-x="730" 
d="M365 750q-36 0 -68 11t-55 30t-36.5 44.5t-13.5 55.5q0 26 12.5 42t38.5 16q18 0 30 -12.5t22 -35.5q11 -26 26.5 -39t43.5 -13q29 0 44 13t26 38q10 24 22 36.5t30 12.5q26 0 38.5 -16t12.5 -42q0 -30 -13.5 -55.5t-36.5 -44.5t-55 -30t-68 -11zM365 -14q-77 0 -140 27
t-107.5 76t-68.5 117t-24 150q0 84 24.5 152.5t69.5 116.5t107.5 74.5t138.5 26.5q77 0 140 -27t107.5 -75.5t69 -116.5t24.5 -151q0 -81 -23.5 -149t-68 -117t-107.5 -76.5t-142 -27.5zM366 119q45 0 79.5 18t58 49.5t35.5 74.5t12 94t-12 95t-35.5 75.5t-58.5 49.5t-81 18
q-43 0 -77 -17t-58 -48.5t-36.5 -75t-12.5 -96.5q0 -51 12.5 -94.5t36 -75t58 -49.5t79.5 -18z" />
    <glyph glyph-name="obreve" unicode="&#x14f;" 
d="M279 585q-36 0 -68 11t-55 30t-36.5 44.5t-13.5 55.5q0 26 12.5 42t38.5 16q18 0 30 -12.5t22 -35.5q11 -25 26.5 -38t43.5 -13q29 0 44 13t26 38q10 23 22 35.5t30 12.5q26 0 38.5 -16t12.5 -42q0 -30 -13.5 -55.5t-36.5 -44.5t-55 -30t-68 -11zM276 -14
q-57 0 -104.5 21.5t-81 59t-52 88.5t-18.5 111t18.5 111t52.5 88.5t81 59t104 21.5q56 0 103 -21t81 -58.5t53 -88.5t19 -112q0 -60 -18.5 -111t-52 -88.5t-81 -59t-104.5 -21.5zM276 118q54 0 85 41.5t31 106.5q0 64 -30.5 106t-86.5 42q-53 0 -84 -41.5t-31 -106.5
t31 -106.5t85 -41.5z" />
    <glyph glyph-name="Ohungarumlaut" unicode="&#x150;" horiz-adv-x="730" 
d="M207 760q-26 0 -42 17.5t-16 44.5q0 19 9.5 30.5t26.5 19.5l132 57q8 4 19 6.5t22 2.5q28 0 43 -19.5t15 -42.5q0 -36 -35 -50l-130 -56q-26 -10 -44 -10zM513 760q-26 0 -41.5 17.5t-15.5 44.5q0 35 35 50l133 57q8 4 19 6.5t22 2.5q28 0 43 -19.5t15 -42.5
q0 -35 -35 -50l-131 -56q-26 -10 -44 -10zM365 -14q-77 0 -140 27t-107.5 76t-68.5 117t-24 150q0 84 24.5 152.5t69.5 116.5t107.5 74.5t138.5 26.5q77 0 140 -27t107.5 -75.5t69 -116.5t24.5 -151q0 -81 -23.5 -149t-68 -117t-107.5 -76.5t-142 -27.5zM366 119
q45 0 79.5 18t58 49.5t35.5 74.5t12 94t-12 95t-35.5 75.5t-58.5 49.5t-81 18q-43 0 -77 -17t-58 -48.5t-36.5 -75t-12.5 -96.5q0 -51 12.5 -94.5t36 -75t58 -49.5t79.5 -18z" />
    <glyph glyph-name="ohungarumlaut" unicode="&#x151;" 
d="M120 595q-26 0 -42 18t-16 44q0 36 36 50l132 57q8 4 19 6.5t22 2.5q28 0 43 -19.5t15 -42.5q0 -17 -8 -29.5t-27 -20.5l-130 -55q-25 -11 -44 -11zM426 595q-26 0 -41.5 18t-15.5 44q0 36 35 50l133 57q8 4 19 6.5t22 2.5q28 0 43 -19.5t15 -42.5q0 -35 -35 -50
l-131 -55q-25 -11 -44 -11zM276 -14q-57 0 -104.5 21.5t-81 59t-52 88.5t-18.5 111t18.5 111t52.5 88.5t81 59t104 21.5q56 0 103 -21t81 -58.5t53 -88.5t19 -112q0 -60 -18.5 -111t-52 -88.5t-81 -59t-104.5 -21.5zM276 118q54 0 85 41.5t31 106.5q0 64 -30.5 106t-86.5 42
q-53 0 -84 -41.5t-31 -106.5t31 -106.5t85 -41.5z" />
    <glyph glyph-name="OE" unicode="&#x152;" horiz-adv-x="956" 
d="M365 -14q-79 0 -142 27.5t-107 76t-67.5 116.5t-23.5 149q0 83 24 151.5t68.5 117.5t107.5 75.5t141 26.5q54 0 104 -16t88 -54h2l1 18q8 38 57 38h250q30 0 50 -18.5t20 -48.5q0 -32 -19.5 -49t-50.5 -17h-178v-155h164q32 0 51.5 -17.5t19.5 -49.5t-19.5 -49t-51.5 -17
h-164v-158h182q32 0 51.5 -17t19.5 -49q0 -30 -20 -48.5t-50 -18.5h-250q-29 0 -45.5 11.5t-20.5 30.5l-1 19h-2q-42 -43 -88.5 -59t-100.5 -16zM365 119q43 0 76.5 17t57 48t35.5 75t12 97q0 111 -45 174t-137 63q-88 0 -136 -64t-48 -173q0 -108 48 -172.5t137 -64.5z" />
    <glyph glyph-name="oe" unicode="&#x153;" horiz-adv-x="922" 
d="M276 -14q-57 0 -104 21t-81 58.5t-52.5 89t-18.5 111.5q0 59 18.5 110.5t52 89t80.5 59t105 21.5q64 0 109 -19.5t87 -59.5q75 79 181 79q55 0 100.5 -21.5t78 -57.5t50.5 -83t18 -98q0 -38 -15 -52.5t-53 -14.5h-301q3 -46 41 -76t99 -30q33 0 63 11t67 34q19 11 33 11
q24 0 41 -17t17 -43q0 -39 -44 -70q-33 -24 -83.5 -38.5t-106.5 -14.5q-121 0 -194 79q-33 -40 -81.5 -59.5t-106.5 -19.5zM760 316q-1 22 -10 42t-24.5 35.5t-36.5 25t-46 9.5q-21 0 -41 -9t-35.5 -24.5t-25 -35.5t-10.5 -43h229zM276 118q54 0 85 41.5t31 106.5
q0 32 -8 59t-23 46.5t-36.5 31t-49.5 11.5q-53 0 -84 -41.5t-31 -106.5t31 -106.5t85 -41.5z" />
    <glyph glyph-name="Racute" unicode="&#x154;" horiz-adv-x="563" 
d="M210 760q-26 0 -41.5 18t-15.5 44q0 17 7 29.5t28 20.5l145 62q11 5 21 7t19 2q26 0 42 -18.5t16 -42.5q0 -17 -7.5 -30t-28.5 -22l-133 -56q-24 -11 -34 -12.5t-18 -1.5zM116 -6q-32 0 -52 20t-20 55v573q0 30 20.5 50t51.5 20h190q52 0 95 -15.5t73.5 -44t47.5 -68
t17 -87.5q0 -35 -10 -68t-31 -60t-52 -46t-73 -26l-18 -1l162 -174q13 -14 21.5 -28.5t8.5 -33.5q0 -25 -20 -45.5t-53 -20.5q-20 0 -35 6t-33 29l-216 262h-2v-222q0 -35 -19.5 -55t-52.5 -20zM302 400q42 0 67.5 23.5t25.5 65.5q0 43 -27 66.5t-66 23.5h-114v-179h114z
" />
    <glyph glyph-name="racute" unicode="&#x155;" horiz-adv-x="345" 
d="M127 595q-26 0 -41.5 18t-15.5 44q0 17 7.5 29.5t27.5 21.5l145 61q11 5 21 7t20 2q26 0 41.5 -18.5t15.5 -42.5q0 -17 -7.5 -30t-28.5 -21l-132 -57q-25 -11 -35 -12.5t-18 -1.5zM112 -6q-31 0 -50.5 21t-19.5 51v400q0 30 19.5 51t49.5 21t46 -14t21 -32l2 -14h2
q23 32 51 50t58 18q32 0 53 -21t21 -51q0 -11 -2.5 -21.5t-11.5 -19.5t-27 -18t-48 -17q-56 -14 -75.5 -43t-19.5 -79v-210q0 -30 -19.5 -51t-49.5 -21z" />
    <glyph glyph-name="uni0156" unicode="&#x156;" horiz-adv-x="563" 
d="M116 -6q-32 0 -52 20t-20 55v573q0 30 20.5 50t51.5 20h190q52 0 95 -15.5t73.5 -44t47.5 -68t17 -87.5q0 -35 -10 -68t-31 -60t-52 -46t-73 -26l-18 -1l162 -174q13 -14 21.5 -28.5t8.5 -33.5q0 -25 -20 -45.5t-53 -20.5q-20 0 -35 6t-33 29l-216 262h-2v-222
q0 -35 -19.5 -55t-52.5 -20zM302 400q42 0 67.5 23.5t25.5 65.5q0 43 -27 66.5t-66 23.5h-114v-179h114zM216 -213q-23 0 -36 11t-13 30q0 16 11 30l48 75q9 14 21 24.5t33 10.5q29 0 46.5 -15.5t17.5 -36.5q0 -11 -4.5 -19t-12.5 -17l-48 -60q-14 -19 -28 -26t-35 -7z" />
    <glyph glyph-name="uni0157" unicode="&#x157;" horiz-adv-x="345" 
d="M112 -6q-31 0 -50.5 21t-19.5 51v400q0 30 19.5 51t49.5 21t46 -14t21 -32l2 -14h2q23 32 51 50t58 18q32 0 53 -21t21 -51q0 -11 -2.5 -21.5t-11.5 -19.5t-27 -18t-48 -17q-56 -14 -75.5 -43t-19.5 -79v-210q0 -30 -19.5 -51t-49.5 -21zM53 -213q-22 0 -35.5 11
t-13.5 30q0 16 11 30l48 75q9 14 21 24.5t34 10.5q29 0 46 -15.5t17 -36.5q0 -11 -4 -19t-12 -17l-48 -60q-14 -19 -28.5 -26t-35.5 -7z" />
    <glyph glyph-name="Rcaron" unicode="&#x158;" horiz-adv-x="563" 
d="M266 759q-5 0 -17 3.5t-23 8.5l-105 47q-27 12 -38 27t-11 41q0 22 14.5 38t34.5 16q14 0 28.5 -5t22.5 -9l94 -43l87 40q22 11 34 14t24 3q20 0 34.5 -16t14.5 -38q0 -31 -12.5 -44t-29.5 -21l-92 -41q-22 -10 -37 -15.5t-23 -5.5zM116 -6q-32 0 -52 20t-20 55v573
q0 30 20.5 50t51.5 20h190q52 0 95 -15.5t73.5 -44t47.5 -68t17 -87.5q0 -35 -10 -68t-31 -60t-52 -46t-73 -26l-18 -1l162 -174q13 -14 21.5 -28.5t8.5 -33.5q0 -25 -20 -45.5t-53 -20.5q-20 0 -35 6t-33 29l-216 262h-2v-222q0 -35 -19.5 -55t-52.5 -20zM302 400
q42 0 67.5 23.5t25.5 65.5q0 43 -27 66.5t-66 23.5h-114v-179h114z" />
    <glyph glyph-name="rcaron" unicode="&#x159;" horiz-adv-x="345" 
d="M172 594q-5 0 -17 4t-23 8l-105 47q-26 12 -37 27t-11 42q0 22 14 38t34 16q14 0 28.5 -5.5t22.5 -9.5l94 -43l87 40q22 11 34 14.5t24 3.5q20 0 34.5 -16t14.5 -38q0 -31 -12.5 -44t-29.5 -21l-92 -42q-22 -10 -37 -15.5t-23 -5.5zM112 -6q-31 0 -50.5 21t-19.5 51v400
q0 30 19.5 51t49.5 21t46 -14t21 -32l2 -14h2q23 32 51 50t58 18q32 0 53 -21t21 -51q0 -11 -2.5 -21.5t-11.5 -19.5t-27 -18t-48 -17q-56 -14 -75.5 -43t-19.5 -79v-210q0 -30 -19.5 -51t-49.5 -21z" />
    <glyph glyph-name="Sacute" unicode="&#x15a;" horiz-adv-x="522" 
d="M203 760q-26 0 -42 18t-16 44q0 17 7.5 29.5t28.5 20.5l145 62q11 5 20.5 7t19.5 2q26 0 42 -18.5t16 -42.5q0 -17 -7.5 -30t-28.5 -22l-133 -56q-24 -11 -34 -12.5t-18 -1.5zM239 -14q-51 0 -99.5 11t-81.5 31q-23 14 -36.5 31.5t-13.5 37.5q0 30 18.5 52.5t49.5 22.5
q8 0 18.5 -2.5t22.5 -7.5q26 -11 57.5 -22t70.5 -11q50 0 76.5 22.5t26.5 60.5q0 32 -25.5 51.5t-77.5 36.5q-47 15 -88 30.5t-71.5 38t-48 55.5t-17.5 84q0 52 19 92.5t52 68.5t78 42.5t97 14.5q40 0 75 -7.5t60 -19.5q59 -28 59 -74q0 -30 -18 -49.5t-46 -19.5
q-10 0 -18.5 2t-16.5 4q-23 8 -45.5 17t-56.5 9q-37 0 -61 -18.5t-24 -50.5q0 -29 27 -44t80 -33q52 -17 93 -35t69 -42.5t43 -59t15 -85.5q0 -55 -18.5 -98.5t-52.5 -73.5t-82.5 -46t-108.5 -16z" />
    <glyph glyph-name="sacute" unicode="&#x15b;" horiz-adv-x="430" 
d="M161 595q-26 0 -42 18t-16 44q0 17 7.5 29.5t28.5 21.5l145 61q11 5 20.5 7t19.5 2q26 0 42 -18.5t16 -42.5q0 -17 -7.5 -30t-28.5 -21l-133 -57q-24 -11 -34 -12.5t-18 -1.5zM216 -14q-51 0 -94 12.5t-72 33.5q-17 12 -27.5 27.5t-10.5 32.5q0 29 17.5 48.5t40.5 19.5
q19 0 42 -14q24 -13 51 -25.5t59 -12.5q30 0 44.5 13t14.5 30q0 21 -19 33.5t-47 23t-61 22t-61 30t-47 46t-19 70.5q0 35 14.5 65.5t40.5 54t61.5 37t77.5 13.5q37 0 72.5 -8.5t61.5 -25.5q21 -14 34.5 -31.5t13.5 -39.5q0 -28 -17 -44t-42 -16q-8 0 -18 4t-21 9
q-20 10 -43 20t-46 10t-38 -11t-15 -31q0 -17 18.5 -29t47 -22.5t61 -23t61 -31.5t47 -47.5t18.5 -71.5q0 -39 -15 -70.5t-42 -54t-63.5 -34.5t-79.5 -12z" />
    <glyph glyph-name="Scircumflex" unicode="&#x15c;" horiz-adv-x="522" 
d="M118 759q-20 0 -34 16t-14 38q0 27 11 41.5t37 26.5l105 47q11 5 23 8.5t17 3.5q8 0 23 -5.5t37 -15.5l92 -41q17 -8 29.5 -21t12.5 -44q0 -22 -14.5 -38t-34.5 -16q-12 0 -24 3.5t-34 13.5l-87 40l-94 -43q-8 -4 -22.5 -9t-28.5 -5zM239 -14q-51 0 -99.5 11t-81.5 31
q-23 14 -36.5 31.5t-13.5 37.5q0 30 18.5 52.5t49.5 22.5q8 0 18.5 -2.5t22.5 -7.5q26 -11 57.5 -22t70.5 -11q50 0 76.5 22.5t26.5 60.5q0 32 -25.5 51.5t-77.5 36.5q-47 15 -88 30.5t-71.5 38t-48 55.5t-17.5 84q0 52 19 92.5t52 68.5t78 42.5t97 14.5q40 0 75 -7.5
t60 -19.5q59 -28 59 -74q0 -30 -18 -49.5t-46 -19.5q-10 0 -18.5 2t-16.5 4q-23 8 -45.5 17t-56.5 9q-37 0 -61 -18.5t-24 -50.5q0 -29 27 -44t80 -33q52 -17 93 -35t69 -42.5t43 -59t15 -85.5q0 -55 -18.5 -98.5t-52.5 -73.5t-82.5 -46t-108.5 -16z" />
    <glyph glyph-name="scircumflex" unicode="&#x15d;" horiz-adv-x="430" 
d="M68 594q-20 0 -34 16t-14 38q0 27 11 41.5t37 26.5l105 47q11 5 23 9t17 4q8 0 23 -6t37 -16l92 -41q17 -8 29.5 -21t12.5 -44q0 -22 -14.5 -38t-34.5 -16q-12 0 -24 3.5t-34 13.5l-87 40l-94 -43q-8 -4 -22.5 -9t-28.5 -5zM216 -14q-51 0 -94 12.5t-72 33.5
q-17 12 -27.5 27.5t-10.5 32.5q0 29 17.5 48.5t40.5 19.5q19 0 42 -14q24 -13 51 -25.5t59 -12.5q30 0 44.5 13t14.5 30q0 21 -19 33.5t-47 23t-61 22t-61 30t-47 46t-19 70.5q0 35 14.5 65.5t40.5 54t61.5 37t77.5 13.5q37 0 72.5 -8.5t61.5 -25.5q21 -14 34.5 -31.5
t13.5 -39.5q0 -28 -17 -44t-42 -16q-8 0 -18 4t-21 9q-20 10 -43 20t-46 10t-38 -11t-15 -31q0 -17 18.5 -29t47 -22.5t61 -23t61 -31.5t47 -47.5t18.5 -71.5q0 -39 -15 -70.5t-42 -54t-63.5 -34.5t-79.5 -12z" />
    <glyph glyph-name="Scedilla" unicode="&#x15e;" horiz-adv-x="522" 
d="M238 -213q-42 0 -68.5 11t-26.5 34q0 11 7.5 21.5t20.5 10.5q12 0 25.5 -7.5t30.5 -7.5q14 0 23.5 8.5t9.5 22.5q0 12 -8.5 20t-29.5 8h-12q-25 0 -25 20q0 15 21 43l13 16q-48 2 -90.5 13t-71.5 29q-23 14 -36 31t-13 37q0 30 18.5 52.5t49.5 22.5q16 0 41 -11
q26 -11 59 -21.5t69 -10.5q48 0 75.5 23.5t27.5 60.5q0 32 -26 51t-77 36q-47 15 -88 30.5t-71.5 38t-48 55.5t-17.5 84q0 52 19 92.5t52 68.5t78 42.5t97 14.5q38 0 71 -6.5t58 -17.5q31 -14 48 -33t17 -44q0 -30 -18 -49.5t-46 -19.5q-10 0 -18.5 2t-16.5 4
q-23 8 -45.5 17t-56.5 9q-37 0 -61 -18.5t-24 -50.5q0 -29 27 -44t80 -33q50 -17 91 -34t69.5 -41t44 -58.5t15.5 -86.5q0 -100 -57.5 -161t-157.5 -72l-28 -38l1 -2q12 3 22 3q33 0 55.5 -19.5t22.5 -56.5q0 -21 -10.5 -37.5t-27.5 -28t-38.5 -17.5t-44.5 -6z" />
    <glyph glyph-name="scedilla" unicode="&#x15f;" horiz-adv-x="430" 
d="M204 -213q-42 0 -68 11t-26 34q0 11 7.5 21.5t19.5 10.5t26 -7.5t31 -7.5q13 0 22.5 8.5t9.5 22.5q0 12 -8.5 20t-28.5 8h-13q-25 0 -25 20q0 7 5 17.5t17 25.5l13 16q-42 4 -77 16t-59 29q-17 12 -27.5 27.5t-10.5 32.5q0 29 17.5 48.5t40.5 19.5q19 0 42 -14
q24 -13 51 -25.5t59 -12.5q30 0 44.5 13t14.5 30q0 21 -19 33.5t-47 23t-61 22t-61 30t-47 46t-19 70.5q0 35 14.5 65.5t40.5 54t61.5 37t77.5 13.5q37 0 72.5 -8.5t61.5 -25.5q21 -14 34.5 -31.5t13.5 -39.5q0 -28 -17 -44t-42 -16q-8 0 -18 4t-21 9q-20 10 -43 20t-46 10
t-38 -11t-15 -31q0 -17 18.5 -29t47 -22.5t61 -23t61 -31.5t47 -47.5t18.5 -71.5q0 -70 -46 -114.5t-118 -53.5l-28 -38l1 -2q12 3 22 3q33 0 55.5 -19.5t22.5 -56.5q0 -21 -10.5 -37.5t-27.5 -28t-38.5 -17.5t-44.5 -6z" />
    <glyph glyph-name="Scaron" unicode="&#x160;" horiz-adv-x="522" 
d="M261 759q-5 0 -17 3.5t-23 8.5l-105 47q-26 12 -37 27t-11 41q0 22 14 38t34 16q15 0 29 -5t22 -9l94 -43l87 40q22 11 34 14t25 3q20 0 34 -16t14 -38q0 -31 -12 -44t-30 -21l-92 -41q-21 -10 -36.5 -15.5t-23.5 -5.5zM239 -14q-51 0 -99.5 11t-81.5 31
q-23 14 -36.5 31.5t-13.5 37.5q0 30 18.5 52.5t49.5 22.5q8 0 18.5 -2.5t22.5 -7.5q26 -11 57.5 -22t70.5 -11q50 0 76.5 22.5t26.5 60.5q0 32 -25.5 51.5t-77.5 36.5q-47 15 -88 30.5t-71.5 38t-48 55.5t-17.5 84q0 52 19 92.5t52 68.5t78 42.5t97 14.5q40 0 75 -7.5
t60 -19.5q59 -28 59 -74q0 -30 -18 -49.5t-46 -19.5q-10 0 -18.5 2t-16.5 4q-23 8 -45.5 17t-56.5 9q-37 0 -61 -18.5t-24 -50.5q0 -29 27 -44t80 -33q52 -17 93 -35t69 -42.5t43 -59t15 -85.5q0 -55 -18.5 -98.5t-52.5 -73.5t-82.5 -46t-108.5 -16z" />
    <glyph glyph-name="scaron" unicode="&#x161;" horiz-adv-x="430" 
d="M215 594q-5 0 -17.5 4t-22.5 8l-106 47q-26 12 -37 27t-11 42q0 22 14.5 38t34.5 16q14 0 28.5 -5.5t22.5 -9.5l94 -43l87 40q22 11 34 14.5t24 3.5q20 0 34 -16t14 -38q0 -31 -12 -44t-29 -21l-92 -42q-22 -10 -37 -15.5t-23 -5.5zM216 -14q-51 0 -94 12.5t-72 33.5
q-17 12 -27.5 27.5t-10.5 32.5q0 29 17.5 48.5t40.5 19.5q19 0 42 -14q24 -13 51 -25.5t59 -12.5q30 0 44.5 13t14.5 30q0 21 -19 33.5t-47 23t-61 22t-61 30t-47 46t-19 70.5q0 35 14.5 65.5t40.5 54t61.5 37t77.5 13.5q37 0 72.5 -8.5t61.5 -25.5q21 -14 34.5 -31.5
t13.5 -39.5q0 -28 -17 -44t-42 -16q-8 0 -18 4t-21 9q-20 10 -43 20t-46 10t-38 -11t-15 -31q0 -17 18.5 -29t47 -22.5t61 -23t61 -31.5t47 -47.5t18.5 -71.5q0 -39 -15 -70.5t-42 -54t-63.5 -34.5t-79.5 -12z" />
    <glyph glyph-name="uni0162" unicode="&#x162;" horiz-adv-x="456" 
d="M228 -6q-32 0 -52 20t-20 55v510h-103q-32 0 -52 17.5t-20 48.5q0 32 20 49.5t52 17.5h350q32 0 52 -17.5t20 -49.5q0 -31 -20 -48.5t-52 -17.5h-103v-510q0 -35 -20 -55t-52 -20zM168 -213q-23 0 -36 11t-13 30q0 16 11 30l48 75q9 14 21 24.5t33 10.5q29 0 46.5 -15.5
t17.5 -36.5q0 -11 -4.5 -19t-12.5 -17l-48 -60q-14 -19 -28 -26t-35 -7z" />
    <glyph glyph-name="uni0163" unicode="&#x163;" horiz-adv-x="330" 
d="M155 -6q-30 0 -49.5 21t-19.5 51v339h-18q-41 0 -59.5 15.5t-18.5 47.5q0 64 77 64h19v107q0 30 19.5 51t49.5 21q31 0 50.5 -21t19.5 -51v-107h46q30 0 49.5 -15t19.5 -49q0 -33 -19.5 -48t-49.5 -15h-46v-339q0 -30 -19.5 -51t-50.5 -21zM86 -213q-23 0 -36 11t-13 30
q0 16 11 30l48 75q9 14 21 24.5t34 10.5q29 0 46 -15.5t17 -36.5q0 -11 -4 -19t-12 -17l-48 -60q-15 -19 -29 -26t-35 -7z" />
    <glyph glyph-name="Tcaron" unicode="&#x164;" horiz-adv-x="456" 
d="M228 759q-5 0 -17 3.5t-23 8.5l-105 47q-26 12 -37 27t-11 41q0 22 14 38t34 16q14 0 28.5 -5t22.5 -9l94 -43l87 40q22 11 34 14t24 3q20 0 34.5 -16t14.5 -38q0 -31 -12.5 -44t-29.5 -21l-92 -41q-22 -10 -37 -15.5t-23 -5.5zM228 -6q-32 0 -52 20t-20 55v510h-103
q-32 0 -52 17.5t-20 48.5q0 32 20 49.5t52 17.5h350q32 0 52 -17.5t20 -49.5q0 -31 -20 -48.5t-52 -17.5h-103v-510q0 -35 -20 -55t-52 -20z" />
    <glyph glyph-name="tcaron" unicode="&#x165;" horiz-adv-x="330" 
d="M317 590q-29 0 -42.5 14t-13.5 34q0 14 4 25.5t6 18.5l26 75q8 24 23.5 32t30.5 8q29 0 45.5 -15t16.5 -38q0 -14 -8 -33l-41 -92q-5 -9 -14.5 -19t-32.5 -10zM155 -6q-30 0 -49.5 21t-19.5 51v339h-18q-41 0 -59.5 15.5t-18.5 47.5q0 64 77 64h19v107q0 30 19.5 51
t49.5 21q31 0 50.5 -21t19.5 -51v-107h46q30 0 49.5 -15t19.5 -49q0 -33 -19.5 -48t-49.5 -15h-46v-339q0 -30 -19.5 -51t-50.5 -21z" />
    <glyph glyph-name="Tbar" unicode="&#x166;" horiz-adv-x="456" 
d="M228 -6q-32 0 -52 20t-20 55v282h-64q-26 0 -41.5 15.5t-15.5 41.5t15.5 41.5t41.5 15.5h64v114h-103q-32 0 -52 17.5t-20 48.5q0 32 20 49.5t52 17.5h350q32 0 52 -17.5t20 -49.5q0 -31 -20 -48.5t-52 -17.5h-103v-114h64q27 0 42.5 -15.5t15.5 -41.5t-15.5 -41.5
t-42.5 -15.5h-64v-282q0 -35 -20 -55t-52 -20z" />
    <glyph glyph-name="tbar" unicode="&#x167;" horiz-adv-x="314" 
d="M147 -6q-30 0 -49.5 21t-19.5 51v178h-41q-25 0 -40 15t-15 41t15 41.5t41 15.5h40v48h-22q-74 0 -74 63q0 64 74 64h22v107q0 30 19.5 51t49.5 21q31 0 50.5 -21t19.5 -51v-107h46q30 0 49.5 -15t19.5 -49q0 -33 -19.5 -48t-49.5 -15h-46v-48h60q25 0 40 -15.5t15 -41.5
t-15 -41t-40 -15h-60v-178q0 -30 -19.5 -51t-50.5 -21z" />
    <glyph glyph-name="Utilde" unicode="&#x168;" horiz-adv-x="681" 
d="M426 766q-20 0 -39.5 5.5t-37.5 12.5t-34 12.5t-28 5.5q-11 0 -19 -5.5t-15 -12t-14.5 -12t-18.5 -5.5q-18 0 -30.5 11.5t-12.5 34.5q0 16 7 31t18 26.5t25.5 18.5t30.5 7q20 0 39 -5.5t37 -12.5t33.5 -12.5t28.5 -5.5q11 0 19 5.5t15 12.5t14.5 12.5t17.5 5.5
q20 0 31.5 -14t11.5 -34q0 -16 -6.5 -30.5t-17.5 -26t-25.5 -18.5t-29.5 -7zM341 -14q-68 0 -123.5 21.5t-95 59.5t-61 90.5t-21.5 115.5v370q0 35 20 55t52 20q33 0 52.5 -20t19.5 -55v-367q0 -33 11.5 -61t32 -48.5t49 -31.5t63.5 -11t64 11t49.5 31.5t32 48.5t11.5 61
v367q0 35 19.5 55t52.5 20q32 0 52 -20t20 -55v-370q0 -63 -21.5 -115.5t-61 -91t-94.5 -59.5t-123 -21z" />
    <glyph glyph-name="utilde" unicode="&#x169;" 
d="M361 586q-20 0 -39.5 5.5t-37.5 12.5t-34 12.5t-28 5.5q-11 0 -19 -5.5t-15 -12t-14.5 -12t-18.5 -5.5q-18 0 -30.5 11.5t-12.5 34.5q0 16 7 31t18 26.5t25.5 18.5t30.5 7q20 0 39 -5.5t37 -12.5t33.5 -12.5t28.5 -5.5q11 0 19 5.5t15 12.5t14.5 12.5t17.5 5.5
q20 0 31.5 -14t11.5 -34q0 -16 -6.5 -30.5t-17.5 -26t-25.5 -18.5t-29.5 -7zM276 -14q-53 0 -96.5 14t-74 40t-47 62.5t-16.5 82.5v281q0 30 19.5 51t50.5 21q30 0 49.5 -21t19.5 -51v-259q0 -42 26.5 -68t68.5 -26t68.5 26t26.5 68v259q0 29 19.5 50.5t49.5 21.5
q31 0 50.5 -21.5t19.5 -50.5v-281q0 -45 -16.5 -81.5t-47 -62.5t-73.5 -40.5t-97 -14.5z" />
    <glyph glyph-name="Umacron" unicode="&#x16a;" horiz-adv-x="681" 
d="M227 787q-25 0 -41 15.5t-16 42.5t16 42.5t41 15.5h234q26 0 42 -15.5t16 -42.5q0 -28 -16 -43t-42 -15h-234zM341 -14q-68 0 -123.5 21.5t-95 59.5t-61 90.5t-21.5 115.5v370q0 35 20 55t52 20q33 0 52.5 -20t19.5 -55v-367q0 -33 11.5 -61t32 -48.5t49 -31.5t63.5 -11
t64 11t49.5 31.5t32 48.5t11.5 61v367q0 35 19.5 55t52.5 20q32 0 52 -20t20 -55v-370q0 -63 -21.5 -115.5t-61 -91t-94.5 -59.5t-123 -21z" />
    <glyph glyph-name="umacron" unicode="&#x16b;" 
d="M162 623q-25 0 -41 15t-16 42t16 42.5t41 15.5h234q26 0 42 -15.5t16 -42.5q0 -28 -16 -42.5t-42 -14.5h-234zM276 -14q-53 0 -96.5 14t-74 40t-47 62.5t-16.5 82.5v281q0 30 19.5 51t50.5 21q30 0 49.5 -21t19.5 -51v-259q0 -42 26.5 -68t68.5 -26t68.5 26t26.5 68v259
q0 29 19.5 50.5t49.5 21.5q31 0 50.5 -21.5t19.5 -50.5v-281q0 -45 -16.5 -81.5t-47 -62.5t-73.5 -40.5t-97 -14.5z" />
    <glyph glyph-name="Ubreve" unicode="&#x16c;" horiz-adv-x="681" 
d="M344 750q-36 0 -68 11t-55 30t-36.5 44.5t-13.5 55.5q0 26 12.5 42t38.5 16q18 0 30 -12.5t22 -35.5q11 -26 26.5 -39t43.5 -13q29 0 44 13t26 38q10 24 22 36.5t30 12.5q26 0 38.5 -16t12.5 -42q0 -30 -13.5 -55.5t-36.5 -44.5t-55 -30t-68 -11zM341 -14
q-68 0 -123.5 21.5t-95 59.5t-61 90.5t-21.5 115.5v370q0 35 20 55t52 20q33 0 52.5 -20t19.5 -55v-367q0 -33 11.5 -61t32 -48.5t49 -31.5t63.5 -11t64 11t49.5 31.5t32 48.5t11.5 61v367q0 35 19.5 55t52.5 20q32 0 52 -20t20 -55v-370q0 -63 -21.5 -115.5t-61 -91
t-94.5 -59.5t-123 -21z" />
    <glyph glyph-name="ubreve" unicode="&#x16d;" 
d="M279 585q-36 0 -68 11t-55 30t-36.5 44.5t-13.5 55.5q0 26 12.5 42t38.5 16q18 0 30 -12.5t22 -35.5q11 -25 26.5 -38t43.5 -13q29 0 44 13t26 38q10 23 22 35.5t30 12.5q26 0 38.5 -16t12.5 -42q0 -30 -13.5 -55.5t-36.5 -44.5t-55 -30t-68 -11zM276 -14q-53 0 -96.5 14
t-74 40t-47 62.5t-16.5 82.5v281q0 30 19.5 51t50.5 21q30 0 49.5 -21t19.5 -51v-259q0 -42 26.5 -68t68.5 -26t68.5 26t26.5 68v259q0 29 19.5 50.5t49.5 21.5q31 0 50.5 -21.5t19.5 -50.5v-281q0 -45 -16.5 -81.5t-47 -62.5t-73.5 -40.5t-97 -14.5z" />
    <glyph glyph-name="Uring" unicode="&#x16e;" horiz-adv-x="681" 
d="M344 746q-20 0 -38 8t-31.5 21t-21 31t-7.5 37q0 20 8 37.5t21.5 31t31 21.5t37.5 8t37.5 -8t31 -21.5t21.5 -31t8 -37.5q0 -19 -7.5 -37t-21 -31t-31 -21t-38.5 -8zM344 797q19 0 32.5 14t13.5 32q0 19 -14 33t-33 14q-18 0 -31.5 -14t-13.5 -33q0 -17 13.5 -31.5
t32.5 -14.5zM341 -14q-68 0 -123.5 21.5t-95 59.5t-61 90.5t-21.5 115.5v370q0 35 20 55t52 20q33 0 52.5 -20t19.5 -55v-367q0 -33 11.5 -61t32 -48.5t49 -31.5t63.5 -11t64 11t49.5 31.5t32 48.5t11.5 61v367q0 35 19.5 55t52.5 20q32 0 52 -20t20 -55v-370
q0 -63 -21.5 -115.5t-61 -91t-94.5 -59.5t-123 -21z" />
    <glyph glyph-name="uring" unicode="&#x16f;" 
d="M279 572q-19 0 -37 7.5t-31.5 20.5t-21.5 31t-8 38t8 38t21.5 31.5t31 21t37.5 7.5t38 -8t31.5 -21.5t21 -31t7.5 -37.5t-7.5 -37.5t-21 -31t-31.5 -21t-38 -7.5zM279 623q19 0 32.5 14t13.5 32q0 19 -14 33t-33 14q-18 0 -31.5 -14t-13.5 -33q0 -18 13.5 -32t32.5 -14z
M276 -14q-53 0 -96.5 14t-74 40t-47 62.5t-16.5 82.5v281q0 30 19.5 51t50.5 21q30 0 49.5 -21t19.5 -51v-259q0 -42 26.5 -68t68.5 -26t68.5 26t26.5 68v259q0 29 19.5 50.5t49.5 21.5q31 0 50.5 -21.5t19.5 -50.5v-281q0 -45 -16.5 -81.5t-47 -62.5t-73.5 -40.5t-97 -14.5
z" />
    <glyph glyph-name="Uhungarumlaut" unicode="&#x170;" horiz-adv-x="681" 
d="M185 760q-26 0 -41.5 17.5t-15.5 44.5q0 35 35 50l133 57q8 4 19 6.5t22 2.5q28 0 43 -19.5t15 -42.5q0 -35 -35 -50l-131 -56q-26 -10 -44 -10zM492 760q-26 0 -42 17.5t-16 44.5q0 19 9 30.5t26 19.5l133 57q8 4 19 6.5t22 2.5q28 0 43 -19.5t15 -42.5q0 -35 -35 -50
l-131 -56q-26 -10 -43 -10zM341 -14q-68 0 -123.5 21.5t-95 59.5t-61 90.5t-21.5 115.5v370q0 35 20 55t52 20q33 0 52.5 -20t19.5 -55v-367q0 -33 11.5 -61t32 -48.5t49 -31.5t63.5 -11t64 11t49.5 31.5t32 48.5t11.5 61v367q0 35 19.5 55t52.5 20q32 0 52 -20t20 -55v-370
q0 -63 -21.5 -115.5t-61 -91t-94.5 -59.5t-123 -21z" />
    <glyph glyph-name="uhungarumlaut" unicode="&#x171;" 
d="M114 595q-26 0 -41.5 18t-15.5 44q0 36 35 50l133 57q8 4 19 6.5t22 2.5q28 0 43 -19.5t15 -42.5q0 -35 -35 -50l-131 -55q-25 -11 -44 -11zM421 595q-26 0 -42 18t-16 44q0 36 35 50l133 57q8 4 19 6.5t22 2.5q28 0 43 -19.5t15 -42.5q0 -35 -35 -50l-131 -55
q-14 -6 -24.5 -8.5t-18.5 -2.5zM276 -14q-53 0 -96.5 14t-74 40t-47 62.5t-16.5 82.5v281q0 30 19.5 51t50.5 21q30 0 49.5 -21t19.5 -51v-259q0 -42 26.5 -68t68.5 -26t68.5 26t26.5 68v259q0 29 19.5 50.5t49.5 21.5q31 0 50.5 -21.5t19.5 -50.5v-281q0 -45 -16.5 -81.5
t-47 -62.5t-73.5 -40.5t-97 -14.5z" />
    <glyph glyph-name="Uogonek" unicode="&#x172;" horiz-adv-x="681" 
d="M326 -213q-44 0 -67.5 21.5t-23.5 58.5q0 35 23 66t59 54q-63 4 -114 26.5t-87.5 60.5t-56 88.5t-19.5 110.5v370q0 35 20 55t52 20q33 0 52.5 -20t19.5 -55v-367q0 -33 11.5 -61t32 -48.5t49 -31.5t63.5 -11t64 11t49.5 31.5t32 48.5t11.5 61v367q0 35 19.5 55t52.5 20
q32 0 52 -20t20 -55v-370q0 -56 -17 -103.5t-48 -84.5t-75 -61t-99 -33q-29 -22 -48 -48t-19 -46q0 -37 33 -37q12 0 22 4t19 4q22 0 22 -27q0 -22 -22 -35q-30 -19 -83 -19z" />
    <glyph glyph-name="uogonek" unicode="&#x173;" 
d="M258 -213q-43 0 -67 21.5t-24 58.5q0 35 23.5 66t59.5 54q-96 7 -152 59t-56 139v281q0 30 19.5 51t50.5 21q30 0 49.5 -21t19.5 -51v-259q0 -42 26.5 -68t68.5 -26t68.5 26t26.5 68v259q0 29 19.5 50.5t49.5 21.5q31 0 50.5 -21.5t19.5 -50.5v-281q0 -77 -46.5 -128.5
t-129.5 -65.5q-29 -22 -48 -48t-19 -46q0 -37 34 -37q11 0 21.5 4t18.5 4q23 0 23 -27q0 -22 -26 -37q-29 -17 -80 -17z" />
    <glyph glyph-name="Wcircumflex" unicode="&#x174;" horiz-adv-x="890" 
d="M300 759q-20 0 -34.5 16t-14.5 38q0 27 11 41.5t38 26.5l105 47q11 5 23 8.5t17 3.5q8 0 23 -5.5t37 -15.5l92 -41q17 -8 29.5 -21t12.5 -44q0 -22 -14.5 -38t-34.5 -16q-12 0 -24 3.5t-34 13.5l-87 40l-94 -43q-8 -4 -22.5 -9t-28.5 -5zM226 -6q-28 0 -45 7.5
t-28.5 23.5t-18.5 39.5t-15 54.5l-99 439q-2 7 -5 19t-6 25t-5 25.5t-2 21.5q0 31 21 50t51 19q62 0 76 -68l84 -425h2l127 416q14 43 33 60t49 17q58 0 80 -73l128 -420h2l84 420q9 42 28.5 57.5t48.5 15.5q31 0 51 -19.5t20 -49.5q0 -17 -7 -48l-115 -502q-15 -59 -36 -82
t-66 -23q-42 0 -66.5 21t-36.5 59l-114 374h-2l-114 -373q-12 -38 -37 -59.5t-67 -21.5z" />
    <glyph glyph-name="wcircumflex" unicode="&#x175;" horiz-adv-x="756" 
d="M234 594q-20 0 -34 16t-14 38q0 27 11 41.5t37 26.5l105 47q11 5 23 9t17 4q8 0 23 -6t37 -16l92 -41q17 -8 29.5 -21t12.5 -44q0 -22 -14.5 -38t-34.5 -16q-12 0 -24 3.5t-34 13.5l-87 40l-94 -43q-8 -4 -22.5 -9t-28.5 -5zM222 -6q-37 0 -56.5 18.5t-30.5 49.5
l-116 329q-12 33 -17 50.5t-5 30.5q0 27 18.5 46.5t51.5 19.5q26 0 43 -13t23 -33l87 -286h2l88 276q8 26 25 41t43 15q23 0 41.5 -14t33.5 -61l81 -257h2l85 280q16 52 68 52q33 0 51.5 -19.5t18.5 -46.5q0 -9 -4 -23.5t-9.5 -31.5t-12 -34.5t-11.5 -31.5l-97 -279
q-14 -38 -31.5 -58t-58.5 -20q-32 0 -50 15.5t-32 57.5l-74 226h-2l-75 -229q-11 -32 -27 -51t-53 -19z" />
    <glyph glyph-name="Ycircumflex" unicode="&#x176;" horiz-adv-x="527" 
d="M117 759q-20 0 -34.5 16t-14.5 38q0 27 11 41.5t38 26.5l105 47q11 5 23 8.5t17 3.5q8 0 23 -5.5t37 -15.5l92 -41q17 -8 29.5 -21t12.5 -44q0 -22 -14.5 -38t-34.5 -16q-12 0 -24 3.5t-34 13.5l-87 40l-94 -43q-8 -4 -22.5 -9t-28.5 -5zM263 -6q-32 0 -52 20t-20 55v266
l-146 209q-31 42 -45.5 66t-14.5 45q0 27 21.5 45t53.5 18q16 0 28 -6t21 -14.5t16 -18.5t13 -18l125 -186l129 192q25 36 42 43.5t33 7.5q32 0 53.5 -18t21.5 -45q0 -20 -13 -42.5t-44 -64.5l-150 -213v-266q0 -35 -19.5 -55t-52.5 -20z" />
    <glyph glyph-name="ycircumflex" unicode="&#x177;" horiz-adv-x="485" 
d="M98 594q-20 0 -34.5 16t-14.5 38q0 27 11 41.5t37 26.5l106 47q10 5 22.5 9t17.5 4q8 0 23 -6t37 -16l92 -41q17 -8 29 -21t12 -44q0 -22 -14 -38t-34 -16q-12 0 -24 3.5t-34 13.5l-87 40l-94 -43q-8 -4 -22.5 -9t-28.5 -5zM160 -221q-32 0 -50 19t-18 44q0 17 7 36
t16 39l54 126l-138 345q-3 7 -7.5 18.5t-9.5 24.5t-8.5 24.5t-3.5 17.5q0 29 19.5 47t48.5 18q19 0 38.5 -10t33.5 -45l98 -265h2l95 247q28 73 75 73q32 0 51.5 -19t19.5 -51q0 -12 -6.5 -31.5t-17.5 -45.5l-223 -547q-18 -41 -34 -53t-42 -12z" />
    <glyph glyph-name="Ydieresis" unicode="&#x178;" horiz-adv-x="527" 
d="M153 774q-30 0 -51 21.5t-21 50.5q0 30 21 51.5t51 21.5t51 -21.5t21 -51.5q0 -29 -21 -50.5t-51 -21.5zM374 774q-30 0 -51 21.5t-21 50.5q0 30 21 51.5t51 21.5t51 -21.5t21 -51.5q0 -29 -21 -50.5t-51 -21.5zM263 -6q-32 0 -52 20t-20 55v266l-146 209
q-31 42 -45.5 66t-14.5 45q0 27 21.5 45t53.5 18q16 0 28 -6t21 -14.5t16 -18.5t13 -18l125 -186l129 192q25 36 42 43.5t33 7.5q32 0 53.5 -18t21.5 -45q0 -20 -13 -42.5t-44 -64.5l-150 -213v-266q0 -35 -19.5 -55t-52.5 -20z" />
    <glyph glyph-name="Zacute" unicode="&#x179;" horiz-adv-x="573" 
d="M190 755q-27 0 -42.5 18t-15.5 44q0 17 7.5 29.5t27.5 20.5l145 62q11 5 21 7t20 2q26 0 41.5 -18.5t15.5 -42.5q0 -17 -7.5 -30t-27.5 -22l-133 -56q-24 -11 -34 -12.5t-18 -1.5zM112 0q-48 0 -73.5 18.5t-25.5 60.5q0 17 7 33t22 36l317 436h-260q-35 0 -55 17.5
t-20 46.5t20 46.5t54 17.5h364q41 0 62 -19t21 -51t-37 -82l-310 -427h288q34 0 54 -17.5t20 -48.5q0 -32 -20 -49.5t-54 -17.5h-374z" />
    <glyph glyph-name="zacute" unicode="&#x17a;" horiz-adv-x="459" 
d="M162 595q-26 0 -41.5 18t-15.5 44q0 17 7 29.5t28 21.5l145 61q11 5 21 7t19 2q26 0 42 -18.5t16 -42.5q0 -17 -7.5 -30t-28.5 -21l-133 -57q-24 -11 -34 -12.5t-18 -1.5zM65 0q-31 0 -47 13.5t-16 36.5q0 15 7 29t19 32l209 293h-159q-29 0 -49.5 14.5t-20.5 49.5
q0 34 20.5 49t50.5 15h302q32 0 48 -13.5t16 -36.5q0 -14 -6.5 -25t-16.5 -25l-221 -304h186q29 0 50 -14.5t21 -49.5q0 -34 -21 -49t-50 -15h-322z" />
    <glyph glyph-name="Zdotaccent" unicode="&#x17b;" horiz-adv-x="573" 
d="M271 769q-29 0 -50.5 21t-21.5 51t21 51.5t51 21.5t51 -21.5t21 -51.5t-21 -51t-51 -21zM112 0q-48 0 -73.5 18.5t-25.5 60.5q0 17 7 33t22 36l317 436h-260q-35 0 -55 17.5t-20 46.5t20 46.5t54 17.5h364q41 0 62 -19t21 -51t-37 -82l-310 -427h288q34 0 54 -17.5
t20 -48.5q0 -32 -20 -49.5t-54 -17.5h-374z" />
    <glyph glyph-name="zdotaccent" unicode="&#x17c;" horiz-adv-x="459" 
d="M232 609q-30 0 -51.5 21.5t-21.5 51.5t21.5 51t51.5 21q29 0 50.5 -21t21.5 -51t-21.5 -51.5t-50.5 -21.5zM65 0q-31 0 -47 13.5t-16 36.5q0 15 7 29t19 32l209 293h-159q-29 0 -49.5 14.5t-20.5 49.5q0 34 20.5 49t50.5 15h302q32 0 48 -13.5t16 -36.5q0 -14 -6.5 -25
t-16.5 -25l-221 -304h186q29 0 50 -14.5t21 -49.5q0 -34 -21 -49t-50 -15h-322z" />
    <glyph glyph-name="Zcaron" unicode="&#x17d;" horiz-adv-x="573" 
d="M271 754q-5 0 -17 3.5t-23 8.5l-105 47q-26 12 -37 27t-11 41q0 22 14 38t34 16q14 0 28.5 -5t22.5 -9l94 -43l87 40q22 11 34 14t24 3q20 0 34.5 -16t14.5 -38q0 -31 -12.5 -44t-29.5 -21l-92 -41q-22 -10 -37 -15.5t-23 -5.5zM112 0q-48 0 -73.5 18.5t-25.5 60.5
q0 17 7 33t22 36l317 436h-260q-35 0 -55 17.5t-20 46.5t20 46.5t54 17.5h364q41 0 62 -19t21 -51t-37 -82l-310 -427h288q34 0 54 -17.5t20 -48.5q0 -32 -20 -49.5t-54 -17.5h-374z" />
    <glyph glyph-name="zcaron" unicode="&#x17e;" horiz-adv-x="459" 
d="M230 594q-5 0 -17 4t-23 8l-105 47q-27 12 -38 27t-11 42q0 22 14.5 38t34.5 16q14 0 28.5 -5.5t22.5 -9.5l94 -43l87 40q22 11 34 14.5t24 3.5q20 0 34.5 -16t14.5 -38q0 -31 -12.5 -44t-29.5 -21l-92 -42q-22 -10 -37 -15.5t-23 -5.5zM65 0q-31 0 -47 13.5t-16 36.5
q0 15 7 29t19 32l209 293h-159q-29 0 -49.5 14.5t-20.5 49.5q0 34 20.5 49t50.5 15h302q32 0 48 -13.5t16 -36.5q0 -14 -6.5 -25t-16.5 -25l-221 -304h186q29 0 50 -14.5t21 -49.5q0 -34 -21 -49t-50 -15h-322z" />
    <glyph glyph-name="longs" unicode="&#x17f;" horiz-adv-x="243" 
d="M113 -6q-31 0 -50.5 21t-19.5 51v548q0 32 10 60t29 49.5t46 34t61 12.5h11q45 0 68.5 -17t23.5 -47q0 -64 -67 -64h-9q-17 0 -25.5 -12t-8.5 -31v-533q0 -30 -19 -51t-50 -21z" />
    <glyph glyph-name="uni018F" unicode="&#x18f;" horiz-adv-x="699" 
d="M334 -14q-72 0 -129.5 27t-98 73.5t-62 108t-21.5 130.5q0 41 20 65t65 24h408q-4 32 -17 63t-37.5 55t-61.5 39t-88 15q-43 0 -81.5 -14.5t-75.5 -37.5q-15 -9 -26 -12.5t-22 -3.5q-28 0 -45.5 19t-17.5 47q0 27 22.5 53t60.5 45.5t87.5 31.5t103.5 12q84 0 150 -26.5
t112 -75t70 -116.5t24 -151q0 -78 -22.5 -145.5t-65.5 -117.5t-106.5 -79t-145.5 -29zM340 120q39 0 70 14t53 38t34.5 55.5t14.5 67.5h-331q2 -36 13 -68t30.5 -55.5t48 -37.5t67.5 -14z" />
    <glyph glyph-name="florin" unicode="&#x192;" horiz-adv-x="611" 
d="M110 -184q-94 0 -94 55q0 30 11 42t51 12h12q31 0 45.5 18.5t20.5 50.5l64 349h-63q-21 0 -34 10.5t-13 31.5q0 22 13 32t34 10h79l28 154q15 80 48.5 118t105.5 38h18q51 0 72.5 -13.5t21.5 -42.5t-14 -41t-53 -12h-14q-30 0 -40.5 -16t-14.5 -34l-29 -151h65
q20 0 33 -10t13 -32t-13 -32t-33 -10h-81l-66 -365q-16 -85 -53.5 -123.5t-105.5 -38.5h-14z" />
    <glyph glyph-name="Ohorn" unicode="&#x1a0;" horiz-adv-x="730" 
d="M583 652q59 -49 91 -124.5t32 -171.5q0 -81 -23.5 -149t-68 -117t-107.5 -76.5t-142 -27.5q-77 0 -140 27t-107.5 76t-68.5 117t-24 150q0 84 24.5 152.5t69.5 116.5t107.5 74.5t138.5 26.5q53 0 103 -14q28 1 45 13.5t22 47.5q4 25 19 37t33 12q26 0 38.5 -16t12.5 -42
q0 -34 -14.5 -62.5t-40.5 -49.5zM366 119q45 0 79.5 18t58 49.5t35.5 74.5t12 94t-12 95t-35.5 75.5t-58.5 49.5t-81 18q-43 0 -77 -17t-58 -48.5t-36.5 -75t-12.5 -96.5q0 -51 12.5 -94.5t36 -75t58 -49.5t79.5 -18z" />
    <glyph glyph-name="ohorn" unicode="&#x1a1;" 
d="M461 466q34 -38 52.5 -88.5t18.5 -111.5q0 -60 -18.5 -111t-52 -88.5t-81 -59t-104.5 -21.5t-104.5 21.5t-81 59t-52 88.5t-18.5 111t18.5 111t52.5 88.5t81 59t104 21.5q45 0 85 -14q25 2 40.5 15t20.5 46q4 25 19 37t33 12q26 0 38.5 -16t12.5 -42q0 -36 -17.5 -67
t-46.5 -51zM276 118q54 0 85 41.5t31 106.5q0 64 -30.5 106t-86.5 42q-53 0 -84 -41.5t-31 -106.5t31 -106.5t85 -41.5z" />
    <glyph glyph-name="Uhorn" unicode="&#x1af;" horiz-adv-x="681" 
d="M737 764q0 -46 -26.5 -82t-69.5 -54v-355q0 -63 -21.5 -115.5t-61 -91t-94.5 -59.5t-123 -21t-123.5 21.5t-95 59.5t-61 90.5t-21.5 115.5v370q0 35 20 55t52 20q33 0 52.5 -20t19.5 -55v-367q0 -33 11.5 -61t32 -48.5t49 -31.5t63.5 -11t64 11t49.5 31.5t32 48.5
t11.5 61v367q0 35 19.5 55t52.5 20q12 0 22 -3q17 5 28 18.5t15 39.5q4 25 19 37t33 12q26 0 38.5 -16t12.5 -42z" />
    <glyph glyph-name="uhorn" unicode="&#x1b0;" 
d="M608 584q0 -46 -27 -82.5t-71 -54.5v-262q0 -45 -16.5 -81.5t-47 -62.5t-73.5 -40.5t-97 -14.5q-53 0 -96.5 14t-74 40t-47 62.5t-16.5 82.5v281q0 30 19.5 51t50.5 21q30 0 49.5 -21t19.5 -51v-259q0 -42 26.5 -68t68.5 -26t68.5 26t26.5 68v259q0 29 19.5 50.5
t49.5 21.5q12 0 21 -3q17 5 28.5 18t15.5 40q4 25 19 37t33 12q26 0 38.5 -16t12.5 -42z" />
    <glyph glyph-name="Aringacute" unicode="&#x1fa;" horiz-adv-x="626" 
d="M259 805q-23 0 -35 13t-12 32q0 26 30 39l115 45q8 2 15 4t14 2q21 0 33.5 -13t12.5 -33q0 -15 -8 -24.5t-30 -17.5l-91 -35l-22 -8t-22 -4zM71 -6q-32 0 -50.5 16t-18.5 43q0 23 7.5 47t16.5 48l163 438q8 23 18 40t24 34q-9 20 -9 40q0 38 26.5 64t63.5 26t63 -26
t26 -64q0 -20 -9 -37q15 -17 26.5 -37.5t19.5 -41.5l162 -437q11 -27 17.5 -49.5t6.5 -44.5q0 -27 -18.5 -43t-49.5 -16q-34 0 -50 18.5t-27 54.5l-25 74h-282l-24 -72q-14 -44 -31 -59.5t-46 -15.5zM312 657q18 0 30.5 12.5t12.5 30.5t-13 30t-31 12q-17 0 -29.5 -12
t-12.5 -30q0 -17 12.5 -30t30.5 -13zM411 274l-93 285h-5l-98 -285h196z" />
    <glyph glyph-name="aringacute" unicode="&#x1fb;" horiz-adv-x="570" 
d="M241 787q-22 0 -35 14t-13 35q0 29 30 42l116 50q12 5 19 6.5t13 1.5q22 0 34.5 -14.5t12.5 -35.5q0 -14 -6.5 -25.5t-29.5 -20.5l-110 -46q-15 -7 -31 -7zM285 571q-20 0 -37.5 7.5t-31 21t-21.5 31.5t-8 38t8 38t21.5 31.5t31 21t37.5 7.5t37.5 -8t31 -21.5t21.5 -31
t8 -37.5t-7.5 -37.5t-21 -31t-31.5 -21.5t-38 -8zM285 623q19 0 32.5 13.5t13.5 32.5t-13.5 32.5t-32.5 13.5q-18 0 -32 -13.5t-14 -32.5t13.5 -32.5t32.5 -13.5zM258 -14q-51 0 -94.5 21.5t-75.5 59t-50 89t-18 110.5t18 110t50 89t75.5 59.5t94.5 21.5q45 0 77.5 -15.5
t59.5 -49.5h2l2 11q5 18 20 32t44 14q31 0 49.5 -21t18.5 -51v-400q0 -30 -18.5 -51t-49.5 -21q-29 0 -44 14t-20 32l-2 11h-2q-26 -34 -59 -49.5t-78 -15.5zM276 118q54 0 85 41.5t31 106.5q0 64 -30.5 106t-86.5 42q-26 0 -47.5 -11t-36.5 -31t-23 -47t-8 -59
q0 -65 31 -106.5t85 -41.5z" />
    <glyph glyph-name="AEacute" unicode="&#x1fc;" horiz-adv-x="830" 
d="M439 760q-26 0 -42 18t-16 44q0 17 7.5 29.5t28.5 20.5l145 62q11 5 21 7t19 2q26 0 42 -18.5t16 -42.5q0 -17 -7.5 -30t-28.5 -22l-133 -56q-24 -11 -34 -12.5t-18 -1.5zM64 -6q-27 0 -45 18.5t-18 50.5q0 21 7.5 38.5t14.5 28.5l296 524q9 16 18 27t20.5 18t28.5 10
t42 3h312q31 0 50 -18.5t19 -48.5q0 -32 -19.5 -49t-49.5 -17h-178v-155h165q30 0 49.5 -17.5t19.5 -49.5q0 -31 -19.5 -48.5t-49.5 -17.5h-165v-158h185q30 0 50 -17t20 -49q0 -30 -20 -48.5t-50 -18.5h-259q-28 0 -49 19.5t-21 54.5v68h-228l-45 -91q-16 -32 -34 -44.5
t-47 -12.5zM418 274v300h-2l-156 -300h158z" />
    <glyph glyph-name="aeacute" unicode="&#x1fd;" horiz-adv-x="919" 
d="M402 595q-26 0 -41.5 18t-15.5 44q0 17 7.5 29.5t27.5 21.5l145 61q11 5 21 7t20 2q26 0 41.5 -18.5t15.5 -42.5q0 -17 -7.5 -30t-28.5 -21l-132 -57q-25 -11 -35 -12.5t-18 -1.5zM258 -14q-51 0 -94.5 21.5t-75.5 59t-50 88.5t-18 111q0 59 18 110t50 89t75.5 59.5
t94.5 21.5q45 0 77 -14.5t59 -48.5h2v11q0 25 15 39t41 14q17 0 32.5 -7.5t21.5 -27.5l2 -10h2q52 44 142 44q57 0 103 -22t78.5 -58.5t49.5 -84t17 -97.5q0 -35 -15 -50t-52 -15h-303q2 -45 40 -75.5t101 -30.5q37 0 67 13t62 31q9 5 17.5 8.5t16.5 3.5q24 0 41 -16.5
t17 -43.5q0 -21 -12.5 -38.5t-34.5 -32.5q-33 -23 -83 -37.5t-104 -14.5q-46 0 -82 10.5t-67 33.5h-2l-1 -9q-8 -20 -23 -27.5t-32 -7.5q-26 0 -40.5 14t-14.5 38v12h-3q-24 -35 -57 -49.5t-78 -14.5zM760 316q-1 21 -10 41.5t-24.5 36t-36.5 25t-46 9.5q-22 0 -42 -9
t-35.5 -24t-25 -35.5t-10.5 -43.5h230zM276 118q54 0 85 42t31 106q0 31 -7.5 58t-22.5 47t-37 31.5t-50 11.5q-27 0 -48 -11.5t-36 -31.5t-23 -47t-8 -58q0 -64 31 -106t85 -42z" />
    <glyph glyph-name="Oslashacute" unicode="&#x1fe;" horiz-adv-x="730" 
d="M320 760q-26 0 -41.5 18t-15.5 44q0 17 7.5 29.5t27.5 20.5l145 62q11 5 21 7t20 2q26 0 41.5 -18.5t15.5 -42.5q0 -17 -7.5 -30t-28.5 -22l-132 -56q-25 -11 -35 -12.5t-18 -1.5zM53 -36q-18 0 -30 10.5t-12 27.5t7.5 28t15.5 20l60 68q-33 48 -51 107t-18 131
q0 82 24.5 150t69 117t107 76t139.5 27q64 0 116.5 -18t94.5 -51l60 69q12 14 21 19t20 5q19 0 31 -10t12 -27q0 -14 -5 -23.5t-20 -26.5l-60 -66q34 -48 52.5 -108.5t18.5 -132.5q0 -81 -24 -149t-68 -117t-107.5 -76.5t-141.5 -27.5q-64 0 -116.5 18t-94.5 52l-61 -68
q-23 -24 -40 -24zM479 551q-21 20 -48.5 31t-66.5 11q-43 0 -77 -17.5t-58 -49t-36.5 -75t-12.5 -95.5q0 -31 5 -61t17 -58zM366 119q44 0 78.5 18t58 49.5t36 75t12.5 94.5q0 67 -23 122l-278 -316q20 -20 49 -31.5t67 -11.5z" />
    <glyph glyph-name="oslashacute" unicode="&#x1ff;" 
d="M238 595q-26 0 -42 18t-16 44q0 17 7.5 29.5t28.5 21.5l145 61q11 5 21 7t19 2q26 0 42 -18.5t16 -42.5q0 -17 -7.5 -30t-28.5 -21l-133 -57q-24 -11 -34 -12.5t-18 -1.5zM35 -28q-14 0 -24 10t-10 25q0 10 3 17t16 21l49 52q-49 71 -49 171q0 59 19 110.5t52.5 89
t80.5 59t103 21.5q48 0 87.5 -14.5t71.5 -40.5l53 55q16 16 30 16t24 -10.5t10 -24.5q0 -9 -3 -17t-12 -17l-52 -57q24 -36 36 -79t12 -91q0 -60 -18.5 -111t-52 -88.5t-81 -59t-104.5 -21.5q-48 0 -87.5 14t-71.5 40l-41 -44q-14 -15 -23 -20.5t-18 -5.5zM341 392
q-13 11 -29 17.5t-37 6.5q-26 0 -47.5 -11t-36.5 -31t-23 -47t-8 -59q0 -35 10 -64zM276 120q54 0 85 41.5t31 106.5q0 16 -2.5 32t-7.5 30l-170 -188q25 -22 64 -22z" />
    <glyph glyph-name="uni0218" unicode="&#x218;" horiz-adv-x="522" 
d="M239 -14q-51 0 -99.5 11t-81.5 31q-23 14 -36.5 31.5t-13.5 37.5q0 30 18.5 52.5t49.5 22.5q8 0 18.5 -2.5t22.5 -7.5q26 -11 57.5 -22t70.5 -11q50 0 76.5 22.5t26.5 60.5q0 32 -25.5 51.5t-77.5 36.5q-47 15 -88 30.5t-71.5 38t-48 55.5t-17.5 84q0 52 19 92.5t52 68.5
t78 42.5t97 14.5q40 0 75 -7.5t60 -19.5q59 -28 59 -74q0 -30 -18 -49.5t-46 -19.5q-10 0 -18.5 2t-16.5 4q-23 8 -45.5 17t-56.5 9q-37 0 -61 -18.5t-24 -50.5q0 -29 27 -44t80 -33q52 -17 93 -35t69 -42.5t43 -59t15 -85.5q0 -55 -18.5 -98.5t-52.5 -73.5t-82.5 -46
t-108.5 -16zM187 -213q-22 0 -35 11t-13 30q0 15 10 30l48 75q9 14 21 24.5t34 10.5q29 0 46 -15.5t17 -36.5q0 -11 -4 -19t-12 -17l-48 -60q-14 -19 -28.5 -26t-35.5 -7z" />
    <glyph glyph-name="uni0219" unicode="&#x219;" horiz-adv-x="430" 
d="M216 -14q-51 0 -94 12.5t-72 33.5q-17 12 -27.5 27.5t-10.5 32.5q0 29 17.5 48.5t40.5 19.5q19 0 42 -14q24 -13 51 -25.5t59 -12.5q30 0 44.5 13t14.5 30q0 21 -19 33.5t-47 23t-61 22t-61 30t-47 46t-19 70.5q0 35 14.5 65.5t40.5 54t61.5 37t77.5 13.5q37 0 72.5 -8.5
t61.5 -25.5q21 -14 34.5 -31.5t13.5 -39.5q0 -28 -17 -44t-42 -16q-8 0 -18 4t-21 9q-20 10 -43 20t-46 10t-38 -11t-15 -31q0 -17 18.5 -29t47 -22.5t61 -23t61 -31.5t47 -47.5t18.5 -71.5q0 -39 -15 -70.5t-42 -54t-63.5 -34.5t-79.5 -12zM148 -213q-22 0 -35 11t-13 30
q0 15 10 30l48 75q9 14 21 24.5t34 10.5q29 0 46 -15.5t17 -36.5q0 -11 -4 -19t-12 -17l-48 -60q-14 -19 -28.5 -26t-35.5 -7z" />
    <glyph glyph-name="uni021A" unicode="&#x21a;" horiz-adv-x="456" 
d="M228 -6q-32 0 -52 20t-20 55v510h-103q-32 0 -52 17.5t-20 48.5q0 32 20 49.5t52 17.5h350q32 0 52 -17.5t20 -49.5q0 -31 -20 -48.5t-52 -17.5h-103v-510q0 -35 -20 -55t-52 -20zM168 -213q-23 0 -36 11t-13 30q0 16 11 30l48 75q9 14 21 24.5t33 10.5q29 0 46.5 -15.5
t17.5 -36.5q0 -11 -4.5 -19t-12.5 -17l-48 -60q-14 -19 -28 -26t-35 -7z" />
    <glyph glyph-name="uni021B" unicode="&#x21b;" horiz-adv-x="330" 
d="M155 -6q-30 0 -49.5 21t-19.5 51v339h-18q-41 0 -59.5 15.5t-18.5 47.5q0 64 77 64h19v107q0 30 19.5 51t49.5 21q31 0 50.5 -21t19.5 -51v-107h46q30 0 49.5 -15t19.5 -49q0 -33 -19.5 -48t-49.5 -15h-46v-339q0 -30 -19.5 -51t-50.5 -21zM86 -213q-23 0 -36 11t-13 30
q0 16 11 30l48 75q9 14 21 24.5t34 10.5q29 0 46 -15.5t17 -36.5q0 -11 -4 -19t-12 -17l-48 -60q-15 -19 -29 -26t-35 -7z" />
    <glyph glyph-name="uni0237" unicode="&#x237;" horiz-adv-x="218" 
d="M109 -221q-31 0 -50 21t-19 50v616q0 30 19 51t50 21q32 0 51 -21t19 -51v-616q0 -29 -19.5 -50t-50.5 -21z" />
    <glyph glyph-name="uni0259" unicode="&#x259;" horiz-adv-x="549" 
d="M263 -14q-56 0 -101.5 21.5t-77.5 58t-49.5 84.5t-17.5 100q0 34 16 48.5t52 14.5h294q-5 47 -38.5 76.5t-95.5 29.5q-32 0 -61 -10.5t-61 -30.5q-24 -15 -40 -15q-26 0 -42 17.5t-16 42.5q0 20 12 39t34 34q32 23 79.5 36.5t101.5 13.5q68 0 120 -21.5t87 -59t52.5 -89
t17.5 -110.5q0 -56 -18.5 -107t-53 -89.5t-83.5 -61t-111 -22.5zM267 104q23 0 42.5 9t34.5 24.5t24.5 36t10.5 42.5h-222q1 -22 10 -42.5t23.5 -36t34 -24.5t42.5 -9z" />
    <glyph glyph-name="uni02B9" unicode="&#x2b9;" horiz-adv-x="237" 
d="M92 536q-27 0 -41.5 14t-14.5 35q0 14 4 25.5t5 16.5l39 127q8 25 23.5 34t31.5 9q28 0 45 -14.5t17 -38.5q0 -13 -7 -31l-54 -146q-4 -9 -13.5 -20t-34.5 -11z" />
    <glyph glyph-name="uni02BC" unicode="&#x2bc;" horiz-adv-x="244" 
d="M74 429q-30 0 -49 17t-19 44q0 11 2.5 20t10.5 23l77 144q9 17 24.5 29t39.5 12q31 0 49.5 -16.5t18.5 -43.5q0 -9 -2 -19t-12 -27l-76 -141q-23 -42 -64 -42z" />
    <glyph glyph-name="caron" unicode="&#x2c7;" horiz-adv-x="218" 
d="M109 594q-5 0 -17 4t-23 8l-105 47q-26 12 -37 27t-11 42q0 22 14 38t34 16q14 0 28.5 -5.5t22.5 -9.5l94 -43l87 40q22 11 34 14.5t24 3.5q20 0 34.5 -16t14.5 -38q0 -31 -12.5 -44t-29.5 -21l-92 -42q-22 -10 -37 -15.5t-23 -5.5z" />
    <glyph glyph-name="uni02C9" unicode="&#x2c9;" horiz-adv-x="218" 
d="M-8 623q-25 0 -41 15t-16 42t16 42.5t41 15.5h234q26 0 42 -15.5t16 -42.5q0 -28 -16 -42.5t-42 -14.5h-234z" />
    <glyph glyph-name="dotaccent" unicode="&#x2d9;" horiz-adv-x="218" 
d="M109 609q-30 0 -51 21.5t-21 51.5t21.5 51t50.5 21q30 0 51 -21t21 -51t-21 -51.5t-51 -21.5z" />
    <glyph glyph-name="ring" unicode="&#x2da;" horiz-adv-x="218" 
d="M109 572q-19 0 -37 7.5t-31.5 20.5t-21.5 31t-8 38t8 38t21.5 31.5t31 21t37.5 7.5t38 -8t31.5 -21.5t21 -31t7.5 -37.5t-7.5 -37.5t-21 -31t-31.5 -21t-38 -7.5zM109 623q19 0 32.5 14t13.5 32q0 19 -14 33t-33 14q-18 0 -31.5 -14t-13.5 -33q0 -18 13.5 -32t32.5 -14z
" />
    <glyph glyph-name="ogonek" unicode="&#x2db;" horiz-adv-x="218" 
d="M95 -213q-43 0 -67 21.5t-24 58.5q0 41 31.5 77t79.5 58l71 -1q-34 -22 -58 -51.5t-24 -52.5q0 -37 33 -37q12 0 22.5 4t18.5 4q23 0 23 -27q0 -21 -22 -35q-30 -19 -84 -19z" />
    <glyph glyph-name="tilde" unicode="&#x2dc;" horiz-adv-x="218" 
d="M212 597q-25 0 -48.5 6.5t-45.5 15t-40.5 15t-33.5 6.5q-14 0 -23.5 -6.5t-18 -14.5t-18 -14.5t-22.5 -6.5q-22 0 -37 14.5t-15 41.5q0 20 8.5 38t22 31.5t31 22t36.5 8.5q24 0 47.5 -6.5t45 -15t40.5 -15t34 -6.5q14 0 23.5 6.5t18 15t17.5 15t22 6.5q24 0 38 -16.5
t14 -41.5q0 -19 -8 -36.5t-21.5 -31.5t-30.5 -22.5t-36 -8.5z" />
    <glyph glyph-name="hungarumlaut" unicode="&#x2dd;" horiz-adv-x="218" 
d="M-103 595q-26 0 -41.5 18t-15.5 44q0 36 35 50l133 57q8 4 19 6.5t22 2.5q28 0 43 -19.5t15 -42.5q0 -35 -35 -50l-131 -55q-25 -11 -44 -11zM204 595q-26 0 -42 18t-16 44q0 36 35 50l133 57q8 4 19 6.5t22 2.5q28 0 43 -19.5t15 -42.5q0 -35 -35 -50l-131 -55
q-14 -6 -24.5 -8.5t-18.5 -2.5z" />
    <glyph glyph-name="gravecomb" unicode="&#x300;" horiz-adv-x="0" 
d="M-67 595q-7 0 -15 1.5t-28 10.5l-110 47q-17 7 -23.5 17.5t-6.5 24.5q0 20 13 35t35 15q8 0 16 -1t17 -6l120 -51q17 -8 23 -18t6 -24q0 -22 -12.5 -36.5t-34.5 -14.5z" />
    <glyph glyph-name="acutecomb" unicode="&#x301;" horiz-adv-x="0" 
d="M-150 595q-23 0 -35.5 14.5t-12.5 36.5q0 14 6 24t23 18l120 51q9 5 17.5 6t16.5 1q21 0 34 -15t13 -35q0 -14 -6 -24.5t-23 -17.5l-110 -47q-20 -9 -28.5 -10.5t-14.5 -1.5z" />
    <glyph glyph-name="uni0302" unicode="&#x302;" horiz-adv-x="0" 
d="M-229 594q-16 0 -27.5 13.5t-11.5 31.5q0 22 8.5 34t30.5 22l87 39q9 4 19 7t14 3q7 0 19.5 -5t30.5 -13l76 -34q14 -6 24 -16.5t10 -36.5q0 -18 -11.5 -31.5t-28.5 -13.5q-10 0 -20 3t-28 11l-72 33l-78 -35q-6 -4 -18 -8t-24 -4z" />
    <glyph glyph-name="tildecomb" unicode="&#x303;" horiz-adv-x="0" 
d="M-24 597q-20 0 -39.5 5.5t-37.5 12.5t-34 12.5t-28 5.5q-11 0 -19 -5.5t-15 -12t-15 -12t-18 -5.5q-18 0 -30.5 11.5t-12.5 34.5q0 16 6.5 31t18 26.5t26 18.5t30.5 7q19 0 38.5 -5.5t37.5 -12.5t33.5 -12.5t28.5 -5.5q11 0 19 5.5t15 12.5t14.5 12.5t17.5 5.5
q20 0 31.5 -14t11.5 -34q0 -16 -6.5 -30.5t-17.5 -26t-25.5 -18.5t-29.5 -7z" />
    <glyph glyph-name="uni0304" unicode="&#x304;" horiz-adv-x="0" 
d="M-226 623q-25 0 -41 15t-16 42t16 42.5t41 15.5h234q26 0 42 -15.5t16 -42.5q0 -28 -16 -42.5t-42 -14.5h-234z" />
    <glyph glyph-name="uni0306" unicode="&#x306;" horiz-adv-x="0" 
d="M-109 585q-30 0 -56 9t-45.5 25t-30.5 37t-11 46q0 21 10.5 34t31.5 13q15 0 25 -10t18 -29q10 -20 22.5 -31t35.5 -11t36 11t22 31q8 19 18 29t25 10q22 0 32 -13t10 -34q0 -25 -11 -46t-30.5 -37t-45.5 -25t-56 -9z" />
    <glyph glyph-name="uni0307" unicode="&#x307;" horiz-adv-x="0" 
d="M-109 609q-30 0 -51 21.5t-21 51.5t21.5 51t50.5 21q30 0 51 -21t21 -51t-21 -51.5t-51 -21.5z" />
    <glyph glyph-name="uni0308" unicode="&#x308;" horiz-adv-x="0" 
d="M-219 609q-30 0 -51.5 21.5t-21.5 51.5q0 29 21.5 50.5t51.5 21.5q29 0 50.5 -21.5t21.5 -50.5q0 -30 -21.5 -51.5t-50.5 -21.5zM2 609q-30 0 -51 21.5t-21 51.5q0 29 21 50.5t51 21.5q29 0 50.5 -21.5t21.5 -50.5q0 -30 -21 -51.5t-51 -21.5z" />
    <glyph glyph-name="hookabovecomb" unicode="&#x309;" horiz-adv-x="0" 
d="M-252 574q-17 0 -27.5 10.5t-10.5 26.5v32q0 30 36 34q24 4 24 22q0 19 -21 19q-16 0 -25 -15q-13 -23 -35 -23q-14 0 -24.5 11t-10.5 27q0 32 28 54t67 22q45 0 74 -26t29 -67q0 -68 -66 -86v-1q0 -18 -10.5 -29t-27.5 -11z" />
    <glyph glyph-name="uni030A" unicode="&#x30a;" horiz-adv-x="0" 
d="M-109 572q-20 0 -37.5 7.5t-31 20.5t-21.5 31t-8 38t8 38t21.5 31.5t31 21t37.5 7.5t38 -8t31.5 -21.5t21 -31t7.5 -37.5t-7.5 -37.5t-21 -31t-31.5 -21t-38 -7.5zM-109 623q19 0 32.5 14t13.5 32q0 19 -14 33t-33 14q-18 0 -31.5 -14t-13.5 -33q0 -18 13.5 -32t32.5 -14
z" />
    <glyph glyph-name="uni030B" unicode="&#x30b;" horiz-adv-x="0" 
d="M-321 595q-26 0 -41.5 18t-15.5 44q0 36 35 50l133 57q8 4 19 6.5t22 2.5q28 0 43 -19.5t15 -42.5q0 -35 -35 -50l-131 -55q-25 -11 -44 -11zM-14 595q-26 0 -42 18t-16 44q0 36 35 50l133 57q8 4 19 6.5t22 2.5q28 0 43 -19.5t15 -42.5q0 -35 -35 -50l-131 -55
q-14 -6 -24.5 -8.5t-18.5 -2.5z" />
    <glyph glyph-name="uni030C" unicode="&#x30c;" horiz-adv-x="0" 
d="M-109 594q-5 0 -17 4t-23 8l-105 47q-26 12 -37 27t-11 42q0 22 14 38t34 16q14 0 28.5 -5.5t22.5 -9.5l94 -43l87 40q22 11 34 14.5t24 3.5q20 0 34.5 -16t14.5 -38q0 -31 -12.5 -44t-29.5 -21l-92 -42q-22 -10 -37 -15.5t-23 -5.5z" />
    <glyph glyph-name="uni0312" unicode="&#x312;" horiz-adv-x="0" 
d="M-139 590q-27 0 -45 15t-18 38q0 9 3 17t11 24l36 72q8 15 19 24.5t33 9.5q26 0 40.5 -14t14.5 -34q0 -16 -10 -33l-30 -76q-8 -24 -21 -33.5t-33 -9.5z" />
    <glyph glyph-name="uni0313" unicode="&#x313;" horiz-adv-x="0" 
d="M-139 590q-27 0 -45 15t-18 38q0 9 3 17t11 24l36 72q8 15 19 24.5t33 9.5q26 0 40.5 -14t14.5 -34q0 -16 -10 -33l-30 -76q-8 -24 -21 -33.5t-33 -9.5z" />
    <glyph glyph-name="uni031B" unicode="&#x31b;" horiz-adv-x="0" 
d="M-109 532q29 0 47 12.5t23 48.5q4 25 19 37t33 12q26 0 38.5 -16t12.5 -42q0 -32 -13.5 -59.5t-36.5 -48t-55 -32t-68 -11.5v99z" />
    <glyph glyph-name="dotbelowcomb" unicode="&#x323;" horiz-adv-x="0" 
d="M-109 -212q-30 0 -51 21.5t-21 51.5t21.5 51t50.5 21q30 0 51 -21t21 -51t-21 -51.5t-51 -21.5z" />
    <glyph glyph-name="uni0326" unicode="&#x326;" horiz-adv-x="0" 
d="M-194 -213q-23 0 -36 11t-13 30q0 15 10 30l49 75q9 14 21 24.5t33 10.5q29 0 46 -15.5t17 -36.5q0 -11 -4 -19t-12 -17l-48 -60q-14 -19 -28.5 -26t-34.5 -7z" />
    <glyph glyph-name="uni0327" unicode="&#x327;" horiz-adv-x="0" 
d="M-112 -213q-42 0 -68.5 11t-26.5 34q0 11 7.5 21.5t20.5 10.5q12 0 25.5 -7.5t30.5 -7.5q14 0 23.5 8.5t9.5 22.5q0 12 -8.5 20t-29.5 8h-13q-25 0 -25 20q0 7 5 17.5t17 25.5l24 29h64l-37 -49l2 -2q10 3 21 3q34 0 56 -19.5t22 -56.5q0 -21 -10.5 -37.5t-27 -28
t-38.5 -17.5t-44 -6z" />
    <glyph glyph-name="uni0328" unicode="&#x328;" horiz-adv-x="0" 
d="M-123 -213q-43 0 -67 21.5t-24 58.5q0 41 31.5 77t79.5 58l71 -1q-34 -22 -58 -51.5t-24 -52.5q0 -37 33 -37q12 0 22.5 4t18.5 4q23 0 23 -27q0 -21 -22 -35q-30 -19 -84 -19z" />
    <glyph glyph-name="uni0374" unicode="&#x374;" horiz-adv-x="210" 
d="M77 402q-25 0 -42.5 14.5t-17.5 38.5q0 8 1 16.5t3 17.5l41 159q8 33 24 51.5t46 18.5q25 0 43 -16t18 -39q0 -12 -5 -34l-40 -159q-8 -33 -24.5 -50.5t-46.5 -17.5z" />
    <glyph glyph-name="uni0375" unicode="&#x375;" horiz-adv-x="224" 
d="M82 -167q-26 0 -47.5 16t-21.5 46q0 17 5 35l41 160q4 16 9 29.5t12.5 23.5t20 15.5t31.5 5.5q26 0 47.5 -15.5t21.5 -45.5q0 -8 -1.5 -17.5t-3.5 -17.5l-41 -161q-8 -31 -21.5 -52.5t-51.5 -21.5z" />
    <glyph glyph-name="uni037E" unicode="&#x37e;" horiz-adv-x="270" 
d="M135 303q-32 0 -55.5 23.5t-23.5 55.5q0 16 6.5 30.5t18 25t25.5 17t29 6.5q31 0 55 -23t24 -56q0 -32 -23.5 -55.5t-55.5 -23.5zM60 -145q-30 0 -49 17t-19 43q0 12 2.5 20t11.5 25l77 141q11 20 26 31.5t37 11.5q31 0 49.5 -17.5t18.5 -43.5q0 -8 -2 -17t-11 -27
l-78 -143q-8 -17 -23.5 -29t-39.5 -12z" />
    <glyph glyph-name="tonos" unicode="&#x384;" horiz-adv-x="218" 
d="M90 590q-24 0 -43 16t-19 39q0 12 4 24l35 100q8 23 23 39t38 16q24 0 43.5 -16t19.5 -39q0 -11 -4 -24l-36 -100q-8 -23 -23 -39t-38 -16z" />
    <glyph glyph-name="dieresistonos" unicode="&#x385;" horiz-adv-x="218" 
d="M112 711q-23 0 -43 16.5t-19 39.5q0 11 4 23l35 101q8 23 23 39t38 16q24 0 43.5 -16.5t19.5 -39.5q0 -12 -5 -23l-35 -100q-8 -23 -23 -39.5t-38 -16.5zM-1 574q-30 0 -51.5 21.5t-21.5 50.5q0 30 21.5 51.5t51.5 21.5q29 0 50.5 -21.5t21.5 -51.5q0 -29 -21.5 -50.5
t-50.5 -21.5zM220 574q-30 0 -51 21.5t-21 50.5q0 30 21 51.5t51 21.5q29 0 50.5 -21.5t21.5 -51.5q0 -29 -21 -50.5t-51 -21.5z" />
    <glyph glyph-name="Alphatonos" unicode="&#x386;" horiz-adv-x="626" 
d="M96 590q-25 0 -44 16t-19 39q0 12 4 24l36 100q8 23 23 39t38 16t42.5 -16t19.5 -39q0 -11 -4 -24l-35 -100q-8 -23 -23 -39t-38 -16zM71 -6q-32 0 -50.5 16t-18.5 43q0 22 7.5 46.5t16.5 48.5l182 487q17 45 41.5 68t64.5 23q38 0 63 -23t42 -68l184 -494
q8 -20 14.5 -42.5t6.5 -45.5q0 -27 -18.5 -43t-49.5 -16q-34 0 -50 18.5t-27 54.5l-25 74h-282l-24 -72q-14 -44 -31 -59.5t-46 -15.5zM411 274l-94 289h-2l-100 -289h196z" />
    <glyph glyph-name="anoteleia" unicode="&#x387;" horiz-adv-x="270" 
d="M135 207q-32 0 -55.5 23.5t-23.5 55.5t23.5 55.5t55.5 23.5t55.5 -23.5t23.5 -55.5t-23.5 -55.5t-55.5 -23.5z" />
    <glyph glyph-name="Epsilontonos" unicode="&#x388;" horiz-adv-x="459" 
d="M-60 590q-25 0 -44 16t-19 39q0 12 4 24l36 100q8 23 23 39t38 16t42.5 -16t19.5 -39q0 -11 -4 -24l-35 -100q-8 -23 -23 -39t-38 -16zM116 0q-30 0 -51 20t-21 51v571q0 30 21 50t51 20h250q30 0 50 -18.5t20 -48.5q0 -32 -20 -49t-50 -17h-177v-155h164q30 0 50 -17.5
t20 -49.5q0 -31 -19 -48.5t-51 -17.5h-165v-158h184q32 0 51.5 -17t19.5 -49q0 -30 -20 -48.5t-50 -18.5h-257z" />
    <glyph glyph-name="Etatonos" unicode="&#x389;" horiz-adv-x="697" 
d="M-60 590q-25 0 -44 16t-19 39q0 12 4 24l36 100q8 23 23 39t38 16t42.5 -16t19.5 -39q0 -11 -4 -24l-35 -100q-8 -23 -23 -39t-38 -16zM116 -6q-32 0 -52 20t-20 55v574q0 35 20 55t52 20q33 0 52.5 -20t19.5 -55v-211h320v211q0 35 20 55t52 20t52 -20t20 -55v-574
q0 -35 -20 -55t-52 -20t-52 20t-20 55v229h-320v-229q0 -35 -19.5 -55t-52.5 -20z" />
    <glyph glyph-name="Iotatonos" unicode="&#x38a;" horiz-adv-x="233" 
d="M-60 590q-25 0 -44 16t-19 39q0 12 4 24l36 100q8 23 23 39t38 16t42.5 -16t19.5 -39q0 -11 -4 -24l-35 -100q-8 -23 -23 -39t-38 -16zM116 -6q-32 0 -52 20t-20 55v574q0 35 20 55t52 20q33 0 52.5 -20t19.5 -55v-574q0 -35 -19.5 -55t-52.5 -20z" />
    <glyph glyph-name="Omicrontonos" unicode="&#x38c;" horiz-adv-x="730" 
d="M21 590q-24 0 -43 16t-19 39q0 12 4 24l35 100q8 23 23 39t38 16q24 0 43.5 -16t19.5 -39q0 -11 -4 -24l-36 -100q-8 -23 -23 -39t-38 -16zM365 -14q-77 0 -140 27t-107.5 76t-68.5 117t-24 150q0 84 24.5 152.5t69.5 116.5t107.5 74.5t138.5 26.5q77 0 140 -27
t107.5 -75.5t69 -116.5t24.5 -151q0 -81 -23.5 -149t-68 -117t-107.5 -76.5t-142 -27.5zM366 119q45 0 79.5 18t58 49.5t35.5 74.5t12 94t-12 95t-35.5 75.5t-58.5 49.5t-81 18q-43 0 -77 -17t-58 -48.5t-36.5 -75t-12.5 -96.5q0 -51 12.5 -94.5t36 -75t58 -49.5t79.5 -18z
" />
    <glyph glyph-name="Upsilontonos" unicode="&#x38e;" horiz-adv-x="527" 
d="M-108 590q-25 0 -44 16t-19 39q0 13 5 24l35 100q8 23 23 39t38 16t42.5 -16t19.5 -39q0 -11 -4 -24l-35 -100q-8 -23 -23 -39t-38 -16zM263 -6q-32 0 -52 20t-20 55v266l-146 209q-31 42 -45.5 66t-14.5 45q0 27 21.5 45t53.5 18q16 0 28 -6t21 -14.5t16 -18.5t13 -18
l125 -186l129 192q25 36 42 43.5t33 7.5q32 0 53.5 -18t21.5 -45q0 -20 -13 -42.5t-44 -64.5l-150 -213v-266q0 -35 -19.5 -55t-52.5 -20z" />
    <glyph glyph-name="Omegatonos" unicode="&#x38f;" horiz-adv-x="753" 
d="M18 590q-25 0 -44 16t-19 39q0 13 5 24l35 100q8 23 23 39t38 16t42.5 -16t19.5 -39q0 -11 -4 -24l-35 -100q-8 -23 -23 -39t-38 -16zM100 0q-25 0 -48 17t-23 52q0 32 22.5 48t48.5 16h46v2q-51 52 -79 116.5t-28 148.5q0 75 24.5 135t69 102.5t107 65.5t138.5 23
q74 0 135.5 -21.5t106 -62.5t69.5 -101.5t25 -138.5q0 -85 -29.5 -150t-78.5 -117v-2h46q27 0 49.5 -16t22.5 -48q0 -35 -23 -52t-49 -17h-173q-35 0 -50.5 16.5t-15.5 46.5q0 20 12.5 39t26.5 34q54 55 80 119.5t26 129.5q0 100 -49 154.5t-134 54.5t-132.5 -55t-47.5 -152
q0 -66 26 -131t79 -120q14 -15 27 -34t13 -39q0 -30 -15 -46.5t-50 -16.5h-175z" />
    <glyph glyph-name="iotadieresistonos" unicode="&#x390;" horiz-adv-x="238" 
d="M113 711q-23 0 -43 16.5t-20 39.5q1 5 2 10.5t3 12.5l35 101q8 23 23 39t38 16t43 -16.5t20 -39.5q0 -8 -5 -23l-35 -100q-8 -23 -23 -39.5t-38 -16.5zM-1 574q-29 0 -50.5 21.5t-21.5 50.5q0 30 21.5 51.5t50.5 21.5q30 0 51.5 -21.5t21.5 -51.5q0 -29 -21.5 -50.5
t-51.5 -21.5zM221 574q-30 0 -51.5 21.5t-21.5 50.5q0 30 21.5 51.5t51.5 21.5q29 0 50.5 -21.5t21.5 -51.5q0 -29 -21.5 -50.5t-50.5 -21.5zM145 -5q-41 0 -70 42l-7 12q-11 16 -20 45.5t-9 67.5v304q0 30 19.5 51t50.5 21q32 0 50.5 -21t18.5 -51v-265q0 -19 3.5 -37
t14.5 -37l8 -14q14 -26 14 -49q0 -31 -21 -50t-52 -19z" />
    <glyph glyph-name="Alpha" unicode="&#x391;" horiz-adv-x="626" 
d="M71 -6q-32 0 -50.5 16t-18.5 43q0 22 7.5 46.5t16.5 48.5l182 487q17 45 41.5 68t64.5 23q38 0 63 -23t42 -68l184 -494q8 -20 14.5 -42.5t6.5 -45.5q0 -27 -18.5 -43t-49.5 -16q-34 0 -50 18.5t-27 54.5l-25 74h-282l-24 -72q-14 -44 -31 -59.5t-46 -15.5zM411 274
l-94 289h-2l-100 -289h196z" />
    <glyph glyph-name="Beta" unicode="&#x392;" horiz-adv-x="582" 
d="M116 0q-30 0 -51 20t-21 50v572q0 30 21 50t51 20h184q43 0 79 -13t62.5 -37t41.5 -58t15 -76q0 -46 -22.5 -81.5t-67.5 -55.5v-3q68 -14 107.5 -58t39.5 -117q0 -49 -17 -88t-48 -67t-75.5 -43t-98.5 -15h-200zM272 429q34 0 58 20t24 58q0 37 -23 57t-60 20h-83v-155
h84zM299 128q49 0 78 22t29 65q0 42 -31.5 64t-76.5 22h-110v-173h111z" />
    <glyph glyph-name="Gamma" unicode="&#x393;" horiz-adv-x="430" 
d="M116 -6q-32 0 -52 20t-20 55v571q0 32 21 52t51 20h259q32 0 51.5 -18.5t19.5 -48.5q0 -32 -20 -49t-50 -17h-188v-510q0 -35 -19.5 -55t-52.5 -20z" />
    <glyph glyph-name="uni0394" unicode="&#x394;" horiz-adv-x="644" 
d="M72 0q-33 0 -51.5 15.5t-18.5 47.5q0 17 5 34t13 36l195 502q17 45 42.5 68t65.5 23q38 0 64 -23t43 -68l194 -502q7 -19 12.5 -36t5.5 -34q0 -63 -70 -63h-500zM475 133l-149 421h-2l-154 -421h305z" />
    <glyph glyph-name="Epsilon" unicode="&#x395;" horiz-adv-x="459" 
d="M116 0q-30 0 -51 20t-21 51v571q0 30 21 50t51 20h250q30 0 50 -18.5t20 -48.5q0 -32 -20 -49t-50 -17h-177v-155h164q30 0 50 -17.5t20 -49.5q0 -31 -19 -48.5t-51 -17.5h-165v-158h184q32 0 51.5 -17t19.5 -49q0 -30 -20 -48.5t-50 -18.5h-257z" />
    <glyph glyph-name="Zeta" unicode="&#x396;" horiz-adv-x="573" 
d="M112 0q-48 0 -73.5 18.5t-25.5 60.5q0 17 7 33t22 36l317 436h-260q-35 0 -55 17.5t-20 46.5t20 46.5t54 17.5h364q41 0 62 -19t21 -51t-37 -82l-310 -427h288q34 0 54 -17.5t20 -48.5q0 -32 -20 -49.5t-54 -17.5h-374z" />
    <glyph glyph-name="Eta" unicode="&#x397;" horiz-adv-x="697" 
d="M116 -6q-32 0 -52 20t-20 55v574q0 35 20 55t52 20q33 0 52.5 -20t19.5 -55v-211h320v211q0 35 20 55t52 20t52 -20t20 -55v-574q0 -35 -20 -55t-52 -20t-52 20t-20 55v229h-320v-229q0 -35 -19.5 -55t-52.5 -20z" />
    <glyph glyph-name="Theta" unicode="&#x398;" horiz-adv-x="730" 
d="M365 -14q-77 0 -140 27t-107.5 76t-68.5 117t-24 150q0 84 24.5 152.5t69.5 116.5t107.5 74.5t138.5 26.5q77 0 140 -27t107.5 -75.5t69 -116.5t24.5 -151q0 -81 -23.5 -149t-68 -117t-107.5 -76.5t-142 -27.5zM366 119q45 0 79.5 18t58 49.5t35.5 74.5t12 94t-12 95
t-35.5 75.5t-58.5 49.5t-81 18q-43 0 -77 -17t-58 -48.5t-36.5 -75t-12.5 -96.5q0 -51 12.5 -94.5t36 -75t58 -49.5t79.5 -18zM284 298q-28 0 -45.5 16t-17.5 44q0 29 18 44.5t45 15.5h162q27 0 45.5 -15.5t18.5 -44.5q0 -28 -17.5 -44t-46.5 -16h-162z" />
    <glyph glyph-name="Iota" unicode="&#x399;" horiz-adv-x="233" 
d="M116 -6q-32 0 -52 20t-20 55v574q0 35 20 55t52 20q33 0 52.5 -20t19.5 -55v-574q0 -35 -19.5 -55t-52.5 -20z" />
    <glyph glyph-name="Kappa" unicode="&#x39a;" horiz-adv-x="598" 
d="M116 -6q-32 0 -52 20t-20 55v574q0 35 20 55t52 20q33 0 52.5 -20t19.5 -55v-214l238 247q21 22 36.5 32t37.5 10q13 0 26 -5.5t23 -15t16 -22t6 -25.5q0 -18 -10.5 -34.5t-25.5 -30.5l-209 -205l251 -264q24 -24 24 -52q0 -31 -21 -50.5t-54 -19.5q-7 0 -15 1.5t-18 7
t-23 17.5t-32 33l-250 269v-253q0 -35 -19.5 -55t-52.5 -20z" />
    <glyph glyph-name="Lambda" unicode="&#x39b;" horiz-adv-x="638" 
d="M71 -6q-32 0 -50.5 16t-18.5 43q0 22 7.5 46.5t16.5 48.5l186 487q17 45 42.5 68t65.5 23q38 0 63.5 -23t42.5 -68l188 -494q8 -20 15 -42.5t7 -45.5q0 -27 -18.5 -43t-50.5 -16q-33 0 -49 18.5t-28 54.5l-168 472h-2l-172 -470q-15 -44 -31.5 -59.5t-45.5 -15.5z" />
    <glyph glyph-name="Mu" unicode="&#x39c;" horiz-adv-x="863" 
d="M88 -6q-29 0 -48.5 20.5t-19.5 47.5q0 10 5 42.5t18 107.5l68 405q9 55 34 78t67 23q26 0 43 -7.5t30 -23.5t23 -39.5t20 -56.5l102 -329h2l96 306q13 41 24.5 69.5t24.5 46.5t29.5 26t39.5 8q45 0 70.5 -22.5t35.5 -77.5l82 -486q5 -27 6.5 -44.5t1.5 -25.5
q0 -27 -18.5 -47.5t-49.5 -20.5q-42 0 -58.5 24.5t-24.5 75.5l-55 368h-2l-124 -403q-11 -35 -29 -50t-50 -15q-34 0 -50.5 16.5t-27.5 48.5l-124 402h-2l-56 -374q-4 -30 -12 -48t-19 -28t-24 -13.5t-28 -3.5z" />
    <glyph glyph-name="Nu" unicode="&#x39d;" horiz-adv-x="696" 
d="M116 -6q-32 0 -52 20t-20 55v575q0 34 20 54t52 20q26 0 41 -11t32 -32l317 -413h2v381q0 35 20 55t52 20t52 -20t20 -55v-574q0 -35 -19.5 -55t-52.5 -20q-24 0 -40.5 12t-36.5 38l-313 408h-2v-383q0 -35 -19.5 -55t-52.5 -20z" />
    <glyph glyph-name="Xi" unicode="&#x39e;" horiz-adv-x="473" 
d="M91 579q-30 0 -50 17t-20 49q0 30 20 48.5t50 18.5h291q30 0 50 -18.5t20 -48.5q0 -32 -20 -49t-50 -17h-291zM111 292q-31 0 -50 17.5t-19 48.5q0 32 19.5 49.5t49.5 17.5h251q30 0 49.5 -17.5t19.5 -49.5q0 -31 -19 -48.5t-50 -17.5h-251zM84 0q-29 0 -49 18.5
t-20 48.5q0 32 19.5 49t50.5 17h303q31 0 50.5 -17t19.5 -49q0 -30 -19.5 -48.5t-49.5 -18.5h-305z" />
    <glyph glyph-name="Omicron" unicode="&#x39f;" horiz-adv-x="730" 
d="M365 -14q-77 0 -140 27t-107.5 76t-68.5 117t-24 150q0 84 24.5 152.5t69.5 116.5t107.5 74.5t138.5 26.5q77 0 140 -27t107.5 -75.5t69 -116.5t24.5 -151q0 -81 -23.5 -149t-68 -117t-107.5 -76.5t-142 -27.5zM366 119q45 0 79.5 18t58 49.5t35.5 74.5t12 94t-12 95
t-35.5 75.5t-58.5 49.5t-81 18q-43 0 -77 -17t-58 -48.5t-36.5 -75t-12.5 -96.5q0 -51 12.5 -94.5t36 -75t58 -49.5t79.5 -18z" />
    <glyph glyph-name="Pi" unicode="&#x3a0;" horiz-adv-x="689" 
d="M116 -6q-32 0 -52 20t-20 55v573q0 30 20.5 50t52.5 20h456q29 0 50 -20t21 -49v-574q0 -35 -20 -55t-52 -20t-52 20t-20 55v510h-312v-510q0 -35 -19.5 -55t-52.5 -20z" />
    <glyph glyph-name="Rho" unicode="&#x3a1;" horiz-adv-x="563" 
d="M116 -6q-32 0 -52 20t-20 55v573q0 30 20.5 50t51.5 20h199q46 0 88.5 -15.5t75.5 -45.5t52.5 -73t19.5 -97q0 -57 -16.5 -102t-47.5 -76.5t-74 -48t-97 -16.5h-128v-169q0 -35 -19.5 -55t-52.5 -20zM287 366q51 0 83 31.5t32 76.5q0 51 -32 80.5t-83 29.5h-99v-218h99z
" />
    <glyph glyph-name="Sigma" unicode="&#x3a3;" horiz-adv-x="575" 
d="M115 0q-48 0 -73.5 18.5t-25.5 58.5q0 18 6.5 35t23.5 36l189 218l-169 194q-21 24 -30 41.5t-9 39.5q0 32 21.5 51.5t61.5 19.5h350q34 0 54 -17.5t20 -46.5t-20 -46.5t-55 -17.5h-226l131 -151q15 -17 21.5 -31t6.5 -31t-6.5 -31t-22.5 -31l-148 -176h272
q33 0 53 -17.5t20 -48.5q0 -32 -20 -49.5t-53 -17.5h-372z" />
    <glyph glyph-name="Tau" unicode="&#x3a4;" horiz-adv-x="456" 
d="M228 -6q-32 0 -52 20t-20 55v510h-103q-32 0 -52 17.5t-20 48.5q0 32 20 49.5t52 17.5h350q32 0 52 -17.5t20 -49.5q0 -31 -20 -48.5t-52 -17.5h-103v-510q0 -35 -20 -55t-52 -20z" />
    <glyph glyph-name="Upsilon" unicode="&#x3a5;" horiz-adv-x="527" 
d="M263 -6q-32 0 -52 20t-20 55v266l-146 209q-31 42 -45.5 66t-14.5 45q0 27 21.5 45t53.5 18q16 0 28 -6t21 -14.5t16 -18.5t13 -18l125 -186l129 192q25 36 42 43.5t33 7.5q32 0 53.5 -18t21.5 -45q0 -20 -13 -42.5t-44 -64.5l-150 -213v-266q0 -35 -19.5 -55t-52.5 -20z
" />
    <glyph glyph-name="Phi" unicode="&#x3a6;" horiz-adv-x="762" 
d="M381 -20q-31 0 -51 19t-20 62v14q-143 17 -220 88t-77 195q0 123 77.5 194.5t219.5 88.5v18q0 40 20 59t51 19q32 0 51 -20t19 -58v-18q146 -17 222 -89.5t76 -193.5q0 -122 -76.5 -194t-221.5 -89v-14q0 -44 -20 -62.5t-50 -18.5zM310 508q-69 -11 -105.5 -48
t-36.5 -101q0 -66 37 -102.5t105 -46.5v298zM451 210q69 11 106 48t37 101t-37 101t-106 48v-298z" />
    <glyph glyph-name="Chi" unicode="&#x3a7;" horiz-adv-x="608" 
d="M72 -6q-29 0 -49.5 20.5t-20.5 49.5q0 12 3.5 23.5t13.5 24.5l199 271l-152 205q-10 12 -18.5 28.5t-8.5 35.5q0 27 20.5 46.5t54.5 19.5q36 0 63 -39l127 -177l121 170q16 23 32 34.5t38 11.5q34 0 54 -20t20 -46q0 -20 -8 -35t-18 -28l-152 -206l181 -246
q11 -17 22.5 -33.5t11.5 -39.5q0 -32 -20.5 -51t-49.5 -19q-23 0 -38 9.5t-31 32.5l-163 224l-159 -220q-19 -26 -34.5 -36t-38.5 -10z" />
    <glyph glyph-name="Psi" unicode="&#x3a8;" horiz-adv-x="777" 
d="M387 -6q-32 0 -52 20t-20 55v69q-64 10 -116 37.5t-88.5 70.5t-56.5 99.5t-20 123.5v174q0 35 20 55t52 20q33 0 52.5 -20t19.5 -55v-172q0 -81 38.5 -128t98.5 -63v363q0 35 20 55t52 20q33 0 52.5 -20t19.5 -55v-364q62 16 101 63.5t39 128.5v172q0 35 19.5 55t52.5 20
q32 0 52 -20t20 -55v-174q0 -68 -20.5 -125t-57.5 -99.5t-89.5 -70t-116.5 -37.5v-68q0 -35 -19.5 -55t-52.5 -20z" />
    <glyph glyph-name="uni03A9" unicode="&#x3a9;" horiz-adv-x="753" 
d="M100 0q-25 0 -48 17t-23 52q0 32 22.5 48t48.5 16h46v2q-51 52 -79 116.5t-28 148.5q0 75 24.5 135t69 102.5t107 65.5t138.5 23q74 0 135.5 -21.5t106 -62.5t69.5 -101.5t25 -138.5q0 -85 -29.5 -150t-78.5 -117v-2h46q27 0 49.5 -16t22.5 -48q0 -35 -23 -52t-49 -17
h-173q-35 0 -50.5 16.5t-15.5 46.5q0 20 12.5 39t26.5 34q54 55 80 119.5t26 129.5q0 100 -49 154.5t-134 54.5t-132.5 -55t-47.5 -152q0 -66 26 -131t79 -120q14 -15 27 -34t13 -39q0 -30 -15 -46.5t-50 -16.5h-175z" />
    <glyph glyph-name="Iotadieresis" unicode="&#x3aa;" horiz-adv-x="233" 
d="M6 774q-30 0 -51 21.5t-21 50.5q0 30 21 51.5t51 21.5t51 -21.5t21 -51.5q0 -29 -21 -50.5t-51 -21.5zM227 774q-30 0 -51 21.5t-21 50.5q0 30 21 51.5t51 21.5t51 -21.5t21 -51.5q0 -29 -21 -50.5t-51 -21.5zM116 -6q-32 0 -52 20t-20 55v574q0 35 20 55t52 20
q33 0 52.5 -20t19.5 -55v-574q0 -35 -19.5 -55t-52.5 -20z" />
    <glyph glyph-name="Upsilondieresis" unicode="&#x3ab;" horiz-adv-x="527" 
d="M153 774q-30 0 -51 21.5t-21 50.5q0 30 21 51.5t51 21.5t51 -21.5t21 -51.5q0 -29 -21 -50.5t-51 -21.5zM374 774q-30 0 -51 21.5t-21 50.5q0 30 21 51.5t51 21.5t51 -21.5t21 -51.5q0 -29 -21 -50.5t-51 -21.5zM263 -6q-32 0 -52 20t-20 55v266l-146 209
q-31 42 -45.5 66t-14.5 45q0 27 21.5 45t53.5 18q16 0 28 -6t21 -14.5t16 -18.5t13 -18l125 -186l129 192q25 36 42 43.5t33 7.5q32 0 53.5 -18t21.5 -45q0 -20 -13 -42.5t-44 -64.5l-150 -213v-266q0 -35 -19.5 -55t-52.5 -20z" />
    <glyph glyph-name="alphatonos" unicode="&#x3ac;" horiz-adv-x="585" 
d="M303 590q-24 0 -43 16t-19 39q0 12 4 24l35 100q8 23 23 39t38 16q24 0 43.5 -16t19.5 -39q0 -11 -4 -24l-36 -100q-8 -23 -23 -39t-38 -16zM258 -14q-51 0 -94.5 21.5t-75.5 59t-50 89t-18 110.5t18 110t50 89t75.5 59.5t94.5 21.5q45 0 80.5 -16.5t55.5 -48.5h2l2 11
q5 18 21 32t42 14q32 0 51 -21.5t19 -50.5v-265q0 -19 3.5 -37t14.5 -37l7 -14q14 -24 14 -49q0 -29 -20.5 -49t-51.5 -20q-43 0 -70 42l-8 12q-6 9 -10 21h-2q-18 -27 -36.5 -43.5t-37.5 -25.5t-38.5 -12t-37.5 -3zM276 118q54 0 85 41.5t31 106.5q0 64 -30.5 106t-86.5 42
q-26 0 -47.5 -11t-36.5 -31t-23 -47t-8 -59q0 -65 31 -106.5t85 -41.5z" />
    <glyph glyph-name="epsilontonos" unicode="&#x3ad;" horiz-adv-x="479" 
d="M263 590q-25 0 -44 16t-19 39q0 13 5 24l35 100q8 23 23 39t38 16t42.5 -16t19.5 -39q0 -11 -4 -24l-35 -100q-8 -23 -23 -39t-38 -16zM250 -14q-56 0 -98.5 12.5t-71 34t-43 51.5t-14.5 65q0 42 27 75.5t89 51.5v2q-45 16 -67.5 46t-22.5 72q0 33 14.5 60.5t40 47.5
t61 31t77.5 11q47 0 89 -9.5t71 -27.5q21 -13 33.5 -29.5t12.5 -37.5q0 -25 -16 -40t-42 -15q-11 0 -22.5 5t-25.5 11q-17 9 -38.5 17t-48.5 8q-32 0 -50 -12.5t-18 -36.5q0 -45 105 -50q71 -4 71 -56q0 -23 -15 -39.5t-50 -16.5q-27 0 -52 -2.5t-44 -8.5t-30 -17.5
t-11 -29.5q0 -24 22 -39t67 -15q28 0 57.5 8t55.5 24q28 17 50 17q25 0 41.5 -18t16.5 -46q0 -17 -12 -32t-32 -28q-30 -20 -76 -32t-101 -12z" />
    <glyph glyph-name="etatonos" unicode="&#x3ae;" horiz-adv-x="556" 
d="M282 590q-24 0 -43 16t-19 39q0 12 4 24l35 100q8 23 23 39t38 16q24 0 43.5 -16t19.5 -39q0 -11 -5 -24l-35 -100q-8 -23 -23 -39t-38 -16zM444 -221q-30 0 -49.5 21.5t-19.5 50.5v479q0 41 -25.5 69t-69.5 28t-69.5 -29t-25.5 -71v-261q0 -30 -19.5 -51t-50.5 -21
q-30 0 -49.5 21t-19.5 51v278q0 37 -18 70l-7 12q-13 23 -13 46q0 27 19.5 46.5t48.5 19.5q40 0 66 -40l8 -11q7 -12 11 -26h2q26 41 64.5 63t94.5 22q44 0 79 -13t60.5 -36.5t39 -57t13.5 -74.5v-514q0 -29 -19.5 -50.5t-50.5 -21.5z" />
    <glyph glyph-name="iotatonos" unicode="&#x3af;" horiz-adv-x="238" 
d="M119 590q-25 0 -44 16t-19 39q0 13 5 24l35 100q8 23 23 39t38 16t42.5 -16t19.5 -39q0 -11 -4 -24l-35 -100q-8 -23 -23 -39t-38 -16zM145 -5q-41 0 -70 42l-7 12q-11 16 -20 45.5t-9 67.5v304q0 30 19.5 51t50.5 21q32 0 50.5 -21t18.5 -51v-265q0 -19 3.5 -37
t14.5 -37l8 -14q14 -26 14 -49q0 -31 -21 -50t-52 -19z" />
    <glyph glyph-name="upsilondieresistonos" unicode="&#x3b0;" horiz-adv-x="564" 
d="M276 711q-24 0 -44 16.5t-19 39.5q0 11 4 23l36 101q8 23 23 39t38 16t42.5 -16.5t19.5 -39.5q0 -11 -4 -23l-35 -100q-8 -23 -23 -39.5t-38 -16.5zM162 574q-30 0 -51 21.5t-21 50.5q0 30 21 51.5t51 21.5t51 -21.5t21 -51.5q0 -29 -21 -50.5t-51 -21.5zM383 574
q-30 0 -51 21.5t-21 50.5q0 30 21 51.5t51 21.5t51 -21.5t21 -51.5q0 -29 -21 -50.5t-51 -21.5zM277 -14q-111 0 -173 70.5t-62 199.5v210q0 30 19.5 51t50.5 21q30 0 49.5 -21t19.5 -51v-188q0 -87 25.5 -126t73.5 -39q57 0 86.5 46t29.5 144q0 32 -5 56.5t-11 44t-11 34.5
t-5 29q0 28 19 50t51 22q24 0 42 -15t27 -38q15 -38 24.5 -84.5t9.5 -102.5q0 -73 -19 -131t-53.5 -98.5t-82.5 -62t-105 -21.5z" />
    <glyph glyph-name="alpha" unicode="&#x3b1;" horiz-adv-x="585" 
d="M258 -14q-51 0 -94.5 21.5t-75.5 59t-50 89t-18 110.5t18 110t50 89t75.5 59.5t94.5 21.5q45 0 80.5 -16.5t55.5 -48.5h2l2 11q5 18 21 32t42 14q32 0 51 -21.5t19 -50.5v-265q0 -19 3.5 -37t14.5 -37l7 -14q14 -24 14 -49q0 -29 -20.5 -49t-51.5 -20q-43 0 -70 42l-8 12
q-6 9 -10 21h-2q-18 -27 -36.5 -43.5t-37.5 -25.5t-38.5 -12t-37.5 -3zM276 118q54 0 85 41.5t31 106.5q0 64 -30.5 106t-86.5 42q-26 0 -47.5 -11t-36.5 -31t-23 -47t-8 -59q0 -65 31 -106.5t85 -41.5z" />
    <glyph glyph-name="beta" unicode="&#x3b2;" horiz-adv-x="564" 
d="M109 -221q-31 0 -50 21t-19 51v693q0 48 15.5 89t45 71.5t72 48t97.5 17.5q44 0 84.5 -12t71.5 -35.5t49 -59t18 -83.5q0 -63 -30.5 -102.5t-79.5 -62.5v-2q81 -23 118.5 -74t37.5 -124q0 -58 -18.5 -101.5t-49.5 -71.5t-72 -42t-86 -14q-43 0 -74.5 10.5t-57.5 32.5h-2
v-178q0 -30 -19.5 -51t-50.5 -21zM288 108q47 0 76 31t29 87t-29.5 84.5t-87.5 38.5q-24 5 -40.5 16t-16.5 41q0 26 16 37.5t39 19.5q33 11 56.5 30.5t23.5 61.5q0 36 -22 59t-64 23q-48 0 -68.5 -30.5t-20.5 -83.5v-265q0 -77 29.5 -113.5t79.5 -36.5z" />
    <glyph glyph-name="gamma" unicode="&#x3b3;" horiz-adv-x="498" 
d="M234 -221q-31 0 -50.5 21t-19.5 51v191l-90 266q-8 25 -22.5 53t-30.5 48l-11 16q-18 24 -18 47q0 25 20.5 46.5t47.5 21.5q17 0 33 -9.5t30 -29.5l11 -15q17 -23 32.5 -51.5t28.5 -70.5l63 -191h1q20 35 36 73.5t27 77t17 75t6 67.5q0 30 19.5 51t49.5 21q32 0 51 -21
t19 -51q0 -48 -13 -107.5t-36.5 -121.5t-57 -120.5t-74.5 -105.5v-160q0 -30 -19.5 -51t-49.5 -21z" />
    <glyph glyph-name="delta" unicode="&#x3b4;" horiz-adv-x="542" 
d="M264 -14q-114 0 -180 61.5t-66 179.5q0 42 11 77t30 63.5t44.5 51t55.5 39.5q-27 23 -44.5 55t-17.5 82q0 77 53 126t157 49q37 0 70 -5.5t59 -18.5q23 -11 37.5 -29t14.5 -43q0 -28 -16 -47t-42 -19q-11 0 -20.5 3t-20.5 6q-17 7 -37.5 13.5t-50.5 6.5q-29 0 -46 -12
t-17 -37q0 -22 21 -39.5t53 -35.5t69 -39.5t69 -53.5t53 -77.5t21 -109.5q0 -60 -19 -106t-53 -77.5t-82 -47.5t-106 -16zM265 113q51 0 85 30t34 84q0 35 -10.5 61t-27.5 45.5t-40 34.5t-47 28q-48 -32 -74.5 -73.5t-26.5 -85.5q0 -59 27 -91.5t80 -32.5z" />
    <glyph glyph-name="epsilon" unicode="&#x3b5;" horiz-adv-x="479" 
d="M250 -14q-56 0 -98.5 12.5t-71 34t-43 51.5t-14.5 65q0 42 27 75.5t89 51.5v2q-45 16 -67.5 46t-22.5 72q0 33 14.5 60.5t40 47.5t61 31t77.5 11q47 0 89 -9.5t71 -27.5q21 -13 33.5 -29.5t12.5 -37.5q0 -25 -16 -40t-42 -15q-11 0 -22.5 5t-25.5 11q-17 9 -38.5 17
t-48.5 8q-32 0 -50 -12.5t-18 -36.5q0 -45 105 -50q71 -4 71 -56q0 -23 -15 -39.5t-50 -16.5q-27 0 -52 -2.5t-44 -8.5t-30 -17.5t-11 -29.5q0 -24 22 -39t67 -15q28 0 57.5 8t55.5 24q28 17 50 17q25 0 41.5 -18t16.5 -46q0 -17 -12 -32t-32 -28q-30 -20 -76 -32t-101 -12z
" />
    <glyph glyph-name="zeta" unicode="&#x3b6;" horiz-adv-x="475" 
d="M376 -171q-31 0 -48.5 21.5t-17.5 50.5v101q-61 5 -112.5 24.5t-88.5 55t-57.5 86.5t-20.5 120q0 57 13.5 103.5t40 88.5t66 82t92.5 84v2h-82q-30 0 -50.5 13.5t-20.5 47.5q0 35 20.5 48.5t49.5 13.5h249q32 0 48 -14t16 -38q0 -17 -8.5 -31.5t-19.5 -22.5
q-67 -53 -117.5 -98t-84 -87.5t-50 -85t-16.5 -89.5q0 -98 50.5 -139.5t161.5 -41.5q23 0 38.5 -14.5t15.5 -37.5v-170q0 -29 -18 -51t-49 -22z" />
    <glyph glyph-name="eta" unicode="&#x3b7;" horiz-adv-x="556" 
d="M444 -221q-30 0 -49.5 21.5t-19.5 50.5v479q0 41 -25.5 69t-69.5 28t-69.5 -29t-25.5 -71v-261q0 -30 -19.5 -51t-50.5 -21q-30 0 -49.5 21t-19.5 51v278q0 37 -18 70l-7 12q-13 23 -13 46q0 27 19.5 46.5t48.5 19.5q40 0 66 -40l8 -11q7 -12 11 -26h2q26 41 64.5 63
t94.5 22q44 0 79 -13t60.5 -36.5t39 -57t13.5 -74.5v-514q0 -29 -19.5 -50.5t-50.5 -21.5z" />
    <glyph glyph-name="theta" unicode="&#x3b8;" horiz-adv-x="540" 
d="M270 -14q-65 0 -112 30t-77.5 82.5t-45 124t-14.5 155.5t14.5 156t45.5 124.5t78 82t111 29.5t111 -29.5t77.5 -81.5t45.5 -124t15 -157q0 -84 -14.5 -155.5t-45 -124t-77.5 -82.5t-112 -30zM377 437q-2 45 -9 82t-19.5 63.5t-32 41.5t-47.5 15q-53 0 -77 -55.5
t-29 -146.5h214zM270 118q28 0 48 16t32.5 44.5t19 68.5t8.5 88h-216q2 -48 8.5 -88t19.5 -68.5t32.5 -44.5t47.5 -16z" />
    <glyph glyph-name="iota" unicode="&#x3b9;" horiz-adv-x="238" 
d="M145 -5q-41 0 -70 42l-7 12q-11 16 -20 45.5t-9 67.5v304q0 30 19.5 51t50.5 21q32 0 50.5 -21t18.5 -51v-265q0 -19 3.5 -37t14.5 -37l8 -14q14 -26 14 -49q0 -31 -21 -50t-52 -19z" />
    <glyph glyph-name="kappa" unicode="&#x3ba;" horiz-adv-x="511" 
d="M112 -6q-31 0 -50.5 21t-19.5 51v400q0 30 19.5 51t50.5 21q30 0 49.5 -21t19.5 -51v-129l41 49q32 45 70.5 80.5t76.5 55.5q33 19 65 19q27 0 46 -19.5t19 -48.5q0 -23 -18 -40.5t-50 -31.5t-64 -40t-53 -55l-32 -34l187 -149q16 -13 29 -30t13 -39q0 -26 -19.5 -42.5
t-47.5 -16.5q-18 0 -34 8t-38 26l-192 164v-127q0 -30 -19 -51t-49 -21z" />
    <glyph glyph-name="lambda" unicode="&#x3bb;" horiz-adv-x="535" 
d="M66 -5q-26 0 -46.5 17.5t-20.5 46.5q0 11 5 28t20 49l179 391l-10 29q-7 20 -23.5 43t-50.5 46q-19 14 -26.5 27.5t-7.5 27.5q0 26 19.5 48t47.5 22t56 -20q42 -29 69 -65t44 -85l123 -365q11 -32 24 -57t31 -44l15 -16q16 -17 22.5 -30.5t6.5 -26.5q0 -25 -21 -45
t-47 -20q-29 0 -54 26l-16 16q-26 26 -47.5 62t-36.5 82l-54 162h-3l-122 -280q-9 -25 -26.5 -47t-49.5 -22z" />
    <glyph glyph-name="uni03BC" unicode="&#x3bc;" horiz-adv-x="562" 
d="M109 -221q-31 0 -50 21t-19 50v616q0 30 19 51t50 21t50.5 -21t19.5 -51v-251q0 -48 25 -75t70 -27t69.5 27t24.5 75v251q0 29 19.5 50.5t50.5 21.5t50.5 -21.5t19.5 -50.5v-266q0 -22 4 -39.5t14 -34.5l7 -13q14 -25 14 -49q0 -29 -20.5 -49t-51.5 -20q-40 0 -64 35
l-9 12q-2 3 -4.5 7.5t-3.5 7.5h-2q-29 -38 -62.5 -53.5t-65.5 -15.5q-26 0 -45.5 5.5t-37.5 19.5h-2v-163q0 -29 -19.5 -50t-50.5 -21z" />
    <glyph glyph-name="nu" unicode="&#x3bd;" horiz-adv-x="482" 
d="M220 -6q-32 0 -51 15.5t-28 40.5l-117 325q-9 24 -14 39.5t-7.5 25t-3 16t-0.5 13.5q0 29 21 49t50 20q17 0 35 -9t31 -48l103 -308h1q21 35 37 73.5t27.5 77t17.5 75t6 67.5q0 30 19.5 51t50.5 21q32 0 50.5 -21t18.5 -51q0 -52 -13 -109.5t-34.5 -113.5t-49 -107
t-57.5 -90q-16 -21 -35.5 -36.5t-57.5 -15.5z" />
    <glyph glyph-name="xi" unicode="&#x3be;" horiz-adv-x="472" 
d="M372 -171q-30 0 -47 21.5t-17 50.5v101q-63 3 -114 17t-87 39.5t-56 64t-20 90.5q0 63 34.5 114.5t117.5 81.5v3q-45 14 -71.5 41.5t-26.5 72.5q0 40 18.5 68.5t59.5 51.5l-1 2h-22q-30 0 -50.5 13.5t-20.5 47.5q0 35 20.5 48.5t49.5 13.5h259q35 0 50.5 -16t15.5 -40
q0 -21 -12 -39.5t-47 -22.5q-41 -4 -75.5 -12.5t-59 -21.5t-38.5 -32.5t-14 -46.5q0 -43 33.5 -58t94.5 -16q36 -1 54 -16t18 -41q0 -24 -15.5 -40t-50.5 -18q-35 -1 -65.5 -9t-53.5 -22t-36.5 -35.5t-13.5 -51.5q0 -33 14 -54t40.5 -33t64 -17t84.5 -5q23 0 38.5 -14.5
t15.5 -37.5v-170q0 -29 -18.5 -51t-49.5 -22z" />
    <glyph glyph-name="omicron" unicode="&#x3bf;" 
d="M276 -14q-57 0 -104.5 21.5t-81 59t-52 88.5t-18.5 111t18.5 111t52.5 88.5t81 59t104 21.5q56 0 103 -21t81 -58.5t53 -88.5t19 -112q0 -60 -18.5 -111t-52 -88.5t-81 -59t-104.5 -21.5zM276 118q54 0 85 41.5t31 106.5q0 64 -30.5 106t-86.5 42q-53 0 -84 -41.5
t-31 -106.5t31 -106.5t85 -41.5z" />
    <glyph glyph-name="pi" unicode="&#x3c0;" horiz-adv-x="635" 
d="M498 -5q-41 0 -70 42l-8 12q-10 16 -19 45.5t-9 67.5v242h-156v-340q0 -24 -18 -44.5t-56 -20.5q-34 0 -50.5 20t-16.5 45v340h-16q-34 0 -55 17t-21 48q0 32 22 47.5t48 15.5h495q26 0 48 -15.5t22 -47.5q0 -31 -20.5 -48t-55.5 -17h-31v-203q0 -19 3.5 -37t14.5 -37
l7 -14q15 -25 15 -49q0 -29 -21 -49t-52 -20z" />
    <glyph glyph-name="rho" unicode="&#x3c1;" horiz-adv-x="562" 
d="M101 -221q-31 0 -50.5 21t-19.5 50v414q0 60 15.5 111.5t46.5 89.5t77.5 59.5t108.5 21.5q54 0 101.5 -18t83.5 -53t57 -87t21 -120q0 -61 -17 -112.5t-48 -89t-75 -59t-97 -21.5q-38 0 -72 12t-60 38h-3v-186q0 -29 -19 -50t-50 -21zM290 118q54 0 83 41.5t29 108.5
q0 66 -32 106t-89 40q-52 0 -81.5 -41.5t-29.5 -106.5t33 -106.5t87 -41.5z" />
    <glyph glyph-name="uni03C2" unicode="&#x3c2;" horiz-adv-x="465" 
d="M355 -171q-31 0 -48 21.5t-17 50.5v103q-124 15 -197 87t-73 198q0 54 18 101t51 81.5t78.5 54.5t100.5 20q36 0 69 -6t59 -18q26 -11 41.5 -29t15.5 -41q0 -28 -16.5 -47t-42.5 -19q-11 0 -20 3t-20 7q-14 6 -31.5 11.5t-49.5 5.5q-56 0 -84.5 -35t-28.5 -87
q0 -82 52.5 -124.5t155.5 -42.5q23 0 38.5 -14.5t15.5 -37.5v-170q0 -29 -18 -51t-49 -22z" />
    <glyph glyph-name="sigma" unicode="&#x3c3;" horiz-adv-x="603" 
d="M284 -14q-64 0 -113.5 21.5t-83 59.5t-50.5 89.5t-17 111.5t17 108.5t49.5 83t80 53.5t107.5 19h249q29 0 49.5 -15t20.5 -49q0 -35 -20 -49.5t-51 -14.5h-47q57 -68 57 -165q0 -56 -16.5 -102.5t-48 -80t-78 -52t-105.5 -18.5zM279 118q54 0 83.5 36t29.5 100
q0 30 -8 57.5t-23.5 48t-37.5 32.5t-50 12q-53 0 -83 -35.5t-30 -100.5q0 -32 8.5 -59.5t24 -47.5t37.5 -31.5t49 -11.5z" />
    <glyph glyph-name="tau" unicode="&#x3c4;" horiz-adv-x="461" 
d="M268 -5q-41 0 -70 42l-7 12q-11 16 -20 45.5t-9 67.5v242h-80q-34 0 -55 17t-21 48q0 32 22 47.5t48 15.5h312q26 0 46.5 -15.5t20.5 -47.5q0 -31 -19 -48t-54 -17h-81v-203q0 -19 3.5 -37t14.5 -37l8 -14q14 -26 14 -49q0 -29 -21 -49t-52 -20z" />
    <glyph glyph-name="upsilon" unicode="&#x3c5;" horiz-adv-x="564" 
d="M277 -14q-111 0 -173 70.5t-62 199.5v210q0 30 19.5 51t50.5 21q30 0 49.5 -21t19.5 -51v-188q0 -87 25.5 -126t73.5 -39q57 0 86.5 46t29.5 144q0 32 -5 56.5t-11 44t-11 34.5t-5 29q0 28 19 50t51 22q24 0 42 -15t27 -38q15 -38 24.5 -84.5t9.5 -102.5q0 -73 -19 -131
t-53.5 -98.5t-82.5 -62t-105 -21.5z" />
    </font>
</defs>
</svg>
