<svg width="23" height="22" viewBox="0 0 23 22" fill="none" xmlns="http://www.w3.org/2000/svg">
<g clip-path="url(#clip0)">
<path d="M11.5 0.3125C5.15893 0.3125 0 4.99413 0 10.7485C0 16.5025 5.15893 21.1846 11.5 21.1846C17.8406 21.1846 23 16.5025 23 10.7485C23 4.99413 17.8415 0.3125 11.5 0.3125ZM16.6302 8.36001C16.6353 8.46342 16.6381 8.56767 16.6381 8.67192C16.6381 11.8461 13.9764 15.505 9.10652 15.505C7.6117 15.505 6.22017 15.1086 5.04914 14.4267C5.2562 14.449 5.46697 14.4604 5.68052 14.4604C6.92103 14.4604 8.06195 14.0762 8.96802 13.4322C7.80996 13.4128 6.83209 12.7184 6.49533 11.7637C6.65653 11.7915 6.82283 11.807 6.99283 11.807C7.23417 11.807 7.46856 11.7784 7.69044 11.7234C6.47958 11.5031 5.56749 10.5325 5.56749 9.36805C5.56749 9.35796 5.56749 9.34745 5.56795 9.33778C5.92464 9.51728 6.33274 9.62573 6.76631 9.63793C6.05665 9.20789 5.58926 8.47225 5.58926 7.63908C5.58926 7.19853 5.71943 6.78573 5.94733 6.43094C7.25223 7.88457 9.20333 8.84049 11.4027 8.94138C11.3573 8.76524 11.3346 8.58238 11.3346 8.39364C11.3346 7.06738 12.5196 5.99166 13.981 5.99166C14.7426 5.99166 15.4295 6.2834 15.9131 6.75C16.5167 6.64239 17.0819 6.44313 17.5946 6.16695C17.3955 6.72814 16.9772 7.19853 16.4292 7.49615C16.9651 7.43814 17.4765 7.30951 17.9495 7.11824C17.5965 7.59914 17.1476 8.02245 16.6302 8.36001Z" fill="white"/>
</g>
<defs>
<clipPath id="clip0">
<rect width="23" height="20.8721" fill="white" transform="translate(0 0.3125)"/>
</clipPath>
</defs>
</svg>
