<?xml version="1.0" standalone="no"?>
<!DOCTYPE svg PUBLIC "-//W3C//DTD SVG 1.1//EN" "http://www.w3.org/Graphics/SVG/1.1/DTD/svg11.dtd" >
<svg xmlns="http://www.w3.org/2000/svg" xmlns:xlink="http://www.w3.org/1999/xlink" version="1.1">
<metadata>
Created by FontForge 20170910 at Mon Jan 25 17:37:10 2016
 By Jimmy Wärting
Copyright \\\(C\\\)2015 Commercial Type.
</metadata>
<defs>
<font id="SanomatSansVN-Medium" horiz-adv-x="675" >
  <font-face 
    font-family="Sanomat Sans VN Medium"
    font-weight="500"
    font-stretch="normal"
    units-per-em="1000"
    panose-1="0 0 0 0 0 0 0 0 0 0"
    ascent="790"
    descent="-210"
    x-height="537"
    cap-height="705"
    bbox="-240 -228 1230 1122"
    underline-thickness="68"
    underline-position="-73"
    stemh="114"
    stemv="133"
    unicode-range="U+0020-FB04"
  />
<missing-glyph horiz-adv-x="500" 
 />
    <glyph glyph-name="f_f" unicode="ff" horiz-adv-x="664" 
d="M389 0v437h-171v-437h-133v437h-66v100h66v30c0 143 99 181 189 181c39 0 56 -4 65 -7v-92c-8 1 -20 2 -42 2c-40 0 -79 -20 -79 -89v-25h171v39c0 144 101 181 194 181c41 0 64 -4 75 -7v-92c-8 1 -21 3 -52 3c-40 0 -84 -20 -84 -91v-33h116v-100h-116v-437h-133z" />
    <glyph glyph-name="f_f_i" unicode="ffi" horiz-adv-x="914" 
d="M722 621v117h135v-117h-135zM723 0v537h133v-537h-133zM389 0v437h-171v-437h-133v437h-66v100h66v30c0 143 99 181 189 181c39 0 56 -4 65 -7v-92c-8 1 -20 2 -42 2c-40 0 -79 -20 -79 -89v-25h171v39c0 144 101 181 194 181c38 0 60 -3 71 -7v-92c-8 1 -21 3 -48 3
c-41 0 -84 -20 -84 -91v-33h116v-100h-116v-437h-133z" />
    <glyph glyph-name="f_f_l" unicode="ffl" horiz-adv-x="914" 
d="M723 0v727l133 27v-754h-133zM389 0v437h-171v-437h-133v437h-66v100h66v30c0 143 99 181 189 181c39 0 56 -4 65 -7v-92c-8 1 -20 2 -42 2c-40 0 -79 -20 -79 -89v-25h171v39c0 144 101 181 194 181c38 0 60 -3 71 -7v-92c-8 1 -21 3 -48 3c-41 0 -84 -20 -84 -91v-33
h116v-100h-116v-437h-133z" />
    <glyph glyph-name="f_i" unicode="fi" horiz-adv-x="611" 
d="M418 621v117h135v-117h-135zM419 0v537h134v-537h-134zM334 437h-116v-437h-133v437h-66v100h66v39c0 144 101 181 194 181c38 0 60 -3 72 -7v-92c-9 1 -22 3 -49 3c-41 0 -84 -20 -84 -91v-33h116v-100z" />
    <glyph glyph-name="f_l" unicode="fl" horiz-adv-x="611" 
d="M419 0v727l134 27v-754h-134zM334 437h-116v-437h-133v437h-66v100h66v39c0 144 101 181 194 181c38 0 60 -3 72 -7v-92c-9 1 -22 3 -49 3c-41 0 -84 -20 -84 -91v-33h116v-100z" />
    <glyph glyph-name=".notdef" horiz-adv-x="500" 
 />
    <glyph glyph-name="space" unicode=" " horiz-adv-x="222" 
 />
    <glyph glyph-name="exclam" unicode="!" horiz-adv-x="251" 
d="M73 220l-19 485h144l-20 -485h-105zM53 0v128h144v-128h-144z" />
    <glyph glyph-name="quotedbl" unicode="&#x22;" horiz-adv-x="371" 
d="M162 705l-19 -235h-90l-18 235h127zM336 705l-18 -235h-90l-19 235h127z" />
    <glyph glyph-name="numbersign" unicode="#" horiz-adv-x="546" 
d="M315 289l16 126h-99l-17 -126h100zM278 0l22 176h-100l-23 -176h-96l22 176h-93v113h108l16 126h-95v113h109l21 162h99l-21 -162h98l21 162h99l-21 -162h92v-113h-106l-16 -126h93v-113h-108l-22 -176h-99z" />
    <glyph glyph-name="dollar" unicode="$" horiz-adv-x="525" 
d="M158 514c0 -43 19 -69 75 -90l30 170c-71 -1 -105 -32 -105 -80zM357 185c0 47 -23 66 -76 87l-31 -179c68 4 107 38 107 92zM241 -13h-9l-21 -118h-79l22 125c-51 9 -89 26 -119 43v120l5 2c41 -27 81 -49 132 -60l34 198c-110 37 -174 95 -174 197
c0 130 96 205 232 205h17l15 84h79l-16 -93c36 -7 65 -18 90 -32v-113l-5 -2c-34 20 -66 35 -103 43l-33 -187c123 -38 185 -81 185 -198c0 -138 -99 -214 -252 -214z" />
    <glyph glyph-name="percent" unicode="%" horiz-adv-x="807" 
d="M196 349c-102 0 -174 72 -174 175c0 100 72 174 174 174c103 0 174 -74 174 -174c0 -103 -71 -175 -174 -175zM131 0l463 690h85l-463 -690h-85zM196 428c47 0 74 40 74 96c0 55 -27 95 -74 95s-74 -40 -74 -95c0 -56 27 -96 74 -96zM611 -13c-102 0 -175 72 -175 175
c0 100 73 174 175 174c103 0 174 -74 174 -174c0 -103 -71 -175 -174 -175zM611 66c47 0 73 41 73 96s-26 95 -73 95s-74 -40 -74 -95s27 -96 74 -96z" />
    <glyph glyph-name="ampersand" unicode="&#x26;" horiz-adv-x="679" 
d="M291 88c48 0 83 17 111 40l-179 220c-45 -27 -71 -75 -71 -128c0 -76 49 -132 139 -132zM506 0l-43 54c-43 -39 -98 -69 -187 -69c-158 0 -256 89 -256 225c0 102 58 174 150 213c-17 32 -28 66 -28 110c0 97 74 185 208 185c67 0 107 -11 143 -28v-112l-6 -3
c-32 16 -62 29 -111 29c-58 0 -92 -30 -92 -75c0 -43 26 -75 63 -123l134 -165c16 50 25 117 30 172h116c-4 -78 -21 -193 -65 -272l108 -134v-7h-164z" />
    <glyph glyph-name="quotesingle" unicode="'" horiz-adv-x="197" 
d="M162 705l-19 -235h-90l-18 235h127z" />
    <glyph glyph-name="parenleft" unicode="(" horiz-adv-x="338" 
d="M206 -170c-104 128 -170 275 -170 473c0 199 66 343 170 471h122c-89 -127 -158 -268 -158 -471s69 -346 158 -473h-122z" />
    <glyph glyph-name="parenright" unicode=")" horiz-adv-x="338" 
d="M10 -170c89 127 158 270 158 473s-69 344 -158 471h122c104 -128 170 -272 170 -471c0 -198 -66 -345 -170 -473h-122z" />
    <glyph glyph-name="asterisk" unicode="*" horiz-adv-x="398" 
d="M328 424l-97 77l17 -124h-99l17 123l-97 -76l-45 81l116 47l-116 48l45 81l97 -76l-17 123h99l-17 -124l97 77l46 -81l-115 -47l115 -48z" />
    <glyph glyph-name="plus" unicode="+" horiz-adv-x="530" 
d="M213 114v183h-167v98h167v183h104v-183h167v-98h-167v-183h-104z" />
    <glyph glyph-name="comma" unicode="," horiz-adv-x="249" 
d="M28 -114l35 242h143l3 -9l-79 -233h-102z" />
    <glyph glyph-name="hyphen" unicode="-" horiz-adv-x="329" 
d="M36 252v111h257v-111h-257z" />
    <glyph glyph-name="period" unicode="." horiz-adv-x="248" 
d="M52 0v128h144v-128h-144z" />
    <glyph glyph-name="slash" unicode="/" horiz-adv-x="416" 
d="M291 774h110l-310 -944h-111z" />
    <glyph glyph-name="zero" unicode="0" horiz-adv-x="627" 
d="M314 -12c-169 0 -285 134 -286 357c0 223 117 352 286 352s285 -129 286 -352c0 -223 -117 -357 -286 -357zM314 97c89 0 140 84 140 248s-51 243 -140 243c-88 0 -140 -79 -140 -243s52 -248 140 -248z" />
    <glyph glyph-name="one" unicode="1" horiz-adv-x="363" 
d="M284 0h-140v533l-120 -70l-6 3v119l192 111h74v-696z" />
    <glyph glyph-name="two" unicode="2" horiz-adv-x="489" 
d="M16 0v61l211 244c56 64 87 121 87 183c0 54 -31 98 -110 98c-69 0 -109 -18 -162 -51l-6 3v111c46 29 101 48 189 48c136 0 228 -72 228 -199c0 -94 -54 -172 -127 -258l-120 -134h255v-106h-445z" />
    <glyph glyph-name="three" unicode="3" horiz-adv-x="503" 
d="M233 -12c-108 0 -165 28 -208 53v113l5 3c57 -37 104 -58 186 -58c84 0 121 42 121 101s-32 103 -128 103h-74v103h65c90 0 116 43 116 94c0 57 -36 89 -111 89c-72 0 -106 -15 -159 -47l-6 3v107c45 28 96 45 187 45c126 0 225 -58 225 -183c0 -76 -41 -126 -112 -152
c87 -22 136 -78 136 -167c0 -129 -91 -207 -243 -207z" />
    <glyph glyph-name="four" unicode="4" horiz-adv-x="558" 
d="M316 248v221l-160 -221h160zM551 146h-98v-146h-137v146h-313v60l355 488h95v-446h98v-102z" />
    <glyph glyph-name="five" unicode="5" horiz-adv-x="493" 
d="M210 -12c-91 0 -154 23 -196 50v111l6 3c54 -36 99 -55 170 -55c95 0 135 46 135 116c0 72 -47 109 -145 109c-63 0 -100 -12 -126 -20l-7 3v382h385v-105h-267v-160c17 3 35 4 54 4c153 0 245 -80 245 -210c0 -138 -92 -228 -254 -228z" />
    <glyph glyph-name="six" unicode="6" horiz-adv-x="561" 
d="M540 217c0 -125 -82 -229 -241 -229c-170 0 -269 119 -269 327c0 260 137 382 310 382c62 0 114 -9 154 -32v-116l-7 -3c-33 24 -77 42 -136 42c-99 0 -166 -59 -179 -210c34 29 86 54 156 54c116 0 212 -75 212 -215zM296 94c77 0 106 55 106 124c0 79 -41 117 -114 117
c-47 0 -87 -17 -119 -42c5 -136 45 -199 127 -199z" />
    <glyph glyph-name="seven" unicode="7" horiz-adv-x="494" 
d="M230 0h-141c33 154 104 300 173 436l70 140h-314v111h469v-66l-101 -207c-70 -143 -131 -289 -156 -414z" />
    <glyph glyph-name="eight" unicode="8" horiz-adv-x="549" 
d="M278 -12c-157 0 -255 75 -255 190c0 80 59 137 129 164c-69 36 -109 94 -109 166c0 119 104 189 227 189c131 0 236 -55 236 -183c0 -70 -51 -121 -111 -149c83 -37 131 -89 131 -177c0 -124 -95 -200 -248 -200zM300 399l5 -2c49 29 75 67 75 109c0 59 -43 93 -107 93
c-62 0 -99 -36 -99 -86c0 -44 33 -83 126 -114zM275 88c75 0 116 39 116 94c0 54 -38 88 -143 123l-6 2c-51 -25 -88 -60 -88 -118c0 -65 44 -101 121 -101z" />
    <glyph glyph-name="nine" unicode="9" horiz-adv-x="560" 
d="M272 350c48 0 86 16 119 42c-4 137 -41 200 -123 200c-77 0 -110 -53 -110 -122c0 -80 37 -120 114 -120zM208 -12c-62 0 -115 11 -155 33v115l6 3c34 -24 80 -42 138 -42c112 0 179 50 192 209c-34 -30 -84 -53 -156 -53c-119 0 -213 72 -213 217c0 125 88 227 245 227
c169 0 265 -116 265 -327c0 -275 -134 -382 -322 -382z" />
    <glyph glyph-name="colon" unicode=":" horiz-adv-x="254" 
d="M55 347v127h144v-127h-144zM55 0v128h144v-128h-144z" />
    <glyph glyph-name="semicolon" unicode=";" horiz-adv-x="255" 
d="M61 347v127h143v-127h-143zM28 -114l36 242h142l3 -9l-78 -233h-103z" />
    <glyph glyph-name="less" unicode="&#x3c;" horiz-adv-x="509" 
d="M441 99l-390 214v65l390 213l4 -3v-113l-243 -130l243 -130v-113z" />
    <glyph glyph-name="equal" unicode="=" horiz-adv-x="532" 
d="M57 360v94h418v-94h-418zM57 170v94h418v-94h-418z" />
    <glyph glyph-name="greater" unicode="&#x3e;" horiz-adv-x="509" 
d="M68 99l-4 3v113l243 130l-243 130v113l4 3l390 -214v-65z" />
    <glyph glyph-name="question" unicode="?" horiz-adv-x="461" 
d="M34 672c40 26 96 46 177 46c124 0 212 -61 212 -182c0 -87 -40 -139 -106 -192c-38 -32 -62 -55 -62 -102v-22h-124v25c0 80 27 118 90 171c42 34 64 60 64 111c0 44 -29 77 -92 77c-66 0 -107 -19 -153 -50l-6 3v115zM120 0v128h145v-128h-145z" />
    <glyph glyph-name="at" unicode="@" horiz-adv-x="902" 
d="M464 -180c-271 0 -436 178 -436 411c0 271 193 460 444 460c246 0 403 -163 403 -378c0 -186 -96 -283 -211 -283c-69 0 -118 25 -139 72c-33 -44 -76 -72 -133 -72c-107 0 -172 83 -172 194c0 149 92 254 215 254c50 0 87 -21 113 -54l5 42h117l-34 -281
c-9 -68 15 -86 50 -86c52 0 116 55 116 214c0 193 -131 315 -332 315c-194 0 -369 -149 -369 -402c0 -197 136 -342 364 -342c88 0 143 17 194 45l5 -2v-64c-54 -30 -114 -43 -200 -43zM424 129c36 0 66 12 91 40v1l22 169c-25 30 -48 41 -86 41c-66 0 -108 -62 -108 -151
c0 -65 34 -100 81 -100z" />
    <glyph glyph-name="B" unicode="B" horiz-adv-x="629" 
d="M317 595h-103v-176h108c72 0 103 29 103 89c0 61 -36 87 -108 87zM325 316h-111v-205h111c90 0 130 27 130 102c0 72 -41 103 -130 103zM69 0v705h256c152 0 240 -57 240 -181c0 -67 -30 -123 -112 -145c105 -25 149 -94 149 -175c0 -128 -86 -204 -257 -204h-276z" />
    <glyph glyph-name="C" unicode="C" horiz-adv-x="661" 
d="M414 -13c-230 0 -384 154 -384 368c0 215 156 363 377 363c92 0 147 -15 198 -41v-126l-5 -3c-49 34 -102 54 -180 54c-146 0 -239 -96 -239 -247c0 -152 96 -251 246 -251c82 0 136 23 191 68l6 -3v-125c-46 -32 -103 -57 -210 -57z" />
    <glyph glyph-name="D" unicode="D" horiz-adv-x="717" 
d="M276 592h-61v-479h61c156 0 261 53 261 235c0 178 -105 244 -261 244zM69 0v705h216c230 0 402 -107 402 -357c0 -251 -172 -348 -402 -348h-216z" />
    <glyph glyph-name="E" unicode="E" horiz-adv-x="540" 
d="M69 0v705h421v-112h-276v-175h238v-110h-238v-196h279v-112h-424z" />
    <glyph glyph-name="F" unicode="F" horiz-adv-x="518" 
d="M458 282h-244v-282h-145v705h418v-112h-273v-200h244v-111z" />
    <glyph glyph-name="G" unicode="G" horiz-adv-x="706" 
d="M656 63c-57 -39 -131 -76 -249 -76c-237 0 -377 150 -377 368c0 217 157 363 381 363c102 0 164 -20 213 -45v-124l-6 -3c-50 32 -113 56 -195 56c-152 0 -242 -97 -242 -250c0 -152 75 -249 229 -249c38 0 73 7 105 20v160h-143v108h284v-328z" />
    <glyph glyph-name="H" unicode="H" horiz-adv-x="749" 
d="M533 0v297h-317v-297h-147v705h147v-288h317v288h147v-705h-147z" />
    <glyph glyph-name="I" unicode="I" horiz-adv-x="288" 
d="M71 0v705h147v-705h-147z" />
    <glyph glyph-name="J" unicode="J" horiz-adv-x="291" 
d="M-32 -187v111c78 15 107 41 107 137v644h146v-644c0 -167 -66 -232 -253 -248z" />
    <glyph glyph-name="K" unicode="K" horiz-adv-x="657" 
d="M483 0l-193 316l-74 -89v-227h-147v705h147v-312l264 312h148v-6l-233 -277l249 -416v-6h-161z" />
    <glyph glyph-name="L" unicode="L" horiz-adv-x="510" 
d="M69 0v705h147v-588h264v-117h-411z" />
    <glyph glyph-name="M" unicode="M" horiz-adv-x="856" 
d="M649 0v477l-204 -483h-46l-207 493v-487h-123v705h163l196 -462l194 462h165v-705h-138z" />
    <glyph glyph-name="N" unicode="N" horiz-adv-x="740" 
d="M671 -12h-74l-398 464v-452h-130v715h77l395 -459v449h130v-717z" />
    <glyph glyph-name="O" unicode="O" horiz-adv-x="785" 
d="M393 -13c-216 0 -363 160 -363 368s147 363 363 363c215 0 362 -155 362 -363s-147 -368 -362 -368zM393 101c130 0 212 101 212 254s-84 249 -212 249s-212 -96 -212 -249s82 -254 212 -254z" />
    <glyph glyph-name="P" unicode="P" horiz-adv-x="598" 
d="M301 593h-87v-230h92c91 0 128 41 128 119c0 76 -42 111 -133 111zM316 257h-102v-257h-145v705h235c166 0 270 -74 270 -226c0 -149 -104 -222 -258 -222z" />
    <glyph glyph-name="Q" unicode="Q" horiz-adv-x="785" 
d="M621 -176c-171 0 -259 83 -294 168c-179 29 -297 177 -297 363c0 208 147 363 363 363c215 0 362 -155 362 -363c0 -184 -112 -327 -287 -358c22 -39 63 -68 161 -68c31 0 57 5 76 11l5 -4v-101c-12 -4 -44 -11 -89 -11zM393 101c138 0 212 100 212 254
c0 153 -84 249 -212 249s-212 -96 -212 -249s82 -254 212 -254z" />
    <glyph glyph-name="R" unicode="R" horiz-adv-x="633" 
d="M301 595h-87v-223h92c94 0 133 42 133 115c0 74 -42 108 -138 108zM474 0l-162 265h-98v-265h-145v705h245c171 0 267 -77 267 -217c0 -98 -51 -163 -134 -191l181 -288v-9h-154z" />
    <glyph glyph-name="S" unicode="S" horiz-adv-x="525" 
d="M242 -13c-98 0 -162 24 -207 51v129l5 2c57 -38 113 -65 196 -65c77 0 117 34 117 90c0 50 -26 68 -106 96l-49 16c-103 35 -166 96 -166 204c0 131 97 208 233 208c81 0 140 -16 184 -41v-122l-5 -3c-54 33 -103 51 -174 51s-104 -34 -104 -81c0 -43 22 -68 87 -91
l49 -16c127 -40 191 -91 191 -210c0 -140 -98 -218 -251 -218z" />
    <glyph glyph-name="T" unicode="T" horiz-adv-x="561" 
d="M547 587h-193v-587h-147v587h-194v118h534v-118z" />
    <glyph glyph-name="U" unicode="U" horiz-adv-x="704" 
d="M353 -12c-181 0 -293 98 -293 282v435h147v-432c0 -109 56 -165 150 -165s153 56 153 165v432h134v-435c0 -178 -111 -282 -291 -282z" />
    <glyph glyph-name="V" unicode="V" horiz-adv-x="669" 
d="M366 -9h-64l-291 707v7h152l179 -450l177 450h140v-7z" />
    <glyph glyph-name="W" unicode="W" horiz-adv-x="973" 
d="M642 -9l-161 415l-158 -415h-70l-242 707v7h152l148 -439l108 290l-50 142v7h149l161 -435l144 435h138l1 -7l-242 -707h-78z" />
    <glyph glyph-name="X" unicode="X" horiz-adv-x="656" 
d="M479 0l-164 277l-162 -277h-137v7l222 367l-205 324v7h161l143 -241l144 241h137v-7l-205 -331l227 -360v-7h-161z" />
    <glyph glyph-name="Y" unicode="Y" horiz-adv-x="608" 
d="M379 0h-147v284l-226 414v7h152l154 -304l154 304h135v-7l-222 -408v-290z" />
    <glyph glyph-name="Z" unicode="Z" horiz-adv-x="596" 
d="M563 0h-552v49l358 543h-314v113h513v-56l-353 -536h348v-113z" />
    <glyph glyph-name="bracketleft" unicode="[" horiz-adv-x="372" 
d="M70 -170v944h265v-99h-135v-746h135v-99h-265z" />
    <glyph glyph-name="backslash" unicode="\" horiz-adv-x="416" 
d="M121 774l311 -944h-111l-310 944h110z" />
    <glyph glyph-name="bracketright" unicode="]" horiz-adv-x="372" 
d="M37 -170v99h135v746h-135v99h264v-944h-264z" />
    <glyph glyph-name="asciicircum" unicode="^" horiz-adv-x="520" 
d="M147 389h-127l200 316h79l201 -316h-128l-112 179z" />
    <glyph glyph-name="underscore" unicode="_" horiz-adv-x="382" 
d="M-11 -144v78h404v-78h-404z" />
    <glyph glyph-name="grave" unicode="`" horiz-adv-x="399" 
d="M177 603l-122 168h143l87 -168h-108z" />
    <glyph glyph-name="a" unicode="a" horiz-adv-x="530" 
d="M237 82c52 0 86 22 109 52v109l-78 -12c-81 -12 -113 -32 -113 -79c0 -42 26 -70 82 -70zM364 0l-10 60c-27 -38 -72 -73 -150 -73c-103 0 -180 55 -180 159c0 111 85 149 215 168l107 15v2c0 85 -36 111 -117 111c-68 0 -111 -15 -158 -40l-6 2v103c42 26 102 42 183 42
c147 0 231 -59 231 -214v-335h-115z" />
    <glyph glyph-name="b" unicode="b" horiz-adv-x="604" 
d="M334 -13c-69 0 -120 28 -157 72l-13 -59h-109v727l133 27v-277c37 46 88 72 158 72c137 0 233 -97 233 -275c0 -182 -100 -287 -245 -287zM309 91c78 0 135 61 135 183c0 119 -58 169 -132 169c-59 0 -94 -19 -124 -52v-256c31 -29 68 -44 121 -44z" />
    <glyph glyph-name="c" unicode="c" horiz-adv-x="495" 
d="M311 -13c-173 0 -286 106 -286 282c0 179 122 280 282 280c67 0 119 -15 147 -33v-104l-5 -3c-37 21 -77 36 -129 36c-88 0 -159 -59 -159 -176c0 -116 64 -179 161 -179c60 0 101 18 139 44l6 -2v-101c-31 -23 -81 -44 -156 -44z" />
    <glyph glyph-name="d" unicode="d" horiz-adv-x="602" 
d="M292 94c56 0 92 18 122 48v259c-31 29 -66 45 -119 45c-79 0 -136 -61 -136 -184c0 -118 59 -168 133 -168zM441 0l-15 69c-38 -51 -92 -82 -167 -82c-139 0 -234 98 -234 275c0 182 99 287 240 287c65 0 113 -24 149 -64v242l133 27v-754h-106z" />
    <glyph glyph-name="e" unicode="e" horiz-adv-x="546" 
d="M287 452c-68 0 -113 -39 -128 -119h234c-4 77 -39 119 -106 119zM507 30c-35 -20 -99 -43 -188 -43c-191 0 -294 108 -294 284c0 165 106 278 262 278c146 0 251 -89 232 -306h-364c9 -104 68 -151 174 -151c74 0 127 20 172 46l6 -3v-105z" />
    <glyph glyph-name="f" unicode="f" horiz-adv-x="360" 
d="M334 437h-116v-437h-133v437h-66v100h66v39c0 144 101 181 194 181c41 0 64 -4 75 -7v-92c-8 1 -21 3 -52 3c-40 0 -84 -20 -84 -91v-33h116v-100z" />
    <glyph glyph-name="g" unicode="g" horiz-adv-x="524" 
d="M248 267c54 0 93 37 93 97c0 61 -39 97 -93 97s-93 -36 -93 -97c0 -60 39 -97 93 -97zM250 -222c-157 0 -248 42 -247 131c0 32 15 58 30 70h105l2 -4c-7 -10 -15 -24 -15 -46c0 -39 38 -60 125 -60c96 0 141 37 141 83c0 34 -18 43 -67 45l-143 6
c-95 4 -134 49 -134 106c0 49 27 85 72 108c-53 30 -86 81 -86 147c0 110 88 184 214 184c38 0 73 -8 103 -21l165 16v-98h-79c15 -22 26 -52 26 -86c0 -103 -87 -173 -215 -173c-19 0 -37 2 -54 5c-25 -10 -36 -24 -36 -45c0 -22 17 -27 49 -28l145 -7
c106 -5 168 -44 168 -148c0 -111 -97 -185 -269 -185z" />
    <glyph glyph-name="h" unicode="h" horiz-adv-x="575" 
d="M300 442c-45 0 -78 -14 -112 -39v-403h-133v727l133 27v-277c39 38 89 72 164 72c106 0 171 -58 171 -181v-368h-133v344c0 75 -40 98 -90 98z" />
    <glyph glyph-name="i" unicode="i" horiz-adv-x="249" 
d="M57 621v117h135v-117h-135zM58 0v537h133v-537h-133z" />
    <glyph glyph-name="j" unicode="j" horiz-adv-x="244" 
d="M55 621v117h135v-117h-135zM-21 -216v106c52 6 77 26 77 103v544h133v-553c0 -137 -72 -192 -210 -200z" />
    <glyph glyph-name="k" unicode="k" horiz-adv-x="539" 
d="M387 0l-142 235l-57 -69v-166h-133v727l133 27v-447l188 230h138v-7l-170 -206l186 -317v-7h-143z" />
    <glyph glyph-name="l" unicode="l" horiz-adv-x="250" 
d="M58 0v727l134 27v-754h-134z" />
    <glyph glyph-name="m" unicode="m" horiz-adv-x="872" 
d="M291 442c-43 0 -72 -12 -103 -37v-405h-133v537h117l9 -61c37 37 85 73 159 73c67 0 118 -26 144 -84c39 45 90 84 172 84c99 0 165 -58 165 -181v-368h-134v345c0 75 -35 97 -80 97c-43 0 -72 -12 -103 -37v-405h-133v345c0 75 -35 97 -80 97z" />
    <glyph glyph-name="n" unicode="n" horiz-adv-x="575" 
d="M300 442c-45 0 -78 -13 -112 -39v-403h-133v537h117l9 -64c40 39 90 76 169 76c104 0 173 -58 173 -181v-368h-133v344c0 75 -40 98 -90 98z" />
    <glyph glyph-name="o" unicode="o" horiz-adv-x="612" 
d="M305 -13c-160 0 -280 110 -280 282c0 173 120 280 280 280c161 0 283 -107 283 -280c0 -172 -122 -282 -283 -282zM305 90c87 0 148 63 148 179c0 115 -61 178 -148 178c-85 0 -146 -63 -146 -178c0 -116 61 -179 146 -179z" />
    <glyph glyph-name="p" unicode="p" horiz-adv-x="604" 
d="M309 91c78 0 135 61 135 183c0 119 -58 169 -132 169c-59 0 -93 -19 -123 -51v-256c31 -30 66 -45 120 -45zM340 -13c-66 0 -115 25 -151 65v-253h-134v738h118l9 -67c38 50 91 79 164 79c137 0 233 -97 233 -275c0 -182 -99 -287 -239 -287z" />
    <glyph glyph-name="q" unicode="q" horiz-adv-x="602" 
d="M547 -201h-133v259c-37 -45 -88 -71 -157 -71c-137 0 -232 98 -232 275c0 182 100 287 240 287c69 0 119 -27 156 -70l8 58h118v-738zM292 94c58 0 92 19 122 50v257c-31 29 -66 45 -119 45c-79 0 -136 -61 -136 -184c0 -118 59 -168 133 -168z" />
    <glyph glyph-name="r" unicode="r" horiz-adv-x="388" 
d="M323 419c-64 0 -103 -14 -135 -54v-365h-133v537h117l10 -83c29 49 78 91 147 91c16 0 30 -1 43 -4v-124l-6 -3c-11 3 -28 5 -43 5z" />
    <glyph glyph-name="s" unicode="s" horiz-adv-x="445" 
d="M211 -11c-89 0 -143 20 -184 47v110l5 2c47 -36 102 -59 171 -59c60 0 91 23 91 61c0 36 -20 49 -75 63l-52 14c-84 22 -140 70 -140 158c0 101 79 166 200 166c69 0 118 -12 159 -31v-102l-5 -3c-40 21 -95 37 -153 37c-59 0 -78 -23 -78 -55c0 -31 19 -47 60 -58
l51 -13c108 -29 160 -64 160 -161c0 -115 -89 -176 -210 -176z" />
    <glyph glyph-name="t" unicode="t" horiz-adv-x="370" 
d="M341 3c-23 -7 -60 -13 -100 -13c-84 0 -155 31 -155 134v313h-64v100h64v92l134 21v-113h115v-100h-115v-291c0 -38 21 -52 59 -52c20 0 42 4 56 8l6 -3v-96z" />
    <glyph glyph-name="u" unicode="u" horiz-adv-x="580" 
d="M408 0l-9 60c-40 -39 -93 -73 -169 -73c-108 0 -180 61 -180 182v368h133v-345c0 -75 42 -97 93 -97c45 0 81 11 116 37v405h133v-537h-117z" />
    <glyph glyph-name="v" unicode="v" horiz-adv-x="542" 
d="M302 -7h-57l-240 537v7h140l133 -314l133 314h126v-7z" />
    <glyph glyph-name="w" unicode="w" horiz-adv-x="749" 
d="M509 -9l-134 334l-132 -334h-55l-179 539v7h135l90 -303l119 307h50l120 -310l89 306h128v-7l-175 -539h-56z" />
    <glyph glyph-name="x" unicode="x" horiz-adv-x="532" 
d="M373 0l-117 186l-117 -186h-126v7l176 272l-167 250v8h146l104 -167l106 167h126v-7l-166 -252l181 -271v-7h-146z" />
    <glyph glyph-name="y" unicode="y" horiz-adv-x="539" 
d="M66 -214v111c68 8 101 32 119 78l20 50l-199 505v7h141l131 -358l128 358h127v-7l-217 -577c-43 -115 -109 -158 -250 -167z" />
    <glyph glyph-name="z" unicode="z" horiz-adv-x="483" 
d="M454 0h-434v35l256 400h-226v102h410v-38l-255 -397h249v-102z" />
    <glyph glyph-name="braceleft" unicode="{" horiz-adv-x="373" 
d="M343 -170c-187 0 -271 61 -240 198l28 123c17 72 -10 101 -108 103v97c97 3 125 31 108 103l-28 121c-31 138 53 199 240 199v-97c-98 0 -129 -27 -110 -108l25 -108c20 -88 -6 -135 -95 -158c89 -24 116 -69 96 -156l-26 -112c-19 -80 12 -108 110 -108v-97z" />
    <glyph glyph-name="bar" unicode="|" horiz-adv-x="237" 
d="M68 -170v944h101v-944h-101z" />
    <glyph glyph-name="braceright" unicode="}" horiz-adv-x="373" 
d="M29 -170v97c98 0 130 28 111 108l-26 112c-20 87 6 132 95 156c-89 23 -115 70 -95 158l26 108c19 81 -13 108 -111 108v97c188 0 272 -61 240 -199l-27 -121c-17 -72 11 -100 108 -103v-97c-98 -2 -125 -31 -108 -103l27 -123c32 -137 -52 -198 -240 -198z" />
    <glyph glyph-name="asciitilde" unicode="~" horiz-adv-x="415" 
d="M381 396v-106c-19 -28 -53 -52 -100 -52c-73 0 -105 37 -151 37c-38 0 -61 -12 -89 -47l-6 2v107c18 30 53 51 99 51c73 0 105 -38 157 -38c33 0 55 13 83 49z" />
    <glyph glyph-name="uni00A0" unicode="&#xa0;" horiz-adv-x="222" 
 />
    <glyph glyph-name="exclamdown" unicode="&#xa1;" horiz-adv-x="251" 
d="M198 570v-128h-144v128h144zM178 351l19 -486h-144l20 486h105z" />
    <glyph glyph-name="cent" unicode="&#xa2;" horiz-adv-x="488" 
d="M464 31c-28 -21 -73 -41 -139 -44l-8 -98h-85l9 104c-134 24 -219 125 -219 276c0 171 114 272 265 280l6 74h85l-7 -79c35 -6 63 -17 81 -28v-104l-6 -2c-25 15 -52 27 -83 33l-30 -354c53 3 90 20 125 44l6 -1v-101zM154 269c0 -86 37 -144 96 -168l28 342
c-71 -14 -124 -74 -124 -174z" />
    <glyph glyph-name="sterling" unicode="&#xa3;" horiz-adv-x="535" 
d="M509 106v-106h-500v61c71 53 85 98 98 180l6 40h-59v91h73l20 126c23 142 97 199 215 199c56 0 96 -9 138 -31v-105l-6 -3c-38 21 -67 31 -107 31c-53 0 -89 -23 -103 -105l-19 -112h151v-91h-167l-4 -25c-12 -69 -22 -107 -70 -150h334z" />
    <glyph glyph-name="yen" unicode="&#xa5;" horiz-adv-x="582" 
d="M522 138h-155v-138h-147v138h-155v76h155v56h-155v75h143l-192 338v7h152l131 -259l132 259h135v-7l-191 -338h147v-75h-155v-56h155v-76z" />
    <glyph glyph-name="brokenbar" unicode="&#xa6;" horiz-adv-x="237" 
d="M68 367v407h101v-407h-101zM68 -170v437h101v-437h-101z" />
    <glyph glyph-name="section" unicode="&#xa7;" horiz-adv-x="508" 
d="M227 -141c-76 0 -126 19 -161 40v105l5 2c41 -29 83 -49 148 -49c60 0 86 24 86 61c0 34 -26 52 -60 70l-77 44c-93 48 -144 98 -144 185c0 66 44 107 105 135c-27 30 -40 64 -40 106c0 103 74 160 187 160c66 0 113 -14 145 -32v-98l-5 -3c-40 22 -79 36 -134 36
c-52 0 -72 -23 -72 -56c0 -31 20 -50 67 -77l59 -33c98 -54 147 -91 147 -181c0 -69 -44 -110 -100 -138c32 -28 49 -61 49 -109c0 -114 -91 -168 -205 -168zM308 188l6 -3c32 17 50 39 50 70c0 46 -29 64 -72 89l-76 42l-29 18c-32 -17 -47 -39 -47 -71
c0 -43 28 -65 73 -91z" />
    <glyph glyph-name="dieresis" unicode="&#xa8;" horiz-adv-x="402" 
d="M42 624v115h123v-115h-123zM237 624v115h123v-115h-123z" />
    <glyph glyph-name="copyright" unicode="&#xa9;" horiz-adv-x="787" 
d="M33 352c0 214 157 366 360 366c204 0 361 -152 361 -366c0 -212 -157 -365 -361 -365c-203 0 -360 153 -360 365zM691 352c0 177 -125 310 -298 310c-170 0 -297 -133 -297 -310c0 -174 127 -309 297 -309c173 0 298 135 298 309zM414 154c-125 0 -208 79 -208 202
c0 124 89 201 204 201c54 0 93 -13 115 -26v-85l-4 -2c-29 17 -62 28 -102 28c-59 0 -106 -41 -106 -116c0 -74 43 -119 108 -119c46 0 80 14 108 34l6 -2v-81c-24 -18 -62 -34 -121 -34z" />
    <glyph glyph-name="ordfeminine" unicode="&#xaa;" horiz-adv-x="461" 
d="M308 244l-8 51c-23 -32 -61 -61 -125 -61c-84 0 -149 41 -149 131c0 96 76 124 179 138l89 12c0 68 -28 90 -94 90c-57 0 -95 -12 -134 -34l-5 2v89c36 22 88 36 158 36c122 0 191 -50 191 -180v-274h-102zM202 315c44 0 74 20 92 46v83l-63 -9c-65 -10 -94 -26 -94 -65
c0 -34 21 -55 65 -55z" />
    <glyph glyph-name="guillemotleft" unicode="&#xab;" horiz-adv-x="414" 
d="M117 79l-102 181l105 182h100l-101 -182l99 -181h-101zM288 79l-102 181l106 182h100l-101 -182l98 -181h-101z" />
    <glyph glyph-name="registered" unicode="&#xae;" horiz-adv-x="585" 
d="M21 443c0 160 119 274 271 274s271 -114 271 -274c0 -159 -119 -274 -271 -274s-271 115 -271 274zM507 443c0 128 -89 226 -215 226c-123 0 -215 -98 -215 -226c0 -127 92 -226 215 -226c126 0 215 99 215 226zM288 524h-24v-65h24c31 0 41 12 41 35c0 21 -10 30 -41 30
zM340 312l-53 95h-23v-95h-73v267h101c76 0 109 -29 109 -86c0 -37 -16 -60 -46 -72l60 -106v-3h-75z" />
    <glyph glyph-name="macron" unicode="&#xaf;" horiz-adv-x="400" 
d="M44 636v91h312v-91h-312z" />
    <glyph glyph-name="degree" unicode="&#xb0;" horiz-adv-x="427" 
d="M43 528c0 93 71 169 170 169c98 0 171 -76 171 -169s-73 -168 -171 -168c-99 0 -170 75 -170 168zM301 528c0 52 -35 96 -88 96c-52 0 -88 -44 -88 -96c0 -51 36 -93 88 -93c53 0 88 42 88 93z" />
    <glyph glyph-name="acute" unicode="&#xb4;" horiz-adv-x="401" 
d="M229 603h-108l87 168h143z" />
    <glyph glyph-name="paragraph" unicode="&#xb6;" horiz-adv-x="563" 
d="M490 -130h-89v835h89v-835zM335 -130h-90v433h-13c-127 0 -203 72 -203 200c0 134 76 202 203 202h103v-835z" />
    <glyph glyph-name="periodcentered" unicode="&#xb7;" horiz-adv-x="245" 
d="M50 262v128h144v-128h-144z" />
    <glyph glyph-name="cedilla" unicode="&#xb8;" horiz-adv-x="400" 
d="M103 -206v65l5 2c16 -9 34 -17 59 -17c27 0 39 12 39 31c0 24 -23 34 -64 38v92h71v-49c47 -11 85 -27 85 -88c0 -59 -43 -94 -113 -94c-41 0 -67 11 -82 20z" />
    <glyph glyph-name="ordmasculine" unicode="&#xba;" horiz-adv-x="514" 
d="M256 231c-134 0 -235 94 -235 234c0 141 101 233 235 233s236 -92 236 -233c0 -140 -102 -234 -236 -234zM256 323c70 0 120 52 120 142s-50 142 -120 142c-69 0 -118 -52 -118 -142s49 -142 118 -142z" />
    <glyph glyph-name="guillemotright" unicode="&#xbb;" horiz-adv-x="414" 
d="M24 79l99 181l-101 182h101l104 -182l-102 -181h-101zM196 79l99 181l-102 182h102l104 -182l-102 -181h-101z" />
    <glyph glyph-name="onequarter" unicode="&#xbc;" horiz-adv-x="738" 
d="M187 309h-101v273l-72 -39l-2 1v87l121 64h54v-386zM57 0l525 690h88l-526 -690h-87zM579 139v106l-79 -106h79zM727 69h-53v-69h-95v69h-176v45l204 272h67v-247h53v-70z" />
    <glyph glyph-name="onehalf" unicode="&#xbd;" horiz-adv-x="768" 
d="M187 309h-101v273l-72 -39l-2 1v87l121 64h54v-386zM474 0v47l118 126c32 34 47 59 47 89c0 26 -17 45 -58 45c-37 0 -60 -10 -89 -28l-4 3v77c26 17 61 28 115 28c85 0 137 -41 137 -115c0 -55 -27 -92 -71 -138l-57 -60h134v-74h-272zM60 0l525 690h88l-526 -690h-87z
" />
    <glyph glyph-name="threequarters" unicode="&#xbe;" horiz-adv-x="766" 
d="M85 0l525 690h88l-526 -690h-87zM607 139v106l-79 -106h79zM755 69h-53v-69h-95v69h-176v45l204 272h67v-247h53v-70zM141 302c-65 0 -99 16 -123 30v76l3 3c31 -20 59 -31 106 -31c41 0 60 18 60 46c0 26 -17 45 -62 45h-45v66h40c43 0 56 18 56 41c0 27 -18 42 -57 42
c-40 0 -61 -9 -90 -25l-4 2v73c25 15 56 26 113 26c75 0 136 -33 136 -103c0 -43 -23 -70 -66 -83c53 -12 79 -42 79 -92c0 -73 -53 -116 -146 -116z" />
    <glyph glyph-name="questiondown" unicode="&#xbf;" horiz-adv-x="461" 
d="M340 570v-128h-144v128h144zM426 -102c-39 -26 -96 -46 -176 -46c-124 0 -212 61 -212 182c0 87 39 139 105 192c39 32 63 55 63 102v23h124v-26c0 -80 -28 -118 -91 -171c-41 -34 -63 -60 -63 -111c0 -44 28 -77 92 -77c66 0 106 19 153 50l5 -3v-115z" />
    <glyph glyph-name="Agrave" unicode="&#xc0;" 
d="M418 251l-89 224l-89 -224h178zM518 0l-59 147h-260l-58 -147h-135v7l300 706h63l301 -706v-7h-152zM293 760l-116 150h142l83 -150h-109z" />
    <glyph glyph-name="Aacute" unicode="&#xc1;" 
d="M418 251l-89 224l-89 -224h178zM518 0l-59 147h-260l-58 -147h-135v7l300 706h63l301 -706v-7h-152zM386 760h-110l84 150h142z" />
    <glyph glyph-name="Acircumflex" unicode="&#xc2;" 
d="M337 836l-70 -76h-110l125 158h110l125 -158h-110zM418 251l-89 224l-89 -224h178zM518 0l-59 147h-260l-58 -147h-135v7l300 706h63l301 -706v-7h-152z" />
    <glyph glyph-name="Atilde" unicode="&#xc3;" 
d="M418 251l-89 224l-89 -224h178zM518 0l-59 147h-260l-58 -147h-135v7l300 706h63l301 -706v-7h-152zM408 856c29 0 52 13 76 42l7 -2l12 -82c-17 -27 -55 -53 -101 -53c-67 0 -98 34 -140 34c-35 0 -57 -12 -82 -42l-6 3l-12 84c19 28 59 50 103 50c65 0 95 -34 143 -34z
" />
    <glyph glyph-name="Adieresis" unicode="&#xc4;" 
d="M418 251l-89 224l-89 -224h178zM518 0l-59 147h-260l-58 -147h-135v7l300 706h63l301 -706v-7h-152zM384 756v114h127v-114h-127zM165 756v114h127v-114h-127z" />
    <glyph glyph-name="Aring" unicode="&#xc5;" 
d="M418 251l-89 224l-89 -224h178zM518 0l-59 147h-260l-58 -147h-135v7l300 706h63l301 -706v-7h-152zM337 744c-69 0 -116 46 -116 112s47 112 116 112s116 -46 116 -112s-47 -112 -116 -112zM337 906c-29 0 -47 -22 -47 -50s18 -49 47 -49s47 21 47 49s-18 50 -47 50z
" />
    <glyph glyph-name="AE" unicode="&#xc6;" horiz-adv-x="922" 
d="M452 263v308l-170 -308h170zM452 0v157h-228l-87 -157h-134v7l390 698h480v-112h-276v-177h237v-106h-237v-198h278v-112h-423z" />
    <glyph glyph-name="Ccedilla" unicode="&#xc7;" horiz-adv-x="661" 
d="M354 -226c-41 0 -67 11 -82 20v65l5 2c16 -9 34 -17 59 -17c27 0 39 12 39 31c0 24 -23 34 -64 38v85c-172 39 -281 177 -281 357c0 215 156 363 377 363c92 0 147 -15 198 -41v-126l-5 -3c-49 34 -102 54 -180 54c-146 0 -239 -96 -239 -247c0 -152 96 -251 246 -251
c82 0 136 23 191 68l6 -3v-125c-46 -32 -103 -57 -210 -57c-11 0 -22 0 -32 1v-32c47 -11 85 -27 85 -88c0 -59 -43 -94 -113 -94z" />
    <glyph glyph-name="Egrave" unicode="&#xc8;" horiz-adv-x="539" 
d="M237 760l-116 150h142l83 -150h-109zM69 0v705h421v-112h-276v-175h238v-110h-238v-196h279v-112h-424z" />
    <glyph glyph-name="Eacute" unicode="&#xc9;" horiz-adv-x="539" 
d="M331 760h-110l84 150h142zM69 0v705h421v-112h-276v-175h238v-110h-238v-196h279v-112h-424z" />
    <glyph glyph-name="Ecircumflex" unicode="&#xca;" horiz-adv-x="539" 
d="M282 836l-70 -76h-110l125 158h110l125 -158h-110zM69 0v705h421v-112h-276v-175h238v-110h-238v-196h279v-112h-424z" />
    <glyph glyph-name="Edieresis" unicode="&#xcb;" horiz-adv-x="539" 
d="M69 0v705h421v-112h-276v-175h238v-110h-238v-196h279v-112h-424zM328 756v114h127v-114h-127zM109 756v114h127v-114h-127z" />
    <glyph glyph-name="Igrave" unicode="&#xcc;" horiz-adv-x="288" 
d="M71 0v705h147v-705h-147zM99 760l-116 150h142l83 -150h-109z" />
    <glyph glyph-name="Iacute" unicode="&#xcd;" horiz-adv-x="288" 
d="M71 0v705h147v-705h-147zM193 760h-110l84 150h142z" />
    <glyph glyph-name="Icircumflex" unicode="&#xce;" horiz-adv-x="288" 
d="M71 0v705h147v-705h-147zM144 836l-70 -76h-110l125 158h110l125 -158h-110z" />
    <glyph glyph-name="Idieresis" unicode="&#xcf;" horiz-adv-x="288" 
d="M177 760v112h120v-112h-120zM-8 760v112h120v-112h-120zM71 0v705h147v-705h-147z" />
    <glyph glyph-name="Eth" unicode="&#xd0;" horiz-adv-x="726" 
d="M386 308h-162v-195h62c155 0 261 53 261 235c0 178 -106 244 -261 244h-62v-181h162v-103zM78 0v308h-70v103h70v294h217c229 0 401 -107 401 -357c0 -251 -172 -348 -401 -348h-217z" />
    <glyph glyph-name="Ntilde" unicode="&#xd1;" horiz-adv-x="740" 
d="M671 -12h-74l-398 464v-452h-130v715h77l395 -459v449h130v-717zM444 856c29 0 52 13 76 42l7 -2l12 -82c-17 -27 -55 -53 -101 -53c-67 0 -98 34 -140 34c-35 0 -57 -12 -82 -42l-6 3l-12 84c19 28 59 50 103 50c65 0 95 -34 143 -34z" />
    <glyph glyph-name="Ograve" unicode="&#xd2;" horiz-adv-x="785" 
d="M347 760l-116 150h142l83 -150h-109zM393 -13c-216 0 -363 160 -363 368s147 363 363 363c215 0 362 -155 362 -363s-147 -368 -362 -368zM393 101c130 0 212 101 212 254s-84 249 -212 249s-212 -96 -212 -249s82 -254 212 -254z" />
    <glyph glyph-name="Oacute" unicode="&#xd3;" horiz-adv-x="785" 
d="M441 760h-110l84 150h142zM393 -13c-216 0 -363 160 -363 368s147 363 363 363c215 0 362 -155 362 -363s-147 -368 -362 -368zM393 101c130 0 212 101 212 254s-84 249 -212 249s-212 -96 -212 -249s82 -254 212 -254z" />
    <glyph glyph-name="Ocircumflex" unicode="&#xd4;" horiz-adv-x="785" 
d="M392 836l-70 -76h-110l125 158h110l125 -158h-110zM393 -13c-216 0 -363 160 -363 368s147 363 363 363c215 0 362 -155 362 -363s-147 -368 -362 -368zM393 101c130 0 212 101 212 254s-84 249 -212 249s-212 -96 -212 -249s82 -254 212 -254z" />
    <glyph glyph-name="Otilde" unicode="&#xd5;" horiz-adv-x="785" 
d="M462 856c29 0 52 13 76 42l7 -2l12 -82c-17 -27 -55 -53 -101 -53c-67 0 -98 34 -140 34c-35 0 -57 -12 -82 -42l-6 3l-12 84c19 28 59 50 103 50c65 0 95 -34 143 -34zM393 -13c-216 0 -363 160 -363 368s147 363 363 363c215 0 362 -155 362 -363s-147 -368 -362 -368z
M393 101c130 0 212 101 212 254s-84 249 -212 249s-212 -96 -212 -249s82 -254 212 -254z" />
    <glyph glyph-name="Odieresis" unicode="&#xd6;" horiz-adv-x="785" 
d="M438 756v114h127v-114h-127zM219 756v114h127v-114h-127zM393 -13c-216 0 -363 160 -363 368s147 363 363 363c215 0 362 -155 362 -363s-147 -368 -362 -368zM393 101c130 0 212 101 212 254s-84 249 -212 249s-212 -96 -212 -249s82 -254 212 -254z" />
    <glyph glyph-name="multiply" unicode="&#xd7;" horiz-adv-x="519" 
d="M404 132l-144 144l-145 -145l-70 71l145 145l-145 144l71 70l144 -144l144 144l70 -71l-143 -143l144 -145z" />
    <glyph glyph-name="Oslash" unicode="&#xd8;" horiz-adv-x="785" 
d="M178 355c0 -60 12 -112 34 -152l305 364c-33 24 -75 37 -124 37c-129 0 -215 -96 -215 -249zM393 101c131 0 213 101 213 254c0 63 -13 115 -37 155l-307 -367c34 -27 79 -42 131 -42zM393 -13c-81 0 -153 23 -210 62l-81 -97l-58 50l81 97c-60 65 -95 155 -95 256
c0 208 147 363 363 363c78 0 147 -20 203 -56l72 85l57 -50l-70 -83c64 -65 100 -155 100 -259c0 -208 -147 -368 -362 -368z" />
    <glyph glyph-name="Ugrave" unicode="&#xd9;" horiz-adv-x="704" 
d="M309 760l-116 150h142l83 -150h-109zM353 -12c-181 0 -293 98 -293 282v435h147v-432c0 -109 56 -165 150 -165s153 56 153 165v432h134v-435c0 -178 -111 -282 -291 -282z" />
    <glyph glyph-name="Uacute" unicode="&#xda;" horiz-adv-x="704" 
d="M403 760h-110l84 150h142zM353 -12c-181 0 -293 98 -293 282v435h147v-432c0 -109 56 -165 150 -165s153 56 153 165v432h134v-435c0 -178 -111 -282 -291 -282z" />
    <glyph glyph-name="Ucircumflex" unicode="&#xdb;" horiz-adv-x="704" 
d="M354 836l-70 -76h-110l125 158h110l125 -158h-110zM353 -12c-181 0 -293 98 -293 282v435h147v-432c0 -109 56 -165 150 -165s153 56 153 165v432h134v-435c0 -178 -111 -282 -291 -282z" />
    <glyph glyph-name="Udieresis" unicode="&#xdc;" horiz-adv-x="704" 
d="M353 -12c-181 0 -293 98 -293 282v435h147v-432c0 -109 56 -165 150 -165s153 56 153 165v432h134v-435c0 -178 -111 -282 -291 -282zM401 756v114h127v-114h-127zM182 756v114h127v-114h-127z" />
    <glyph glyph-name="Yacute" unicode="&#xdd;" horiz-adv-x="608" 
d="M379 0h-147v284l-226 414v7h152l154 -304l154 304h135v-7l-222 -408v-290zM363 760h-110l84 150h142z" />
    <glyph glyph-name="Thorn" unicode="&#xde;" horiz-adv-x="600" 
d="M315 466h-101v-212h105c87 0 117 39 117 110s-34 102 -121 102zM329 150h-115v-150h-145v705h145v-128h104c162 0 258 -68 258 -216c0 -143 -97 -211 -247 -211z" />
    <glyph glyph-name="germandbls" unicode="&#xdf;" horiz-adv-x="599" 
d="M244 120l5 3c21 -13 52 -30 101 -30c51 0 94 25 94 75c0 92 -185 112 -185 214c0 86 126 105 126 193c0 47 -36 79 -89 79c-58 0 -106 -31 -106 -115v-539h-135v529c0 163 106 226 243 226c128 0 221 -69 221 -173c0 -111 -126 -148 -126 -190c0 -49 188 -79 188 -229
c0 -116 -86 -176 -199 -176c-65 0 -108 13 -138 30v103z" />
    <glyph glyph-name="agrave" unicode="&#xe0;" horiz-adv-x="530" 
d="M237 82c52 0 86 22 109 52v109l-78 -12c-81 -12 -113 -32 -113 -79c0 -42 26 -70 82 -70zM364 0l-10 60c-27 -38 -72 -73 -150 -73c-103 0 -180 55 -180 159c0 111 85 149 215 168l107 15v2c0 85 -36 111 -117 111c-68 0 -111 -15 -158 -40l-6 2v103c42 26 102 42 183 42
c147 0 231 -59 231 -214v-335h-115zM216 603l-122 168h143l87 -168h-108z" />
    <glyph glyph-name="aacute" unicode="&#xe1;" horiz-adv-x="530" 
d="M237 82c52 0 86 22 109 52v109l-78 -12c-81 -12 -113 -32 -113 -79c0 -42 26 -70 82 -70zM364 0l-10 60c-27 -38 -72 -73 -150 -73c-103 0 -180 55 -180 159c0 111 85 149 215 168l107 15v2c0 85 -36 111 -117 111c-68 0 -111 -15 -158 -40l-6 2v103c42 26 102 42 183 42
c147 0 231 -59 231 -214v-335h-115zM300 603h-108l87 168h143z" />
    <glyph glyph-name="acircumflex" unicode="&#xe2;" horiz-adv-x="530" 
d="M237 82c52 0 86 22 109 52v109l-78 -12c-81 -12 -113 -32 -113 -79c0 -42 26 -70 82 -70zM364 0l-10 60c-27 -38 -72 -73 -150 -73c-103 0 -180 55 -180 159c0 111 85 149 215 168l107 15v2c0 85 -36 111 -117 111c-68 0 -111 -15 -158 -40l-6 2v103c42 26 102 42 183 42
c147 0 231 -59 231 -214v-335h-115zM256 681l-66 -78h-108l122 161h104l123 -161h-109z" />
    <glyph glyph-name="atilde" unicode="&#xe3;" horiz-adv-x="530" 
d="M237 82c52 0 86 22 109 52v109l-78 -12c-81 -12 -113 -32 -113 -79c0 -42 26 -70 82 -70zM364 0l-10 60c-27 -38 -72 -73 -150 -73c-103 0 -180 55 -180 159c0 111 85 149 215 168l107 15v2c0 85 -36 111 -117 111c-68 0 -111 -15 -158 -40l-6 2v103c42 26 102 42 183 42
c147 0 231 -59 231 -214v-335h-115zM323 718c28 0 50 13 74 42l7 -2l12 -82c-17 -27 -54 -53 -99 -53c-66 0 -91 33 -132 33c-34 0 -54 -12 -79 -42l-6 3l-12 83c20 28 57 51 99 51c65 0 89 -33 136 -33z" />
    <glyph glyph-name="adieresis" unicode="&#xe4;" horiz-adv-x="530" 
d="M237 82c52 0 86 22 109 52v109l-78 -12c-81 -12 -113 -32 -113 -79c0 -42 26 -70 82 -70zM364 0l-10 60c-27 -38 -72 -73 -150 -73c-103 0 -180 55 -180 159c0 111 85 149 215 168l107 15v2c0 85 -36 111 -117 111c-68 0 -111 -15 -158 -40l-6 2v103c42 26 102 42 183 42
c147 0 231 -59 231 -214v-335h-115zM98 624v115h123v-115h-123zM293 624v115h123v-115h-123z" />
    <glyph glyph-name="aring" unicode="&#xe5;" horiz-adv-x="530" 
d="M237 82c52 0 86 22 109 52v109l-78 -12c-81 -12 -113 -32 -113 -79c0 -42 26 -70 82 -70zM364 0l-10 60c-27 -38 -72 -73 -150 -73c-103 0 -180 55 -180 159c0 111 85 149 215 168l107 15v2c0 85 -36 111 -117 111c-68 0 -111 -15 -158 -40l-6 2v103c42 26 102 42 183 42
c147 0 231 -59 231 -214v-335h-115zM256 588c-69 0 -116 46 -116 112s47 112 116 112s116 -46 116 -112s-47 -112 -116 -112zM256 750c-29 0 -47 -22 -47 -50s18 -49 47 -49s47 21 47 49s-18 50 -47 50z" />
    <glyph glyph-name="ae" unicode="&#xe6;" horiz-adv-x="865" 
d="M608 452c-68 0 -113 -39 -128 -119h234c-4 77 -39 119 -106 119zM827 30c-35 -20 -99 -43 -188 -43c-103 0 -182 32 -232 90c-38 -51 -97 -90 -194 -90c-111 0 -187 54 -187 157c0 112 90 151 214 168l108 15v2c0 88 -37 113 -121 113c-65 0 -108 -15 -155 -40l-5 2v103
c42 26 101 42 183 42c89 0 149 -22 181 -74c43 49 102 74 177 74c145 0 250 -89 231 -304h-363c8 -105 66 -153 173 -153c74 0 127 20 172 46l6 -3v-105zM236 82c61 0 106 27 126 76c-8 25 -14 52 -16 82l-77 -12c-80 -12 -113 -29 -113 -77c0 -41 26 -69 80 -69z" />
    <glyph glyph-name="ccedilla" unicode="&#xe7;" horiz-adv-x="494" 
d="M253 -226c-41 0 -67 11 -82 20v65l5 2c16 -9 34 -17 59 -17c26 0 39 12 39 31c0 24 -23 34 -64 38v88c-115 34 -185 129 -185 268c0 179 122 280 282 280c67 0 119 -15 147 -33v-104l-5 -3c-37 21 -77 36 -129 36c-88 0 -159 -59 -159 -176c0 -116 64 -179 161 -179
c60 0 101 18 139 44l6 -2v-101c-31 -23 -81 -44 -156 -44c-8 0 -18 0 -30 1v-32c47 -11 85 -27 85 -88c0 -59 -44 -94 -113 -94z" />
    <glyph glyph-name="egrave" unicode="&#xe8;" horiz-adv-x="545" 
d="M287 452c-68 0 -113 -39 -128 -119h234c-4 77 -39 119 -106 119zM507 30c-35 -20 -99 -43 -188 -43c-191 0 -294 108 -294 284c0 165 106 278 262 278c146 0 251 -89 232 -306h-364c9 -104 68 -151 174 -151c74 0 127 20 172 46l6 -3v-105zM242 603l-122 168h143l87 -168
h-108z" />
    <glyph glyph-name="eacute" unicode="&#xe9;" horiz-adv-x="545" 
d="M325 603h-108l87 168h143zM287 452c-68 0 -113 -39 -128 -119h234c-4 77 -39 119 -106 119zM507 30c-35 -20 -99 -43 -188 -43c-191 0 -294 108 -294 284c0 165 106 278 262 278c146 0 251 -89 232 -306h-364c9 -104 68 -151 174 -151c74 0 127 20 172 46l6 -3v-105z" />
    <glyph glyph-name="ecircumflex" unicode="&#xea;" horiz-adv-x="545" 
d="M281 681l-66 -78h-108l122 161h104l123 -161h-109zM287 452c-68 0 -113 -39 -128 -119h234c-4 77 -39 119 -106 119zM507 30c-35 -20 -99 -43 -188 -43c-191 0 -294 108 -294 284c0 165 106 278 262 278c146 0 251 -89 232 -306h-364c9 -104 68 -151 174 -151
c74 0 127 20 172 46l6 -3v-105z" />
    <glyph glyph-name="edieresis" unicode="&#xeb;" horiz-adv-x="545" 
d="M123 624v115h123v-115h-123zM318 624v115h123v-115h-123zM287 452c-68 0 -113 -39 -128 -119h234c-4 77 -39 119 -106 119zM507 30c-35 -20 -99 -43 -188 -43c-191 0 -294 108 -294 284c0 165 106 278 262 278c146 0 251 -89 232 -306h-364c9 -104 68 -151 174 -151
c74 0 127 20 172 46l6 -3v-105z" />
    <glyph glyph-name="igrave" unicode="&#xec;" horiz-adv-x="251" 
d="M59 0v537h133v-537h-133zM86 603l-122 168h143l87 -168h-108z" />
    <glyph glyph-name="iacute" unicode="&#xed;" horiz-adv-x="251" 
d="M169 603h-108l87 168h143zM59 0v537h133v-537h-133z" />
    <glyph glyph-name="icircumflex" unicode="&#xee;" horiz-adv-x="251" 
d="M125 681l-66 -78h-108l122 161h104l123 -161h-109zM59 0v537h133v-537h-133z" />
    <glyph glyph-name="idieresis" unicode="&#xef;" horiz-adv-x="251" 
d="M-14 623v113h112v-113h-112zM152 623v113h113v-113h-113zM59 0v537h133v-537h-133z" />
    <glyph glyph-name="eth" unicode="&#xf0;" horiz-adv-x="610" 
d="M304 -13c-159 0 -279 108 -279 284c0 175 111 276 243 276c52 0 97 -15 134 -46c-28 45 -69 83 -117 118l-144 -58l-25 56l108 44c-39 26 -82 51 -125 78l2 5h178c20 -11 40 -23 60 -36l107 43l25 -56l-73 -30c102 -80 186 -191 186 -354c0 -232 -123 -324 -280 -324z
M304 90c88 0 146 54 146 202c0 37 -3 73 -9 105c-35 36 -84 53 -135 53c-87 0 -147 -65 -147 -182s62 -178 145 -178z" />
    <glyph glyph-name="ntilde" unicode="&#xf1;" horiz-adv-x="574" 
d="M300 442c-45 0 -78 -13 -112 -39v-403h-133v537h117l9 -64c40 39 90 76 169 76c104 0 173 -58 173 -181v-368h-133v344c0 75 -40 98 -90 98zM356 718c28 0 50 13 74 42l7 -2l12 -82c-17 -27 -54 -53 -99 -53c-66 0 -91 33 -132 33c-34 0 -54 -12 -79 -42l-6 3l-12 83
c20 28 57 51 99 51c65 0 89 -33 136 -33z" />
    <glyph glyph-name="ograve" unicode="&#xf2;" horiz-adv-x="612" 
d="M305 -13c-160 0 -280 110 -280 282c0 173 120 280 280 280c161 0 283 -107 283 -280c0 -172 -122 -282 -283 -282zM305 90c87 0 148 63 148 179c0 115 -61 178 -148 178c-85 0 -146 -63 -146 -178c0 -116 61 -179 146 -179zM266 603l-122 168h143l87 -168h-108z" />
    <glyph glyph-name="oacute" unicode="&#xf3;" horiz-adv-x="612" 
d="M350 603h-108l87 168h143zM305 -13c-160 0 -280 110 -280 282c0 173 120 280 280 280c161 0 283 -107 283 -280c0 -172 -122 -282 -283 -282zM305 90c87 0 148 63 148 179c0 115 -61 178 -148 178c-85 0 -146 -63 -146 -178c0 -116 61 -179 146 -179z" />
    <glyph glyph-name="ocircumflex" unicode="&#xf4;" horiz-adv-x="612" 
d="M306 681l-66 -78h-108l122 161h104l123 -161h-109zM305 -13c-160 0 -280 110 -280 282c0 173 120 280 280 280c161 0 283 -107 283 -280c0 -172 -122 -282 -283 -282zM305 90c87 0 148 63 148 179c0 115 -61 178 -148 178c-85 0 -146 -63 -146 -178
c0 -116 61 -179 146 -179z" />
    <glyph glyph-name="otilde" unicode="&#xf5;" horiz-adv-x="612" 
d="M305 -13c-160 0 -280 110 -280 282c0 173 120 280 280 280c161 0 283 -107 283 -280c0 -172 -122 -282 -283 -282zM305 90c87 0 148 63 148 179c0 115 -61 178 -148 178c-85 0 -146 -63 -146 -178c0 -116 61 -179 146 -179zM373 718c28 0 50 13 74 42l7 -2l12 -82
c-17 -27 -54 -53 -99 -53c-66 0 -91 33 -132 33c-34 0 -54 -12 -79 -42l-6 3l-12 83c20 28 57 51 99 51c65 0 89 -33 136 -33z" />
    <glyph glyph-name="odieresis" unicode="&#xf6;" horiz-adv-x="612" 
d="M148 624v115h123v-115h-123zM343 624v115h123v-115h-123zM305 -13c-160 0 -280 110 -280 282c0 173 120 280 280 280c161 0 283 -107 283 -280c0 -172 -122 -282 -283 -282zM305 90c87 0 148 63 148 179c0 115 -61 178 -148 178c-85 0 -146 -63 -146 -178
c0 -116 61 -179 146 -179z" />
    <glyph glyph-name="divide" unicode="&#xf7;" horiz-adv-x="530" 
d="M198 469v123h134v-123h-134zM46 297v98h438v-98h-438zM198 100v123h134v-123h-134z" />
    <glyph glyph-name="oslash" unicode="&#xf8;" horiz-adv-x="612" 
d="M159 269c0 -40 7 -73 19 -99l210 254c-23 15 -51 23 -83 23c-85 0 -146 -63 -146 -178zM305 90c87 0 149 63 149 179c0 42 -8 77 -22 105l-213 -258c24 -17 53 -26 86 -26zM305 -13c-59 0 -113 15 -157 43l-58 -70l-51 42l58 70c-45 48 -72 116 -72 197
c0 173 120 280 280 280c58 0 110 -14 154 -39l60 72l51 -41l-59 -71c48 -48 77 -117 77 -201c0 -172 -122 -282 -283 -282z" />
    <glyph glyph-name="ugrave" unicode="&#xf9;" horiz-adv-x="580" 
d="M408 0l-9 60c-40 -39 -93 -73 -169 -73c-108 0 -180 61 -180 182v368h133v-345c0 -75 42 -97 93 -97c45 0 81 11 116 37v405h133v-537h-117zM250 603l-122 168h143l87 -168h-108z" />
    <glyph glyph-name="uacute" unicode="&#xfa;" horiz-adv-x="580" 
d="M333 603h-108l87 168h143zM408 0l-9 60c-40 -39 -93 -73 -169 -73c-108 0 -180 61 -180 182v368h133v-345c0 -75 42 -97 93 -97c45 0 81 11 116 37v405h133v-537h-117z" />
    <glyph glyph-name="ucircumflex" unicode="&#xfb;" horiz-adv-x="580" 
d="M289 681l-66 -78h-108l122 161h104l123 -161h-109zM408 0l-9 60c-40 -39 -93 -73 -169 -73c-108 0 -180 61 -180 182v368h133v-345c0 -75 42 -97 93 -97c45 0 81 11 116 37v405h133v-537h-117z" />
    <glyph glyph-name="udieresis" unicode="&#xfc;" horiz-adv-x="580" 
d="M131 624v115h123v-115h-123zM326 624v115h123v-115h-123zM408 0l-9 60c-40 -39 -93 -73 -169 -73c-108 0 -180 61 -180 182v368h133v-345c0 -75 42 -97 93 -97c45 0 81 11 116 37v405h133v-537h-117z" />
    <glyph glyph-name="yacute" unicode="&#xfd;" horiz-adv-x="540" 
d="M66 -214v111c68 8 101 32 119 78l20 50l-199 505v7h141l131 -358l128 358h127v-7l-217 -577c-43 -115 -109 -158 -250 -167zM322 603h-108l87 168h143z" />
    <glyph glyph-name="thorn" unicode="&#xfe;" horiz-adv-x="604" 
d="M309 91c78 0 135 61 135 183c0 119 -58 169 -132 169c-59 0 -93 -19 -123 -51v-256c31 -30 66 -45 120 -45zM340 -13c-66 0 -115 25 -151 65v-253h-134v928l134 27v-276c37 45 88 71 157 71c137 0 233 -97 233 -275c0 -182 -99 -287 -239 -287z" />
    <glyph glyph-name="ydieresis" unicode="&#xff;" horiz-adv-x="540" 
d="M66 -214v111c68 8 101 32 119 78l20 50l-199 505v7h141l131 -358l128 358h127v-7l-217 -577c-43 -115 -109 -158 -250 -167zM120 624v115h123v-115h-123zM315 624v115h123v-115h-123z" />
    <glyph glyph-name="dotlessi" unicode="&#x131;" horiz-adv-x="251" 
d="M59 0v537h133v-537h-133z" />
    <glyph glyph-name="Lslash" unicode="&#x141;" horiz-adv-x="514" 
d="M73 0v247l-67 -25v94l67 25v364h146v-308l175 66v-94l-175 -66v-186h265v-117h-411z" />
    <glyph glyph-name="lslash" unicode="&#x142;" horiz-adv-x="279" 
d="M203 0h-133v333l-61 -31v102l61 31v292l133 27v-251l69 35v-101l-69 -35v-402z" />
    <glyph glyph-name="OE" unicode="&#x152;" horiz-adv-x="933" 
d="M401 112h61v481h-61c-136 0 -220 -92 -220 -238s83 -243 220 -243zM398 0c-220 0 -368 154 -368 355s148 350 368 350h486v-112h-276v-177h237v-106h-237v-198h278v-112h-488z" />
    <glyph glyph-name="oe" unicode="&#x153;" horiz-adv-x="973" 
d="M715 452c-68 0 -113 -39 -128 -119h234c-4 77 -38 119 -106 119zM305 90c87 0 148 63 148 179c0 115 -61 178 -148 178c-85 0 -146 -63 -146 -178c0 -116 61 -179 146 -179zM935 30c-35 -20 -99 -43 -188 -43c-109 0 -185 38 -229 103c-47 -65 -121 -103 -213 -103
c-160 0 -280 110 -280 282c0 173 120 280 280 280c92 0 166 -38 213 -102c41 63 109 102 198 102c145 0 250 -89 231 -306h-364c9 -104 68 -151 174 -151c74 0 127 20 172 46l6 -3v-105z" />
    <glyph glyph-name="Scaron" unicode="&#x160;" horiz-adv-x="530" 
d="M266 842l70 76h110l-125 -158h-110l-125 158h110zM242 -13c-98 0 -162 24 -207 51v129l5 2c57 -38 113 -65 196 -65c77 0 117 34 117 90c0 50 -26 68 -106 96l-49 16c-103 35 -166 96 -166 204c0 131 97 208 233 208c81 0 140 -16 184 -41v-122l-5 -3
c-54 33 -103 51 -174 51s-104 -34 -104 -81c0 -43 22 -68 87 -91l49 -16c127 -40 191 -91 191 -210c0 -140 -98 -218 -251 -218z" />
    <glyph glyph-name="scaron" unicode="&#x161;" horiz-adv-x="445" 
d="M224 687l66 77h109l-123 -161h-104l-122 161h108zM211 -11c-89 0 -143 20 -184 47v110l5 2c47 -36 102 -59 171 -59c60 0 91 23 91 61c0 36 -20 49 -75 63l-52 14c-84 22 -140 70 -140 158c0 101 79 166 200 166c69 0 118 -12 159 -31v-102l-5 -3c-40 21 -95 37 -153 37
c-59 0 -78 -23 -78 -55c0 -31 19 -47 60 -58l51 -13c108 -29 160 -64 160 -161c0 -115 -89 -176 -210 -176z" />
    <glyph glyph-name="Ydieresis" unicode="&#x178;" horiz-adv-x="608" 
d="M379 0h-147v284l-226 414v7h152l154 -304l154 304h135v-7l-222 -408v-290zM357 756v114h127v-114h-127zM138 756v114h127v-114h-127z" />
    <glyph glyph-name="Zcaron" unicode="&#x17d;" horiz-adv-x="598" 
d="M301 842l70 76h110l-125 -158h-110l-125 158h110zM563 0h-552v49l358 543h-314v113h513v-56l-353 -536h348v-113z" />
    <glyph glyph-name="zcaron" unicode="&#x17e;" horiz-adv-x="480" 
d="M250 687l66 77h109l-123 -161h-104l-122 161h108zM454 0h-434v35l256 400h-226v102h410v-38l-255 -397h249v-102z" />
    <glyph glyph-name="circumflex" unicode="&#x2c6;" horiz-adv-x="400" 
d="M200 681l-66 -78h-108l122 161h104l123 -161h-109z" />
    <glyph glyph-name="caron" unicode="&#x2c7;" horiz-adv-x="400" 
d="M200 687l66 77h109l-123 -161h-104l-122 161h108z" />
    <glyph glyph-name="breve" unicode="&#x2d8;" horiz-adv-x="400" 
d="M200 606c-88 0 -153 59 -160 152h91c8 -42 31 -63 69 -63s60 22 68 63h91c-7 -93 -71 -152 -159 -152z" />
    <glyph glyph-name="dotaccent" unicode="&#x2d9;" horiz-adv-x="400" 
d="M133 623v117h134v-117h-134z" />
    <glyph glyph-name="ring" unicode="&#x2da;" horiz-adv-x="400" 
d="M200 588c-69 0 -116 46 -116 112s47 112 116 112s116 -46 116 -112s-47 -112 -116 -112zM200 750c-29 0 -47 -22 -47 -50s18 -49 47 -49s47 21 47 49s-18 50 -47 50z" />
    <glyph glyph-name="ogonek" unicode="&#x2db;" horiz-adv-x="401" 
d="M305 -203c-18 -8 -45 -16 -79 -16c-85 0 -128 37 -128 96c0 50 25 86 86 123h100c-52 -35 -73 -68 -73 -95c0 -23 10 -39 45 -39c17 0 31 4 45 10l4 -2v-77z" />
    <glyph glyph-name="tilde" unicode="&#x2dc;" horiz-adv-x="391" 
d="M259 718c28 0 50 13 74 42l7 -2l12 -82c-17 -27 -54 -53 -99 -53c-66 0 -91 33 -132 33c-34 0 -54 -12 -79 -42l-6 3l-12 83c20 28 57 51 99 51c65 0 89 -33 136 -33z" />
    <glyph glyph-name="hungarumlaut" unicode="&#x2dd;" horiz-adv-x="400" 
d="M151 603h-89l51 168h125zM320 603h-90l54 168h125z" />
    <glyph glyph-name="endash" unicode="&#x2013;" horiz-adv-x="512" 
d="M32 261v97h448v-97h-448z" />
    <glyph glyph-name="emdash" unicode="&#x2014;" horiz-adv-x="944" 
d="M32 261v97h880v-97h-880z" />
    <glyph glyph-name="quoteleft" unicode="&#x2018;" horiz-adv-x="212" 
d="M24 483l-2 9l63 213h93l-27 -222h-127z" />
    <glyph glyph-name="quoteright" unicode="&#x2019;" horiz-adv-x="213" 
d="M189 705l2 -9l-64 -213h-93l28 222h127z" />
    <glyph glyph-name="quotesinglbase" unicode="&#x201a;" horiz-adv-x="212" 
d="M181 128l2 -9l-63 -213h-93l27 222h127z" />
    <glyph glyph-name="quotedblleft" unicode="&#x201c;" horiz-adv-x="386" 
d="M24 483l-2 9l63 213h93l-27 -222h-127zM198 483l-2 9l63 213h93l-27 -222h-127z" />
    <glyph glyph-name="quotedblright" unicode="&#x201d;" horiz-adv-x="386" 
d="M362 705l2 -9l-63 -213h-93l27 222h127zM189 705l2 -9l-64 -213h-93l28 222h127z" />
    <glyph glyph-name="quotedblbase" unicode="&#x201e;" horiz-adv-x="386" 
d="M181 128l2 -9l-63 -213h-93l27 222h127zM355 128l2 -9l-63 -213h-93l27 222h127z" />
    <glyph glyph-name="dagger" unicode="&#x2020;" horiz-adv-x="378" 
d="M350 487h-106v-328h-109v328h-106v98h106v121l109 23v-144h106v-98z" />
    <glyph glyph-name="daggerdbl" unicode="&#x2021;" horiz-adv-x="378" 
d="M244 159l-109 -23v140h-106v93h106v127h-106v93h106v117l109 23v-140h106v-93h-106v-127h106v-93h-106v-117z" />
    <glyph glyph-name="bullet" unicode="&#x2022;" horiz-adv-x="353" 
d="M177 445c79 0 139 -62 139 -142s-60 -142 -139 -142c-80 0 -140 62 -140 142s60 142 140 142z" />
    <glyph glyph-name="ellipsis" unicode="&#x2026;" horiz-adv-x="766" 
d="M83 0v128h144v-128h-144zM539 0v128h144v-128h-144zM311 0v128h144v-128h-144z" />
    <glyph glyph-name="perthousand" unicode="&#x2030;" horiz-adv-x="1198" 
d="M196 349c-102 0 -174 72 -174 175c0 100 72 174 174 174c103 0 174 -74 174 -174c0 -103 -71 -175 -174 -175zM131 0l463 690h85l-463 -690h-85zM196 428c47 0 74 40 74 96c0 55 -27 95 -74 95s-74 -40 -74 -95c0 -56 27 -96 74 -96zM1002 -13c-103 0 -174 72 -174 175
c0 100 71 174 174 174c104 0 174 -74 174 -174c0 -103 -70 -175 -174 -175zM611 -13c-102 0 -175 72 -175 175c0 100 73 174 175 174c103 0 174 -74 174 -174c0 -103 -71 -175 -174 -175zM1002 66c48 0 74 41 74 96s-26 95 -74 95c-46 0 -74 -40 -74 -95s28 -96 74 -96z
M611 66c47 0 73 41 73 96s-26 95 -73 95s-74 -40 -74 -95s27 -96 74 -96z" />
    <glyph glyph-name="guilsinglleft" unicode="&#x2039;" horiz-adv-x="240" 
d="M117 79l-102 181l105 182h99l-102 -182l98 -181h-98z" />
    <glyph glyph-name="guilsinglright" unicode="&#x203a;" horiz-adv-x="240" 
d="M24 79l99 181l-101 182h98l106 -182l-102 -181h-100z" />
    <glyph glyph-name="fraction" unicode="&#x2044;" horiz-adv-x="133" 
d="M-240 0l525 690h88l-526 -690h-87z" />
    <glyph glyph-name="Euro" unicode="&#x20ac;" horiz-adv-x="551" 
d="M530 36c-37 -25 -86 -48 -165 -48c-161 0 -263 94 -293 253h-61v77h52c-1 10 -1 20 -1 30c0 9 0 18 1 26h-52v75h60c33 161 144 248 287 248c71 0 119 -16 157 -39v-110l-6 -3c-47 30 -81 43 -138 43c-82 0 -140 -45 -163 -139h193v-75h-203c-1 -9 -1 -18 -1 -28
s0 -19 1 -28h203v-77h-193c22 -95 78 -142 168 -142c63 0 103 22 149 56l5 -3v-116z" />
    <glyph glyph-name="trademark" unicode="&#x2122;" horiz-adv-x="711" 
d="M277 609h-90v-254h-94v254h-90v79h274v-79zM591 355l-25 159l-70 -160h-36l-67 158l-26 -157h-83l52 335h58l88 -202l84 202h62l52 -335h-89z" />
    <glyph glyph-name="minus" unicode="&#x2212;" horiz-adv-x="530" 
d="M46 296v100h438v-100h-438z" />
    <glyph glyph-name="Dcroat" unicode="&#x110;" horiz-adv-x="726" 
d="M386 308h-162v-195h62c155 0 261 53 261 235c0 178 -106 244 -261 244h-62v-181h162v-103zM78 0v308h-70v103h70v294h217c229 0 401 -107 401 -357c0 -251 -172 -348 -401 -348h-217z" />
    <glyph glyph-name="Eng" unicode="&#x14a;" horiz-adv-x="740" 
d="M422 -187v111c78 15 106 41 106 137v7l-329 384v-452h-130v715h77l395 -459v449h130v-647c0 -164 -70 -229 -249 -245z" />
    <glyph glyph-name="IJ" unicode="&#x132;" horiz-adv-x="580" 
d="M257 -187v111c78 15 106 41 106 137v644h147v-644c0 -167 -66 -232 -253 -248zM71 0v705h147v-705h-147z" />
    <glyph glyph-name="dcroat" unicode="&#x111;" horiz-adv-x="602" 
d="M292 94c56 0 92 18 122 48v259c-31 29 -66 45 -119 45c-79 0 -136 -61 -136 -184c0 -118 59 -168 133 -168zM441 0l-15 69c-38 -51 -92 -82 -167 -82c-139 0 -234 98 -234 275c0 182 99 287 240 287c65 0 113 -24 149 -64v110h-149v73h149v59l133 27v-86h60v-73h-60v-595
h-106z" />
    <glyph glyph-name="eng" unicode="&#x14b;" horiz-adv-x="575" 
d="M313 -216v106c52 6 77 26 77 103v351c0 75 -40 98 -90 98c-45 0 -78 -13 -112 -39v-403h-133v537h117l9 -64c40 39 90 76 169 76c104 0 173 -58 173 -181v-384c0 -137 -72 -192 -210 -200z" />
    <glyph glyph-name="ij" unicode="&#x133;" horiz-adv-x="513" 
d="M323 621v117h136v-117h-136zM57 621v117h135v-117h-135zM58 0v537h133v-537h-133zM248 -216v106c51 6 77 26 77 103v544h133v-553c0 -137 -73 -192 -210 -200z" />
    <glyph glyph-name="Abreve" unicode="&#x102;" 
d="M418 251l-89 224l-89 -224h178zM518 0l-59 147h-260l-58 -147h-135v7l300 706h63l301 -706v-7h-152zM338 752c-90 0 -154 58 -161 151h93c7 -42 31 -62 68 -62s60 21 68 62h93c-7 -93 -71 -151 -161 -151z" />
    <glyph glyph-name="Amacron" unicode="&#x100;" 
d="M418 251l-89 224l-89 -224h178zM518 0l-59 147h-260l-58 -147h-135v7l300 706h63l301 -706v-7h-152zM177 772v94h321v-94h-321z" />
    <glyph glyph-name="Aogonek" unicode="&#x104;" 
d="M601 -219c-85 0 -127 37 -127 96c0 47 18 87 79 123h-35l-59 147h-260l-58 -147h-135v7l300 706h63l301 -706v-7c-55 -28 -84 -68 -84 -95c0 -23 10 -39 46 -39c16 0 30 4 44 10l4 -2v-77c-17 -8 -45 -16 -79 -16zM418 251l-89 224l-89 -224h178z" />
    <glyph glyph-name="Aringacute" unicode="&#x1fa;" 
d="M418 251l-89 224l-89 -224h178zM518 0l-59 147h-260l-58 -147h-135v7l300 706h63l301 -706v-7h-152zM389 972h-110l84 150h142zM337 727c-69 0 -116 46 -116 112s47 112 116 112s116 -46 116 -112s-47 -112 -116 -112zM337 889c-29 0 -47 -22 -47 -50s18 -49 47 -49
s47 21 47 49s-18 50 -47 50z" />
    <glyph glyph-name="AEacute" unicode="&#x1fc;" horiz-adv-x="908" 
d="M629 760h-110l84 150h142zM452 263v308l-170 -308h170zM452 0v157h-228l-87 -157h-134v7l390 698h480v-112h-276v-177h237v-106h-237v-198h278v-112h-423z" />
    <glyph glyph-name="Cacute" unicode="&#x106;" horiz-adv-x="661" 
d="M414 -13c-230 0 -384 154 -384 368c0 215 156 363 377 363c92 0 147 -15 198 -41v-126l-5 -3c-49 34 -102 54 -180 54c-146 0 -239 -96 -239 -247c0 -152 96 -251 246 -251c82 0 136 23 191 68l6 -3v-125c-46 -32 -103 -57 -210 -57zM434 760h-110l84 150h142z" />
    <glyph glyph-name="Ccaron" unicode="&#x10c;" horiz-adv-x="661" 
d="M385 842l70 76h110l-125 -158h-110l-125 158h110zM414 -13c-230 0 -384 154 -384 368c0 215 156 363 377 363c92 0 147 -15 198 -41v-126l-5 -3c-49 34 -102 54 -180 54c-146 0 -239 -96 -239 -247c0 -152 96 -251 246 -251c82 0 136 23 191 68l6 -3v-125
c-46 -32 -103 -57 -210 -57z" />
    <glyph glyph-name="Ccircumflex" unicode="&#x108;" horiz-adv-x="661" 
d="M385 836l-70 -76h-110l125 158h110l125 -158h-110zM414 -13c-230 0 -384 154 -384 368c0 215 156 363 377 363c92 0 147 -15 198 -41v-126l-5 -3c-49 34 -102 54 -180 54c-146 0 -239 -96 -239 -247c0 -152 96 -251 246 -251c82 0 136 23 191 68l6 -3v-125
c-46 -32 -103 -57 -210 -57z" />
    <glyph glyph-name="Cdotaccent" unicode="&#x10a;" horiz-adv-x="661" 
d="M414 -13c-230 0 -384 154 -384 368c0 215 156 363 377 363c92 0 147 -15 198 -41v-126l-5 -3c-49 34 -102 54 -180 54c-146 0 -239 -96 -239 -247c0 -152 96 -251 246 -251c82 0 136 23 191 68l6 -3v-125c-46 -32 -103 -57 -210 -57zM318 767v117h134v-117h-134z" />
    <glyph glyph-name="Dcaron" unicode="&#x10e;" horiz-adv-x="717" 
d="M338 842l70 76h110l-125 -158h-110l-125 158h110zM276 592h-61v-479h61c156 0 261 53 261 235c0 178 -105 244 -261 244zM69 0v705h216c230 0 402 -107 402 -357c0 -251 -172 -348 -402 -348h-216z" />
    <glyph glyph-name="Ebreve" unicode="&#x114;" horiz-adv-x="539" 
d="M69 0v705h421v-112h-276v-175h238v-110h-238v-196h279v-112h-424zM283 752c-90 0 -154 58 -161 151h93c7 -42 31 -62 68 -62s60 21 68 62h93c-7 -93 -71 -151 -161 -151z" />
    <glyph glyph-name="Ecaron" unicode="&#x11a;" horiz-adv-x="539" 
d="M282 842l70 76h110l-125 -158h-110l-125 158h110zM69 0v705h421v-112h-276v-175h238v-110h-238v-196h279v-112h-424z" />
    <glyph glyph-name="Edotaccent" unicode="&#x116;" horiz-adv-x="539" 
d="M215 767v117h134v-117h-134zM69 0v705h421v-112h-276v-175h238v-110h-238v-196h279v-112h-424z" />
    <glyph glyph-name="Emacron" unicode="&#x112;" horiz-adv-x="539" 
d="M69 0v705h421v-112h-276v-175h238v-110h-238v-196h279v-112h-424zM121 772v94h321v-94h-321z" />
    <glyph glyph-name="Eogonek" unicode="&#x118;" horiz-adv-x="539" 
d="M69 0v705h421v-112h-276v-175h238v-110h-238v-196h279v-112h-49c-52 -35 -73 -68 -73 -95c0 -23 10 -39 45 -39c17 0 31 4 45 10l4 -2v-77c-18 -8 -45 -16 -79 -16c-85 0 -128 37 -128 96c0 50 25 86 86 123h-275z" />
    <glyph glyph-name="Gbreve" unicode="&#x11e;" horiz-adv-x="706" 
d="M391 752c-90 0 -154 58 -161 151h93c7 -42 31 -62 68 -62s60 21 68 62h93c-7 -93 -71 -151 -161 -151zM656 63c-57 -39 -131 -76 -249 -76c-237 0 -377 150 -377 368c0 217 157 363 381 363c102 0 164 -20 213 -45v-124l-6 -3c-50 32 -113 56 -195 56
c-152 0 -242 -97 -242 -250c0 -152 75 -249 229 -249c38 0 73 7 105 20v160h-143v108h284v-328z" />
    <glyph glyph-name="Gcircumflex" unicode="&#x11c;" horiz-adv-x="706" 
d="M390 836l-70 -76h-110l125 158h110l125 -158h-110zM656 63c-57 -39 -131 -76 -249 -76c-237 0 -377 150 -377 368c0 217 157 363 381 363c102 0 164 -20 213 -45v-124l-6 -3c-50 32 -113 56 -195 56c-152 0 -242 -97 -242 -250c0 -152 75 -249 229 -249c38 0 73 7 105 20
v160h-143v108h284v-328z" />
    <glyph glyph-name="uni0122" unicode="&#x122;" horiz-adv-x="706" 
d="M319 -228l9 171h122l1 -10l-44 -161h-88zM656 63c-57 -39 -131 -76 -249 -76c-237 0 -377 150 -377 368c0 217 157 363 381 363c102 0 164 -20 213 -45v-124l-6 -3c-50 32 -113 56 -195 56c-152 0 -242 -97 -242 -250c0 -152 75 -249 229 -249c38 0 73 7 105 20v160h-143
v108h284v-328z" />
    <glyph glyph-name="Gdotaccent" unicode="&#x120;" horiz-adv-x="706" 
d="M323 767v117h134v-117h-134zM656 63c-57 -39 -131 -76 -249 -76c-237 0 -377 150 -377 368c0 217 157 363 381 363c102 0 164 -20 213 -45v-124l-6 -3c-50 32 -113 56 -195 56c-152 0 -242 -97 -242 -250c0 -152 75 -249 229 -249c38 0 73 7 105 20v160h-143v108h284
v-328z" />
    <glyph glyph-name="Hbar" unicode="&#x126;" horiz-adv-x="748" 
d="M533 417v92h-317v-92h317zM533 0v297h-317v-297h-147v509h-76v82h76v114h147v-114h317v114h147v-114h72v-82h-72v-509h-147z" />
    <glyph glyph-name="Hcircumflex" unicode="&#x124;" horiz-adv-x="748" 
d="M533 0v297h-317v-297h-147v705h147v-288h317v288h147v-705h-147zM374 836l-70 -76h-110l125 158h110l125 -158h-110z" />
    <glyph glyph-name="Ibreve" unicode="&#x12c;" horiz-adv-x="288" 
d="M71 0v705h147v-705h-147zM145 752c-90 0 -154 58 -161 151h93c7 -42 31 -62 68 -62s60 21 68 62h93c-7 -93 -71 -151 -161 -151z" />
    <glyph glyph-name="Idotaccent" unicode="&#x130;" horiz-adv-x="288" 
d="M71 0v705h147v-705h-147zM77 767v117h134v-117h-134z" />
    <glyph glyph-name="Imacron" unicode="&#x12a;" horiz-adv-x="288" 
d="M8 762v94h273v-94h-273zM71 0v705h147v-705h-147z" />
    <glyph glyph-name="Iogonek" unicode="&#x12e;" horiz-adv-x="288" 
d="M228 -203c-18 -8 -45 -16 -79 -16c-85 0 -128 37 -128 96c0 47 21 87 83 123h-33v705h147v-705c-62 -33 -84 -68 -84 -95c0 -23 10 -39 45 -39c17 0 31 4 45 10l4 -2v-77z" />
    <glyph glyph-name="Itilde" unicode="&#x128;" horiz-adv-x="288" 
d="M71 0v705h147v-705h-147zM214 856c29 0 52 13 76 42l7 -2l12 -82c-17 -27 -55 -53 -101 -53c-67 0 -98 34 -140 34c-35 0 -57 -12 -82 -42l-6 3l-12 84c19 28 59 50 103 50c65 0 95 -34 143 -34z" />
    <glyph glyph-name="Jcircumflex" unicode="&#x134;" horiz-adv-x="291" 
d="M147 836l-70 -76h-110l125 158h110l125 -158h-110zM-32 -187v111c78 15 107 41 107 137v644h146v-644c0 -167 -66 -232 -253 -248z" />
    <glyph glyph-name="uni0136" unicode="&#x136;" horiz-adv-x="657" 
d="M273 -228l9 171h122l1 -10l-44 -161h-88zM483 0l-193 316l-74 -89v-227h-147v705h147v-312l264 312h148v-6l-233 -277l249 -416v-6h-161z" />
    <glyph glyph-name="Lacute" unicode="&#x139;" horiz-adv-x="507" 
d="M187 760h-110l84 150h142zM69 0v705h147v-588h264v-117h-411z" />
    <glyph glyph-name="Lcaron" unicode="&#x13d;" horiz-adv-x="507" 
d="M264 543l7 162h105v-22l-31 -140h-81zM69 0v705h147v-588h264v-117h-411z" />
    <glyph glyph-name="uni013B" unicode="&#x13b;" horiz-adv-x="507" 
d="M200 -228l9 171h122l1 -10l-44 -161h-88zM69 0v705h147v-588h264v-117h-411z" />
    <glyph glyph-name="Ldot" unicode="&#x13f;" horiz-adv-x="520" 
d="M344 310v128h144v-128h-144zM69 0v705h146v-588h265v-117h-411z" />
    <glyph glyph-name="Nacute" unicode="&#x143;" horiz-adv-x="740" 
d="M671 -12h-74l-398 464v-452h-130v715h77l395 -459v449h130v-717zM422 760h-110l84 150h142z" />
    <glyph glyph-name="Ncaron" unicode="&#x147;" horiz-adv-x="740" 
d="M671 -12h-74l-398 464v-452h-130v715h77l395 -459v449h130v-717zM374 842l70 76h110l-125 -158h-110l-125 158h110z" />
    <glyph glyph-name="uni0145" unicode="&#x145;" horiz-adv-x="740" 
d="M304 -228l9 171h122l1 -10l-44 -161h-88zM671 -12h-74l-398 464v-452h-130v715h77l395 -459v449h130v-717z" />
    <glyph glyph-name="Obreve" unicode="&#x14e;" horiz-adv-x="785" 
d="M393 752c-90 0 -154 58 -161 151h93c7 -42 31 -62 68 -62s60 21 68 62h93c-7 -93 -71 -151 -161 -151zM393 -13c-216 0 -363 160 -363 368s147 363 363 363c215 0 362 -155 362 -363s-147 -368 -362 -368zM393 101c130 0 212 101 212 254s-84 249 -212 249
s-212 -96 -212 -249s82 -254 212 -254z" />
    <glyph glyph-name="Ohungarumlaut" unicode="&#x150;" horiz-adv-x="785" 
d="M349 760h-94l47 149h131c-1 0 -84 -149 -84 -149zM534 760h-94l49 149h132c-3 0 -87 -149 -87 -149zM393 -13c-216 0 -363 160 -363 368s147 363 363 363c215 0 362 -155 362 -363s-147 -368 -362 -368zM393 101c130 0 212 101 212 254s-84 249 -212 249
s-212 -96 -212 -249s82 -254 212 -254z" />
    <glyph glyph-name="Omacron" unicode="&#x14c;" horiz-adv-x="785" 
d="M231 772v94h321v-94h-321zM393 -13c-216 0 -363 160 -363 368s147 363 363 363c215 0 362 -155 362 -363s-147 -368 -362 -368zM393 101c130 0 212 101 212 254s-84 249 -212 249s-212 -96 -212 -249s82 -254 212 -254z" />
    <glyph glyph-name="Oslashacute" unicode="&#x1fe;" horiz-adv-x="785" 
d="M178 355c0 -60 12 -112 34 -152l305 364c-33 24 -75 37 -124 37c-129 0 -215 -96 -215 -249zM393 101c131 0 213 101 213 254c0 63 -13 115 -37 155l-307 -367c34 -27 79 -42 131 -42zM393 -13c-81 0 -153 23 -210 62l-81 -97l-58 50l81 97c-60 65 -95 155 -95 256
c0 208 147 363 363 363c78 0 147 -20 203 -56l72 85l57 -50l-70 -83c64 -65 100 -155 100 -259c0 -208 -147 -368 -362 -368zM441 760h-110l84 150h142z" />
    <glyph glyph-name="Racute" unicode="&#x154;" horiz-adv-x="633" 
d="M355 760h-110l84 150h142zM301 595h-87v-223h92c94 0 133 42 133 115c0 74 -42 108 -138 108zM474 0l-162 265h-98v-265h-145v705h245c171 0 267 -77 267 -217c0 -98 -51 -163 -134 -191l181 -288v-9h-154z" />
    <glyph glyph-name="Rcaron" unicode="&#x158;" horiz-adv-x="633" 
d="M306 842l70 76h110l-125 -158h-110l-125 158h110zM301 595h-87v-223h92c94 0 133 42 133 115c0 74 -42 108 -138 108zM474 0l-162 265h-98v-265h-145v705h245c171 0 267 -77 267 -217c0 -98 -51 -163 -134 -191l181 -288v-9h-154z" />
    <glyph glyph-name="uni0156" unicode="&#x156;" horiz-adv-x="633" 
d="M256 -228l9 171h122l1 -10l-44 -161h-88zM301 595h-87v-223h92c94 0 133 42 133 115c0 74 -42 108 -138 108zM474 0l-162 265h-98v-265h-145v705h245c171 0 267 -77 267 -217c0 -98 -51 -163 -134 -191l181 -288v-9h-154z" />
    <glyph glyph-name="Sacute" unicode="&#x15a;" horiz-adv-x="530" 
d="M242 -13c-98 0 -162 24 -207 51v129l5 2c57 -38 113 -65 196 -65c77 0 117 34 117 90c0 50 -26 68 -106 96l-49 16c-103 35 -166 96 -166 204c0 131 97 208 233 208c81 0 140 -16 184 -41v-122l-5 -3c-54 33 -103 51 -174 51s-104 -34 -104 -81c0 -43 22 -68 87 -91
l49 -16c127 -40 191 -91 191 -210c0 -140 -98 -218 -251 -218zM315 760h-110l84 150h142z" />
    <glyph glyph-name="uni015E" unicode="&#x15e;" horiz-adv-x="530" 
d="M241 -226c-41 0 -67 11 -82 20v65l5 2c16 -9 34 -17 59 -17c26 0 39 12 39 31c0 24 -23 34 -64 38v76c-74 6 -125 26 -163 49v129l5 2c57 -38 113 -65 196 -65c77 0 117 34 117 90c0 50 -26 68 -106 96l-49 16c-103 35 -166 96 -166 204c0 131 97 208 233 208
c81 0 140 -16 184 -41v-122l-5 -3c-54 33 -103 51 -174 51s-104 -34 -104 -81c0 -43 22 -68 87 -91l49 -16c127 -40 191 -91 191 -210c0 -132 -87 -208 -224 -217v-32c47 -11 85 -27 85 -88c0 -59 -44 -94 -113 -94z" />
    <glyph glyph-name="Scircumflex" unicode="&#x15c;" horiz-adv-x="530" 
d="M266 836l-70 -76h-110l125 158h110l125 -158h-110zM242 -13c-98 0 -162 24 -207 51v129l5 2c57 -38 113 -65 196 -65c77 0 117 34 117 90c0 50 -26 68 -106 96l-49 16c-103 35 -166 96 -166 204c0 131 97 208 233 208c81 0 140 -16 184 -41v-122l-5 -3
c-54 33 -103 51 -174 51s-104 -34 -104 -81c0 -43 22 -68 87 -91l49 -16c127 -40 191 -91 191 -210c0 -140 -98 -218 -251 -218z" />
    <glyph glyph-name="uni0218" unicode="&#x218;" horiz-adv-x="530" 
d="M189 -228l9 171h122l1 -10l-44 -161h-88zM242 -13c-98 0 -162 24 -207 51v129l5 2c57 -38 113 -65 196 -65c77 0 117 34 117 90c0 50 -26 68 -106 96l-49 16c-103 35 -166 96 -166 204c0 131 97 208 233 208c81 0 140 -16 184 -41v-122l-5 -3c-54 33 -103 51 -174 51
s-104 -34 -104 -81c0 -43 22 -68 87 -91l49 -16c127 -40 191 -91 191 -210c0 -140 -98 -218 -251 -218z" />
    <glyph glyph-name="Tcaron" unicode="&#x164;" horiz-adv-x="561" 
d="M280 842l70 76h110l-125 -158h-110l-125 158h110zM547 587h-193v-587h-147v587h-194v118h534v-118z" />
    <glyph glyph-name="Tcommaaccent" unicode="&#x162;" horiz-adv-x="561" 
d="M210 -228l9 171h122l1 -10l-44 -161h-88zM547 587h-193v-587h-147v587h-194v118h534v-118z" />
    <glyph glyph-name="uni021A" unicode="&#x21a;" horiz-adv-x="561" 
d="M210 -228l9 171h122l1 -10l-44 -161h-88zM547 587h-193v-587h-147v587h-194v118h534v-118z" />
    <glyph glyph-name="Tbar" unicode="&#x166;" horiz-adv-x="561" 
d="M497 327h-143v-327h-147v327h-143v94h143v166h-194v118h534v-118h-193v-166h143v-94z" />
    <glyph glyph-name="Ubreve" unicode="&#x16c;" horiz-adv-x="704" 
d="M353 -12c-181 0 -293 98 -293 282v435h147v-432c0 -109 56 -165 150 -165s153 56 153 165v432h134v-435c0 -178 -111 -282 -291 -282zM355 752c-90 0 -154 58 -161 151h93c7 -42 31 -62 68 -62s60 21 68 62h93c-7 -93 -71 -151 -161 -151z" />
    <glyph glyph-name="Uhungarumlaut" unicode="&#x170;" horiz-adv-x="704" 
d="M312 760h-94l47 149h131c-1 0 -84 -149 -84 -149zM497 760h-94l49 149h132c-3 0 -87 -149 -87 -149zM353 -12c-181 0 -293 98 -293 282v435h147v-432c0 -109 56 -165 150 -165s153 56 153 165v432h134v-435c0 -178 -111 -282 -291 -282z" />
    <glyph glyph-name="Umacron" unicode="&#x16a;" horiz-adv-x="704" 
d="M353 -12c-181 0 -293 98 -293 282v435h147v-432c0 -109 56 -165 150 -165s153 56 153 165v432h134v-435c0 -178 -111 -282 -291 -282zM194 772v94h321v-94h-321z" />
    <glyph glyph-name="Uogonek" unicode="&#x172;" horiz-adv-x="704" 
d="M419 -219c-86 0 -128 37 -128 96c0 45 22 81 74 111h-12c-181 0 -293 98 -293 282v435h147v-432c0 -109 56 -165 150 -165s153 56 153 165v432h134v-435c0 -105 -38 -184 -108 -232c-64 -44 -133 -75 -133 -131c0 -25 10 -41 46 -41c17 0 30 4 44 10l5 -2v-77
c-18 -8 -45 -16 -79 -16z" />
    <glyph glyph-name="Uring" unicode="&#x16e;" horiz-adv-x="704" 
d="M353 -12c-181 0 -293 98 -293 282v435h147v-432c0 -109 56 -165 150 -165s153 56 153 165v432h134v-435c0 -178 -111 -282 -291 -282zM356 714c-69 0 -116 46 -116 112s47 112 116 112s116 -46 116 -112s-47 -112 -116 -112zM356 876c-29 0 -47 -22 -47 -50
s18 -49 47 -49s47 21 47 49s-18 50 -47 50z" />
    <glyph glyph-name="Utilde" unicode="&#x168;" horiz-adv-x="704" 
d="M353 -12c-181 0 -293 98 -293 282v435h147v-432c0 -109 56 -165 150 -165s153 56 153 165v432h134v-435c0 -178 -111 -282 -291 -282zM425 856c29 0 52 13 76 42l7 -2l12 -82c-17 -27 -55 -53 -101 -53c-67 0 -98 34 -140 34c-35 0 -57 -12 -82 -42l-6 3l-12 84
c19 28 59 50 103 50c65 0 95 -34 143 -34z" />
    <glyph glyph-name="Wacute" unicode="&#x1e82;" horiz-adv-x="973" 
d="M642 -9l-161 415l-158 -415h-70l-242 707v7h152l148 -439l108 290l-50 142v7h149l161 -435l144 435h138l1 -7l-242 -707h-78zM504 760h-110l84 150h142z" />
    <glyph glyph-name="Wcircumflex" unicode="&#x174;" horiz-adv-x="973" 
d="M642 -9l-161 415l-158 -415h-70l-242 707v7h152l148 -439l108 290l-50 142v7h149l161 -435l144 435h138l1 -7l-242 -707h-78zM455 836l-70 -76h-110l125 158h110l125 -158h-110z" />
    <glyph glyph-name="Wdieresis" unicode="&#x1e84;" horiz-adv-x="973" 
d="M642 -9l-161 415l-158 -415h-70l-242 707v7h152l148 -439l108 290l-50 142v7h149l161 -435l144 435h138l1 -7l-242 -707h-78zM501 756v114h127v-114h-127zM282 756v114h127v-114h-127z" />
    <glyph glyph-name="Wgrave" unicode="&#x1e80;" horiz-adv-x="973" 
d="M642 -9l-161 415l-158 -415h-70l-242 707v7h152l148 -439l108 290l-50 142v7h149l161 -435l144 435h138l1 -7l-242 -707h-78zM410 760l-116 150h142l83 -150h-109z" />
    <glyph glyph-name="Ycircumflex" unicode="&#x176;" horiz-adv-x="608" 
d="M379 0h-147v284l-226 414v7h152l154 -304l154 304h135v-7l-222 -408v-290zM311 836l-70 -76h-110l125 158h110l125 -158h-110z" />
    <glyph glyph-name="Ygrave" unicode="&#x1ef2;" horiz-adv-x="608" 
d="M379 0h-147v284l-226 414v7h152l154 -304l154 304h135v-7l-222 -408v-290zM262 760l-116 150h142l83 -150h-109z" />
    <glyph glyph-name="Zacute" unicode="&#x179;" horiz-adv-x="598" 
d="M350 760h-110l84 150h142zM563 0h-552v49l358 543h-314v113h513v-56l-353 -536h348v-113z" />
    <glyph glyph-name="Zdotaccent" unicode="&#x17b;" horiz-adv-x="598" 
d="M234 767v117h134v-117h-134zM563 0h-552v49l358 543h-314v113h513v-56l-353 -536h348v-113z" />
    <glyph glyph-name="abreve" unicode="&#x103;" horiz-adv-x="530" 
d="M237 82c52 0 86 22 109 52v109l-78 -12c-81 -12 -113 -32 -113 -79c0 -42 26 -70 82 -70zM364 0l-10 60c-27 -38 -72 -73 -150 -73c-103 0 -180 55 -180 159c0 111 85 149 215 168l107 15v2c0 85 -36 111 -117 111c-68 0 -111 -15 -158 -40l-6 2v103c42 26 102 42 183 42
c147 0 231 -59 231 -214v-335h-115zM259 606c-88 0 -153 59 -160 152h91c8 -42 31 -63 69 -63s60 22 68 63h91c-7 -93 -71 -152 -159 -152z" />
    <glyph glyph-name="amacron" unicode="&#x101;" horiz-adv-x="530" 
d="M237 82c52 0 86 22 109 52v109l-78 -12c-81 -12 -113 -32 -113 -79c0 -42 26 -70 82 -70zM364 0l-10 60c-27 -38 -72 -73 -150 -73c-103 0 -180 55 -180 159c0 111 85 149 215 168l107 15v2c0 85 -36 111 -117 111c-68 0 -111 -15 -158 -40l-6 2v103c42 26 102 42 183 42
c147 0 231 -59 231 -214v-335h-115zM102 636v91h312v-91h-312z" />
    <glyph glyph-name="aogonek" unicode="&#x105;" horiz-adv-x="530" 
d="M413 -219c-85 0 -128 37 -128 96c0 45 21 82 81 119l-11 65c-27 -38 -73 -74 -151 -74c-103 0 -180 55 -180 159c0 111 85 149 215 168l107 15v2c0 85 -36 111 -117 111c-68 0 -111 -15 -158 -40l-6 2v103c42 26 102 42 183 42c147 0 231 -59 231 -214v-335
c-53 -31 -81 -68 -81 -95c0 -23 10 -39 45 -39c17 0 31 4 45 10l4 -2v-77c-18 -8 -45 -16 -79 -16zM237 82c52 0 86 22 109 52v109l-78 -12c-81 -12 -113 -32 -113 -79c0 -42 26 -70 82 -70z" />
    <glyph glyph-name="aringacute" unicode="&#x1fb;" horiz-adv-x="530" 
d="M237 82c52 0 86 22 109 52v109l-78 -12c-81 -12 -113 -32 -113 -79c0 -42 26 -70 82 -70zM364 0l-10 60c-27 -38 -72 -73 -150 -73c-103 0 -180 55 -180 159c0 111 85 149 215 168l107 15v2c0 85 -36 111 -117 111c-68 0 -111 -15 -158 -40l-6 2v103c42 26 102 42 183 42
c147 0 231 -59 231 -214v-335h-115zM262 588c-69 0 -116 46 -116 112s47 112 116 112s116 -46 116 -112s-47 -112 -116 -112zM262 750c-29 0 -47 -22 -47 -50s18 -49 47 -49s47 21 47 49s-18 50 -47 50zM314 839h-110l84 150h142z" />
    <glyph glyph-name="aeacute" unicode="&#x1fd;" horiz-adv-x="865" 
d="M488 603h-108l87 168h143zM608 452c-68 0 -113 -39 -128 -119h234c-4 77 -39 119 -106 119zM827 30c-35 -20 -99 -43 -188 -43c-103 0 -182 32 -232 90c-38 -51 -97 -90 -194 -90c-111 0 -187 54 -187 157c0 112 90 151 214 168l108 15v2c0 88 -37 113 -121 113
c-65 0 -108 -15 -155 -40l-5 2v103c42 26 101 42 183 42c89 0 149 -22 181 -74c43 49 102 74 177 74c145 0 250 -89 231 -304h-363c8 -105 66 -153 173 -153c74 0 127 20 172 46l6 -3v-105zM236 82c61 0 106 27 126 76c-8 25 -14 52 -16 82l-77 -12
c-80 -12 -113 -29 -113 -77c0 -41 26 -69 80 -69z" />
    <glyph glyph-name="cacute" unicode="&#x107;" horiz-adv-x="494" 
d="M328 603h-108l87 168h143zM311 -13c-173 0 -286 106 -286 282c0 179 122 280 282 280c67 0 119 -15 147 -33v-104l-5 -3c-37 21 -77 36 -129 36c-88 0 -159 -59 -159 -176c0 -116 64 -179 161 -179c60 0 101 18 139 44l6 -2v-101c-31 -23 -81 -44 -156 -44z" />
    <glyph glyph-name="ccaron" unicode="&#x10d;" horiz-adv-x="494" 
d="M284 687l66 77h109l-123 -161h-104l-122 161h108zM311 -13c-173 0 -286 106 -286 282c0 179 122 280 282 280c67 0 119 -15 147 -33v-104l-5 -3c-37 21 -77 36 -129 36c-88 0 -159 -59 -159 -176c0 -116 64 -179 161 -179c60 0 101 18 139 44l6 -2v-101
c-31 -23 -81 -44 -156 -44z" />
    <glyph glyph-name="ccircumflex" unicode="&#x109;" horiz-adv-x="494" 
d="M284 681l-66 -78h-108l122 161h104l123 -161h-109zM311 -13c-173 0 -286 106 -286 282c0 179 122 280 282 280c67 0 119 -15 147 -33v-104l-5 -3c-37 21 -77 36 -129 36c-88 0 -159 -59 -159 -176c0 -116 64 -179 161 -179c60 0 101 18 139 44l6 -2v-101
c-31 -23 -81 -44 -156 -44z" />
    <glyph glyph-name="cdotaccent" unicode="&#x10b;" horiz-adv-x="494" 
d="M311 -13c-173 0 -286 106 -286 282c0 179 122 280 282 280c67 0 119 -15 147 -33v-104l-5 -3c-37 21 -77 36 -129 36c-88 0 -159 -59 -159 -176c0 -116 64 -179 161 -179c60 0 101 18 139 44l6 -2v-101c-31 -23 -81 -44 -156 -44zM217 623v117h134v-117h-134z" />
    <glyph glyph-name="dcaron" unicode="&#x10f;" horiz-adv-x="603" 
d="M589 581l7 162h105v-22l-31 -140h-81zM292 94c56 0 92 18 122 48v259c-31 29 -66 45 -119 45c-79 0 -136 -61 -136 -184c0 -118 59 -168 133 -168zM441 0l-15 69c-38 -51 -92 -82 -167 -82c-139 0 -234 98 -234 275c0 182 99 287 240 287c65 0 113 -24 149 -64v242
l133 27v-754h-106z" />
    <glyph glyph-name="ebreve" unicode="&#x115;" horiz-adv-x="545" 
d="M287 452c-68 0 -113 -39 -128 -119h234c-4 77 -39 119 -106 119zM507 30c-35 -20 -99 -43 -188 -43c-191 0 -294 108 -294 284c0 165 106 278 262 278c146 0 251 -89 232 -306h-364c9 -104 68 -151 174 -151c74 0 127 20 172 46l6 -3v-105zM282 606
c-88 0 -153 59 -160 152h91c8 -42 31 -63 69 -63s60 22 68 63h91c-7 -93 -71 -152 -159 -152z" />
    <glyph glyph-name="ecaron" unicode="&#x11b;" horiz-adv-x="545" 
d="M281 687l66 77h109l-123 -161h-104l-122 161h108zM287 452c-68 0 -113 -39 -128 -119h234c-4 77 -39 119 -106 119zM507 30c-35 -20 -99 -43 -188 -43c-191 0 -294 108 -294 284c0 165 106 278 262 278c146 0 251 -89 232 -306h-364c9 -104 68 -151 174 -151
c74 0 127 20 172 46l6 -3v-105z" />
    <glyph glyph-name="edotaccent" unicode="&#x117;" horiz-adv-x="545" 
d="M287 452c-68 0 -113 -39 -128 -119h234c-4 77 -39 119 -106 119zM507 30c-35 -20 -99 -43 -188 -43c-191 0 -294 108 -294 284c0 165 106 278 262 278c146 0 251 -89 232 -306h-364c9 -104 68 -151 174 -151c74 0 127 20 172 46l6 -3v-105zM214 623v117h134v-117h-134z
" />
    <glyph glyph-name="emacron" unicode="&#x113;" horiz-adv-x="545" 
d="M287 452c-68 0 -113 -39 -128 -119h234c-4 77 -39 119 -106 119zM507 30c-35 -20 -99 -43 -188 -43c-191 0 -294 108 -294 284c0 165 106 278 262 278c146 0 251 -89 232 -306h-364c9 -104 68 -151 174 -151c74 0 127 20 172 46l6 -3v-105zM125 636v91h312v-91h-312z" />
    <glyph glyph-name="eogonek" unicode="&#x119;" horiz-adv-x="545" 
d="M287 452c-68 0 -113 -39 -128 -119h234c-4 77 -39 119 -106 119zM463 -203c-18 -8 -45 -16 -79 -16c-85 0 -128 37 -128 96c0 45 21 77 77 110h-14c-191 0 -294 108 -294 284c0 165 106 278 262 278c146 0 251 -89 232 -306h-364c9 -104 68 -151 174 -151
c74 0 127 20 172 46l6 -3v-105c-17 -9 -41 -19 -64 -33c-51 -27 -74 -61 -74 -92c0 -23 10 -39 45 -39c17 0 31 4 44 10l5 -2v-77z" />
    <glyph glyph-name="gbreve" unicode="&#x11f;" horiz-adv-x="524" 
d="M248 267c54 0 93 37 93 97c0 61 -39 97 -93 97s-93 -36 -93 -97c0 -60 39 -97 93 -97zM250 -222c-157 0 -248 42 -247 131c0 32 15 58 30 70h105l2 -4c-7 -10 -15 -24 -15 -46c0 -39 38 -60 125 -60c96 0 141 37 141 83c0 34 -18 43 -67 45l-143 6
c-95 4 -134 49 -134 106c0 49 27 85 72 108c-53 30 -86 81 -86 147c0 110 88 184 214 184c38 0 73 -8 103 -21l165 16v-98h-79c15 -22 26 -52 26 -86c0 -103 -87 -173 -215 -173c-19 0 -37 2 -54 5c-25 -10 -36 -24 -36 -45c0 -22 17 -27 49 -28l145 -7
c106 -5 168 -44 168 -148c0 -111 -97 -185 -269 -185zM262 606c-88 0 -153 59 -160 152h91c8 -42 31 -63 69 -63s60 22 68 63h91c-7 -93 -71 -152 -159 -152z" />
    <glyph glyph-name="gcircumflex" unicode="&#x11d;" horiz-adv-x="524" 
d="M262 681l-66 -78h-108l122 161h104l123 -161h-109zM248 267c54 0 93 37 93 97c0 61 -39 97 -93 97s-93 -36 -93 -97c0 -60 39 -97 93 -97zM250 -222c-157 0 -248 42 -247 131c0 32 15 58 30 70h105l2 -4c-7 -10 -15 -24 -15 -46c0 -39 38 -60 125 -60c96 0 141 37 141 83
c0 34 -18 43 -67 45l-143 6c-95 4 -134 49 -134 106c0 49 27 85 72 108c-53 30 -86 81 -86 147c0 110 88 184 214 184c38 0 73 -8 103 -21l165 16v-98h-79c15 -22 26 -52 26 -86c0 -103 -87 -173 -215 -173c-19 0 -37 2 -54 5c-25 -10 -36 -24 -36 -45c0 -22 17 -27 49 -28
l145 -7c106 -5 168 -44 168 -148c0 -111 -97 -185 -269 -185z" />
    <glyph glyph-name="uni0123" unicode="&#x123;" horiz-adv-x="524" 
d="M324 774l-9 -171h-121l-3 6l46 165h87zM248 267c54 0 93 37 93 97c0 61 -39 97 -93 97s-93 -36 -93 -97c0 -60 39 -97 93 -97zM250 -222c-157 0 -248 42 -247 131c0 32 15 58 30 70h105l2 -4c-7 -10 -15 -24 -15 -46c0 -39 38 -60 125 -60c96 0 141 37 141 83
c0 34 -18 43 -67 45l-143 6c-95 4 -134 49 -134 106c0 49 27 85 72 108c-53 30 -86 81 -86 147c0 110 88 184 214 184c38 0 73 -8 103 -21l165 16v-98h-79c15 -22 26 -52 26 -86c0 -103 -87 -173 -215 -173c-19 0 -37 2 -54 5c-25 -10 -36 -24 -36 -45c0 -22 17 -27 49 -28
l145 -7c106 -5 168 -44 168 -148c0 -111 -97 -185 -269 -185z" />
    <glyph glyph-name="gdotaccent" unicode="&#x121;" horiz-adv-x="524" 
d="M248 267c54 0 93 37 93 97c0 61 -39 97 -93 97s-93 -36 -93 -97c0 -60 39 -97 93 -97zM250 -222c-157 0 -248 42 -247 131c0 32 15 58 30 70h105l2 -4c-7 -10 -15 -24 -15 -46c0 -39 38 -60 125 -60c96 0 141 37 141 83c0 34 -18 43 -67 45l-143 6
c-95 4 -134 49 -134 106c0 49 27 85 72 108c-53 30 -86 81 -86 147c0 110 88 184 214 184c38 0 73 -8 103 -21l165 16v-98h-79c15 -22 26 -52 26 -86c0 -103 -87 -173 -215 -173c-19 0 -37 2 -54 5c-25 -10 -36 -24 -36 -45c0 -22 17 -27 49 -28l145 -7
c106 -5 168 -44 168 -148c0 -111 -97 -185 -269 -185zM195 623v117h134v-117h-134z" />
    <glyph glyph-name="hbar" unicode="&#x127;" horiz-adv-x="575" 
d="M300 442c-45 0 -78 -14 -112 -39v-403h-133v595h-60v73h60v59l133 27v-86h150v-73h-150v-118c39 38 89 72 164 72c106 0 171 -58 171 -181v-368h-133v344c0 75 -40 98 -90 98z" />
    <glyph glyph-name="hcircumflex" unicode="&#x125;" horiz-adv-x="574" 
d="M300 442c-45 0 -78 -14 -112 -39v-403h-133v727l133 27v-277c39 38 89 72 164 72c106 0 171 -58 171 -181v-368h-133v344c0 75 -40 98 -90 98zM290 865l-70 -76h-110l125 158h110l125 -158h-110z" />
    <glyph glyph-name="ibreve" unicode="&#x12d;" horiz-adv-x="251" 
d="M59 0v537h133v-537h-133zM126 606c-88 0 -153 59 -160 152h91c8 -42 31 -63 69 -63s60 22 68 63h91c-7 -93 -71 -152 -159 -152z" />
    <glyph glyph-name="idotaccent" horiz-adv-x="249" 
d="M57 621v117h135v-117h-135zM58 0v537h133v-537h-133z" />
    <glyph glyph-name="imacron" unicode="&#x12b;" horiz-adv-x="251" 
d="M1 636v91h248v-91h-248zM59 0v537h133v-537h-133z" />
    <glyph glyph-name="iogonek" unicode="&#x12f;" horiz-adv-x="251" 
d="M57 621v117h135v-117h-135zM128 -219c-85 0 -128 37 -128 96c0 40 16 76 58 107v553h133v-537c-59 -33 -78 -68 -78 -95c0 -23 10 -39 45 -39c17 0 31 4 45 10l4 -2v-77c-18 -8 -45 -16 -79 -16z" />
    <glyph glyph-name="itilde" unicode="&#x129;" horiz-adv-x="251" 
d="M59 0v537h133v-537h-133zM192 718c28 0 50 13 74 42l7 -2l12 -82c-17 -27 -54 -53 -99 -53c-66 0 -91 33 -132 33c-34 0 -54 -12 -79 -42l-6 3l-12 83c20 28 57 51 99 51c65 0 89 -33 136 -33z" />
    <glyph glyph-name="jcircumflex" unicode="&#x135;" horiz-adv-x="245" 
d="M-21 -216v106c52 6 77 26 77 103v536h133v-545c0 -137 -72 -192 -210 -200zM124 681l-66 -78h-108l122 161h104l123 -161h-109z" />
    <glyph glyph-name="uni0137" unicode="&#x137;" horiz-adv-x="539" 
d="M206 -228l9 171h122l1 -10l-44 -161h-88zM387 0l-142 235l-57 -69v-166h-133v727l133 27v-447l188 230h138v-7l-170 -206l186 -317v-7h-143z" />
    <glyph glyph-name="lacute" unicode="&#x13a;" horiz-adv-x="250" 
d="M175 789h-110l84 150h142zM58 0v727l134 27v-754h-134z" />
    <glyph glyph-name="lcaron" unicode="&#x13e;" horiz-adv-x="251" 
d="M236 581l7 162h105v-22l-31 -140h-81zM58 0v727l134 27v-754h-134z" />
    <glyph glyph-name="uni013C" unicode="&#x13c;" horiz-adv-x="250" 
d="M54 -228l9 171h122l1 -10l-44 -161h-88zM58 0v727l134 27v-754h-134z" />
    <glyph glyph-name="ldot" unicode="&#x140;" horiz-adv-x="371" 
d="M58 0v727l134 27v-754h-134zM244 316v123h133v-123h-133z" />
    <glyph glyph-name="nacute" unicode="&#x144;" horiz-adv-x="574" 
d="M333 603h-108l87 168h143zM300 442c-45 0 -78 -13 -112 -39v-403h-133v537h117l9 -64c40 39 90 76 169 76c104 0 173 -58 173 -181v-368h-133v344c0 75 -40 98 -90 98z" />
    <glyph glyph-name="napostrophe" unicode="&#x149;" horiz-adv-x="618" 
d="M92 705l2 -9l-64 -213h-93l28 222h127zM343 442c-45 0 -78 -13 -112 -39v-403h-133v537h117l9 -64c40 39 90 76 169 76c104 0 173 -58 173 -181v-368h-133v344c0 75 -40 98 -90 98z" />
    <glyph glyph-name="ncaron" unicode="&#x148;" horiz-adv-x="574" 
d="M289 687l66 77h109l-123 -161h-104l-122 161h108zM300 442c-45 0 -78 -13 -112 -39v-403h-133v537h117l9 -64c40 39 90 76 169 76c104 0 173 -58 173 -181v-368h-133v344c0 75 -40 98 -90 98z" />
    <glyph glyph-name="uni0146" unicode="&#x146;" horiz-adv-x="574" 
d="M219 -228l9 171h122l1 -10l-44 -161h-88zM300 442c-45 0 -78 -13 -112 -39v-403h-133v537h117l9 -64c40 39 90 76 169 76c104 0 173 -58 173 -181v-368h-133v344c0 75 -40 98 -90 98z" />
    <glyph glyph-name="obreve" unicode="&#x14f;" horiz-adv-x="612" 
d="M305 -13c-160 0 -280 110 -280 282c0 173 120 280 280 280c161 0 283 -107 283 -280c0 -172 -122 -282 -283 -282zM305 90c87 0 148 63 148 179c0 115 -61 178 -148 178c-85 0 -146 -63 -146 -178c0 -116 61 -179 146 -179zM307 606c-88 0 -153 59 -160 152h91
c8 -42 31 -63 69 -63s60 22 68 63h91c-7 -93 -71 -152 -159 -152z" />
    <glyph glyph-name="ohungarumlaut" unicode="&#x151;" horiz-adv-x="612" 
d="M269 603h-89l51 168h125zM438 603h-90l54 168h125zM305 -13c-160 0 -280 110 -280 282c0 173 120 280 280 280c161 0 283 -107 283 -280c0 -172 -122 -282 -283 -282zM305 90c87 0 148 63 148 179c0 115 -61 178 -148 178c-85 0 -146 -63 -146 -178
c0 -116 61 -179 146 -179z" />
    <glyph glyph-name="omacron" unicode="&#x14d;" horiz-adv-x="612" 
d="M150 636v91h312v-91h-312zM305 -13c-160 0 -280 110 -280 282c0 173 120 280 280 280c161 0 283 -107 283 -280c0 -172 -122 -282 -283 -282zM305 90c87 0 148 63 148 179c0 115 -61 178 -148 178c-85 0 -146 -63 -146 -178c0 -116 61 -179 146 -179z" />
    <glyph glyph-name="oslashacute" unicode="&#x1ff;" horiz-adv-x="612" 
d="M159 269c0 -40 7 -73 19 -99l210 254c-23 15 -51 23 -83 23c-85 0 -146 -63 -146 -178zM305 90c87 0 149 63 149 179c0 42 -8 77 -22 105l-213 -258c24 -17 53 -26 86 -26zM305 -13c-59 0 -113 15 -157 43l-58 -70l-51 42l58 70c-45 48 -72 116 -72 197
c0 173 120 280 280 280c58 0 110 -14 154 -39l60 72l51 -41l-59 -71c48 -48 77 -117 77 -201c0 -172 -122 -282 -283 -282zM350 603h-108l87 168h143z" />
    <glyph glyph-name="racute" unicode="&#x155;" horiz-adv-x="388" 
d="M268 603h-108l87 168h143zM323 419c-64 0 -103 -14 -135 -54v-365h-133v537h117l10 -83c29 49 78 91 147 91c16 0 30 -1 43 -4v-124l-6 -3c-11 3 -28 5 -43 5z" />
    <glyph glyph-name="rcaron" unicode="&#x159;" horiz-adv-x="388" 
d="M224 687l66 77h109l-123 -161h-104l-122 161h108zM323 419c-64 0 -103 -14 -135 -54v-365h-133v537h117l10 -83c29 49 78 91 147 91c16 0 30 -1 43 -4v-124l-6 -3c-11 3 -28 5 -43 5z" />
    <glyph glyph-name="uni0157" unicode="&#x157;" horiz-adv-x="388" 
d="M45 -228l9 171h122l1 -10l-44 -161h-88zM323 419c-64 0 -103 -14 -135 -54v-365h-133v537h117l10 -83c29 49 78 91 147 91c16 0 30 -1 43 -4v-124l-6 -3c-11 3 -28 5 -43 5z" />
    <glyph glyph-name="sacute" unicode="&#x15b;" horiz-adv-x="445" 
d="M268 603h-108l87 168h143zM211 -11c-89 0 -143 20 -184 47v110l5 2c47 -36 102 -59 171 -59c60 0 91 23 91 61c0 36 -20 49 -75 63l-52 14c-84 22 -140 70 -140 158c0 101 79 166 200 166c69 0 118 -12 159 -31v-102l-5 -3c-40 21 -95 37 -153 37c-59 0 -78 -23 -78 -55
c0 -31 19 -47 60 -58l51 -13c108 -29 160 -64 160 -161c0 -115 -89 -176 -210 -176z" />
    <glyph glyph-name="uni015F" unicode="&#x15f;" horiz-adv-x="445" 
d="M195 -226c-41 0 -67 11 -82 20v65l5 2c16 -9 34 -17 59 -17c27 0 40 12 40 31c0 24 -24 34 -65 38v79c-55 7 -94 24 -125 44v110l5 2c47 -36 102 -59 171 -59c60 0 91 23 91 61c0 36 -20 49 -75 63l-52 14c-84 22 -140 70 -140 158c0 101 79 166 200 166
c69 0 118 -12 159 -31v-102l-5 -3c-40 21 -95 37 -153 37c-59 0 -78 -23 -78 -55c0 -31 19 -47 60 -58l51 -13c108 -29 160 -64 160 -161c0 -111 -83 -172 -198 -176v-33c47 -11 85 -27 85 -88c0 -59 -43 -94 -113 -94z" />
    <glyph glyph-name="scircumflex" unicode="&#x15d;" horiz-adv-x="445" 
d="M224 681l-66 -78h-108l122 161h104l123 -161h-109zM211 -11c-89 0 -143 20 -184 47v110l5 2c47 -36 102 -59 171 -59c60 0 91 23 91 61c0 36 -20 49 -75 63l-52 14c-84 22 -140 70 -140 158c0 101 79 166 200 166c69 0 118 -12 159 -31v-102l-5 -3c-40 21 -95 37 -153 37
c-59 0 -78 -23 -78 -55c0 -31 19 -47 60 -58l51 -13c108 -29 160 -64 160 -161c0 -115 -89 -176 -210 -176z" />
    <glyph glyph-name="uni0219" unicode="&#x219;" horiz-adv-x="445" 
d="M145 -228l9 171h122l1 -10l-44 -161h-88zM211 -11c-89 0 -143 20 -184 47v110l5 2c47 -36 102 -59 171 -59c60 0 91 23 91 61c0 36 -20 49 -75 63l-52 14c-84 22 -140 70 -140 158c0 101 79 166 200 166c69 0 118 -12 159 -31v-102l-5 -3c-40 21 -95 37 -153 37
c-59 0 -78 -23 -78 -55c0 -31 19 -47 60 -58l51 -13c108 -29 160 -64 160 -161c0 -115 -89 -176 -210 -176z" />
    <glyph glyph-name="tbar" unicode="&#x167;" horiz-adv-x="370" 
d="M341 3c-23 -7 -60 -13 -100 -13c-84 0 -155 31 -155 134v145h-64v78h64v90h-64v100h64v92l134 21v-113h115v-100h-115v-90h115v-78h-115v-123c0 -38 21 -52 59 -52c20 0 42 4 56 8l6 -3v-96z" />
    <glyph glyph-name="tcaron" unicode="&#x165;" horiz-adv-x="368" 
d="M255 581l7 162h105v-22l-31 -140h-81zM341 3c-23 -7 -60 -13 -100 -13c-84 0 -155 31 -155 134v313h-64v100h64v92l134 21v-113h115v-100h-115v-291c0 -38 21 -52 59 -52c20 0 42 4 56 8l6 -3v-96z" />
    <glyph glyph-name="tcommaaccent" unicode="&#x163;" horiz-adv-x="371" 
d="M341 3c-23 -7 -60 -13 -100 -13c-84 0 -155 31 -155 134v313h-64v100h64v92l134 21v-113h115v-100h-115v-291c0 -38 21 -52 59 -52c20 0 42 4 56 8l6 -3v-96zM130 -228l9 171h122l1 -10l-44 -161h-88z" />
    <glyph glyph-name="uni021B" unicode="&#x21b;" horiz-adv-x="371" 
d="M341 3c-23 -7 -60 -13 -100 -13c-84 0 -155 31 -155 134v313h-64v100h64v92l134 21v-113h115v-100h-115v-291c0 -38 21 -52 59 -52c20 0 42 4 56 8l6 -3v-96zM130 -228l9 171h122l1 -10l-44 -161h-88z" />
    <glyph glyph-name="ubreve" unicode="&#x16d;" horiz-adv-x="580" 
d="M408 0l-9 60c-40 -39 -93 -73 -169 -73c-108 0 -180 61 -180 182v368h133v-345c0 -75 42 -97 93 -97c45 0 81 11 116 37v405h133v-537h-117zM290 606c-88 0 -153 59 -160 152h91c8 -42 31 -63 69 -63s60 22 68 63h91c-7 -93 -71 -152 -159 -152z" />
    <glyph glyph-name="uhungarumlaut" unicode="&#x171;" horiz-adv-x="580" 
d="M408 0l-9 60c-40 -39 -93 -73 -169 -73c-108 0 -180 61 -180 182v368h133v-345c0 -75 42 -97 93 -97c45 0 81 11 116 37v405h133v-537h-117zM252 603h-89l51 168h125zM421 603h-90l54 168h125z" />
    <glyph glyph-name="umacron" unicode="&#x16b;" horiz-adv-x="580" 
d="M408 0l-9 60c-40 -39 -93 -73 -169 -73c-108 0 -180 61 -180 182v368h133v-345c0 -75 42 -97 93 -97c45 0 81 11 116 37v405h133v-537h-117zM133 636v91h312v-91h-312z" />
    <glyph glyph-name="uogonek" unicode="&#x173;" horiz-adv-x="580" 
d="M459 -219c-85 0 -127 37 -127 96c0 44 20 81 77 117l-10 66c-40 -39 -93 -73 -169 -73c-108 0 -180 61 -180 182v368h133v-345c0 -75 42 -97 93 -97c45 0 81 11 116 37v405h133v-537c-52 -31 -81 -68 -81 -95c0 -23 10 -39 46 -39c16 0 30 4 44 10l4 -2v-77
c-17 -8 -45 -16 -79 -16z" />
    <glyph glyph-name="uring" unicode="&#x16f;" horiz-adv-x="580" 
d="M289 588c-69 0 -116 46 -116 112s47 112 116 112s116 -46 116 -112s-47 -112 -116 -112zM289 750c-29 0 -47 -22 -47 -50s18 -49 47 -49s47 21 47 49s-18 50 -47 50zM408 0l-9 60c-40 -39 -93 -73 -169 -73c-108 0 -180 61 -180 182v368h133v-345c0 -75 42 -97 93 -97
c45 0 81 11 116 37v405h133v-537h-117z" />
    <glyph glyph-name="utilde" unicode="&#x169;" horiz-adv-x="580" 
d="M408 0l-9 60c-40 -39 -93 -73 -169 -73c-108 0 -180 61 -180 182v368h133v-345c0 -75 42 -97 93 -97c45 0 81 11 116 37v405h133v-537h-117zM356 718c28 0 50 13 74 42l7 -2l12 -82c-17 -27 -54 -53 -99 -53c-66 0 -91 33 -132 33c-34 0 -54 -12 -79 -42l-6 3l-12 83
c20 28 57 51 99 51c65 0 89 -33 136 -33z" />
    <glyph glyph-name="wacute" unicode="&#x1e83;" horiz-adv-x="749" 
d="M509 -9l-134 334l-132 -334h-55l-179 539v7h135l90 -303l119 307h50l120 -310l89 306h128v-7l-175 -539h-56zM419 603h-108l87 168h143z" />
    <glyph glyph-name="wcircumflex" unicode="&#x175;" horiz-adv-x="749" 
d="M509 -9l-134 334l-132 -334h-55l-179 539v7h135l90 -303l119 307h50l120 -310l89 306h128v-7l-175 -539h-56zM375 681l-66 -78h-108l122 161h104l123 -161h-109z" />
    <glyph glyph-name="wdieresis" unicode="&#x1e85;" horiz-adv-x="749" 
d="M509 -9l-134 334l-132 -334h-55l-179 539v7h135l90 -303l119 307h50l120 -310l89 306h128v-7l-175 -539h-56zM217 624v115h123v-115h-123zM412 624v115h123v-115h-123z" />
    <glyph glyph-name="wgrave" unicode="&#x1e81;" horiz-adv-x="749" 
d="M509 -9l-134 334l-132 -334h-55l-179 539v7h135l90 -303l119 307h50l120 -310l89 306h128v-7l-175 -539h-56zM335 603l-122 168h143l87 -168h-108z" />
    <glyph glyph-name="ycircumflex" unicode="&#x177;" horiz-adv-x="540" 
d="M66 -214v111c68 8 101 32 119 78l20 50l-199 505v7h141l131 -358l128 358h127v-7l-217 -577c-43 -115 -109 -158 -250 -167zM278 681l-66 -78h-108l122 161h104l123 -161h-109z" />
    <glyph glyph-name="ygrave" unicode="&#x1ef3;" horiz-adv-x="540" 
d="M66 -214v111c68 8 101 32 119 78l20 50l-199 505v7h141l131 -358l128 358h127v-7l-217 -577c-43 -115 -109 -158 -250 -167zM238 603l-122 168h143l87 -168h-108z" />
    <glyph glyph-name="zacute" unicode="&#x17a;" horiz-adv-x="480" 
d="M294 603h-108l87 168h143zM454 0h-434v35l256 400h-226v102h410v-38l-255 -397h249v-102z" />
    <glyph glyph-name="zdotaccent" unicode="&#x17c;" horiz-adv-x="480" 
d="M454 0h-434v35l256 400h-226v102h410v-38l-255 -397h249v-102zM183 623v117h134v-117h-134z" />
    <glyph glyph-name="breve_acute" horiz-adv-x="400" 
d="M244 783h-106l67 116h140zM200 606c-88 0 -153 59 -160 152h91c8 -42 31 -63 69 -63s60 22 68 63h91c-7 -93 -71 -152 -159 -152z" />
    <glyph glyph-name="breve_grave" horiz-adv-x="400" 
d="M156 783l-101 116h140l67 -116h-106zM200 606c-88 0 -153 59 -160 152h91c8 -42 31 -63 69 -63s60 22 68 63h91c-7 -93 -71 -152 -159 -152z" />
    <glyph glyph-name="breve_hook" horiz-adv-x="400" 
d="M109 924c16 8 47 18 93 18c76 0 126 -25 126 -76c0 -65 -89 -75 -89 -91v-1h-92v3c0 50 80 53 80 77c0 12 -12 19 -45 19c-28 0 -51 -7 -68 -15l-5 2v64zM200 606c-88 0 -153 59 -160 152h91c8 -42 31 -63 69 -63s60 22 68 63h91c-7 -93 -71 -152 -159 -152z" />
    <glyph glyph-name="breve_tilde" horiz-adv-x="400" 
d="M265 894c28 0 48 12 72 40l7 -3l23 -77c-17 -27 -53 -54 -96 -54c-63 0 -92 31 -130 31c-33 0 -52 -11 -77 -39l-6 3l-23 79c19 28 56 51 97 51c61 0 89 -31 133 -31zM200 606c-88 0 -153 59 -160 152h91c8 -42 31 -63 69 -63s60 22 68 63h91c-7 -93 -71 -152 -159 -152z
" />
    <glyph glyph-name="circumflex_acute" horiz-adv-x="400" 
d="M419 722h-102l59 116h134zM200 681l-66 -78h-108l122 161h104l123 -161h-109z" />
    <glyph glyph-name="circumflex_grave" horiz-adv-x="400" 
d="M346 722l-91 116h134l58 -116h-101zM200 681l-66 -78h-108l122 161h104l123 -161h-109z" />
    <glyph glyph-name="circumflex_hook" horiz-adv-x="400" 
d="M289 859c16 9 41 19 87 19c69 0 113 -24 113 -81c0 -61 -71 -71 -71 -89v-1h-89v3c0 45 64 55 64 79c0 14 -11 21 -40 21c-24 0 -43 -6 -59 -15l-5 3v61zM200 681l-66 -78h-108l122 161h104l123 -161h-109z" />
    <glyph glyph-name="circumflex_tilde" horiz-adv-x="400" 
d="M267 896c28 0 48 12 72 39l7 -3l23 -77c-17 -27 -53 -54 -96 -54c-63 0 -92 31 -130 31c-33 0 -52 -11 -77 -39l-6 3l-23 79c19 28 56 51 97 51c61 0 89 -30 133 -30zM200 681l-66 -78h-108l122 161h104l123 -161h-109z" />
    <glyph glyph-name="space_uni0326" horiz-adv-x="400" 
d="M128 -228l9 171h122l1 -10l-44 -161h-88z" />
    <glyph glyph-name="oneeighth" unicode="&#x215b;" horiz-adv-x="764" 
d="M600 -7c-94 0 -151 43 -151 107c0 43 28 74 69 88c-38 21 -59 51 -59 93c0 70 62 106 137 106c78 0 142 -31 142 -103c0 -40 -26 -66 -61 -81c46 -22 72 -50 72 -99c0 -71 -55 -111 -149 -111zM617 227c21 14 32 31 32 51c0 28 -21 44 -50 44s-46 -16 -46 -39
c0 -22 17 -38 64 -56zM598 59c36 0 54 19 54 43c0 27 -21 42 -73 61c-23 -13 -39 -28 -39 -56c0 -30 21 -48 58 -48zM187 309h-101v273l-72 -39l-2 1v87l121 64h54v-386zM53 0l525 690h88l-526 -690h-87z" />
    <glyph glyph-name="onethird" unicode="&#x2153;" horiz-adv-x="757" 
d="M593 -7c-65 0 -99 17 -123 30v76l3 3c31 -19 59 -31 106 -31c41 0 60 19 60 46s-17 45 -62 45h-45v66h40c43 0 56 19 56 42c0 26 -18 41 -57 41c-40 0 -61 -9 -90 -25l-4 3v73c25 15 56 25 113 25c75 0 136 -33 136 -102c0 -44 -23 -70 -67 -84c53 -12 80 -42 80 -91
c0 -73 -53 -117 -146 -117zM187 309h-101v273l-72 -39l-2 1v87l121 64h54v-386zM51 0l525 690h88l-526 -690h-87z" />
    <glyph glyph-name="threeeighths" unicode="&#x215c;" horiz-adv-x="814" 
d="M649 -7c-94 0 -151 43 -151 107c0 43 28 74 69 88c-38 21 -59 51 -59 93c0 70 62 106 137 106c78 0 142 -31 142 -103c0 -40 -26 -66 -61 -81c46 -22 72 -50 72 -99c0 -71 -55 -111 -149 -111zM666 227c21 14 32 31 32 51c0 28 -21 44 -50 44s-46 -16 -46 -39
c0 -22 17 -38 64 -56zM647 59c36 0 54 19 54 43c0 27 -21 42 -73 61c-23 -13 -39 -28 -39 -56c0 -30 21 -48 58 -48zM102 0l525 690h88l-526 -690h-87zM141 302c-65 0 -99 16 -123 30v76l3 3c31 -20 59 -31 106 -31c41 0 60 18 60 46c0 26 -17 45 -62 45h-45v66h40
c43 0 56 18 56 41c0 27 -18 42 -57 42c-40 0 -61 -9 -90 -25l-4 2v73c25 15 56 26 113 26c75 0 136 -33 136 -103c0 -43 -23 -70 -66 -83c53 -12 79 -42 79 -92c0 -73 -53 -116 -146 -116z" />
    <glyph glyph-name="fiveeighths" unicode="&#x215d;" horiz-adv-x="800" 
d="M636 -7c-94 0 -151 43 -151 107c0 43 28 74 69 88c-38 21 -59 51 -59 93c0 70 62 106 137 106c78 0 142 -31 142 -103c0 -40 -26 -66 -61 -81c46 -22 72 -50 72 -99c0 -71 -55 -111 -149 -111zM653 227c21 14 32 31 32 51c0 28 -21 44 -50 44s-46 -16 -46 -39
c0 -22 17 -38 64 -56zM634 59c36 0 54 19 54 43c0 27 -21 42 -73 61c-23 -13 -39 -28 -39 -56c0 -30 21 -48 58 -48zM91 0l525 690h88l-526 -690h-87zM136 302c-57 0 -95 13 -119 29v73l5 2c29 -17 53 -28 94 -28c47 0 68 20 68 53c0 34 -23 49 -75 49c-35 0 -55 -7 -69 -11
l-4 3v217h230v-72h-147v-69c8 1 16 1 24 1c92 0 142 -43 142 -117c0 -79 -53 -130 -149 -130z" />
    <glyph glyph-name="twothirds" unicode="&#x2154;" horiz-adv-x="805" 
d="M7 309v47l118 126c32 34 47 59 47 88c0 27 -17 46 -58 46c-37 0 -60 -10 -89 -28l-4 2v77c26 18 61 29 115 29c85 0 137 -41 137 -115c0 -55 -27 -92 -71 -139l-57 -59h134v-74h-272zM641 -7c-65 0 -99 17 -123 30v76l3 3c31 -19 59 -31 106 -31c41 0 60 19 60 46
s-17 45 -62 45h-45v66h40c43 0 56 19 56 42c0 26 -18 41 -57 41c-40 0 -61 -9 -90 -25l-4 3v73c25 15 56 25 113 25c75 0 136 -33 136 -102c0 -44 -23 -70 -67 -84c53 -12 80 -42 80 -91c0 -73 -53 -117 -146 -117zM97 0l525 690h88l-526 -690h-87z" />
    <glyph glyph-name="seveneighths" unicode="&#x215e;" horiz-adv-x="771" 
d="M158 309h-105c20 88 57 159 100 239l32 61h-170v80h283v-48l-53 -105c-41 -84 -71 -154 -87 -227zM607 -7c-94 0 -151 43 -151 107c0 43 28 74 69 88c-38 21 -59 51 -59 93c0 70 62 106 137 106c78 0 142 -31 142 -103c0 -40 -26 -66 -61 -81c46 -22 72 -50 72 -99
c0 -71 -55 -111 -149 -111zM624 227c21 14 32 31 32 51c0 28 -21 44 -50 44s-46 -16 -46 -39c0 -22 17 -38 64 -56zM605 59c36 0 54 19 54 43c0 27 -21 42 -73 61c-23 -13 -39 -28 -39 -56c0 -30 21 -48 58 -48zM56 0l525 690h88l-526 -690h-87z" />
    <glyph glyph-name="uni2032" unicode="&#x2032;" horiz-adv-x="209" 
d="M180 705l-61 -233h-91l25 233h127z" />
    <glyph glyph-name="uni2033" unicode="&#x2033;" horiz-adv-x="383" 
d="M180 705l-61 -233h-91l25 233h127zM355 705l-62 -233h-91l26 233h127z" />
    <glyph glyph-name="uni24C5" unicode="&#x24c5;" horiz-adv-x="787" 
d="M33 352c0 214 157 366 360 366c204 0 361 -152 361 -366c0 -212 -157 -365 -361 -365c-203 0 -360 153 -360 365zM691 352c0 177 -125 310 -298 310c-170 0 -297 -133 -297 -310c0 -174 127 -309 297 -309c173 0 298 135 298 309zM406 475h-46v-105h46c41 0 58 18 58 54
s-19 51 -58 51zM410 299h-50v-138h-98v387h144c98 0 154 -37 154 -125c0 -86 -59 -124 -150 -124z" />
    <glyph glyph-name="zero.num" horiz-adv-x="380" 
d="M190 302c-101 0 -172 73 -173 198c0 126 72 196 173 196c102 0 172 -70 173 -196c0 -125 -71 -198 -173 -198zM190 376c43 0 67 42 67 124c0 83 -24 121 -67 121s-67 -38 -67 -121c0 -82 24 -124 67 -124z" />
    <glyph glyph-name="one.num" horiz-adv-x="233" 
d="M187 309h-101v273l-72 -39l-2 1v87l121 64h54v-386z" />
    <glyph glyph-name="two.num" horiz-adv-x="303" 
d="M7 309v47l118 126c32 34 47 59 47 88c0 27 -17 46 -58 46c-37 0 -60 -10 -89 -28l-4 2v77c26 18 61 29 115 29c85 0 137 -41 137 -115c0 -55 -27 -92 -71 -139l-57 -59h134v-74h-272z" />
    <glyph glyph-name="three.num" horiz-adv-x="305" 
d="M141 302c-65 0 -99 16 -123 30v76l3 3c31 -20 59 -31 106 -31c41 0 60 18 60 46c0 26 -17 45 -62 45h-45v66h40c43 0 56 18 56 41c0 27 -18 42 -57 42c-40 0 -61 -9 -90 -25l-4 2v73c25 15 56 26 113 26c75 0 136 -33 136 -103c0 -43 -23 -70 -66 -83
c53 -12 79 -42 79 -92c0 -73 -53 -116 -146 -116z" />
    <glyph glyph-name="four.num" horiz-adv-x="334" 
d="M177 447v107l-80 -107h80zM325 377h-53v-68h-95v68h-176v45l204 272h67v-247h53v-70z" />
    <glyph glyph-name="five.num" horiz-adv-x="302" 
d="M136 302c-57 0 -95 13 -119 29v73l5 2c29 -17 53 -28 94 -28c47 0 68 20 68 53c0 34 -23 49 -75 49c-35 0 -55 -7 -69 -11l-4 3v217h230v-72h-147v-69c8 1 16 1 24 1c92 0 142 -43 142 -117c0 -79 -53 -130 -149 -130z" />
    <glyph glyph-name="six.num" horiz-adv-x="337" 
d="M324 433c0 -77 -51 -131 -144 -131c-99 0 -162 64 -162 183c0 145 82 211 186 211c39 0 70 -7 94 -21v-74l-5 -3c-21 14 -46 24 -78 24c-54 0 -88 -27 -95 -100c17 15 44 29 85 29c64 0 119 -36 119 -118zM177 373c35 0 49 25 49 60c0 41 -19 58 -54 58
c-22 0 -40 -6 -54 -17c2 -73 21 -101 59 -101z" />
    <glyph glyph-name="seven.num" horiz-adv-x="307" 
d="M158 309h-105c20 88 57 159 100 239l32 61h-170v80h283v-48l-53 -105c-41 -84 -71 -154 -87 -227z" />
    <glyph glyph-name="eight.num" horiz-adv-x="331" 
d="M167 302c-94 0 -151 42 -151 106c0 44 28 75 70 88c-39 21 -60 52 -60 93c0 70 62 107 137 107c78 0 142 -32 142 -104c0 -40 -26 -66 -61 -80c46 -23 72 -50 72 -100c0 -70 -55 -110 -149 -110zM120 592c0 -22 17 -39 64 -57c21 14 32 31 32 51c0 29 -21 45 -50 45
s-46 -17 -46 -39zM165 368c36 0 54 19 54 43c0 27 -21 42 -74 61c-23 -13 -38 -30 -38 -57c0 -30 21 -47 58 -47z" />
    <glyph glyph-name="nine.num" horiz-adv-x="337" 
d="M166 506c21 0 39 6 53 17c-2 72 -19 101 -57 101c-36 0 -51 -24 -51 -59c0 -41 18 -59 55 -59zM129 302c-41 0 -72 7 -96 20v75l5 1c21 -13 46 -23 79 -23c60 0 93 24 100 99c-16 -15 -42 -28 -84 -28c-66 0 -120 35 -120 119c0 76 54 131 146 131c99 0 159 -62 159 -183
c0 -152 -80 -211 -189 -211z" />
    <glyph glyph-name="zero.den" horiz-adv-x="380" 
d="M190 -7c-101 0 -172 73 -173 199c0 125 72 195 173 195c102 0 172 -70 173 -195c0 -126 -71 -199 -173 -199zM190 68c43 0 67 41 67 124c0 82 -24 121 -67 121s-67 -39 -67 -121c0 -83 24 -124 67 -124z" />
    <glyph glyph-name="one.den" horiz-adv-x="233" 
d="M187 0h-101v273l-72 -39l-2 2v86l121 64h54v-386z" />
    <glyph glyph-name="two.den" horiz-adv-x="303" 
d="M7 0v47l118 126c32 34 47 59 47 89c0 26 -17 45 -58 45c-37 0 -60 -10 -89 -28l-4 3v77c26 17 61 28 115 28c85 0 137 -41 137 -115c0 -55 -27 -92 -71 -138l-57 -60h134v-74h-272z" />
    <glyph glyph-name="three.den" horiz-adv-x="305" 
d="M141 -7c-65 0 -99 17 -123 30v76l3 3c31 -19 59 -31 106 -31c41 0 60 19 60 46s-17 45 -62 45h-45v66h40c43 0 56 19 56 42c0 26 -18 41 -57 41c-40 0 -61 -9 -90 -25l-4 3v73c25 15 56 25 113 25c75 0 136 -33 136 -102c0 -44 -23 -70 -67 -84c53 -12 80 -42 80 -91
c0 -73 -53 -117 -146 -117z" />
    <glyph glyph-name="four.den" horiz-adv-x="334" 
d="M177 139v106l-79 -106h79zM325 69h-53v-69h-95v69h-176v45l204 272h67v-247h53v-70z" />
    <glyph glyph-name="five.den" horiz-adv-x="302" 
d="M136 -7c-57 0 -95 13 -119 29v73l5 2c29 -18 53 -28 94 -28c47 0 68 19 68 53c0 33 -23 49 -75 49c-35 0 -55 -7 -69 -11l-4 3v217h230v-72h-147v-69c8 1 16 1 24 1c92 0 142 -43 142 -117c0 -79 -53 -130 -149 -130z" />
    <glyph glyph-name="six.den" horiz-adv-x="337" 
d="M324 124c0 -76 -51 -131 -144 -131c-99 0 -162 64 -162 183c0 146 82 211 186 211c39 0 70 -7 94 -20v-75l-5 -2c-21 14 -46 23 -78 23c-54 0 -88 -27 -95 -100c17 16 44 30 85 30c64 0 119 -37 119 -119zM177 65c35 0 49 24 49 60c0 40 -19 57 -54 57
c-22 0 -40 -6 -54 -17c2 -72 21 -100 59 -100z" />
    <glyph glyph-name="seven.den" horiz-adv-x="307" 
d="M158 0h-105c20 88 57 159 100 239l32 61h-170v80h283v-48l-53 -106c-41 -83 -71 -153 -87 -226z" />
    <glyph glyph-name="eight.den" horiz-adv-x="331" 
d="M167 -7c-94 0 -151 43 -151 107c0 43 28 74 69 88c-38 21 -59 51 -59 93c0 70 62 106 137 106c78 0 142 -31 142 -103c0 -40 -26 -66 -61 -81c46 -22 72 -50 72 -99c0 -71 -55 -111 -149 -111zM184 227c21 14 32 31 32 51c0 28 -21 44 -50 44s-46 -16 -46 -39
c0 -22 17 -38 64 -56zM165 59c36 0 54 19 54 43c0 27 -21 42 -73 61c-23 -13 -39 -28 -39 -56c0 -30 21 -48 58 -48z" />
    <glyph glyph-name="nine.den" horiz-adv-x="337" 
d="M166 198c21 0 39 6 53 16c-2 73 -19 101 -57 101c-36 0 -51 -23 -51 -59c0 -41 18 -58 55 -58zM129 -7c-41 0 -72 7 -96 21v75l5 1c21 -13 46 -23 79 -23c60 0 93 23 100 98c-16 -15 -42 -28 -84 -28c-66 0 -120 36 -120 119c0 77 54 131 146 131c99 0 159 -62 159 -183
c0 -151 -80 -211 -189 -211z" />
    <glyph glyph-name="zero.sub" horiz-adv-x="380" 
d="M190 -102c-101 0 -172 73 -173 199c0 125 72 195 173 195c102 0 172 -70 173 -195c0 -126 -71 -199 -173 -199zM190 -27c43 0 67 41 67 124c0 82 -24 121 -67 121s-67 -39 -67 -121c0 -83 24 -124 67 -124z" />
    <glyph glyph-name="one.sub" horiz-adv-x="233" 
d="M187 -96h-101v274l-72 -39l-2 1v87l121 64h54v-387z" />
    <glyph glyph-name="two.sub" horiz-adv-x="303" 
d="M7 -95v47l118 126c32 34 47 59 47 89c0 26 -17 45 -58 45c-37 0 -60 -10 -89 -28l-4 3v77c26 17 61 28 115 28c85 0 137 -41 137 -115c0 -55 -27 -92 -71 -138l-57 -60h134v-74h-272z" />
    <glyph glyph-name="three.sub" horiz-adv-x="305" 
d="M141 -102c-65 0 -99 16 -123 30v76l3 3c31 -19 59 -31 106 -31c41 0 60 19 60 46s-17 45 -62 45h-45v66h40c43 0 56 18 56 42c0 26 -18 41 -57 41c-40 0 -61 -8 -90 -25l-4 3v73c25 15 56 25 113 25c75 0 136 -33 136 -102c0 -44 -23 -70 -67 -84c53 -12 80 -42 80 -91
c0 -74 -53 -117 -146 -117z" />
    <glyph glyph-name="four.sub" horiz-adv-x="334" 
d="M177 43v106l-80 -106h80zM325 -27h-53v-69h-95v69h-176v45l204 272h67v-247h53v-70z" />
    <glyph glyph-name="five.sub" horiz-adv-x="302" 
d="M136 -103c-57 0 -95 13 -119 28v73l5 3c29 -18 53 -28 94 -28c47 0 68 19 68 52c0 34 -23 50 -75 50c-35 0 -55 -7 -69 -11l-4 2v218h230v-73h-147v-69c8 1 16 1 24 1c92 0 142 -42 142 -116c0 -79 -53 -130 -149 -130z" />
    <glyph glyph-name="six.sub" horiz-adv-x="337" 
d="M324 29c0 -76 -51 -131 -144 -131c-99 0 -162 64 -162 183c0 146 82 211 186 211c39 0 70 -7 94 -20v-75l-5 -2c-21 14 -46 23 -78 23c-54 0 -87 -27 -95 -100c17 16 44 30 85 30c64 0 119 -36 119 -119zM177 -30c35 0 49 24 49 60c0 40 -19 57 -54 57
c-22 0 -40 -6 -54 -17c2 -72 21 -100 59 -100z" />
    <glyph glyph-name="seven.sub" horiz-adv-x="307" 
d="M158 -95h-105c20 88 57 159 100 239l32 61h-170v80h283v-48l-53 -105c-41 -84 -71 -154 -87 -227z" />
    <glyph glyph-name="eight.sub" horiz-adv-x="331" 
d="M167 -102c-94 0 -151 43 -151 107c0 43 28 74 69 88c-38 21 -59 52 -59 93c0 70 62 106 137 106c78 0 142 -31 142 -103c0 -40 -26 -66 -61 -81c46 -22 72 -50 72 -99c0 -71 -55 -111 -149 -111zM120 188c0 -22 17 -39 63 -57c21 14 33 31 33 52c0 28 -21 44 -50 44
s-46 -16 -46 -39zM165 -36c36 0 54 19 54 43c0 27 -21 42 -73 61c-23 -13 -39 -29 -39 -56c0 -30 21 -48 58 -48z" />
    <glyph glyph-name="nine.sub" horiz-adv-x="337" 
d="M166 103c21 0 39 6 53 16c-2 73 -19 101 -57 101c-36 0 -51 -24 -51 -59c0 -41 18 -58 55 -58zM129 -102c-41 0 -72 7 -96 21v75l5 1c21 -13 46 -23 79 -23c59 0 93 23 100 98c-16 -15 -42 -28 -84 -28c-66 0 -120 36 -120 120c0 76 54 130 146 130
c99 0 159 -62 159 -183c0 -151 -80 -211 -189 -211z" />
    <glyph glyph-name="plus.sub" horiz-adv-x="332" 
d="M129 -53v111h-103v73h103v111h74v-111h102v-73h-102v-111h-74z" />
    <glyph glyph-name="minus.sub" horiz-adv-x="332" 
d="M26 58v73h279v-73h-279z" />
    <glyph glyph-name="zero.sup" horiz-adv-x="380" 
d="M190 361c-101 0 -172 73 -173 199c0 125 72 195 173 195c102 0 172 -70 173 -195c0 -126 -71 -199 -173 -199zM190 436c43 0 67 41 67 124c0 82 -24 121 -67 121s-67 -39 -67 -121c0 -83 24 -124 67 -124z" />
    <glyph glyph-name="one.sup" horiz-adv-x="233" 
d="M187 368h-101v273l-72 -39l-2 1v87l121 64h54v-386z" />
    <glyph glyph-name="two.sup" horiz-adv-x="303" 
d="M7 368v47l118 126c32 34 47 59 47 89c0 26 -17 45 -58 45c-37 0 -60 -10 -89 -28l-4 3v77c26 17 61 28 115 28c85 0 137 -41 137 -115c0 -55 -27 -92 -71 -138l-57 -60h134v-74h-272z" />
    <glyph glyph-name="three.sup" horiz-adv-x="305" 
d="M141 361c-65 0 -99 16 -123 30v76l3 3c31 -19 59 -31 106 -31c41 0 60 19 60 46s-17 45 -62 45h-45v66h40c43 0 56 18 56 42c0 26 -18 41 -57 41c-40 0 -61 -8 -90 -25l-4 3v73c25 15 56 25 113 25c75 0 136 -33 136 -102c0 -44 -23 -70 -67 -84c53 -12 80 -42 80 -91
c0 -74 -53 -117 -146 -117z" />
    <glyph glyph-name="four.sup" horiz-adv-x="334" 
d="M177 506v106l-80 -106h80zM325 436h-53v-68h-95v68h-176v45l204 272h67v-247h53v-70z" />
    <glyph glyph-name="five.sup" horiz-adv-x="302" 
d="M136 361c-57 0 -95 13 -119 29v73l5 2c29 -18 53 -28 94 -28c47 0 68 20 68 52c0 35 -23 50 -75 50c-35 0 -55 -7 -69 -11l-4 3v217h230v-72h-147v-69c8 1 16 1 24 1c92 0 142 -43 142 -117c0 -79 -53 -130 -149 -130z" />
    <glyph glyph-name="six.sup" horiz-adv-x="337" 
d="M324 492c0 -76 -51 -131 -144 -131c-99 0 -162 64 -162 183c0 146 82 211 186 211c39 0 70 -7 94 -20v-75l-5 -2c-21 14 -46 23 -78 23c-54 0 -87 -27 -95 -100c17 16 44 30 85 30c64 0 119 -36 119 -119zM177 433c35 0 49 24 49 60c0 40 -19 57 -54 57
c-22 0 -40 -6 -54 -17c2 -72 21 -100 59 -100z" />
    <glyph glyph-name="seven.sup" horiz-adv-x="307" 
d="M158 368h-105c20 88 57 159 100 239l32 61h-170v80h283v-48l-53 -105c-41 -84 -71 -154 -87 -227z" />
    <glyph glyph-name="eight.sup" horiz-adv-x="331" 
d="M167 361c-94 0 -151 43 -151 107c0 43 28 74 69 88c-38 21 -59 52 -59 93c0 70 62 106 137 106c78 0 142 -31 142 -103c0 -40 -26 -66 -61 -81c46 -22 72 -50 72 -99c0 -70 -55 -111 -149 -111zM120 651c0 -22 17 -39 63 -57c21 14 33 31 33 52c0 28 -21 44 -50 44
s-46 -16 -46 -39zM165 427c36 0 54 19 54 43c0 27 -21 42 -73 61c-23 -13 -39 -29 -39 -56c0 -30 21 -48 58 -48z" />
    <glyph glyph-name="nine.sup" horiz-adv-x="337" 
d="M166 566c21 0 39 6 53 16c-2 73 -19 101 -57 101c-36 0 -51 -24 -51 -59c0 -41 18 -58 55 -58zM129 361c-41 0 -72 7 -96 21v75l5 1c21 -13 46 -23 79 -23c59 0 93 23 100 98c-16 -15 -42 -28 -84 -28c-66 0 -120 36 -120 120c0 76 54 130 146 130c99 0 159 -62 159 -183
c0 -151 -80 -211 -189 -211z" />
    <glyph glyph-name="plus.sup" horiz-adv-x="332" 
d="M129 410v111h-103v73h103v111h74v-111h102v-73h-102v-111h-74z" />
    <glyph glyph-name="minus.sup" horiz-adv-x="332" 
d="M26 521v73h279v-73h-279z" />
    <glyph glyph-name="J.alt" unicode="&#xe489;" horiz-adv-x="415" 
d="M138 -6c-54 0 -91 9 -122 25v109l4 2c21 -11 51 -19 86 -19c68 0 102 27 102 108v486h147v-498c0 -161 -96 -213 -217 -213z" />
    <glyph glyph-name="K.alt" unicode="&#xe48a;" horiz-adv-x="643" 
d="M69 0v705h147v-705h-147zM634 0h-161l-255 364l239 341h154v-6l-236 -325l259 -368v-6z" />
    <glyph glyph-name="M.alt" unicode="&#xe48c;" horiz-adv-x="877" 
d="M686 0l-49 409l-187 -415h-44l-182 411l-45 -405h-133l82 713h96l213 -481l212 481h93l89 -713h-145z" />
    <glyph glyph-name="Q.alt" unicode="&#xe490;" horiz-adv-x="787" 
d="M393 98c41 0 77 9 106 26l-121 136l2 11h155l45 -52c17 38 25 84 25 136c0 153 -84 249 -212 249s-212 -96 -212 -249s82 -257 212 -257zM610 0l-38 43c-48 -35 -106 -56 -185 -56c-210 0 -357 160 -357 368s147 363 363 363c215 0 362 -155 362 -363
c0 -94 -30 -178 -82 -241l90 -103l-2 -11h-151z" />
    <glyph glyph-name="W.alt" unicode="&#xe496;" horiz-adv-x="950" 
d="M643 -9l-169 454l-171 -454h-74l-218 707v7h148l129 -435l162 439h57l166 -441l126 437h140v-7l-219 -707h-77z" />
    <glyph glyph-name="IJ.alt" horiz-adv-x="698" 
d="M71 0v705h147v-705h-147zM425 -6c-54 0 -91 9 -122 25v109l4 2c21 -11 51 -19 86 -19c68 0 102 27 102 108v486h147v-498c0 -161 -96 -213 -217 -213z" />
    <glyph glyph-name="a.alt" unicode="&#xe4c0;" horiz-adv-x="596" 
d="M291 94c54 0 88 17 117 45v265c-30 27 -63 42 -114 42c-76 0 -135 -61 -135 -183c0 -119 61 -169 132 -169zM435 0l-14 66c-38 -49 -89 -79 -163 -79c-136 0 -233 98 -233 276c0 182 101 286 239 286c66 0 114 -25 150 -67l7 55h120v-537h-106z" />
    <glyph glyph-name="g.alt" unicode="&#xe4c6;" horiz-adv-x="600" 
d="M292 107c58 0 92 19 122 50v244c-31 29 -66 45 -119 45c-79 0 -136 -61 -136 -177c0 -113 59 -162 133 -162zM274 -215c-83 0 -158 17 -202 42v111l5 2c45 -27 109 -46 178 -46c115 0 159 41 159 116v65c-37 -43 -88 -68 -157 -68c-137 0 -232 95 -232 262
c0 176 100 280 240 280c69 0 119 -27 156 -70l6 58h120v-526c0 -167 -115 -226 -273 -226z" />
    <glyph glyph-name="k.alt" unicode="&#xe4ca;" horiz-adv-x="529" 
d="M375 0l-187 276v-276h-133v727l133 27v-470l184 253h134v-7l-176 -239l195 -284v-7h-150z" />
    <glyph glyph-name="k.alt1" unicode="&#xe4ea;" horiz-adv-x="550" 
d="M315 442c-45 0 -84 -21 -127 -56v-386h-133v727l133 27v-282c49 49 105 77 172 77c97 0 157 -59 157 -145c0 -92 -57 -149 -142 -187l160 -209v-8h-147l-161 210v27c94 36 155 80 155 144c0 40 -24 61 -67 61z" />
    <glyph glyph-name="l.alt" unicode="&#xe4cb;" horiz-adv-x="282" 
d="M190 -5c-83 0 -135 31 -135 127v605l133 27v-614c0 -29 14 -42 37 -42c16 0 25 3 35 6l5 -3v-93c-17 -7 -44 -13 -75 -13z" />
    <glyph glyph-name="t.alt" unicode="&#xe4d3;" horiz-adv-x="360" 
d="M331 437h-99v-437h-133v437h-74v100h74v97l133 21v-118h99v-100z" />
    <glyph glyph-name="y.alt" unicode="&#xe4d8;" horiz-adv-x="539" 
d="M255 -201h-136v6l87 222l-200 503v7h142l131 -358l128 358h126v-7z" />
    <glyph glyph-name="y.alt1" unicode="&#xe4f8;" horiz-adv-x="580" 
d="M270 -215c-81 0 -150 17 -195 42v111l5 2c46 -27 104 -46 171 -46c105 0 142 41 142 116v49c-39 -37 -91 -67 -163 -67c-108 0 -180 61 -180 181v364h133v-340c0 -75 42 -98 93 -98c45 0 82 12 117 37v401h133v-526c0 -167 -108 -226 -256 -226z" />
    <glyph glyph-name="Jcircumflex.alt" horiz-adv-x="415" 
d="M283 836l-70 -76h-110l125 158h110l125 -158h-110zM138 -6c-54 0 -91 9 -122 25v109l4 2c21 -11 51 -19 86 -19c68 0 102 27 102 108v486h147v-498c0 -161 -96 -213 -217 -213z" />
    <glyph glyph-name="Kcommaaccent.alt" horiz-adv-x="642" 
d="M266 -228l9 171h122l1 -10l-44 -161h-88zM69 0v705h147v-705h-147zM634 0h-161l-255 364l239 341h154v-6l-236 -325l259 -368v-6z" />
    <glyph glyph-name="Wacute.alt" horiz-adv-x="950" 
d="M527 760h-110l84 150h142zM643 -9l-169 454l-171 -454h-74l-218 707v7h148l129 -435l162 439h57l166 -441l126 437h140v-7l-219 -707h-77z" />
    <glyph glyph-name="Wcircumflex.alt" horiz-adv-x="950" 
d="M475 836l-70 -76h-110l125 158h110l125 -158h-110zM643 -9l-169 454l-171 -454h-74l-218 707v7h148l129 -435l162 439h57l166 -441l126 437h140v-7l-219 -707h-77z" />
    <glyph glyph-name="Wdieresis.alt" horiz-adv-x="950" 
d="M521 756v114h127v-114h-127zM302 756v114h127v-114h-127zM643 -9l-169 454l-171 -454h-74l-218 707v7h148l129 -435l162 439h57l166 -441l126 437h140v-7l-219 -707h-77z" />
    <glyph glyph-name="Wgrave.alt" horiz-adv-x="950" 
d="M427 760l-116 150h142l83 -150h-109zM643 -9l-169 454l-171 -454h-74l-218 707v7h148l129 -435l162 439h57l166 -441l126 437h140v-7l-219 -707h-77z" />
    <glyph glyph-name="aacute.alt" horiz-adv-x="596" 
d="M342 603h-108l87 168h143zM291 94c54 0 88 17 117 45v265c-30 27 -63 42 -114 42c-76 0 -135 -61 -135 -183c0 -119 61 -169 132 -169zM435 0l-14 66c-38 -49 -89 -79 -163 -79c-136 0 -233 98 -233 276c0 182 101 286 239 286c66 0 114 -25 150 -67l7 55h120v-537h-106z
" />
    <glyph glyph-name="abreve.alt" horiz-adv-x="596" 
d="M291 94c54 0 88 17 117 45v265c-30 27 -63 42 -114 42c-76 0 -135 -61 -135 -183c0 -119 61 -169 132 -169zM435 0l-14 66c-38 -49 -89 -79 -163 -79c-136 0 -233 98 -233 276c0 182 101 286 239 286c66 0 114 -25 150 -67l7 55h120v-537h-106zM299 606
c-88 0 -153 59 -160 152h91c8 -42 31 -63 69 -63s60 22 68 63h91c-7 -93 -71 -152 -159 -152z" />
    <glyph glyph-name="acircumflex.alt" horiz-adv-x="596" 
d="M298 681l-66 -78h-108l122 161h104l123 -161h-109zM291 94c54 0 88 17 117 45v265c-30 27 -63 42 -114 42c-76 0 -135 -61 -135 -183c0 -119 61 -169 132 -169zM435 0l-14 66c-38 -49 -89 -79 -163 -79c-136 0 -233 98 -233 276c0 182 101 286 239 286
c66 0 114 -25 150 -67l7 55h120v-537h-106z" />
    <glyph glyph-name="adieresis.alt" horiz-adv-x="596" 
d="M140 624v115h123v-115h-123zM335 624v115h123v-115h-123zM291 94c54 0 88 17 117 45v265c-30 27 -63 42 -114 42c-76 0 -135 -61 -135 -183c0 -119 61 -169 132 -169zM435 0l-14 66c-38 -49 -89 -79 -163 -79c-136 0 -233 98 -233 276c0 182 101 286 239 286
c66 0 114 -25 150 -67l7 55h120v-537h-106z" />
    <glyph glyph-name="agrave.alt" horiz-adv-x="596" 
d="M291 94c54 0 88 17 117 45v265c-30 27 -63 42 -114 42c-76 0 -135 -61 -135 -183c0 -119 61 -169 132 -169zM435 0l-14 66c-38 -49 -89 -79 -163 -79c-136 0 -233 98 -233 276c0 182 101 286 239 286c66 0 114 -25 150 -67l7 55h120v-537h-106zM259 603l-122 168h143
l87 -168h-108z" />
    <glyph glyph-name="amacron.alt" horiz-adv-x="596" 
d="M291 94c54 0 88 17 117 45v265c-30 27 -63 42 -114 42c-76 0 -135 -61 -135 -183c0 -119 61 -169 132 -169zM435 0l-14 66c-38 -49 -89 -79 -163 -79c-136 0 -233 98 -233 276c0 182 101 286 239 286c66 0 114 -25 150 -67l7 55h120v-537h-106zM142 636v91h312v-91h-312z
" />
    <glyph glyph-name="aogonek.alt" horiz-adv-x="596" 
d="M475 -219c-85 0 -127 37 -127 96c0 45 23 84 84 121l-12 67c-38 -49 -89 -78 -162 -78c-136 0 -233 98 -233 276c0 182 101 286 239 286c66 0 114 -25 150 -67l7 55h120v-537c-52 -31 -81 -68 -81 -95c0 -23 10 -39 46 -39c16 0 30 4 44 10l5 -2v-77
c-18 -8 -46 -16 -80 -16zM291 94c54 0 88 17 117 45v265c-30 27 -63 42 -114 42c-76 0 -135 -61 -135 -183c0 -119 61 -169 132 -169z" />
    <glyph glyph-name="aring.alt" horiz-adv-x="596" 
d="M298 588c-69 0 -116 46 -116 112s47 112 116 112s116 -46 116 -112s-47 -112 -116 -112zM298 750c-29 0 -47 -22 -47 -50s18 -49 47 -49s47 21 47 49s-18 50 -47 50zM291 94c54 0 88 17 117 45v265c-30 27 -63 42 -114 42c-76 0 -135 -61 -135 -183
c0 -119 61 -169 132 -169zM435 0l-14 66c-38 -49 -89 -79 -163 -79c-136 0 -233 98 -233 276c0 182 101 286 239 286c66 0 114 -25 150 -67l7 55h120v-537h-106z" />
    <glyph glyph-name="aringacute.alt" horiz-adv-x="596" 
d="M298 588c-69 0 -116 46 -116 112s47 112 116 112s116 -46 116 -112s-47 -112 -116 -112zM298 750c-29 0 -47 -22 -47 -50s18 -49 47 -49s47 21 47 49s-18 50 -47 50zM291 94c54 0 88 17 117 45v265c-30 27 -63 42 -114 42c-76 0 -135 -61 -135 -183
c0 -119 61 -169 132 -169zM435 0l-14 66c-38 -49 -89 -79 -163 -79c-136 0 -233 98 -233 276c0 182 101 286 239 286c66 0 114 -25 150 -67l7 55h120v-537h-106zM351 839h-110l84 150h142z" />
    <glyph glyph-name="atilde.alt" horiz-adv-x="596" 
d="M291 94c54 0 88 17 117 45v265c-30 27 -63 42 -114 42c-76 0 -135 -61 -135 -183c0 -119 61 -169 132 -169zM435 0l-14 66c-38 -49 -89 -79 -163 -79c-136 0 -233 98 -233 276c0 182 101 286 239 286c66 0 114 -25 150 -67l7 55h120v-537h-106zM365 718c28 0 50 13 74 42
l7 -2l12 -82c-17 -27 -54 -53 -99 -53c-66 0 -91 33 -132 33c-34 0 -54 -12 -79 -42l-6 3l-12 83c20 28 57 51 99 51c65 0 89 -33 136 -33z" />
    <glyph glyph-name="gbreve.alt" horiz-adv-x="600" 
d="M292 107c58 0 92 19 122 50v244c-31 29 -66 45 -119 45c-79 0 -136 -61 -136 -177c0 -113 59 -162 133 -162zM274 -215c-83 0 -158 17 -202 42v111l5 2c45 -27 109 -46 178 -46c115 0 159 41 159 116v65c-37 -43 -88 -68 -157 -68c-137 0 -232 95 -232 262
c0 176 100 280 240 280c69 0 119 -27 156 -70l6 58h120v-526c0 -167 -115 -226 -273 -226zM298 606c-88 0 -153 59 -160 152h91c8 -42 31 -63 69 -63s60 22 68 63h91c-7 -93 -71 -152 -159 -152z" />
    <glyph glyph-name="gcircumflex.alt" horiz-adv-x="600" 
d="M298 681l-66 -78h-108l122 161h104l123 -161h-109zM292 107c58 0 92 19 122 50v244c-31 29 -66 45 -119 45c-79 0 -136 -61 -136 -177c0 -113 59 -162 133 -162zM274 -215c-83 0 -158 17 -202 42v111l5 2c45 -27 109 -46 178 -46c115 0 159 41 159 116v65
c-37 -43 -88 -68 -157 -68c-137 0 -232 95 -232 262c0 176 100 280 240 280c69 0 119 -27 156 -70l6 58h120v-526c0 -167 -115 -226 -273 -226z" />
    <glyph glyph-name="gcommaaccent.alt" horiz-adv-x="600" 
d="M360 774l-9 -171h-121l-3 6l46 165h87zM292 107c58 0 92 19 122 50v244c-31 29 -66 45 -119 45c-79 0 -136 -61 -136 -177c0 -113 59 -162 133 -162zM274 -215c-83 0 -158 17 -202 42v111l5 2c45 -27 109 -46 178 -46c115 0 159 41 159 116v65c-37 -43 -88 -68 -157 -68
c-137 0 -232 95 -232 262c0 176 100 280 240 280c69 0 119 -27 156 -70l6 58h120v-526c0 -167 -115 -226 -273 -226z" />
    <glyph glyph-name="gdotaccent.alt" horiz-adv-x="600" 
d="M292 107c58 0 92 19 122 50v244c-31 29 -66 45 -119 45c-79 0 -136 -61 -136 -177c0 -113 59 -162 133 -162zM274 -215c-83 0 -158 17 -202 42v111l5 2c45 -27 109 -46 178 -46c115 0 159 41 159 116v65c-37 -43 -88 -68 -157 -68c-137 0 -232 95 -232 262
c0 176 100 280 240 280c69 0 119 -27 156 -70l6 58h120v-526c0 -167 -115 -226 -273 -226zM231 623v117h134v-117h-134z" />
    <glyph glyph-name="germandbls.alt" horiz-adv-x="596" 
d="M236 8v103l4 3c21 -10 47 -21 90 -21c54 0 108 42 108 119c0 91 -63 135 -167 163v79c70 17 116 50 116 118c0 51 -39 85 -94 85c-62 0 -103 -40 -103 -122v-535h-135v526c0 164 109 231 240 231c134 0 225 -68 225 -175c0 -90 -58 -133 -125 -154
c81 -25 179 -84 179 -227c0 -131 -84 -214 -211 -214c-58 0 -98 10 -127 21z" />
    <glyph glyph-name="kcommaaccent.alt" horiz-adv-x="529" 
d="M211 -228l9 171h122l1 -10l-44 -161h-88zM375 0l-187 276v-276h-133v727l133 27v-470l184 253h134v-7l-176 -239l195 -284v-7h-150z" />
    <glyph glyph-name="kcommaaccent.alt1" horiz-adv-x="548" 
d="M210 -228l9 171h122l1 -10l-44 -161h-88zM315 442c-45 0 -84 -21 -127 -56v-386h-133v727l133 27v-282c49 49 105 77 172 77c97 0 157 -59 157 -145c0 -92 -57 -149 -142 -187l160 -209v-8h-147l-161 210v27c94 36 155 80 155 144c0 40 -24 61 -67 61z" />
    <glyph glyph-name="lacute.alt" horiz-adv-x="282" 
d="M190 -5c-83 0 -135 31 -135 127v605l133 27v-614c0 -29 14 -42 37 -42c16 0 25 3 35 6l5 -3v-93c-17 -7 -44 -13 -75 -13zM174 789h-110l84 150h142z" />
    <glyph glyph-name="lcaron.alt" horiz-adv-x="284" 
d="M190 -5c-83 0 -135 31 -135 127v605l133 27v-614c0 -29 14 -42 37 -42c16 0 25 3 35 6l5 -3v-93c-17 -7 -44 -13 -75 -13zM234 581l7 162h105v-22l-31 -140h-81z" />
    <glyph glyph-name="lcommaaccent.alt" horiz-adv-x="282" 
d="M92 -228l9 171h122l1 -10l-44 -161h-88zM190 -5c-83 0 -135 31 -135 127v605l133 27v-614c0 -29 14 -42 37 -42c16 0 25 3 35 6l5 -3v-93c-17 -7 -44 -13 -75 -13z" />
    <glyph glyph-name="ldot.alt" horiz-adv-x="353" 
d="M190 -5c-83 0 -135 31 -135 127v605l133 27v-614c0 -29 14 -42 37 -42c16 0 25 3 35 6l5 -3v-93c-17 -7 -44 -13 -75 -13zM240 316v123h133v-123h-133z" />
    <glyph glyph-name="lslash.alt" horiz-adv-x="299" 
d="M202 -5c-82 0 -134 31 -134 127v210l-59 -30v101l59 30v294l133 27v-254l76 38v-102l-76 -38v-258c0 -29 13 -42 37 -42c15 0 24 3 35 6l4 -3v-93c-16 -7 -44 -13 -75 -13z" />
    <glyph glyph-name="tbar.alt" horiz-adv-x="360" 
d="M331 269h-99v-269h-133v269h-74v78h74v90h-74v100h74v97l133 21v-118h99v-100h-99v-90h99v-78z" />
    <glyph glyph-name="tcaron.alt" horiz-adv-x="358" 
d="M331 437h-99v-437h-133v437h-74v100h74v97l133 21v-118h99v-100zM269 581l7 162h105v-22l-31 -140h-81z" />
    <glyph glyph-name="tcommaaccent.alt" horiz-adv-x="364" 
d="M98 -228l9 171h122l1 -10l-44 -161h-88zM331 437h-99v-437h-133v437h-74v100h74v97l133 21v-118h99v-100z" />
    <glyph glyph-name="yacute.alt" horiz-adv-x="540" 
d="M322 603h-108l87 168h143zM255 -201h-136v6l87 222l-200 503v7h142l131 -358l128 358h126v-7z" />
    <glyph glyph-name="yacute.alt1" horiz-adv-x="580" 
d="M334 603h-108l87 168h143zM270 -215c-81 0 -150 17 -195 42v111l5 2c46 -27 104 -46 171 -46c105 0 142 41 142 116v49c-39 -37 -91 -67 -163 -67c-108 0 -180 61 -180 181v364h133v-340c0 -75 42 -98 93 -98c45 0 82 12 117 37v401h133v-526c0 -167 -108 -226 -256 -226
z" />
    <glyph glyph-name="ycircumflex.alt" horiz-adv-x="540" 
d="M278 681l-66 -78h-108l122 161h104l123 -161h-109zM255 -201h-136v6l87 222l-200 503v7h142l131 -358l128 358h126v-7z" />
    <glyph glyph-name="ycircumflex.alt1" horiz-adv-x="580" 
d="M290 681l-66 -78h-108l122 161h104l123 -161h-109zM270 -215c-81 0 -150 17 -195 42v111l5 2c46 -27 104 -46 171 -46c105 0 142 41 142 116v49c-39 -37 -91 -67 -163 -67c-108 0 -180 61 -180 181v364h133v-340c0 -75 42 -98 93 -98c45 0 82 12 117 37v401h133v-526
c0 -167 -108 -226 -256 -226z" />
    <glyph glyph-name="ydieresis.alt" horiz-adv-x="540" 
d="M120 624v115h123v-115h-123zM315 624v115h123v-115h-123zM255 -201h-136v6l87 222l-200 503v7h142l131 -358l128 358h126v-7z" />
    <glyph glyph-name="ydieresis.alt1" horiz-adv-x="580" 
d="M132 624v115h123v-115h-123zM327 624v115h123v-115h-123zM270 -215c-81 0 -150 17 -195 42v111l5 2c46 -27 104 -46 171 -46c105 0 142 41 142 116v49c-39 -37 -91 -67 -163 -67c-108 0 -180 61 -180 181v364h133v-340c0 -75 42 -98 93 -98c45 0 82 12 117 37v401h133
v-526c0 -167 -108 -226 -256 -226z" />
    <glyph glyph-name="ygrave.alt" horiz-adv-x="540" 
d="M255 -201h-136v6l87 222l-200 503v7h142l131 -358l128 358h126v-7zM239 603l-122 168h143l87 -168h-108z" />
    <glyph glyph-name="ygrave.alt1" horiz-adv-x="580" 
d="M270 -215c-81 0 -150 17 -195 42v111l5 2c46 -27 104 -46 171 -46c105 0 142 41 142 116v49c-39 -37 -91 -67 -163 -67c-108 0 -180 61 -180 181v364h133v-340c0 -75 42 -98 93 -98c45 0 82 12 117 37v401h133v-526c0 -167 -108 -226 -256 -226zM250 603l-122 168h143
l87 -168h-108z" />
    <glyph glyph-name="space_uni0326.alt" horiz-adv-x="400" 
d="M259 774l-9 -171h-121l-3 6l46 165h87z" />
    <glyph glyph-name="ordfeminine.alt" horiz-adv-x="508" 
d="M246 324c44 0 71 13 95 35v216c-24 23 -51 35 -92 35c-61 0 -109 -50 -109 -150c0 -97 49 -136 106 -136zM363 244l-11 53c-31 -40 -74 -63 -135 -63c-113 0 -194 78 -194 226c0 150 85 238 199 238c55 0 94 -21 124 -55l6 45h105v-444h-94z" />
    <glyph glyph-name="asterisk.alt" horiz-adv-x="391" 
d="M264 377l-69 125l-69 -125l-78 60l89 95l-122 28l32 94l112 -59l-15 133h103l-15 -133l112 59l31 -94l-121 -28l89 -95z" />
    <glyph glyph-name="registered.alt" horiz-adv-x="787" 
d="M33 352c0 214 157 366 360 366c204 0 361 -152 361 -366c0 -212 -157 -365 -361 -365c-203 0 -360 153 -360 365zM691 352c0 177 -125 310 -298 310c-170 0 -297 -133 -297 -310c0 -174 127 -309 297 -309c173 0 298 135 298 309zM394 476h-46v-102h46c42 0 59 18 59 52
c0 35 -18 50 -59 50zM467 161l-78 143h-41v-143h-98v387h148c101 0 150 -40 150 -120c0 -56 -25 -89 -69 -105l87 -156v-6h-99z" />
    <glyph glyph-name="caron.alt" horiz-adv-x="401" 
d="M157 581l7 162h105v-22l-31 -140h-81z" />
    <glyph glyph-name="breve_acute.uc" horiz-adv-x="400" 
d="M248 918h-107l65 105h139zM39 903c7 -93 71 -151 161 -151s154 58 161 151h-93c-8 -41 -31 -62 -68 -62s-61 20 -68 62h-93z" />
    <glyph glyph-name="breve_grave.uc" horiz-adv-x="400" 
d="M151 918l-97 105h139l64 -105h-106zM200 752c-90 0 -154 58 -161 151h93c7 -42 31 -62 68 -62s60 21 68 62h93c-7 -93 -71 -151 -161 -151z" />
    <glyph glyph-name="breve_hook.uc" horiz-adv-x="400" 
d="M109 1059c16 8 47 18 93 18c76 0 128 -24 128 -76c0 -65 -91 -73 -91 -86v-2h-92v4c0 44 79 51 79 74c0 12 -11 18 -44 18c-28 0 -51 -7 -68 -15l-5 2v63zM39 903c7 -93 71 -151 161 -151s154 58 161 151h-93c-8 -41 -31 -62 -68 -62s-61 20 -68 62h-93z" />
    <glyph glyph-name="breve_tilde.uc" horiz-adv-x="400" 
d="M265 1015c28 0 51 12 75 40l7 -3l24 -77c-17 -27 -56 -54 -101 -54c-65 0 -95 32 -136 32c-34 0 -56 -11 -81 -39l-6 3l-23 79c19 28 59 52 102 52c63 0 92 -33 139 -33zM200 752c-90 0 -154 58 -161 135h93c6 -28 31 -46 68 -46s61 19 68 46h93
c-7 -77 -71 -135 -161 -135z" />
    <glyph glyph-name="circumflex_acute.uc" horiz-adv-x="400" 
d="M419 872h-101l58 117h134zM200 836l-70 -76h-110l125 158h110l125 -158h-110z" />
    <glyph glyph-name="circumflex_grave.uc" horiz-adv-x="400" 
d="M360 872l-92 117h134l59 -117h-101zM200 836l-70 -76h-110l125 158h110l125 -158h-110z" />
    <glyph glyph-name="circumflex_hook.uc" horiz-adv-x="400" 
d="M296 1010c15 9 40 19 87 19c68 0 113 -24 113 -81c0 -61 -72 -72 -72 -89v-2h-89v4c0 45 64 54 64 79c0 14 -10 21 -40 21c-24 0 -43 -6 -59 -15l-4 3v61zM200 836l-70 -76h-110l125 158h110l125 -158h-110z" />
    <glyph glyph-name="circumflex_tilde.uc" horiz-adv-x="400" 
d="M266 1014c28 0 50 12 75 40l7 -3l24 -77c-18 -27 -56 -55 -101 -55c-66 0 -96 33 -136 33c-34 0 -56 -11 -81 -39l-6 3l-24 79c20 28 60 51 103 51c63 0 92 -32 139 -32zM200 809l-70 -49h-110l124 131h112l124 -131h-110z" />
    <glyph glyph-name="dollar.uc" horiz-adv-x="549" 
d="M162 530c0 -44 22 -71 83 -95l32 176c-78 0 -115 -32 -115 -81zM377 191c0 50 -24 68 -85 89l-33 -182c76 3 118 37 118 93zM252 -10h-12l-22 -121h-81l23 128c-55 10 -96 27 -128 44v123l6 2c45 -29 88 -51 142 -62l36 201c-121 40 -184 101 -184 205
c0 132 100 208 245 208h19l16 86h81l-17 -94c39 -8 71 -19 98 -34v-115l-6 -2c-37 21 -72 36 -111 44l-35 -194c132 -43 195 -82 195 -201c0 -143 -102 -218 -265 -218z" />
    <glyph glyph-name="Euro.uc" horiz-adv-x="590" 
d="M568 40c-42 -27 -92 -52 -174 -52c-171 0 -283 97 -316 262h-66v77h57c-1 10 -1 20 -1 31c0 10 0 19 1 28h-57v76h66c33 167 151 256 305 256c73 0 127 -16 169 -41v-110l-6 -4c-53 33 -88 46 -149 46c-88 0 -152 -47 -177 -147h210v-76h-220c-1 -10 -1 -20 -1 -30
s0 -20 1 -29h220v-77h-210c24 -101 86 -151 182 -151c62 0 105 20 160 60l6 -3v-116z" />
    <glyph glyph-name="sterling.uc" horiz-adv-x="571" 
d="M545 106v-106h-534v63c78 60 92 109 105 188l7 40h-67v91h81l24 144c21 133 93 192 222 192c63 0 107 -10 153 -32v-104l-8 -4c-40 21 -73 32 -117 32c-57 0 -96 -24 -109 -98l-23 -130h165v-91h-181l-5 -27c-13 -71 -20 -112 -75 -158h362z" />
    <glyph glyph-name="yen.uc" horiz-adv-x="611" 
d="M549 141h-166v-141h-151v141h-166v76h166v59h-166v75h153l-202 347v7h155l141 -268l142 268h140v-7l-202 -347h156v-75h-166v-59h166v-76z" />
    <glyph glyph-name="zero.uc" horiz-adv-x="666" 
d="M334 -12c-181 0 -303 138 -304 368c0 230 123 363 304 363c180 0 302 -133 302 -363s-122 -368 -302 -368zM334 97c95 0 152 89 152 259c0 171 -57 254 -152 254s-154 -83 -154 -254c0 -170 59 -259 154 -259z" />
    <glyph glyph-name="one.uc" horiz-adv-x="383" 
d="M300 0h-144v548l-131 -75l-6 3v119l207 116h74v-711z" />
    <glyph glyph-name="two.uc" horiz-adv-x="525" 
d="M16 0v62l231 252c61 66 93 128 93 191c0 57 -36 102 -122 102c-75 0 -117 -19 -173 -53l-7 4v110c50 30 108 50 203 50c147 0 242 -74 242 -205c0 -97 -54 -175 -135 -262l-135 -145h283v-106h-480z" />
    <glyph glyph-name="three.uc" horiz-adv-x="537" 
d="M250 -12c-116 0 -178 29 -224 55v113l6 3c61 -38 112 -60 200 -60c90 0 133 44 133 107c0 62 -37 108 -140 108h-80v102h69c98 0 128 47 128 99c0 63 -40 95 -122 95c-77 0 -113 -16 -170 -48l-7 3v107c49 29 104 46 201 46c134 0 239 -60 239 -188
c0 -78 -43 -130 -117 -156c92 -24 142 -81 142 -173c0 -133 -94 -213 -258 -213z" />
    <glyph glyph-name="four.uc" horiz-adv-x="588" 
d="M334 250v233l-175 -233h175zM580 148h-105v-148h-141v148h-329v61l374 502h96v-461h105v-102z" />
    <glyph glyph-name="five.uc" horiz-adv-x="524" 
d="M224 -12c-98 0 -166 24 -209 51v111l6 3c59 -37 107 -57 183 -57c101 0 146 50 146 123c0 75 -52 114 -153 114c-71 0 -111 -12 -139 -22l-7 3v391h412v-106h-291v-167c20 2 43 4 67 4c159 0 255 -80 255 -214c0 -141 -97 -234 -270 -234z" />
    <glyph glyph-name="six.uc" horiz-adv-x="595" 
d="M573 224c0 -129 -86 -236 -256 -236c-183 0 -286 123 -286 337c0 267 144 393 330 393c66 0 122 -9 165 -33v-116l-6 -2c-37 23 -84 42 -147 42c-108 0 -182 -62 -196 -223c38 31 93 57 170 57c126 0 226 -75 226 -219zM305 347c-52 0 -95 -18 -130 -46
c6 -141 51 -209 139 -207c83 1 116 58 116 131c0 81 -44 122 -125 122z" />
    <glyph glyph-name="seven.uc" horiz-adv-x="529" 
d="M243 0h-145c35 157 112 307 186 447l77 147h-343v111h498v-70l-107 -210c-75 -146 -140 -296 -166 -425z" />
    <glyph glyph-name="eight.uc" horiz-adv-x="581" 
d="M294 -12c-163 0 -270 76 -270 195c0 83 63 141 139 169c-75 37 -118 95 -118 172c0 121 109 194 241 194c141 0 251 -57 251 -189c0 -73 -55 -125 -119 -154c89 -39 139 -91 139 -183c0 -127 -98 -204 -263 -204zM317 411l5 -2c54 30 84 69 84 113c0 62 -47 99 -117 99
c-68 0 -109 -39 -109 -92c0 -46 37 -85 137 -118zM291 88c82 0 127 42 127 98c0 55 -42 91 -154 129l-4 1c-56 -25 -101 -60 -101 -122c0 -69 49 -106 132 -106z" />
    <glyph glyph-name="nine.uc" horiz-adv-x="594" 
d="M289 359c53 0 95 18 130 46c-5 141 -45 208 -135 208c-84 0 -121 -55 -121 -129c0 -83 43 -125 126 -125zM220 -12c-66 0 -124 11 -166 34v115l7 3c35 -24 85 -43 147 -43c122 0 195 54 209 222c-36 -32 -90 -57 -170 -57c-128 0 -226 73 -226 222c0 129 91 234 261 234
c181 0 280 -120 280 -337c0 -283 -140 -393 -342 -393z" />
    <glyph glyph-name="percent.uc" horiz-adv-x="848" 
d="M23 540c0 102 75 178 183 178c109 0 183 -76 183 -178c0 -106 -74 -179 -183 -179c-108 0 -183 73 -183 179zM139 0l487 705h87l-487 -705h-87zM206 440c51 0 80 43 80 100s-29 99 -80 99c-50 0 -81 -42 -81 -99s31 -100 81 -100zM643 344c109 0 183 -76 183 -178
c0 -106 -74 -179 -183 -179c-108 0 -184 73 -184 179c0 102 76 178 184 178zM643 66c50 0 79 43 79 100s-29 99 -79 99c-51 0 -81 -42 -81 -99s31 -100 81 -100z" />
    <glyph glyph-name="perthousand.uc" horiz-adv-x="1253" 
d="M206 361c-108 0 -183 73 -183 179c0 102 75 178 183 178c109 0 183 -76 183 -178c0 -106 -74 -179 -183 -179zM136 0l486 705h87l-485 -705h-88zM206 440c51 0 80 43 80 100s-29 99 -80 99c-50 0 -81 -42 -81 -99s31 -100 81 -100zM1047 -13c-108 0 -184 73 -184 179
c0 102 76 178 184 178c109 0 183 -76 183 -178c0 -106 -74 -179 -183 -179zM639 -13c-108 0 -184 73 -184 179c0 102 76 178 184 178s183 -76 183 -178c0 -106 -75 -179 -183 -179zM1047 66c50 0 79 43 79 100s-29 99 -79 99s-80 -42 -80 -99s30 -100 80 -100zM639 66
c50 0 79 43 79 100s-29 99 -79 99c-51 0 -81 -42 -81 -99s31 -100 81 -100z" />
    <glyph glyph-name="questiondown.uc" horiz-adv-x="461" 
d="M340 705v-128h-144v128h144zM426 33c-39 -26 -96 -46 -176 -46c-124 0 -212 61 -212 182c0 87 39 139 105 192c39 32 63 55 63 102v23h124v-26c0 -80 -28 -118 -91 -171c-41 -34 -63 -60 -63 -111c0 -44 28 -77 92 -77c66 0 106 19 153 50l5 -3v-115z" />
    <glyph glyph-name="exclamdown.uc" horiz-adv-x="251" 
d="M198 705v-128h-144v128h144zM178 486l19 -486h-144l20 486h105z" />
    <glyph glyph-name="hyphen.uc" horiz-adv-x="329" 
d="M36 284v112h257v-112h-257z" />
    <glyph glyph-name="endash.uc" horiz-adv-x="512" 
d="M32 294v97h448v-97h-448z" />
    <glyph glyph-name="emdash.uc" horiz-adv-x="944" 
d="M32 294v97h880v-97h-880z" />
    <glyph glyph-name="guilsinglleft.uc" horiz-adv-x="247" 
d="M122 99l-107 191l110 192h101l-107 -192l104 -191h-101z" />
    <glyph glyph-name="guilsinglright.uc" horiz-adv-x="247" 
d="M24 99l104 191l-106 192h101l109 -192l-107 -191h-101z" />
    <glyph glyph-name="guillemotleft.uc" horiz-adv-x="419" 
d="M293 99l-107 191l111 192h100l-106 -192l103 -191h-101zM122 99l-107 191l110 192h101l-107 -192l104 -191h-101z" />
    <glyph glyph-name="guillemotright.uc" horiz-adv-x="419" 
d="M196 99l104 191l-106 192h101l109 -192l-107 -191h-101zM25 99l103 191l-106 192h101l110 -192l-107 -191h-101z" />
    <glyph glyph-name="parenleft.uc" horiz-adv-x="339" 
d="M202 -100c-100 125 -165 270 -165 438c0 169 65 311 165 436h123c-86 -124 -154 -263 -154 -436s68 -314 154 -438h-123z" />
    <glyph glyph-name="parenright.uc" horiz-adv-x="339" 
d="M136 -100h-122c85 124 153 265 153 438s-68 312 -153 436h122c101 -125 165 -267 165 -436c0 -168 -64 -313 -165 -438z" />
    <glyph glyph-name="bracketleft.uc" horiz-adv-x="372" 
d="M70 -100v874h265v-99h-135v-676h135v-99h-265z" />
    <glyph glyph-name="bracketright.uc" horiz-adv-x="372" 
d="M37 -100v99h135v676h-135v99h264v-874h-264z" />
    <glyph glyph-name="braceleft.uc" horiz-adv-x="373" 
d="M343 -100c-187 0 -270 61 -239 199l20 87c16 72 -4 101 -101 103v97c97 2 118 31 101 103l-20 86c-33 138 52 199 239 199v-97c-98 0 -129 -28 -110 -109l18 -72c21 -87 1 -135 -88 -158c89 -24 110 -69 88 -156l-18 -76c-20 -78 12 -109 110 -109v-97z" />
    <glyph glyph-name="braceright.uc" horiz-adv-x="373" 
d="M29 -100v97c98 0 131 31 111 109l-19 76c-21 86 -1 132 88 156c-89 23 -108 70 -87 157l17 73c20 81 -12 109 -110 109v97c188 0 272 -60 240 -199l-20 -86c-17 -73 4 -101 101 -104v-96c-98 -2 -117 -31 -101 -103l20 -88c31 -136 -52 -198 -240 -198z" />
    <glyph glyph-name="slash.uc" horiz-adv-x="417" 
d="M4 -100l288 874h110l-288 -874h-110z" />
    <glyph glyph-name="backslash.uc" horiz-adv-x="417" 
d="M11 774h110l289 -874h-111z" />
    <glyph glyph-name="bar.uc" horiz-adv-x="237" 
d="M68 -100v874h101v-874h-101z" />
    <glyph glyph-name="at.uc" horiz-adv-x="884" 
d="M452 -116c-263 0 -417 175 -417 395c0 256 184 438 427 438c235 0 389 -157 389 -360c0 -180 -96 -275 -202 -275c-68 0 -115 25 -134 72c-33 -45 -77 -72 -133 -72c-104 0 -167 82 -167 191c0 144 92 247 212 247c49 0 85 -21 111 -54l5 41h117l-34 -269
c-9 -66 10 -86 46 -86c42 0 105 53 105 205c0 181 -126 297 -317 297c-186 0 -352 -142 -352 -380c0 -185 126 -326 346 -326c91 0 144 16 196 44l4 -2v-63c-55 -30 -119 -43 -202 -43zM414 182c35 0 65 11 91 39v1l21 159c-24 30 -46 41 -83 41c-63 0 -106 -57 -106 -144
c0 -64 33 -96 77 -96z" />
    <glyph glyph-name="grave.uc" horiz-adv-x="400" 
d="M157 760l-116 150h142l83 -150h-109z" />
    <glyph glyph-name="dieresis.uc" horiz-adv-x="401" 
d="M246 756v114h127v-114h-127zM27 756v114h127v-114h-127z" />
    <glyph glyph-name="macron.uc" horiz-adv-x="680" 
d="M177 772v94h321v-94h-321z" />
    <glyph glyph-name="acute.uc" horiz-adv-x="401" 
d="M250 760h-110l84 150h142z" />
    <glyph glyph-name="circumflex.uc" horiz-adv-x="400" 
d="M200 836l-70 -76h-110l125 158h110l125 -158h-110z" />
    <glyph glyph-name="caron.uc" horiz-adv-x="400" 
d="M200 842l70 76h110l-125 -158h-110l-125 158h110z" />
    <glyph glyph-name="breve.uc" horiz-adv-x="400" 
d="M200 752c-90 0 -154 58 -161 151h93c7 -42 31 -62 68 -62s60 21 68 62h93c-7 -93 -71 -151 -161 -151z" />
    <glyph glyph-name="dotaccent.uc" horiz-adv-x="400" 
d="M133 767v117h134v-117h-134z" />
    <glyph glyph-name="ring.uc" horiz-adv-x="400" 
d="M200 744c-69 0 -116 46 -116 112s47 112 116 112s116 -46 116 -112s-47 -112 -116 -112zM200 906c-29 0 -47 -22 -47 -50s18 -49 47 -49s47 21 47 49s-18 50 -47 50z" />
    <glyph glyph-name="tilde.uc" horiz-adv-x="390" 
d="M266 856c29 0 52 13 76 42l7 -2l12 -82c-17 -27 -55 -53 -101 -53c-67 0 -98 34 -140 34c-35 0 -57 -12 -82 -42l-6 3l-12 84c19 28 59 50 103 50c65 0 95 -34 143 -34z" />
    <glyph glyph-name="hungarumlaut.uc" horiz-adv-x="400" 
d="M136 760h-94l47 149h131c-1 0 -84 -149 -84 -149zM321 760h-94l49 149h132c-3 0 -87 -149 -87 -149z" />
    <glyph glyph-name="A.flat" 
d="M427 263l-98 279l-98 -279h196zM519 0l-55 157h-270l-55 -157h-133v7l262 698h140l262 -698v-7h-151z" />
    <glyph glyph-name="Aacute.flat" 
d="M427 263l-98 279l-98 -279h196zM519 0l-55 157h-270l-55 -157h-133v7l262 698h140l262 -698v-7h-151zM386 760h-110l84 150h142z" />
    <glyph glyph-name="Abreve.flat" 
d="M427 263l-98 279l-98 -279h196zM519 0l-55 157h-270l-55 -157h-133v7l262 698h140l262 -698v-7h-151zM338 752c-90 0 -154 58 -161 151h93c7 -42 31 -62 68 -62s60 21 68 62h93c-7 -93 -71 -151 -161 -151z" />
    <glyph glyph-name="Acircumflex.flat" 
d="M427 263l-98 279l-98 -279h196zM519 0l-55 157h-270l-55 -157h-133v7l262 698h140l262 -698v-7h-151zM337 836l-70 -76h-110l125 158h110l125 -158h-110z" />
    <glyph glyph-name="Adieresis.flat" 
d="M427 263l-98 279l-98 -279h196zM519 0l-55 157h-270l-55 -157h-133v7l262 698h140l262 -698v-7h-151zM384 756v114h127v-114h-127zM165 756v114h127v-114h-127z" />
    <glyph glyph-name="Agrave.flat" 
d="M427 263l-98 279l-98 -279h196zM519 0l-55 157h-270l-55 -157h-133v7l262 698h140l262 -698v-7h-151zM293 760l-116 150h142l83 -150h-109z" />
    <glyph glyph-name="Amacron.flat" 
d="M427 263l-98 279l-98 -279h196zM519 0l-55 157h-270l-55 -157h-133v7l262 698h140l262 -698v-7h-151zM177 772v94h321v-94h-321z" />
    <glyph glyph-name="Aogonek.flat" 
d="M601 -219c-85 0 -127 37 -127 96c0 47 18 86 80 123h-35l-55 157h-270l-55 -157h-133v7l262 698h140l262 -698v-7c-55 -28 -84 -68 -84 -95c0 -23 10 -39 46 -39c16 0 30 4 44 10l4 -2v-77c-17 -8 -45 -16 -79 -16zM427 263l-98 279l-98 -279h196z" />
    <glyph glyph-name="Aring.flat" 
d="M427 263l-98 279l-98 -279h196zM519 0l-55 157h-270l-55 -157h-133v7l262 698h140l262 -698v-7h-151zM337 744c-69 0 -116 46 -116 112s47 112 116 112s116 -46 116 -112s-47 -112 -116 -112zM337 906c-29 0 -47 -22 -47 -50s18 -49 47 -49s47 21 47 49s-18 50 -47 50z
" />
    <glyph glyph-name="Aringacute.flat" 
d="M427 263l-98 279l-98 -279h196zM519 0l-55 157h-270l-55 -157h-133v7l262 698h140l262 -698v-7h-151zM389 972h-110l84 150h142zM337 727c-69 0 -116 46 -116 112s47 112 116 112s116 -46 116 -112s-47 -112 -116 -112zM337 889c-29 0 -47 -22 -47 -50s18 -49 47 -49
s47 21 47 49s-18 50 -47 50z" />
    <glyph glyph-name="Atilde.flat" 
d="M427 263l-98 279l-98 -279h196zM519 0l-55 157h-270l-55 -157h-133v7l262 698h140l262 -698v-7h-151zM408 856c29 0 52 13 76 42l7 -2l12 -82c-17 -27 -55 -53 -101 -53c-67 0 -98 34 -140 34c-35 0 -57 -12 -82 -42l-6 3l-12 84c19 28 59 50 103 50c65 0 95 -34 143 -34
z" />
    <glyph glyph-name="Eng.flat" horiz-adv-x="746" 
d="M427 -187v111c65 12 96 32 104 93l-335 482v-499h-127v705h145l335 -482v482h127v-647c0 -164 -70 -229 -249 -245z" />
    <glyph glyph-name="M.flat" horiz-adv-x="856" 
d="M374 0l-182 498v-498h-123v705h178l178 -479l183 479h179v-705h-138v492l-186 -492h-89z" />
    <glyph glyph-name="M.flatalt" horiz-adv-x="882" 
d="M388 0l-173 455l-37 -455h-129l62 705h142l186 -487l186 487h139l69 -705h-144l-42 457l-175 -457h-84z" />
    <glyph glyph-name="N.flat" horiz-adv-x="745" 
d="M553 0l-353 493v-493h-131v705h145l331 -462v462h131v-705h-123z" />
    <glyph glyph-name="Nacute.flat" horiz-adv-x="745" 
d="M436 760h-110l84 150h142zM553 0l-353 493v-493h-131v705h145l331 -462v462h131v-705h-123z" />
    <glyph glyph-name="Ncaron.flat" horiz-adv-x="745" 
d="M387 842l70 76h110l-125 -158h-110l-125 158h110zM553 0l-353 493v-493h-131v705h145l331 -462v462h131v-705h-123z" />
    <glyph glyph-name="Ncommaaccent.flat" horiz-adv-x="745" 
d="M296 -228l9 171h122l1 -10l-44 -161h-88zM553 0l-353 493v-493h-131v705h145l331 -462v462h131v-705h-123z" />
    <glyph glyph-name="Ntilde.flat" horiz-adv-x="745" 
d="M458 856c29 0 52 13 76 42l7 -2l12 -82c-17 -27 -55 -53 -101 -53c-67 0 -98 34 -140 34c-35 0 -57 -12 -82 -42l-6 3l-12 84c19 28 59 50 103 50c65 0 95 -34 143 -34zM553 0l-353 493v-493h-131v705h145l331 -462v462h131v-705h-123z" />
    <glyph glyph-name="V.flat" horiz-adv-x="671" 
d="M407 0h-144l-251 698v7h152l179 -531l178 531h139v-7z" />
    <glyph glyph-name="W.flat" horiz-adv-x="955" 
d="M589 0l-109 351l-119 -351h-132l-217 698v7h151l150 -511l108 328l-51 176v7h142l152 -519l142 519h136l1 -7l-211 -698h-143z" />
    <glyph glyph-name="W.flatalt" horiz-adv-x="958" 
d="M617 0l-140 480l-141 -480h-132l-190 698v7h146l126 -501l143 501h105l146 -503l125 503h138v-7l-191 -698h-135z" />
    <glyph glyph-name="Wacute.flat" horiz-adv-x="955" 
d="M503 760h-110l84 150h142zM589 0l-109 351l-119 -351h-132l-217 698v7h151l150 -511l108 328l-51 176v7h142l152 -519l142 519h136l1 -7l-211 -698h-143z" />
    <glyph glyph-name="Wacute.flatalt" horiz-adv-x="957" 
d="M532 760h-110l84 150h142zM617 0l-140 480l-141 -480h-132l-190 698v7h146l126 -501l143 501h105l146 -503l125 503h138v-7l-191 -698h-135z" />
    <glyph glyph-name="Wcircumflex.flat" horiz-adv-x="955" 
d="M454 836l-70 -76h-110l125 158h110l125 -158h-110zM589 0l-109 351l-119 -351h-132l-217 698v7h151l150 -511l108 328l-51 176v7h142l152 -519l142 519h136l1 -7l-211 -698h-143z" />
    <glyph glyph-name="Wcircumflex.flatalt" horiz-adv-x="957" 
d="M480 836l-70 -76h-110l125 158h110l125 -158h-110zM617 0l-140 480l-141 -480h-132l-190 698v7h146l126 -501l143 501h105l146 -503l125 503h138v-7l-191 -698h-135z" />
    <glyph glyph-name="Wdieresis.flat" horiz-adv-x="955" 
d="M500 756v114h127v-114h-127zM281 756v114h127v-114h-127zM589 0l-109 351l-119 -351h-132l-217 698v7h151l150 -511l108 328l-51 176v7h142l152 -519l142 519h136l1 -7l-211 -698h-143z" />
    <glyph glyph-name="Wdieresis.flatalt" horiz-adv-x="957" 
d="M617 0l-140 480l-141 -480h-132l-190 698v7h146l126 -501l143 501h105l146 -503l125 503h138v-7l-191 -698h-135zM526 756v114h127v-114h-127zM307 756v114h127v-114h-127z" />
    <glyph glyph-name="Wgrave.flat" horiz-adv-x="955" 
d="M409 760l-116 150h142l83 -150h-109zM589 0l-109 351l-119 -351h-132l-217 698v7h151l150 -511l108 328l-51 176v7h142l152 -519l142 519h136l1 -7l-211 -698h-143z" />
    <glyph glyph-name="Wgrave.flatalt" horiz-adv-x="957" 
d="M433 760l-116 150h142l83 -150h-109zM617 0l-140 480l-141 -480h-132l-190 698v7h146l126 -501l143 501h105l146 -503l125 503h138v-7l-191 -698h-135z" />
    <glyph glyph-name="Z.flat" horiz-adv-x="599" 
d="M563 0h-535v103l360 488h-333v114h499v-116l-352 -475h361v-114z" />
    <glyph glyph-name="Zacute.flat" horiz-adv-x="598" 
d="M353 760h-110l84 150h142zM563 0h-535v103l360 488h-333v114h499v-116l-352 -475h361v-114z" />
    <glyph glyph-name="Zcaron.flat" horiz-adv-x="598" 
d="M305 842l70 76h110l-125 -158h-110l-125 158h110zM563 0h-535v103l360 488h-333v114h499v-116l-352 -475h361v-114z" />
    <glyph glyph-name="Zdotaccent.flat" horiz-adv-x="598" 
d="M563 0h-535v103l360 488h-333v114h499v-116l-352 -475h361v-114zM238 767v117h134v-117h-134z" />
    <glyph glyph-name="four.denflat" horiz-adv-x="339" 
d="M180 153v120l-83 -120h83zM330 83h-53v-83h-97v83h-169v55l168 244h98v-229h53v-70z" />
    <glyph glyph-name="four.flat" horiz-adv-x="562" 
d="M318 266v245l-169 -245h169zM554 164h-97v-164h-139v164h-303v79l308 447h134v-424h97v-102z" />
    <glyph glyph-name="four.numflat" horiz-adv-x="339" 
d="M180 462v119l-82 -119h82zM330 392h-53v-83h-97v83h-169v54l168 244h98v-228h53v-70z" />
    <glyph glyph-name="four.subflat" horiz-adv-x="339" 
d="M180 57v120l-83 -120h83zM330 -13h-53v-83h-97v83h-169v55l168 244h98v-229h53v-70z" />
    <glyph glyph-name="four.supflat" horiz-adv-x="339" 
d="M180 520v120l-83 -120h83zM330 450h-53v-82h-97v82h-169v55l168 244h98v-229h53v-70z" />
    <glyph glyph-name="four.ucflat" horiz-adv-x="593" 
d="M337 270v257l-184 -257h184zM584 168h-104v-168h-143v168h-322v80l328 457h137v-435h104v-102z" />
    <glyph glyph-name="hook" horiz-adv-x="400" 
d="M102 781c22 11 51 21 97 21c77 0 126 -27 126 -86c0 -76 -91 -84 -91 -113v-2h-90v6c0 67 81 67 81 100c0 15 -13 24 -46 24c-28 0 -49 -7 -72 -18l-5 2v66z" />
    <glyph glyph-name="hook.uc" horiz-adv-x="400" 
d="M102 926c23 13 52 21 98 21c77 0 126 -27 126 -86c0 -77 -90 -81 -90 -106v-1h-90v5c0 63 80 62 80 94c0 14 -13 23 -46 23c-28 0 -49 -6 -73 -18l-5 3v65z" />
    <glyph glyph-name="one.denflat" horiz-adv-x="233" 
d="M187 0h-101v279l-72 -45l-2 2v86l99 60h76v-382z" />
    <glyph glyph-name="one.flat" horiz-adv-x="363" 
d="M284 0h-140v539l-120 -76l-6 3v119l168 105h98v-690z" />
    <glyph glyph-name="one.numflat" horiz-adv-x="233" 
d="M187 309h-101v278l-72 -44l-2 1v87l99 59h76v-381z" />
    <glyph glyph-name="one.subflat" horiz-adv-x="233" 
d="M187 -96h-101v278l-72 -43l-2 1v87l99 59h76v-382z" />
    <glyph glyph-name="one.supflat" horiz-adv-x="233" 
d="M187 368h-101v277l-72 -43l-2 1v87l99 59h76v-381z" />
    <glyph glyph-name="one.ucflat" horiz-adv-x="383" 
d="M301 0h-144v555l-132 -82l-6 3v119l179 110h103v-705z" />
    <glyph glyph-name="oneeighth.flat" horiz-adv-x="764" 
d="M600 -7c-94 0 -151 43 -151 107c0 43 28 74 69 88c-38 21 -59 51 -59 93c0 70 62 106 137 106c78 0 142 -31 142 -103c0 -40 -26 -66 -61 -81c46 -22 72 -50 72 -99c0 -71 -55 -111 -149 -111zM617 227c21 14 32 31 32 51c0 28 -21 44 -50 44s-46 -16 -46 -39
c0 -22 17 -38 64 -56zM598 59c36 0 54 19 54 43c0 27 -21 42 -73 61c-23 -13 -39 -28 -39 -56c0 -30 21 -48 58 -48zM187 309h-101v278l-72 -44l-2 1v87l99 59h76v-381zM53 0l525 690h88l-526 -690h-87z" />
    <glyph glyph-name="onehalf.flat" horiz-adv-x="769" 
d="M486 0v60l108 113c31 34 47 59 47 89c0 26 -17 45 -58 45c-38 0 -61 -10 -89 -28l-4 3v77c26 17 61 28 115 28c85 0 136 -41 136 -115c0 -55 -26 -92 -70 -138l-58 -60h134v-74h-261zM187 309h-101v278l-72 -44l-2 1v87l99 59h76v-381zM60 0l525 690h88l-526 -690h-87z
" />
    <glyph glyph-name="onequarter.flat" horiz-adv-x="750" 
d="M187 309h-101v278l-72 -44l-2 1v87l99 59h76v-381zM58 0l525 690h88l-526 -690h-87zM588 153v120l-83 -120h83zM738 83h-53v-83h-97v83h-169v55l168 244h98v-229h53v-70z" />
    <glyph glyph-name="onethird.flat" horiz-adv-x="757" 
d="M593 -7c-65 0 -99 17 -123 30v76l3 3c31 -19 59 -31 106 -31c41 0 60 19 60 46s-17 45 -62 45h-45v66h40c43 0 56 19 56 42c0 26 -18 41 -57 41c-40 0 -61 -9 -90 -25l-4 3v73c25 15 56 25 113 25c75 0 136 -33 136 -102c0 -44 -23 -70 -67 -84c53 -12 80 -42 80 -91
c0 -73 -53 -117 -146 -117zM187 309h-101v278l-72 -44l-2 1v87l99 59h76v-381zM50 0l525 690h88l-526 -690h-87z" />
    <glyph glyph-name="seven.denflat" horiz-adv-x="306" 
d="M158 0h-105c20 88 56 160 100 239l32 61h-170v80h273v-67l-43 -87c-41 -82 -71 -153 -87 -226z" />
    <glyph glyph-name="seven.flat" horiz-adv-x="496" 
d="M230 0h-141c32 154 104 301 175 436l70 140h-316v111h456v-92l-87 -181c-70 -142 -133 -289 -157 -414z" />
    <glyph glyph-name="seven.numflat" horiz-adv-x="306" 
d="M158 309h-105c20 88 56 160 100 239l32 61h-170v80h273v-66l-43 -87c-41 -83 -71 -154 -87 -227z" />
    <glyph glyph-name="seven.subflat" horiz-adv-x="306" 
d="M158 -95h-105c20 88 56 160 100 239l32 61h-170v80h273v-66l-43 -87c-41 -83 -71 -154 -87 -227z" />
    <glyph glyph-name="seven.supflat" horiz-adv-x="306" 
d="M158 368h-105c20 88 56 160 100 239l32 61h-170v80h273v-66l-43 -87c-41 -83 -71 -154 -87 -227z" />
    <glyph glyph-name="seven.ucflat" horiz-adv-x="530" 
d="M243 0h-145c36 157 113 307 187 447l77 147h-343v111h487v-93l-96 -187c-75 -146 -140 -296 -167 -425z" />
    <glyph glyph-name="seveneighths.flat" horiz-adv-x="771" 
d="M607 -7c-94 0 -151 43 -151 107c0 43 28 74 69 88c-38 21 -59 51 -59 93c0 70 62 106 137 106c78 0 142 -31 142 -103c0 -40 -26 -66 -61 -81c46 -22 72 -50 72 -99c0 -71 -55 -111 -149 -111zM624 227c21 14 32 31 32 51c0 28 -21 44 -50 44s-46 -16 -46 -39
c0 -22 17 -38 64 -56zM605 59c36 0 54 19 54 43c0 27 -21 42 -73 61c-23 -13 -39 -28 -39 -56c0 -30 21 -48 58 -48zM158 309h-105c20 88 56 160 100 239l32 61h-170v80h273v-66l-43 -87c-41 -83 -71 -154 -87 -227zM61 0l525 690h88l-526 -690h-87z" />
    <glyph glyph-name="sterling.flat" horiz-adv-x="532" 
d="M507 106v-106h-482v88c62 54 67 84 81 165l4 28h-56v91h71l22 139c19 129 89 186 209 186c58 0 100 -9 142 -31v-105l-7 -3c-37 21 -68 31 -109 31c-52 0 -86 -23 -98 -92l-22 -125h151v-91h-167l-4 -25c-12 -72 -22 -106 -74 -150h339z" />
    <glyph glyph-name="sterling.ucflat" horiz-adv-x="571" 
d="M544 106v-106h-518v88c67 56 76 89 91 173l5 30h-65v91h80l23 144c21 133 93 192 222 192c63 0 107 -10 153 -32v-104l-8 -4c-40 21 -73 32 -117 32c-57 0 -96 -24 -109 -98l-23 -130h165v-91h-181l-5 -27c-13 -75 -22 -112 -78 -158h365z" />
    <glyph glyph-name="threequarters.flat" horiz-adv-x="776" 
d="M615 153v120l-83 -120h83zM765 83h-53v-83h-97v83h-169v55l168 244h98v-229h53v-70zM85 0l525 690h88l-526 -690h-87zM141 302c-65 0 -99 16 -123 30v76l3 3c31 -20 59 -31 106 -31c41 0 60 18 60 46c0 26 -17 45 -62 45h-45v66h40c43 0 56 18 56 41c0 27 -18 42 -57 42
c-40 0 -61 -9 -90 -25l-4 2v73c25 15 56 26 113 26c75 0 136 -33 136 -103c0 -43 -23 -70 -66 -83c53 -12 79 -42 79 -92c0 -73 -53 -116 -146 -116z" />
    <glyph glyph-name="trademark.flat" horiz-adv-x="741" 
d="M277 609h-90v-254h-94v254h-90v79h274v-79zM478 355l-73 213v-213h-80v333h113l70 -195l64 195h118v-333h-88v213l-73 -213h-51z" />
    <glyph glyph-name="two.denflat" horiz-adv-x="303" 
d="M18 0v60l108 113c31 34 47 59 47 89c0 26 -17 45 -58 45c-38 0 -61 -10 -89 -28l-4 3v77c26 17 61 28 115 28c85 0 136 -41 136 -115c0 -55 -26 -92 -70 -138l-58 -60h134v-74h-261z" />
    <glyph glyph-name="two.flat" horiz-adv-x="486" 
d="M26 0v79l199 226c55 66 85 121 85 183c0 54 -30 98 -110 98c-69 0 -109 -18 -162 -51l-5 3v111c45 29 100 48 189 48c135 0 228 -72 228 -199c0 -94 -53 -172 -126 -258l-122 -134h256v-106h-432z" />
    <glyph glyph-name="two.numflat" horiz-adv-x="303" 
d="M18 309v59l108 114c31 34 47 59 47 88c0 27 -17 46 -58 46c-38 0 -61 -10 -89 -28l-4 2v77c26 18 61 29 115 29c85 0 136 -41 136 -115c0 -55 -26 -92 -70 -139l-58 -59h134v-74h-261z" />
    <glyph glyph-name="two.subflat" horiz-adv-x="303" 
d="M18 -95v60l108 113c31 34 47 59 47 89c0 26 -17 45 -58 45c-38 0 -61 -10 -89 -28l-4 3v77c26 17 61 28 115 28c85 0 136 -41 136 -115c0 -55 -26 -92 -70 -138l-58 -60h134v-74h-261z" />
    <glyph glyph-name="two.supflat" horiz-adv-x="303" 
d="M18 368v60l108 113c31 34 47 59 47 89c0 26 -17 45 -58 45c-38 0 -61 -10 -89 -28l-4 3v77c26 17 61 28 115 28c85 0 136 -41 136 -115c0 -55 -26 -92 -70 -138l-58 -60h134v-74h-261z" />
    <glyph glyph-name="two.ucflat" horiz-adv-x="523" 
d="M27 0v79l218 235c60 68 92 128 92 191c0 57 -36 102 -122 102c-75 0 -117 -19 -173 -53l-7 4v110c50 30 108 50 203 50c147 0 242 -74 242 -205c0 -97 -53 -175 -134 -262l-136 -145h283v-106h-466z" />
    <glyph glyph-name="twothirds.flat" horiz-adv-x="805" 
d="M641 -7c-65 0 -99 17 -123 30v76l3 3c31 -19 59 -31 106 -31c41 0 60 19 60 46s-17 45 -62 45h-45v66h40c43 0 56 19 56 42c0 26 -18 41 -57 41c-40 0 -61 -9 -90 -25l-4 3v73c25 15 56 25 113 25c75 0 136 -33 136 -102c0 -44 -23 -70 -67 -84c53 -12 80 -42 80 -91
c0 -73 -53 -117 -146 -117zM18 309v59l108 114c31 34 47 59 47 88c0 27 -17 46 -58 46c-38 0 -61 -10 -89 -28l-4 2v77c26 18 61 29 115 29c85 0 136 -41 136 -115c0 -55 -26 -92 -70 -139l-58 -59h134v-74h-261zM97 0l525 690h88l-526 -690h-87z" />
    <glyph glyph-name="underdot" horiz-adv-x="400" 
d="M133 -201v117h134v-117h-134z" />
    <glyph glyph-name="uni0192" unicode="&#x192;" horiz-adv-x="414" 
d="M372 290h-139l-61 -500h-133l60 500h-71v102h84l13 110c19 148 108 196 207 196c39 0 60 -6 76 -12v-89l-4 -4c-12 4 -26 7 -51 7c-42 0 -85 -23 -94 -98l-13 -110h126v-102z" />
    <glyph glyph-name="uni01A0" unicode="&#x1a0;" horiz-adv-x="800" 
d="M393 -13c-216 0 -363 160 -363 368s147 363 363 363c87 0 134 -27 197 -27c49 0 88 40 92 114h112c-2 -112 -60 -175 -137 -195c62 -62 98 -153 98 -255c0 -208 -147 -368 -362 -368zM393 101c130 0 212 101 212 254s-84 249 -212 249s-212 -96 -212 -249
s82 -254 212 -254z" />
    <glyph glyph-name="uni01A1" unicode="&#x1a1;" horiz-adv-x="649" 
d="M305 -13c-160 0 -280 110 -280 282c0 173 120 280 280 280c66 0 96 -13 146 -12c61 0 96 31 100 116h105c-3 -122 -56 -182 -134 -198c42 -45 66 -109 66 -186c0 -172 -122 -282 -283 -282zM305 90c87 0 148 63 148 179c0 115 -61 178 -148 178c-85 0 -146 -63 -146 -178
c0 -116 61 -179 146 -179z" />
    <glyph glyph-name="uni01AF" unicode="&#x1af;" horiz-adv-x="750" 
d="M353 -12c-181 0 -293 98 -293 282v435h147v-432c0 -109 56 -165 150 -165s153 56 153 165v432h56c73 0 108 41 112 116h112c-3 -117 -63 -182 -146 -200v-351c0 -178 -111 -282 -291 -282z" />
    <glyph glyph-name="uni01B0" unicode="&#x1b0;" horiz-adv-x="645" 
d="M408 0l-9 60c-40 -39 -93 -73 -169 -73c-108 0 -180 61 -180 182v368h133v-345c0 -75 42 -97 93 -97c45 0 81 11 116 37v405h64c65 0 97 32 101 116h105c-3 -123 -56 -184 -137 -199v-454h-117z" />
    <glyph glyph-name="uni0237" unicode="&#x237;" horiz-adv-x="246" 
d="M-21 -216v106c52 6 77 26 77 103v536h133v-545c0 -137 -72 -192 -210 -200z" />
    <glyph glyph-name="uni1EA0" unicode="&#x1ea0;" 
d="M418 251l-89 224l-89 -224h178zM518 0l-59 147h-260l-58 -147h-135v7l300 706h63l301 -706v-7h-152zM270 -201v117h134v-117h-134z" />
    <glyph glyph-name="uni1EA0.flat" 
d="M427 263l-98 279l-98 -279h196zM519 0l-55 157h-270l-55 -157h-133v7l262 698h140l262 -698v-7h-151zM270 -201v117h134v-117h-134z" />
    <glyph glyph-name="uni1EA1" unicode="&#x1ea1;" horiz-adv-x="530" 
d="M237 82c52 0 86 22 109 52v109l-78 -12c-81 -12 -113 -32 -113 -79c0 -42 26 -70 82 -70zM364 0l-10 60c-27 -38 -72 -73 -150 -73c-103 0 -180 55 -180 159c0 111 85 149 215 168l107 15v2c0 85 -36 111 -117 111c-68 0 -111 -15 -158 -40l-6 2v103c42 26 102 42 183 42
c147 0 231 -59 231 -214v-335h-115zM189 -201v117h134v-117h-134z" />
    <glyph glyph-name="uni1EA1.alt" horiz-adv-x="596" 
d="M291 94c54 0 88 17 117 45v265c-30 27 -63 42 -114 42c-76 0 -135 -61 -135 -183c0 -119 61 -169 132 -169zM435 0l-14 66c-38 -49 -89 -79 -163 -79c-136 0 -233 98 -233 276c0 182 101 286 239 286c66 0 114 -25 150 -67l7 55h120v-537h-106zM231 -201v117h134v-117
h-134z" />
    <glyph glyph-name="uni1EA2" unicode="&#x1ea2;" 
d="M418 251l-89 224l-89 -224h178zM518 0l-59 147h-260l-58 -147h-135v7l300 706h63l301 -706v-7h-152zM239 926c23 13 52 21 98 21c77 0 126 -27 126 -86c0 -77 -90 -81 -90 -106v-1h-90v5c0 63 80 62 80 94c0 14 -13 23 -46 23c-28 0 -49 -6 -73 -18l-5 3v65z" />
    <glyph glyph-name="uni1EA2.flat" 
d="M427 263l-98 279l-98 -279h196zM519 0l-55 157h-270l-55 -157h-133v7l262 698h140l262 -698v-7h-151zM239 926c23 13 52 21 98 21c77 0 126 -27 126 -86c0 -77 -90 -81 -90 -106v-1h-90v5c0 63 80 62 80 94c0 14 -13 23 -46 23c-28 0 -49 -6 -73 -18l-5 3v65z" />
    <glyph glyph-name="uni1EA3" unicode="&#x1ea3;" horiz-adv-x="530" 
d="M237 82c52 0 86 22 109 52v109l-78 -12c-81 -12 -113 -32 -113 -79c0 -42 26 -70 82 -70zM364 0l-10 60c-27 -38 -72 -73 -150 -73c-103 0 -180 55 -180 159c0 111 85 149 215 168l107 15v2c0 85 -36 111 -117 111c-68 0 -111 -15 -158 -40l-6 2v103c42 26 102 42 183 42
c147 0 231 -59 231 -214v-335h-115zM158 781c22 11 51 21 97 21c77 0 126 -27 126 -86c0 -76 -91 -84 -91 -113v-2h-90v6c0 67 81 67 81 100c0 15 -13 24 -46 24c-28 0 -49 -7 -72 -18l-5 2v66z" />
    <glyph glyph-name="uni1EA3.alt" horiz-adv-x="596" 
d="M291 94c54 0 88 17 117 45v265c-30 27 -63 42 -114 42c-76 0 -135 -61 -135 -183c0 -119 61 -169 132 -169zM435 0l-14 66c-38 -49 -89 -79 -163 -79c-136 0 -233 98 -233 276c0 182 101 286 239 286c66 0 114 -25 150 -67l7 55h120v-537h-106zM200 781
c22 11 51 21 97 21c77 0 126 -27 126 -86c0 -76 -91 -84 -91 -113v-2h-90v6c0 67 81 67 81 100c0 15 -13 24 -46 24c-28 0 -49 -7 -72 -18l-5 2v66z" />
    <glyph glyph-name="uni1EA4" unicode="&#x1ea4;" 
d="M418 251l-89 224l-89 -224h178zM518 0l-59 147h-260l-58 -147h-135v7l300 706h63l301 -706v-7h-152zM556 872h-101l58 117h134zM337 836l-70 -76h-110l125 158h110l125 -158h-110z" />
    <glyph glyph-name="uni1EA4.flat" 
d="M427 263l-98 279l-98 -279h196zM519 0l-55 157h-270l-55 -157h-133v7l262 698h140l262 -698v-7h-151zM556 872h-101l58 117h134zM337 836l-70 -76h-110l125 158h110l125 -158h-110z" />
    <glyph glyph-name="uni1EA5" unicode="&#x1ea5;" horiz-adv-x="530" 
d="M237 82c52 0 86 22 109 52v109l-78 -12c-81 -12 -113 -32 -113 -79c0 -42 26 -70 82 -70zM364 0l-10 60c-27 -38 -72 -73 -150 -73c-103 0 -180 55 -180 159c0 111 85 149 215 168l107 15v2c0 85 -36 111 -117 111c-68 0 -111 -15 -158 -40l-6 2v103c42 26 102 42 183 42
c147 0 231 -59 231 -214v-335h-115zM475 722h-102l59 116h134zM256 681l-66 -78h-108l122 161h104l123 -161h-109z" />
    <glyph glyph-name="uni1EA5.alt" horiz-adv-x="596" 
d="M291 94c54 0 88 17 117 45v265c-30 27 -63 42 -114 42c-76 0 -135 -61 -135 -183c0 -119 61 -169 132 -169zM435 0l-14 66c-38 -49 -89 -79 -163 -79c-136 0 -233 98 -233 276c0 182 101 286 239 286c66 0 114 -25 150 -67l7 55h120v-537h-106zM517 722h-102l59 116h134z
M298 681l-66 -78h-108l122 161h104l123 -161h-109z" />
    <glyph glyph-name="uni1EA6" unicode="&#x1ea6;" 
d="M418 251l-89 224l-89 -224h178zM518 0l-59 147h-260l-58 -147h-135v7l300 706h63l301 -706v-7h-152zM497 872l-92 117h134l59 -117h-101zM337 836l-70 -76h-110l125 158h110l125 -158h-110z" />
    <glyph glyph-name="uni1EA6.flat" 
d="M427 263l-98 279l-98 -279h196zM519 0l-55 157h-270l-55 -157h-133v7l262 698h140l262 -698v-7h-151zM497 872l-92 117h134l59 -117h-101zM337 836l-70 -76h-110l125 158h110l125 -158h-110z" />
    <glyph glyph-name="uni1EA7" unicode="&#x1ea7;" horiz-adv-x="530" 
d="M237 82c52 0 86 22 109 52v109l-78 -12c-81 -12 -113 -32 -113 -79c0 -42 26 -70 82 -70zM364 0l-10 60c-27 -38 -72 -73 -150 -73c-103 0 -180 55 -180 159c0 111 85 149 215 168l107 15v2c0 85 -36 111 -117 111c-68 0 -111 -15 -158 -40l-6 2v103c42 26 102 42 183 42
c147 0 231 -59 231 -214v-335h-115zM402 722l-91 116h134l58 -116h-101zM256 681l-66 -78h-108l122 161h104l123 -161h-109z" />
    <glyph glyph-name="uni1EA7.alt" horiz-adv-x="596" 
d="M291 94c54 0 88 17 117 45v265c-30 27 -63 42 -114 42c-76 0 -135 -61 -135 -183c0 -119 61 -169 132 -169zM435 0l-14 66c-38 -49 -89 -79 -163 -79c-136 0 -233 98 -233 276c0 182 101 286 239 286c66 0 114 -25 150 -67l7 55h120v-537h-106zM444 722l-91 116h134
l58 -116h-101zM298 681l-66 -78h-108l122 161h104l123 -161h-109z" />
    <glyph glyph-name="uni1EA8" unicode="&#x1ea8;" 
d="M418 251l-89 224l-89 -224h178zM518 0l-59 147h-260l-58 -147h-135v7l300 706h63l301 -706v-7h-152zM433 1010c15 9 40 19 87 19c68 0 113 -24 113 -81c0 -61 -72 -72 -72 -89v-2h-89v4c0 45 64 54 64 79c0 14 -10 21 -40 21c-24 0 -43 -6 -59 -15l-4 3v61zM337 836
l-70 -76h-110l125 158h110l125 -158h-110z" />
    <glyph glyph-name="uni1EA8.flat" 
d="M427 263l-98 279l-98 -279h196zM519 0l-55 157h-270l-55 -157h-133v7l262 698h140l262 -698v-7h-151zM433 1010c15 9 40 19 87 19c68 0 113 -24 113 -81c0 -61 -72 -72 -72 -89v-2h-89v4c0 45 64 54 64 79c0 14 -10 21 -40 21c-24 0 -43 -6 -59 -15l-4 3v61zM337 836
l-70 -76h-110l125 158h110l125 -158h-110z" />
    <glyph glyph-name="uni1EA9" unicode="&#x1ea9;" horiz-adv-x="530" 
d="M237 82c52 0 86 22 109 52v109l-78 -12c-81 -12 -113 -32 -113 -79c0 -42 26 -70 82 -70zM364 0l-10 60c-27 -38 -72 -73 -150 -73c-103 0 -180 55 -180 159c0 111 85 149 215 168l107 15v2c0 85 -36 111 -117 111c-68 0 -111 -15 -158 -40l-6 2v103c42 26 102 42 183 42
c147 0 231 -59 231 -214v-335h-115zM345 859c16 9 41 19 87 19c69 0 113 -24 113 -81c0 -61 -71 -71 -71 -89v-1h-89v3c0 45 64 55 64 79c0 14 -11 21 -40 21c-24 0 -43 -6 -59 -15l-5 3v61zM256 681l-66 -78h-108l122 161h104l123 -161h-109z" />
    <glyph glyph-name="uni1EA9.alt" horiz-adv-x="596" 
d="M291 94c54 0 88 17 117 45v265c-30 27 -63 42 -114 42c-76 0 -135 -61 -135 -183c0 -119 61 -169 132 -169zM435 0l-14 66c-38 -49 -89 -79 -163 -79c-136 0 -233 98 -233 276c0 182 101 286 239 286c66 0 114 -25 150 -67l7 55h120v-537h-106zM387 859c16 9 41 19 87 19
c69 0 113 -24 113 -81c0 -61 -71 -71 -71 -89v-1h-89v3c0 45 64 55 64 79c0 14 -11 21 -40 21c-24 0 -43 -6 -59 -15l-5 3v61zM298 681l-66 -78h-108l122 161h104l123 -161h-109z" />
    <glyph glyph-name="uni1EAA" unicode="&#x1eaa;" 
d="M418 251l-89 224l-89 -224h178zM518 0l-59 147h-260l-58 -147h-135v7l300 706h63l301 -706v-7h-152zM403 1014c28 0 50 12 75 40l7 -3l24 -77c-18 -27 -56 -55 -101 -55c-66 0 -96 33 -136 33c-34 0 -56 -11 -81 -39l-6 3l-24 79c20 28 60 51 103 51c63 0 92 -32 139 -32
zM337 809l-70 -49h-110l124 131h112l124 -131h-110z" />
    <glyph glyph-name="uni1EAA.flat" 
d="M427 263l-98 279l-98 -279h196zM519 0l-55 157h-270l-55 -157h-133v7l262 698h140l262 -698v-7h-151zM403 1014c28 0 50 12 75 40l7 -3l24 -77c-18 -27 -56 -55 -101 -55c-66 0 -96 33 -136 33c-34 0 -56 -11 -81 -39l-6 3l-24 79c20 28 60 51 103 51
c63 0 92 -32 139 -32zM337 809l-70 -49h-110l124 131h112l124 -131h-110z" />
    <glyph glyph-name="uni1EAB" unicode="&#x1eab;" horiz-adv-x="530" 
d="M237 82c52 0 86 22 109 52v109l-78 -12c-81 -12 -113 -32 -113 -79c0 -42 26 -70 82 -70zM364 0l-10 60c-27 -38 -72 -73 -150 -73c-103 0 -180 55 -180 159c0 111 85 149 215 168l107 15v2c0 85 -36 111 -117 111c-68 0 -111 -15 -158 -40l-6 2v103c42 26 102 42 183 42
c147 0 231 -59 231 -214v-335h-115zM323 896c28 0 48 12 72 39l7 -3l23 -77c-17 -27 -53 -54 -96 -54c-63 0 -92 31 -130 31c-33 0 -52 -11 -77 -39l-6 3l-23 79c19 28 56 51 97 51c61 0 89 -30 133 -30zM256 681l-66 -78h-108l122 161h104l123 -161h-109z" />
    <glyph glyph-name="uni1EAB.alt" horiz-adv-x="596" 
d="M291 94c54 0 88 17 117 45v265c-30 27 -63 42 -114 42c-76 0 -135 -61 -135 -183c0 -119 61 -169 132 -169zM435 0l-14 66c-38 -49 -89 -79 -163 -79c-136 0 -233 98 -233 276c0 182 101 286 239 286c66 0 114 -25 150 -67l7 55h120v-537h-106zM365 896c28 0 48 12 72 39
l7 -3l23 -77c-17 -27 -53 -54 -96 -54c-63 0 -92 31 -130 31c-33 0 -52 -11 -77 -39l-6 3l-23 79c19 28 56 51 97 51c61 0 89 -30 133 -30zM298 681l-66 -78h-108l122 161h104l123 -161h-109z" />
    <glyph glyph-name="uni1EAC" unicode="&#x1eac;" 
d="M418 251l-89 224l-89 -224h178zM518 0l-59 147h-260l-58 -147h-135v7l300 706h63l301 -706v-7h-152zM337 836l-70 -76h-110l125 158h110l125 -158h-110zM270 -201v117h134v-117h-134z" />
    <glyph glyph-name="uni1EAC.flat" 
d="M427 263l-98 279l-98 -279h196zM519 0l-55 157h-270l-55 -157h-133v7l262 698h140l262 -698v-7h-151zM337 836l-70 -76h-110l125 158h110l125 -158h-110zM270 -201v117h134v-117h-134z" />
    <glyph glyph-name="uni1EAD" unicode="&#x1ead;" horiz-adv-x="530" 
d="M364 0l-10 60c-27 -38 -72 -73 -150 -73c-103 0 -180 55 -180 159c0 111 85 149 215 168l107 15v2c0 85 -36 111 -117 111c-68 0 -111 -15 -158 -40l-6 2v103c42 26 102 42 183 42c147 0 231 -59 231 -214v-335h-115zM256 681l-66 -78h-108l122 161h104l123 -161h-109z
M237 82c52 0 86 22 109 52v109l-78 -12c-81 -12 -113 -32 -113 -79c0 -42 26 -70 82 -70zM189 -201v117h134v-117h-134z" />
    <glyph glyph-name="uni1EAD.alt" horiz-adv-x="596" 
d="M291 94c54 0 88 17 117 45v265c-30 27 -63 42 -114 42c-76 0 -135 -61 -135 -183c0 -119 61 -169 132 -169zM435 0l-14 66c-38 -49 -89 -79 -163 -79c-136 0 -233 98 -233 276c0 182 101 286 239 286c66 0 114 -25 150 -67l7 55h120v-537h-106zM298 681l-66 -78h-108
l122 161h104l123 -161h-109z" />
    <glyph glyph-name="uni1EAE" unicode="&#x1eae;" 
d="M418 251l-89 224l-89 -224h178zM518 0l-59 147h-260l-58 -147h-135v7l300 706h63l301 -706v-7h-152zM385 918h-107l65 105h139zM176 903c7 -93 71 -151 161 -151s154 58 161 151h-93c-8 -41 -31 -62 -68 -62s-61 20 -68 62h-93z" />
    <glyph glyph-name="uni1EAE.flat" 
d="M427 263l-98 279l-98 -279h196zM519 0l-55 157h-270l-55 -157h-133v7l262 698h140l262 -698v-7h-151zM385 918h-107l65 105h139zM176 903c7 -93 71 -151 161 -151s154 58 161 151h-93c-8 -41 -31 -62 -68 -62s-61 20 -68 62h-93z" />
    <glyph glyph-name="uni1EAF" unicode="&#x1eaf;" horiz-adv-x="530" 
d="M237 82c52 0 86 22 109 52v109l-78 -12c-81 -12 -113 -32 -113 -79c0 -42 26 -70 82 -70zM364 0l-10 60c-27 -38 -72 -73 -150 -73c-103 0 -180 55 -180 159c0 111 85 149 215 168l107 15v2c0 85 -36 111 -117 111c-68 0 -111 -15 -158 -40l-6 2v103c42 26 102 42 183 42
c147 0 231 -59 231 -214v-335h-115zM300 783h-106l67 116h140zM256 606c-88 0 -153 59 -160 152h91c8 -42 31 -63 69 -63s60 22 68 63h91c-7 -93 -71 -152 -159 -152z" />
    <glyph glyph-name="uni1EAF.alt" horiz-adv-x="596" 
d="M291 94c54 0 88 17 117 45v265c-30 27 -63 42 -114 42c-76 0 -135 -61 -135 -183c0 -119 61 -169 132 -169zM435 0l-14 66c-38 -49 -89 -79 -163 -79c-136 0 -233 98 -233 276c0 182 101 286 239 286c66 0 114 -25 150 -67l7 55h120v-537h-106zM342 783h-106l67 116h140z
M298 606c-88 0 -153 59 -160 152h91c8 -42 31 -63 69 -63s60 22 68 63h91c-7 -93 -71 -152 -159 -152z" />
    <glyph glyph-name="uni1EB0" unicode="&#x1eb0;" 
d="M418 251l-89 224l-89 -224h178zM518 0l-59 147h-260l-58 -147h-135v7l300 706h63l301 -706v-7h-152zM288 918l-97 105h139l64 -105h-106zM337 752c-90 0 -154 58 -161 151h93c7 -42 31 -62 68 -62s60 21 68 62h93c-7 -93 -71 -151 -161 -151z" />
    <glyph glyph-name="uni1EB0.flat" 
d="M427 263l-98 279l-98 -279h196zM519 0l-55 157h-270l-55 -157h-133v7l262 698h140l262 -698v-7h-151zM288 918l-97 105h139l64 -105h-106zM337 752c-90 0 -154 58 -161 151h93c7 -42 31 -62 68 -62s60 21 68 62h93c-7 -93 -71 -151 -161 -151z" />
    <glyph glyph-name="uni1EB1" unicode="&#x1eb1;" horiz-adv-x="530" 
d="M237 82c52 0 86 22 109 52v109l-78 -12c-81 -12 -113 -32 -113 -79c0 -42 26 -70 82 -70zM364 0l-10 60c-27 -38 -72 -73 -150 -73c-103 0 -180 55 -180 159c0 111 85 149 215 168l107 15v2c0 85 -36 111 -117 111c-68 0 -111 -15 -158 -40l-6 2v103c42 26 102 42 183 42
c147 0 231 -59 231 -214v-335h-115zM212 783l-101 116h140l67 -116h-106zM256 606c-88 0 -153 59 -160 152h91c8 -42 31 -63 69 -63s60 22 68 63h91c-7 -93 -71 -152 -159 -152z" />
    <glyph glyph-name="uni1EB1.alt" horiz-adv-x="596" 
d="M291 94c54 0 88 17 117 45v265c-30 27 -63 42 -114 42c-76 0 -135 -61 -135 -183c0 -119 61 -169 132 -169zM435 0l-14 66c-38 -49 -89 -79 -163 -79c-136 0 -233 98 -233 276c0 182 101 286 239 286c66 0 114 -25 150 -67l7 55h120v-537h-106zM254 783l-101 116h140
l67 -116h-106zM298 606c-88 0 -153 59 -160 152h91c8 -42 31 -63 69 -63s60 22 68 63h91c-7 -93 -71 -152 -159 -152z" />
    <glyph glyph-name="uni1EB2" unicode="&#x1eb2;" 
d="M418 251l-89 224l-89 -224h178zM518 0l-59 147h-260l-58 -147h-135v7l300 706h63l301 -706v-7h-152zM246 1059c16 8 47 18 93 18c76 0 128 -24 128 -76c0 -65 -91 -73 -91 -86v-2h-92v4c0 44 79 51 79 74c0 12 -11 18 -44 18c-28 0 -51 -7 -68 -15l-5 2v63zM176 903
c7 -93 71 -151 161 -151s154 58 161 151h-93c-8 -41 -31 -62 -68 -62s-61 20 -68 62h-93z" />
    <glyph glyph-name="uni1EB2.flat" 
d="M427 263l-98 279l-98 -279h196zM519 0l-55 157h-270l-55 -157h-133v7l262 698h140l262 -698v-7h-151zM246 1059c16 8 47 18 93 18c76 0 128 -24 128 -76c0 -65 -91 -73 -91 -86v-2h-92v4c0 44 79 51 79 74c0 12 -11 18 -44 18c-28 0 -51 -7 -68 -15l-5 2v63zM176 903
c7 -93 71 -151 161 -151s154 58 161 151h-93c-8 -41 -31 -62 -68 -62s-61 20 -68 62h-93z" />
    <glyph glyph-name="uni1EB3" unicode="&#x1eb3;" horiz-adv-x="530" 
d="M237 82c52 0 86 22 109 52v109l-78 -12c-81 -12 -113 -32 -113 -79c0 -42 26 -70 82 -70zM364 0l-10 60c-27 -38 -72 -73 -150 -73c-103 0 -180 55 -180 159c0 111 85 149 215 168l107 15v2c0 85 -36 111 -117 111c-68 0 -111 -15 -158 -40l-6 2v103c42 26 102 42 183 42
c147 0 231 -59 231 -214v-335h-115zM165 924c16 8 47 18 93 18c76 0 126 -25 126 -76c0 -65 -89 -75 -89 -91v-1h-92v3c0 50 80 53 80 77c0 12 -12 19 -45 19c-28 0 -51 -7 -68 -15l-5 2v64zM256 606c-88 0 -153 59 -160 152h91c8 -42 31 -63 69 -63s60 22 68 63h91
c-7 -93 -71 -152 -159 -152z" />
    <glyph glyph-name="uni1EB3.alt" horiz-adv-x="596" 
d="M291 94c54 0 88 17 117 45v265c-30 27 -63 42 -114 42c-76 0 -135 -61 -135 -183c0 -119 61 -169 132 -169zM435 0l-14 66c-38 -49 -89 -79 -163 -79c-136 0 -233 98 -233 276c0 182 101 286 239 286c66 0 114 -25 150 -67l7 55h120v-537h-106zM207 924c16 8 47 18 93 18
c76 0 126 -25 126 -76c0 -65 -89 -75 -89 -91v-1h-92v3c0 50 80 53 80 77c0 12 -12 19 -45 19c-28 0 -51 -7 -68 -15l-5 2v64zM298 606c-88 0 -153 59 -160 152h91c8 -42 31 -63 69 -63s60 22 68 63h91c-7 -93 -71 -152 -159 -152z" />
    <glyph glyph-name="uni1EB4" unicode="&#x1eb4;" 
d="M418 251l-89 224l-89 -224h178zM518 0l-59 147h-260l-58 -147h-135v7l300 706h63l301 -706v-7h-152zM402 1015c28 0 51 12 75 40l7 -3l24 -77c-17 -27 -56 -54 -101 -54c-65 0 -95 32 -136 32c-34 0 -56 -11 -81 -39l-6 3l-23 79c19 28 59 52 102 52c63 0 92 -33 139 -33
zM337 752c-90 0 -154 58 -161 135h93c6 -28 31 -46 68 -46s61 19 68 46h93c-7 -77 -71 -135 -161 -135z" />
    <glyph glyph-name="uni1EB4.flat" 
d="M427 263l-98 279l-98 -279h196zM519 0l-55 157h-270l-55 -157h-133v7l262 698h140l262 -698v-7h-151zM402 1015c28 0 51 12 75 40l7 -3l24 -77c-17 -27 -56 -54 -101 -54c-65 0 -95 32 -136 32c-34 0 -56 -11 -81 -39l-6 3l-23 79c19 28 59 52 102 52
c63 0 92 -33 139 -33zM337 752c-90 0 -154 58 -161 135h93c6 -28 31 -46 68 -46s61 19 68 46h93c-7 -77 -71 -135 -161 -135z" />
    <glyph glyph-name="uni1EB5" unicode="&#x1eb5;" horiz-adv-x="530" 
d="M237 82c52 0 86 22 109 52v109l-78 -12c-81 -12 -113 -32 -113 -79c0 -42 26 -70 82 -70zM364 0l-10 60c-27 -38 -72 -73 -150 -73c-103 0 -180 55 -180 159c0 111 85 149 215 168l107 15v2c0 85 -36 111 -117 111c-68 0 -111 -15 -158 -40l-6 2v103c42 26 102 42 183 42
c147 0 231 -59 231 -214v-335h-115zM321 894c28 0 48 12 72 40l7 -3l23 -77c-17 -27 -53 -54 -96 -54c-63 0 -92 31 -130 31c-33 0 -52 -11 -77 -39l-6 3l-23 79c19 28 56 51 97 51c61 0 89 -31 133 -31zM256 606c-88 0 -153 59 -160 152h91c8 -42 31 -63 69 -63
s60 22 68 63h91c-7 -93 -71 -152 -159 -152z" />
    <glyph glyph-name="uni1EB5.alt" horiz-adv-x="596" 
d="M291 94c54 0 88 17 117 45v265c-30 27 -63 42 -114 42c-76 0 -135 -61 -135 -183c0 -119 61 -169 132 -169zM435 0l-14 66c-38 -49 -89 -79 -163 -79c-136 0 -233 98 -233 276c0 182 101 286 239 286c66 0 114 -25 150 -67l7 55h120v-537h-106zM363 894c28 0 48 12 72 40
l7 -3l23 -77c-17 -27 -53 -54 -96 -54c-63 0 -92 31 -130 31c-33 0 -52 -11 -77 -39l-6 3l-23 79c19 28 56 51 97 51c61 0 89 -31 133 -31zM298 606c-88 0 -153 59 -160 152h91c8 -42 31 -63 69 -63s60 22 68 63h91c-7 -93 -71 -152 -159 -152z" />
    <glyph glyph-name="uni1EB6" unicode="&#x1eb6;" 
d="M418 251l-89 224l-89 -224h178zM518 0l-59 147h-260l-58 -147h-135v7l300 706h63l301 -706v-7h-152zM338 752c-90 0 -154 58 -161 151h93c7 -42 31 -62 68 -62s60 21 68 62h93c-7 -93 -71 -151 -161 -151zM271 -201v117h134v-117h-134z" />
    <glyph glyph-name="uni1EB6.flat" 
d="M427 263l-98 279l-98 -279h196zM519 0l-55 157h-270l-55 -157h-133v7l262 698h140l262 -698v-7h-151zM338 752c-90 0 -154 58 -161 151h93c7 -42 31 -62 68 -62s60 21 68 62h93c-7 -93 -71 -151 -161 -151zM271 -201v117h134v-117h-134z" />
    <glyph glyph-name="uni1EB7" unicode="&#x1eb7;" horiz-adv-x="530" 
d="M364 0l-10 60c-27 -38 -72 -73 -150 -73c-103 0 -180 55 -180 159c0 111 85 149 215 168l107 15v2c0 85 -36 111 -117 111c-68 0 -111 -15 -158 -40l-6 2v103c42 26 102 42 183 42c147 0 231 -59 231 -214v-335h-115zM259 606c-88 0 -153 59 -160 152h91
c8 -42 31 -63 69 -63s60 22 68 63h91c-7 -93 -71 -152 -159 -152zM237 82c52 0 86 22 109 52v109l-78 -12c-81 -12 -113 -32 -113 -79c0 -42 26 -70 82 -70zM192 -201v117h134v-117h-134z" />
    <glyph glyph-name="uni1EB7.alt" horiz-adv-x="596" 
d="M291 94c54 0 88 17 117 45v265c-30 27 -63 42 -114 42c-76 0 -135 -61 -135 -183c0 -119 61 -169 132 -169zM435 0l-14 66c-38 -49 -89 -79 -163 -79c-136 0 -233 98 -233 276c0 182 101 286 239 286c66 0 114 -25 150 -67l7 55h120v-537h-106zM299 606
c-88 0 -153 59 -160 152h91c8 -42 31 -63 69 -63s60 22 68 63h91c-7 -93 -71 -152 -159 -152zM231 -201v117h134v-117h-134z" />
    <glyph glyph-name="uni1EB8" unicode="&#x1eb8;" horiz-adv-x="540" 
d="M69 0v705h421v-112h-276v-175h238v-110h-238v-196h279v-112h-424zM215 -201v117h134v-117h-134z" />
    <glyph glyph-name="uni1EB9" unicode="&#x1eb9;" horiz-adv-x="545" 
d="M287 452c-68 0 -113 -39 -128 -119h234c-4 77 -39 119 -106 119zM507 30c-35 -20 -99 -43 -188 -43c-191 0 -294 108 -294 284c0 165 106 278 262 278c146 0 251 -89 232 -306h-364c9 -104 68 -151 174 -151c74 0 127 20 172 46l6 -3v-105zM214 -201v117h134v-117h-134z
" />
    <glyph glyph-name="uni1EBA" unicode="&#x1eba;" horiz-adv-x="540" 
d="M69 0v705h421v-112h-276v-175h238v-110h-238v-196h279v-112h-424zM184 926c23 13 52 21 98 21c77 0 126 -27 126 -86c0 -77 -90 -81 -90 -106v-1h-90v5c0 63 80 62 80 94c0 14 -13 23 -46 23c-28 0 -49 -6 -73 -18l-5 3v65z" />
    <glyph glyph-name="uni1EBB" unicode="&#x1ebb;" horiz-adv-x="545" 
d="M287 452c-68 0 -113 -39 -128 -119h234c-4 77 -39 119 -106 119zM507 30c-35 -20 -99 -43 -188 -43c-191 0 -294 108 -294 284c0 165 106 278 262 278c146 0 251 -89 232 -306h-364c9 -104 68 -151 174 -151c74 0 127 20 172 46l6 -3v-105zM183 781c22 11 51 21 97 21
c77 0 126 -27 126 -86c0 -76 -91 -84 -91 -113v-2h-90v6c0 67 81 67 81 100c0 15 -13 24 -46 24c-28 0 -49 -7 -72 -18l-5 2v66z" />
    <glyph glyph-name="uni1EBC" unicode="&#x1ebc;" horiz-adv-x="540" 
d="M69 0v705h421v-112h-276v-175h238v-110h-238v-196h279v-112h-424zM348 856c29 0 52 13 76 42l7 -2l12 -82c-17 -27 -55 -53 -101 -53c-67 0 -98 34 -140 34c-35 0 -57 -12 -82 -42l-6 3l-12 84c19 28 59 50 103 50c65 0 95 -34 143 -34z" />
    <glyph glyph-name="uni1EBD" unicode="&#x1ebd;" horiz-adv-x="545" 
d="M287 452c-68 0 -113 -39 -128 -119h234c-4 77 -39 119 -106 119zM507 30c-35 -20 -99 -43 -188 -43c-191 0 -294 108 -294 284c0 165 106 278 262 278c146 0 251 -89 232 -306h-364c9 -104 68 -151 174 -151c74 0 127 20 172 46l6 -3v-105zM340 718c28 0 50 13 74 42
l7 -2l12 -82c-17 -27 -54 -53 -99 -53c-66 0 -91 33 -132 33c-34 0 -54 -12 -79 -42l-6 3l-12 83c20 28 57 51 99 51c65 0 89 -33 136 -33z" />
    <glyph glyph-name="uni1EBE" unicode="&#x1ebe;" horiz-adv-x="540" 
d="M69 0v705h421v-112h-276v-175h238v-110h-238v-196h279v-112h-424zM501 872h-101l58 117h134zM282 836l-70 -76h-110l125 158h110l125 -158h-110z" />
    <glyph glyph-name="uni1EBF" unicode="&#x1ebf;" horiz-adv-x="545" 
d="M287 452c-68 0 -113 -39 -128 -119h234c-4 77 -39 119 -106 119zM507 30c-35 -20 -99 -43 -188 -43c-191 0 -294 108 -294 284c0 165 106 278 262 278c146 0 251 -89 232 -306h-364c9 -104 68 -151 174 -151c74 0 127 20 172 46l6 -3v-105zM500 722h-102l59 116h134z
M281 681l-66 -78h-108l122 161h104l123 -161h-109z" />
    <glyph glyph-name="uni1EC0" unicode="&#x1ec0;" horiz-adv-x="540" 
d="M69 0v705h421v-112h-276v-175h238v-110h-238v-196h279v-112h-424zM442 872l-92 117h134l59 -117h-101zM282 836l-70 -76h-110l125 158h110l125 -158h-110z" />
    <glyph glyph-name="uni1EC1" unicode="&#x1ec1;" horiz-adv-x="545" 
d="M287 452c-68 0 -113 -39 -128 -119h234c-4 77 -39 119 -106 119zM507 30c-35 -20 -99 -43 -188 -43c-191 0 -294 108 -294 284c0 165 106 278 262 278c146 0 251 -89 232 -306h-364c9 -104 68 -151 174 -151c74 0 127 20 172 46l6 -3v-105zM427 722l-91 116h134l58 -116
h-101zM281 681l-66 -78h-108l122 161h104l123 -161h-109z" />
    <glyph glyph-name="uni1EC2" unicode="&#x1ec2;" horiz-adv-x="540" 
d="M69 0v705h421v-112h-276v-175h238v-110h-238v-196h279v-112h-424zM378 1010c15 9 40 19 87 19c68 0 113 -24 113 -81c0 -61 -72 -72 -72 -89v-2h-89v4c0 45 64 54 64 79c0 14 -10 21 -40 21c-24 0 -43 -6 -59 -15l-4 3v61zM282 836l-70 -76h-110l125 158h110l125 -158
h-110z" />
    <glyph glyph-name="uni1EC3" unicode="&#x1ec3;" horiz-adv-x="545" 
d="M287 452c-68 0 -113 -39 -128 -119h234c-4 77 -39 119 -106 119zM507 30c-35 -20 -99 -43 -188 -43c-191 0 -294 108 -294 284c0 165 106 278 262 278c146 0 251 -89 232 -306h-364c9 -104 68 -151 174 -151c74 0 127 20 172 46l6 -3v-105zM370 859c16 9 41 19 87 19
c69 0 113 -24 113 -81c0 -61 -71 -71 -71 -89v-1h-89v3c0 45 64 55 64 79c0 14 -11 21 -40 21c-24 0 -43 -6 -59 -15l-5 3v61zM281 681l-66 -78h-108l122 161h104l123 -161h-109z" />
    <glyph glyph-name="uni1EC4" unicode="&#x1ec4;" horiz-adv-x="540" 
d="M69 0v705h421v-112h-276v-175h238v-110h-238v-196h279v-112h-424zM348 1014c28 0 50 12 75 40l7 -3l24 -77c-18 -27 -56 -55 -101 -55c-66 0 -96 33 -136 33c-34 0 -56 -11 -81 -39l-6 3l-24 79c20 28 60 51 103 51c63 0 92 -32 139 -32zM282 809l-70 -49h-110l124 131
h112l124 -131h-110z" />
    <glyph glyph-name="uni1EC5" unicode="&#x1ec5;" horiz-adv-x="545" 
d="M287 452c-68 0 -113 -39 -128 -119h234c-4 77 -39 119 -106 119zM507 30c-35 -20 -99 -43 -188 -43c-191 0 -294 108 -294 284c0 165 106 278 262 278c146 0 251 -89 232 -306h-364c9 -104 68 -151 174 -151c74 0 127 20 172 46l6 -3v-105zM348 896c28 0 48 12 72 39
l7 -3l23 -77c-17 -27 -53 -54 -96 -54c-63 0 -92 31 -130 31c-33 0 -52 -11 -77 -39l-6 3l-23 79c19 28 56 51 97 51c61 0 89 -30 133 -30zM281 681l-66 -78h-108l122 161h104l123 -161h-109z" />
    <glyph glyph-name="uni1EC6" unicode="&#x1ec6;" horiz-adv-x="540" 
d="M69 0v705h421v-112h-276v-175h238v-110h-238v-196h279v-112h-424zM282 836l-70 -76h-110l125 158h110l125 -158h-110zM215 -201v117h134v-117h-134z" />
    <glyph glyph-name="uni1EC7" unicode="&#x1ec7;" horiz-adv-x="545" 
d="M287 452c-68 0 -113 -39 -128 -119h234c-4 77 -39 119 -106 119zM507 30c-35 -20 -99 -43 -188 -43c-191 0 -294 108 -294 284c0 165 106 278 262 278c146 0 251 -89 232 -306h-364c9 -104 68 -151 174 -151c74 0 127 20 172 46l6 -3v-105zM281 681l-66 -78h-108l122 161
h104l123 -161h-109zM214 -201v117h134v-117h-134z" />
    <glyph glyph-name="uni1EC8" unicode="&#x1ec8;" horiz-adv-x="288" 
d="M71 0v705h147v-705h-147zM46 926c23 13 52 21 98 21c77 0 126 -27 126 -86c0 -77 -90 -81 -90 -106v-1h-90v5c0 63 80 62 80 94c0 14 -13 23 -46 23c-28 0 -49 -6 -73 -18l-5 3v65z" />
    <glyph glyph-name="uni1EC9" unicode="&#x1ec9;" horiz-adv-x="251" 
d="M59 0v537h133v-537h-133zM27 781c22 11 51 21 97 21c77 0 126 -27 126 -86c0 -76 -91 -84 -91 -113v-2h-90v6c0 67 81 67 81 100c0 15 -13 24 -46 24c-28 0 -49 -7 -72 -18l-5 2v66z" />
    <glyph glyph-name="uni1ECA" unicode="&#x1eca;" horiz-adv-x="288" 
d="M71 0v705h147v-705h-147zM78 -201v117h134v-117h-134z" />
    <glyph glyph-name="uni1ECB" unicode="&#x1ecb;" horiz-adv-x="249" 
d="M57 621v117h135v-117h-135zM58 0v537h133v-537h-133zM58 -201v117h134v-117h-134z" />
    <glyph glyph-name="uni1ECC" unicode="&#x1ecc;" horiz-adv-x="785" 
d="M393 -13c-216 0 -363 160 -363 368s147 363 363 363c215 0 362 -155 362 -363s-147 -368 -362 -368zM393 101c130 0 212 101 212 254s-84 249 -212 249s-212 -96 -212 -249s82 -254 212 -254zM325 -201v117h134v-117h-134z" />
    <glyph glyph-name="uni1ECD" unicode="&#x1ecd;" horiz-adv-x="612" 
d="M305 -13c-160 0 -280 110 -280 282c0 173 120 280 280 280c161 0 283 -107 283 -280c0 -172 -122 -282 -283 -282zM305 90c87 0 148 63 148 179c0 115 -61 178 -148 178c-85 0 -146 -63 -146 -178c0 -116 61 -179 146 -179zM239 -201v117h134v-117h-134z" />
    <glyph glyph-name="uni1ECE" unicode="&#x1ece;" horiz-adv-x="785" 
d="M393 -13c-216 0 -363 160 -363 368s147 363 363 363c215 0 362 -155 362 -363s-147 -368 -362 -368zM393 101c130 0 212 101 212 254s-84 249 -212 249s-212 -96 -212 -249s82 -254 212 -254zM294 926c23 13 52 21 98 21c77 0 126 -27 126 -86c0 -77 -90 -81 -90 -106v-1
h-90v5c0 63 80 62 80 94c0 14 -13 23 -46 23c-28 0 -49 -6 -73 -18l-5 3v65z" />
    <glyph glyph-name="uni1ECF" unicode="&#x1ecf;" horiz-adv-x="612" 
d="M305 -13c-160 0 -280 110 -280 282c0 173 120 280 280 280c161 0 283 -107 283 -280c0 -172 -122 -282 -283 -282zM305 90c87 0 148 63 148 179c0 115 -61 178 -148 178c-85 0 -146 -63 -146 -178c0 -116 61 -179 146 -179zM208 781c22 11 51 21 97 21
c77 0 126 -27 126 -86c0 -76 -91 -84 -91 -113v-2h-90v6c0 67 81 67 81 100c0 15 -13 24 -46 24c-28 0 -49 -7 -72 -18l-5 2v66z" />
    <glyph glyph-name="uni1ED0" unicode="&#x1ed0;" horiz-adv-x="785" 
d="M393 -13c-216 0 -363 160 -363 368s147 363 363 363c215 0 362 -155 362 -363s-147 -368 -362 -368zM393 101c130 0 212 101 212 254s-84 249 -212 249s-212 -96 -212 -249s82 -254 212 -254zM611 872h-101l58 117h134zM392 836l-70 -76h-110l125 158h110l125 -158h-110z
" />
    <glyph glyph-name="uni1ED1" unicode="&#x1ed1;" horiz-adv-x="612" 
d="M305 -13c-160 0 -280 110 -280 282c0 173 120 280 280 280c161 0 283 -107 283 -280c0 -172 -122 -282 -283 -282zM305 90c87 0 148 63 148 179c0 115 -61 178 -148 178c-85 0 -146 -63 -146 -178c0 -116 61 -179 146 -179zM525 722h-102l59 116h134zM306 681l-66 -78
h-108l122 161h104l123 -161h-109z" />
    <glyph glyph-name="uni1ED2" unicode="&#x1ed2;" horiz-adv-x="785" 
d="M393 -13c-216 0 -363 160 -363 368s147 363 363 363c215 0 362 -155 362 -363s-147 -368 -362 -368zM393 101c130 0 212 101 212 254s-84 249 -212 249s-212 -96 -212 -249s82 -254 212 -254zM552 872l-92 117h134l59 -117h-101zM392 836l-70 -76h-110l125 158h110
l125 -158h-110z" />
    <glyph glyph-name="uni1ED3" unicode="&#x1ed3;" horiz-adv-x="612" 
d="M305 -13c-160 0 -280 110 -280 282c0 173 120 280 280 280c161 0 283 -107 283 -280c0 -172 -122 -282 -283 -282zM305 90c87 0 148 63 148 179c0 115 -61 178 -148 178c-85 0 -146 -63 -146 -178c0 -116 61 -179 146 -179zM452 722l-91 116h134l58 -116h-101zM306 681
l-66 -78h-108l122 161h104l123 -161h-109z" />
    <glyph glyph-name="uni1ED4" unicode="&#x1ed4;" horiz-adv-x="785" 
d="M393 -13c-216 0 -363 160 -363 368s147 363 363 363c215 0 362 -155 362 -363s-147 -368 -362 -368zM393 101c130 0 212 101 212 254s-84 249 -212 249s-212 -96 -212 -249s82 -254 212 -254zM488 1010c15 9 40 19 87 19c68 0 113 -24 113 -81c0 -61 -72 -72 -72 -89v-2
h-89v4c0 45 64 54 64 79c0 14 -10 21 -40 21c-24 0 -43 -6 -59 -15l-4 3v61zM392 836l-70 -76h-110l125 158h110l125 -158h-110z" />
    <glyph glyph-name="uni1ED5" unicode="&#x1ed5;" horiz-adv-x="612" 
d="M305 -13c-160 0 -280 110 -280 282c0 173 120 280 280 280c161 0 283 -107 283 -280c0 -172 -122 -282 -283 -282zM305 90c87 0 148 63 148 179c0 115 -61 178 -148 178c-85 0 -146 -63 -146 -178c0 -116 61 -179 146 -179zM395 859c16 9 41 19 87 19
c69 0 113 -24 113 -81c0 -61 -71 -71 -71 -89v-1h-89v3c0 45 64 55 64 79c0 14 -11 21 -40 21c-24 0 -43 -6 -59 -15l-5 3v61zM306 681l-66 -78h-108l122 161h104l123 -161h-109z" />
    <glyph glyph-name="uni1ED6" unicode="&#x1ed6;" horiz-adv-x="785" 
d="M393 -13c-216 0 -363 160 -363 368s147 363 363 363c215 0 362 -155 362 -363s-147 -368 -362 -368zM393 101c130 0 212 101 212 254s-84 249 -212 249s-212 -96 -212 -249s82 -254 212 -254zM458 1014c28 0 50 12 75 40l7 -3l24 -77c-18 -27 -56 -55 -101 -55
c-66 0 -96 33 -136 33c-34 0 -56 -11 -81 -39l-6 3l-24 79c20 28 60 51 103 51c63 0 92 -32 139 -32zM392 809l-70 -49h-110l124 131h112l124 -131h-110z" />
    <glyph glyph-name="uni1ED7" unicode="&#x1ed7;" horiz-adv-x="612" 
d="M305 -13c-160 0 -280 110 -280 282c0 173 120 280 280 280c161 0 283 -107 283 -280c0 -172 -122 -282 -283 -282zM305 90c87 0 148 63 148 179c0 115 -61 178 -148 178c-85 0 -146 -63 -146 -178c0 -116 61 -179 146 -179zM373 896c28 0 48 12 72 39l7 -3l23 -77
c-17 -27 -53 -54 -96 -54c-63 0 -92 31 -130 31c-33 0 -52 -11 -77 -39l-6 3l-23 79c19 28 56 51 97 51c61 0 89 -30 133 -30zM306 681l-66 -78h-108l122 161h104l123 -161h-109z" />
    <glyph glyph-name="uni1ED8" unicode="&#x1ed8;" horiz-adv-x="785" 
d="M393 -13c-216 0 -363 160 -363 368s147 363 363 363c215 0 362 -155 362 -363s-147 -368 -362 -368zM393 101c130 0 212 101 212 254s-84 249 -212 249s-212 -96 -212 -249s82 -254 212 -254zM392 836l-70 -76h-110l125 158h110l125 -158h-110zM325 -201v117h134v-117
h-134z" />
    <glyph glyph-name="uni1ED9" unicode="&#x1ed9;" horiz-adv-x="612" 
d="M305 -13c-160 0 -280 110 -280 282c0 173 120 280 280 280c161 0 283 -107 283 -280c0 -172 -122 -282 -283 -282zM305 90c87 0 148 63 148 179c0 115 -61 178 -148 178c-85 0 -146 -63 -146 -178c0 -116 61 -179 146 -179zM306 681l-66 -78h-108l122 161h104l123 -161
h-109zM239 -201v117h134v-117h-134z" />
    <glyph glyph-name="uni1EDA" unicode="&#x1eda;" horiz-adv-x="800" 
d="M441 760h-110l84 150h142zM393 -13c-216 0 -363 160 -363 368s147 363 363 363c87 0 134 -27 197 -27c49 0 88 40 92 114h112c-2 -112 -60 -175 -137 -195c62 -62 98 -153 98 -255c0 -208 -147 -368 -362 -368zM393 101c130 0 212 101 212 254s-84 249 -212 249
s-212 -96 -212 -249s82 -254 212 -254z" />
    <glyph glyph-name="uni1EDB" unicode="&#x1edb;" horiz-adv-x="649" 
d="M350 603h-108l87 168h143zM305 -13c-160 0 -280 110 -280 282c0 173 120 280 280 280c66 0 96 -13 146 -12c61 0 96 31 100 116h105c-3 -122 -56 -182 -134 -198c42 -45 66 -109 66 -186c0 -172 -122 -282 -283 -282zM305 90c87 0 148 63 148 179c0 115 -61 178 -148 178
c-85 0 -146 -63 -146 -178c0 -116 61 -179 146 -179z" />
    <glyph glyph-name="uni1EDC" unicode="&#x1edc;" horiz-adv-x="800" 
d="M347 760l-116 150h142l83 -150h-109zM393 -13c-216 0 -363 160 -363 368s147 363 363 363c87 0 134 -27 197 -27c49 0 88 40 92 114h112c-2 -112 -60 -175 -137 -195c62 -62 98 -153 98 -255c0 -208 -147 -368 -362 -368zM393 101c130 0 212 101 212 254
s-84 249 -212 249s-212 -96 -212 -249s82 -254 212 -254z" />
    <glyph glyph-name="uni1EDD" unicode="&#x1edd;" horiz-adv-x="649" 
d="M267 603l-122 168h143l87 -168h-108zM305 -13c-160 0 -280 110 -280 282c0 173 120 280 280 280c66 0 96 -13 146 -12c61 0 96 31 100 116h105c-3 -122 -56 -182 -134 -198c42 -45 66 -109 66 -186c0 -172 -122 -282 -283 -282zM305 90c87 0 148 63 148 179
c0 115 -61 178 -148 178c-85 0 -146 -63 -146 -178c0 -116 61 -179 146 -179z" />
    <glyph glyph-name="uni1EDE" unicode="&#x1ede;" horiz-adv-x="800" 
d="M294 926c23 13 52 21 98 21c77 0 126 -27 126 -86c0 -77 -90 -81 -90 -106v-1h-90v5c0 63 80 62 80 94c0 14 -13 23 -46 23c-28 0 -49 -6 -73 -18l-5 3v65zM393 -13c-216 0 -363 160 -363 368s147 363 363 363c87 0 134 -27 197 -27c49 0 88 40 92 114h112
c-2 -112 -60 -175 -137 -195c62 -62 98 -153 98 -255c0 -208 -147 -368 -362 -368zM393 101c130 0 212 101 212 254s-84 249 -212 249s-212 -96 -212 -249s82 -254 212 -254z" />
    <glyph glyph-name="uni1EDF" unicode="&#x1edf;" horiz-adv-x="649" 
d="M208 781c22 11 51 21 97 21c77 0 126 -27 126 -86c0 -76 -91 -84 -91 -113v-2h-90v6c0 67 81 67 81 100c0 15 -13 24 -46 24c-28 0 -49 -7 -72 -18l-5 2v66zM305 -13c-160 0 -280 110 -280 282c0 173 120 280 280 280c66 0 96 -13 146 -12c61 0 96 31 100 116h105
c-3 -122 -56 -182 -134 -198c42 -45 66 -109 66 -186c0 -172 -122 -282 -283 -282zM305 90c87 0 148 63 148 179c0 115 -61 178 -148 178c-85 0 -146 -63 -146 -178c0 -116 61 -179 146 -179z" />
    <glyph glyph-name="uni1EE0" unicode="&#x1ee0;" horiz-adv-x="800" 
d="M463 856c29 0 52 13 76 42l7 -2l12 -82c-17 -27 -55 -53 -101 -53c-67 0 -98 34 -140 34c-35 0 -57 -12 -82 -42l-6 3l-12 84c19 28 59 50 103 50c65 0 95 -34 143 -34zM393 -13c-216 0 -363 160 -363 368s147 363 363 363c87 0 134 -27 197 -27c49 0 88 40 92 114h112
c-2 -112 -60 -175 -137 -195c62 -62 98 -153 98 -255c0 -208 -147 -368 -362 -368zM393 101c130 0 212 101 212 254s-84 249 -212 249s-212 -96 -212 -249s82 -254 212 -254z" />
    <glyph glyph-name="uni1EE1" unicode="&#x1ee1;" horiz-adv-x="649" 
d="M373 718c28 0 50 13 74 42l7 -2l12 -82c-17 -27 -54 -53 -99 -53c-66 0 -91 33 -132 33c-34 0 -54 -12 -79 -42l-6 3l-12 83c20 28 57 51 99 51c65 0 89 -33 136 -33zM305 -13c-160 0 -280 110 -280 282c0 173 120 280 280 280c66 0 96 -13 146 -12c61 0 96 31 100 116
h105c-3 -122 -56 -182 -134 -198c42 -45 66 -109 66 -186c0 -172 -122 -282 -283 -282zM305 90c87 0 148 63 148 179c0 115 -61 178 -148 178c-85 0 -146 -63 -146 -178c0 -116 61 -179 146 -179z" />
    <glyph glyph-name="uni1EE2" unicode="&#x1ee2;" horiz-adv-x="800" 
d="M325 -201v117h134v-117h-134zM393 -13c-216 0 -363 160 -363 368s147 363 363 363c87 0 134 -27 197 -27c49 0 88 40 92 114h112c-2 -112 -60 -175 -137 -195c62 -62 98 -153 98 -255c0 -208 -147 -368 -362 -368zM393 101c130 0 212 101 212 254s-84 249 -212 249
s-212 -96 -212 -249s82 -254 212 -254z" />
    <glyph glyph-name="uni1EE3" unicode="&#x1ee3;" horiz-adv-x="649" 
d="M239 -201v117h134v-117h-134zM305 -13c-160 0 -280 110 -280 282c0 173 120 280 280 280c66 0 96 -13 146 -12c61 0 96 31 100 116h105c-3 -122 -56 -182 -134 -198c42 -45 66 -109 66 -186c0 -172 -122 -282 -283 -282zM305 90c87 0 148 63 148 179
c0 115 -61 178 -148 178c-85 0 -146 -63 -146 -178c0 -116 61 -179 146 -179z" />
    <glyph glyph-name="uni1EE4" unicode="&#x1ee4;" horiz-adv-x="704" 
d="M353 -12c-181 0 -293 98 -293 282v435h147v-432c0 -109 56 -165 150 -165s153 56 153 165v432h134v-435c0 -178 -111 -282 -291 -282zM287 -201v117h134v-117h-134z" />
    <glyph glyph-name="uni1EE5" unicode="&#x1ee5;" horiz-adv-x="580" 
d="M408 0l-9 60c-40 -39 -93 -73 -169 -73c-108 0 -180 61 -180 182v368h133v-345c0 -75 42 -97 93 -97c45 0 81 11 116 37v405h133v-537h-117zM222 -201v117h134v-117h-134z" />
    <glyph glyph-name="uni1EE6" unicode="&#x1ee6;" horiz-adv-x="704" 
d="M353 -12c-181 0 -293 98 -293 282v435h147v-432c0 -109 56 -165 150 -165s153 56 153 165v432h134v-435c0 -178 -111 -282 -291 -282zM256 926c23 13 52 21 98 21c77 0 126 -27 126 -86c0 -77 -90 -81 -90 -106v-1h-90v5c0 63 80 62 80 94c0 14 -13 23 -46 23
c-28 0 -49 -6 -73 -18l-5 3v65z" />
    <glyph glyph-name="uni1EE7" unicode="&#x1ee7;" horiz-adv-x="580" 
d="M408 0l-9 60c-40 -39 -93 -73 -169 -73c-108 0 -180 61 -180 182v368h133v-345c0 -75 42 -97 93 -97c45 0 81 11 116 37v405h133v-537h-117zM191 781c22 11 51 21 97 21c77 0 126 -27 126 -86c0 -76 -91 -84 -91 -113v-2h-90v6c0 67 81 67 81 100c0 15 -13 24 -46 24
c-28 0 -49 -7 -72 -18l-5 2v66z" />
    <glyph glyph-name="uni1EE8" unicode="&#x1ee8;" horiz-adv-x="750" 
d="M403 760h-110l84 150h142zM353 -12c-181 0 -293 98 -293 282v435h147v-432c0 -109 56 -165 150 -165s153 56 153 165v432h56c73 0 108 41 112 116h112c-3 -117 -63 -182 -146 -200v-351c0 -178 -111 -282 -291 -282z" />
    <glyph glyph-name="uni1EE9" unicode="&#x1ee9;" horiz-adv-x="645" 
d="M333 603h-108l87 168h143zM408 0l-9 60c-40 -39 -93 -73 -169 -73c-108 0 -180 61 -180 182v368h133v-345c0 -75 42 -97 93 -97c45 0 81 11 116 37v405h64c65 0 97 32 101 116h105c-3 -123 -56 -184 -137 -199v-454h-117z" />
    <glyph glyph-name="uni1EEA" unicode="&#x1eea;" horiz-adv-x="750" 
d="M310 760l-116 150h142l83 -150h-109zM353 -12c-181 0 -293 98 -293 282v435h147v-432c0 -109 56 -165 150 -165s153 56 153 165v432h56c73 0 108 41 112 116h112c-3 -117 -63 -182 -146 -200v-351c0 -178 -111 -282 -291 -282z" />
    <glyph glyph-name="uni1EEB" unicode="&#x1eeb;" horiz-adv-x="645" 
d="M249 603l-122 168h143l87 -168h-108zM408 0l-9 60c-40 -39 -93 -73 -169 -73c-108 0 -180 61 -180 182v368h133v-345c0 -75 42 -97 93 -97c45 0 81 11 116 37v405h64c65 0 97 32 101 116h105c-3 -123 -56 -184 -137 -199v-454h-117z" />
    <glyph glyph-name="uni1EEC" unicode="&#x1eec;" horiz-adv-x="750" 
d="M256 926c23 13 52 21 98 21c77 0 126 -27 126 -86c0 -77 -90 -81 -90 -106v-1h-90v5c0 63 80 62 80 94c0 14 -13 23 -46 23c-28 0 -49 -6 -73 -18l-5 3v65zM353 -12c-181 0 -293 98 -293 282v435h147v-432c0 -109 56 -165 150 -165s153 56 153 165v432h56
c73 0 108 41 112 116h112c-3 -117 -63 -182 -146 -200v-351c0 -178 -111 -282 -291 -282z" />
    <glyph glyph-name="uni1EED" unicode="&#x1eed;" horiz-adv-x="645" 
d="M191 781c22 11 51 21 97 21c77 0 126 -27 126 -86c0 -76 -91 -84 -91 -113v-2h-90v6c0 67 81 67 81 100c0 15 -13 24 -46 24c-28 0 -49 -7 -72 -18l-5 2v66zM408 0l-9 60c-40 -39 -93 -73 -169 -73c-108 0 -180 61 -180 182v368h133v-345c0 -75 42 -97 93 -97
c45 0 81 11 116 37v405h64c65 0 97 32 101 116h105c-3 -123 -56 -184 -137 -199v-454h-117z" />
    <glyph glyph-name="uni1EEE" unicode="&#x1eee;" horiz-adv-x="750" 
d="M424 856c29 0 52 13 76 42l7 -2l12 -82c-17 -27 -55 -53 -101 -53c-67 0 -98 34 -140 34c-35 0 -57 -12 -82 -42l-6 3l-12 84c19 28 59 50 103 50c65 0 95 -34 143 -34zM353 -12c-181 0 -293 98 -293 282v435h147v-432c0 -109 56 -165 150 -165s153 56 153 165v432h56
c73 0 108 41 112 116h112c-3 -117 -63 -182 -146 -200v-351c0 -178 -111 -282 -291 -282z" />
    <glyph glyph-name="uni1EEF" unicode="&#x1eef;" horiz-adv-x="645" 
d="M356 718c28 0 50 13 74 42l7 -2l12 -82c-17 -27 -54 -53 -99 -53c-66 0 -91 33 -132 33c-34 0 -54 -12 -79 -42l-6 3l-12 83c20 28 57 51 99 51c65 0 89 -33 136 -33zM408 0l-9 60c-40 -39 -93 -73 -169 -73c-108 0 -180 61 -180 182v368h133v-345c0 -75 42 -97 93 -97
c45 0 81 11 116 37v405h64c65 0 97 32 101 116h105c-3 -123 -56 -184 -137 -199v-454h-117z" />
    <glyph glyph-name="uni1EF0" unicode="&#x1ef0;" horiz-adv-x="750" 
d="M287 -201v117h134v-117h-134zM353 -12c-181 0 -293 98 -293 282v435h147v-432c0 -109 56 -165 150 -165s153 56 153 165v432h56c73 0 108 41 112 116h112c-3 -117 -63 -182 -146 -200v-351c0 -178 -111 -282 -291 -282z" />
    <glyph glyph-name="uni1EF1" unicode="&#x1ef1;" horiz-adv-x="645" 
d="M222 -201v117h134v-117h-134zM408 0l-9 60c-40 -39 -93 -73 -169 -73c-108 0 -180 61 -180 182v368h133v-345c0 -75 42 -97 93 -97c45 0 81 11 116 37v405h64c65 0 97 32 101 116h105c-3 -123 -56 -184 -137 -199v-454h-117z" />
    <glyph glyph-name="uni1EF4" unicode="&#x1ef4;" horiz-adv-x="608" 
d="M379 0h-147v284l-226 414v7h152l154 -304l154 304h135v-7l-222 -408v-290zM244 -201v117h134v-117h-134z" />
    <glyph glyph-name="uni1EF5" unicode="&#x1ef5;" horiz-adv-x="540" 
d="M66 -214v111c68 8 101 32 119 78l20 50l-199 505v7h141l131 -358l128 358h127v-7l-217 -577c-43 -115 -109 -158 -250 -167zM348 -201v117h134v-117h-134z" />
    <glyph glyph-name="uni1EF5.alt" horiz-adv-x="540" 
d="M255 -201h-136v6l87 222l-200 503v7h142l131 -358l128 358h126v-7zM354 -201v117h134v-117h-134z" />
    <glyph glyph-name="uni1EF5.alt1" horiz-adv-x="580" 
d="M270 -215c-81 0 -150 17 -195 42v111l5 2c46 -27 104 -46 171 -46c105 0 142 41 142 116v49c-39 -37 -91 -67 -163 -67c-108 0 -180 61 -180 181v364h133v-340c0 -75 42 -98 93 -98c45 0 82 12 117 37v401h133v-526c0 -167 -108 -226 -256 -226zM547 -201v117h134v-117
h-134z" />
    <glyph glyph-name="uni1EF6" unicode="&#x1ef6;" horiz-adv-x="608" 
d="M379 0h-147v284l-226 414v7h152l154 -304l154 304h135v-7l-222 -408v-290zM213 926c23 13 52 21 98 21c77 0 126 -27 126 -86c0 -77 -90 -81 -90 -106v-1h-90v5c0 63 80 62 80 94c0 14 -13 23 -46 23c-28 0 -49 -6 -73 -18l-5 3v65z" />
    <glyph glyph-name="uni1EF7" unicode="&#x1ef7;" horiz-adv-x="540" 
d="M66 -214v111c68 8 101 32 119 78l20 50l-199 505v7h141l131 -358l128 358h127v-7l-217 -577c-43 -115 -109 -158 -250 -167zM180 781c22 11 51 21 97 21c77 0 126 -27 126 -86c0 -76 -91 -84 -91 -113v-2h-90v6c0 67 81 67 81 100c0 15 -13 24 -46 24
c-28 0 -49 -7 -72 -18l-5 2v66z" />
    <glyph glyph-name="uni1EF7.alt" horiz-adv-x="540" 
d="M255 -201h-136v6l87 222l-200 503v7h142l131 -358l128 358h126v-7zM180 781c22 11 51 21 97 21c77 0 126 -27 126 -86c0 -76 -91 -84 -91 -113v-2h-90v6c0 67 81 67 81 100c0 15 -13 24 -46 24c-28 0 -49 -7 -72 -18l-5 2v66z" />
    <glyph glyph-name="uni1EF7.alt1" horiz-adv-x="580" 
d="M270 -215c-81 0 -150 17 -195 42v111l5 2c46 -27 104 -46 171 -46c105 0 142 41 142 116v49c-39 -37 -91 -67 -163 -67c-108 0 -180 61 -180 181v364h133v-340c0 -75 42 -98 93 -98c45 0 82 12 117 37v401h133v-526c0 -167 -108 -226 -256 -226zM192 781
c22 11 51 21 97 21c77 0 126 -27 126 -86c0 -76 -91 -84 -91 -113v-2h-90v6c0 67 81 67 81 100c0 15 -13 24 -46 24c-28 0 -49 -7 -72 -18l-5 2v66z" />
    <glyph glyph-name="uni1EF8" unicode="&#x1ef8;" horiz-adv-x="608" 
d="M379 0h-147v284l-226 414v7h152l154 -304l154 304h135v-7l-222 -408v-290zM377 856c29 0 52 13 76 42l7 -2l12 -82c-17 -27 -55 -53 -101 -53c-67 0 -98 34 -140 34c-35 0 -57 -12 -82 -42l-6 3l-12 84c19 28 59 50 103 50c65 0 95 -34 143 -34z" />
    <glyph glyph-name="uni1EF9" unicode="&#x1ef9;" horiz-adv-x="540" 
d="M66 -214v111c68 8 101 32 119 78l20 50l-199 505v7h141l131 -358l128 358h127v-7l-217 -577c-43 -115 -109 -158 -250 -167zM337 718c28 0 50 13 74 42l7 -2l12 -82c-17 -27 -54 -53 -99 -53c-66 0 -91 33 -132 33c-34 0 -54 -12 -79 -42l-6 3l-12 83c20 28 57 51 99 51
c65 0 89 -33 136 -33z" />
    <glyph glyph-name="uni1EF9.alt" horiz-adv-x="540" 
d="M255 -201h-136v6l87 222l-200 503v7h142l131 -358l128 358h126v-7zM337 718c28 0 50 13 74 42l7 -2l12 -82c-17 -27 -54 -53 -99 -53c-66 0 -91 33 -132 33c-34 0 -54 -12 -79 -42l-6 3l-12 83c20 28 57 51 99 51c65 0 89 -33 136 -33z" />
    <glyph glyph-name="uni1EF9.alt1" horiz-adv-x="580" 
d="M270 -215c-81 0 -150 17 -195 42v111l5 2c46 -27 104 -46 171 -46c105 0 142 41 142 116v49c-39 -37 -91 -67 -163 -67c-108 0 -180 61 -180 181v364h133v-340c0 -75 42 -98 93 -98c45 0 82 12 117 37v401h133v-526c0 -167 -108 -226 -256 -226zM349 718
c28 0 50 13 74 42l7 -2l12 -82c-17 -27 -54 -53 -99 -53c-66 0 -91 33 -132 33c-34 0 -54 -12 -79 -42l-6 3l-12 83c20 28 57 51 99 51c65 0 89 -33 136 -33z" />
    <glyph glyph-name="uni2009" unicode="&#x2009;" horiz-adv-x="75" 
 />
    <glyph glyph-name="uni20AB" unicode="&#x20ab;" horiz-adv-x="602" 
d="M292 94c56 0 92 18 122 48v259c-31 29 -66 45 -119 45c-79 0 -136 -61 -136 -184c0 -118 59 -168 133 -168zM441 0l-15 69c-38 -51 -92 -82 -167 -82c-139 0 -234 98 -234 275c0 182 99 287 240 287c65 0 113 -24 149 -64v110h-149v73h149v59l133 27v-86h60v-73h-60v-595
h-106zM106 -163v78h404v-78h-404z" />
    <glyph glyph-name="v.flat" horiz-adv-x="548" 
d="M332 0h-113l-213 529v8h140l136 -364l133 364h127v-7z" />
    <glyph glyph-name="w.flat" horiz-adv-x="751" 
d="M488 0l-113 346l-109 -346h-98l-157 530v7h133l86 -333l103 333h92l105 -335l85 335h125v-7l-155 -530h-97z" />
    <glyph glyph-name="wacute.flat" horiz-adv-x="751" 
d="M419 603h-108l87 168h143zM488 0l-113 346l-109 -346h-98l-157 530v7h133l86 -333l103 333h92l105 -335l85 335h125v-7l-155 -530h-97z" />
    <glyph glyph-name="wcircumflex.flat" horiz-adv-x="751" 
d="M375 681l-66 -78h-108l122 161h104l123 -161h-109zM488 0l-113 346l-109 -346h-98l-157 530v7h133l86 -333l103 333h92l105 -335l85 335h125v-7l-155 -530h-97z" />
    <glyph glyph-name="wdieresis.flat" horiz-adv-x="751" 
d="M217 624v115h123v-115h-123zM412 624v115h123v-115h-123zM488 0l-113 346l-109 -346h-98l-157 530v7h133l86 -333l103 333h92l105 -335l85 335h125v-7l-155 -530h-97z" />
    <glyph glyph-name="wgrave.flat" horiz-adv-x="751" 
d="M488 0l-113 346l-109 -346h-98l-157 530v7h133l86 -333l103 333h92l105 -335l85 335h125v-7l-155 -530h-97zM336 603l-122 168h143l87 -168h-108z" />
    <glyph glyph-name="z.flat" horiz-adv-x="483" 
d="M455 0h-426v73l262 362h-244v102h401v-84l-255 -352h262v-101z" />
    <glyph glyph-name="zacute.flat" horiz-adv-x="483" 
d="M296 603h-108l87 168h143zM455 0h-426v73l262 362h-244v102h401v-84l-255 -352h262v-101z" />
    <glyph glyph-name="zcaron.flat" horiz-adv-x="483" 
d="M252 687l66 77h109l-123 -161h-104l-122 161h108zM455 0h-426v73l262 362h-244v102h401v-84l-255 -352h262v-101z" />
    <glyph glyph-name="zdotaccent.flat" horiz-adv-x="483" 
d="M455 0h-426v73l262 362h-244v102h401v-84l-255 -352h262v-101zM185 623v117h134v-117h-134z" />
    <glyph glyph-name="A" unicode="A" 
d="M418 251l-89 224l-89 -224h178zM518 0l-59 147h-260l-58 -147h-135v7l300 706h63l301 -706v-7h-152z" />
    </font>
</defs>
</svg>
