<?xml version="1.0" standalone="no"?>
<!DOCTYPE svg PUBLIC "-//W3C//DTD SVG 1.1//EN" "http://www.w3.org/Graphics/SVG/1.1/DTD/svg11.dtd" >
<svg xmlns="http://www.w3.org/2000/svg" xmlns:xlink="http://www.w3.org/1999/xlink" version="1.1">
<metadata>
Created by FontForge 20170910 at Mon Jan 25 17:34:12 2016
 By Jimmy Wärting
Copyright \\\\\\\(C\\\\\\\)2015 Commercial Type.
</metadata>
<defs>
<font id="SanomatSansVN-Bold" horiz-adv-x="400" >
  <font-face 
    font-family="Sanomat Sans VN Bold"
    font-weight="700"
    font-stretch="normal"
    units-per-em="1000"
    panose-1="0 0 0 0 0 0 0 0 0 0"
    ascent="790"
    descent="-210"
    x-height="550"
    cap-height="705"
    bbox="-238 -241 1251 1133"
    underline-thickness="68"
    underline-position="-73"
    stemh="144"
    stemv="173"
    unicode-range="U+0020-FB04"
  />
<missing-glyph horiz-adv-x="500" 
 />
    <glyph glyph-name="f_f" unicode="ff" horiz-adv-x="719" 
d="M412 0v428h-158v-428h-172v428h-64v122h64v10c0 140 96 185 205 185c48 0 67 -5 79 -9v-110c-8 1 -20 2 -42 2c-38 0 -70 -18 -70 -74v-4h158v18c0 140 93 185 206 185c50 0 77 -5 90 -8v-111c-8 1 -22 3 -51 3c-39 0 -73 -19 -73 -76v-11h110v-122h-110v-428h-172z" />
    <glyph glyph-name="f_f_i" unicode="ffi" horiz-adv-x="989" 
d="M770 606v139h171v-139h-171zM769 0v550h172v-550h-172zM412 0v428h-158v-428h-172v428h-64v122h64v10c0 140 96 185 205 185c48 0 67 -5 79 -9v-110c-8 1 -20 2 -42 2c-38 0 -70 -18 -70 -74v-4h158v18c0 140 93 185 206 185c44 0 70 -4 84 -8v-111c-9 1 -23 3 -45 3
c-40 0 -73 -19 -73 -76v-11h110v-122h-110v-428h-172z" />
    <glyph glyph-name="f_f_l" unicode="ffl" horiz-adv-x="990" 
d="M769 0v722l172 29v-751h-172zM412 0v428h-158v-428h-172v428h-64v122h64v10c0 140 96 185 205 185c48 0 67 -5 79 -9v-110c-8 1 -20 2 -42 2c-38 0 -70 -18 -70 -74v-4h158v18c0 140 93 185 206 185c44 0 70 -4 84 -8v-111c-9 1 -23 3 -45 3c-40 0 -73 -19 -73 -76v-11
h110v-122h-110v-428h-172z" />
    <glyph glyph-name="f_i" unicode="fi" horiz-adv-x="660" 
d="M440 606v139h171v-139h-171zM440 0v550h172v-550h-172zM364 428h-110v-428h-172v428h-64v122h64v18c0 140 93 185 206 185c45 0 70 -4 85 -8v-111c-9 1 -23 3 -46 3c-40 0 -73 -19 -73 -76v-11h110v-122z" />
    <glyph glyph-name="f_l" unicode="fl" horiz-adv-x="661" 
d="M440 0v722l172 29v-751h-172zM364 428h-110v-428h-172v428h-64v122h64v18c0 140 93 185 206 185c45 0 70 -4 85 -8v-111c-9 1 -23 3 -46 3c-40 0 -73 -19 -73 -76v-11h110v-122z" />
    <glyph glyph-name=".notdef" horiz-adv-x="500" 
 />
    <glyph glyph-name="space" unicode=" " horiz-adv-x="208" 
 />
    <glyph glyph-name="exclam" unicode="!" horiz-adv-x="280" 
d="M71 233l-25 472h188l-26 -472h-137zM48 0v157h182v-157h-182z" />
    <glyph glyph-name="quotedbl" unicode="&#x22;" horiz-adv-x="416" 
d="M187 705l-22 -253h-114l-22 253h158zM387 705l-22 -253h-114l-22 253h158z" />
    <glyph glyph-name="numbersign" unicode="#" horiz-adv-x="569" 
d="M320 301l13 102h-85l-13 -102h85zM282 0l20 158h-87l-21 -158h-114l20 158h-88v143h106l13 102h-90v143h109l18 144h119l-19 -144h84l18 144h119l-18 -144h86v-143h-105l-13 -102h89v-143h-107l-20 -158h-119z" />
    <glyph glyph-name="dollar" unicode="$" horiz-adv-x="539" 
d="M186 510c0 -32 15 -52 56 -68l29 128c-57 -2 -85 -25 -85 -60zM336 189c0 33 -15 47 -53 62l-30 -132c54 3 83 29 83 70zM243 -13h-20l-26 -116h-92l28 127c-42 9 -76 23 -103 38v148l6 2c39 -25 79 -47 126 -59l35 153c-113 36 -171 98 -171 202c0 138 98 218 252 218
h23l19 85h93l-22 -96c30 -7 56 -16 78 -27v-141l-6 -1c-32 18 -65 32 -101 40l-33 -146c133 -40 183 -85 183 -200c0 -146 -98 -227 -269 -227z" />
    <glyph glyph-name="percent" unicode="%" horiz-adv-x="814" 
d="M200 348c-110 0 -182 74 -182 176c0 99 72 175 182 175c111 0 182 -76 182 -175c0 -102 -71 -176 -182 -176zM127 0l471 690h92l-471 -690h-92zM200 438c40 0 61 34 61 86c0 50 -21 85 -61 85s-62 -35 -62 -85c0 -52 22 -86 62 -86zM614 -14c-110 0 -183 74 -183 176
c0 99 73 175 183 175c111 0 182 -76 182 -175c0 -102 -71 -176 -182 -176zM614 76c40 0 61 35 61 86s-21 85 -61 85s-62 -34 -62 -85s22 -86 62 -86z" />
    <glyph glyph-name="ampersand" unicode="&#x26;" horiz-adv-x="711" 
d="M307 110c32 0 57 8 80 22l-155 199c-31 -25 -49 -62 -49 -103c0 -67 42 -118 124 -118zM490 0l-31 40c-41 -33 -95 -55 -180 -55c-162 0 -262 87 -262 224c0 110 60 177 153 216c-13 30 -20 61 -20 99c0 102 77 195 223 195c69 0 116 -9 152 -26v-141l-7 -4
c-31 15 -57 26 -102 26c-52 0 -81 -23 -81 -59c0 -38 20 -60 57 -109l103 -132c14 45 23 98 28 142h145c-4 -77 -28 -191 -74 -270l107 -138v-8h-211z" />
    <glyph glyph-name="quotesingle" unicode="'" horiz-adv-x="216" 
d="M187 705l-22 -253h-114l-22 253h158z" />
    <glyph glyph-name="parenleft" unicode="(" horiz-adv-x="360" 
d="M201 -170c-104 128 -170 271 -170 473c0 203 66 343 170 471h151c-85 -127 -151 -268 -151 -471s66 -346 151 -473h-151z" />
    <glyph glyph-name="parenright" unicode=")" horiz-adv-x="360" 
d="M8 -170c85 127 151 270 151 473s-66 344 -151 471h151c104 -128 170 -268 170 -471c0 -202 -66 -345 -170 -473h-151z" />
    <glyph glyph-name="asterisk" unicode="*" horiz-adv-x="412" 
d="M337 405l-91 77l20 -120h-121l21 120l-92 -77l-54 98l115 42l-115 43l54 98l92 -77l-21 120h121l-20 -120l91 77l55 -98l-115 -42l115 -43z" />
    <glyph glyph-name="plus" unicode="+" horiz-adv-x="531" 
d="M202 106v180h-165v119h165v181h127v-181h165v-119h-165v-180h-127z" />
    <glyph glyph-name="comma" unicode="," horiz-adv-x="271" 
d="M25 -105l30 262h181l4 -10l-83 -252h-132z" />
    <glyph glyph-name="hyphen" unicode="-" horiz-adv-x="342" 
d="M33 251v136h276v-136h-276z" />
    <glyph glyph-name="period" unicode="." horiz-adv-x="270" 
d="M44 0v157h182v-157h-182z" />
    <glyph glyph-name="slash" unicode="/" horiz-adv-x="426" 
d="M286 774h134l-314 -944h-134z" />
    <glyph glyph-name="zero" unicode="0" horiz-adv-x="654" 
d="M327 -12c-178 0 -303 131 -304 357c0 226 126 352 304 352c179 0 303 -126 304 -352c0 -226 -125 -357 -304 -357zM327 122c79 0 116 78 116 223s-37 218 -116 218c-78 0 -116 -73 -116 -218s38 -223 116 -223z" />
    <glyph glyph-name="one" unicode="1" horiz-adv-x="387" 
d="M320 0h-181v499l-115 -68l-6 3v151l192 112h110v-697z" />
    <glyph glyph-name="two" unicode="2" horiz-adv-x="510" 
d="M17 0v86l197 222c53 59 83 109 83 162c0 49 -28 88 -101 88c-64 0 -104 -18 -154 -49l-7 4v135c46 30 106 49 198 49c151 0 245 -74 245 -208c0 -94 -53 -170 -129 -252l-99 -107h237v-130h-470z" />
    <glyph glyph-name="three" unicode="3" horiz-adv-x="519" 
d="M239 -12c-115 0 -174 28 -217 53v133l7 5c55 -35 101 -54 182 -54c75 0 105 34 105 83c0 48 -25 83 -106 83h-75v122h65c76 0 98 33 98 76c0 47 -29 74 -99 74c-69 0 -103 -14 -153 -43l-8 4v128c45 28 101 45 199 45c134 0 238 -60 238 -183c0 -78 -40 -127 -115 -151
c92 -23 136 -79 136 -168c0 -129 -91 -207 -257 -207z" />
    <glyph glyph-name="four" unicode="4" horiz-adv-x="589" 
d="M309 251v183l-127 -183h127zM579 125h-94v-125h-176v125h-306v81l342 488h140v-443h94v-126z" />
    <glyph glyph-name="five" unicode="5" horiz-adv-x="516" 
d="M224 -12c-100 0 -167 22 -209 49v130l8 5c51 -32 95 -51 166 -51c86 0 122 36 122 96c0 61 -42 88 -133 88c-62 0 -98 -12 -123 -21l-8 5v396h413v-130h-264v-125c13 1 28 2 42 2c162 0 254 -77 254 -213c0 -140 -97 -231 -268 -231z" />
    <glyph glyph-name="six" unicode="6" horiz-adv-x="586" 
d="M569 221c0 -134 -91 -233 -258 -233c-175 0 -286 115 -286 324c0 263 142 385 328 385c71 0 127 -9 170 -32v-139l-9 -3c-37 23 -81 40 -141 40c-93 0 -148 -46 -164 -168c32 24 81 44 147 44c114 0 213 -71 213 -218zM306 116c61 0 86 42 86 107c0 71 -34 100 -95 100
c-37 0 -68 -12 -92 -30c4 -127 37 -177 101 -177z" />
    <glyph glyph-name="seven" unicode="7" horiz-adv-x="512" 
d="M264 0h-182c31 153 101 296 174 435l57 109h-295v141h484v-99l-86 -173c-72 -145 -129 -288 -152 -413z" />
    <glyph glyph-name="eight" unicode="8" horiz-adv-x="577" 
d="M291 -12c-170 0 -271 74 -271 189c0 75 54 131 126 157c-70 39 -108 96 -108 168c0 124 113 195 247 195c138 0 253 -51 253 -183c0 -69 -48 -117 -108 -144c82 -38 127 -90 127 -179c0 -124 -98 -203 -266 -203zM209 510c0 -41 30 -73 112 -101c36 25 58 56 58 92
c0 53 -38 80 -88 80c-51 0 -82 -30 -82 -71zM287 106c63 0 95 34 95 78c0 49 -38 79 -126 108c-41 -22 -71 -52 -71 -100c0 -56 37 -86 102 -86z" />
    <glyph glyph-name="nine" unicode="9" horiz-adv-x="585" 
d="M288 365c38 0 68 13 93 30c-4 126 -35 174 -99 174c-61 0 -89 -39 -89 -104c0 -71 32 -100 95 -100zM221 -12c-71 0 -129 11 -172 33v138l9 3c36 -23 83 -40 143 -40c108 0 162 42 176 169c-29 -24 -74 -42 -147 -42c-116 0 -213 67 -213 216c0 134 96 232 261 232
c174 0 282 -109 282 -324c0 -275 -135 -385 -339 -385z" />
    <glyph glyph-name="colon" unicode=":" horiz-adv-x="274" 
d="M46 331v156h182v-156h-182zM46 0v157h182v-157h-182z" />
    <glyph glyph-name="semicolon" unicode=";" horiz-adv-x="277" 
d="M53 331v156h182v-156h-182zM25 -105l31 262h180l4 -10l-82 -252h-133z" />
    <glyph glyph-name="less" unicode="&#x3c;" horiz-adv-x="504" 
d="M446 86l-404 222v75l404 221l5 -4v-136l-225 -119l225 -119v-136z" />
    <glyph glyph-name="equal" unicode="=" horiz-adv-x="533" 
d="M44 353v110h445v-110h-445zM44 161v110h445v-110h-445z" />
    <glyph glyph-name="greater" unicode="&#x3e;" horiz-adv-x="504" 
d="M58 86l-5 4v136l225 119l-225 119v136l5 4l404 -221v-76z" />
    <glyph glyph-name="question" unicode="?" horiz-adv-x="475" 
d="M29 673c40 25 101 46 188 46c137 0 228 -63 228 -188c0 -86 -37 -138 -111 -193c-37 -29 -56 -48 -56 -88v-17h-159v23c0 81 28 118 88 166c39 31 58 52 58 92c0 35 -24 61 -78 61c-68 0 -108 -20 -151 -48l-7 4v142zM106 0v157h183v-157h-183z" />
    <glyph glyph-name="at" unicode="@" horiz-adv-x="903" 
d="M463 -180c-269 0 -439 177 -439 411c0 269 197 461 449 461c246 0 407 -160 407 -366c0 -195 -93 -301 -218 -301c-74 0 -125 26 -148 74c-31 -44 -73 -74 -130 -74c-102 0 -169 80 -169 199c0 154 93 257 209 257c49 0 84 -21 108 -52l6 43h142l-35 -287
c-8 -65 12 -83 45 -83c56 0 114 61 114 224c0 184 -132 300 -333 300c-195 0 -371 -149 -371 -400c0 -198 139 -340 365 -340c90 0 142 17 194 45l6 -3v-65c-55 -30 -117 -43 -202 -43zM432 146c26 0 49 9 68 32l19 149c-20 25 -38 35 -67 35c-52 0 -85 -54 -85 -129
c0 -55 26 -87 65 -87z" />
    <glyph glyph-name="B" unicode="B" horiz-adv-x="651" 
d="M327 570h-77v-144h80c59 0 85 22 85 73s-31 71 -88 71zM331 301h-81v-165h81c74 0 107 21 107 82s-34 83 -107 83zM59 0v705h288c161 0 249 -58 249 -181c0 -70 -33 -124 -116 -145c105 -27 149 -90 149 -177c0 -126 -85 -202 -268 -202h-302z" />
    <glyph glyph-name="C" unicode="C" horiz-adv-x="661" 
d="M416 -14c-239 0 -391 152 -391 369c0 219 156 364 383 364c92 0 153 -14 203 -40v-156l-7 -4c-49 35 -95 53 -172 53c-124 0 -209 -80 -209 -217c0 -136 85 -220 216 -220c77 0 128 20 179 61l8 -4v-152c-48 -32 -105 -54 -210 -54z" />
    <glyph glyph-name="D" unicode="D" horiz-adv-x="736" 
d="M301 563h-50v-421h50c128 0 214 50 214 207c0 154 -86 214 -214 214zM59 0v705h252c226 0 400 -103 400 -356c0 -254 -174 -349 -400 -349h-252z" />
    <glyph glyph-name="E" unicode="E" horiz-adv-x="565" 
d="M59 0v705h460v-139h-269v-136h230v-138h-230v-153h274v-139h-465z" />
    <glyph glyph-name="F" unicode="F" horiz-adv-x="538" 
d="M480 262h-230v-262h-191v705h450v-139h-259v-165h230v-139z" />
    <glyph glyph-name="G" unicode="G" horiz-adv-x="718" 
d="M676 66c-55 -39 -131 -80 -265 -80c-243 0 -386 146 -386 369c0 221 160 364 392 364c109 0 180 -21 225 -46v-153l-7 -4c-52 31 -111 55 -196 55c-137 0 -217 -81 -217 -221s65 -217 194 -217c28 0 53 3 76 10v125h-122v132h306v-334z" />
    <glyph glyph-name="H" unicode="H" horiz-adv-x="767" 
d="M514 0v281h-262v-281h-193v705h193v-272h262v272h194v-705h-194z" />
    <glyph glyph-name="I" unicode="I" horiz-adv-x="315" 
d="M61 0v705h193v-705h-193z" />
    <glyph glyph-name="J" unicode="J" horiz-adv-x="315" 
d="M-38 -198v138c75 12 101 34 101 122v643h193v-640c0 -172 -63 -250 -294 -263z" />
    <glyph glyph-name="K" unicode="K" horiz-adv-x="694" 
d="M476 0l-163 284l-61 -80v-204h-193v705h193v-286l228 286h192v-7l-223 -274l236 -417v-7h-209z" />
    <glyph glyph-name="L" unicode="L" horiz-adv-x="534" 
d="M59 0v705h193v-556h251v-149h-444z" />
    <glyph glyph-name="M" unicode="M" horiz-adv-x="875" 
d="M639 0v428l-180 -432h-63l-182 439v-435h-155v705h213l163 -391l162 391h219v-705h-177z" />
    <glyph glyph-name="N" unicode="N" horiz-adv-x="745" 
d="M686 -8h-111l-351 402v-394h-165v712h115l347 -397v390h165v-713z" />
    <glyph glyph-name="O" unicode="O" horiz-adv-x="796" 
d="M398 -14c-226 0 -373 160 -373 369s147 364 373 364c227 0 373 -155 373 -364s-146 -369 -373 -369zM398 130c112 0 177 90 177 225s-68 221 -177 221c-108 0 -176 -86 -176 -221s65 -225 176 -225z" />
    <glyph glyph-name="P" unicode="P" horiz-adv-x="625" 
d="M317 567h-67v-201h70c75 0 106 33 106 103c0 69 -36 98 -109 98zM328 234h-78v-234h-191v705h261c175 0 286 -74 286 -239c0 -158 -110 -232 -278 -232z" />
    <glyph glyph-name="Q" unicode="Q" horiz-adv-x="796" 
d="M632 -180c-181 0 -271 85 -306 172c-185 30 -301 177 -301 363c0 209 147 364 373 364c227 0 373 -155 373 -364c0 -176 -99 -313 -270 -351c20 -32 57 -53 144 -53c31 0 55 5 74 11l5 -4v-127c-13 -4 -44 -11 -92 -11zM398 130c117 0 177 89 177 225
c0 135 -68 221 -177 221c-108 0 -176 -86 -176 -221s65 -225 176 -225z" />
    <glyph glyph-name="R" unicode="R" horiz-adv-x="661" 
d="M317 570h-67v-191h70c81 0 112 35 112 98c0 65 -34 93 -115 93zM459 0l-130 247h-79v-247h-191v705h278c184 0 278 -82 278 -223c0 -92 -42 -157 -114 -189l156 -283v-10h-198z" />
    <glyph glyph-name="S" unicode="S" horiz-adv-x="539" 
d="M244 -13c-99 0 -166 23 -213 50v159l6 3c56 -37 116 -65 196 -65c66 0 98 26 98 67c0 38 -24 49 -90 71l-48 14c-107 33 -166 99 -166 210c0 141 99 222 252 222c80 0 145 -15 189 -39v-152l-6 -3c-52 31 -108 48 -176 48c-59 0 -87 -24 -87 -57s18 -51 74 -69l46 -14
c138 -39 194 -95 194 -215c0 -147 -99 -230 -269 -230z" />
    <glyph glyph-name="T" unicode="T" horiz-adv-x="592" 
d="M577 555h-184v-555h-194v555h-184v150h562v-150z" />
    <glyph glyph-name="U" unicode="U" horiz-adv-x="720" 
d="M363 -12c-201 0 -312 101 -312 291v426h194v-423c0 -93 44 -140 126 -140c81 0 127 47 127 140v423h171v-426c0 -180 -106 -291 -306 -291z" />
    <glyph glyph-name="V" unicode="V" horiz-adv-x="703" 
d="M402 -6h-103l-291 703v8h201l153 -388l152 388h181v-8z" />
    <glyph glyph-name="W" unicode="W" horiz-adv-x="1004" 
d="M636 -6l-140 366l-141 -366h-113l-234 703v8h200l127 -385l85 225l-49 152v8h195l132 -375l120 375h176l2 -8l-232 -703h-128z" />
    <glyph glyph-name="X" unicode="X" horiz-adv-x="689" 
d="M464 0l-137 251l-139 -251h-176v8l214 366l-199 323v8h212l118 -216l123 216h175v-8l-198 -328l220 -361v-8h-213z" />
    <glyph glyph-name="Y" unicode="Y" horiz-adv-x="639" 
d="M418 0h-194v278l-220 419v8h198l130 -275l129 275h174v-8l-217 -413v-284z" />
    <glyph glyph-name="Z" unicode="Z" horiz-adv-x="609" 
d="M583 0h-571v71l321 493h-285v141h534v-80l-313 -483h314v-142z" />
    <glyph glyph-name="bracketleft" unicode="[" horiz-adv-x="394" 
d="M65 -170v944h291v-122h-127v-700h127v-122h-291z" />
    <glyph glyph-name="backslash" unicode="\" horiz-adv-x="426" 
d="M137 774l314 -944h-134l-314 944h134z" />
    <glyph glyph-name="bracketright" unicode="]" horiz-adv-x="394" 
d="M38 -170v122h127v700h-127v122h291v-944h-291z" />
    <glyph glyph-name="asciicircum" unicode="^" horiz-adv-x="539" 
d="M172 381h-155l205 324h94l206 -324h-156l-97 154z" />
    <glyph glyph-name="underscore" unicode="_" horiz-adv-x="408" 
d="M-9 -146v85h426v-85h-426z" />
    <glyph glyph-name="grave" unicode="`" horiz-adv-x="399" 
d="M165 597l-120 171h171l77 -171h-128z" />
    <glyph glyph-name="a" unicode="a" horiz-adv-x="552" 
d="M255 100c38 0 65 16 83 40v98l-65 -9c-61 -9 -87 -27 -87 -67c0 -37 21 -62 69 -62zM361 0l-11 61c-28 -39 -72 -74 -151 -74c-102 0 -179 55 -179 164c0 115 81 157 216 175l102 13c0 70 -31 92 -104 92c-75 0 -121 -19 -164 -42l-7 2v129c43 25 109 43 200 43
c160 0 246 -62 246 -224v-339h-148z" />
    <glyph glyph-name="b" unicode="b" horiz-adv-x="624" 
d="M359 -13c-72 0 -123 28 -158 71l-19 -58h-136v722l172 29v-262c36 47 86 74 157 74c133 0 228 -95 228 -284c0 -193 -102 -292 -244 -292zM316 114c69 0 112 57 112 165c0 105 -46 151 -110 151c-47 0 -76 -16 -100 -42v-242c26 -21 57 -32 98 -32z" />
    <glyph glyph-name="c" unicode="c" horiz-adv-x="503" 
d="M319 -13c-184 0 -299 104 -299 289c0 188 127 287 296 287c67 0 120 -14 150 -33v-127l-7 -3c-33 21 -68 35 -121 35c-78 0 -141 -50 -141 -159c0 -110 59 -163 143 -163c57 0 95 17 130 41l8 -3v-121c-31 -23 -83 -43 -159 -43z" />
    <glyph glyph-name="d" unicode="d" horiz-adv-x="622" 
d="M305 120c44 0 74 13 99 36v245c-25 23 -54 35 -96 35c-70 0 -113 -57 -113 -165c0 -105 46 -151 110 -151zM436 0l-17 71c-38 -53 -91 -84 -168 -84c-137 0 -230 95 -230 284c0 193 100 292 235 292c66 0 113 -24 148 -62v221l172 29v-751h-140z" />
    <glyph glyph-name="e" unicode="e" horiz-adv-x="564" 
d="M296 447c-56 0 -93 -32 -105 -106h193c-4 71 -31 106 -88 106zM530 28c-37 -20 -103 -41 -198 -41c-211 0 -312 111 -312 293c0 166 109 283 275 283c161 0 267 -98 246 -330h-352c13 -83 63 -117 159 -117c77 0 127 17 175 40l7 -3v-125z" />
    <glyph glyph-name="f" unicode="f" horiz-adv-x="389" 
d="M364 428h-110v-428h-172v428h-64v122h64v18c0 140 94 185 206 185c50 0 77 -5 90 -8v-111c-8 1 -21 3 -51 3c-39 0 -73 -19 -73 -76v-11h110v-122z" />
    <glyph glyph-name="g" unicode="g" horiz-adv-x="556" 
d="M262 291c45 0 77 31 77 83c0 53 -32 84 -77 84s-77 -31 -77 -84c0 -52 32 -83 77 -83zM262 -222c-174 0 -263 40 -262 128c0 30 14 56 29 69h134l3 -6c-5 -7 -10 -17 -10 -33c0 -31 31 -48 106 -48c84 0 124 29 124 67c0 26 -14 32 -53 34l-149 6
c-101 4 -143 54 -143 113c0 53 30 94 80 118c-58 31 -91 83 -91 149c0 109 91 187 231 187c45 0 87 -9 121 -24l166 19v-120h-72c10 -21 17 -46 17 -72c0 -97 -86 -171 -232 -171c-19 0 -37 1 -54 4c-16 -8 -26 -20 -26 -38c0 -19 15 -23 41 -24l152 -7
c110 -5 177 -48 177 -156c0 -118 -101 -195 -289 -195z" />
    <glyph glyph-name="h" unicode="h" horiz-adv-x="601" 
d="M307 427c-35 0 -62 -12 -89 -33v-394h-172v722l172 29v-268c37 42 88 80 167 80c104 0 173 -58 173 -193v-370h-173v342c0 62 -32 85 -78 85z" />
    <glyph glyph-name="i" unicode="i" horiz-adv-x="268" 
d="M48 606v139h171v-139h-171zM48 0v550h172v-550h-172z" />
    <glyph glyph-name="j" unicode="j" horiz-adv-x="266" 
d="M48 606v139h171v-139h-171zM-24 -211v130c49 6 72 23 72 92v539h172v-550c0 -146 -83 -202 -244 -211z" />
    <glyph glyph-name="k" unicode="k" horiz-adv-x="572" 
d="M380 0l-117 215l-45 -59v-156h-172v722l172 29v-419l164 218h172v-8l-162 -211l173 -323v-8h-185z" />
    <glyph glyph-name="l" unicode="l" horiz-adv-x="270" 
d="M49 0v722l172 29v-751h-172z" />
    <glyph glyph-name="m" unicode="m" horiz-adv-x="902" 
d="M298 427c-33 0 -56 -10 -80 -30v-397h-172v550h151l11 -69c35 41 84 82 162 82c67 0 120 -26 147 -88c37 48 90 88 174 88c97 0 168 -58 168 -193v-370h-173v343c0 62 -27 84 -68 84c-33 0 -56 -10 -80 -30v-397h-172v343c0 62 -27 84 -68 84z" />
    <glyph glyph-name="n" unicode="n" horiz-adv-x="601" 
d="M307 427c-35 0 -63 -11 -89 -32v-395h-172v550h151l11 -72c38 43 88 85 173 85c102 0 177 -58 177 -193v-370h-173v342c0 62 -32 85 -78 85z" />
    <glyph glyph-name="o" unicode="o" horiz-adv-x="629" 
d="M314 -13c-168 0 -294 110 -294 289s126 287 294 287s295 -108 295 -287s-127 -289 -295 -289zM314 112c72 0 120 53 120 163s-48 163 -120 163c-71 0 -119 -53 -119 -163s48 -163 119 -163z" />
    <glyph glyph-name="p" unicode="p" horiz-adv-x="624" 
d="M316 114c69 0 112 57 112 165c0 105 -46 151 -110 151c-46 0 -75 -15 -99 -41v-240c25 -23 54 -35 97 -35zM369 -13c-67 0 -115 24 -150 62v-243h-173v744h152l11 -73c37 55 90 86 166 86c133 0 228 -95 228 -284c0 -193 -101 -292 -234 -292z" />
    <glyph glyph-name="q" unicode="q" horiz-adv-x="622" 
d="M576 -194h-172v254c-36 -47 -86 -73 -156 -73c-133 0 -227 95 -227 284c0 193 102 292 235 292c72 0 122 -27 157 -70l9 58h154v-745zM305 120c47 0 75 15 99 41v240c-25 23 -54 35 -96 35c-70 0 -113 -57 -113 -165c0 -105 46 -151 110 -151z" />
    <glyph glyph-name="r" unicode="r" horiz-adv-x="422" 
d="M352 394c-62 0 -102 -11 -134 -45v-349h-172v550h151l12 -94c29 51 80 103 153 103c17 0 33 -2 44 -4v-162l-6 -4c-13 3 -31 5 -48 5z" />
    <glyph glyph-name="s" unicode="s" horiz-adv-x="459" 
d="M215 -12c-93 0 -148 20 -192 47v129l6 3c45 -34 106 -56 172 -56c54 0 79 18 79 47c0 26 -15 34 -64 46l-49 12c-87 21 -146 71 -146 168c0 109 81 180 215 180c73 0 127 -12 169 -30v-124l-6 -3c-38 20 -95 36 -158 36c-52 0 -68 -16 -68 -42c0 -25 15 -36 52 -45
l49 -12c112 -28 166 -65 166 -166c0 -120 -86 -190 -225 -190z" />
    <glyph glyph-name="t" unicode="t" horiz-adv-x="390" 
d="M363 3c-26 -8 -68 -14 -112 -14c-96 0 -171 31 -171 146v293h-62v122h62v88l172 27v-115h109v-122h-109v-260c0 -37 18 -50 54 -50c19 0 39 4 51 7l6 -3v-119z" />
    <glyph glyph-name="u" unicode="u" horiz-adv-x="604" 
d="M407 0l-11 67c-38 -43 -90 -80 -169 -80c-109 0 -185 62 -185 193v370h172v-342c0 -62 32 -85 80 -85c35 0 65 9 92 30v397h172v-550h-151z" />
    <glyph glyph-name="v" unicode="v" horiz-adv-x="575" 
d="M333 -5h-87l-242 548v7h182l112 -274l112 274h161v-7z" />
    <glyph glyph-name="w" unicode="w" horiz-adv-x="783" 
d="M513 -6l-122 305l-119 -305h-84l-181 548v8h173l77 -271l104 274h70l106 -277l77 274h162v-8l-178 -548h-85z" />
    <glyph glyph-name="x" unicode="x" horiz-adv-x="568" 
d="M370 0l-100 167l-99 -167h-160v9l174 276l-164 256v9h187l87 -147l90 147h161v-8l-167 -258l178 -275v-9h-187z" />
    <glyph glyph-name="y" unicode="y" horiz-adv-x="576" 
d="M75 -207v136c66 6 100 27 114 62l14 34l-197 517v8h181l112 -323l111 323h160v-8l-209 -575c-45 -125 -117 -164 -286 -174z" />
    <glyph glyph-name="z" unicode="z" horiz-adv-x="502" 
d="M477 0h-459v45l233 379h-207v126h437v-51l-229 -372h225v-127z" />
    <glyph glyph-name="braceleft" unicode="{" horiz-adv-x="388" 
d="M355 -170c-230 0 -293 74 -261 210l25 111c16 66 -1 90 -95 92v119c93 3 111 26 95 93l-25 108c-32 138 31 211 261 211v-121c-92 0 -113 -23 -97 -91l21 -91c21 -93 -1 -145 -90 -168c89 -24 112 -73 91 -164l-22 -97c-15 -66 5 -91 97 -91v-121z" />
    <glyph glyph-name="bar" unicode="|" horiz-adv-x="238" 
d="M59 -170v944h120v-944h-120z" />
    <glyph glyph-name="braceright" unicode="}" horiz-adv-x="388" 
d="M33 -170v121c92 0 112 25 97 91l-22 97c-21 91 2 140 91 164c-89 23 -111 75 -90 168l21 91c16 68 -5 91 -97 91v121c230 0 293 -73 261 -211l-25 -108c-16 -67 2 -90 95 -93v-119c-94 -2 -111 -26 -95 -92l25 -111c32 -136 -31 -210 -261 -210z" />
    <glyph glyph-name="asciitilde" unicode="~" horiz-adv-x="433" 
d="M405 410v-129c-20 -29 -58 -57 -108 -57c-79 0 -113 40 -165 40c-42 0 -68 -14 -97 -50l-7 3v130c20 32 58 56 108 56c79 0 113 -41 171 -41c36 0 61 14 90 51z" />
    <glyph glyph-name="uni00A0" unicode="&#xa0;" horiz-adv-x="208" 
 />
    <glyph glyph-name="exclamdown" unicode="&#xa1;" horiz-adv-x="280" 
d="M232 570v-157h-182v157h182zM209 337l25 -472h-188l26 472h137z" />
    <glyph glyph-name="cent" unicode="&#xa2;" horiz-adv-x="498" 
d="M476 30c-25 -19 -65 -36 -120 -41l-6 -98h-102l6 100c-147 22 -236 124 -236 285c0 178 116 278 273 286l5 74h102l-5 -80c30 -6 54 -15 71 -26v-127l-7 -1c-22 13 -44 24 -72 31l-21 -320c43 4 75 19 104 39l8 -1v-121zM187 276c0 -76 29 -126 76 -149l20 304
c-56 -19 -96 -70 -96 -155z" />
    <glyph glyph-name="sterling" unicode="&#xa3;" horiz-adv-x="568" 
d="M539 130v-130h-526v81c75 52 84 101 94 172l3 19h-58v111h74l17 114c19 129 90 200 228 200c65 0 113 -10 160 -33v-126l-8 -5c-36 20 -66 30 -105 30c-52 0 -86 -20 -98 -88l-16 -92h149v-111h-168l-1 -7c-10 -63 -23 -98 -67 -135h322z" />
    <glyph glyph-name="yen" unicode="&#xa5;" horiz-adv-x="613" 
d="M557 136h-152v-136h-194v136h-151v87h151v48h-151v87h133l-182 324v8h197l111 -230l110 230h173v-8l-181 -324h136v-87h-152v-48h152v-87z" />
    <glyph glyph-name="brokenbar" unicode="&#xa6;" horiz-adv-x="238" 
d="M59 365v409h120v-409h-120zM59 -170v439h120v-439h-120z" />
    <glyph glyph-name="section" unicode="&#xa7;" horiz-adv-x="522" 
d="M234 -142c-79 0 -132 18 -169 39v124l6 3c41 -28 84 -49 150 -49c52 0 74 18 74 47c0 27 -23 39 -55 55l-68 36c-108 52 -150 103 -150 191c0 66 41 107 98 138c-24 28 -36 62 -36 105c0 115 79 171 201 171c70 0 119 -14 155 -32v-117l-6 -3c-38 20 -82 36 -139 36
c-44 0 -60 -18 -60 -44c0 -25 19 -37 60 -60l52 -28c110 -58 153 -98 153 -186c0 -69 -38 -110 -92 -141c29 -28 46 -63 46 -110c0 -120 -97 -175 -220 -175zM233 250l92 -50c20 15 28 32 28 53c0 38 -23 55 -63 77l-83 45l-13 8c-19 -15 -28 -31 -28 -55
c0 -37 26 -56 67 -78z" />
    <glyph glyph-name="dieresis" unicode="&#xa8;" horiz-adv-x="404" 
d="M24 611v136h148v-136h-148zM232 611v136h148v-136h-148z" />
    <glyph glyph-name="copyright" unicode="&#xa9;" horiz-adv-x="783" 
d="M30 352c0 214 157 367 361 367s362 -153 362 -367c0 -212 -158 -366 -362 -366s-361 154 -361 366zM685 352c0 175 -124 306 -294 306c-168 0 -294 -131 -294 -306c0 -172 126 -305 294 -305c170 0 294 133 294 305zM416 154c-132 0 -214 76 -214 202
c0 128 91 201 211 201c52 0 91 -12 113 -25v-97l-5 -2c-25 16 -53 27 -92 27c-53 0 -95 -35 -95 -104s40 -107 97 -107c42 0 72 13 98 31l6 -2v-92c-23 -17 -61 -32 -119 -32z" />
    <glyph glyph-name="ordfeminine" unicode="&#xaa;" horiz-adv-x="477" 
d="M215 327c35 0 57 15 72 34v76l-52 -7c-50 -8 -72 -22 -72 -55c0 -30 17 -48 52 -48zM305 243l-9 50c-23 -32 -61 -60 -126 -60c-81 0 -145 40 -145 132c0 97 74 126 178 139l84 10c-1 56 -25 74 -87 74c-59 0 -97 -14 -133 -35l-6 2v107c36 22 92 36 168 36
c132 0 202 -52 202 -185v-270h-126z" />
    <glyph glyph-name="guillemotleft" unicode="&#xab;" horiz-adv-x="428" 
d="M115 74l-101 186l106 186h113l-103 -186l98 -186h-113zM290 74l-101 186l107 186h113l-103 -186l97 -186h-113z" />
    <glyph glyph-name="registered" unicode="&#xae;" horiz-adv-x="584" 
d="M21 443c0 160 119 274 271 274s271 -114 271 -274c0 -159 -119 -274 -271 -274s-271 115 -271 274zM505 443c0 127 -88 224 -213 224c-123 0 -214 -97 -214 -224c0 -126 91 -224 214 -224c125 0 213 98 213 224zM288 519h-20v-60h20c28 0 36 11 36 32c0 19 -9 28 -36 28z
M333 312l-44 91h-21v-91h-84v267h111c77 0 111 -31 111 -87c0 -35 -14 -58 -40 -71l53 -106v-3h-86z" />
    <glyph glyph-name="macron" unicode="&#xaf;" 
d="M35 623v107h330v-107h-330z" />
    <glyph glyph-name="degree" unicode="&#xb0;" horiz-adv-x="435" 
d="M44 525c0 95 72 172 173 172c99 0 174 -77 174 -172s-75 -171 -174 -171c-101 0 -173 76 -173 171zM301 525c0 50 -34 92 -84 92s-84 -42 -84 -92c0 -48 34 -89 84 -89s84 41 84 89z" />
    <glyph glyph-name="acute" unicode="&#xb4;" horiz-adv-x="401" 
d="M247 597h-129l78 171h171z" />
    <glyph glyph-name="paragraph" unicode="&#xb6;" horiz-adv-x="568" 
d="M507 -130h-106v835h106v-835zM344 -130h-106v424h-12c-117 0 -202 72 -202 204c0 139 85 207 202 207h118v-835z" />
    <glyph glyph-name="periodcentered" unicode="&#xb7;" horiz-adv-x="264" 
d="M41 258v157h182v-157h-182z" />
    <glyph glyph-name="cedilla" unicode="&#xb8;" 
d="M98 -210v72l7 3c16 -9 34 -17 58 -17c26 0 38 12 38 30c0 23 -23 33 -62 37v90h79v-46c47 -11 87 -28 87 -92c0 -63 -46 -99 -120 -99c-42 0 -70 11 -87 22z" />
    <glyph glyph-name="ordmasculine" unicode="&#xba;" horiz-adv-x="528" 
d="M264 231c-140 0 -243 93 -243 234c0 142 103 233 243 233c138 0 243 -91 243 -233c0 -141 -105 -234 -243 -234zM264 338c57 0 97 44 97 127c0 82 -40 126 -97 126c-58 0 -97 -44 -97 -126c0 -83 39 -127 97 -127z" />
    <glyph glyph-name="guillemotright" unicode="&#xbb;" horiz-adv-x="428" 
d="M24 74l98 186l-103 186h113l106 -186l-101 -186h-113zM200 74l98 186l-104 186h114l106 -186l-101 -186h-113z" />
    <glyph glyph-name="onequarter" unicode="&#xbc;" horiz-adv-x="764" 
d="M63 0l535 690h97l-536 -690h-96zM212 305h-123v260l-74 -42l-3 2v103l123 67h77v-390zM581 148v94l-70 -94h70zM749 67h-53v-67h-115v67h-174v57l195 264h94v-240h53v-81z" />
    <glyph glyph-name="onehalf" unicode="&#xbd;" horiz-adv-x="797" 
d="M67 0l535 690h97l-536 -690h-96zM212 305h-123v260l-74 -42l-3 2v103l123 67h77v-390zM487 0v65l112 113c33 33 48 53 48 79c0 24 -17 39 -57 39c-37 0 -61 -10 -89 -28l-5 3v90c27 19 66 30 124 30c94 0 147 -41 147 -120c0 -57 -25 -90 -72 -136l-48 -48h127v-87h-287z
" />
    <glyph glyph-name="threequarters" unicode="&#xbe;" horiz-adv-x="790" 
d="M89 0l535 690h97l-536 -690h-96zM150 298c-70 0 -106 17 -131 31v88l4 3c31 -19 61 -30 108 -30c38 0 56 14 56 38c0 22 -17 36 -55 36h-48v74h42c38 0 50 14 50 33c0 23 -16 35 -53 35c-40 0 -64 -8 -92 -24l-5 3v85c25 15 59 26 122 26c80 0 145 -33 145 -104
c0 -45 -23 -71 -70 -84c57 -12 83 -41 83 -91c0 -75 -54 -119 -156 -119zM607 148v94l-70 -94h70zM775 67h-53v-67h-115v67h-174v57l195 264h94v-240h53v-81z" />
    <glyph glyph-name="questiondown" unicode="&#xbf;" horiz-adv-x="475" 
d="M369 570v-157h-183v157h183zM446 -103c-40 -25 -101 -46 -188 -46c-137 0 -228 63 -228 188c0 86 37 138 111 193c37 29 56 48 56 88v17h159v-23c0 -81 -28 -118 -88 -166c-39 -31 -58 -52 -58 -92c0 -35 24 -61 78 -61c68 0 108 20 151 48l7 -4v-142z" />
    <glyph glyph-name="Agrave" unicode="&#xc0;" horiz-adv-x="710" 
d="M413 241l-71 187l-72 -187h143zM505 0l-44 115h-238l-44 -115h-173v8l299 703h101l299 -703v-8h-200zM302 757l-117 155h168l80 -155h-131z" />
    <glyph glyph-name="Aacute" unicode="&#xc1;" horiz-adv-x="710" 
d="M413 241l-71 187l-72 -187h143zM505 0l-44 115h-238l-44 -115h-173v8l299 703h101l299 -703v-8h-200zM411 757h-131l80 155h169z" />
    <glyph glyph-name="Acircumflex" unicode="&#xc2;" horiz-adv-x="710" 
d="M355 823l-61 -66h-132l128 160h130l128 -160h-132zM413 241l-71 187l-72 -187h143zM505 0l-44 115h-238l-44 -115h-173v8l299 703h101l299 -703v-8h-200z" />
    <glyph glyph-name="Atilde" unicode="&#xc3;" horiz-adv-x="710" 
d="M413 241l-71 187l-72 -187h143zM505 0l-44 115h-238l-44 -115h-173v8l299 703h101l299 -703v-8h-200zM420 872c31 0 55 12 83 39l8 -3l22 -95c-20 -27 -60 -52 -104 -52c-71 0 -100 34 -145 34c-37 0 -61 -11 -89 -38l-8 3l-22 95c20 29 60 51 104 51
c71 0 100 -34 151 -34z" />
    <glyph glyph-name="Adieresis" unicode="&#xc4;" horiz-adv-x="710" 
d="M413 241l-71 187l-72 -187h143zM505 0l-44 115h-238l-44 -115h-173v8l299 703h101l299 -703v-8h-200zM392 744v133h155v-133h-155zM165 744v133h155v-133h-155z" />
    <glyph glyph-name="Aring" unicode="&#xc5;" horiz-adv-x="710" 
d="M413 241l-71 187l-72 -187h143zM505 0l-44 115h-238l-44 -115h-173v8l299 703h101l299 -703v-8h-200zM355 742c-71 0 -119 47 -119 115c0 67 48 115 119 115s119 -48 119 -115c0 -68 -48 -115 -119 -115zM355 902c-26 0 -43 -20 -43 -45c0 -26 17 -45 43 -45s43 19 43 45
c0 25 -17 45 -43 45z" />
    <glyph glyph-name="AE" unicode="&#xc6;" horiz-adv-x="962" 
d="M457 263v251l-138 -251h138zM457 0v133h-209l-73 -133h-172v8l390 697h524v-139h-269v-140h229v-130h-229v-157h273v-139h-464z" />
    <glyph glyph-name="Ccedilla" unicode="&#xc7;" horiz-adv-x="661" 
d="M354 -232c-42 0 -70 11 -87 22v72l7 3c16 -9 34 -17 58 -17c26 0 38 12 38 30c0 23 -23 33 -62 37v82c-176 39 -283 176 -283 358c0 219 156 364 383 364c92 0 153 -14 203 -40v-156l-7 -4c-49 35 -95 53 -172 53c-124 0 -209 -80 -209 -217c0 -136 85 -220 216 -220
c77 0 128 20 179 61l8 -4v-152c-48 -32 -105 -54 -210 -54h-29v-27c47 -11 87 -28 87 -92c0 -63 -46 -99 -120 -99z" />
    <glyph glyph-name="Egrave" unicode="&#xc8;" horiz-adv-x="564" 
d="M238 757l-117 155h168l80 -155h-131zM59 0v705h460v-139h-269v-136h230v-138h-230v-153h274v-139h-465z" />
    <glyph glyph-name="Eacute" unicode="&#xc9;" horiz-adv-x="564" 
d="M346 757h-131l80 155h169zM59 0v705h460v-139h-269v-136h230v-138h-230v-153h274v-139h-465z" />
    <glyph glyph-name="Ecircumflex" unicode="&#xca;" horiz-adv-x="564" 
d="M290 823l-61 -66h-132l128 160h130l128 -160h-132zM59 0v705h460v-139h-269v-136h230v-138h-230v-153h274v-139h-465z" />
    <glyph glyph-name="Edieresis" unicode="&#xcb;" horiz-adv-x="564" 
d="M59 0v705h460v-139h-269v-136h230v-138h-230v-153h274v-139h-465zM327 744v133h155v-133h-155zM100 744v133h155v-133h-155z" />
    <glyph glyph-name="Igrave" unicode="&#xcc;" horiz-adv-x="315" 
d="M61 0v705h193v-705h-193zM105 757l-117 155h168l80 -155h-131z" />
    <glyph glyph-name="Iacute" unicode="&#xcd;" horiz-adv-x="315" 
d="M61 0v705h193v-705h-193zM213 757h-131l80 155h169z" />
    <glyph glyph-name="Icircumflex" unicode="&#xce;" horiz-adv-x="315" 
d="M61 0v705h193v-705h-193zM157 823l-61 -66h-132l128 160h130l128 -160h-132z" />
    <glyph glyph-name="Idieresis" unicode="&#xcf;" horiz-adv-x="315" 
d="M186 752v130h142v-130h-142zM-13 752v130h143v-130h-143zM61 0v705h193v-705h-193z" />
    <glyph glyph-name="Eth" unicode="&#xd0;" horiz-adv-x="748" 
d="M395 295h-132v-153h50c128 0 215 50 215 207c0 154 -87 214 -215 214h-50v-141h132v-127zM71 0v295h-63v127h63v283h253c225 0 399 -103 399 -356c0 -254 -174 -349 -399 -349h-253z" />
    <glyph glyph-name="Ntilde" unicode="&#xd1;" horiz-adv-x="744" 
d="M686 -8h-111l-351 402v-394h-165v712h115l347 -397v390h165v-713zM436 872c31 0 55 12 83 39l8 -3l22 -95c-20 -27 -60 -52 -104 -52c-71 0 -100 34 -145 34c-37 0 -61 -11 -89 -38l-8 3l-22 95c20 29 60 51 104 51c71 0 100 -34 151 -34z" />
    <glyph glyph-name="Ograve" unicode="&#xd2;" horiz-adv-x="796" 
d="M345 757l-117 155h168l80 -155h-131zM398 -14c-226 0 -373 160 -373 369s147 364 373 364c227 0 373 -155 373 -364s-146 -369 -373 -369zM398 130c112 0 177 90 177 225s-68 221 -177 221c-108 0 -176 -86 -176 -221s65 -225 176 -225z" />
    <glyph glyph-name="Oacute" unicode="&#xd3;" horiz-adv-x="796" 
d="M454 757h-131l80 155h169zM398 -14c-226 0 -373 160 -373 369s147 364 373 364c227 0 373 -155 373 -364s-146 -369 -373 -369zM398 130c112 0 177 90 177 225s-68 221 -177 221c-108 0 -176 -86 -176 -221s65 -225 176 -225z" />
    <glyph glyph-name="Ocircumflex" unicode="&#xd4;" horiz-adv-x="796" 
d="M398 823l-61 -66h-132l128 160h130l128 -160h-132zM398 -14c-226 0 -373 160 -373 369s147 364 373 364c227 0 373 -155 373 -364s-146 -369 -373 -369zM398 130c112 0 177 90 177 225s-68 221 -177 221c-108 0 -176 -86 -176 -221s65 -225 176 -225z" />
    <glyph glyph-name="Otilde" unicode="&#xd5;" horiz-adv-x="796" 
d="M463 872c31 0 55 12 83 39l8 -3l22 -95c-20 -27 -60 -52 -104 -52c-71 0 -100 34 -145 34c-37 0 -61 -11 -89 -38l-8 3l-22 95c20 29 60 51 104 51c71 0 100 -34 151 -34zM398 -14c-226 0 -373 160 -373 369s147 364 373 364c227 0 373 -155 373 -364
s-146 -369 -373 -369zM398 130c112 0 177 90 177 225s-68 221 -177 221c-108 0 -176 -86 -176 -221s65 -225 176 -225z" />
    <glyph glyph-name="Odieresis" unicode="&#xd6;" horiz-adv-x="796" 
d="M434 744v133h155v-133h-155zM207 744v133h155v-133h-155zM398 -14c-226 0 -373 160 -373 369s147 364 373 364c227 0 373 -155 373 -364s-146 -369 -373 -369zM398 130c112 0 177 90 177 225s-68 221 -177 221c-108 0 -176 -86 -176 -221s65 -225 176 -225z" />
    <glyph glyph-name="multiply" unicode="&#xd7;" horiz-adv-x="527" 
d="M405 119l-141 142l-142 -142l-86 86l142 141l-142 142l86 85l142 -141l141 141l85 -86l-141 -141l142 -141z" />
    <glyph glyph-name="Oslash" unicode="&#xd8;" horiz-adv-x="796" 
d="M218 355c0 -46 7 -86 21 -120l261 312c-28 19 -62 29 -102 29c-110 0 -180 -86 -180 -221zM398 130c114 0 180 90 180 225c0 50 -9 93 -25 127l-265 -316c29 -23 65 -36 110 -36zM398 -14c-82 0 -154 21 -212 58l-79 -94l-62 54l78 93c-63 65 -98 156 -98 258
c0 209 147 364 373 364c78 0 147 -18 203 -51l68 81l62 -54l-64 -77c66 -65 104 -157 104 -263c0 -209 -146 -369 -373 -369z" />
    <glyph glyph-name="Ugrave" unicode="&#xd9;" horiz-adv-x="720" 
d="M312 757l-117 155h168l80 -155h-131zM363 -12c-201 0 -312 101 -312 291v426h194v-423c0 -93 44 -140 126 -140c81 0 127 47 127 140v423h171v-426c0 -180 -106 -291 -306 -291z" />
    <glyph glyph-name="Uacute" unicode="&#xda;" horiz-adv-x="720" 
d="M420 757h-131l80 155h169zM363 -12c-201 0 -312 101 -312 291v426h194v-423c0 -93 44 -140 126 -140c81 0 127 47 127 140v423h171v-426c0 -180 -106 -291 -306 -291z" />
    <glyph glyph-name="Ucircumflex" unicode="&#xdb;" horiz-adv-x="720" 
d="M364 823l-61 -66h-132l128 160h130l128 -160h-132zM363 -12c-201 0 -312 101 -312 291v426h194v-423c0 -93 44 -140 126 -140c81 0 127 47 127 140v423h171v-426c0 -180 -106 -291 -306 -291z" />
    <glyph glyph-name="Udieresis" unicode="&#xdc;" horiz-adv-x="720" 
d="M363 -12c-201 0 -312 101 -312 291v426h194v-423c0 -93 44 -140 126 -140c81 0 127 47 127 140v423h171v-426c0 -180 -106 -291 -306 -291zM401 744v133h155v-133h-155zM174 744v133h155v-133h-155z" />
    <glyph glyph-name="Yacute" unicode="&#xdd;" horiz-adv-x="639" 
d="M418 0h-194v278l-220 419v8h198l130 -275l129 275h174v-8l-217 -413v-284zM392 757h-131l80 155h169z" />
    <glyph glyph-name="Thorn" unicode="&#xde;" horiz-adv-x="629" 
d="M329 452h-79v-187h81c73 0 100 32 100 97c0 64 -32 90 -102 90zM340 137h-90v-137h-191v705h191v-115h82c172 0 278 -69 278 -230c0 -153 -105 -223 -270 -223z" />
    <glyph glyph-name="germandbls" unicode="&#xdf;" horiz-adv-x="635" 
d="M265 142l7 3c20 -13 47 -26 90 -26s80 20 80 64c0 81 -166 107 -166 203c0 77 108 93 108 172c0 41 -33 70 -75 70c-50 0 -88 -28 -88 -100v-528h-175v508c0 178 112 244 267 244c147 0 244 -75 244 -181c0 -103 -110 -135 -110 -173c0 -44 174 -73 174 -227
c0 -120 -91 -185 -213 -185c-62 0 -109 12 -143 31v125z" />
    <glyph glyph-name="agrave" unicode="&#xe0;" horiz-adv-x="552" 
d="M255 100c38 0 65 16 83 40v98l-65 -9c-61 -9 -87 -27 -87 -67c0 -37 21 -62 69 -62zM361 0l-11 61c-28 -39 -72 -74 -151 -74c-102 0 -179 55 -179 164c0 115 81 157 216 175l102 13c0 70 -31 92 -104 92c-75 0 -121 -19 -164 -42l-7 2v129c43 25 109 43 200 43
c160 0 246 -62 246 -224v-339h-148zM219 597l-120 171h171l77 -171h-128z" />
    <glyph glyph-name="aacute" unicode="&#xe1;" horiz-adv-x="552" 
d="M255 100c38 0 65 16 83 40v98l-65 -9c-61 -9 -87 -27 -87 -67c0 -37 21 -62 69 -62zM361 0l-11 61c-28 -39 -72 -74 -151 -74c-102 0 -179 55 -179 164c0 115 81 157 216 175l102 13c0 70 -31 92 -104 92c-75 0 -121 -19 -164 -42l-7 2v129c43 25 109 43 200 43
c160 0 246 -62 246 -224v-339h-148zM324 597h-129l78 171h171z" />
    <glyph glyph-name="acircumflex" unicode="&#xe2;" horiz-adv-x="552" 
d="M255 100c38 0 65 16 83 40v98l-65 -9c-61 -9 -87 -27 -87 -67c0 -37 21 -62 69 -62zM361 0l-11 61c-28 -39 -72 -74 -151 -74c-102 0 -179 55 -179 164c0 115 81 157 216 175l102 13c0 70 -31 92 -104 92c-75 0 -121 -19 -164 -42l-7 2v129c43 25 109 43 200 43
c160 0 246 -62 246 -224v-339h-148zM269 665l-58 -68h-130l128 166h120l128 -166h-130z" />
    <glyph glyph-name="atilde" unicode="&#xe3;" horiz-adv-x="552" 
d="M255 100c38 0 65 16 83 40v98l-65 -9c-61 -9 -87 -27 -87 -67c0 -37 21 -62 69 -62zM361 0l-11 61c-28 -39 -72 -74 -151 -74c-102 0 -179 55 -179 164c0 115 81 157 216 175l102 13c0 70 -31 92 -104 92c-75 0 -121 -19 -164 -42l-7 2v129c43 25 109 43 200 43
c160 0 246 -62 246 -224v-339h-148zM337 719c31 0 55 12 83 39l8 -3l22 -95c-20 -27 -60 -52 -104 -52c-71 0 -100 36 -145 36c-37 0 -61 -11 -89 -38l-8 3l-22 95c20 29 60 51 104 51c71 0 100 -36 151 -36z" />
    <glyph glyph-name="adieresis" unicode="&#xe4;" horiz-adv-x="552" 
d="M255 100c38 0 65 16 83 40v98l-65 -9c-61 -9 -87 -27 -87 -67c0 -37 21 -62 69 -62zM361 0l-11 61c-28 -39 -72 -74 -151 -74c-102 0 -179 55 -179 164c0 115 81 157 216 175l102 13c0 70 -31 92 -104 92c-75 0 -121 -19 -164 -42l-7 2v129c43 25 109 43 200 43
c160 0 246 -62 246 -224v-339h-148zM93 611v136h148v-136h-148zM301 611v136h148v-136h-148z" />
    <glyph glyph-name="aring" unicode="&#xe5;" horiz-adv-x="552" 
d="M255 100c38 0 65 16 83 40v98l-65 -9c-61 -9 -87 -27 -87 -67c0 -37 21 -62 69 -62zM361 0l-11 61c-28 -39 -72 -74 -151 -74c-102 0 -179 55 -179 164c0 115 81 157 216 175l102 13c0 70 -31 92 -104 92c-75 0 -121 -19 -164 -42l-7 2v129c43 25 109 43 200 43
c160 0 246 -62 246 -224v-339h-148zM269 585c-71 0 -119 48 -119 115s48 115 119 115s119 -48 119 -115s-48 -115 -119 -115zM269 745c-26 0 -43 -19 -43 -45s17 -44 43 -44s43 18 43 44s-17 45 -43 45z" />
    <glyph glyph-name="ae" unicode="&#xe6;" horiz-adv-x="879" 
d="M612 447c-56 0 -93 -32 -105 -106h193c-4 71 -31 106 -88 106zM846 28c-37 -20 -103 -41 -198 -41c-113 0 -194 32 -246 89c-33 -48 -90 -89 -187 -89c-118 0 -194 53 -194 160c0 115 89 160 216 176l102 13c-1 75 -32 95 -110 95c-70 0 -115 -19 -158 -42l-7 2v129
c43 25 108 43 200 43c85 0 144 -19 179 -61c42 42 98 61 168 61c161 0 267 -97 246 -327h-352c12 -85 61 -120 159 -120c77 0 127 17 175 40l7 -3v-125zM252 100c52 0 88 24 101 65c-7 21 -12 44 -15 69l-64 -9c-61 -9 -87 -25 -87 -65c0 -37 21 -60 65 -60z" />
    <glyph glyph-name="ccedilla" unicode="&#xe7;" horiz-adv-x="502" 
d="M257 -232c-42 0 -70 11 -87 22v72l7 3c16 -9 34 -17 58 -17c26 0 38 12 38 30c0 23 -23 33 -62 37v86c-120 34 -191 130 -191 275c0 188 127 287 296 287c67 0 120 -14 150 -33v-127l-7 -3c-33 21 -68 35 -121 35c-78 0 -141 -50 -141 -159c0 -110 59 -163 143 -163
c57 0 95 17 130 41l8 -3v-121c-31 -23 -83 -43 -159 -43c-10 0 -20 0 -29 1v-29c47 -11 87 -28 87 -92c0 -63 -46 -99 -120 -99z" />
    <glyph glyph-name="egrave" unicode="&#xe8;" horiz-adv-x="563" 
d="M296 447c-56 0 -93 -32 -105 -106h193c-4 71 -31 106 -88 106zM530 28c-37 -20 -103 -41 -198 -41c-211 0 -312 111 -312 293c0 166 109 283 275 283c161 0 267 -98 246 -330h-352c13 -83 63 -117 159 -117c77 0 127 17 175 40l7 -3v-125zM241 597l-120 171h171l77 -171
h-128z" />
    <glyph glyph-name="eacute" unicode="&#xe9;" horiz-adv-x="563" 
d="M346 597h-129l78 171h171zM296 447c-56 0 -93 -32 -105 -106h193c-4 71 -31 106 -88 106zM530 28c-37 -20 -103 -41 -198 -41c-211 0 -312 111 -312 293c0 166 109 283 275 283c161 0 267 -98 246 -330h-352c13 -83 63 -117 159 -117c77 0 127 17 175 40l7 -3v-125z" />
    <glyph glyph-name="ecircumflex" unicode="&#xea;" horiz-adv-x="563" 
d="M291 665l-58 -68h-130l128 166h120l128 -166h-130zM296 447c-56 0 -93 -32 -105 -106h193c-4 71 -31 106 -88 106zM530 28c-37 -20 -103 -41 -198 -41c-211 0 -312 111 -312 293c0 166 109 283 275 283c161 0 267 -98 246 -330h-352c13 -83 63 -117 159 -117
c77 0 127 17 175 40l7 -3v-125z" />
    <glyph glyph-name="edieresis" unicode="&#xeb;" horiz-adv-x="563" 
d="M115 611v136h148v-136h-148zM323 611v136h148v-136h-148zM296 447c-56 0 -93 -32 -105 -106h193c-4 71 -31 106 -88 106zM530 28c-37 -20 -103 -41 -198 -41c-211 0 -312 111 -312 293c0 166 109 283 275 283c161 0 267 -98 246 -330h-352c13 -83 63 -117 159 -117
c77 0 127 17 175 40l7 -3v-125z" />
    <glyph glyph-name="igrave" unicode="&#xec;" horiz-adv-x="271" 
d="M50 0v550h172v-550h-172zM85 597l-120 171h171l77 -171h-128z" />
    <glyph glyph-name="iacute" unicode="&#xed;" horiz-adv-x="271" 
d="M191 597h-129l78 171h171zM50 0v550h172v-550h-172z" />
    <glyph glyph-name="icircumflex" unicode="&#xee;" horiz-adv-x="271" 
d="M135 665l-58 -68h-130l128 166h120l128 -166h-130zM50 0v550h172v-550h-172z" />
    <glyph glyph-name="idieresis" unicode="&#xef;" horiz-adv-x="271" 
d="M-18 611v130h130v-130h-130zM159 611v130h130v-130h-130zM50 0v550h172v-550h-172z" />
    <glyph glyph-name="eth" unicode="&#xf0;" horiz-adv-x="628" 
d="M313 -13c-167 0 -293 107 -293 292c0 184 111 281 238 281c43 0 81 -13 112 -37c-25 33 -57 62 -96 91l-140 -45l-23 60l97 31c-37 25 -77 49 -120 76l2 6h222c17 -10 35 -20 52 -32l110 36l23 -60l-70 -22c101 -83 179 -195 179 -345c0 -236 -127 -332 -293 -332z
M313 112c73 0 119 48 119 181c0 37 -3 76 -9 111c-29 26 -66 40 -106 40c-74 0 -122 -59 -122 -171c0 -109 49 -161 118 -161z" />
    <glyph glyph-name="ntilde" unicode="&#xf1;" horiz-adv-x="600" 
d="M307 427c-35 0 -63 -11 -89 -32v-395h-172v550h151l11 -72c38 43 88 85 173 85c102 0 177 -58 177 -193v-370h-173v342c0 62 -32 85 -78 85zM370 719c31 0 55 12 83 39l8 -3l22 -95c-20 -27 -60 -52 -104 -52c-71 0 -100 36 -145 36c-37 0 -61 -11 -89 -38l-8 3l-22 95
c20 29 60 51 104 51c71 0 100 -36 151 -36z" />
    <glyph glyph-name="ograve" unicode="&#xf2;" horiz-adv-x="628" 
d="M314 -13c-168 0 -294 110 -294 289s126 287 294 287s295 -108 295 -287s-127 -289 -295 -289zM314 112c72 0 120 53 120 163s-48 163 -120 163c-71 0 -119 -53 -119 -163s48 -163 119 -163zM264 597l-120 171h171l77 -171h-128z" />
    <glyph glyph-name="oacute" unicode="&#xf3;" horiz-adv-x="628" 
d="M370 597h-129l78 171h171zM314 -13c-168 0 -294 110 -294 289s126 287 294 287s295 -108 295 -287s-127 -289 -295 -289zM314 112c72 0 120 53 120 163s-48 163 -120 163c-71 0 -119 -53 -119 -163s48 -163 119 -163z" />
    <glyph glyph-name="ocircumflex" unicode="&#xf4;" horiz-adv-x="628" 
d="M314 665l-58 -68h-130l128 166h120l128 -166h-130zM314 -13c-168 0 -294 110 -294 289s126 287 294 287s295 -108 295 -287s-127 -289 -295 -289zM314 112c72 0 120 53 120 163s-48 163 -120 163c-71 0 -119 -53 -119 -163s48 -163 119 -163z" />
    <glyph glyph-name="otilde" unicode="&#xf5;" horiz-adv-x="628" 
d="M314 -13c-168 0 -294 110 -294 289s126 287 294 287s295 -108 295 -287s-127 -289 -295 -289zM314 112c72 0 120 53 120 163s-48 163 -120 163c-71 0 -119 -53 -119 -163s48 -163 119 -163zM382 719c31 0 55 12 83 39l8 -3l22 -95c-20 -27 -60 -52 -104 -52
c-71 0 -100 36 -145 36c-37 0 -61 -11 -89 -38l-8 3l-22 95c20 29 60 51 104 51c71 0 100 -36 151 -36z" />
    <glyph glyph-name="odieresis" unicode="&#xf6;" horiz-adv-x="628" 
d="M138 611v136h148v-136h-148zM346 611v136h148v-136h-148zM314 -13c-168 0 -294 110 -294 289s126 287 294 287s295 -108 295 -287s-127 -289 -295 -289zM314 112c72 0 120 53 120 163s-48 163 -120 163c-71 0 -119 -53 -119 -163s48 -163 119 -163z" />
    <glyph glyph-name="divide" unicode="&#xf7;" horiz-adv-x="531" 
d="M188 467v139h156v-139h-156zM37 286v119h457v-119h-457zM188 85v139h156v-139h-156z" />
    <glyph glyph-name="oslash" unicode="&#xf8;" horiz-adv-x="629" 
d="M195 275c0 -29 3 -54 10 -75l177 216c-19 15 -42 22 -68 22c-71 0 -119 -53 -119 -163zM314 112c72 0 120 53 120 163c0 32 -4 59 -12 82l-180 -220c20 -17 44 -25 72 -25zM314 -13c-60 0 -116 14 -161 41l-55 -67l-53 44l53 65c-49 50 -78 120 -78 206
c0 179 126 287 294 287c59 0 112 -13 157 -38l60 73l53 -44l-57 -70c51 -49 82 -120 82 -208c0 -179 -127 -289 -295 -289z" />
    <glyph glyph-name="ugrave" unicode="&#xf9;" horiz-adv-x="604" 
d="M407 0l-11 67c-38 -43 -90 -80 -169 -80c-109 0 -185 62 -185 193v370h172v-342c0 -62 32 -85 80 -85c35 0 65 9 92 30v397h172v-550h-151zM250 597l-120 171h171l77 -171h-128z" />
    <glyph glyph-name="uacute" unicode="&#xfa;" horiz-adv-x="604" 
d="M356 597h-129l78 171h171zM407 0l-11 67c-38 -43 -90 -80 -169 -80c-109 0 -185 62 -185 193v370h172v-342c0 -62 32 -85 80 -85c35 0 65 9 92 30v397h172v-550h-151z" />
    <glyph glyph-name="ucircumflex" unicode="&#xfb;" horiz-adv-x="604" 
d="M301 665l-58 -68h-130l128 166h120l128 -166h-130zM407 0l-11 67c-38 -43 -90 -80 -169 -80c-109 0 -185 62 -185 193v370h172v-342c0 -62 32 -85 80 -85c35 0 65 9 92 30v397h172v-550h-151z" />
    <glyph glyph-name="udieresis" unicode="&#xfc;" horiz-adv-x="604" 
d="M125 611v136h148v-136h-148zM333 611v136h148v-136h-148zM407 0l-11 67c-38 -43 -90 -80 -169 -80c-109 0 -185 62 -185 193v370h172v-342c0 -62 32 -85 80 -85c35 0 65 9 92 30v397h172v-550h-151z" />
    <glyph glyph-name="yacute" unicode="&#xfd;" horiz-adv-x="577" 
d="M75 -207v136c66 6 100 27 114 62l14 34l-197 517v8h181l112 -323l111 323h160v-8l-209 -575c-45 -125 -117 -164 -286 -174zM354 597h-129l78 171h171z" />
    <glyph glyph-name="thorn" unicode="&#xfe;" horiz-adv-x="624" 
d="M316 114c69 0 112 57 112 165c0 105 -46 151 -110 151c-46 0 -75 -15 -99 -41v-240c25 -23 54 -35 97 -35zM369 -13c-67 0 -115 24 -150 62v-243h-173v916l173 29v-261c36 47 86 73 156 73c133 0 228 -95 228 -284c0 -193 -101 -292 -234 -292z" />
    <glyph glyph-name="ydieresis" unicode="&#xff;" horiz-adv-x="577" 
d="M75 -207v136c66 6 100 27 114 62l14 34l-197 517v8h181l112 -323l111 323h160v-8l-209 -575c-45 -125 -117 -164 -286 -174zM122 611v136h148v-136h-148zM330 611v136h148v-136h-148z" />
    <glyph glyph-name="dotlessi" unicode="&#x131;" horiz-adv-x="272" 
d="M50 0v550h172v-550h-172z" />
    <glyph glyph-name="Lslash" unicode="&#x141;" horiz-adv-x="541" 
d="M67 0v241l-64 -24v108l64 24v356h192v-285l168 63v-108l-168 -63v-163h251v-149h-443z" />
    <glyph glyph-name="lslash" unicode="&#x142;" horiz-adv-x="301" 
d="M234 0h-172v326l-53 -24v120l53 24v276l172 29v-226l60 27v-120l-60 -27v-405z" />
    <glyph glyph-name="OE" unicode="&#x152;" horiz-adv-x="967" 
d="M406 139h56v427h-56c-116 0 -184 -84 -184 -211s65 -216 184 -216zM402 0c-230 0 -377 154 -377 355s147 350 377 350h520v-139h-269v-140h229v-130h-229v-157h273v-139h-524z" />
    <glyph glyph-name="oe" unicode="&#x153;" horiz-adv-x="977" 
d="M710 447c-56 0 -93 -32 -105 -106h193c-4 71 -31 106 -88 106zM314 112c72 0 120 53 120 163s-48 163 -120 163c-71 0 -119 -53 -119 -163s48 -163 119 -163zM944 28c-37 -20 -103 -41 -198 -41c-107 0 -181 30 -228 83c-48 -52 -118 -83 -204 -83
c-168 0 -294 110 -294 289s126 287 294 287c86 0 156 -30 204 -82c44 51 108 82 191 82c161 0 267 -98 246 -330h-352c13 -83 63 -117 159 -117c77 0 127 17 175 40l7 -3v-125z" />
    <glyph glyph-name="Scaron" unicode="&#x160;" horiz-adv-x="548" 
d="M278 851l61 66h132l-128 -160h-130l-128 160h132zM244 -13c-99 0 -166 23 -213 50v159l6 3c56 -37 116 -65 196 -65c66 0 98 26 98 67c0 38 -24 49 -90 71l-48 14c-107 33 -166 99 -166 210c0 141 99 222 252 222c80 0 145 -15 189 -39v-152l-6 -3
c-52 31 -108 48 -176 48c-59 0 -87 -24 -87 -57s18 -51 74 -69l46 -14c138 -39 194 -95 194 -215c0 -147 -99 -230 -269 -230z" />
    <glyph glyph-name="scaron" unicode="&#x161;" horiz-adv-x="460" 
d="M234 696l58 67h130l-128 -166h-120l-128 166h130zM215 -12c-93 0 -148 20 -192 47v129l6 3c45 -34 106 -56 172 -56c54 0 79 18 79 47c0 26 -15 34 -64 46l-49 12c-87 21 -146 71 -146 168c0 109 81 180 215 180c73 0 127 -12 169 -30v-124l-6 -3c-38 20 -95 36 -158 36
c-52 0 -68 -16 -68 -42c0 -25 15 -36 52 -45l49 -12c112 -28 166 -65 166 -166c0 -120 -86 -190 -225 -190z" />
    <glyph glyph-name="Ydieresis" unicode="&#x178;" horiz-adv-x="639" 
d="M418 0h-194v278l-220 419v8h198l130 -275l129 275h174v-8l-217 -413v-284zM367 744v133h155v-133h-155zM140 744v133h155v-133h-155z" />
    <glyph glyph-name="Zcaron" unicode="&#x17d;" horiz-adv-x="611" 
d="M309 851l61 66h132l-128 -160h-130l-128 160h132zM583 0h-571v71l321 493h-285v141h534v-80l-313 -483h314v-142z" />
    <glyph glyph-name="zcaron" unicode="&#x17e;" horiz-adv-x="496" 
d="M258 696l58 67h130l-128 -166h-120l-128 166h130zM477 0h-459v45l233 379h-207v126h437v-51l-229 -372h225v-127z" />
    <glyph glyph-name="circumflex" unicode="&#x2c6;" 
d="M200 665l-58 -68h-130l128 166h120l128 -166h-130z" />
    <glyph glyph-name="caron" unicode="&#x2c7;" 
d="M200 696l58 67h130l-128 -166h-120l-128 166h130z" />
    <glyph glyph-name="breve" unicode="&#x2d8;" 
d="M200 597c-94 0 -162 59 -171 159h108c7 -38 28 -57 63 -57s55 20 63 57h108c-10 -100 -77 -159 -171 -159z" />
    <glyph glyph-name="dotaccent" unicode="&#x2d9;" 
d="M118 611v135h164v-135h-164z" />
    <glyph glyph-name="ring" unicode="&#x2da;" 
d="M200 585c-71 0 -119 48 -119 115s48 115 119 115s119 -48 119 -115s-48 -115 -119 -115zM200 745c-26 0 -43 -19 -43 -45s17 -44 43 -44s43 18 43 44s-17 45 -43 45z" />
    <glyph glyph-name="ogonek" unicode="&#x2db;" horiz-adv-x="402" 
d="M312 -200c-21 -9 -50 -17 -90 -17c-87 0 -130 37 -130 95c0 51 28 85 94 122h105c-49 -37 -64 -61 -64 -85c0 -21 10 -35 42 -35c15 0 26 3 37 8l6 -3v-85z" />
    <glyph glyph-name="tilde" unicode="&#x2dc;" horiz-adv-x="384" 
d="M263 719c31 0 55 12 83 39l8 -3l22 -95c-20 -27 -60 -52 -104 -52c-71 0 -100 36 -145 36c-37 0 -61 -11 -89 -38l-8 3l-22 95c20 29 60 51 104 51c71 0 100 -36 151 -36z" />
    <glyph glyph-name="hungarumlaut" unicode="&#x2dd;" 
d="M156 597h-106l45 171h148zM338 597h-106l50 171h148z" />
    <glyph glyph-name="endash" unicode="&#x2013;" horiz-adv-x="527" 
d="M30 265v115h467v-115h-467z" />
    <glyph glyph-name="emdash" unicode="&#x2014;" horiz-adv-x="969" 
d="M30 265v115h909v-115h-909z" />
    <glyph glyph-name="quoteleft" unicode="&#x2018;" horiz-adv-x="233" 
d="M22 467l-3 10l68 228h117l-24 -238h-158z" />
    <glyph glyph-name="quoteright" unicode="&#x2019;" horiz-adv-x="234" 
d="M211 705l4 -10l-69 -228h-117l24 238h158z" />
    <glyph glyph-name="quotesinglbase" unicode="&#x201a;" horiz-adv-x="233" 
d="M206 157l3 -10l-68 -228h-117l24 238h158z" />
    <glyph glyph-name="quotedblleft" unicode="&#x201c;" horiz-adv-x="433" 
d="M22 467l-3 10l68 228h117l-24 -238h-158zM222 467l-4 10l69 228h117l-24 -238h-158z" />
    <glyph glyph-name="quotedblright" unicode="&#x201d;" horiz-adv-x="433" 
d="M411 705l3 -10l-68 -228h-117l24 238h158zM211 705l4 -10l-69 -228h-117l24 238h158z" />
    <glyph glyph-name="quotedblbase" unicode="&#x201e;" horiz-adv-x="433" 
d="M206 157l4 -10l-69 -228h-117l24 238h158zM406 157l3 -10l-68 -228h-117l24 238h158z" />
    <glyph glyph-name="dagger" unicode="&#x2020;" horiz-adv-x="398" 
d="M372 469h-106v-310h-134v310h-106v121h106v116l134 23v-139h106v-121z" />
    <glyph glyph-name="daggerdbl" unicode="&#x2021;" horiz-adv-x="398" 
d="M266 159l-134 -23v132h-106v112h106v105h-106v112h106v109l134 23v-132h106v-112h-106v-105h106v-112h-106v-109z" />
    <glyph glyph-name="bullet" unicode="&#x2022;" horiz-adv-x="362" 
d="M181 454c84 0 148 -66 148 -151s-64 -151 -148 -151c-85 0 -149 66 -149 151s64 151 149 151z" />
    <glyph glyph-name="ellipsis" unicode="&#x2026;" horiz-adv-x="824" 
d="M44 0v157h182v-157h-182zM321 0v157h182v-157h-182zM598 0v157h182v-157h-182z" />
    <glyph glyph-name="perthousand" unicode="&#x2030;" horiz-adv-x="1214" 
d="M200 348c-110 0 -182 74 -182 176c0 99 72 175 182 175c111 0 182 -76 182 -175c0 -102 -71 -176 -182 -176zM127 0l471 690h92l-471 -690h-92zM200 438c40 0 61 34 61 86c0 50 -21 85 -61 85s-62 -35 -62 -85c0 -52 22 -86 62 -86zM1013 -14c-110 0 -182 74 -182 176
c0 99 72 175 182 175c112 0 183 -76 183 -175c0 -102 -71 -176 -183 -176zM614 -14c-110 0 -183 74 -183 176c0 99 73 175 183 175c111 0 182 -76 182 -175c0 -102 -71 -176 -182 -176zM1013 76c41 0 62 35 62 86s-21 85 -62 85c-39 0 -61 -34 -61 -85s22 -86 61 -86z
M614 76c40 0 61 35 61 86s-21 85 -61 85s-62 -34 -62 -85s22 -86 62 -86z" />
    <glyph glyph-name="guilsinglleft" unicode="&#x2039;" horiz-adv-x="249" 
d="M115 74l-101 186l106 186h110l-104 -186l98 -186h-109z" />
    <glyph glyph-name="guilsinglright" unicode="&#x203a;" horiz-adv-x="249" 
d="M24 74l98 186l-103 186h109l107 -186l-101 -186h-110z" />
    <glyph glyph-name="fraction" unicode="&#x2044;" horiz-adv-x="156" 
d="M-238 0l535 690h97l-536 -690h-96z" />
    <glyph glyph-name="Euro" unicode="&#x20ac;" horiz-adv-x="569" 
d="M547 38c-37 -25 -85 -50 -167 -50c-165 0 -273 90 -307 246h-61v89h50c-1 9 -1 18 -1 27v21h-49v87h60c36 159 154 239 296 239c73 0 125 -16 164 -40v-133l-8 -4c-46 29 -76 41 -135 41c-68 0 -118 -33 -141 -103h174v-87h-189c-1 -8 -1 -16 -1 -25v-23h190v-89h-175
c23 -72 73 -108 147 -108c60 0 98 19 146 54l7 -4v-138z" />
    <glyph glyph-name="trademark" unicode="&#x2122;" horiz-adv-x="747" 
d="M288 596h-87v-244h-111v244h-86v92h284v-92zM614 352l-27 147l-64 -148h-44l-63 148l-26 -147h-97l57 337h75l81 -181l75 181h83l57 -337h-107z" />
    <glyph glyph-name="minus" unicode="&#x2212;" horiz-adv-x="531" 
d="M37 285v122h457v-122h-457z" />
    <glyph glyph-name="Dcroat" unicode="&#x110;" horiz-adv-x="748" 
d="M395 295h-132v-153h50c128 0 215 50 215 207c0 154 -87 214 -215 214h-50v-141h132v-127zM71 0v295h-63v127h63v283h253c225 0 399 -103 399 -356c0 -254 -174 -349 -399 -349h-253z" />
    <glyph glyph-name="Eng" unicode="&#x14a;" horiz-adv-x="745" 
d="M399 -198v138c75 12 101 34 101 122v16l-276 316v-394h-165v712h115l347 -397v390h165v-633l-1 -1v-11c0 -167 -70 -246 -286 -258z" />
    <glyph glyph-name="IJ" unicode="&#x132;" horiz-adv-x="639" 
d="M286 -198v138c75 12 100 34 100 122v643h194v-640c0 -172 -63 -250 -294 -263zM61 0v705h193v-705h-193z" />
    <glyph glyph-name="dcroat" unicode="&#x111;" horiz-adv-x="622" 
d="M305 120c44 0 74 13 99 36v245c-25 23 -54 35 -96 35c-70 0 -113 -57 -113 -165c0 -105 46 -151 110 -151zM436 0l-17 71c-38 -53 -91 -84 -168 -84c-137 0 -230 95 -230 284c0 193 100 292 235 292c66 0 113 -24 148 -62v94h-139v82h139v45l172 29v-74h53v-82h-53v-595
h-140z" />
    <glyph glyph-name="eng" unicode="&#x14b;" horiz-adv-x="601" 
d="M313 -211v130c50 6 72 23 72 92v331c0 62 -32 85 -78 85c-35 0 -63 -11 -89 -32v-395h-172v550h151l11 -72c38 43 88 85 173 85c102 0 177 -58 177 -193v-370c0 -146 -83 -202 -245 -211z" />
    <glyph glyph-name="ij" unicode="&#x133;" horiz-adv-x="548" 
d="M330 606v139h171v-139h-171zM48 606v139h171v-139h-171zM48 0v550h172v-550h-172zM258 -211v130c49 6 72 23 72 92v539h172v-550c0 -146 -83 -202 -244 -211z" />
    <glyph glyph-name="Abreve" unicode="&#x102;" horiz-adv-x="710" 
d="M413 241l-71 187l-72 -187h143zM505 0l-44 115h-238l-44 -115h-173v8l299 703h101l299 -703v-8h-200zM356 753c-97 0 -165 58 -174 158h112c7 -37 29 -56 62 -56s54 20 62 56h112c-9 -100 -77 -158 -174 -158z" />
    <glyph glyph-name="Amacron" unicode="&#x100;" horiz-adv-x="710" 
d="M413 241l-71 187l-72 -187h143zM505 0l-44 115h-238l-44 -115h-173v8l299 703h101l299 -703v-8h-200zM184 775v110h341v-110h-341z" />
    <glyph glyph-name="Aogonek" unicode="&#x104;" horiz-adv-x="710" 
d="M617 -217c-87 0 -130 37 -130 95c0 51 20 83 97 122h-79l-44 115h-238l-44 -115h-173v8l299 703h101l299 -703v-8c-54 -25 -83 -61 -83 -85c0 -21 10 -35 42 -35c15 0 26 3 37 8l6 -3v-85c-21 -9 -50 -17 -90 -17zM413 241l-71 187l-72 -187h143z" />
    <glyph glyph-name="Aringacute" unicode="&#x1fa;" horiz-adv-x="710" 
d="M413 241l-71 187l-72 -187h143zM505 0l-44 115h-238l-44 -115h-173v8l299 703h101l299 -703v-8h-200zM416 978h-131l80 155h169zM355 727c-71 0 -119 47 -119 115c0 67 48 115 119 115s119 -48 119 -115c0 -68 -48 -115 -119 -115zM355 887c-26 0 -43 -20 -43 -45
c0 -26 17 -45 43 -45s43 19 43 45c0 25 -17 45 -43 45z" />
    <glyph glyph-name="AEacute" unicode="&#x1fc;" horiz-adv-x="936" 
d="M646 757h-131l80 155h169zM457 263v251l-138 -251h138zM457 0v133h-209l-73 -133h-172v8l390 697h524v-139h-269v-140h229v-130h-229v-157h273v-139h-464z" />
    <glyph glyph-name="Cacute" unicode="&#x106;" horiz-adv-x="661" 
d="M416 -14c-239 0 -391 152 -391 369c0 219 156 364 383 364c92 0 153 -14 203 -40v-156l-7 -4c-49 35 -95 53 -172 53c-124 0 -209 -80 -209 -217c0 -136 85 -220 216 -220c77 0 128 20 179 61l8 -4v-152c-48 -32 -105 -54 -210 -54zM444 757h-131l80 155h169z" />
    <glyph glyph-name="Ccaron" unicode="&#x10c;" horiz-adv-x="661" 
d="M388 851l61 66h132l-128 -160h-130l-128 160h132zM416 -14c-239 0 -391 152 -391 369c0 219 156 364 383 364c92 0 153 -14 203 -40v-156l-7 -4c-49 35 -95 53 -172 53c-124 0 -209 -80 -209 -217c0 -136 85 -220 216 -220c77 0 128 20 179 61l8 -4v-152
c-48 -32 -105 -54 -210 -54z" />
    <glyph glyph-name="Ccircumflex" unicode="&#x108;" horiz-adv-x="661" 
d="M388 823l-61 -66h-132l128 160h130l128 -160h-132zM416 -14c-239 0 -391 152 -391 369c0 219 156 364 383 364c92 0 153 -14 203 -40v-156l-7 -4c-49 35 -95 53 -172 53c-124 0 -209 -80 -209 -217c0 -136 85 -220 216 -220c77 0 128 20 179 61l8 -4v-152
c-48 -32 -105 -54 -210 -54z" />
    <glyph glyph-name="Cdotaccent" unicode="&#x10a;" horiz-adv-x="661" 
d="M416 -14c-239 0 -391 152 -391 369c0 219 156 364 383 364c92 0 153 -14 203 -40v-156l-7 -4c-49 35 -95 53 -172 53c-124 0 -209 -80 -209 -217c0 -136 85 -220 216 -220c77 0 128 20 179 61l8 -4v-152c-48 -32 -105 -54 -210 -54zM306 765v135h164v-135h-164z" />
    <glyph glyph-name="Dcaron" unicode="&#x10e;" horiz-adv-x="736" 
d="M346 851l61 66h132l-128 -160h-130l-128 160h132zM301 563h-50v-421h50c128 0 214 50 214 207c0 154 -86 214 -214 214zM59 0v705h252c226 0 400 -103 400 -356c0 -254 -174 -349 -400 -349h-252z" />
    <glyph glyph-name="Ebreve" unicode="&#x114;" horiz-adv-x="564" 
d="M59 0v705h460v-139h-269v-136h230v-138h-230v-153h274v-139h-465zM291 753c-97 0 -165 58 -174 158h112c7 -37 29 -56 62 -56s54 20 62 56h112c-9 -100 -77 -158 -174 -158z" />
    <glyph glyph-name="Ecaron" unicode="&#x11a;" horiz-adv-x="564" 
d="M290 851l61 66h132l-128 -160h-130l-128 160h132zM59 0v705h460v-139h-269v-136h230v-138h-230v-153h274v-139h-465z" />
    <glyph glyph-name="Edotaccent" unicode="&#x116;" horiz-adv-x="564" 
d="M208 765v135h164v-135h-164zM59 0v705h460v-139h-269v-136h230v-138h-230v-153h274v-139h-465z" />
    <glyph glyph-name="Emacron" unicode="&#x112;" horiz-adv-x="564" 
d="M59 0v705h460v-139h-269v-136h230v-138h-230v-153h274v-139h-465zM120 775v110h341v-110h-341z" />
    <glyph glyph-name="Eogonek" unicode="&#x118;" horiz-adv-x="564" 
d="M59 0v705h460v-139h-269v-136h230v-138h-230v-153h274v-139h-50c-49 -37 -64 -61 -64 -85c0 -21 10 -35 42 -35c15 0 26 3 37 8l6 -3v-85c-21 -9 -50 -17 -90 -17c-87 0 -130 37 -130 95c0 51 28 85 94 122h-310z" />
    <glyph glyph-name="Gbreve" unicode="&#x11e;" horiz-adv-x="718" 
d="M399 753c-97 0 -165 58 -174 158h112c7 -37 29 -56 62 -56s54 20 62 56h112c-9 -100 -77 -158 -174 -158zM676 66c-55 -39 -131 -80 -265 -80c-243 0 -386 146 -386 369c0 221 160 364 392 364c109 0 180 -21 225 -46v-153l-7 -4c-52 31 -111 55 -196 55
c-137 0 -217 -81 -217 -221s65 -217 194 -217c28 0 53 3 76 10v125h-122v132h306v-334z" />
    <glyph glyph-name="Gcircumflex" unicode="&#x11c;" horiz-adv-x="718" 
d="M398 823l-61 -66h-132l128 160h130l128 -160h-132zM676 66c-55 -39 -131 -80 -265 -80c-243 0 -386 146 -386 369c0 221 160 364 392 364c109 0 180 -21 225 -46v-153l-7 -4c-52 31 -111 55 -196 55c-137 0 -217 -81 -217 -221s65 -217 194 -217c28 0 53 3 76 10v125
h-122v132h306v-334z" />
    <glyph glyph-name="uni0122" unicode="&#x122;" horiz-adv-x="718" 
d="M315 -241l9 185h144l3 -11l-53 -174h-103zM676 66c-55 -39 -131 -80 -265 -80c-243 0 -386 146 -386 369c0 221 160 364 392 364c109 0 180 -21 225 -46v-153l-7 -4c-52 31 -111 55 -196 55c-137 0 -217 -81 -217 -221s65 -217 194 -217c28 0 53 3 76 10v125h-122v132
h306v-334z" />
    <glyph glyph-name="Gdotaccent" unicode="&#x120;" horiz-adv-x="718" 
d="M316 765v135h164v-135h-164zM676 66c-55 -39 -131 -80 -265 -80c-243 0 -386 146 -386 369c0 221 160 364 392 364c109 0 180 -21 225 -46v-153l-7 -4c-52 31 -111 55 -196 55c-137 0 -217 -81 -217 -221s65 -217 194 -217c28 0 53 3 76 10v125h-122v132h306v-334z" />
    <glyph glyph-name="Hbar" unicode="&#x126;" horiz-adv-x="766" 
d="M514 433v82h-262v-82h262zM514 0v281h-262v-281h-193v515h-67v91h67v99h193v-99h262v99h194v-99h64v-91h-64v-515h-194z" />
    <glyph glyph-name="Hcircumflex" unicode="&#x124;" horiz-adv-x="766" 
d="M514 0v281h-262v-281h-193v705h193v-272h262v272h194v-705h-194zM383 823l-61 -66h-132l128 160h130l128 -160h-132z" />
    <glyph glyph-name="Ibreve" unicode="&#x12c;" horiz-adv-x="315" 
d="M61 0v705h193v-705h-193zM158 753c-97 0 -165 58 -174 158h112c7 -37 29 -56 62 -56s54 20 62 56h112c-9 -100 -77 -158 -174 -158z" />
    <glyph glyph-name="Idotaccent" unicode="&#x130;" horiz-adv-x="315" 
d="M61 0v705h193v-705h-193zM75 765v135h164v-135h-164z" />
    <glyph glyph-name="Imacron" unicode="&#x12a;" horiz-adv-x="315" 
d="M6 757v110h303v-110h-303zM61 0v705h193v-705h-193z" />
    <glyph glyph-name="Iogonek" unicode="&#x12e;" horiz-adv-x="315" 
d="M258 -200c-21 -9 -50 -17 -90 -17c-87 0 -130 37 -130 95c0 47 21 86 84 122h-61v705h193v-705c-66 -34 -81 -61 -81 -85c0 -21 10 -35 42 -35c15 0 26 3 37 8l6 -3v-85z" />
    <glyph glyph-name="Itilde" unicode="&#x128;" horiz-adv-x="315" 
d="M61 0v705h193v-705h-193zM222 872c31 0 55 12 83 39l8 -3l22 -95c-20 -27 -60 -52 -104 -52c-71 0 -100 34 -145 34c-37 0 -61 -11 -89 -38l-8 3l-22 95c20 29 60 51 104 51c71 0 100 -34 151 -34z" />
    <glyph glyph-name="Jcircumflex" unicode="&#x134;" horiz-adv-x="316" 
d="M159 823l-61 -66h-132l128 160h130l128 -160h-132zM-38 -198v138c75 12 101 34 101 122v643h193v-640c0 -172 -63 -250 -294 -263z" />
    <glyph glyph-name="uni0136" unicode="&#x136;" horiz-adv-x="695" 
d="M277 -241l9 185h144l3 -11l-53 -174h-103zM476 0l-163 284l-61 -80v-204h-193v705h193v-286l228 286h192v-7l-223 -274l236 -417v-7h-209z" />
    <glyph glyph-name="Lacute" unicode="&#x139;" horiz-adv-x="529" 
d="M205 757h-131l80 155h169zM59 0v705h193v-556h251v-149h-444z" />
    <glyph glyph-name="Lcaron" unicode="&#x13d;" horiz-adv-x="529" 
d="M291 543l7 162h119v-33l-30 -129h-96zM59 0v705h193v-556h251v-149h-444z" />
    <glyph glyph-name="uni013B" unicode="&#x13b;" horiz-adv-x="529" 
d="M194 -241l9 185h144l3 -11l-53 -174h-103zM59 0v705h193v-556h251v-149h-444z" />
    <glyph glyph-name="Ldot" unicode="&#x13f;" horiz-adv-x="552" 
d="M352 292v156h183v-156h-183zM59 0v705h192v-556h251v-149h-443z" />
    <glyph glyph-name="Nacute" unicode="&#x143;" horiz-adv-x="744" 
d="M686 -8h-111l-351 402v-394h-165v712h115l347 -397v390h165v-713zM427 757h-131l80 155h169z" />
    <glyph glyph-name="Ncaron" unicode="&#x147;" horiz-adv-x="744" 
d="M686 -8h-111l-351 402v-394h-165v712h115l347 -397v390h165v-713zM371 851l61 66h132l-128 -160h-130l-128 160h132z" />
    <glyph glyph-name="uni0145" unicode="&#x145;" horiz-adv-x="744" 
d="M296 -241l9 185h144l3 -11l-53 -174h-103zM686 -8h-111l-351 402v-394h-165v712h115l347 -397v390h165v-713z" />
    <glyph glyph-name="Obreve" unicode="&#x14e;" horiz-adv-x="796" 
d="M398 753c-97 0 -165 58 -174 158h112c7 -37 29 -56 62 -56s54 20 62 56h112c-9 -100 -77 -158 -174 -158zM398 -14c-226 0 -373 160 -373 369s147 364 373 364c227 0 373 -155 373 -364s-146 -369 -373 -369zM398 130c112 0 177 90 177 225s-68 221 -177 221
c-108 0 -176 -86 -176 -221s65 -225 176 -225z" />
    <glyph glyph-name="Ohungarumlaut" unicode="&#x150;" horiz-adv-x="796" 
d="M358 757h-114l42 152h158c-1 0 -86 -152 -86 -152zM558 757h-113l46 152h159c-3 0 -92 -152 -92 -152zM398 -14c-226 0 -373 160 -373 369s147 364 373 364c227 0 373 -155 373 -364s-146 -369 -373 -369zM398 130c112 0 177 90 177 225s-68 221 -177 221
c-108 0 -176 -86 -176 -221s65 -225 176 -225z" />
    <glyph glyph-name="Omacron" unicode="&#x14c;" horiz-adv-x="796" 
d="M227 775v110h341v-110h-341zM398 -14c-226 0 -373 160 -373 369s147 364 373 364c227 0 373 -155 373 -364s-146 -369 -373 -369zM398 130c112 0 177 90 177 225s-68 221 -177 221c-108 0 -176 -86 -176 -221s65 -225 176 -225z" />
    <glyph glyph-name="Oslashacute" unicode="&#x1fe;" horiz-adv-x="796" 
d="M218 355c0 -46 7 -86 21 -120l261 312c-28 19 -62 29 -102 29c-110 0 -180 -86 -180 -221zM398 130c114 0 180 90 180 225c0 50 -9 93 -25 127l-265 -316c29 -23 65 -36 110 -36zM398 -14c-82 0 -154 21 -212 58l-79 -94l-62 54l78 93c-63 65 -98 156 -98 258
c0 209 147 364 373 364c78 0 147 -18 203 -51l68 81l62 -54l-64 -77c66 -65 104 -157 104 -263c0 -209 -146 -369 -373 -369zM454 757h-131l80 155h169z" />
    <glyph glyph-name="Racute" unicode="&#x154;" horiz-adv-x="661" 
d="M377 757h-131l80 155h169zM317 570h-67v-191h70c81 0 112 35 112 98c0 65 -34 93 -115 93zM459 0l-130 247h-79v-247h-191v705h278c184 0 278 -82 278 -223c0 -92 -42 -157 -114 -189l156 -283v-10h-198z" />
    <glyph glyph-name="Rcaron" unicode="&#x158;" horiz-adv-x="661" 
d="M321 851l61 66h132l-128 -160h-130l-128 160h132zM317 570h-67v-191h70c81 0 112 35 112 98c0 65 -34 93 -115 93zM459 0l-130 247h-79v-247h-191v705h278c184 0 278 -82 278 -223c0 -92 -42 -157 -114 -189l156 -283v-10h-198z" />
    <glyph glyph-name="uni0156" unicode="&#x156;" horiz-adv-x="661" 
d="M253 -241l9 185h144l3 -11l-53 -174h-103zM317 570h-67v-191h70c81 0 112 35 112 98c0 65 -34 93 -115 93zM459 0l-130 247h-79v-247h-191v705h278c184 0 278 -82 278 -223c0 -92 -42 -157 -114 -189l156 -283v-10h-198z" />
    <glyph glyph-name="Sacute" unicode="&#x15a;" horiz-adv-x="548" 
d="M244 -13c-99 0 -166 23 -213 50v159l6 3c56 -37 116 -65 196 -65c66 0 98 26 98 67c0 38 -24 49 -90 71l-48 14c-107 33 -166 99 -166 210c0 141 99 222 252 222c80 0 145 -15 189 -39v-152l-6 -3c-52 31 -108 48 -176 48c-59 0 -87 -24 -87 -57s18 -51 74 -69l46 -14
c138 -39 194 -95 194 -215c0 -147 -99 -230 -269 -230zM334 757h-131l80 155h169z" />
    <glyph glyph-name="uni015E" unicode="&#x15e;" horiz-adv-x="548" 
d="M245 -232c-42 0 -70 11 -87 22v72l7 3c16 -9 34 -17 58 -17c26 0 38 12 38 30c0 23 -23 33 -62 37v74c-75 5 -129 25 -168 48v159l6 3c56 -37 116 -65 196 -65c66 0 98 26 98 67c0 38 -24 49 -90 71l-48 14c-107 33 -166 99 -166 210c0 141 99 222 252 222
c80 0 145 -15 189 -39v-152l-6 -3c-52 31 -108 48 -176 48c-59 0 -87 -24 -87 -57s18 -51 74 -69l46 -14c138 -39 194 -95 194 -215c0 -137 -86 -218 -235 -229v-29c47 -11 87 -28 87 -92c0 -63 -46 -99 -120 -99z" />
    <glyph glyph-name="Scircumflex" unicode="&#x15c;" horiz-adv-x="548" 
d="M278 823l-61 -66h-132l128 160h130l128 -160h-132zM244 -13c-99 0 -166 23 -213 50v159l6 3c56 -37 116 -65 196 -65c66 0 98 26 98 67c0 38 -24 49 -90 71l-48 14c-107 33 -166 99 -166 210c0 141 99 222 252 222c80 0 145 -15 189 -39v-152l-6 -3
c-52 31 -108 48 -176 48c-59 0 -87 -24 -87 -57s18 -51 74 -69l46 -14c138 -39 194 -95 194 -215c0 -147 -99 -230 -269 -230z" />
    <glyph glyph-name="uni0218" unicode="&#x218;" horiz-adv-x="548" 
d="M184 -241l9 185h144l3 -11l-53 -174h-103zM244 -13c-99 0 -166 23 -213 50v159l6 3c56 -37 116 -65 196 -65c66 0 98 26 98 67c0 38 -24 49 -90 71l-48 14c-107 33 -166 99 -166 210c0 141 99 222 252 222c80 0 145 -15 189 -39v-152l-6 -3c-52 31 -108 48 -176 48
c-59 0 -87 -24 -87 -57s18 -51 74 -69l46 -14c138 -39 194 -95 194 -215c0 -147 -99 -230 -269 -230z" />
    <glyph glyph-name="Tcaron" unicode="&#x164;" horiz-adv-x="593" 
d="M296 851l61 66h132l-128 -160h-130l-128 160h132zM577 555h-184v-555h-194v555h-184v150h562v-150z" />
    <glyph glyph-name="Tcommaaccent" unicode="&#x162;" horiz-adv-x="593" 
d="M213 -241l9 185h144l3 -11l-53 -174h-103zM577 555h-184v-555h-194v555h-184v150h562v-150z" />
    <glyph glyph-name="uni021A" unicode="&#x21a;" horiz-adv-x="593" 
d="M213 -241l9 185h144l3 -11l-53 -174h-103zM577 555h-184v-555h-194v555h-184v150h562v-150z" />
    <glyph glyph-name="Tbar" unicode="&#x166;" horiz-adv-x="592" 
d="M526 301h-133v-301h-194v301h-132v113h132v141h-184v150h562v-150h-184v-141h133v-113z" />
    <glyph glyph-name="Ubreve" unicode="&#x16c;" horiz-adv-x="720" 
d="M363 -12c-201 0 -312 101 -312 291v426h194v-423c0 -93 44 -140 126 -140c81 0 127 47 127 140v423h171v-426c0 -180 -106 -291 -306 -291zM365 753c-97 0 -165 58 -174 158h112c7 -37 29 -56 62 -56s54 20 62 56h112c-9 -100 -77 -158 -174 -158z" />
    <glyph glyph-name="Uhungarumlaut" unicode="&#x170;" horiz-adv-x="720" 
d="M325 757h-114l42 152h158c-1 0 -86 -152 -86 -152zM525 757h-113l46 152h159c-3 0 -92 -152 -92 -152zM363 -12c-201 0 -312 101 -312 291v426h194v-423c0 -93 44 -140 126 -140c81 0 127 47 127 140v423h171v-426c0 -180 -106 -291 -306 -291z" />
    <glyph glyph-name="Umacron" unicode="&#x16a;" horiz-adv-x="720" 
d="M363 -12c-201 0 -312 101 -312 291v426h194v-423c0 -93 44 -140 126 -140c81 0 127 47 127 140v423h171v-426c0 -180 -106 -291 -306 -291zM194 775v110h341v-110h-341z" />
    <glyph glyph-name="Uogonek" unicode="&#x172;" horiz-adv-x="720" 
d="M423 -217c-87 0 -130 37 -130 95c0 46 24 78 79 110h-9c-201 0 -312 101 -312 291v426h194v-423c0 -93 44 -140 126 -140c81 0 127 47 127 140v423h171v-426c0 -108 -38 -190 -112 -241c-56 -39 -129 -65 -129 -120c0 -24 10 -38 42 -38c15 0 26 3 37 8l6 -3v-85
c-21 -9 -50 -17 -90 -17z" />
    <glyph glyph-name="Uring" unicode="&#x16e;" horiz-adv-x="720" 
d="M363 -12c-201 0 -312 101 -312 291v426h194v-423c0 -93 44 -140 126 -140c81 0 127 47 127 140v423h171v-426c0 -180 -106 -291 -306 -291zM368 717c-71 0 -119 47 -119 115c0 67 48 115 119 115s119 -48 119 -115c0 -68 -48 -115 -119 -115zM368 877
c-26 0 -43 -20 -43 -45c0 -26 17 -45 43 -45s43 19 43 45c0 25 -17 45 -43 45z" />
    <glyph glyph-name="Utilde" unicode="&#x168;" horiz-adv-x="720" 
d="M363 -12c-201 0 -312 101 -312 291v426h194v-423c0 -93 44 -140 126 -140c81 0 127 47 127 140v423h171v-426c0 -180 -106 -291 -306 -291zM429 872c31 0 55 12 83 39l8 -3l22 -95c-20 -27 -60 -52 -104 -52c-71 0 -100 34 -145 34c-37 0 -61 -11 -89 -38l-8 3l-22 95
c20 29 60 51 104 51c71 0 100 -34 151 -34z" />
    <glyph glyph-name="Wacute" unicode="&#x1e82;" horiz-adv-x="1004" 
d="M636 -6l-140 366l-141 -366h-113l-234 703v8h200l127 -385l85 225l-49 152v8h195l132 -375l120 375h176l2 -8l-232 -703h-128zM531 757h-131l80 155h169z" />
    <glyph glyph-name="Wcircumflex" unicode="&#x174;" horiz-adv-x="1004" 
d="M636 -6l-140 366l-141 -366h-113l-234 703v8h200l127 -385l85 225l-49 152v8h195l132 -375l120 375h176l2 -8l-232 -703h-128zM475 823l-61 -66h-132l128 160h130l128 -160h-132z" />
    <glyph glyph-name="Wdieresis" unicode="&#x1e84;" horiz-adv-x="1004" 
d="M636 -6l-140 366l-141 -366h-113l-234 703v8h200l127 -385l85 225l-49 152v8h195l132 -375l120 375h176l2 -8l-232 -703h-128zM512 744v133h155v-133h-155zM285 744v133h155v-133h-155z" />
    <glyph glyph-name="Wgrave" unicode="&#x1e80;" horiz-adv-x="1004" 
d="M636 -6l-140 366l-141 -366h-113l-234 703v8h200l127 -385l85 225l-49 152v8h195l132 -375l120 375h176l2 -8l-232 -703h-128zM423 757l-117 155h168l80 -155h-131z" />
    <glyph glyph-name="Ycircumflex" unicode="&#x176;" horiz-adv-x="639" 
d="M418 0h-194v278l-220 419v8h198l130 -275l129 275h174v-8l-217 -413v-284zM331 823l-61 -66h-132l128 160h130l128 -160h-132z" />
    <glyph glyph-name="Ygrave" unicode="&#x1ef2;" horiz-adv-x="639" 
d="M418 0h-194v278l-220 419v8h198l130 -275l129 275h174v-8l-217 -413v-284zM270 757l-117 155h168l80 -155h-131z" />
    <glyph glyph-name="Zacute" unicode="&#x179;" horiz-adv-x="611" 
d="M365 757h-131l80 155h169zM583 0h-571v71l321 493h-285v141h534v-80l-313 -483h314v-142z" />
    <glyph glyph-name="Zdotaccent" unicode="&#x17b;" horiz-adv-x="611" 
d="M227 765v135h164v-135h-164zM583 0h-571v71l321 493h-285v141h534v-80l-313 -483h314v-142z" />
    <glyph glyph-name="abreve" unicode="&#x103;" horiz-adv-x="552" 
d="M255 100c38 0 65 16 83 40v98l-65 -9c-61 -9 -87 -27 -87 -67c0 -37 21 -62 69 -62zM361 0l-11 61c-28 -39 -72 -74 -151 -74c-102 0 -179 55 -179 164c0 115 81 157 216 175l102 13c0 70 -31 92 -104 92c-75 0 -121 -19 -164 -42l-7 2v129c43 25 109 43 200 43
c160 0 246 -62 246 -224v-339h-148zM269 597c-94 0 -162 59 -171 159h108c7 -38 28 -57 63 -57s55 20 63 57h108c-10 -100 -77 -159 -171 -159z" />
    <glyph glyph-name="amacron" unicode="&#x101;" horiz-adv-x="552" 
d="M255 100c38 0 65 16 83 40v98l-65 -9c-61 -9 -87 -27 -87 -67c0 -37 21 -62 69 -62zM361 0l-11 61c-28 -39 -72 -74 -151 -74c-102 0 -179 55 -179 164c0 115 81 157 216 175l102 13c0 70 -31 92 -104 92c-75 0 -121 -19 -164 -42l-7 2v129c43 25 109 43 200 43
c160 0 246 -62 246 -224v-339h-148zM104 623v107h330v-107h-330z" />
    <glyph glyph-name="aogonek" unicode="&#x105;" horiz-adv-x="552" 
d="M255 100c38 0 65 16 83 40v98l-65 -9c-61 -9 -87 -27 -87 -67c0 -37 21 -62 69 -62zM516 -200c-21 -9 -50 -17 -90 -17c-87 0 -130 37 -130 95c0 48 26 85 95 122h-30l-11 61c-28 -39 -72 -74 -151 -74c-102 0 -179 55 -179 164c0 115 81 157 216 175l102 13
c0 70 -31 92 -104 92c-75 0 -121 -19 -164 -42l-7 2v129c43 25 109 43 200 43c160 0 246 -62 246 -224v-339c-49 -31 -78 -61 -78 -85c0 -21 10 -35 42 -35c15 0 26 3 37 8l6 -3v-85z" />
    <glyph glyph-name="aringacute" unicode="&#x1fb;" horiz-adv-x="552" 
d="M255 100c38 0 65 16 83 40v98l-65 -9c-61 -9 -87 -27 -87 -67c0 -37 21 -62 69 -62zM361 0l-11 61c-28 -39 -72 -74 -151 -74c-102 0 -179 55 -179 164c0 115 81 157 216 175l102 13c0 70 -31 92 -104 92c-75 0 -121 -19 -164 -42l-7 2v129c43 25 109 43 200 43
c160 0 246 -62 246 -224v-339h-148zM273 585c-71 0 -119 48 -119 115s48 115 119 115s119 -48 119 -115s-48 -115 -119 -115zM273 745c-26 0 -43 -19 -43 -45s17 -44 43 -44s43 18 43 44s-17 45 -43 45zM334 844h-131l80 155h169z" />
    <glyph glyph-name="aeacute" unicode="&#x1fd;" horiz-adv-x="878" 
d="M507 597h-129l78 171h171zM612 447c-56 0 -93 -32 -105 -106h193c-4 71 -31 106 -88 106zM846 28c-37 -20 -103 -41 -198 -41c-113 0 -194 32 -246 89c-33 -48 -90 -89 -187 -89c-118 0 -194 53 -194 160c0 115 89 160 216 176l102 13c-1 75 -32 95 -110 95
c-70 0 -115 -19 -158 -42l-7 2v129c43 25 108 43 200 43c85 0 144 -19 179 -61c42 42 98 61 168 61c161 0 267 -97 246 -327h-352c12 -85 61 -120 159 -120c77 0 127 17 175 40l7 -3v-125zM252 100c52 0 88 24 101 65c-7 21 -12 44 -15 69l-64 -9c-61 -9 -87 -25 -87 -65
c0 -37 21 -60 65 -60z" />
    <glyph glyph-name="cacute" unicode="&#x107;" horiz-adv-x="502" 
d="M347 597h-129l78 171h171zM319 -13c-184 0 -299 104 -299 289c0 188 127 287 296 287c67 0 120 -14 150 -33v-127l-7 -3c-33 21 -68 35 -121 35c-78 0 -141 -50 -141 -159c0 -110 59 -163 143 -163c57 0 95 17 130 41l8 -3v-121c-31 -23 -83 -43 -159 -43z" />
    <glyph glyph-name="ccaron" unicode="&#x10d;" horiz-adv-x="502" 
d="M291 696l58 67h130l-128 -166h-120l-128 166h130zM319 -13c-184 0 -299 104 -299 289c0 188 127 287 296 287c67 0 120 -14 150 -33v-127l-7 -3c-33 21 -68 35 -121 35c-78 0 -141 -50 -141 -159c0 -110 59 -163 143 -163c57 0 95 17 130 41l8 -3v-121
c-31 -23 -83 -43 -159 -43z" />
    <glyph glyph-name="ccircumflex" unicode="&#x109;" horiz-adv-x="502" 
d="M291 665l-58 -68h-130l128 166h120l128 -166h-130zM319 -13c-184 0 -299 104 -299 289c0 188 127 287 296 287c67 0 120 -14 150 -33v-127l-7 -3c-33 21 -68 35 -121 35c-78 0 -141 -50 -141 -159c0 -110 59 -163 143 -163c57 0 95 17 130 41l8 -3v-121
c-31 -23 -83 -43 -159 -43z" />
    <glyph glyph-name="cdotaccent" unicode="&#x10b;" horiz-adv-x="502" 
d="M319 -13c-184 0 -299 104 -299 289c0 188 127 287 296 287c67 0 120 -14 150 -33v-127l-7 -3c-33 21 -68 35 -121 35c-78 0 -141 -50 -141 -159c0 -110 59 -163 143 -163c57 0 95 17 130 41l8 -3v-121c-31 -23 -83 -43 -159 -43zM209 611v135h164v-135h-164z" />
    <glyph glyph-name="dcaron" unicode="&#x10f;" horiz-adv-x="624" 
d="M305 120c44 0 74 13 99 36v245c-25 23 -54 35 -96 35c-70 0 -113 -57 -113 -165c0 -105 46 -151 110 -151zM436 0l-17 71c-38 -53 -91 -84 -168 -84c-137 0 -230 95 -230 284c0 193 100 292 235 292c66 0 113 -24 148 -62v221l172 29v-751h-140zM613 581l7 162h119v-33
l-30 -129h-96z" />
    <glyph glyph-name="ebreve" unicode="&#x115;" horiz-adv-x="563" 
d="M296 447c-56 0 -93 -32 -105 -106h193c-4 71 -31 106 -88 106zM530 28c-37 -20 -103 -41 -198 -41c-211 0 -312 111 -312 293c0 166 109 283 275 283c161 0 267 -98 246 -330h-352c13 -83 63 -117 159 -117c77 0 127 17 175 40l7 -3v-125zM291 597
c-94 0 -162 59 -171 159h108c7 -38 28 -57 63 -57s55 20 63 57h108c-10 -100 -77 -159 -171 -159z" />
    <glyph glyph-name="ecaron" unicode="&#x11b;" horiz-adv-x="563" 
d="M291 696l58 67h130l-128 -166h-120l-128 166h130zM296 447c-56 0 -93 -32 -105 -106h193c-4 71 -31 106 -88 106zM530 28c-37 -20 -103 -41 -198 -41c-211 0 -312 111 -312 293c0 166 109 283 275 283c161 0 267 -98 246 -330h-352c13 -83 63 -117 159 -117
c77 0 127 17 175 40l7 -3v-125z" />
    <glyph glyph-name="edotaccent" unicode="&#x117;" horiz-adv-x="563" 
d="M296 447c-56 0 -93 -32 -105 -106h193c-4 71 -31 106 -88 106zM530 28c-37 -20 -103 -41 -198 -41c-211 0 -312 111 -312 293c0 166 109 283 275 283c161 0 267 -98 246 -330h-352c13 -83 63 -117 159 -117c77 0 127 17 175 40l7 -3v-125zM209 611v135h164v-135h-164z
" />
    <glyph glyph-name="emacron" unicode="&#x113;" horiz-adv-x="563" 
d="M296 447c-56 0 -93 -32 -105 -106h193c-4 71 -31 106 -88 106zM530 28c-37 -20 -103 -41 -198 -41c-211 0 -312 111 -312 293c0 166 109 283 275 283c161 0 267 -98 246 -330h-352c13 -83 63 -117 159 -117c77 0 127 17 175 40l7 -3v-125zM126 623v107h330v-107h-330z
" />
    <glyph glyph-name="eogonek" unicode="&#x119;" horiz-adv-x="563" 
d="M296 447c-56 0 -93 -32 -105 -106h193c-4 71 -31 106 -88 106zM486 -200c-21 -9 -50 -17 -90 -17c-87 0 -130 37 -130 95c0 45 24 76 85 109h-19c-211 0 -312 111 -312 293c0 166 109 283 275 283c161 0 267 -98 246 -330h-352c13 -83 63 -117 159 -117
c77 0 127 17 175 40l7 -3v-125c-12 -7 -28 -13 -47 -22c-64 -30 -82 -68 -82 -91c0 -21 10 -35 42 -35c15 0 26 3 37 8l6 -3v-85z" />
    <glyph glyph-name="gbreve" unicode="&#x11f;" horiz-adv-x="556" 
d="M262 291c45 0 77 31 77 83c0 53 -32 84 -77 84s-77 -31 -77 -84c0 -52 32 -83 77 -83zM262 -222c-174 0 -263 40 -262 128c0 30 14 56 29 69h134l3 -6c-5 -7 -10 -17 -10 -33c0 -31 31 -48 106 -48c84 0 124 29 124 67c0 26 -14 32 -53 34l-149 6
c-101 4 -143 54 -143 113c0 53 30 94 80 118c-58 31 -91 83 -91 149c0 109 91 187 231 187c45 0 87 -9 121 -24l166 19v-120h-72c10 -21 17 -46 17 -72c0 -97 -86 -171 -232 -171c-19 0 -37 1 -54 4c-16 -8 -26 -20 -26 -38c0 -19 15 -23 41 -24l152 -7
c110 -5 177 -48 177 -156c0 -118 -101 -195 -289 -195zM279 597c-94 0 -162 59 -171 159h108c7 -38 28 -57 63 -57s55 20 63 57h108c-10 -100 -77 -159 -171 -159z" />
    <glyph glyph-name="gcircumflex" unicode="&#x11d;" horiz-adv-x="556" 
d="M278 665l-58 -68h-130l128 166h120l128 -166h-130zM262 291c45 0 77 31 77 83c0 53 -32 84 -77 84s-77 -31 -77 -84c0 -52 32 -83 77 -83zM262 -222c-174 0 -263 40 -262 128c0 30 14 56 29 69h134l3 -6c-5 -7 -10 -17 -10 -33c0 -31 31 -48 106 -48c84 0 124 29 124 67
c0 26 -14 32 -53 34l-149 6c-101 4 -143 54 -143 113c0 53 30 94 80 118c-58 31 -91 83 -91 149c0 109 91 187 231 187c45 0 87 -9 121 -24l166 19v-120h-72c10 -21 17 -46 17 -72c0 -97 -86 -171 -232 -171c-19 0 -37 1 -54 4c-16 -8 -26 -20 -26 -38c0 -19 15 -23 41 -24
l152 -7c110 -5 177 -48 177 -156c0 -118 -101 -195 -289 -195z" />
    <glyph glyph-name="uni0123" unicode="&#x123;" horiz-adv-x="556" 
d="M353 782l-9 -185h-143l-5 8l55 177h102zM262 291c45 0 77 31 77 83c0 53 -32 84 -77 84s-77 -31 -77 -84c0 -52 32 -83 77 -83zM262 -222c-174 0 -263 40 -262 128c0 30 14 56 29 69h134l3 -6c-5 -7 -10 -17 -10 -33c0 -31 31 -48 106 -48c84 0 124 29 124 67
c0 26 -14 32 -53 34l-149 6c-101 4 -143 54 -143 113c0 53 30 94 80 118c-58 31 -91 83 -91 149c0 109 91 187 231 187c45 0 87 -9 121 -24l166 19v-120h-72c10 -21 17 -46 17 -72c0 -97 -86 -171 -232 -171c-19 0 -37 1 -54 4c-16 -8 -26 -20 -26 -38c0 -19 15 -23 41 -24
l152 -7c110 -5 177 -48 177 -156c0 -118 -101 -195 -289 -195z" />
    <glyph glyph-name="gdotaccent" unicode="&#x121;" horiz-adv-x="556" 
d="M262 291c45 0 77 31 77 83c0 53 -32 84 -77 84s-77 -31 -77 -84c0 -52 32 -83 77 -83zM262 -222c-174 0 -263 40 -262 128c0 30 14 56 29 69h134l3 -6c-5 -7 -10 -17 -10 -33c0 -31 31 -48 106 -48c84 0 124 29 124 67c0 26 -14 32 -53 34l-149 6
c-101 4 -143 54 -143 113c0 53 30 94 80 118c-58 31 -91 83 -91 149c0 109 91 187 231 187c45 0 87 -9 121 -24l166 19v-120h-72c10 -21 17 -46 17 -72c0 -97 -86 -171 -232 -171c-19 0 -37 1 -54 4c-16 -8 -26 -20 -26 -38c0 -19 15 -23 41 -24l152 -7
c110 -5 177 -48 177 -156c0 -118 -101 -195 -289 -195zM196 611v135h164v-135h-164z" />
    <glyph glyph-name="hbar" unicode="&#x127;" horiz-adv-x="601" 
d="M307 427c-35 0 -62 -12 -89 -33v-394h-172v595h-53v82h53v45l172 29v-74h139v-82h-139v-112c37 42 88 80 167 80c104 0 173 -58 173 -193v-370h-173v342c0 62 -32 85 -78 85z" />
    <glyph glyph-name="hcircumflex" unicode="&#x125;" horiz-adv-x="600" 
d="M307 427c-35 0 -62 -12 -89 -33v-394h-172v722l172 29v-268c37 42 88 80 167 80c104 0 173 -58 173 -193v-370h-173v342c0 62 -32 85 -78 85zM305 852l-61 -66h-132l128 160h130l128 -160h-132z" />
    <glyph glyph-name="ibreve" unicode="&#x12d;" horiz-adv-x="271" 
d="M50 0v550h172v-550h-172zM136 597c-94 0 -162 59 -171 159h108c7 -38 28 -57 63 -57s55 20 63 57h108c-10 -100 -77 -159 -171 -159z" />
    <glyph glyph-name="idotaccent" horiz-adv-x="268" 
d="M48 606v139h171v-139h-171zM48 0v550h172v-550h-172z" />
    <glyph glyph-name="imacron" unicode="&#x12b;" horiz-adv-x="271" 
d="M-3 623v107h277v-107h-277zM50 0v550h172v-550h-172z" />
    <glyph glyph-name="iogonek" unicode="&#x12f;" horiz-adv-x="271" 
d="M48 606v139h171v-139h-171zM228 -200c-21 -9 -50 -17 -90 -17c-87 0 -130 37 -130 95c0 46 24 88 87 122h-47v550h172v-550c-66 -34 -77 -61 -77 -85c0 -21 10 -35 42 -35c15 0 26 3 37 8l6 -3v-85z" />
    <glyph glyph-name="itilde" unicode="&#x129;" horiz-adv-x="271" 
d="M50 0v550h172v-550h-172zM204 719c31 0 55 12 83 39l8 -3l22 -95c-20 -27 -60 -52 -104 -52c-71 0 -100 36 -145 36c-37 0 -61 -11 -89 -38l-8 3l-22 95c20 29 60 51 104 51c71 0 100 -36 151 -36z" />
    <glyph glyph-name="jcircumflex" unicode="&#x135;" horiz-adv-x="268" 
d="M-24 -211v130c49 6 72 23 72 92v525h172v-536c0 -146 -83 -202 -244 -211zM134 665l-58 -68h-130l128 166h120l128 -166h-130z" />
    <glyph glyph-name="uni0137" unicode="&#x137;" horiz-adv-x="572" 
d="M208 -241l9 185h144l3 -11l-53 -174h-103zM380 0l-117 215l-45 -59v-156h-172v722l172 29v-419l164 218h172v-8l-162 -211l173 -323v-8h-185z" />
    <glyph glyph-name="lacute" unicode="&#x13a;" horiz-adv-x="270" 
d="M192 786h-131l80 155h169zM49 0v722l172 29v-751h-172z" />
    <glyph glyph-name="lcaron" unicode="&#x13e;" horiz-adv-x="272" 
d="M259 581l7 162h119v-33l-30 -129h-96zM49 0v722l172 29v-751h-172z" />
    <glyph glyph-name="uni013C" unicode="&#x13c;" horiz-adv-x="270" 
d="M52 -241l9 185h144l3 -11l-53 -174h-103zM49 0v722l172 29v-751h-172z" />
    <glyph glyph-name="ldot" unicode="&#x140;" horiz-adv-x="418" 
d="M49 0v722l172 29v-751h-172zM263 308v147h162v-147h-162z" />
    <glyph glyph-name="nacute" unicode="&#x144;" horiz-adv-x="600" 
d="M357 597h-129l78 171h171zM307 427c-35 0 -63 -11 -89 -32v-395h-172v550h151l11 -72c38 43 88 85 173 85c102 0 177 -58 177 -193v-370h-173v342c0 62 -32 85 -78 85z" />
    <glyph glyph-name="napostrophe" unicode="&#x149;" horiz-adv-x="663" 
d="M103 705l4 -10l-69 -228h-117l24 238h158zM369 427c-35 0 -63 -11 -89 -32v-395h-172v550h151l11 -72c38 43 88 85 173 85c102 0 177 -58 177 -193v-370h-173v342c0 62 -32 85 -78 85z" />
    <glyph glyph-name="ncaron" unicode="&#x148;" horiz-adv-x="600" 
d="M302 696l58 67h130l-128 -166h-120l-128 166h130zM307 427c-35 0 -63 -11 -89 -32v-395h-172v550h151l11 -72c38 43 88 85 173 85c102 0 177 -58 177 -193v-370h-173v342c0 62 -32 85 -78 85z" />
    <glyph glyph-name="uni0146" unicode="&#x146;" horiz-adv-x="600" 
d="M219 -241l9 185h144l3 -11l-53 -174h-103zM307 427c-35 0 -63 -11 -89 -32v-395h-172v550h151l11 -72c38 43 88 85 173 85c102 0 177 -58 177 -193v-370h-173v342c0 62 -32 85 -78 85z" />
    <glyph glyph-name="obreve" unicode="&#x14f;" horiz-adv-x="628" 
d="M314 -13c-168 0 -294 110 -294 289s126 287 294 287s295 -108 295 -287s-127 -289 -295 -289zM314 112c72 0 120 53 120 163s-48 163 -120 163c-71 0 -119 -53 -119 -163s48 -163 119 -163zM315 597c-94 0 -162 59 -171 159h108c7 -38 28 -57 63 -57s55 20 63 57h108
c-10 -100 -77 -159 -171 -159z" />
    <glyph glyph-name="ohungarumlaut" unicode="&#x151;" horiz-adv-x="628" 
d="M278 597h-106l45 171h148zM460 597h-106l50 171h148zM314 -13c-168 0 -294 110 -294 289s126 287 294 287s295 -108 295 -287s-127 -289 -295 -289zM314 112c72 0 120 53 120 163s-48 163 -120 163c-71 0 -119 -53 -119 -163s48 -163 119 -163z" />
    <glyph glyph-name="omacron" unicode="&#x14d;" horiz-adv-x="628" 
d="M149 623v107h330v-107h-330zM314 -13c-168 0 -294 110 -294 289s126 287 294 287s295 -108 295 -287s-127 -289 -295 -289zM314 112c72 0 120 53 120 163s-48 163 -120 163c-71 0 -119 -53 -119 -163s48 -163 119 -163z" />
    <glyph glyph-name="oslashacute" unicode="&#x1ff;" horiz-adv-x="628" 
d="M195 275c0 -29 3 -54 10 -75l177 216c-19 15 -42 22 -68 22c-71 0 -119 -53 -119 -163zM314 112c72 0 120 53 120 163c0 32 -4 59 -12 82l-180 -220c20 -17 44 -25 72 -25zM314 -13c-60 0 -116 14 -161 41l-55 -67l-53 44l53 65c-49 50 -78 120 -78 206
c0 179 126 287 294 287c59 0 112 -13 157 -38l60 73l53 -44l-57 -70c51 -49 82 -120 82 -208c0 -179 -127 -289 -295 -289zM370 597h-129l78 171h171z" />
    <glyph glyph-name="racute" unicode="&#x155;" horiz-adv-x="422" 
d="M298 597h-129l78 171h171zM352 394c-62 0 -102 -11 -134 -45v-349h-172v550h151l12 -94c29 51 80 103 153 103c17 0 33 -2 44 -4v-162l-6 -4c-13 3 -31 5 -48 5z" />
    <glyph glyph-name="rcaron" unicode="&#x159;" horiz-adv-x="422" 
d="M243 696l58 67h130l-128 -166h-120l-128 166h130zM352 394c-62 0 -102 -11 -134 -45v-349h-172v550h151l12 -94c29 51 80 103 153 103c17 0 33 -2 44 -4v-162l-6 -4c-13 3 -31 5 -48 5z" />
    <glyph glyph-name="uni0157" unicode="&#x157;" horiz-adv-x="422" 
d="M43 -241l9 185h144l3 -11l-53 -174h-103zM352 394c-62 0 -102 -11 -134 -45v-349h-172v550h151l12 -94c29 51 80 103 153 103c17 0 33 -2 44 -4v-162l-6 -4c-13 3 -31 5 -48 5z" />
    <glyph glyph-name="sacute" unicode="&#x15b;" horiz-adv-x="460" 
d="M290 597h-129l78 171h171zM215 -12c-93 0 -148 20 -192 47v129l6 3c45 -34 106 -56 172 -56c54 0 79 18 79 47c0 26 -15 34 -64 46l-49 12c-87 21 -146 71 -146 168c0 109 81 180 215 180c73 0 127 -12 169 -30v-124l-6 -3c-38 20 -95 36 -158 36c-52 0 -68 -16 -68 -42
c0 -25 15 -36 52 -45l49 -12c112 -28 166 -65 166 -166c0 -120 -86 -190 -225 -190z" />
    <glyph glyph-name="uni015F" unicode="&#x15f;" horiz-adv-x="460" 
d="M201 -232c-42 0 -70 11 -87 22v72l7 3c16 -9 34 -17 58 -17c26 0 38 12 38 30c0 23 -23 33 -62 37v76c-58 7 -98 23 -132 44v129l6 3c45 -34 106 -56 172 -56c54 0 79 18 79 47c0 26 -15 34 -64 46l-49 12c-87 21 -146 71 -146 168c0 109 81 180 215 180
c73 0 127 -12 169 -30v-124l-6 -3c-38 20 -95 36 -158 36c-52 0 -68 -16 -68 -42c0 -25 15 -36 52 -45l49 -12c112 -28 166 -65 166 -166c0 -114 -78 -183 -206 -190v-29c47 -11 87 -28 87 -92c0 -63 -46 -99 -120 -99z" />
    <glyph glyph-name="scircumflex" unicode="&#x15d;" horiz-adv-x="460" 
d="M234 665l-58 -68h-130l128 166h120l128 -166h-130zM215 -12c-93 0 -148 20 -192 47v129l6 3c45 -34 106 -56 172 -56c54 0 79 18 79 47c0 26 -15 34 -64 46l-49 12c-87 21 -146 71 -146 168c0 109 81 180 215 180c73 0 127 -12 169 -30v-124l-6 -3c-38 20 -95 36 -158 36
c-52 0 -68 -16 -68 -42c0 -25 15 -36 52 -45l49 -12c112 -28 166 -65 166 -166c0 -120 -86 -190 -225 -190z" />
    <glyph glyph-name="uni0219" unicode="&#x219;" horiz-adv-x="460" 
d="M140 -241l9 185h144l3 -11l-53 -174h-103zM215 -12c-93 0 -148 20 -192 47v129l6 3c45 -34 106 -56 172 -56c54 0 79 18 79 47c0 26 -15 34 -64 46l-49 12c-87 21 -146 71 -146 168c0 109 81 180 215 180c73 0 127 -12 169 -30v-124l-6 -3c-38 20 -95 36 -158 36
c-52 0 -68 -16 -68 -42c0 -25 15 -36 52 -45l49 -12c112 -28 166 -65 166 -166c0 -120 -86 -190 -225 -190z" />
    <glyph glyph-name="tbar" unicode="&#x167;" horiz-adv-x="390" 
d="M363 3c-26 -8 -68 -14 -112 -14c-96 0 -171 31 -171 146v128h-62v89h62v76h-62v122h62v88l172 27v-115h109v-122h-109v-76h109v-89h-109v-95c0 -37 18 -50 54 -50c19 0 39 4 51 7l6 -3v-119z" />
    <glyph glyph-name="tcaron" unicode="&#x165;" horiz-adv-x="387" 
d="M363 3c-26 -8 -68 -14 -112 -14c-96 0 -171 31 -171 146v293h-62v122h62v88l172 27v-115h109v-122h-109v-260c0 -37 18 -50 54 -50c19 0 39 4 51 7l6 -3v-119zM278 581l7 162h119v-33l-30 -129h-96z" />
    <glyph glyph-name="tcommaaccent" unicode="&#x163;" horiz-adv-x="393" 
d="M363 3c-26 -8 -68 -14 -112 -14c-96 0 -171 31 -171 146v293h-62v122h62v88l172 27v-115h109v-122h-109v-260c0 -37 18 -50 54 -50c19 0 39 4 51 7l6 -3v-119zM134 -241l9 185h144l3 -11l-53 -174h-103z" />
    <glyph glyph-name="uni021B" unicode="&#x21b;" horiz-adv-x="393" 
d="M363 3c-26 -8 -68 -14 -112 -14c-96 0 -171 31 -171 146v293h-62v122h62v88l172 27v-115h109v-122h-109v-260c0 -37 18 -50 54 -50c19 0 39 4 51 7l6 -3v-119zM134 -241l9 185h144l3 -11l-53 -174h-103z" />
    <glyph glyph-name="ubreve" unicode="&#x16d;" horiz-adv-x="604" 
d="M407 0l-11 67c-38 -43 -90 -80 -169 -80c-109 0 -185 62 -185 193v370h172v-342c0 -62 32 -85 80 -85c35 0 65 9 92 30v397h172v-550h-151zM301 597c-94 0 -162 59 -171 159h108c7 -38 28 -57 63 -57s55 20 63 57h108c-10 -100 -77 -159 -171 -159z" />
    <glyph glyph-name="uhungarumlaut" unicode="&#x171;" horiz-adv-x="604" 
d="M407 0l-11 67c-38 -43 -90 -80 -169 -80c-109 0 -185 62 -185 193v370h172v-342c0 -62 32 -85 80 -85c35 0 65 9 92 30v397h172v-550h-151zM265 597h-106l45 171h148zM447 597h-106l50 171h148z" />
    <glyph glyph-name="umacron" unicode="&#x16b;" horiz-adv-x="604" 
d="M407 0l-11 67c-38 -43 -90 -80 -169 -80c-109 0 -185 62 -185 193v370h172v-342c0 -62 32 -85 80 -85c35 0 65 9 92 30v397h172v-550h-151zM136 623v107h330v-107h-330z" />
    <glyph glyph-name="uogonek" unicode="&#x173;" horiz-adv-x="604" 
d="M565 -200c-21 -9 -50 -17 -90 -17c-87 0 -130 37 -130 95c0 48 26 85 95 122h-33l-11 67c-38 -43 -90 -80 -169 -80c-109 0 -185 62 -185 193v370h172v-342c0 -62 32 -85 80 -85c35 0 65 9 92 30v397h172v-550c-49 -31 -78 -61 -78 -85c0 -21 10 -35 42 -35
c15 0 26 3 37 8l6 -3v-85z" />
    <glyph glyph-name="uring" unicode="&#x16f;" horiz-adv-x="604" 
d="M301 585c-71 0 -119 48 -119 115s48 115 119 115s119 -48 119 -115s-48 -115 -119 -115zM301 745c-26 0 -43 -19 -43 -45s17 -44 43 -44s43 18 43 44s-17 45 -43 45zM407 0l-11 67c-38 -43 -90 -80 -169 -80c-109 0 -185 62 -185 193v370h172v-342c0 -62 32 -85 80 -85
c35 0 65 9 92 30v397h172v-550h-151z" />
    <glyph glyph-name="utilde" unicode="&#x169;" horiz-adv-x="604" 
d="M407 0l-11 67c-38 -43 -90 -80 -169 -80c-109 0 -185 62 -185 193v370h172v-342c0 -62 32 -85 80 -85c35 0 65 9 92 30v397h172v-550h-151zM369 719c31 0 55 12 83 39l8 -3l22 -95c-20 -27 -60 -52 -104 -52c-71 0 -100 36 -145 36c-37 0 -61 -11 -89 -38l-8 3l-22 95
c20 29 60 51 104 51c71 0 100 -36 151 -36z" />
    <glyph glyph-name="wacute" unicode="&#x1e83;" horiz-adv-x="783" 
d="M513 -6l-122 305l-119 -305h-84l-181 548v8h173l77 -271l104 274h70l106 -277l77 274h162v-8l-178 -548h-85zM447 597h-129l78 171h171z" />
    <glyph glyph-name="wcircumflex" unicode="&#x175;" horiz-adv-x="783" 
d="M513 -6l-122 305l-119 -305h-84l-181 548v8h173l77 -271l104 274h70l106 -277l77 274h162v-8l-178 -548h-85zM391 665l-58 -68h-130l128 166h120l128 -166h-130z" />
    <glyph glyph-name="wdieresis" unicode="&#x1e85;" horiz-adv-x="783" 
d="M513 -6l-122 305l-119 -305h-84l-181 548v8h173l77 -271l104 274h70l106 -277l77 274h162v-8l-178 -548h-85zM215 611v136h148v-136h-148zM423 611v136h148v-136h-148z" />
    <glyph glyph-name="wgrave" unicode="&#x1e81;" horiz-adv-x="783" 
d="M513 -6l-122 305l-119 -305h-84l-181 548v8h173l77 -271l104 274h70l106 -277l77 274h162v-8l-178 -548h-85zM341 597l-120 171h171l77 -171h-128z" />
    <glyph glyph-name="ycircumflex" unicode="&#x177;" horiz-adv-x="577" 
d="M75 -207v136c66 6 100 27 114 62l14 34l-197 517v8h181l112 -323l111 323h160v-8l-209 -575c-45 -125 -117 -164 -286 -174zM298 665l-58 -68h-130l128 166h120l128 -166h-130z" />
    <glyph glyph-name="ygrave" unicode="&#x1ef3;" horiz-adv-x="577" 
d="M75 -207v136c66 6 100 27 114 62l14 34l-197 517v8h181l112 -323l111 323h160v-8l-209 -575c-45 -125 -117 -164 -286 -174zM248 597l-120 171h171l77 -171h-128z" />
    <glyph glyph-name="zacute" unicode="&#x17a;" horiz-adv-x="496" 
d="M314 597h-129l78 171h171zM477 0h-459v45l233 379h-207v126h437v-51l-229 -372h225v-127z" />
    <glyph glyph-name="zdotaccent" unicode="&#x17c;" horiz-adv-x="496" 
d="M477 0h-459v45l233 379h-207v126h437v-51l-229 -372h225v-127zM176 611v135h164v-135h-164z" />
    <glyph glyph-name="breve_acute" 
d="M255 784h-129l68 117h171zM200 597c-94 0 -162 59 -171 159h108c7 -38 28 -57 63 -57s55 20 63 57h108c-10 -100 -77 -159 -171 -159z" />
    <glyph glyph-name="breve_grave" 
d="M145 784l-110 117h171l68 -117h-129zM200 597c-94 0 -162 59 -171 159h108c7 -38 28 -57 63 -57s55 20 63 57h108c-10 -100 -77 -159 -171 -159z" />
    <glyph glyph-name="breve_hook" 
d="M104 931c19 9 52 19 99 19c83 0 138 -26 138 -80c0 -69 -93 -80 -93 -96v-1h-110v3c0 50 83 54 83 76c0 11 -11 19 -43 19c-27 0 -50 -7 -68 -15l-6 3v72zM200 597c-94 0 -162 59 -171 159h108c7 -38 28 -57 63 -57s55 20 63 57h108c-10 -100 -77 -159 -171 -159z" />
    <glyph glyph-name="breve_tilde" 
d="M272 903c31 0 55 12 83 39l8 -3l22 -95c-20 -27 -60 -52 -104 -52c-71 0 -100 34 -145 34c-37 0 -61 -11 -89 -38l-8 3l-22 95c20 29 60 51 104 51c71 0 100 -34 151 -34zM200 597c-94 0 -162 59 -171 159h108c7 -38 28 -57 63 -57s55 20 63 57h108
c-10 -100 -77 -159 -171 -159z" />
    <glyph glyph-name="circumflex_acute" 
d="M442 721h-121l54 117h159zM200 665l-58 -68h-130l128 166h120l128 -166h-130z" />
    <glyph glyph-name="circumflex_grave" 
d="M344 721l-92 117h159l54 -117h-121zM200 665l-58 -68h-130l128 166h120l128 -166h-130z" />
    <glyph glyph-name="circumflex_hook" 
d="M290 862c19 9 44 18 94 18c71 0 122 -24 122 -85c0 -60 -70 -73 -70 -91v-1h-107v3c0 40 61 54 61 76c0 14 -11 22 -39 22c-20 0 -38 -5 -55 -14l-6 3v69zM200 665l-58 -68h-130l128 166h120l128 -166h-130z" />
    <glyph glyph-name="circumflex_tilde" 
d="M274 905c31 0 55 12 83 39l8 -3l22 -95c-20 -27 -60 -52 -104 -52c-71 0 -100 34 -145 34c-37 0 -61 -11 -89 -38l-8 3l-22 95c20 29 60 51 104 51c71 0 100 -34 151 -34zM200 665l-58 -68h-130l128 166h120l128 -166h-130z" />
    <glyph glyph-name="space_uni0326" 
d="M117 -241l9 185h144l3 -11l-53 -174h-103z" />
    <glyph glyph-name="oneeighth" unicode="&#x215b;" horiz-adv-x="794" 
d="M62 0l535 690h97l-536 -690h-96zM212 305h-123v260l-74 -42l-3 2v103l123 67h77v-390zM619 -7c-103 0 -162 44 -162 109c0 43 25 74 69 87c-39 22 -58 51 -58 93c0 74 65 109 147 109s152 -32 152 -105c0 -42 -26 -66 -62 -80c47 -23 73 -51 73 -101
c0 -72 -57 -112 -159 -112zM579 285c0 -20 17 -33 59 -50c15 11 23 26 23 43c0 25 -17 39 -43 39c-25 0 -39 -13 -39 -32zM615 68c32 0 47 17 47 37c0 25 -22 37 -67 55c-18 -12 -30 -27 -30 -50c0 -26 18 -42 50 -42z" />
    <glyph glyph-name="onethird" unicode="&#x2153;" horiz-adv-x="787" 
d="M57 0l535 690h97l-536 -690h-96zM212 305h-123v260l-74 -42l-3 2v103l123 67h77v-390zM610 -7c-70 0 -106 17 -131 31v88l4 3c31 -19 61 -30 108 -30c38 0 56 14 56 38c0 22 -17 36 -55 36h-48v74h42c38 0 50 14 50 34c0 22 -16 34 -53 34c-40 0 -64 -8 -92 -24l-5 3v85
c25 15 59 26 122 26c80 0 145 -33 145 -104c0 -45 -23 -71 -70 -84c57 -12 83 -41 83 -91c0 -75 -54 -119 -156 -119z" />
    <glyph glyph-name="threeeighths" unicode="&#x215c;" horiz-adv-x="832" 
d="M99 0l535 690h97l-536 -690h-96zM657 -7c-103 0 -162 44 -162 109c0 43 25 74 69 87c-39 22 -58 51 -58 93c0 74 65 109 147 109s152 -32 152 -105c0 -42 -26 -66 -62 -80c47 -23 73 -51 73 -101c0 -72 -57 -112 -159 -112zM617 285c0 -20 17 -33 59 -50
c15 11 23 26 23 43c0 25 -17 39 -43 39c-25 0 -39 -13 -39 -32zM653 68c32 0 47 17 47 37c0 25 -22 37 -67 55c-18 -12 -30 -27 -30 -50c0 -26 18 -42 50 -42zM150 298c-70 0 -106 17 -131 31v88l4 3c31 -19 61 -30 108 -30c38 0 56 14 56 38c0 22 -17 36 -55 36h-48v74h42
c38 0 50 14 50 33c0 23 -16 35 -53 35c-40 0 -64 -8 -92 -24l-5 3v85c25 15 59 26 122 26c80 0 145 -33 145 -104c0 -45 -23 -71 -70 -84c57 -12 83 -41 83 -91c0 -75 -54 -119 -156 -119z" />
    <glyph glyph-name="fiveeighths" unicode="&#x215d;" horiz-adv-x="822" 
d="M147 299c-64 0 -104 13 -129 29v84l6 3c29 -17 53 -27 95 -27c43 0 64 15 64 43c0 30 -22 42 -71 42c-37 0 -56 -7 -70 -11l-5 3v225h247v-84h-148v-56c6 1 13 1 20 1c97 0 148 -42 148 -119c0 -81 -54 -133 -157 -133zM93 0l535 690h97l-536 -690h-96zM647 -7
c-103 0 -162 44 -162 109c0 43 25 74 69 87c-39 22 -58 51 -58 93c0 74 65 109 147 109s152 -32 152 -105c0 -42 -26 -66 -62 -80c47 -23 73 -51 73 -101c0 -72 -57 -112 -159 -112zM607 285c0 -20 17 -33 59 -50c15 11 23 26 23 43c0 25 -17 39 -43 39
c-25 0 -39 -13 -39 -32zM643 68c32 0 47 17 47 37c0 25 -22 37 -67 55c-18 -12 -30 -27 -30 -50c0 -26 18 -42 50 -42z" />
    <glyph glyph-name="twothirds" unicode="&#x2154;" horiz-adv-x="837" 
d="M106 0l535 690h97l-536 -690h-96zM660 -7c-70 0 -106 17 -131 31v88l4 3c31 -19 61 -30 108 -30c38 0 56 14 56 38c0 22 -17 36 -55 36h-48v74h42c38 0 50 14 50 34c0 22 -16 34 -53 34c-40 0 -64 -8 -92 -24l-5 3v85c25 15 59 26 122 26c80 0 145 -33 145 -104
c0 -45 -23 -71 -70 -84c57 -12 83 -41 83 -91c0 -75 -54 -119 -156 -119zM12 305v65l112 113c33 33 48 53 48 79c0 24 -17 39 -57 39c-37 0 -61 -10 -89 -28l-5 3v90c27 19 66 30 124 30c94 0 147 -41 147 -120c0 -57 -25 -90 -72 -136l-48 -48h127v-87h-287z" />
    <glyph glyph-name="seveneighths" unicode="&#x215e;" horiz-adv-x="794" 
d="M64 0l535 690h97l-536 -690h-96zM182 306h-128c23 91 57 155 103 239l28 50h-168v95h298v-67l-45 -91c-43 -88 -69 -150 -88 -226zM619 -7c-103 0 -162 44 -162 109c0 43 25 74 69 87c-39 22 -58 51 -58 93c0 74 65 109 147 109s152 -32 152 -105c0 -42 -26 -66 -62 -80
c47 -23 73 -51 73 -101c0 -72 -57 -112 -159 -112zM579 285c0 -20 17 -33 59 -50c15 11 23 26 23 43c0 25 -17 39 -43 39c-25 0 -39 -13 -39 -32zM615 68c32 0 47 17 47 37c0 25 -22 37 -67 55c-18 -12 -30 -27 -30 -50c0 -26 18 -42 50 -42z" />
    <glyph glyph-name="uni2032" unicode="&#x2032;" horiz-adv-x="235" 
d="M209 705l-65 -251h-116l23 251h158z" />
    <glyph glyph-name="uni2033" unicode="&#x2033;" horiz-adv-x="435" 
d="M209 705l-65 -251h-116l23 251h158zM409 705l-65 -251h-116l23 251h158z" />
    <glyph glyph-name="uni24C5" unicode="&#x24c5;" horiz-adv-x="783" 
d="M30 352c0 214 157 367 361 367s362 -153 362 -367c0 -212 -158 -366 -362 -366s-361 154 -361 366zM685 352c0 175 -124 306 -294 306c-168 0 -294 -131 -294 -306c0 -172 126 -305 294 -305c170 0 294 133 294 305zM404 464h-35v-97h35c36 0 51 16 51 50s-18 47 -51 47z
M408 287h-39v-126h-117v387h153c101 0 161 -38 161 -132c0 -89 -61 -129 -158 -129z" />
    <glyph glyph-name="zero.num" horiz-adv-x="406" 
d="M203 298c-108 0 -185 72 -186 201c0 128 78 197 186 197c109 0 186 -69 186 -197c0 -129 -77 -201 -186 -201zM203 385c39 0 58 37 58 114c0 76 -19 111 -58 111c-38 0 -58 -35 -58 -111c0 -77 20 -114 58 -114z" />
    <glyph glyph-name="one.num" horiz-adv-x="258" 
d="M212 305h-123v260l-74 -42l-3 2v103l123 67h77v-390z" />
    <glyph glyph-name="two.num" horiz-adv-x="326" 
d="M12 305v65l112 113c33 33 48 53 48 79c0 24 -17 39 -57 39c-37 0 -61 -10 -89 -28l-5 3v90c27 19 66 30 124 30c94 0 147 -41 147 -120c0 -57 -25 -90 -72 -136l-48 -48h127v-87h-287z" />
    <glyph glyph-name="three.num" horiz-adv-x="327" 
d="M150 298c-70 0 -106 17 -131 31v88l4 3c31 -19 61 -30 108 -30c38 0 56 14 56 38c0 22 -17 36 -55 36h-48v74h42c38 0 50 14 50 33c0 23 -16 35 -53 35c-40 0 -64 -8 -92 -24l-5 3v85c25 15 59 26 122 26c80 0 145 -33 145 -104c0 -45 -23 -71 -70 -84
c57 -12 83 -41 83 -91c0 -75 -54 -119 -156 -119z" />
    <glyph glyph-name="four.num" horiz-adv-x="358" 
d="M179 453v94l-70 -94h70zM347 372h-53v-67h-115v67h-174v57l195 264h94v-240h53v-81z" />
    <glyph glyph-name="five.num" horiz-adv-x="321" 
d="M147 299c-64 0 -104 13 -129 29v84l6 3c29 -17 53 -27 95 -27c43 0 64 15 64 43c0 30 -22 42 -71 42c-37 0 -56 -7 -70 -11l-5 3v225h247v-84h-148v-56c6 1 13 1 20 1c97 0 148 -42 148 -119c0 -81 -54 -133 -157 -133z" />
    <glyph glyph-name="six.num" horiz-adv-x="359" 
d="M346 433c0 -82 -57 -135 -155 -135c-104 0 -173 63 -173 186c0 148 87 212 198 212c44 0 76 -8 102 -22v-84l-6 -3c-22 14 -47 24 -81 24c-54 0 -85 -23 -93 -88c16 14 42 29 86 29c64 0 122 -32 122 -119zM187 381c30 0 43 20 43 53c0 38 -17 52 -49 52
c-19 0 -34 -5 -45 -13c2 -69 20 -92 51 -92z" />
    <glyph glyph-name="seven.num" horiz-adv-x="329" 
d="M182 306h-128c23 91 57 155 103 239l28 50h-168v95h298v-67l-45 -91c-43 -88 -69 -150 -88 -226z" />
    <glyph glyph-name="eight.num" horiz-adv-x="353" 
d="M178 298c-103 0 -162 44 -162 109c0 43 25 74 69 87c-39 22 -58 51 -58 93c0 74 65 109 147 109s152 -32 152 -105c0 -42 -26 -66 -62 -80c47 -23 73 -51 73 -101c0 -72 -57 -112 -159 -112zM138 590c0 -20 17 -34 59 -51c15 12 23 26 23 44c0 25 -17 39 -43 39
c-25 0 -39 -13 -39 -32zM174 373c32 0 47 17 47 37c0 25 -22 37 -67 55c-18 -12 -30 -27 -30 -50c0 -26 18 -42 50 -42z" />
    <glyph glyph-name="nine.num" horiz-adv-x="358" 
d="M178 507c18 0 33 5 44 12c-2 70 -18 94 -49 94s-44 -19 -44 -53c0 -38 16 -53 49 -53zM139 298c-46 0 -78 8 -105 22v85l6 1c23 -13 48 -23 83 -23c58 0 89 20 97 86c-15 -14 -41 -28 -85 -28c-65 0 -122 32 -122 120c0 82 58 135 156 135c103 0 171 -61 171 -186
c0 -152 -86 -212 -201 -212z" />
    <glyph glyph-name="zero.den" horiz-adv-x="406" 
d="M203 -7c-108 0 -185 72 -186 201c0 128 78 197 186 197c109 0 186 -69 186 -197c0 -129 -77 -201 -186 -201zM203 80c39 0 58 37 58 114c0 76 -19 111 -58 111c-38 0 -58 -35 -58 -111c0 -77 20 -114 58 -114z" />
    <glyph glyph-name="one.den" horiz-adv-x="258" 
d="M212 0h-123v260l-74 -42l-3 2v103l123 67h77v-390z" />
    <glyph glyph-name="two.den" horiz-adv-x="326" 
d="M12 0v65l112 113c33 33 48 53 48 79c0 24 -17 39 -57 39c-37 0 -61 -10 -89 -28l-5 3v90c27 19 66 30 124 30c94 0 147 -41 147 -120c0 -57 -25 -90 -72 -136l-48 -48h127v-87h-287z" />
    <glyph glyph-name="three.den" horiz-adv-x="327" 
d="M150 -7c-70 0 -106 17 -131 31v88l4 3c31 -19 61 -30 108 -30c38 0 56 14 56 38c0 22 -17 36 -55 36h-48v74h42c38 0 50 14 50 34c0 22 -16 34 -53 34c-40 0 -64 -8 -92 -24l-5 3v85c25 15 59 26 122 26c80 0 145 -33 145 -104c0 -45 -23 -71 -70 -84
c57 -12 83 -41 83 -91c0 -75 -54 -119 -156 -119z" />
    <glyph glyph-name="four.den" horiz-adv-x="358" 
d="M179 148v94l-70 -94h70zM347 67h-53v-67h-115v67h-174v57l195 264h94v-240h53v-81z" />
    <glyph glyph-name="five.den" horiz-adv-x="321" 
d="M147 -7c-64 0 -104 13 -129 29v84l6 3c29 -17 53 -27 95 -27c43 0 64 15 64 44s-22 41 -71 41c-37 0 -56 -7 -70 -11l-5 4v224h247v-84h-148v-56c6 1 13 1 20 1c97 0 148 -42 148 -119c0 -81 -54 -133 -157 -133z" />
    <glyph glyph-name="six.den" horiz-adv-x="359" 
d="M346 128c0 -82 -57 -135 -155 -135c-104 0 -173 63 -173 186c0 148 87 212 198 212c44 0 76 -8 102 -22v-84l-6 -3c-22 14 -47 24 -81 24c-54 0 -85 -23 -93 -88c16 14 42 29 86 29c64 0 122 -32 122 -119zM187 76c30 0 43 20 43 53c0 38 -17 52 -49 52
c-19 0 -34 -5 -45 -13c2 -69 20 -92 51 -92z" />
    <glyph glyph-name="seven.den" horiz-adv-x="329" 
d="M182 0h-128c23 91 57 155 103 239l28 50h-168v95h298v-67l-45 -91c-43 -88 -69 -150 -88 -226z" />
    <glyph glyph-name="eight.den" horiz-adv-x="353" 
d="M178 -7c-103 0 -162 44 -162 109c0 43 25 74 69 87c-39 22 -58 51 -58 93c0 74 65 109 147 109s152 -32 152 -105c0 -42 -26 -66 -62 -80c47 -23 73 -51 73 -101c0 -72 -57 -112 -159 -112zM138 285c0 -20 17 -33 59 -50c15 11 23 26 23 43c0 25 -17 39 -43 39
c-25 0 -39 -13 -39 -32zM174 68c32 0 47 17 47 37c0 25 -22 37 -67 55c-18 -12 -30 -27 -30 -50c0 -26 18 -42 50 -42z" />
    <glyph glyph-name="nine.den" horiz-adv-x="358" 
d="M178 202c18 0 33 5 44 12c-2 70 -18 94 -49 94s-44 -19 -44 -53c0 -38 16 -53 49 -53zM139 -7c-46 0 -78 8 -105 22v85l6 1c23 -13 48 -23 83 -23c58 0 89 20 97 86c-15 -14 -41 -28 -85 -28c-65 0 -122 32 -122 120c0 82 58 135 156 135c103 0 171 -61 171 -186
c0 -152 -86 -212 -201 -212z" />
    <glyph glyph-name="zero.sub" horiz-adv-x="406" 
d="M203 -106c-108 0 -185 72 -186 201c0 128 78 197 186 197c109 0 186 -69 186 -197c0 -129 -77 -201 -186 -201zM203 -19c39 0 58 37 58 114c0 76 -19 111 -58 111c-38 0 -58 -35 -58 -111c0 -77 20 -114 58 -114z" />
    <glyph glyph-name="one.sub" horiz-adv-x="258" 
d="M212 -100h-123v260l-74 -42l-3 2v103l123 67h77v-390z" />
    <glyph glyph-name="two.sub" horiz-adv-x="326" 
d="M12 -99v65l112 113c33 33 48 53 48 79c0 24 -17 39 -57 39c-37 0 -61 -10 -89 -28l-5 3v90c27 19 66 30 124 30c94 0 147 -41 147 -120c0 -57 -25 -90 -72 -136l-48 -48h127v-87h-287z" />
    <glyph glyph-name="three.sub" horiz-adv-x="327" 
d="M150 -106c-70 0 -106 16 -131 31v88l4 3c31 -19 61 -30 108 -30c38 0 56 14 56 38c0 22 -17 36 -55 36h-48v74h42c38 0 50 13 50 33c0 23 -16 35 -53 35c-40 0 -64 -8 -92 -24l-5 3v85c25 15 59 26 122 26c80 0 145 -33 145 -104c0 -45 -23 -71 -70 -84
c57 -12 83 -41 83 -91c0 -76 -54 -119 -156 -119z" />
    <glyph glyph-name="four.sub" horiz-adv-x="358" 
d="M179 48v94l-70 -94h70zM347 -33h-53v-67h-115v67h-174v57l195 264h94v-240h53v-81z" />
    <glyph glyph-name="five.sub" horiz-adv-x="321" 
d="M147 -106c-64 0 -104 13 -129 29v84l6 3c29 -17 53 -27 95 -27c43 0 64 15 64 43c0 30 -22 42 -71 42c-37 0 -56 -7 -70 -11l-5 3v225h247v-84h-148v-56c6 1 13 1 20 1c97 0 148 -42 148 -119c0 -81 -54 -133 -157 -133z" />
    <glyph glyph-name="six.sub" horiz-adv-x="359" 
d="M346 29c0 -82 -57 -135 -155 -135c-104 0 -173 63 -173 186c0 148 87 212 198 212c44 0 76 -8 102 -22v-84l-6 -3c-22 14 -47 24 -81 24c-54 0 -85 -23 -93 -87c16 13 42 28 86 28c64 0 122 -32 122 -119zM187 -23c30 0 43 20 43 53c0 38 -17 52 -49 52
c-19 0 -34 -5 -45 -13c2 -69 20 -92 51 -92z" />
    <glyph glyph-name="seven.sub" horiz-adv-x="329" 
d="M182 -99h-128c23 91 57 155 103 239l28 50h-168v95h298v-67l-45 -91c-43 -88 -69 -150 -88 -226z" />
    <glyph glyph-name="eight.sub" horiz-adv-x="353" 
d="M178 -106c-103 0 -162 44 -162 109c0 43 25 74 69 87c-39 22 -58 51 -58 93c0 74 65 109 147 109s152 -32 152 -105c0 -42 -26 -66 -62 -80c47 -23 73 -51 73 -101c0 -72 -57 -112 -159 -112zM138 186c0 -20 17 -34 59 -51c15 12 23 26 23 44c0 25 -17 39 -43 39
c-25 0 -39 -13 -39 -32zM174 -31c32 0 47 17 47 37c0 25 -22 37 -67 55c-18 -13 -30 -27 -30 -50c0 -26 18 -42 50 -42z" />
    <glyph glyph-name="nine.sub" horiz-adv-x="358" 
d="M178 103c18 0 33 5 44 12c-2 70 -18 94 -49 94s-44 -20 -44 -53c0 -38 16 -53 49 -53zM139 -106c-46 0 -78 8 -105 22v85l6 1c23 -13 48 -23 83 -23c58 0 89 20 97 86c-15 -14 -41 -28 -85 -28c-65 0 -122 32 -122 120c0 82 58 135 156 135c103 0 171 -61 171 -186
c0 -152 -86 -212 -201 -212z" />
    <glyph glyph-name="plus.sub" horiz-adv-x="338" 
d="M126 -56v106h-100v85h100v106h86v-106h100v-85h-100v-106h-86z" />
    <glyph glyph-name="minus.sub" horiz-adv-x="338" 
d="M26 50v85h286v-85h-286z" />
    <glyph glyph-name="zero.sup" horiz-adv-x="406" 
d="M203 357c-108 0 -185 72 -186 201c0 128 78 197 186 197c109 0 186 -69 186 -197c0 -129 -77 -201 -186 -201zM203 444c39 0 58 37 58 114c0 76 -19 111 -58 111c-38 0 -58 -35 -58 -111c0 -77 20 -114 58 -114z" />
    <glyph glyph-name="one.sup" horiz-adv-x="258" 
d="M212 363h-123v260l-74 -42l-3 2v103l123 67h77v-390z" />
    <glyph glyph-name="two.sup" horiz-adv-x="326" 
d="M12 364v65l112 113c33 33 48 53 48 79c0 24 -17 39 -57 39c-37 0 -61 -10 -89 -28l-5 3v90c27 19 66 30 124 30c94 0 147 -41 147 -120c0 -57 -25 -90 -72 -136l-48 -48h127v-87h-287z" />
    <glyph glyph-name="three.sup" horiz-adv-x="327" 
d="M150 357c-70 0 -106 16 -131 31v88l4 3c31 -19 61 -30 108 -30c38 0 56 14 56 38c0 22 -17 36 -55 36h-48v74h42c38 0 50 13 50 33c0 23 -16 35 -53 35c-40 0 -64 -8 -92 -24l-5 3v85c25 15 59 26 122 26c80 0 145 -33 145 -104c0 -45 -23 -71 -70 -84
c57 -12 83 -41 83 -91c0 -76 -54 -119 -156 -119z" />
    <glyph glyph-name="four.sup" horiz-adv-x="358" 
d="M179 511v94l-70 -94h70zM347 430h-53v-67h-115v67h-174v57l195 263h94v-239h53v-81z" />
    <glyph glyph-name="five.sup" horiz-adv-x="321" 
d="M147 357c-64 0 -104 13 -129 29v84l6 3c29 -17 53 -27 95 -27c43 0 64 15 64 43c0 30 -22 42 -71 42c-37 0 -56 -7 -70 -11l-5 3v225h247v-84h-148v-56c6 1 13 1 20 1c97 0 148 -42 148 -119c0 -81 -54 -133 -157 -133z" />
    <glyph glyph-name="six.sup" horiz-adv-x="359" 
d="M346 492c0 -82 -57 -135 -155 -135c-104 0 -173 63 -173 186c0 148 87 212 198 212c44 0 76 -8 102 -22v-84l-6 -3c-22 14 -47 24 -81 24c-54 0 -85 -23 -93 -87c16 13 42 28 86 28c64 0 122 -32 122 -119zM187 440c30 0 43 20 43 53c0 38 -17 52 -49 52
c-19 0 -34 -5 -45 -13c2 -69 20 -92 51 -92z" />
    <glyph glyph-name="seven.sup" horiz-adv-x="329" 
d="M182 364h-128c23 91 57 155 103 239l28 50h-168v95h298v-67l-45 -91c-43 -88 -69 -150 -88 -226z" />
    <glyph glyph-name="eight.sup" horiz-adv-x="353" 
d="M178 357c-103 0 -162 44 -162 109c0 43 25 74 69 87c-39 22 -58 51 -58 93c0 74 65 109 147 109s152 -32 152 -105c0 -42 -26 -66 -62 -80c47 -23 73 -51 73 -101c0 -72 -57 -112 -159 -112zM138 649c0 -20 17 -34 59 -51c15 12 23 26 23 44c0 25 -17 39 -43 39
c-25 0 -39 -13 -39 -32zM174 432c32 0 47 17 47 37c0 25 -22 37 -67 55c-18 -13 -30 -27 -30 -50c0 -26 18 -42 50 -42z" />
    <glyph glyph-name="nine.sup" horiz-adv-x="358" 
d="M178 566c18 0 33 5 44 12c-2 70 -18 94 -49 94s-44 -20 -44 -53c0 -38 16 -53 49 -53zM139 357c-46 0 -78 8 -105 22v85l6 1c23 -13 48 -23 83 -23c58 0 89 20 97 86c-15 -14 -41 -28 -85 -28c-65 0 -122 32 -122 120c0 82 58 135 156 135c103 0 171 -61 171 -186
c0 -152 -86 -212 -201 -212z" />
    <glyph glyph-name="plus.sup" horiz-adv-x="338" 
d="M126 407v106h-100v85h100v106h86v-106h100v-85h-100v-106h-86z" />
    <glyph glyph-name="minus.sup" horiz-adv-x="338" 
d="M26 513v85h286v-85h-286z" />
    <glyph glyph-name="J.alt" unicode="&#xe489;" horiz-adv-x="446" 
d="M156 -6c-64 0 -107 11 -139 27v139l4 2c22 -11 51 -20 88 -20c61 0 91 25 91 95v468h194v-485c0 -168 -96 -226 -238 -226z" />
    <glyph glyph-name="K.alt" unicode="&#xe48a;" horiz-adv-x="682" 
d="M467 0l-215 344v-344h-193v705h193v-323l204 323h200v-7l-214 -322l233 -369v-7h-208z" />
    <glyph glyph-name="M.alt" unicode="&#xe48c;" horiz-adv-x="896" 
d="M672 0l-44 358l-165 -362h-58l-158 360l-43 -356h-170l86 710h147l181 -417l180 417h143l91 -710h-190z" />
    <glyph glyph-name="Q.alt" unicode="&#xe490;" horiz-adv-x="800" 
d="M398 124c29 0 54 6 76 17l-101 124l2 11h192c5 24 8 51 8 79c0 135 -68 221 -177 221c-108 0 -176 -86 -176 -221s65 -231 176 -231zM589 0l-28 34c-42 -30 -94 -48 -174 -48c-215 0 -362 160 -362 369s147 364 373 364c227 0 373 -155 373 -364c0 -89 -27 -169 -74 -231
l89 -113l-2 -11h-195z" />
    <glyph glyph-name="W.alt" unicode="&#xe496;" horiz-adv-x="980" 
d="M636 -6l-148 395l-150 -395h-118l-211 703v8h193l107 -383l142 386h86l146 -388l107 385h181v-8l-212 -703h-123z" />
    <glyph glyph-name="IJ.alt" horiz-adv-x="755" 
d="M61 0v705h193v-705h-193zM466 -6c-64 0 -107 11 -139 27v139l4 2c22 -11 51 -20 88 -20c61 0 91 25 91 95v468h194v-485c0 -168 -96 -226 -238 -226z" />
    <glyph glyph-name="a.alt" unicode="&#xe4c0;" horiz-adv-x="616" 
d="M305 120c40 0 69 12 93 32v253c-24 20 -52 31 -90 31c-70 0 -113 -57 -113 -165c0 -105 46 -151 110 -151zM430 0l-16 66c-37 -50 -88 -79 -163 -79c-137 0 -230 95 -230 284c0 193 100 292 235 292c67 0 114 -25 148 -64l8 51h158v-550h-140z" />
    <glyph glyph-name="g.alt" unicode="&#xe4c6;" horiz-adv-x="621" 
d="M305 144c47 0 75 16 99 42v215c-25 23 -54 35 -96 35c-70 0 -113 -56 -113 -153c0 -94 46 -139 110 -139zM283 -210c-92 0 -169 18 -216 42v138l6 2c47 -27 107 -46 183 -46c109 0 148 33 148 101v64c-36 -43 -86 -69 -156 -69c-133 0 -227 92 -227 261
c0 183 102 280 235 280c71 0 121 -27 157 -70l7 57h156v-526c0 -169 -117 -234 -293 -234z" />
    <glyph glyph-name="k.alt" unicode="&#xe4ca;" horiz-adv-x="565" 
d="M372 0l-154 267v-267h-172v722l172 29v-448l161 247h169v-8l-159 -240l172 -294v-8h-189z" />
    <glyph glyph-name="k.alt1" unicode="&#xe4ea;" horiz-adv-x="586" 
d="M327 427c-31 0 -66 -15 -109 -47v-380h-172v722l172 29v-264c56 53 115 76 178 76c92 0 159 -61 159 -151c0 -92 -51 -149 -127 -187l145 -215v-10h-189l-135 209v35c90 38 131 79 131 130c0 31 -13 53 -53 53z" />
    <glyph glyph-name="l.alt" unicode="&#xe4cb;" horiz-adv-x="303" 
d="M199 -8c-94 0 -153 33 -153 137v593l172 29v-592c0 -27 11 -40 34 -40c14 0 21 3 30 6l6 -4v-114c-18 -7 -50 -15 -89 -15z" />
    <glyph glyph-name="t.alt" unicode="&#xe4d3;" horiz-adv-x="378" 
d="M352 428h-91v-428h-172v428h-67v122h67v88l172 27v-115h91v-122z" />
    <glyph glyph-name="y.alt" unicode="&#xe4d8;" horiz-adv-x="576" 
d="M297 -194h-173v8l82 213l-200 515v8h182l112 -323l111 323h159v-8z" />
    <glyph glyph-name="y.alt1" unicode="&#xe4f8;" horiz-adv-x="603" 
d="M275 -210c-87 0 -160 18 -207 42v138l6 2c47 -27 103 -46 174 -46c102 0 138 33 138 101v37c-37 -38 -87 -69 -159 -69c-109 0 -185 62 -185 193v362h172v-334c0 -62 32 -85 80 -85c35 0 65 9 92 30v389h172v-526c0 -169 -114 -234 -283 -234z" />
    <glyph glyph-name="Jcircumflex.alt" horiz-adv-x="446" 
d="M299 823l-61 -66h-132l128 160h130l128 -160h-132zM156 -6c-64 0 -107 11 -139 27v139l4 2c22 -11 51 -20 88 -20c61 0 91 25 91 95v468h194v-485c0 -168 -96 -226 -238 -226z" />
    <glyph glyph-name="Kcommaaccent.alt" horiz-adv-x="680" 
d="M268 -241l9 185h144l3 -11l-53 -174h-103zM467 0l-215 344v-344h-193v705h193v-323l204 323h200v-7l-214 -322l233 -369v-7h-208z" />
    <glyph glyph-name="Wacute.alt" horiz-adv-x="980" 
d="M551 757h-131l80 155h169zM636 -6l-148 395l-150 -395h-118l-211 703v8h193l107 -383l142 386h86l146 -388l107 385h181v-8l-212 -703h-123z" />
    <glyph glyph-name="Wcircumflex.alt" horiz-adv-x="980" 
d="M489 823l-61 -66h-132l128 160h130l128 -160h-132zM636 -6l-148 395l-150 -395h-118l-211 703v8h193l107 -383l142 386h86l146 -388l107 385h181v-8l-212 -703h-123z" />
    <glyph glyph-name="Wdieresis.alt" horiz-adv-x="980" 
d="M526 744v133h155v-133h-155zM299 744v133h155v-133h-155zM636 -6l-148 395l-150 -395h-118l-211 703v8h193l107 -383l142 386h86l146 -388l107 385h181v-8l-212 -703h-123z" />
    <glyph glyph-name="Wgrave.alt" horiz-adv-x="980" 
d="M432 757l-117 155h168l80 -155h-131zM636 -6l-148 395l-150 -395h-118l-211 703v8h193l107 -383l142 386h86l146 -388l107 385h181v-8l-212 -703h-123z" />
    <glyph glyph-name="aacute.alt" horiz-adv-x="616" 
d="M363 597h-129l78 171h171zM305 120c40 0 69 12 93 32v253c-24 20 -52 31 -90 31c-70 0 -113 -57 -113 -165c0 -105 46 -151 110 -151zM430 0l-16 66c-37 -50 -88 -79 -163 -79c-137 0 -230 95 -230 284c0 193 100 292 235 292c67 0 114 -25 148 -64l8 51h158v-550h-140z
" />
    <glyph glyph-name="abreve.alt" horiz-adv-x="616" 
d="M305 120c40 0 69 12 93 32v253c-24 20 -52 31 -90 31c-70 0 -113 -57 -113 -165c0 -105 46 -151 110 -151zM430 0l-16 66c-37 -50 -88 -79 -163 -79c-137 0 -230 95 -230 284c0 193 100 292 235 292c67 0 114 -25 148 -64l8 51h158v-550h-140zM308 597
c-94 0 -162 59 -171 159h108c7 -38 28 -57 63 -57s55 20 63 57h108c-10 -100 -77 -159 -171 -159z" />
    <glyph glyph-name="acircumflex.alt" horiz-adv-x="616" 
d="M308 665l-58 -68h-130l128 166h120l128 -166h-130zM305 120c40 0 69 12 93 32v253c-24 20 -52 31 -90 31c-70 0 -113 -57 -113 -165c0 -105 46 -151 110 -151zM430 0l-16 66c-37 -50 -88 -79 -163 -79c-137 0 -230 95 -230 284c0 193 100 292 235 292
c67 0 114 -25 148 -64l8 51h158v-550h-140z" />
    <glyph glyph-name="adieresis.alt" horiz-adv-x="616" 
d="M132 611v136h148v-136h-148zM340 611v136h148v-136h-148zM305 120c40 0 69 12 93 32v253c-24 20 -52 31 -90 31c-70 0 -113 -57 -113 -165c0 -105 46 -151 110 -151zM430 0l-16 66c-37 -50 -88 -79 -163 -79c-137 0 -230 95 -230 284c0 193 100 292 235 292
c67 0 114 -25 148 -64l8 51h158v-550h-140z" />
    <glyph glyph-name="agrave.alt" horiz-adv-x="616" 
d="M305 120c40 0 69 12 93 32v253c-24 20 -52 31 -90 31c-70 0 -113 -57 -113 -165c0 -105 46 -151 110 -151zM430 0l-16 66c-37 -50 -88 -79 -163 -79c-137 0 -230 95 -230 284c0 193 100 292 235 292c67 0 114 -25 148 -64l8 51h158v-550h-140zM258 597l-120 171h171
l77 -171h-128z" />
    <glyph glyph-name="amacron.alt" horiz-adv-x="616" 
d="M305 120c40 0 69 12 93 32v253c-24 20 -52 31 -90 31c-70 0 -113 -57 -113 -165c0 -105 46 -151 110 -151zM430 0l-16 66c-37 -50 -88 -79 -163 -79c-137 0 -230 95 -230 284c0 193 100 292 235 292c67 0 114 -25 148 -64l8 51h158v-550h-140zM143 623v107h330v-107h-330
z" />
    <glyph glyph-name="aogonek.alt" horiz-adv-x="616" 
d="M305 120c40 0 69 12 93 32v253c-24 20 -52 31 -90 31c-70 0 -113 -57 -113 -165c0 -105 46 -151 110 -151zM577 -200c-21 -9 -50 -17 -90 -17c-87 0 -130 37 -130 95c0 48 30 85 99 122h-31l-13 64c-37 -49 -88 -77 -161 -77c-137 0 -230 95 -230 284
c0 193 100 292 235 292c67 0 114 -25 148 -64l8 51h158v-550c-49 -31 -78 -61 -78 -85c0 -21 10 -35 42 -35c15 0 26 3 37 8l6 -3v-85z" />
    <glyph glyph-name="aring.alt" horiz-adv-x="616" 
d="M308 585c-71 0 -119 48 -119 115s48 115 119 115s119 -48 119 -115s-48 -115 -119 -115zM308 745c-26 0 -43 -19 -43 -45s17 -44 43 -44s43 18 43 44s-17 45 -43 45zM305 120c40 0 69 12 93 32v253c-24 20 -52 31 -90 31c-70 0 -113 -57 -113 -165
c0 -105 46 -151 110 -151zM430 0l-16 66c-37 -50 -88 -79 -163 -79c-137 0 -230 95 -230 284c0 193 100 292 235 292c67 0 114 -25 148 -64l8 51h158v-550h-140z" />
    <glyph glyph-name="aringacute.alt" horiz-adv-x="616" 
d="M308 585c-71 0 -119 48 -119 115s48 115 119 115s119 -48 119 -115s-48 -115 -119 -115zM308 745c-26 0 -43 -19 -43 -45s17 -44 43 -44s43 18 43 44s-17 45 -43 45zM305 120c40 0 69 12 93 32v253c-24 20 -52 31 -90 31c-70 0 -113 -57 -113 -165
c0 -105 46 -151 110 -151zM430 0l-16 66c-37 -50 -88 -79 -163 -79c-137 0 -230 95 -230 284c0 193 100 292 235 292c67 0 114 -25 148 -64l8 51h158v-550h-140zM369 844h-131l80 155h169z" />
    <glyph glyph-name="atilde.alt" horiz-adv-x="616" 
d="M305 120c40 0 69 12 93 32v253c-24 20 -52 31 -90 31c-70 0 -113 -57 -113 -165c0 -105 46 -151 110 -151zM430 0l-16 66c-37 -50 -88 -79 -163 -79c-137 0 -230 95 -230 284c0 193 100 292 235 292c67 0 114 -25 148 -64l8 51h158v-550h-140zM376 719c31 0 55 12 83 39
l8 -3l22 -95c-20 -27 -60 -52 -104 -52c-71 0 -100 36 -145 36c-37 0 -61 -11 -89 -38l-8 3l-22 95c20 29 60 51 104 51c71 0 100 -36 151 -36z" />
    <glyph glyph-name="gbreve.alt" horiz-adv-x="621" 
d="M305 144c47 0 75 16 99 42v215c-25 23 -54 35 -96 35c-70 0 -113 -56 -113 -153c0 -94 46 -139 110 -139zM283 -210c-92 0 -169 18 -216 42v138l6 2c47 -27 107 -46 183 -46c109 0 148 33 148 101v64c-36 -43 -86 -69 -156 -69c-133 0 -227 92 -227 261
c0 183 102 280 235 280c71 0 121 -27 157 -70l7 57h156v-526c0 -169 -117 -234 -293 -234zM308 597c-94 0 -162 59 -171 159h108c7 -38 28 -57 63 -57s55 20 63 57h108c-10 -100 -77 -159 -171 -159z" />
    <glyph glyph-name="gcircumflex.alt" horiz-adv-x="621" 
d="M308 665l-58 -68h-130l128 166h120l128 -166h-130zM305 144c47 0 75 16 99 42v215c-25 23 -54 35 -96 35c-70 0 -113 -56 -113 -153c0 -94 46 -139 110 -139zM283 -210c-92 0 -169 18 -216 42v138l6 2c47 -27 107 -46 183 -46c109 0 148 33 148 101v64
c-36 -43 -86 -69 -156 -69c-133 0 -227 92 -227 261c0 183 102 280 235 280c71 0 121 -27 157 -70l7 57h156v-526c0 -169 -117 -234 -293 -234z" />
    <glyph glyph-name="gcommaaccent.alt" horiz-adv-x="621" 
d="M382 782l-9 -185h-143l-5 8l55 177h102zM305 144c47 0 75 16 99 42v215c-25 23 -54 35 -96 35c-70 0 -113 -56 -113 -153c0 -94 46 -139 110 -139zM283 -210c-92 0 -169 18 -216 42v138l6 2c47 -27 107 -46 183 -46c109 0 148 33 148 101v64c-36 -43 -86 -69 -156 -69
c-133 0 -227 92 -227 261c0 183 102 280 235 280c71 0 121 -27 157 -70l7 57h156v-526c0 -169 -117 -234 -293 -234z" />
    <glyph glyph-name="gdotaccent.alt" horiz-adv-x="621" 
d="M305 144c47 0 75 16 99 42v215c-25 23 -54 35 -96 35c-70 0 -113 -56 -113 -153c0 -94 46 -139 110 -139zM283 -210c-92 0 -169 18 -216 42v138l6 2c47 -27 107 -46 183 -46c109 0 148 33 148 101v64c-36 -43 -86 -69 -156 -69c-133 0 -227 92 -227 261
c0 183 102 280 235 280c71 0 121 -27 157 -70l7 57h156v-526c0 -169 -117 -234 -293 -234zM226 611v135h164v-135h-164z" />
    <glyph glyph-name="germandbls.alt" horiz-adv-x="632" 
d="M258 8v125l5 3c21 -10 45 -18 82 -18c45 0 91 33 91 102c0 74 -54 111 -150 134v99c60 13 101 42 101 104c0 46 -33 75 -80 75c-53 0 -86 -34 -86 -105v-527h-175v508c0 178 114 247 265 247s249 -72 249 -181c0 -92 -58 -131 -123 -151c81 -24 177 -82 177 -224
c0 -129 -83 -213 -220 -213c-61 0 -103 10 -136 22z" />
    <glyph glyph-name="kcommaaccent.alt" horiz-adv-x="565" 
d="M213 -241l9 185h144l3 -11l-53 -174h-103zM372 0l-154 267v-267h-172v722l172 29v-448l161 247h169v-8l-159 -240l172 -294v-8h-189z" />
    <glyph glyph-name="kcommaaccent.alt1" horiz-adv-x="581" 
d="M213 -241l9 185h144l3 -11l-53 -174h-103zM327 427c-31 0 -66 -15 -109 -47v-380h-172v722l172 29v-264c56 53 115 76 178 76c92 0 159 -61 159 -151c0 -92 -51 -149 -127 -187l145 -215v-10h-189l-135 209v35c90 38 131 79 131 130c0 31 -13 53 -53 53z" />
    <glyph glyph-name="lacute.alt" horiz-adv-x="303" 
d="M199 -8c-94 0 -153 33 -153 137v593l172 29v-592c0 -27 11 -40 34 -40c14 0 21 3 30 6l6 -4v-114c-18 -7 -50 -15 -89 -15zM193 786h-131l80 155h169z" />
    <glyph glyph-name="lcaron.alt" horiz-adv-x="307" 
d="M199 -8c-94 0 -153 33 -153 137v593l172 29v-592c0 -27 11 -40 34 -40c14 0 21 3 30 6l6 -4v-114c-18 -7 -50 -15 -89 -15zM259 581l7 162h119v-33l-30 -129h-96z" />
    <glyph glyph-name="lcommaaccent.alt" horiz-adv-x="303" 
d="M88 -241l9 185h144l3 -11l-53 -174h-103zM199 -8c-94 0 -153 33 -153 137v593l172 29v-592c0 -27 11 -40 34 -40c14 0 21 3 30 6l6 -4v-114c-18 -7 -50 -15 -89 -15z" />
    <glyph glyph-name="ldot.alt" horiz-adv-x="407" 
d="M199 -8c-94 0 -153 33 -153 137v593l172 29v-592c0 -27 11 -40 34 -40c14 0 21 3 30 6l6 -4v-114c-18 -7 -50 -15 -89 -15zM261 308v147h162v-147h-162z" />
    <glyph glyph-name="lslash.alt" horiz-adv-x="319" 
d="M212 -8c-94 0 -153 33 -153 137v194l-50 -22v120l50 22v279l172 29v-232l71 32v-120l-71 -32v-240c0 -27 11 -40 34 -40c14 0 21 3 30 6l6 -4v-114c-18 -7 -50 -15 -89 -15z" />
    <glyph glyph-name="tbar.alt" horiz-adv-x="378" 
d="M352 263h-91v-263h-172v263h-67v89h67v76h-67v122h67v88l172 27v-115h91v-122h-91v-76h91v-89z" />
    <glyph glyph-name="tcaron.alt" horiz-adv-x="376" 
d="M289 581l7 162h119v-33l-30 -129h-96zM352 428h-91v-428h-172v428h-67v122h67v88l172 27v-115h91v-122z" />
    <glyph glyph-name="tcommaaccent.alt" horiz-adv-x="387" 
d="M98 -241l9 185h144l3 -11l-53 -174h-103zM352 428h-91v-428h-172v428h-67v122h67v88l172 27v-115h91v-122z" />
    <glyph glyph-name="yacute.alt" horiz-adv-x="577" 
d="M355 597h-129l78 171h171zM297 -194h-173v8l82 213l-200 515v8h182l112 -323l111 323h159v-8z" />
    <glyph glyph-name="yacute.alt1" horiz-adv-x="604" 
d="M358 597h-129l78 171h171zM275 -210c-87 0 -160 18 -207 42v138l6 2c47 -27 103 -46 174 -46c102 0 138 33 138 101v37c-37 -38 -87 -69 -159 -69c-109 0 -185 62 -185 193v362h172v-334c0 -62 32 -85 80 -85c35 0 65 9 92 30v389h172v-526c0 -169 -114 -234 -283 -234z
" />
    <glyph glyph-name="ycircumflex.alt" horiz-adv-x="577" 
d="M300 665l-58 -68h-130l128 166h120l128 -166h-130zM297 -194h-173v8l82 213l-200 515v8h182l112 -323l111 323h159v-8z" />
    <glyph glyph-name="ycircumflex.alt1" horiz-adv-x="604" 
d="M302 665l-58 -68h-130l128 166h120l128 -166h-130zM275 -210c-87 0 -160 18 -207 42v138l6 2c47 -27 103 -46 174 -46c102 0 138 33 138 101v37c-37 -38 -87 -69 -159 -69c-109 0 -185 62 -185 193v362h172v-334c0 -62 32 -85 80 -85c35 0 65 9 92 30v389h172v-526
c0 -169 -114 -234 -283 -234z" />
    <glyph glyph-name="ydieresis.alt" horiz-adv-x="577" 
d="M124 611v136h148v-136h-148zM332 611v136h148v-136h-148zM297 -194h-173v8l82 213l-200 515v8h182l112 -323l111 323h159v-8z" />
    <glyph glyph-name="ydieresis.alt1" horiz-adv-x="604" 
d="M126 611v136h148v-136h-148zM334 611v136h148v-136h-148zM275 -210c-87 0 -160 18 -207 42v138l6 2c47 -27 103 -46 174 -46c102 0 138 33 138 101v37c-37 -38 -87 -69 -159 -69c-109 0 -185 62 -185 193v362h172v-334c0 -62 32 -85 80 -85c35 0 65 9 92 30v389h172v-526
c0 -169 -114 -234 -283 -234z" />
    <glyph glyph-name="ygrave.alt" horiz-adv-x="577" 
d="M297 -194h-173v8l82 213l-200 515v8h182l112 -323l111 323h159v-8zM249 597l-120 171h171l77 -171h-128z" />
    <glyph glyph-name="ygrave.alt1" horiz-adv-x="604" 
d="M275 -210c-87 0 -160 18 -207 42v138l6 2c47 -27 103 -46 174 -46c102 0 138 33 138 101v37c-37 -38 -87 -69 -159 -69c-109 0 -185 62 -185 193v362h172v-334c0 -62 32 -85 80 -85c35 0 65 9 92 30v389h172v-526c0 -169 -114 -234 -283 -234zM252 597l-120 171h171
l77 -171h-128z" />
    <glyph glyph-name="space_uni0326.alt" 
d="M272 782l-9 -185h-143l-5 8l55 177h102z" />
    <glyph glyph-name="ordfeminine.alt" horiz-adv-x="518" 
d="M255 341c31 0 54 8 73 23v206c-19 16 -41 25 -71 25c-55 0 -89 -47 -89 -135c0 -84 36 -119 87 -119zM354 243l-12 49c-30 -38 -72 -59 -131 -59c-113 0 -189 74 -189 227c0 157 82 238 193 238c53 0 91 -19 119 -50l6 40h132v-445h-118z" />
    <glyph glyph-name="asterisk.alt" horiz-adv-x="399" 
d="M261 361l-61 125l-62 -125l-97 72l84 88l-118 22l39 117l109 -62l-20 131h129l-20 -131l109 62l38 -117l-117 -22l84 -88z" />
    <glyph glyph-name="registered.alt" horiz-adv-x="783" 
d="M30 352c0 214 157 367 361 367s362 -153 362 -367c0 -212 -158 -366 -362 -366s-361 154 -361 366zM685 352c0 175 -124 306 -294 306c-168 0 -294 -131 -294 -306c0 -172 126 -305 294 -305c170 0 294 133 294 305zM392 467h-36v-93h36c38 0 53 17 53 47
c0 32 -16 46 -53 46zM456 161l-66 135h-34v-135h-117v387h162c106 0 155 -43 155 -123c0 -51 -21 -85 -59 -103l77 -155v-6h-118z" />
    <glyph glyph-name="caron.alt" horiz-adv-x="402" 
d="M148 581l7 162h119v-33l-30 -129h-96z" />
    <glyph glyph-name="breve_acute.uc" 
d="M263 932h-131l64 105h169zM26 911c9 -100 77 -158 174 -158s165 58 174 158h-112c-8 -36 -29 -56 -62 -56s-55 19 -62 56h-112z" />
    <glyph glyph-name="breve_grave.uc" 
d="M135 932l-102 105h169l64 -105h-131zM200 753c-97 0 -165 58 -174 158h112c7 -37 29 -56 62 -56s54 20 62 56h112c-9 -100 -77 -158 -174 -158z" />
    <glyph glyph-name="breve_hook.uc" 
d="M104 1077c19 9 52 19 99 19c83 0 141 -25 141 -79c0 -69 -96 -77 -96 -89v-1h-110v3c0 40 80 51 80 71c0 11 -8 19 -40 19c-27 0 -50 -7 -68 -15l-6 3v69zM26 911c9 -100 77 -158 174 -158s165 58 174 158h-112c-8 -36 -29 -56 -62 -56s-55 19 -62 56h-112z" />
    <glyph glyph-name="breve_tilde.uc" 
d="M269 1036c31 0 55 12 83 39l8 -3l22 -95c-20 -27 -60 -52 -104 -52c-71 0 -100 34 -145 34c-37 0 -61 -11 -89 -38l-8 3l-22 95c20 29 60 51 104 51c71 0 100 -34 151 -34zM200 753c-97 0 -165 58 -174 140h112c5 -24 29 -38 62 -38s56 15 62 38h112
c-9 -82 -77 -140 -174 -140z" />
    <glyph glyph-name="circumflex_acute.uc" 
d="M443 872h-121l54 119h159zM200 823l-61 -66h-132l128 160h130l128 -160h-132z" />
    <glyph glyph-name="circumflex_grave.uc" 
d="M369 872l-92 119h159l54 -119h-121zM200 823l-61 -66h-132l128 160h130l128 -160h-132z" />
    <glyph glyph-name="circumflex_hook.uc" 
d="M300 1016c19 9 44 18 94 18c71 0 122 -24 122 -85c0 -60 -70 -73 -70 -91v-1h-107v3c0 40 61 54 61 76c0 14 -11 22 -39 22c-20 0 -38 -5 -55 -14l-6 3v69zM200 823l-61 -66h-132l128 160h130l128 -160h-132z" />
    <glyph glyph-name="circumflex_tilde.uc" 
d="M270 1034c31 0 55 12 83 39l8 -3l22 -95c-20 -27 -60 -52 -104 -52c-71 0 -100 34 -145 34c-37 0 -61 -11 -89 -38l-8 3l-22 95c20 29 60 51 104 51c71 0 100 -34 151 -34zM200 801l-61 -44h-132l128 138h130l128 -138h-132z" />
    <glyph glyph-name="dollar.uc" horiz-adv-x="568" 
d="M191 524c0 -33 18 -54 65 -72l32 136c-65 -1 -97 -26 -97 -64zM360 196c0 34 -19 51 -63 67l-34 -142c63 4 97 31 97 75zM256 -10h-24l-28 -119h-95l31 130c-47 9 -84 23 -113 39v148l6 2c43 -26 86 -49 137 -60l38 160c-123 38 -182 101 -182 207c0 141 102 221 267 221
h26l21 87h96l-23 -98c33 -7 61 -16 85 -28v-141l-7 -1c-34 19 -70 33 -109 42l-36 -155c142 -45 195 -90 195 -208c0 -150 -102 -226 -285 -226z" />
    <glyph glyph-name="Euro.uc" horiz-adv-x="608" 
d="M586 40c-40 -26 -90 -52 -179 -52c-177 0 -291 94 -327 255h-67v89h56c-1 9 -1 19 -1 29v23h-55v87h67c37 165 162 248 315 248c78 0 134 -17 175 -41v-133l-8 -5c-50 30 -82 43 -145 43c-77 0 -132 -35 -157 -112h192v-87h-207c-1 -9 -1 -18 -1 -27s0 -17 1 -25h207v-89
h-193c25 -78 81 -117 163 -117c64 0 106 20 157 56l7 -4v-138z" />
    <glyph glyph-name="sterling.uc" horiz-adv-x="603" 
d="M574 130v-130h-560v83c79 60 90 111 102 184l2 16h-66v111h83l18 118c20 133 92 207 241 207c70 0 121 -11 172 -34v-126l-10 -5c-38 20 -70 31 -112 31c-56 0 -96 -21 -109 -95l-17 -96h163v-111h-182l-2 -10c-12 -66 -21 -102 -74 -143h351z" />
    <glyph glyph-name="yen.uc" horiz-adv-x="642" 
d="M585 139h-162v-139h-200v139h-163v87h163v51h-163v87h143l-192 333v8h202l120 -239l119 239h179v-8l-192 -333h146v-87h-162v-51h162v-87z" />
    <glyph glyph-name="zero.uc" horiz-adv-x="694" 
d="M347 -12c-190 0 -320 135 -322 368c0 234 132 364 322 364c191 0 321 -130 322 -364c0 -233 -131 -368 -322 -368zM347 122c85 0 128 83 128 234c0 153 -43 230 -128 230c-83 0 -128 -77 -128 -230c0 -151 45 -234 128 -234z" />
    <glyph glyph-name="one.uc" horiz-adv-x="407" 
d="M336 0h-186v512l-125 -73l-7 3v151l208 119h110v-712z" />
    <glyph glyph-name="two.uc" horiz-adv-x="548" 
d="M17 0v87l217 230c58 61 89 118 89 173c0 52 -34 90 -113 90c-69 0 -112 -18 -166 -50l-8 4v134c51 31 115 51 214 51c163 0 260 -76 260 -215c0 -97 -57 -171 -138 -256l-114 -118h266v-130h-507z" />
    <glyph glyph-name="three.uc" horiz-adv-x="554" 
d="M257 -12c-124 0 -188 29 -234 55v133l8 5c59 -36 108 -56 196 -56c81 0 116 35 116 90c0 51 -29 87 -117 87h-81v122h69c84 0 110 36 110 80c0 54 -32 81 -111 81c-74 0 -110 -15 -164 -45l-9 4v128c49 29 110 47 215 47c141 0 251 -62 251 -189
c0 -80 -41 -130 -120 -156c97 -23 143 -82 143 -173c0 -133 -95 -213 -272 -213z" />
    <glyph glyph-name="four.uc" horiz-adv-x="624" 
d="M333 254v195l-143 -195h143zM615 128h-102v-128h-180v128h-326v81l366 502h140v-457h102v-126z" />
    <glyph glyph-name="five.uc" horiz-adv-x="549" 
d="M240 -12c-107 0 -179 23 -223 50v130l8 5c55 -33 102 -52 178 -52c93 0 134 41 134 102c0 66 -46 94 -146 94c-66 0 -105 -12 -132 -22l-8 5v405h443v-130h-290v-134c16 2 34 3 52 3c173 0 268 -77 268 -219c0 -143 -100 -237 -284 -237z" />
    <glyph glyph-name="six.uc" horiz-adv-x="621" 
d="M603 228c0 -138 -95 -240 -273 -240c-189 0 -304 119 -304 334c0 271 147 397 348 397c76 0 136 -9 182 -33v-139l-9 -3c-40 23 -86 41 -151 41c-103 0 -165 -50 -181 -182c35 26 87 47 162 47c123 0 226 -70 226 -222zM314 334c-42 0 -76 -14 -103 -34
c5 -132 44 -186 113 -184c67 2 96 45 96 114c0 73 -38 104 -106 104z" />
    <glyph glyph-name="seven.uc" horiz-adv-x="549" 
d="M278 0h-187c34 157 108 303 186 447l63 117h-322v141h517v-100l-96 -180c-79 -147 -136 -296 -161 -425z" />
    <glyph glyph-name="eight.uc" horiz-adv-x="609" 
d="M307 -12c-181 0 -286 76 -286 195c0 78 57 137 135 163c-77 39 -116 96 -116 172c0 127 118 201 261 201c148 0 268 -53 268 -189c0 -73 -52 -122 -117 -150c88 -40 136 -91 136 -183c0 -128 -100 -209 -281 -209zM338 423l2 -1c40 25 65 57 65 95c0 57 -42 86 -98 86
c-57 0 -91 -32 -91 -77c0 -42 33 -72 122 -103zM303 106c70 0 105 36 105 84c0 49 -41 80 -135 113c-45 -23 -82 -54 -82 -105c0 -61 43 -92 112 -92z" />
    <glyph glyph-name="nine.uc" horiz-adv-x="619" 
d="M305 375c43 0 78 16 103 36c-4 130 -39 180 -109 180c-68 0 -100 -41 -100 -111c0 -74 39 -105 106 -105zM233 -12c-75 0 -138 11 -183 34v138l9 3c38 -23 88 -41 153 -41c119 0 179 48 193 184c-30 -26 -80 -47 -162 -47c-124 0 -225 67 -225 221c0 138 100 239 277 239
c186 0 298 -113 298 -334c0 -284 -141 -397 -360 -397z" />
    <glyph glyph-name="percent.uc" horiz-adv-x="856" 
d="M18 540c0 101 76 179 192 179c117 0 192 -78 192 -179c0 -104 -75 -180 -192 -180c-116 0 -192 76 -192 180zM134 0l496 705h94l-495 -705h-95zM210 450c44 0 67 38 67 90s-23 89 -67 89s-68 -36 -68 -89c0 -52 25 -90 68 -90zM646 345c117 0 192 -78 192 -179
c0 -104 -75 -180 -192 -180c-116 0 -192 76 -192 180c0 101 76 179 192 179zM646 76c43 0 67 38 67 90s-24 89 -67 89c-44 0 -68 -36 -68 -89c0 -52 25 -90 68 -90z" />
    <glyph glyph-name="perthousand.uc" horiz-adv-x="1270" 
d="M210 360c-116 0 -192 76 -192 180c0 101 76 179 192 179c117 0 192 -78 192 -179c0 -104 -75 -180 -192 -180zM130 0l496 705h94l-495 -705h-95zM210 450c44 0 67 38 67 90s-23 89 -67 89s-68 -36 -68 -89c0 -52 25 -90 68 -90zM1059 -14c-116 0 -192 76 -192 180
c0 101 76 179 192 179c117 0 192 -78 192 -179c0 -104 -75 -180 -192 -180zM642 -14c-116 0 -193 76 -193 180c0 101 77 179 193 179s192 -78 192 -179c0 -104 -76 -180 -192 -180zM1059 76c43 0 67 38 67 90s-24 89 -67 89c-44 0 -68 -36 -68 -89c0 -52 25 -90 68 -90z
M642 76c43 0 67 38 67 90s-24 89 -67 89c-44 0 -68 -36 -68 -89c0 -52 25 -90 68 -90z" />
    <glyph glyph-name="questiondown.uc" horiz-adv-x="475" 
d="M369 705v-157h-183v157h183zM446 32c-40 -25 -101 -46 -188 -46c-137 0 -228 63 -228 188c0 86 37 138 111 193c37 29 56 48 56 88v17h159v-23c0 -81 -28 -118 -88 -166c-39 -31 -58 -52 -58 -92c0 -35 24 -61 78 -61c68 0 108 20 151 48l7 -4v-142z" />
    <glyph glyph-name="exclamdown.uc" horiz-adv-x="280" 
d="M232 705v-157h-182v157h182zM209 472l25 -472h-188l26 472h137z" />
    <glyph glyph-name="hyphen.uc" horiz-adv-x="342" 
d="M33 270v136h276v-136h-276z" />
    <glyph glyph-name="endash.uc" horiz-adv-x="527" 
d="M30 285v115h467v-115h-467z" />
    <glyph glyph-name="emdash.uc" horiz-adv-x="969" 
d="M30 285v115h909v-115h-909z" />
    <glyph glyph-name="guilsinglleft.uc" horiz-adv-x="258" 
d="M121 94l-107 196l112 196h113l-109 -196l104 -196h-113z" />
    <glyph glyph-name="guilsinglright.uc" horiz-adv-x="258" 
d="M24 94l104 196l-109 196h113l112 -196l-107 -196h-113z" />
    <glyph glyph-name="guillemotleft.uc" horiz-adv-x="434" 
d="M296 94l-107 196l113 196h113l-109 -196l103 -196h-113zM121 94l-107 196l112 196h113l-109 -196l104 -196h-113z" />
    <glyph glyph-name="guillemotright.uc" horiz-adv-x="434" 
d="M200 94l104 196l-109 196h113l112 -196l-107 -196h-113zM25 94l103 196l-109 196h113l113 -196l-107 -196h-113z" />
    <glyph glyph-name="parenleft.uc" horiz-adv-x="361" 
d="M196 -100c-104 128 -164 266 -164 438c0 173 60 308 164 436h151c-85 -127 -145 -263 -145 -436s60 -311 145 -438h-151z" />
    <glyph glyph-name="parenright.uc" horiz-adv-x="361" 
d="M165 -100h-151c85 127 145 265 145 438s-60 309 -145 436h151c104 -128 164 -263 164 -436c0 -172 -60 -310 -164 -438z" />
    <glyph glyph-name="bracketleft.uc" horiz-adv-x="394" 
d="M65 -100v874h291v-122h-127v-630h127v-122h-291z" />
    <glyph glyph-name="bracketright.uc" horiz-adv-x="394" 
d="M38 -100v122h127v630h-127v122h291v-874h-291z" />
    <glyph glyph-name="braceleft.uc" horiz-adv-x="388" 
d="M355 -100c-230 0 -291 75 -260 211l17 75c15 66 6 90 -88 92v119c93 3 104 26 88 93l-17 72c-33 139 30 212 260 212v-121c-92 0 -112 -25 -96 -93l13 -54c22 -93 6 -145 -83 -168c89 -24 107 -73 84 -164l-15 -59c-16 -65 5 -94 97 -94v-121z" />
    <glyph glyph-name="braceright.uc" horiz-adv-x="388" 
d="M33 -100v121c92 0 113 29 97 94l-15 59c-23 91 -5 140 84 164c-89 23 -105 75 -83 168l13 54c16 68 -4 93 -96 93v121c230 0 293 -73 260 -212l-17 -72c-16 -67 -5 -90 88 -93v-119c-94 -2 -103 -26 -88 -92l17 -75c31 -136 -30 -211 -260 -211z" />
    <glyph glyph-name="slash.uc" horiz-adv-x="426" 
d="M-4 -100l290 874h134l-290 -874h-134z" />
    <glyph glyph-name="backslash.uc" horiz-adv-x="426" 
d="M3 774h134l291 -874h-134z" />
    <glyph glyph-name="bar.uc" horiz-adv-x="238" 
d="M59 -100v874h120v-874h-120z" />
    <glyph glyph-name="at.uc" horiz-adv-x="884" 
d="M452 -120c-263 0 -422 175 -422 399c0 251 186 441 432 441c233 0 393 -160 393 -346c0 -195 -99 -296 -211 -296c-73 0 -120 25 -142 72c-30 -43 -73 -72 -129 -72c-100 0 -166 80 -166 197c0 149 94 249 208 249c48 0 83 -20 106 -51l6 42h142l-35 -277
c-8 -62 7 -83 40 -83c43 0 105 56 105 219c0 164 -131 280 -319 280c-189 0 -354 -147 -354 -380c0 -188 128 -328 348 -328c90 0 142 16 194 44l6 -3v-65c-55 -30 -117 -42 -202 -42zM421 199c26 0 49 9 68 32l19 140c-19 25 -36 34 -65 34c-50 0 -84 -46 -84 -121
c0 -55 25 -85 62 -85z" />
    <glyph glyph-name="grave.uc" 
d="M150 757l-117 155h168l80 -155h-131z" />
    <glyph glyph-name="dieresis.uc" horiz-adv-x="401" 
d="M236 744v133h155v-133h-155zM9 744v133h155v-133h-155z" />
    <glyph glyph-name="macron.uc" horiz-adv-x="585" 
d="M120 775v110h341v-110h-341z" />
    <glyph glyph-name="acute.uc" horiz-adv-x="401" 
d="M262 757h-131l80 155h169z" />
    <glyph glyph-name="circumflex.uc" 
d="M200 823l-61 -66h-132l128 160h130l128 -160h-132z" />
    <glyph glyph-name="caron.uc" 
d="M200 851l61 66h132l-128 -160h-130l-128 160h132z" />
    <glyph glyph-name="breve.uc" 
d="M200 753c-97 0 -165 58 -174 158h112c7 -37 29 -56 62 -56s54 20 62 56h112c-9 -100 -77 -158 -174 -158z" />
    <glyph glyph-name="dotaccent.uc" 
d="M118 765v135h164v-135h-164z" />
    <glyph glyph-name="ring.uc" 
d="M200 742c-71 0 -119 47 -119 115c0 67 48 115 119 115s119 -48 119 -115c0 -68 -48 -115 -119 -115zM200 902c-26 0 -43 -20 -43 -45c0 -26 17 -45 43 -45s43 19 43 45c0 25 -17 45 -43 45z" />
    <glyph glyph-name="tilde.uc" horiz-adv-x="382" 
d="M262 872c31 0 55 12 83 39l8 -3l22 -95c-20 -27 -60 -52 -104 -52c-71 0 -100 34 -145 34c-37 0 -61 -11 -89 -38l-8 3l-22 95c20 29 60 51 104 51c71 0 100 -34 151 -34z" />
    <glyph glyph-name="hungarumlaut.uc" 
d="M134 757h-114l42 152h158c-1 0 -86 -152 -86 -152zM334 757h-113l46 152h159c-3 0 -92 -152 -92 -152z" />
    <glyph glyph-name="A.flat" horiz-adv-x="711" 
d="M419 263l-78 240l-79 -240h157zM505 0l-43 133h-242l-44 -133h-170v8l253 697h193l253 -697v-8h-200z" />
    <glyph glyph-name="Aacute.flat" horiz-adv-x="710" 
d="M419 263l-78 240l-79 -240h157zM505 0l-43 133h-242l-44 -133h-170v8l253 697h193l253 -697v-8h-200zM411 757h-131l80 155h169z" />
    <glyph glyph-name="Abreve.flat" horiz-adv-x="710" 
d="M419 263l-78 240l-79 -240h157zM505 0l-43 133h-242l-44 -133h-170v8l253 697h193l253 -697v-8h-200zM356 753c-97 0 -165 58 -174 158h112c7 -37 29 -56 62 -56s54 20 62 56h112c-9 -100 -77 -158 -174 -158z" />
    <glyph glyph-name="Acircumflex.flat" horiz-adv-x="710" 
d="M419 263l-78 240l-79 -240h157zM505 0l-43 133h-242l-44 -133h-170v8l253 697h193l253 -697v-8h-200zM355 823l-61 -66h-132l128 160h130l128 -160h-132z" />
    <glyph glyph-name="Adieresis.flat" horiz-adv-x="710" 
d="M419 263l-78 240l-79 -240h157zM505 0l-43 133h-242l-44 -133h-170v8l253 697h193l253 -697v-8h-200zM392 744v133h155v-133h-155zM165 744v133h155v-133h-155z" />
    <glyph glyph-name="Agrave.flat" horiz-adv-x="710" 
d="M419 263l-78 240l-79 -240h157zM505 0l-43 133h-242l-44 -133h-170v8l253 697h193l253 -697v-8h-200zM302 757l-117 155h168l80 -155h-131z" />
    <glyph glyph-name="Amacron.flat" horiz-adv-x="710" 
d="M419 263l-78 240l-79 -240h157zM505 0l-43 133h-242l-44 -133h-170v8l253 697h193l253 -697v-8h-200zM184 775v110h341v-110h-341z" />
    <glyph glyph-name="Aogonek.flat" horiz-adv-x="710" 
d="M617 -217c-87 0 -130 37 -130 95c0 51 20 83 97 122h-79l-43 133h-242l-44 -133h-170v8l253 697h193l253 -697v-8c-54 -25 -83 -61 -83 -85c0 -21 10 -35 42 -35c15 0 26 3 37 8l6 -3v-85c-21 -9 -50 -17 -90 -17zM419 263l-78 240l-79 -240h157z" />
    <glyph glyph-name="Aring.flat" horiz-adv-x="710" 
d="M419 263l-78 240l-79 -240h157zM505 0l-43 133h-242l-44 -133h-170v8l253 697h193l253 -697v-8h-200zM355 742c-71 0 -119 47 -119 115c0 67 48 115 119 115s119 -48 119 -115c0 -68 -48 -115 -119 -115zM355 902c-26 0 -43 -20 -43 -45c0 -26 17 -45 43 -45s43 19 43 45
c0 25 -17 45 -43 45z" />
    <glyph glyph-name="Aringacute.flat" horiz-adv-x="710" 
d="M419 263l-78 240l-79 -240h157zM505 0l-43 133h-242l-44 -133h-170v8l253 697h193l253 -697v-8h-200zM415 978h-131l80 155h169zM355 727c-71 0 -119 47 -119 115c0 67 48 115 119 115s119 -48 119 -115c0 -68 -48 -115 -119 -115zM355 887c-26 0 -43 -20 -43 -45
c0 -26 17 -45 43 -45s43 19 43 45c0 25 -17 45 -43 45z" />
    <glyph glyph-name="Atilde.flat" horiz-adv-x="710" 
d="M419 263l-78 240l-79 -240h157zM505 0l-43 133h-242l-44 -133h-170v8l253 697h193l253 -697v-8h-200zM420 872c31 0 55 12 83 39l8 -3l22 -95c-20 -27 -60 -52 -104 -52c-71 0 -100 34 -145 34c-37 0 -61 -11 -89 -38l-8 3l-22 95c20 29 60 51 104 51
c71 0 100 -34 151 -34z" />
    <glyph glyph-name="Eng.flat" horiz-adv-x="754" 
d="M409 -198v138c62 10 91 27 99 83l-286 426v-449h-163v705h197l276 -413v413h163v-645c0 -167 -70 -246 -286 -258z" />
    <glyph glyph-name="M.flat" horiz-adv-x="875" 
d="M369 0l-155 429v-429h-155v705h225l149 -405l153 405h230v-705h-177v427l-158 -427h-112z" />
    <glyph glyph-name="M.flatalt" horiz-adv-x="906" 
d="M388 0l-152 413l-34 -413h-163l63 705h199l151 -409l153 409h194l68 -705h-188l-37 414l-154 -414h-100z" />
    <glyph glyph-name="N.flat" horiz-adv-x="754" 
d="M529 0l-300 436v-436h-170v705h197l269 -391v391h170v-705h-166z" />
    <glyph glyph-name="Nacute.flat" horiz-adv-x="754" 
d="M451 757h-131l80 155h169zM529 0l-300 436v-436h-170v705h197l269 -391v391h170v-705h-166z" />
    <glyph glyph-name="Ncaron.flat" horiz-adv-x="754" 
d="M396 851l61 66h132l-128 -160h-130l-128 160h132zM529 0l-300 436v-436h-170v705h197l269 -391v391h170v-705h-166z" />
    <glyph glyph-name="Ncommaaccent.flat" horiz-adv-x="754" 
d="M288 -241l9 185h144l3 -11l-53 -174h-103zM529 0l-300 436v-436h-170v705h197l269 -391v391h170v-705h-166z" />
    <glyph glyph-name="Ntilde.flat" horiz-adv-x="754" 
d="M461 872c31 0 55 12 83 39l8 -3l22 -95c-20 -27 -60 -52 -104 -52c-71 0 -100 34 -145 34c-37 0 -61 -11 -89 -38l-8 3l-22 95c20 29 60 51 104 51c71 0 100 -34 151 -34zM529 0l-300 436v-436h-170v705h197l269 -391v391h170v-705h-166z" />
    <glyph glyph-name="V.flat" horiz-adv-x="707" 
d="M452 0h-198l-244 697v8h201l153 -490l154 490h179v-8z" />
    <glyph glyph-name="W.flat" horiz-adv-x="995" 
d="M586 0l-91 304l-101 -304h-179l-205 697v8h198l126 -464l87 281l-45 175v8h185l128 -475l121 475h173l2 -8l-200 -697h-199z" />
    <glyph glyph-name="W.flatalt" horiz-adv-x="989" 
d="M613 0l-121 427l-123 -427h-174l-182 697v8h189l106 -447l120 447h140l125 -449l105 449h178v-8l-184 -697h-179z" />
    <glyph glyph-name="Wacute.flat" horiz-adv-x="995" 
d="M534 757h-131l80 155h169zM586 0l-91 304l-101 -304h-179l-205 697v8h198l126 -464l87 281l-45 175v8h185l128 -475l121 475h173l2 -8l-200 -697h-199z" />
    <glyph glyph-name="Wacute.flatalt" horiz-adv-x="989" 
d="M557 757h-131l80 155h169zM613 0l-121 427l-123 -427h-174l-182 697v8h189l106 -447l120 447h140l125 -449l105 449h178v-8l-184 -697h-179z" />
    <glyph glyph-name="Wcircumflex.flat" horiz-adv-x="995" 
d="M479 823l-61 -66h-132l128 160h130l128 -160h-132zM586 0l-91 304l-101 -304h-179l-205 697v8h198l126 -464l87 281l-45 175v8h185l128 -475l121 475h173l2 -8l-200 -697h-199z" />
    <glyph glyph-name="Wcircumflex.flatalt" horiz-adv-x="989" 
d="M496 823l-61 -66h-132l128 160h130l128 -160h-132zM613 0l-121 427l-123 -427h-174l-182 697v8h189l106 -447l120 447h140l125 -449l105 449h178v-8l-184 -697h-179z" />
    <glyph glyph-name="Wdieresis.flat" horiz-adv-x="995" 
d="M515 744v133h155v-133h-155zM288 744v133h155v-133h-155zM586 0l-91 304l-101 -304h-179l-205 697v8h198l126 -464l87 281l-45 175v8h185l128 -475l121 475h173l2 -8l-200 -697h-199z" />
    <glyph glyph-name="Wdieresis.flatalt" horiz-adv-x="989" 
d="M613 0l-121 427l-123 -427h-174l-182 697v8h189l106 -447l120 447h140l125 -449l105 449h178v-8l-184 -697h-179zM532 744v133h155v-133h-155zM305 744v133h155v-133h-155z" />
    <glyph glyph-name="Wgrave.flat" horiz-adv-x="995" 
d="M426 757l-117 155h168l80 -155h-131zM586 0l-91 304l-101 -304h-179l-205 697v8h198l126 -464l87 281l-45 175v8h185l128 -475l121 475h173l2 -8l-200 -697h-199z" />
    <glyph glyph-name="Wgrave.flatalt" horiz-adv-x="989" 
d="M440 757l-117 155h168l80 -155h-131zM613 0l-121 427l-123 -427h-174l-182 697v8h189l106 -447l120 447h140l125 -449l105 449h178v-8l-184 -697h-179z" />
    <glyph glyph-name="Z.flat" horiz-adv-x="614" 
d="M583 0h-560v127l328 435h-303v143h525v-140l-319 -422h329v-143z" />
    <glyph glyph-name="Zacute.flat" horiz-adv-x="611" 
d="M367 757h-131l80 155h169zM583 0h-560v127l328 435h-303v143h525v-140l-319 -422h329v-143z" />
    <glyph glyph-name="Zcaron.flat" horiz-adv-x="611" 
d="M311 851l61 66h132l-128 -160h-130l-128 160h132zM583 0h-560v127l328 435h-303v143h525v-140l-319 -422h329v-143z" />
    <glyph glyph-name="Zdotaccent.flat" horiz-adv-x="611" 
d="M583 0h-560v127l328 435h-303v143h525v-140l-319 -422h329v-143zM229 765v135h164v-135h-164z" />
    <glyph glyph-name="four.denflat" horiz-adv-x="362" 
d="M180 158v106l-72 -106h72zM351 77h-53v-77h-118v77h-168v64l167 244h119v-227h53v-81z" />
    <glyph glyph-name="four.flat" horiz-adv-x="593" 
d="M311 273v196l-136 -196h136zM583 147h-94v-147h-178v147h-297v101l305 442h170v-417h94v-126z" />
    <glyph glyph-name="four.numflat" horiz-adv-x="362" 
d="M180 463v105l-72 -105h72zM351 382h-53v-77h-118v77h-168v64l167 244h119v-227h53v-81z" />
    <glyph glyph-name="four.subflat" horiz-adv-x="362" 
d="M180 57v106l-73 -106h73zM351 -24h-53v-76h-118v76h-168v65l167 244h119v-228h53v-81z" />
    <glyph glyph-name="four.supflat" horiz-adv-x="362" 
d="M180 521v105l-72 -105h72zM351 440h-53v-77h-118v77h-168v64l167 244h119v-227h53v-81z" />
    <glyph glyph-name="four.ucflat" horiz-adv-x="625" 
d="M330 277v209l-149 -209h149zM615 151h-102v-151h-183v151h-316v101l324 453h175v-428h102v-126z" />
    <glyph glyph-name="hook" 
d="M91 776c30 15 60 24 107 24c83 0 138 -29 138 -89c0 -76 -94 -89 -94 -107v-1h-107v3c0 65 81 64 81 92c0 13 -11 22 -43 22c-27 0 -47 -6 -76 -19l-6 3v72z" />
    <glyph glyph-name="hook.uc" 
d="M91 924c31 16 62 23 109 23c83 0 138 -29 138 -89c0 -76 -94 -89 -94 -107v-1h-107v3c0 65 81 64 81 92c0 13 -11 22 -43 22c-27 0 -48 -4 -78 -18l-6 3v72z" />
    <glyph glyph-name="one.denflat" horiz-adv-x="258" 
d="M212 0h-123v263l-74 -45l-3 2v103l105 62h95v-385z" />
    <glyph glyph-name="one.flat" horiz-adv-x="387" 
d="M320 0h-181v504l-115 -73l-6 3v151l168 105h134v-690z" />
    <glyph glyph-name="one.numflat" horiz-adv-x="258" 
d="M212 305h-123v262l-74 -44l-3 1v104l105 62h95v-385z" />
    <glyph glyph-name="one.subflat" horiz-adv-x="258" 
d="M212 -100h-123v262l-74 -44l-3 1v104l105 62h95v-385z" />
    <glyph glyph-name="one.supflat" horiz-adv-x="258" 
d="M212 363h-123v262l-74 -44l-3 1v104l105 62h95v-385z" />
    <glyph glyph-name="one.ucflat" horiz-adv-x="408" 
d="M337 0h-186v519l-125 -80l-7 3v151l180 112h138v-705z" />
    <glyph glyph-name="oneeighth.flat" horiz-adv-x="794" 
d="M212 305h-123v262l-74 -44l-3 1v104l105 62h95v-385zM62 0l535 690h97l-536 -690h-96zM619 -7c-103 0 -162 44 -162 109c0 43 25 74 69 87c-39 22 -58 51 -58 93c0 74 65 109 147 109s152 -32 152 -105c0 -42 -26 -66 -62 -80c47 -23 73 -51 73 -101
c0 -72 -57 -112 -159 -112zM579 285c0 -20 17 -33 59 -50c15 11 23 26 23 43c0 25 -17 39 -43 39c-25 0 -39 -13 -39 -32zM615 68c32 0 47 17 47 37c0 25 -22 37 -67 55c-18 -12 -30 -27 -30 -50c0 -26 18 -42 50 -42z" />
    <glyph glyph-name="onehalf.flat" horiz-adv-x="799" 
d="M494 0v73l107 105c33 33 48 53 48 79c0 24 -17 39 -57 39c-37 0 -61 -10 -89 -28l-5 3v90c27 19 66 30 124 30c94 0 147 -41 147 -120c0 -57 -24 -90 -71 -136l-49 -48h127v-87h-282zM212 305h-123v262l-74 -44l-3 1v104l105 62h95v-385zM67 0l535 690h97l-536 -690h-96z
" />
    <glyph glyph-name="onequarter.flat" horiz-adv-x="777" 
d="M212 305h-123v262l-74 -44l-3 1v104l105 62h95v-385zM63 0l535 690h97l-536 -690h-96zM591 158v106l-72 -106h72zM762 77h-53v-77h-118v77h-168v64l167 244h119v-227h53v-81z" />
    <glyph glyph-name="onethird.flat" horiz-adv-x="787" 
d="M212 305h-123v262l-74 -44l-3 1v104l105 62h95v-385zM57 0l535 690h97l-536 -690h-96zM610 -7c-70 0 -106 17 -131 31v88l4 3c31 -19 61 -30 108 -30c38 0 56 14 56 38c0 22 -17 36 -55 36h-48v74h42c38 0 50 14 50 34c0 22 -16 34 -53 34c-40 0 -64 -8 -92 -24l-5 3v85
c25 15 59 26 122 26c80 0 145 -33 145 -104c0 -45 -23 -71 -70 -84c57 -12 83 -41 83 -91c0 -75 -54 -119 -156 -119z" />
    <glyph glyph-name="seven.denflat" horiz-adv-x="330" 
d="M182 0h-128c23 91 56 156 104 239l28 50h-169v95h293v-80l-39 -78c-45 -87 -70 -150 -89 -226z" />
    <glyph glyph-name="seven.flat" horiz-adv-x="516" 
d="M264 0h-182c31 153 101 297 176 435l57 109h-297v141h477v-117l-77 -155c-73 -144 -131 -288 -154 -413z" />
    <glyph glyph-name="seven.numflat" horiz-adv-x="330" 
d="M182 306h-128c23 91 56 156 104 239l28 50h-169v95h293v-80l-39 -78c-45 -87 -70 -150 -89 -226z" />
    <glyph glyph-name="seven.subflat" horiz-adv-x="330" 
d="M182 -99h-128c23 91 56 156 104 239l28 50h-169v95h293v-80l-39 -78c-45 -87 -70 -150 -89 -226z" />
    <glyph glyph-name="seven.supflat" horiz-adv-x="330" 
d="M182 364h-128c23 91 56 156 104 239l28 50h-169v95h293v-80l-39 -78c-45 -87 -70 -150 -89 -226z" />
    <glyph glyph-name="seven.ucflat" horiz-adv-x="553" 
d="M279 0h-187c34 157 109 303 187 447l64 117h-324v141h511v-116l-89 -164c-79 -147 -137 -296 -162 -425z" />
    <glyph glyph-name="seveneighths.flat" horiz-adv-x="794" 
d="M182 306h-128c23 91 56 156 104 239l28 50h-169v95h293v-80l-39 -78c-45 -87 -70 -150 -89 -226zM64 0l535 690h97l-536 -690h-96zM619 -7c-103 0 -162 44 -162 109c0 43 25 74 69 87c-39 22 -58 51 -58 93c0 74 65 109 147 109s152 -32 152 -105c0 -42 -26 -66 -62 -80
c47 -23 73 -51 73 -101c0 -72 -57 -112 -159 -112zM579 285c0 -20 17 -33 59 -50c15 11 23 26 23 43c0 25 -17 39 -43 39c-25 0 -39 -13 -39 -32zM615 68c32 0 47 17 47 37c0 25 -22 37 -67 55c-18 -12 -30 -27 -30 -50c0 -26 18 -42 50 -42z" />
    <glyph glyph-name="sterling.flat" horiz-adv-x="563" 
d="M534 130v-130h-511v107c61 49 68 81 80 152l2 13h-53v111h69l17 114c19 129 90 200 228 200c65 0 113 -10 160 -33v-126l-8 -5c-36 20 -66 30 -105 30c-52 0 -86 -20 -98 -88l-16 -92h149v-111h-168l-1 -7c-10 -63 -22 -97 -70 -135h325z" />
    <glyph glyph-name="sterling.ucflat" horiz-adv-x="603" 
d="M573 130v-130h-549v107c66 51 79 87 91 160l2 16h-61v111h78l18 118c20 133 92 207 241 207c70 0 121 -11 172 -34v-126l-10 -5c-38 20 -70 31 -112 31c-56 0 -96 -21 -109 -95l-17 -96h163v-111h-182l-2 -10c-12 -66 -22 -102 -75 -143h352z" />
    <glyph glyph-name="threequarters.flat" horiz-adv-x="802" 
d="M89 0l535 690h97l-536 -690h-96zM616 158v106l-72 -106h72zM787 77h-53v-77h-118v77h-168v64l167 244h119v-227h53v-81zM150 298c-70 0 -106 17 -131 31v88l4 3c31 -19 61 -30 108 -30c38 0 56 14 56 38c0 22 -17 36 -55 36h-48v74h42c38 0 50 14 50 33
c0 23 -16 35 -53 35c-40 0 -64 -8 -92 -24l-5 3v85c25 15 59 26 122 26c80 0 145 -33 145 -104c0 -45 -23 -71 -70 -84c57 -12 83 -41 83 -91c0 -75 -54 -119 -156 -119z" />
    <glyph glyph-name="trademark.flat" horiz-adv-x="778" 
d="M288 596h-87v-244h-111v244h-86v92h284v-92zM496 352l-68 199v-199h-94v336h133l65 -176l59 176h141v-336h-104v200l-70 -200h-62z" />
    <glyph glyph-name="two.denflat" horiz-adv-x="328" 
d="M19 0v73l107 105c33 33 48 53 48 79c0 24 -17 39 -57 39c-37 0 -61 -10 -89 -28l-5 3v90c27 19 66 30 124 30c94 0 147 -41 147 -120c0 -57 -24 -90 -71 -136l-49 -48h127v-87h-282z" />
    <glyph glyph-name="two.flat" horiz-adv-x="505" 
d="M23 0v103l188 205c53 60 81 109 81 162c0 49 -28 88 -101 88c-64 0 -104 -18 -154 -49l-7 4v135c46 30 106 49 198 49c151 0 245 -74 245 -208c0 -94 -51 -170 -127 -252l-102 -107h238v-130h-459z" />
    <glyph glyph-name="two.numflat" horiz-adv-x="328" 
d="M19 305v73l107 105c33 33 48 53 48 79c0 24 -17 39 -57 39c-37 0 -61 -10 -89 -28l-5 3v90c27 19 66 30 124 30c94 0 147 -41 147 -120c0 -57 -24 -90 -71 -136l-49 -48h127v-87h-282z" />
    <glyph glyph-name="two.subflat" horiz-adv-x="328" 
d="M19 -99v73l107 105c33 33 48 53 48 79c0 24 -17 39 -57 39c-37 0 -61 -10 -89 -28l-5 3v90c27 19 66 30 124 30c94 0 147 -41 147 -120c0 -57 -24 -90 -71 -136l-49 -48h127v-87h-282z" />
    <glyph glyph-name="two.supflat" horiz-adv-x="328" 
d="M19 364v73l107 105c33 33 48 53 48 79c0 24 -17 39 -57 39c-37 0 -61 -10 -89 -28l-5 3v90c27 19 66 30 124 30c94 0 147 -41 147 -120c0 -57 -24 -90 -71 -136l-49 -48h127v-87h-282z" />
    <glyph glyph-name="two.ucflat" horiz-adv-x="545" 
d="M25 0v103l206 214c59 61 88 118 88 173c0 52 -34 90 -113 90c-69 0 -112 -18 -166 -50l-8 4v134c51 31 115 51 214 51c163 0 260 -76 260 -215c0 -97 -55 -172 -137 -256l-116 -118h267v-130h-495z" />
    <glyph glyph-name="twothirds.flat" horiz-adv-x="837" 
d="M106 0l535 690h97l-536 -690h-96zM660 -7c-70 0 -106 17 -131 31v88l4 3c31 -19 61 -30 108 -30c38 0 56 14 56 38c0 22 -17 36 -55 36h-48v74h42c38 0 50 14 50 34c0 22 -16 34 -53 34c-40 0 -64 -8 -92 -24l-5 3v85c25 15 59 26 122 26c80 0 145 -33 145 -104
c0 -45 -23 -71 -70 -84c57 -12 83 -41 83 -91c0 -75 -54 -119 -156 -119zM19 305v73l107 105c33 33 48 53 48 79c0 24 -17 39 -57 39c-37 0 -61 -10 -89 -28l-5 3v90c27 19 66 30 124 30c94 0 147 -41 147 -120c0 -57 -24 -90 -71 -136l-49 -48h127v-87h-282z" />
    <glyph glyph-name="underdot" 
d="M118 -194v135h164v-135h-164z" />
    <glyph glyph-name="uni0192" unicode="&#x192;" horiz-adv-x="438" 
d="M397 271h-132l-58 -481h-172l58 481h-65v123h79l12 97c18 146 100 207 218 207c46 0 71 -6 89 -13v-107l-5 -4c-10 3 -24 6 -46 6c-42 0 -76 -25 -84 -89l-12 -97h118v-123z" />
    <glyph glyph-name="uni01A0" unicode="&#x1a0;" horiz-adv-x="811" 
d="M398 -14c-226 0 -373 160 -373 369s147 364 373 364c72 0 118 -14 178 -14c53 0 86 50 90 116h141c-2 -112 -59 -183 -133 -210c62 -64 97 -154 97 -256c0 -209 -146 -369 -373 -369zM398 130c112 0 177 90 177 225s-68 221 -177 221c-108 0 -176 -86 -176 -221
s65 -225 176 -225z" />
    <glyph glyph-name="uni01A1" unicode="&#x1a1;" horiz-adv-x="659" 
d="M314 -13c-168 0 -294 110 -294 289s126 287 294 287c61 0 99 -13 148 -13c59 0 89 36 93 116h133c-2 -128 -56 -196 -132 -215c34 -46 53 -105 53 -175c0 -179 -127 -289 -295 -289zM314 112c72 0 120 53 120 163s-48 163 -120 163c-71 0 -119 -53 -119 -163
s48 -163 119 -163z" />
    <glyph glyph-name="uni01AF" unicode="&#x1af;" horiz-adv-x="770" 
d="M363 -12c-201 0 -312 101 -312 291v426h194v-423c0 -93 44 -140 126 -140c81 0 127 47 127 140v423h62c73 0 106 50 110 116h141c-2 -117 -64 -189 -142 -213v-329c0 -180 -106 -291 -306 -291z" />
    <glyph glyph-name="uni01B0" unicode="&#x1b0;" horiz-adv-x="664" 
d="M407 0l-11 67c-38 -43 -90 -80 -169 -80c-109 0 -185 62 -185 193v370h172v-342c0 -62 32 -85 80 -85c35 0 65 9 92 30v397h76c59 0 89 36 93 116h133c-2 -128 -56 -193 -130 -212v-454h-151z" />
    <glyph glyph-name="uni0237" unicode="&#x237;" horiz-adv-x="268" 
d="M-24 -211v130c49 6 72 23 72 92v525h172v-536c0 -146 -83 -202 -244 -211z" />
    <glyph glyph-name="uni1EA0" unicode="&#x1ea0;" horiz-adv-x="710" 
d="M413 241l-71 187l-72 -187h143zM505 0l-44 115h-238l-44 -115h-173v8l299 703h101l299 -703v-8h-200zM273 -194v135h164v-135h-164z" />
    <glyph glyph-name="uni1EA0.flat" horiz-adv-x="711" 
d="M419 263l-78 240l-79 -240h157zM505 0l-43 133h-242l-44 -133h-170v8l253 697h193l253 -697v-8h-200zM273 -194v135h164v-135h-164z" />
    <glyph glyph-name="uni1EA1" unicode="&#x1ea1;" horiz-adv-x="552" 
d="M255 100c38 0 65 16 83 40v98l-65 -9c-61 -9 -87 -27 -87 -67c0 -37 21 -62 69 -62zM361 0l-11 61c-28 -39 -72 -74 -151 -74c-102 0 -179 55 -179 164c0 115 81 157 216 175l102 13c0 70 -31 92 -104 92c-75 0 -121 -19 -164 -42l-7 2v129c43 25 109 43 200 43
c160 0 246 -62 246 -224v-339h-148zM187 -194v135h164v-135h-164z" />
    <glyph glyph-name="uni1EA1.alt" horiz-adv-x="616" 
d="M305 120c40 0 69 12 93 32v253c-24 20 -52 31 -90 31c-70 0 -113 -57 -113 -165c0 -105 46 -151 110 -151zM430 0l-16 66c-37 -50 -88 -79 -163 -79c-137 0 -230 95 -230 284c0 193 100 292 235 292c67 0 114 -25 148 -64l8 51h158v-550h-140zM226 -194v135h164v-135
h-164z" />
    <glyph glyph-name="uni1EA2" unicode="&#x1ea2;" horiz-adv-x="710" 
d="M413 241l-71 187l-72 -187h143zM505 0l-44 115h-238l-44 -115h-173v8l299 703h101l299 -703v-8h-200zM246 924c31 16 62 23 109 23c83 0 138 -29 138 -89c0 -76 -94 -89 -94 -107v-1h-107v3c0 65 81 64 81 92c0 13 -11 22 -43 22c-27 0 -48 -4 -78 -18l-6 3v72z" />
    <glyph glyph-name="uni1EA2.flat" horiz-adv-x="711" 
d="M419 263l-78 240l-79 -240h157zM505 0l-43 133h-242l-44 -133h-170v8l253 697h193l253 -697v-8h-200zM246 924c31 16 62 23 109 23c83 0 138 -29 138 -89c0 -76 -94 -89 -94 -107v-1h-107v3c0 65 81 64 81 92c0 13 -11 22 -43 22c-27 0 -48 -4 -78 -18l-6 3v72z" />
    <glyph glyph-name="uni1EA3" unicode="&#x1ea3;" horiz-adv-x="552" 
d="M255 100c38 0 65 16 83 40v98l-65 -9c-61 -9 -87 -27 -87 -67c0 -37 21 -62 69 -62zM361 0l-11 61c-28 -39 -72 -74 -151 -74c-102 0 -179 55 -179 164c0 115 81 157 216 175l102 13c0 70 -31 92 -104 92c-75 0 -121 -19 -164 -42l-7 2v129c43 25 109 43 200 43
c160 0 246 -62 246 -224v-339h-148zM160 776c30 15 60 24 107 24c83 0 138 -29 138 -89c0 -76 -94 -89 -94 -107v-1h-107v3c0 65 81 64 81 92c0 13 -11 22 -43 22c-27 0 -47 -6 -76 -19l-6 3v72z" />
    <glyph glyph-name="uni1EA3.alt" horiz-adv-x="616" 
d="M305 120c40 0 69 12 93 32v253c-24 20 -52 31 -90 31c-70 0 -113 -57 -113 -165c0 -105 46 -151 110 -151zM430 0l-16 66c-37 -50 -88 -79 -163 -79c-137 0 -230 95 -230 284c0 193 100 292 235 292c67 0 114 -25 148 -64l8 51h158v-550h-140zM199 776
c30 15 60 24 107 24c83 0 138 -29 138 -89c0 -76 -94 -89 -94 -107v-1h-107v3c0 65 81 64 81 92c0 13 -11 22 -43 22c-27 0 -47 -6 -76 -19l-6 3v72z" />
    <glyph glyph-name="uni1EA4" unicode="&#x1ea4;" horiz-adv-x="710" 
d="M413 241l-71 187l-72 -187h143zM505 0l-44 115h-238l-44 -115h-173v8l299 703h101l299 -703v-8h-200zM598 872h-121l54 119h159zM355 823l-61 -66h-132l128 160h130l128 -160h-132z" />
    <glyph glyph-name="uni1EA4.flat" horiz-adv-x="711" 
d="M419 263l-78 240l-79 -240h157zM505 0l-43 133h-242l-44 -133h-170v8l253 697h193l253 -697v-8h-200zM598 872h-121l54 119h159zM355 823l-61 -66h-132l128 160h130l128 -160h-132z" />
    <glyph glyph-name="uni1EA5" unicode="&#x1ea5;" horiz-adv-x="552" 
d="M255 100c38 0 65 16 83 40v98l-65 -9c-61 -9 -87 -27 -87 -67c0 -37 21 -62 69 -62zM361 0l-11 61c-28 -39 -72 -74 -151 -74c-102 0 -179 55 -179 164c0 115 81 157 216 175l102 13c0 70 -31 92 -104 92c-75 0 -121 -19 -164 -42l-7 2v129c43 25 109 43 200 43
c160 0 246 -62 246 -224v-339h-148zM511 721h-121l54 117h159zM269 665l-58 -68h-130l128 166h120l128 -166h-130z" />
    <glyph glyph-name="uni1EA5.alt" horiz-adv-x="616" 
d="M305 120c40 0 69 12 93 32v253c-24 20 -52 31 -90 31c-70 0 -113 -57 -113 -165c0 -105 46 -151 110 -151zM430 0l-16 66c-37 -50 -88 -79 -163 -79c-137 0 -230 95 -230 284c0 193 100 292 235 292c67 0 114 -25 148 -64l8 51h158v-550h-140zM550 721h-121l54 117h159z
M308 665l-58 -68h-130l128 166h120l128 -166h-130z" />
    <glyph glyph-name="uni1EA6" unicode="&#x1ea6;" horiz-adv-x="710" 
d="M413 241l-71 187l-72 -187h143zM505 0l-44 115h-238l-44 -115h-173v8l299 703h101l299 -703v-8h-200zM524 872l-92 119h159l54 -119h-121zM355 823l-61 -66h-132l128 160h130l128 -160h-132z" />
    <glyph glyph-name="uni1EA6.flat" horiz-adv-x="711" 
d="M419 263l-78 240l-79 -240h157zM505 0l-43 133h-242l-44 -133h-170v8l253 697h193l253 -697v-8h-200zM524 872l-92 119h159l54 -119h-121zM355 823l-61 -66h-132l128 160h130l128 -160h-132z" />
    <glyph glyph-name="uni1EA7" unicode="&#x1ea7;" horiz-adv-x="552" 
d="M255 100c38 0 65 16 83 40v98l-65 -9c-61 -9 -87 -27 -87 -67c0 -37 21 -62 69 -62zM361 0l-11 61c-28 -39 -72 -74 -151 -74c-102 0 -179 55 -179 164c0 115 81 157 216 175l102 13c0 70 -31 92 -104 92c-75 0 -121 -19 -164 -42l-7 2v129c43 25 109 43 200 43
c160 0 246 -62 246 -224v-339h-148zM413 721l-92 117h159l54 -117h-121zM269 665l-58 -68h-130l128 166h120l128 -166h-130z" />
    <glyph glyph-name="uni1EA7.alt" horiz-adv-x="616" 
d="M305 120c40 0 69 12 93 32v253c-24 20 -52 31 -90 31c-70 0 -113 -57 -113 -165c0 -105 46 -151 110 -151zM430 0l-16 66c-37 -50 -88 -79 -163 -79c-137 0 -230 95 -230 284c0 193 100 292 235 292c67 0 114 -25 148 -64l8 51h158v-550h-140zM452 721l-92 117h159
l54 -117h-121zM308 665l-58 -68h-130l128 166h120l128 -166h-130z" />
    <glyph glyph-name="uni1EA8" unicode="&#x1ea8;" horiz-adv-x="710" 
d="M413 241l-71 187l-72 -187h143zM505 0l-44 115h-238l-44 -115h-173v8l299 703h101l299 -703v-8h-200zM455 1016c19 9 44 18 94 18c71 0 122 -24 122 -85c0 -60 -70 -73 -70 -91v-1h-107v3c0 40 61 54 61 76c0 14 -11 22 -39 22c-20 0 -38 -5 -55 -14l-6 3v69zM355 823
l-61 -66h-132l128 160h130l128 -160h-132z" />
    <glyph glyph-name="uni1EA8.flat" horiz-adv-x="711" 
d="M419 263l-78 240l-79 -240h157zM505 0l-43 133h-242l-44 -133h-170v8l253 697h193l253 -697v-8h-200zM455 1016c19 9 44 18 94 18c71 0 122 -24 122 -85c0 -60 -70 -73 -70 -91v-1h-107v3c0 40 61 54 61 76c0 14 -11 22 -39 22c-20 0 -38 -5 -55 -14l-6 3v69zM355 823
l-61 -66h-132l128 160h130l128 -160h-132z" />
    <glyph glyph-name="uni1EA9" unicode="&#x1ea9;" horiz-adv-x="552" 
d="M255 100c38 0 65 16 83 40v98l-65 -9c-61 -9 -87 -27 -87 -67c0 -37 21 -62 69 -62zM361 0l-11 61c-28 -39 -72 -74 -151 -74c-102 0 -179 55 -179 164c0 115 81 157 216 175l102 13c0 70 -31 92 -104 92c-75 0 -121 -19 -164 -42l-7 2v129c43 25 109 43 200 43
c160 0 246 -62 246 -224v-339h-148zM359 862c19 9 44 18 94 18c71 0 122 -24 122 -85c0 -60 -70 -73 -70 -91v-1h-107v3c0 40 61 54 61 76c0 14 -11 22 -39 22c-20 0 -38 -5 -55 -14l-6 3v69zM269 665l-58 -68h-130l128 166h120l128 -166h-130z" />
    <glyph glyph-name="uni1EA9.alt" horiz-adv-x="616" 
d="M305 120c40 0 69 12 93 32v253c-24 20 -52 31 -90 31c-70 0 -113 -57 -113 -165c0 -105 46 -151 110 -151zM430 0l-16 66c-37 -50 -88 -79 -163 -79c-137 0 -230 95 -230 284c0 193 100 292 235 292c67 0 114 -25 148 -64l8 51h158v-550h-140zM398 862c19 9 44 18 94 18
c71 0 122 -24 122 -85c0 -60 -70 -73 -70 -91v-1h-107v3c0 40 61 54 61 76c0 14 -11 22 -39 22c-20 0 -38 -5 -55 -14l-6 3v69zM308 665l-58 -68h-130l128 166h120l128 -166h-130z" />
    <glyph glyph-name="uni1EAA" unicode="&#x1eaa;" horiz-adv-x="710" 
d="M413 241l-71 187l-72 -187h143zM505 0l-44 115h-238l-44 -115h-173v8l299 703h101l299 -703v-8h-200zM425 1034c31 0 55 12 83 39l8 -3l22 -95c-20 -27 -60 -52 -104 -52c-71 0 -100 34 -145 34c-37 0 -61 -11 -89 -38l-8 3l-22 95c20 29 60 51 104 51
c71 0 100 -34 151 -34zM355 801l-61 -44h-132l128 138h130l128 -138h-132z" />
    <glyph glyph-name="uni1EAA.flat" horiz-adv-x="711" 
d="M419 263l-78 240l-79 -240h157zM505 0l-43 133h-242l-44 -133h-170v8l253 697h193l253 -697v-8h-200zM425 1034c31 0 55 12 83 39l8 -3l22 -95c-20 -27 -60 -52 -104 -52c-71 0 -100 34 -145 34c-37 0 -61 -11 -89 -38l-8 3l-22 95c20 29 60 51 104 51
c71 0 100 -34 151 -34zM355 801l-61 -44h-132l128 138h130l128 -138h-132z" />
    <glyph glyph-name="uni1EAB" unicode="&#x1eab;" horiz-adv-x="552" 
d="M255 100c38 0 65 16 83 40v98l-65 -9c-61 -9 -87 -27 -87 -67c0 -37 21 -62 69 -62zM361 0l-11 61c-28 -39 -72 -74 -151 -74c-102 0 -179 55 -179 164c0 115 81 157 216 175l102 13c0 70 -31 92 -104 92c-75 0 -121 -19 -164 -42l-7 2v129c43 25 109 43 200 43
c160 0 246 -62 246 -224v-339h-148zM343 905c31 0 55 12 83 39l8 -3l22 -95c-20 -27 -60 -52 -104 -52c-71 0 -100 34 -145 34c-37 0 -61 -11 -89 -38l-8 3l-22 95c20 29 60 51 104 51c71 0 100 -34 151 -34zM269 665l-58 -68h-130l128 166h120l128 -166h-130z" />
    <glyph glyph-name="uni1EAB.alt" horiz-adv-x="616" 
d="M305 120c40 0 69 12 93 32v253c-24 20 -52 31 -90 31c-70 0 -113 -57 -113 -165c0 -105 46 -151 110 -151zM430 0l-16 66c-37 -50 -88 -79 -163 -79c-137 0 -230 95 -230 284c0 193 100 292 235 292c67 0 114 -25 148 -64l8 51h158v-550h-140zM382 905c31 0 55 12 83 39
l8 -3l22 -95c-20 -27 -60 -52 -104 -52c-71 0 -100 34 -145 34c-37 0 -61 -11 -89 -38l-8 3l-22 95c20 29 60 51 104 51c71 0 100 -34 151 -34zM308 665l-58 -68h-130l128 166h120l128 -166h-130z" />
    <glyph glyph-name="uni1EAC" unicode="&#x1eac;" horiz-adv-x="710" 
d="M355 823l-61 -66h-132l128 160h130l128 -160h-132zM413 241l-71 187l-72 -187h143zM505 0l-44 115h-238l-44 -115h-173v8l299 703h101l299 -703v-8h-200zM273 -194v135h164v-135h-164z" />
    <glyph glyph-name="uni1EAC.flat" horiz-adv-x="711" 
d="M355 823l-61 -66h-132l128 160h130l128 -160h-132zM419 263l-78 240l-79 -240h157zM505 0l-43 133h-242l-44 -133h-170v8l253 697h193l253 -697v-8h-200zM273 -194v135h164v-135h-164z" />
    <glyph glyph-name="uni1EAD" unicode="&#x1ead;" horiz-adv-x="552" 
d="M361 0l-11 61c-28 -39 -72 -74 -151 -74c-102 0 -179 55 -179 164c0 115 81 157 216 175l102 13c0 70 -31 92 -104 92c-75 0 -121 -19 -164 -42l-7 2v129c43 25 109 43 200 43c160 0 246 -62 246 -224v-339h-148zM269 665l-58 -68h-130l128 166h120l128 -166h-130z
M187 -194v135h164v-135h-164zM255 100c38 0 65 16 83 40v98l-65 -9c-61 -9 -87 -27 -87 -67c0 -37 21 -62 69 -62z" />
    <glyph glyph-name="uni1EAD.alt" horiz-adv-x="616" 
d="M308 665l-58 -68h-130l128 166h120l128 -166h-130zM305 120c40 0 69 12 93 32v253c-24 20 -52 31 -90 31c-70 0 -113 -57 -113 -165c0 -105 46 -151 110 -151zM430 0l-16 66c-37 -50 -88 -79 -163 -79c-137 0 -230 95 -230 284c0 193 100 292 235 292
c67 0 114 -25 148 -64l8 51h158v-550h-140z" />
    <glyph glyph-name="uni1EAE" unicode="&#x1eae;" horiz-adv-x="710" 
d="M413 241l-71 187l-72 -187h143zM505 0l-44 115h-238l-44 -115h-173v8l299 703h101l299 -703v-8h-200zM418 932h-131l64 105h169zM181 911c9 -100 77 -158 174 -158s165 58 174 158h-112c-8 -36 -29 -56 -62 -56s-55 19 -62 56h-112z" />
    <glyph glyph-name="uni1EAE.flat" horiz-adv-x="711" 
d="M419 263l-78 240l-79 -240h157zM505 0l-43 133h-242l-44 -133h-170v8l253 697h193l253 -697v-8h-200zM418 932h-131l64 105h169zM181 911c9 -100 77 -158 174 -158s165 58 174 158h-112c-8 -36 -29 -56 -62 -56s-55 19 -62 56h-112z" />
    <glyph glyph-name="uni1EAF" unicode="&#x1eaf;" horiz-adv-x="552" 
d="M255 100c38 0 65 16 83 40v98l-65 -9c-61 -9 -87 -27 -87 -67c0 -37 21 -62 69 -62zM361 0l-11 61c-28 -39 -72 -74 -151 -74c-102 0 -179 55 -179 164c0 115 81 157 216 175l102 13c0 70 -31 92 -104 92c-75 0 -121 -19 -164 -42l-7 2v129c43 25 109 43 200 43
c160 0 246 -62 246 -224v-339h-148zM324 784h-129l68 117h171zM269 597c-94 0 -162 59 -171 159h108c7 -38 28 -57 63 -57s55 20 63 57h108c-10 -100 -77 -159 -171 -159z" />
    <glyph glyph-name="uni1EAF.alt" horiz-adv-x="616" 
d="M305 120c40 0 69 12 93 32v253c-24 20 -52 31 -90 31c-70 0 -113 -57 -113 -165c0 -105 46 -151 110 -151zM430 0l-16 66c-37 -50 -88 -79 -163 -79c-137 0 -230 95 -230 284c0 193 100 292 235 292c67 0 114 -25 148 -64l8 51h158v-550h-140zM363 784h-129l68 117h171z
M308 597c-94 0 -162 59 -171 159h108c7 -38 28 -57 63 -57s55 20 63 57h108c-10 -100 -77 -159 -171 -159z" />
    <glyph glyph-name="uni1EB0" unicode="&#x1eb0;" horiz-adv-x="710" 
d="M413 241l-71 187l-72 -187h143zM505 0l-44 115h-238l-44 -115h-173v8l299 703h101l299 -703v-8h-200zM290 932l-102 105h169l64 -105h-131zM355 753c-97 0 -165 58 -174 158h112c7 -37 29 -56 62 -56s54 20 62 56h112c-9 -100 -77 -158 -174 -158z" />
    <glyph glyph-name="uni1EB0.flat" horiz-adv-x="711" 
d="M419 263l-78 240l-79 -240h157zM505 0l-43 133h-242l-44 -133h-170v8l253 697h193l253 -697v-8h-200zM290 932l-102 105h169l64 -105h-131zM355 753c-97 0 -165 58 -174 158h112c7 -37 29 -56 62 -56s54 20 62 56h112c-9 -100 -77 -158 -174 -158z" />
    <glyph glyph-name="uni1EB1" unicode="&#x1eb1;" horiz-adv-x="552" 
d="M255 100c38 0 65 16 83 40v98l-65 -9c-61 -9 -87 -27 -87 -67c0 -37 21 -62 69 -62zM361 0l-11 61c-28 -39 -72 -74 -151 -74c-102 0 -179 55 -179 164c0 115 81 157 216 175l102 13c0 70 -31 92 -104 92c-75 0 -121 -19 -164 -42l-7 2v129c43 25 109 43 200 43
c160 0 246 -62 246 -224v-339h-148zM214 784l-110 117h171l68 -117h-129zM269 597c-94 0 -162 59 -171 159h108c7 -38 28 -57 63 -57s55 20 63 57h108c-10 -100 -77 -159 -171 -159z" />
    <glyph glyph-name="uni1EB1.alt" horiz-adv-x="616" 
d="M305 120c40 0 69 12 93 32v253c-24 20 -52 31 -90 31c-70 0 -113 -57 -113 -165c0 -105 46 -151 110 -151zM430 0l-16 66c-37 -50 -88 -79 -163 -79c-137 0 -230 95 -230 284c0 193 100 292 235 292c67 0 114 -25 148 -64l8 51h158v-550h-140zM253 784l-110 117h171
l68 -117h-129zM308 597c-94 0 -162 59 -171 159h108c7 -38 28 -57 63 -57s55 20 63 57h108c-10 -100 -77 -159 -171 -159z" />
    <glyph glyph-name="uni1EB2" unicode="&#x1eb2;" horiz-adv-x="710" 
d="M413 241l-71 187l-72 -187h143zM505 0l-44 115h-238l-44 -115h-173v8l299 703h101l299 -703v-8h-200zM259 1077c19 9 52 19 99 19c83 0 141 -25 141 -79c0 -69 -96 -77 -96 -89v-1h-110v3c0 40 80 51 80 71c0 11 -8 19 -40 19c-27 0 -50 -7 -68 -15l-6 3v69zM181 911
c9 -100 77 -158 174 -158s165 58 174 158h-112c-8 -36 -29 -56 -62 -56s-55 19 -62 56h-112z" />
    <glyph glyph-name="uni1EB2.flat" horiz-adv-x="711" 
d="M419 263l-78 240l-79 -240h157zM505 0l-43 133h-242l-44 -133h-170v8l253 697h193l253 -697v-8h-200zM259 1077c19 9 52 19 99 19c83 0 141 -25 141 -79c0 -69 -96 -77 -96 -89v-1h-110v3c0 40 80 51 80 71c0 11 -8 19 -40 19c-27 0 -50 -7 -68 -15l-6 3v69zM181 911
c9 -100 77 -158 174 -158s165 58 174 158h-112c-8 -36 -29 -56 -62 -56s-55 19 -62 56h-112z" />
    <glyph glyph-name="uni1EB3" unicode="&#x1eb3;" horiz-adv-x="552" 
d="M255 100c38 0 65 16 83 40v98l-65 -9c-61 -9 -87 -27 -87 -67c0 -37 21 -62 69 -62zM361 0l-11 61c-28 -39 -72 -74 -151 -74c-102 0 -179 55 -179 164c0 115 81 157 216 175l102 13c0 70 -31 92 -104 92c-75 0 -121 -19 -164 -42l-7 2v129c43 25 109 43 200 43
c160 0 246 -62 246 -224v-339h-148zM173 931c19 9 52 19 99 19c83 0 138 -26 138 -80c0 -69 -93 -80 -93 -96v-1h-110v3c0 50 83 54 83 76c0 11 -11 19 -43 19c-27 0 -50 -7 -68 -15l-6 3v72zM269 597c-94 0 -162 59 -171 159h108c7 -38 28 -57 63 -57s55 20 63 57h108
c-10 -100 -77 -159 -171 -159z" />
    <glyph glyph-name="uni1EB3.alt" horiz-adv-x="616" 
d="M305 120c40 0 69 12 93 32v253c-24 20 -52 31 -90 31c-70 0 -113 -57 -113 -165c0 -105 46 -151 110 -151zM430 0l-16 66c-37 -50 -88 -79 -163 -79c-137 0 -230 95 -230 284c0 193 100 292 235 292c67 0 114 -25 148 -64l8 51h158v-550h-140zM212 931c19 9 52 19 99 19
c83 0 138 -26 138 -80c0 -69 -93 -80 -93 -96v-1h-110v3c0 50 83 54 83 76c0 11 -11 19 -43 19c-27 0 -50 -7 -68 -15l-6 3v72zM308 597c-94 0 -162 59 -171 159h108c7 -38 28 -57 63 -57s55 20 63 57h108c-10 -100 -77 -159 -171 -159z" />
    <glyph glyph-name="uni1EB4" unicode="&#x1eb4;" horiz-adv-x="710" 
d="M413 241l-71 187l-72 -187h143zM505 0l-44 115h-238l-44 -115h-173v8l299 703h101l299 -703v-8h-200zM424 1036c31 0 55 12 83 39l8 -3l22 -95c-20 -27 -60 -52 -104 -52c-71 0 -100 34 -145 34c-37 0 -61 -11 -89 -38l-8 3l-22 95c20 29 60 51 104 51
c71 0 100 -34 151 -34zM355 753c-97 0 -165 58 -174 140h112c5 -24 29 -38 62 -38s56 15 62 38h112c-9 -82 -77 -140 -174 -140z" />
    <glyph glyph-name="uni1EB4.flat" horiz-adv-x="711" 
d="M419 263l-78 240l-79 -240h157zM505 0l-43 133h-242l-44 -133h-170v8l253 697h193l253 -697v-8h-200zM424 1036c31 0 55 12 83 39l8 -3l22 -95c-20 -27 -60 -52 -104 -52c-71 0 -100 34 -145 34c-37 0 -61 -11 -89 -38l-8 3l-22 95c20 29 60 51 104 51
c71 0 100 -34 151 -34zM355 753c-97 0 -165 58 -174 140h112c5 -24 29 -38 62 -38s56 15 62 38h112c-9 -82 -77 -140 -174 -140z" />
    <glyph glyph-name="uni1EB5" unicode="&#x1eb5;" horiz-adv-x="552" 
d="M255 100c38 0 65 16 83 40v98l-65 -9c-61 -9 -87 -27 -87 -67c0 -37 21 -62 69 -62zM361 0l-11 61c-28 -39 -72 -74 -151 -74c-102 0 -179 55 -179 164c0 115 81 157 216 175l102 13c0 70 -31 92 -104 92c-75 0 -121 -19 -164 -42l-7 2v129c43 25 109 43 200 43
c160 0 246 -62 246 -224v-339h-148zM341 903c31 0 55 12 83 39l8 -3l22 -95c-20 -27 -60 -52 -104 -52c-71 0 -100 34 -145 34c-37 0 -61 -11 -89 -38l-8 3l-22 95c20 29 60 51 104 51c71 0 100 -34 151 -34zM269 597c-94 0 -162 59 -171 159h108c7 -38 28 -57 63 -57
s55 20 63 57h108c-10 -100 -77 -159 -171 -159z" />
    <glyph glyph-name="uni1EB5.alt" horiz-adv-x="616" 
d="M305 120c40 0 69 12 93 32v253c-24 20 -52 31 -90 31c-70 0 -113 -57 -113 -165c0 -105 46 -151 110 -151zM430 0l-16 66c-37 -50 -88 -79 -163 -79c-137 0 -230 95 -230 284c0 193 100 292 235 292c67 0 114 -25 148 -64l8 51h158v-550h-140zM380 903c31 0 55 12 83 39
l8 -3l22 -95c-20 -27 -60 -52 -104 -52c-71 0 -100 34 -145 34c-37 0 -61 -11 -89 -38l-8 3l-22 95c20 29 60 51 104 51c71 0 100 -34 151 -34zM308 597c-94 0 -162 59 -171 159h108c7 -38 28 -57 63 -57s55 20 63 57h108c-10 -100 -77 -159 -171 -159z" />
    <glyph glyph-name="uni1EB6" unicode="&#x1eb6;" horiz-adv-x="710" 
d="M413 241l-71 187l-72 -187h143zM505 0l-44 115h-238l-44 -115h-173v8l299 703h101l299 -703v-8h-200zM356 753c-97 0 -165 58 -174 158h112c7 -37 29 -56 62 -56s54 20 62 56h112c-9 -100 -77 -158 -174 -158zM274 -194v135h164v-135h-164z" />
    <glyph glyph-name="uni1EB6.flat" horiz-adv-x="711" 
d="M419 263l-78 240l-79 -240h157zM505 0l-43 133h-242l-44 -133h-170v8l253 697h193l253 -697v-8h-200zM356 753c-97 0 -165 58 -174 158h112c7 -37 29 -56 62 -56s54 20 62 56h112c-9 -100 -77 -158 -174 -158zM274 -194v135h164v-135h-164z" />
    <glyph glyph-name="uni1EB7" unicode="&#x1eb7;" horiz-adv-x="552" 
d="M361 0l-11 61c-28 -39 -72 -74 -151 -74c-102 0 -179 55 -179 164c0 115 81 157 216 175l102 13c0 70 -31 92 -104 92c-75 0 -121 -19 -164 -42l-7 2v129c43 25 109 43 200 43c160 0 246 -62 246 -224v-339h-148zM269 597c-94 0 -162 59 -171 159h108
c7 -38 28 -57 63 -57s55 20 63 57h108c-10 -100 -77 -159 -171 -159zM187 -194v135h164v-135h-164zM255 100c38 0 65 16 83 40v98l-65 -9c-61 -9 -87 -27 -87 -67c0 -37 21 -62 69 -62z" />
    <glyph glyph-name="uni1EB7.alt" horiz-adv-x="616" 
d="M305 120c40 0 69 12 93 32v253c-24 20 -52 31 -90 31c-70 0 -113 -57 -113 -165c0 -105 46 -151 110 -151zM430 0l-16 66c-37 -50 -88 -79 -163 -79c-137 0 -230 95 -230 284c0 193 100 292 235 292c67 0 114 -25 148 -64l8 51h158v-550h-140zM308 597
c-94 0 -162 59 -171 159h108c7 -38 28 -57 63 -57s55 20 63 57h108c-10 -100 -77 -159 -171 -159zM226 -194v135h164v-135h-164z" />
    <glyph glyph-name="uni1EB8" unicode="&#x1eb8;" horiz-adv-x="564" 
d="M59 0v705h460v-139h-269v-136h230v-138h-230v-153h274v-139h-465zM208 -194v135h164v-135h-164z" />
    <glyph glyph-name="uni1EB9" unicode="&#x1eb9;" horiz-adv-x="563" 
d="M296 447c-56 0 -93 -32 -105 -106h193c-4 71 -31 106 -88 106zM530 28c-37 -20 -103 -41 -198 -41c-211 0 -312 111 -312 293c0 166 109 283 275 283c161 0 267 -98 246 -330h-352c13 -83 63 -117 159 -117c77 0 127 17 175 40l7 -3v-125zM209 -194v135h164v-135h-164z
" />
    <glyph glyph-name="uni1EBA" unicode="&#x1eba;" horiz-adv-x="564" 
d="M59 0v705h460v-139h-269v-136h230v-138h-230v-153h274v-139h-465zM181 924c31 16 62 23 109 23c83 0 138 -29 138 -89c0 -76 -94 -89 -94 -107v-1h-107v3c0 65 81 64 81 92c0 13 -11 22 -43 22c-27 0 -48 -4 -78 -18l-6 3v72z" />
    <glyph glyph-name="uni1EBB" unicode="&#x1ebb;" horiz-adv-x="563" 
d="M296 447c-56 0 -93 -32 -105 -106h193c-4 71 -31 106 -88 106zM530 28c-37 -20 -103 -41 -198 -41c-211 0 -312 111 -312 293c0 166 109 283 275 283c161 0 267 -98 246 -330h-352c13 -83 63 -117 159 -117c77 0 127 17 175 40l7 -3v-125zM182 776c30 15 60 24 107 24
c83 0 138 -29 138 -89c0 -76 -94 -89 -94 -107v-1h-107v3c0 65 81 64 81 92c0 13 -11 22 -43 22c-27 0 -47 -6 -76 -19l-6 3v72z" />
    <glyph glyph-name="uni1EBC" unicode="&#x1ebc;" horiz-adv-x="564" 
d="M59 0v705h460v-139h-269v-136h230v-138h-230v-153h274v-139h-465zM352 872c31 0 55 12 83 39l8 -3l22 -95c-20 -27 -60 -52 -104 -52c-71 0 -100 34 -145 34c-37 0 -61 -11 -89 -38l-8 3l-22 95c20 29 60 51 104 51c71 0 100 -34 151 -34z" />
    <glyph glyph-name="uni1EBD" unicode="&#x1ebd;" horiz-adv-x="563" 
d="M296 447c-56 0 -93 -32 -105 -106h193c-4 71 -31 106 -88 106zM530 28c-37 -20 -103 -41 -198 -41c-211 0 -312 111 -312 293c0 166 109 283 275 283c161 0 267 -98 246 -330h-352c13 -83 63 -117 159 -117c77 0 127 17 175 40l7 -3v-125zM354 719c31 0 55 12 83 39l8 -3
l22 -95c-20 -27 -60 -52 -104 -52c-71 0 -100 36 -145 36c-37 0 -61 -11 -89 -38l-8 3l-22 95c20 29 60 51 104 51c71 0 100 -36 151 -36z" />
    <glyph glyph-name="uni1EBE" unicode="&#x1ebe;" horiz-adv-x="564" 
d="M59 0v705h460v-139h-269v-136h230v-138h-230v-153h274v-139h-465zM533 872h-121l54 119h159zM290 823l-61 -66h-132l128 160h130l128 -160h-132z" />
    <glyph glyph-name="uni1EBF" unicode="&#x1ebf;" horiz-adv-x="563" 
d="M296 447c-56 0 -93 -32 -105 -106h193c-4 71 -31 106 -88 106zM530 28c-37 -20 -103 -41 -198 -41c-211 0 -312 111 -312 293c0 166 109 283 275 283c161 0 267 -98 246 -330h-352c13 -83 63 -117 159 -117c77 0 127 17 175 40l7 -3v-125zM533 721h-121l54 117h159z
M291 665l-58 -68h-130l128 166h120l128 -166h-130z" />
    <glyph glyph-name="uni1EC0" unicode="&#x1ec0;" horiz-adv-x="564" 
d="M59 0v705h460v-139h-269v-136h230v-138h-230v-153h274v-139h-465zM459 872l-92 119h159l54 -119h-121zM290 823l-61 -66h-132l128 160h130l128 -160h-132z" />
    <glyph glyph-name="uni1EC1" unicode="&#x1ec1;" horiz-adv-x="563" 
d="M296 447c-56 0 -93 -32 -105 -106h193c-4 71 -31 106 -88 106zM530 28c-37 -20 -103 -41 -198 -41c-211 0 -312 111 -312 293c0 166 109 283 275 283c161 0 267 -98 246 -330h-352c13 -83 63 -117 159 -117c77 0 127 17 175 40l7 -3v-125zM435 721l-92 117h159l54 -117
h-121zM291 665l-58 -68h-130l128 166h120l128 -166h-130z" />
    <glyph glyph-name="uni1EC2" unicode="&#x1ec2;" horiz-adv-x="564" 
d="M59 0v705h460v-139h-269v-136h230v-138h-230v-153h274v-139h-465zM390 1016c19 9 44 18 94 18c71 0 122 -24 122 -85c0 -60 -70 -73 -70 -91v-1h-107v3c0 40 61 54 61 76c0 14 -11 22 -39 22c-20 0 -38 -5 -55 -14l-6 3v69zM290 823l-61 -66h-132l128 160h130l128 -160
h-132z" />
    <glyph glyph-name="uni1EC3" unicode="&#x1ec3;" horiz-adv-x="563" 
d="M296 447c-56 0 -93 -32 -105 -106h193c-4 71 -31 106 -88 106zM530 28c-37 -20 -103 -41 -198 -41c-211 0 -312 111 -312 293c0 166 109 283 275 283c161 0 267 -98 246 -330h-352c13 -83 63 -117 159 -117c77 0 127 17 175 40l7 -3v-125zM381 862c19 9 44 18 94 18
c71 0 122 -24 122 -85c0 -60 -70 -73 -70 -91v-1h-107v3c0 40 61 54 61 76c0 14 -11 22 -39 22c-20 0 -38 -5 -55 -14l-6 3v69zM291 665l-58 -68h-130l128 166h120l128 -166h-130z" />
    <glyph glyph-name="uni1EC4" unicode="&#x1ec4;" horiz-adv-x="564" 
d="M59 0v705h460v-139h-269v-136h230v-138h-230v-153h274v-139h-465zM360 1034c31 0 55 12 83 39l8 -3l22 -95c-20 -27 -60 -52 -104 -52c-71 0 -100 34 -145 34c-37 0 -61 -11 -89 -38l-8 3l-22 95c20 29 60 51 104 51c71 0 100 -34 151 -34zM290 801l-61 -44h-132l128 138
h130l128 -138h-132z" />
    <glyph glyph-name="uni1EC5" unicode="&#x1ec5;" horiz-adv-x="563" 
d="M296 447c-56 0 -93 -32 -105 -106h193c-4 71 -31 106 -88 106zM530 28c-37 -20 -103 -41 -198 -41c-211 0 -312 111 -312 293c0 166 109 283 275 283c161 0 267 -98 246 -330h-352c13 -83 63 -117 159 -117c77 0 127 17 175 40l7 -3v-125zM365 905c31 0 55 12 83 39l8 -3
l22 -95c-20 -27 -60 -52 -104 -52c-71 0 -100 34 -145 34c-37 0 -61 -11 -89 -38l-8 3l-22 95c20 29 60 51 104 51c71 0 100 -34 151 -34zM291 665l-58 -68h-130l128 166h120l128 -166h-130z" />
    <glyph glyph-name="uni1EC6" unicode="&#x1ec6;" horiz-adv-x="564" 
d="M59 0v705h460v-139h-269v-136h230v-138h-230v-153h274v-139h-465zM290 823l-61 -66h-132l128 160h130l128 -160h-132zM208 -194v135h164v-135h-164z" />
    <glyph glyph-name="uni1EC7" unicode="&#x1ec7;" horiz-adv-x="563" 
d="M296 447c-56 0 -93 -32 -105 -106h193c-4 71 -31 106 -88 106zM530 28c-37 -20 -103 -41 -198 -41c-211 0 -312 111 -312 293c0 166 109 283 275 283c161 0 267 -98 246 -330h-352c13 -83 63 -117 159 -117c77 0 127 17 175 40l7 -3v-125zM291 665l-58 -68h-130l128 166
h120l128 -166h-130zM209 -194v135h164v-135h-164z" />
    <glyph glyph-name="uni1EC8" unicode="&#x1ec8;" horiz-adv-x="315" 
d="M61 0v705h193v-705h-193zM48 924c31 16 62 23 109 23c83 0 138 -29 138 -89c0 -76 -94 -89 -94 -107v-1h-107v3c0 65 81 64 81 92c0 13 -11 22 -43 22c-27 0 -48 -4 -78 -18l-6 3v72z" />
    <glyph glyph-name="uni1EC9" unicode="&#x1ec9;" horiz-adv-x="271" 
d="M50 0v550h172v-550h-172zM26 776c30 15 60 24 107 24c83 0 138 -29 138 -89c0 -76 -94 -89 -94 -107v-1h-107v3c0 65 81 64 81 92c0 13 -11 22 -43 22c-27 0 -47 -6 -76 -19l-6 3v72z" />
    <glyph glyph-name="uni1ECA" unicode="&#x1eca;" horiz-adv-x="315" 
d="M61 0v705h193v-705h-193zM76 -194v135h164v-135h-164z" />
    <glyph glyph-name="uni1ECB" unicode="&#x1ecb;" horiz-adv-x="268" 
d="M48 606v139h171v-139h-171zM48 0v550h172v-550h-172zM52 -194v135h164v-135h-164z" />
    <glyph glyph-name="uni1ECC" unicode="&#x1ecc;" horiz-adv-x="796" 
d="M398 -14c-226 0 -373 160 -373 369s147 364 373 364c227 0 373 -155 373 -364s-146 -369 -373 -369zM398 130c112 0 177 90 177 225s-68 221 -177 221c-108 0 -176 -86 -176 -221s65 -225 176 -225zM316 -194v135h164v-135h-164z" />
    <glyph glyph-name="uni1ECD" unicode="&#x1ecd;" horiz-adv-x="628" 
d="M314 -13c-168 0 -294 110 -294 289s126 287 294 287s295 -108 295 -287s-127 -289 -295 -289zM314 112c72 0 120 53 120 163s-48 163 -120 163c-71 0 -119 -53 -119 -163s48 -163 119 -163zM232 -194v135h164v-135h-164z" />
    <glyph glyph-name="uni1ECE" unicode="&#x1ece;" horiz-adv-x="796" 
d="M398 -14c-226 0 -373 160 -373 369s147 364 373 364c227 0 373 -155 373 -364s-146 -369 -373 -369zM398 130c112 0 177 90 177 225s-68 221 -177 221c-108 0 -176 -86 -176 -221s65 -225 176 -225zM289 924c31 16 62 23 109 23c83 0 138 -29 138 -89
c0 -76 -94 -89 -94 -107v-1h-107v3c0 65 81 64 81 92c0 13 -11 22 -43 22c-27 0 -48 -4 -78 -18l-6 3v72z" />
    <glyph glyph-name="uni1ECF" unicode="&#x1ecf;" horiz-adv-x="628" 
d="M314 -13c-168 0 -294 110 -294 289s126 287 294 287s295 -108 295 -287s-127 -289 -295 -289zM314 112c72 0 120 53 120 163s-48 163 -120 163c-71 0 -119 -53 -119 -163s48 -163 119 -163zM205 776c30 15 60 24 107 24c83 0 138 -29 138 -89c0 -76 -94 -89 -94 -107v-1
h-107v3c0 65 81 64 81 92c0 13 -11 22 -43 22c-27 0 -47 -6 -76 -19l-6 3v72z" />
    <glyph glyph-name="uni1ED0" unicode="&#x1ed0;" horiz-adv-x="796" 
d="M398 -14c-226 0 -373 160 -373 369s147 364 373 364c227 0 373 -155 373 -364s-146 -369 -373 -369zM398 130c112 0 177 90 177 225s-68 221 -177 221c-108 0 -176 -86 -176 -221s65 -225 176 -225zM641 872h-121l54 119h159zM398 823l-61 -66h-132l128 160h130l128 -160
h-132z" />
    <glyph glyph-name="uni1ED1" unicode="&#x1ed1;" horiz-adv-x="628" 
d="M314 -13c-168 0 -294 110 -294 289s126 287 294 287s295 -108 295 -287s-127 -289 -295 -289zM314 112c72 0 120 53 120 163s-48 163 -120 163c-71 0 -119 -53 -119 -163s48 -163 119 -163zM556 721h-121l54 117h159zM314 665l-58 -68h-130l128 166h120l128 -166h-130z
" />
    <glyph glyph-name="uni1ED2" unicode="&#x1ed2;" horiz-adv-x="796" 
d="M398 -14c-226 0 -373 160 -373 369s147 364 373 364c227 0 373 -155 373 -364s-146 -369 -373 -369zM398 130c112 0 177 90 177 225s-68 221 -177 221c-108 0 -176 -86 -176 -221s65 -225 176 -225zM567 872l-92 119h159l54 -119h-121zM398 823l-61 -66h-132l128 160h130
l128 -160h-132z" />
    <glyph glyph-name="uni1ED3" unicode="&#x1ed3;" horiz-adv-x="628" 
d="M314 -13c-168 0 -294 110 -294 289s126 287 294 287s295 -108 295 -287s-127 -289 -295 -289zM314 112c72 0 120 53 120 163s-48 163 -120 163c-71 0 -119 -53 -119 -163s48 -163 119 -163zM458 721l-92 117h159l54 -117h-121zM314 665l-58 -68h-130l128 166h120
l128 -166h-130z" />
    <glyph glyph-name="uni1ED4" unicode="&#x1ed4;" horiz-adv-x="796" 
d="M398 -14c-226 0 -373 160 -373 369s147 364 373 364c227 0 373 -155 373 -364s-146 -369 -373 -369zM398 130c112 0 177 90 177 225s-68 221 -177 221c-108 0 -176 -86 -176 -221s65 -225 176 -225zM498 1016c19 9 44 18 94 18c71 0 122 -24 122 -85
c0 -60 -70 -73 -70 -91v-1h-107v3c0 40 61 54 61 76c0 14 -11 22 -39 22c-20 0 -38 -5 -55 -14l-6 3v69zM398 823l-61 -66h-132l128 160h130l128 -160h-132z" />
    <glyph glyph-name="uni1ED5" unicode="&#x1ed5;" horiz-adv-x="628" 
d="M314 -13c-168 0 -294 110 -294 289s126 287 294 287s295 -108 295 -287s-127 -289 -295 -289zM314 112c72 0 120 53 120 163s-48 163 -120 163c-71 0 -119 -53 -119 -163s48 -163 119 -163zM404 862c19 9 44 18 94 18c71 0 122 -24 122 -85c0 -60 -70 -73 -70 -91v-1
h-107v3c0 40 61 54 61 76c0 14 -11 22 -39 22c-20 0 -38 -5 -55 -14l-6 3v69zM314 665l-58 -68h-130l128 166h120l128 -166h-130z" />
    <glyph glyph-name="uni1ED6" unicode="&#x1ed6;" horiz-adv-x="796" 
d="M398 -14c-226 0 -373 160 -373 369s147 364 373 364c227 0 373 -155 373 -364s-146 -369 -373 -369zM398 130c112 0 177 90 177 225s-68 221 -177 221c-108 0 -176 -86 -176 -221s65 -225 176 -225zM468 1034c31 0 55 12 83 39l8 -3l22 -95c-20 -27 -60 -52 -104 -52
c-71 0 -100 34 -145 34c-37 0 -61 -11 -89 -38l-8 3l-22 95c20 29 60 51 104 51c71 0 100 -34 151 -34zM398 801l-61 -44h-132l128 138h130l128 -138h-132z" />
    <glyph glyph-name="uni1ED7" unicode="&#x1ed7;" horiz-adv-x="628" 
d="M314 -13c-168 0 -294 110 -294 289s126 287 294 287s295 -108 295 -287s-127 -289 -295 -289zM314 112c72 0 120 53 120 163s-48 163 -120 163c-71 0 -119 -53 -119 -163s48 -163 119 -163zM388 905c31 0 55 12 83 39l8 -3l22 -95c-20 -27 -60 -52 -104 -52
c-71 0 -100 34 -145 34c-37 0 -61 -11 -89 -38l-8 3l-22 95c20 29 60 51 104 51c71 0 100 -34 151 -34zM314 665l-58 -68h-130l128 166h120l128 -166h-130z" />
    <glyph glyph-name="uni1ED8" unicode="&#x1ed8;" horiz-adv-x="796" 
d="M398 -14c-226 0 -373 160 -373 369s147 364 373 364c227 0 373 -155 373 -364s-146 -369 -373 -369zM398 130c112 0 177 90 177 225s-68 221 -177 221c-108 0 -176 -86 -176 -221s65 -225 176 -225zM398 823l-61 -66h-132l128 160h130l128 -160h-132zM316 -194v135h164
v-135h-164z" />
    <glyph glyph-name="uni1ED9" unicode="&#x1ed9;" horiz-adv-x="628" 
d="M314 -13c-168 0 -294 110 -294 289s126 287 294 287s295 -108 295 -287s-127 -289 -295 -289zM314 112c72 0 120 53 120 163s-48 163 -120 163c-71 0 -119 -53 -119 -163s48 -163 119 -163zM314 665l-58 -68h-130l128 166h120l128 -166h-130zM232 -194v135h164v-135h-164
z" />
    <glyph glyph-name="uni1EDA" unicode="&#x1eda;" horiz-adv-x="811" 
d="M454 757h-131l80 155h169zM398 -14c-226 0 -373 160 -373 369s147 364 373 364c72 0 118 -14 178 -14c53 0 86 50 90 116h141c-2 -112 -59 -183 -133 -210c62 -64 97 -154 97 -256c0 -209 -146 -369 -373 -369zM398 130c112 0 177 90 177 225s-68 221 -177 221
c-108 0 -176 -86 -176 -221s65 -225 176 -225z" />
    <glyph glyph-name="uni1EDB" unicode="&#x1edb;" horiz-adv-x="659" 
d="M370 597h-129l78 171h171zM314 -13c-168 0 -294 110 -294 289s126 287 294 287c61 0 99 -13 148 -13c59 0 89 36 93 116h133c-2 -128 -56 -196 -132 -215c34 -46 53 -105 53 -175c0 -179 -127 -289 -295 -289zM314 112c72 0 120 53 120 163s-48 163 -120 163
c-71 0 -119 -53 -119 -163s48 -163 119 -163z" />
    <glyph glyph-name="uni1EDC" unicode="&#x1edc;" horiz-adv-x="811" 
d="M345 757l-117 155h168l80 -155h-131zM398 -14c-226 0 -373 160 -373 369s147 364 373 364c72 0 118 -14 178 -14c53 0 86 50 90 116h141c-2 -112 -59 -183 -133 -210c62 -64 97 -154 97 -256c0 -209 -146 -369 -373 -369zM398 130c112 0 177 90 177 225s-68 221 -177 221
c-108 0 -176 -86 -176 -221s65 -225 176 -225z" />
    <glyph glyph-name="uni1EDD" unicode="&#x1edd;" horiz-adv-x="659" 
d="M264 597l-120 171h171l77 -171h-128zM314 -13c-168 0 -294 110 -294 289s126 287 294 287c61 0 99 -13 148 -13c59 0 89 36 93 116h133c-2 -128 -56 -196 -132 -215c34 -46 53 -105 53 -175c0 -179 -127 -289 -295 -289zM314 112c72 0 120 53 120 163s-48 163 -120 163
c-71 0 -119 -53 -119 -163s48 -163 119 -163z" />
    <glyph glyph-name="uni1EDE" unicode="&#x1ede;" horiz-adv-x="811" 
d="M289 924c31 16 62 23 109 23c83 0 138 -29 138 -89c0 -76 -94 -89 -94 -107v-1h-107v3c0 65 81 64 81 92c0 13 -11 22 -43 22c-27 0 -48 -4 -78 -18l-6 3v72zM398 -14c-226 0 -373 160 -373 369s147 364 373 364c72 0 118 -14 178 -14c53 0 86 50 90 116h141
c-2 -112 -59 -183 -133 -210c62 -64 97 -154 97 -256c0 -209 -146 -369 -373 -369zM398 130c112 0 177 90 177 225s-68 221 -177 221c-108 0 -176 -86 -176 -221s65 -225 176 -225z" />
    <glyph glyph-name="uni1EDF" unicode="&#x1edf;" horiz-adv-x="659" 
d="M205 776c30 15 60 24 107 24c83 0 138 -29 138 -89c0 -76 -94 -89 -94 -107v-1h-107v3c0 65 81 64 81 92c0 13 -11 22 -43 22c-27 0 -47 -6 -76 -19l-6 3v72zM314 -13c-168 0 -294 110 -294 289s126 287 294 287c61 0 99 -13 148 -13c59 0 89 36 93 116h133
c-2 -128 -56 -196 -132 -215c34 -46 53 -105 53 -175c0 -179 -127 -289 -295 -289zM314 112c72 0 120 53 120 163s-48 163 -120 163c-71 0 -119 -53 -119 -163s48 -163 119 -163z" />
    <glyph glyph-name="uni1EE0" unicode="&#x1ee0;" horiz-adv-x="811" 
d="M463 872c31 0 55 12 83 39l8 -3l22 -95c-20 -27 -60 -52 -104 -52c-71 0 -100 34 -145 34c-37 0 -61 -11 -89 -38l-8 3l-22 95c20 29 60 51 104 51c71 0 100 -34 151 -34zM398 -14c-226 0 -373 160 -373 369s147 364 373 364c72 0 118 -14 178 -14c53 0 86 50 90 116h141
c-2 -112 -59 -183 -133 -210c62 -64 97 -154 97 -256c0 -209 -146 -369 -373 -369zM398 130c112 0 177 90 177 225s-68 221 -177 221c-108 0 -176 -86 -176 -221s65 -225 176 -225z" />
    <glyph glyph-name="uni1EE1" unicode="&#x1ee1;" horiz-adv-x="659" 
d="M382 719c31 0 55 12 83 39l8 -3l22 -95c-20 -27 -60 -52 -104 -52c-71 0 -100 36 -145 36c-37 0 -61 -11 -89 -38l-8 3l-22 95c20 29 60 51 104 51c71 0 100 -36 151 -36zM314 -13c-168 0 -294 110 -294 289s126 287 294 287c61 0 99 -13 148 -13c59 0 89 36 93 116h133
c-2 -128 -56 -196 -132 -215c34 -46 53 -105 53 -175c0 -179 -127 -289 -295 -289zM314 112c72 0 120 53 120 163s-48 163 -120 163c-71 0 -119 -53 -119 -163s48 -163 119 -163z" />
    <glyph glyph-name="uni1EE2" unicode="&#x1ee2;" horiz-adv-x="811" 
d="M316 -194v135h164v-135h-164zM398 -14c-226 0 -373 160 -373 369s147 364 373 364c72 0 118 -14 178 -14c53 0 86 50 90 116h141c-2 -112 -59 -183 -133 -210c62 -64 97 -154 97 -256c0 -209 -146 -369 -373 -369zM398 130c112 0 177 90 177 225s-68 221 -177 221
c-108 0 -176 -86 -176 -221s65 -225 176 -225z" />
    <glyph glyph-name="uni1EE3" unicode="&#x1ee3;" horiz-adv-x="659" 
d="M232 -194v135h164v-135h-164zM314 -13c-168 0 -294 110 -294 289s126 287 294 287c61 0 99 -13 148 -13c59 0 89 36 93 116h133c-2 -128 -56 -196 -132 -215c34 -46 53 -105 53 -175c0 -179 -127 -289 -295 -289zM314 112c72 0 120 53 120 163s-48 163 -120 163
c-71 0 -119 -53 -119 -163s48 -163 119 -163z" />
    <glyph glyph-name="uni1EE4" unicode="&#x1ee4;" horiz-adv-x="720" 
d="M363 -12c-201 0 -312 101 -312 291v426h194v-423c0 -93 44 -140 126 -140c81 0 127 47 127 140v423h171v-426c0 -180 -106 -291 -306 -291zM282 -194v135h164v-135h-164z" />
    <glyph glyph-name="uni1EE5" unicode="&#x1ee5;" horiz-adv-x="604" 
d="M407 0l-11 67c-38 -43 -90 -80 -169 -80c-109 0 -185 62 -185 193v370h172v-342c0 -62 32 -85 80 -85c35 0 65 9 92 30v397h172v-550h-151zM219 -194v135h164v-135h-164z" />
    <glyph glyph-name="uni1EE6" unicode="&#x1ee6;" horiz-adv-x="720" 
d="M363 -12c-201 0 -312 101 -312 291v426h194v-423c0 -93 44 -140 126 -140c81 0 127 47 127 140v423h171v-426c0 -180 -106 -291 -306 -291zM255 924c31 16 62 23 109 23c83 0 138 -29 138 -89c0 -76 -94 -89 -94 -107v-1h-107v3c0 65 81 64 81 92c0 13 -11 22 -43 22
c-27 0 -48 -4 -78 -18l-6 3v72z" />
    <glyph glyph-name="uni1EE7" unicode="&#x1ee7;" horiz-adv-x="604" 
d="M407 0l-11 67c-38 -43 -90 -80 -169 -80c-109 0 -185 62 -185 193v370h172v-342c0 -62 32 -85 80 -85c35 0 65 9 92 30v397h172v-550h-151zM192 776c30 15 60 24 107 24c83 0 138 -29 138 -89c0 -76 -94 -89 -94 -107v-1h-107v3c0 65 81 64 81 92c0 13 -11 22 -43 22
c-27 0 -47 -6 -76 -19l-6 3v72z" />
    <glyph glyph-name="uni1EE8" unicode="&#x1ee8;" horiz-adv-x="770" 
d="M420 757h-131l80 155h169zM363 -12c-201 0 -312 101 -312 291v426h194v-423c0 -93 44 -140 126 -140c81 0 127 47 127 140v423h62c73 0 106 50 110 116h141c-2 -117 -64 -189 -142 -213v-329c0 -180 -106 -291 -306 -291z" />
    <glyph glyph-name="uni1EE9" unicode="&#x1ee9;" horiz-adv-x="664" 
d="M356 597h-129l78 171h171zM407 0l-11 67c-38 -43 -90 -80 -169 -80c-109 0 -185 62 -185 193v370h172v-342c0 -62 32 -85 80 -85c35 0 65 9 92 30v397h76c59 0 89 36 93 116h133c-2 -128 -56 -193 -130 -212v-454h-151z" />
    <glyph glyph-name="uni1EEA" unicode="&#x1eea;" horiz-adv-x="770" 
d="M312 757l-117 155h168l80 -155h-131zM363 -12c-201 0 -312 101 -312 291v426h194v-423c0 -93 44 -140 126 -140c81 0 127 47 127 140v423h62c73 0 106 50 110 116h141c-2 -117 -64 -189 -142 -213v-329c0 -180 -106 -291 -306 -291z" />
    <glyph glyph-name="uni1EEB" unicode="&#x1eeb;" horiz-adv-x="664" 
d="M250 597l-120 171h171l77 -171h-128zM407 0l-11 67c-38 -43 -90 -80 -169 -80c-109 0 -185 62 -185 193v370h172v-342c0 -62 32 -85 80 -85c35 0 65 9 92 30v397h76c59 0 89 36 93 116h133c-2 -128 -56 -193 -130 -212v-454h-151z" />
    <glyph glyph-name="uni1EEC" unicode="&#x1eec;" horiz-adv-x="770" 
d="M255 924c31 16 62 23 109 23c83 0 138 -29 138 -89c0 -76 -94 -89 -94 -107v-1h-107v3c0 65 81 64 81 92c0 13 -11 22 -43 22c-27 0 -48 -4 -78 -18l-6 3v72zM363 -12c-201 0 -312 101 -312 291v426h194v-423c0 -93 44 -140 126 -140c81 0 127 47 127 140v423h62
c73 0 106 50 110 116h141c-2 -117 -64 -189 -142 -213v-329c0 -180 -106 -291 -306 -291z" />
    <glyph glyph-name="uni1EED" unicode="&#x1eed;" horiz-adv-x="664" 
d="M192 776c30 15 60 24 107 24c83 0 138 -29 138 -89c0 -76 -94 -89 -94 -107v-1h-107v3c0 65 81 64 81 92c0 13 -11 22 -43 22c-27 0 -47 -6 -76 -19l-6 3v72zM407 0l-11 67c-38 -43 -90 -80 -169 -80c-109 0 -185 62 -185 193v370h172v-342c0 -62 32 -85 80 -85
c35 0 65 9 92 30v397h76c59 0 89 36 93 116h133c-2 -128 -56 -193 -130 -212v-454h-151z" />
    <glyph glyph-name="uni1EEE" unicode="&#x1eee;" horiz-adv-x="770" 
d="M429 872c31 0 55 12 83 39l8 -3l22 -95c-20 -27 -60 -52 -104 -52c-71 0 -100 34 -145 34c-37 0 -61 -11 -89 -38l-8 3l-22 95c20 29 60 51 104 51c71 0 100 -34 151 -34zM363 -12c-201 0 -312 101 -312 291v426h194v-423c0 -93 44 -140 126 -140c81 0 127 47 127 140
v423h62c73 0 106 50 110 116h141c-2 -117 -64 -189 -142 -213v-329c0 -180 -106 -291 -306 -291z" />
    <glyph glyph-name="uni1EEF" unicode="&#x1eef;" horiz-adv-x="664" 
d="M369 719c31 0 55 12 83 39l8 -3l22 -95c-20 -27 -60 -52 -104 -52c-71 0 -100 36 -145 36c-37 0 -61 -11 -89 -38l-8 3l-22 95c20 29 60 51 104 51c71 0 100 -36 151 -36zM407 0l-11 67c-38 -43 -90 -80 -169 -80c-109 0 -185 62 -185 193v370h172v-342
c0 -62 32 -85 80 -85c35 0 65 9 92 30v397h76c59 0 89 36 93 116h133c-2 -128 -56 -193 -130 -212v-454h-151z" />
    <glyph glyph-name="uni1EF0" unicode="&#x1ef0;" horiz-adv-x="770" 
d="M282 -194v135h164v-135h-164zM363 -12c-201 0 -312 101 -312 291v426h194v-423c0 -93 44 -140 126 -140c81 0 127 47 127 140v423h62c73 0 106 50 110 116h141c-2 -117 -64 -189 -142 -213v-329c0 -180 -106 -291 -306 -291z" />
    <glyph glyph-name="uni1EF1" unicode="&#x1ef1;" horiz-adv-x="664" 
d="M219 -194v135h164v-135h-164zM407 0l-11 67c-38 -43 -90 -80 -169 -80c-109 0 -185 62 -185 193v370h172v-342c0 -62 32 -85 80 -85c35 0 65 9 92 30v397h76c59 0 89 36 93 116h133c-2 -128 -56 -193 -130 -212v-454h-151z" />
    <glyph glyph-name="uni1EF4" unicode="&#x1ef4;" horiz-adv-x="639" 
d="M418 0h-194v278l-220 419v8h198l130 -275l129 275h174v-8l-217 -413v-284zM249 -194v135h164v-135h-164z" />
    <glyph glyph-name="uni1EF5" unicode="&#x1ef5;" horiz-adv-x="577" 
d="M75 -207v136c66 6 100 27 114 62l14 34l-197 517v8h181l112 -323l111 323h160v-8l-209 -575c-45 -125 -117 -164 -286 -174zM376 -194v135h164v-135h-164z" />
    <glyph glyph-name="uni1EF5.alt" horiz-adv-x="577" 
d="M297 -194h-173v8l82 213l-200 515v8h182l112 -323l111 323h159v-8zM379 -194v135h164v-135h-164z" />
    <glyph glyph-name="uni1EF5.alt1" horiz-adv-x="604" 
d="M275 -210c-87 0 -160 18 -207 42v138l6 2c47 -27 103 -46 174 -46c102 0 138 33 138 101v37c-37 -38 -87 -69 -159 -69c-109 0 -185 62 -185 193v362h172v-334c0 -62 32 -85 80 -85c35 0 65 9 92 30v389h172v-526c0 -169 -114 -234 -283 -234zM568 -194v135h164v-135
h-164z" />
    <glyph glyph-name="uni1EF6" unicode="&#x1ef6;" horiz-adv-x="639" 
d="M418 0h-194v278l-220 419v8h198l130 -275l129 275h174v-8l-217 -413v-284zM222 924c31 16 62 23 109 23c83 0 138 -29 138 -89c0 -76 -94 -89 -94 -107v-1h-107v3c0 65 81 64 81 92c0 13 -11 22 -43 22c-27 0 -48 -4 -78 -18l-6 3v72z" />
    <glyph glyph-name="uni1EF7" unicode="&#x1ef7;" horiz-adv-x="577" 
d="M75 -207v136c66 6 100 27 114 62l14 34l-197 517v8h181l112 -323l111 323h160v-8l-209 -575c-45 -125 -117 -164 -286 -174zM189 776c30 15 60 24 107 24c83 0 138 -29 138 -89c0 -76 -94 -89 -94 -107v-1h-107v3c0 65 81 64 81 92c0 13 -11 22 -43 22
c-27 0 -47 -6 -76 -19l-6 3v72z" />
    <glyph glyph-name="uni1EF7.alt" horiz-adv-x="577" 
d="M297 -194h-173v8l82 213l-200 515v8h182l112 -323l111 323h159v-8zM191 776c30 15 60 24 107 24c83 0 138 -29 138 -89c0 -76 -94 -89 -94 -107v-1h-107v3c0 65 81 64 81 92c0 13 -11 22 -43 22c-27 0 -47 -6 -76 -19l-6 3v72z" />
    <glyph glyph-name="uni1EF7.alt1" horiz-adv-x="604" 
d="M275 -210c-87 0 -160 18 -207 42v138l6 2c47 -27 103 -46 174 -46c102 0 138 33 138 101v37c-37 -38 -87 -69 -159 -69c-109 0 -185 62 -185 193v362h172v-334c0 -62 32 -85 80 -85c35 0 65 9 92 30v389h172v-526c0 -169 -114 -234 -283 -234zM193 776
c30 15 60 24 107 24c83 0 138 -29 138 -89c0 -76 -94 -89 -94 -107v-1h-107v3c0 65 81 64 81 92c0 13 -11 22 -43 22c-27 0 -47 -6 -76 -19l-6 3v72z" />
    <glyph glyph-name="uni1EF8" unicode="&#x1ef8;" horiz-adv-x="639" 
d="M418 0h-194v278l-220 419v8h198l130 -275l129 275h174v-8l-217 -413v-284zM393 872c31 0 55 12 83 39l8 -3l22 -95c-20 -27 -60 -52 -104 -52c-71 0 -100 34 -145 34c-37 0 -61 -11 -89 -38l-8 3l-22 95c20 29 60 51 104 51c71 0 100 -34 151 -34z" />
    <glyph glyph-name="uni1EF9" unicode="&#x1ef9;" horiz-adv-x="577" 
d="M75 -207v136c66 6 100 27 114 62l14 34l-197 517v8h181l112 -323l111 323h160v-8l-209 -575c-45 -125 -117 -164 -286 -174zM361 719c31 0 55 12 83 39l8 -3l22 -95c-20 -27 -60 -52 -104 -52c-71 0 -100 36 -145 36c-37 0 -61 -11 -89 -38l-8 3l-22 95
c20 29 60 51 104 51c71 0 100 -36 151 -36z" />
    <glyph glyph-name="uni1EF9.alt" horiz-adv-x="577" 
d="M297 -194h-173v8l82 213l-200 515v8h182l112 -323l111 323h159v-8zM363 719c31 0 55 12 83 39l8 -3l22 -95c-20 -27 -60 -52 -104 -52c-71 0 -100 36 -145 36c-37 0 -61 -11 -89 -38l-8 3l-22 95c20 29 60 51 104 51c71 0 100 -36 151 -36z" />
    <glyph glyph-name="uni1EF9.alt1" horiz-adv-x="604" 
d="M275 -210c-87 0 -160 18 -207 42v138l6 2c47 -27 103 -46 174 -46c102 0 138 33 138 101v37c-37 -38 -87 -69 -159 -69c-109 0 -185 62 -185 193v362h172v-334c0 -62 32 -85 80 -85c35 0 65 9 92 30v389h172v-526c0 -169 -114 -234 -283 -234zM365 719c31 0 55 12 83 39
l8 -3l22 -95c-20 -27 -60 -52 -104 -52c-71 0 -100 36 -145 36c-37 0 -61 -11 -89 -38l-8 3l-22 95c20 29 60 51 104 51c71 0 100 -36 151 -36z" />
    <glyph glyph-name="uni2009" unicode="&#x2009;" horiz-adv-x="75" 
 />
    <glyph glyph-name="uni20AB" unicode="&#x20ab;" horiz-adv-x="622" 
d="M305 120c44 0 74 13 99 36v245c-25 23 -54 35 -96 35c-70 0 -113 -57 -113 -165c0 -105 46 -151 110 -151zM436 0l-17 71c-38 -53 -91 -84 -168 -84c-137 0 -230 95 -230 284c0 193 100 292 235 292c66 0 113 -24 148 -62v94h-139v82h139v45l172 29v-74h53v-82h-53v-595
h-140zM103 -164v85h426v-85h-426z" />
    <glyph glyph-name="v.flat" horiz-adv-x="586" 
d="M374 0h-158l-210 542v8h181l117 -341l115 341h161v-7z" />
    <glyph glyph-name="w.flat" horiz-adv-x="787" 
d="M489 0l-96 313l-92 -313h-134l-157 542v8h171l71 -306l88 306h117l91 -307l69 307h160v-8l-154 -542h-134z" />
    <glyph glyph-name="wacute.flat" horiz-adv-x="787" 
d="M449 597h-129l78 171h171zM489 0l-96 313l-92 -313h-134l-157 542v8h171l71 -306l88 306h117l91 -307l69 307h160v-8l-154 -542h-134z" />
    <glyph glyph-name="wcircumflex.flat" horiz-adv-x="787" 
d="M394 665l-58 -68h-130l128 166h120l128 -166h-130zM489 0l-96 313l-92 -313h-134l-157 542v8h171l71 -306l88 306h117l91 -307l69 307h160v-8l-154 -542h-134z" />
    <glyph glyph-name="wdieresis.flat" horiz-adv-x="787" 
d="M218 611v136h148v-136h-148zM426 611v136h148v-136h-148zM489 0l-96 313l-92 -313h-134l-157 542v8h171l71 -306l88 306h117l91 -307l69 307h160v-8l-154 -542h-134z" />
    <glyph glyph-name="wgrave.flat" horiz-adv-x="787" 
d="M489 0l-96 313l-92 -313h-134l-157 542v8h171l71 -306l88 306h117l91 -307l69 307h160v-8l-154 -542h-134zM343 597l-120 171h171l77 -171h-128z" />
    <glyph glyph-name="z.flat" horiz-adv-x="500" 
d="M475 0h-450v91l243 334h-226v125h428v-102l-235 -323h240v-125z" />
    <glyph glyph-name="zacute.flat" horiz-adv-x="501" 
d="M316 597h-129l78 171h171zM475 0h-450v91l243 334h-226v125h428v-102l-235 -323h240v-125z" />
    <glyph glyph-name="zcaron.flat" horiz-adv-x="501" 
d="M261 696l58 67h130l-128 -166h-120l-128 166h130zM475 0h-450v91l243 334h-226v125h428v-102l-235 -323h240v-125z" />
    <glyph glyph-name="zdotaccent.flat" horiz-adv-x="501" 
d="M475 0h-450v91l243 334h-226v125h428v-102l-235 -323h240v-125zM179 611v135h164v-135h-164z" />
    <glyph glyph-name="A" unicode="A" horiz-adv-x="710" 
d="M413 241l-71 187l-72 -187h143zM505 0l-44 115h-238l-44 -115h-173v8l299 703h101l299 -703v-8h-200z" />
    </font>
</defs>
</svg>
