<svg xmlns="http://www.w3.org/2000/svg" viewBox="0 0 170 85"><defs><style>.cls-1{fill:#fff;}.cls-2{fill:none;}</style></defs><title>Asset 1</title><g id="Layer_2" data-name="Layer 2"><g id="Layer_1-2" data-name="Layer 1"><path class="cls-1" d="M8.6,65.7a1.42,1.42,0,0,1-.6-.2c-.2-.1-.3-.1-.5-.2a3.33,3.33,0,0,1-1.4-1.7A4.87,4.87,0,0,1,6,62.4v-2a.68.68,0,0,1,.7-.7.68.68,0,0,1,.7.7h0v2a2.35,2.35,0,0,0,.2.8,2,2,0,0,0,1.1,1.1,2.21,2.21,0,0,0,1.6,0,2,2,0,0,0,1.1-1.1,1.88,1.88,0,0,0,.2-.8v-2a.76.76,0,0,1,.2-.5.56.56,0,0,1,.9,0,.76.76,0,0,1,.2.5v2a5,5,0,0,1-.2,1.2,3.91,3.91,0,0,1-1.4,1.7,3.58,3.58,0,0,1-1.1.4v2.7a.65.65,0,1,1-1.3.1v-.1l-.3-2.7Z"/><path class="cls-1" d="M17.5,69.1h-.7a1.42,1.42,0,0,1-.6-.2,4.13,4.13,0,0,1-1.1-.7,2.59,2.59,0,0,1-.7-1.1,3.87,3.87,0,0,1,0-2.6,3.19,3.19,0,0,1,1.8-1.8,3.08,3.08,0,0,1,1.3-.3,2.77,2.77,0,0,1,1.3.3,4.13,4.13,0,0,1,1.1.7,2.59,2.59,0,0,1,.7,1.1,3,3,0,0,1,0,2.6,3.51,3.51,0,0,1-1.8,1.8,5.07,5.07,0,0,1-1.3.2Zm-.1-1.2a2.35,2.35,0,0,0,.8-.2,2,2,0,0,0,1.1-1.1,2.21,2.21,0,0,0,0-1.6,2,2,0,0,0-1.1-1.1,2.21,2.21,0,0,0-1.6,0,1.84,1.84,0,0,0-1,1,2.21,2.21,0,0,0,0,1.6,1.84,1.84,0,0,0,1,1c.1.1.2.1.4.1.2.3.3.3.4.3Z"/><path class="cls-1" d="M28.8,68.5a.37.37,0,0,1-.1.3c-.1.1-.1.2-.2.2a.76.76,0,0,1-.5.2.68.68,0,0,1-.7-.7,4.05,4.05,0,0,1-.9.5,3.59,3.59,0,0,1-1.1.2,3.08,3.08,0,0,1-1.3-.3,3.51,3.51,0,0,1-1.8-1.8,3.08,3.08,0,0,1-.3-1.3V63.1a.65.65,0,0,1,1.3-.1v2.8a2.35,2.35,0,0,0,.2.8,2,2,0,0,0,1.1,1.1,2.21,2.21,0,0,0,1.6,0,2,2,0,0,0,1.1-1.1,1.88,1.88,0,0,0,.2-.8V63.1a.68.68,0,0,1,.7-.7.68.68,0,0,1,.7.7Z"/><path class="cls-1" d="M30.3,63.1a.6.6,0,0,1,.7-.6.65.65,0,0,1,.6.6,4.05,4.05,0,0,1,.9-.5,3.59,3.59,0,0,1,1.1-.2.76.76,0,0,1,.5.2.67.67,0,0,1,0,1h0a.76.76,0,0,1-.5.2,2.35,2.35,0,0,0-.8.2,2,2,0,0,0-1.1,1.1,1.88,1.88,0,0,0-.2.8v2.7a.76.76,0,0,1-.2.5.67.67,0,0,1-1,0h0a.76.76,0,0,1-.2-.5l.2-5.5Z"/><path class="cls-1" d="M40.5,60.3v-.2c0-.1.1-.1.1-.2a.67.67,0,0,1,1,0,.76.76,0,0,1,.2.5v2h1.1a.6.6,0,0,1,.6.7.65.65,0,0,1-.6.6H41.8V67c0,.2.1.3.2.5a.76.76,0,0,0,.5.2c.2,0,.3-.1.5-.2a.76.76,0,0,1,.5-.2c.2,0,.3.1.5.2a.72.72,0,0,1,0,1,2.09,2.09,0,0,1-.6.4,2.21,2.21,0,0,1-1.6,0,1.84,1.84,0,0,1-1-1,1.88,1.88,0,0,1-.2-.8l-.1-6.8Z"/><path class="cls-1" d="M46.6,66.4l.3.6c.1.2.3.3.4.5a2.45,2.45,0,0,0,1.2.4,2.35,2.35,0,0,0,.8-.2,2.09,2.09,0,0,0,.6-.4.76.76,0,0,1,.5-.2.73.73,0,0,1,.7.6v.1a.76.76,0,0,1-.2.5,2.59,2.59,0,0,1-1.1.7,3,3,0,0,1-2.6,0,4.13,4.13,0,0,1-1.1-.7,2.59,2.59,0,0,1-.7-1.1,3.87,3.87,0,0,1,0-2.6,4.13,4.13,0,0,1,.7-1.1,2.59,2.59,0,0,1,1.1-.7,3,3,0,0,1,2.6,0,3.19,3.19,0,0,1,1.8,1.8,3.08,3.08,0,0,1,.3,1.3c0,.2-.1.3-.2.5a.76.76,0,0,1-.5.2l-4.6-.2Zm3.8-1.3a2.29,2.29,0,0,0-.7-1,2.11,2.11,0,0,0-2.4,0,1.83,1.83,0,0,0-.7,1Z"/><path class="cls-1" d="M58.3,68.5a4.05,4.05,0,0,1-.9.5,3.59,3.59,0,0,1-1.1.2,3.08,3.08,0,0,1-1.3-.3,4.13,4.13,0,0,1-1.1-.7,2.59,2.59,0,0,1-.7-1.1,3.08,3.08,0,0,1-.3-1.3,2.77,2.77,0,0,1,.3-1.3,4.13,4.13,0,0,1,.7-1.1,2.59,2.59,0,0,1,1.1-.7,3.87,3.87,0,0,1,2.6,0,4.13,4.13,0,0,1,1.1.7,2.59,2.59,0,0,1,.7,1.1,3.08,3.08,0,0,1,.3,1.3v2.7a.67.67,0,0,1-.6.7.85.85,0,0,1-.8-.7Zm-2-.6a2.35,2.35,0,0,0,.8-.2,1.84,1.84,0,0,0,1-1,2.21,2.21,0,0,0,0-1.6,1.84,1.84,0,0,0-1-1,2.21,2.21,0,0,0-1.6,0,2,2,0,0,0-1.1,1.1,2.21,2.21,0,0,0,0,1.6,1.84,1.84,0,0,0,1,1c.1.1.2.1.4.1s.3,0,.5,0Z"/><path class="cls-1" d="M70.6,65.4v-.3c0-.1-.1-.2-.1-.3a1,1,0,0,0-.4-.5c-.2-.1-.3-.3-.5-.4a1.48,1.48,0,0,0-1.3,0,1,1,0,0,0-.5.4,1.76,1.76,0,0,0-.4.5,1.27,1.27,0,0,0-.1.6v3a.76.76,0,0,1-.2.5.56.56,0,0,1-.9,0,.76.76,0,0,1-.2-.5v-3a1.27,1.27,0,0,0-.1-.6,1,1,0,0,0-.4-.5c-.2-.1-.3-.3-.5-.4a1.48,1.48,0,0,0-1.3,0,1,1,0,0,0-.5.4,1.76,1.76,0,0,0-.4.5,1.27,1.27,0,0,0-.1.6v3a.76.76,0,0,1-.2.5.67.67,0,0,1-1,0,.76.76,0,0,1-.2-.5V63a.68.68,0,0,1,.7-.7c.2,0,.3.1.4.1a.52.52,0,0,1,.2.4,3.37,3.37,0,0,1,1.7-.5,2.77,2.77,0,0,1,1.3.3,3.92,3.92,0,0,1,1,.8,3.92,3.92,0,0,1,1-.8,3.08,3.08,0,0,1,1.3-.3,5,5,0,0,1,1.2.2,3.51,3.51,0,0,1,1.7,1.7,2.54,2.54,0,0,1,.2,1.2v3a.76.76,0,0,1-.2.5.67.67,0,0,1-1,0,.76.76,0,0,1-.2-.5v-3Z"/><path class="cls-1" d="M74,67.7a.68.68,0,0,1,.7.7V69a1.27,1.27,0,0,1-.1.6,2,2,0,0,1-.9.9,1.27,1.27,0,0,1-.6.1.6.6,0,0,1-.6-.7.65.65,0,0,1,.6-.6.27.27,0,0,0,.3-.3h0v-.7a.76.76,0,0,1,.2-.5c.1-.1.1-.1.2-.1Z"/><path class="cls-1" d="M81.6,63.4a.45.45,0,0,1,0-.5,1.38,1.38,0,0,1,.3-.4.45.45,0,0,1,.5,0,1.38,1.38,0,0,1,.4.3L84.9,67,87,62.8c.1-.2.2-.3.4-.3a.68.68,0,0,1,.8.4h0c.1.2,0,.4,0,.5l-3.6,7.2a3.74,3.74,0,0,1-1.2,1.3,3.45,3.45,0,0,1-1.8.5.6.6,0,0,1-.6-.7.65.65,0,0,1,.6-.6.75.75,0,0,0,.5-.1c.2-.1.3-.1.5-.2a1.77,1.77,0,0,0,.7-.7l.8-1.7Z"/><path class="cls-1" d="M92.3,69.1h-.7a1.42,1.42,0,0,1-.6-.2,3.51,3.51,0,0,1-1.8-1.8,3.51,3.51,0,0,1,.1-2.6,3.19,3.19,0,0,1,1.8-1.8,3.08,3.08,0,0,1,1.3-.3,2.77,2.77,0,0,1,1.3.3,3.51,3.51,0,0,1,1.8,1.8,3.87,3.87,0,0,1,0,2.6,4.13,4.13,0,0,1-.7,1.1,2.59,2.59,0,0,1-1.1.7,5.9,5.9,0,0,1-1.4.2Zm0-1.2a2.35,2.35,0,0,0,.8-.2,2,2,0,0,0,1.1-1.1,2.21,2.21,0,0,0,0-1.6,2,2,0,0,0-1.1-1.1,1.88,1.88,0,0,0-.8-.2,2.35,2.35,0,0,0-.8.2A2,2,0,0,0,90.4,65a2.21,2.21,0,0,0,0,1.6,2,2,0,0,0,1.1,1.1c.1.1.2.1.4.1s.2.1.4.1Z"/><path class="cls-1" d="M103.6,68.5a.37.37,0,0,1-.1.3c-.1.1-.1.2-.2.2a.76.76,0,0,1-.5.2.68.68,0,0,1-.7-.7,4.05,4.05,0,0,1-.9.5,3.59,3.59,0,0,1-1.1.2,3.08,3.08,0,0,1-1.3-.3A3.51,3.51,0,0,1,97,67.1a3.08,3.08,0,0,1-.3-1.3V63.1a.76.76,0,0,1,.2-.5.67.67,0,0,1,1,0,.76.76,0,0,1,.2.5v2.7a2.35,2.35,0,0,0,.2.8,2,2,0,0,0,1.1,1.1,2.21,2.21,0,0,0,1.6,0,2,2,0,0,0,1.1-1.1,1.88,1.88,0,0,0,.2-.8V63.1a.76.76,0,0,1,.2-.5.67.67,0,0,1,1,0,.76.76,0,0,1,.2.5l-.1,5.4Z"/><path class="cls-1" d="M105.1,63.1a.68.68,0,0,1,.7-.7.68.68,0,0,1,.7.7,4.05,4.05,0,0,1,.9-.5,3.59,3.59,0,0,1,1.1-.2.6.6,0,0,1,.6.7.65.65,0,0,1-.6.6,2.35,2.35,0,0,0-.8.2,1.84,1.84,0,0,0-1,1,1.88,1.88,0,0,0-.2.8v2.7a.65.65,0,0,1-1.3.1v-.1l-.1-5.3Z"/><path class="cls-1" d="M116.2,69.1h-.3a.35.35,0,0,1-.2-.1.67.67,0,0,1,0-1,.76.76,0,0,1,.5-.2h2.7a.6.6,0,0,0,.6-.7.65.65,0,0,0-.6-.6h-1.3a2.35,2.35,0,0,1-.8-.2,2,2,0,0,1-1.1-1.1,2.21,2.21,0,0,1,0-1.6,2,2,0,0,1,1.1-1.1,1.88,1.88,0,0,1,.8-.2h1.9c.2,0,.3.1.5.2a.67.67,0,0,1,0,1h0a.76.76,0,0,1-.5.2h-1.9a.68.68,0,0,0-.7.7.68.68,0,0,0,.7.7h1.3a2.35,2.35,0,0,1,.8.2,2,2,0,0,1,1.1,1.1,2.21,2.21,0,0,1,0,1.6,2,2,0,0,1-1.1,1.1,1.88,1.88,0,0,1-.8.2l-2.7-.2Z"/><path class="cls-1" d="M128.6,68.5a.37.37,0,0,1-.1.3c-.1.1-.1.2-.2.2a.76.76,0,0,1-.5.2.68.68,0,0,1-.7-.7,4.05,4.05,0,0,1-.9.5,3.59,3.59,0,0,1-1.1.2,3.08,3.08,0,0,1-1.3-.3,3.51,3.51,0,0,1-1.8-1.8,3.08,3.08,0,0,1-.3-1.3V63.1A.65.65,0,0,1,123,63v2.8a2.35,2.35,0,0,0,.2.8,2,2,0,0,0,1.1,1.1,2.21,2.21,0,0,0,1.6,0,2,2,0,0,0,1.1-1.1,1.88,1.88,0,0,0,.2-.8V63.1a.68.68,0,0,1,.7-.7.68.68,0,0,1,.7.7v5.4Z"/><path class="cls-1" d="M135.7,68.2a2.59,2.59,0,0,1-1.1.7,3,3,0,0,1-2.6,0,4.13,4.13,0,0,1-1.1-.7,2.59,2.59,0,0,1-.7-1.1,3.08,3.08,0,0,1-.3-1.3,2.77,2.77,0,0,1,.3-1.3,3.19,3.19,0,0,1,1.8-1.8,3,3,0,0,1,2.6,0,4.13,4.13,0,0,1,1.1.7.76.76,0,0,1,.2.5.73.73,0,0,1-.6.7h-.1c-.2,0-.3-.1-.5-.2a2.09,2.09,0,0,0-.6-.4,2.21,2.21,0,0,0-1.6,0,2,2,0,0,0-1.1,1.1,2.21,2.21,0,0,0,0,1.6,2.35,2.35,0,0,0,1.1,1.1,2.21,2.21,0,0,0,1.6,0,2.09,2.09,0,0,0,.6-.4.76.76,0,0,1,.5-.2.73.73,0,0,1,.7.6v.1c.1-.1,0,.1-.2.3Z"/><path class="cls-1" d="M142.8,68.2a2.59,2.59,0,0,1-1.1.7,3,3,0,0,1-2.6,0,4.13,4.13,0,0,1-1.1-.7,2.59,2.59,0,0,1-.7-1.1,3.87,3.87,0,0,1,0-2.6,3.19,3.19,0,0,1,1.8-1.8,3,3,0,0,1,2.6,0,4.13,4.13,0,0,1,1.1.7.7.7,0,0,1-.5,1.2c-.2,0-.3-.1-.5-.2a2.09,2.09,0,0,0-.6-.4,2.21,2.21,0,0,0-1.6,0,1.84,1.84,0,0,0-1,1,2.21,2.21,0,0,0,0,1.6,1.84,1.84,0,0,0,1,1,2.21,2.21,0,0,0,1.6,0,2.09,2.09,0,0,0,.6-.4.76.76,0,0,1,.5-.2.73.73,0,0,1,.7.6v.1c.1.1,0,.3-.2.5Z"/><path class="cls-1" d="M145.4,66.4l.3.6c.1.2.3.3.4.5a2.45,2.45,0,0,0,1.2.4,2.35,2.35,0,0,0,.8-.2,2.09,2.09,0,0,0,.6-.4.76.76,0,0,1,.5-.2.73.73,0,0,1,.7.6v.1a.76.76,0,0,1-.2.5,2.59,2.59,0,0,1-1.1.7,3,3,0,0,1-2.6,0,4.13,4.13,0,0,1-1.1-.7,2.59,2.59,0,0,1-.7-1.1,3.08,3.08,0,0,1-.3-1.3,2.77,2.77,0,0,1,.3-1.3,4.13,4.13,0,0,1,.7-1.1,2.59,2.59,0,0,1,1.1-.7,3.08,3.08,0,0,1,1.3-.3,2.77,2.77,0,0,1,1.3.3,3.51,3.51,0,0,1,1.8,1.8,3.08,3.08,0,0,1,.3,1.3c0,.2-.1.3-.2.5a.76.76,0,0,1-.5.2l-4.6-.2Zm3.8-1.3a2.29,2.29,0,0,0-.7-1,2.11,2.11,0,0,0-2.4,0,1.83,1.83,0,0,0-.7,1Z"/><path class="cls-1" d="M152.7,69.1h-.3a.35.35,0,0,1-.2-.1.67.67,0,0,1,0-1h0a.76.76,0,0,1,.5-.2h2.7a.6.6,0,0,0,.6-.7.65.65,0,0,0-.6-.6h-1.3a2.35,2.35,0,0,1-.8-.2,2,2,0,0,1-1.1-1.1,2.21,2.21,0,0,1,0-1.6,2,2,0,0,1,1.1-1.1,1.88,1.88,0,0,1,.8-.2H156c.2,0,.3.1.5.2a.67.67,0,0,1,0,1h0a.76.76,0,0,1-.5.2h-1.9a.68.68,0,0,0-.7.7.68.68,0,0,0,.7.7h1.3a2.35,2.35,0,0,1,.8.2,1.84,1.84,0,0,1,1,1,2.21,2.21,0,0,1,0,1.6,1.84,1.84,0,0,1-1,1,1.88,1.88,0,0,1-.8.2Z"/><path class="cls-1" d="M159.3,69.1H159a.35.35,0,0,1-.2-.1.67.67,0,0,1,0-1,.76.76,0,0,1,.5-.2H162a.6.6,0,0,0,.6-.7.65.65,0,0,0-.6-.6h-1.3a2.35,2.35,0,0,1-.8-.2,1.84,1.84,0,0,1-1-1,2.21,2.21,0,0,1,0-1.6,1.84,1.84,0,0,1,1-1,1.88,1.88,0,0,1,.8-.2h1.9c.2,0,.3.1.5.2a.67.67,0,0,1,0,1,.76.76,0,0,1-.5.2h-1.9a.68.68,0,0,0-.7.7.68.68,0,0,0,.7.7H162a2.35,2.35,0,0,1,.8.2,1.84,1.84,0,0,1,1,1,2.21,2.21,0,0,1,0,1.6,1.84,1.84,0,0,1-1,1,1.88,1.88,0,0,1-.8.2l-2.7-.2Z"/><path class="cls-1" d="M44,15.7v.2A18.88,18.88,0,0,1,28.2,34.4V47.3A3.22,3.22,0,0,1,25,50.5h0a3.22,3.22,0,0,1-3.2-3.2v-13A18.79,18.79,0,0,1,6.1,15.8v-.4a3.2,3.2,0,0,1,3.3-3h.2a3.18,3.18,0,0,1,2.8,3.3,12.6,12.6,0,0,0,25.2,0,3.26,3.26,0,0,1,2.8-3.3,3.22,3.22,0,0,1,3.5,2.8v.2C44,15.6,44,15.6,44,15.7Z"/><path class="cls-1" d="M84,31.4A18.9,18.9,0,1,1,65,12.5,18.88,18.88,0,0,1,84,31.4ZM65,18.8A12.65,12.65,0,1,0,77.6,31.5,12.61,12.61,0,0,0,65,18.8Z"/><path class="cls-1" d="M119.8,39.3a11.16,11.16,0,0,1-10.9,11.1H93.3a3.2,3.2,0,0,1,0-6.4h15.4a4.7,4.7,0,1,0,0-9.4H101a11.05,11.05,0,1,1,.1-22.1h8.5a3.2,3.2,0,1,1,0,6.4h-8.3a4.7,4.7,0,0,0,0,9.4H109A11,11,0,0,1,119.8,39.3Z"/><path class="cls-1" d="M160.8,12.5a3.22,3.22,0,0,0-3.2,3.2V31.5a12.6,12.6,0,0,1-25.2,0V15.7a3.22,3.22,0,0,0-3.2-3.2h0a3.22,3.22,0,0,0-3.2,3.2v16a15.26,15.26,0,0,0,.3,3,18.79,18.79,0,0,0,15.5,15.5,15.26,15.26,0,0,0,3,.3h.3a15.26,15.26,0,0,0,3-.3,19.23,19.23,0,0,0,9.5-4.6v1.7a3.22,3.22,0,0,0,3.2,3.2h0a3.22,3.22,0,0,0,3.2-3.2V15.7a3.29,3.29,0,0,0-3.2-3.2Z"/><rect class="cls-2" width="170" height="85"/></g></g></svg>