<svg width="291" height="52" viewBox="0 0 291 52" fill="none" xmlns="http://www.w3.org/2000/svg">
<rect width="291" height="52" fill="#3B5998"/>
<path d="M64.856 31C64.536 31 64.264 30.8933 64.04 30.68C63.816 30.4667 63.704 30.2 63.704 29.88V26.136H63.448C63.1173 26.136 62.8507 26.0773 62.648 25.96C62.4453 25.832 62.344 25.5867 62.344 25.224C62.344 24.9253 62.4293 24.7013 62.6 24.552C62.76 24.392 63.0427 24.312 63.448 24.312H63.704V20.728C63.704 20.408 63.816 20.1413 64.04 19.928C64.264 19.7147 64.536 19.608 64.856 19.608H68.008C68.7547 19.608 69.4427 19.752 70.072 20.04C70.7013 20.3173 71.2453 20.712 71.704 21.224C72.1627 21.7253 72.52 22.3227 72.776 23.016C73.032 23.6987 73.16 24.4453 73.16 25.256C73.16 26.184 73.016 27.0053 72.728 27.72C72.44 28.4347 72.056 29.0373 71.576 29.528C71.096 30.008 70.5467 30.376 69.928 30.632C69.3093 30.8773 68.664 31 67.992 31H64.856ZM67.624 28.872C68.5733 28.872 69.32 28.5627 69.864 27.944C70.408 27.3147 70.68 26.408 70.68 25.224C70.68 24.1253 70.4133 23.272 69.88 22.664C69.3467 22.0453 68.6267 21.736 67.72 21.736H66.008V24.312H67.56C67.816 24.312 68.024 24.3973 68.184 24.568C68.3547 24.728 68.44 24.9467 68.44 25.224C68.44 25.5013 68.3547 25.7253 68.184 25.896C68.024 26.056 67.816 26.136 67.56 26.136H66.008V28.872H67.624ZM78.258 18.904C77.938 18.904 77.6393 18.856 77.362 18.76C77.0847 18.664 76.8393 18.5307 76.626 18.36C76.4233 18.1893 76.2633 17.992 76.146 17.768C76.0287 17.544 75.97 17.2987 75.97 17.032C75.97 16.808 76.0233 16.6267 76.13 16.488C76.2473 16.3493 76.418 16.28 76.642 16.28C76.802 16.28 76.9353 16.3333 77.042 16.44C77.1487 16.5467 77.2447 16.7013 77.33 16.904C77.4367 17.1173 77.554 17.2827 77.682 17.4C77.8207 17.5173 78.0127 17.576 78.258 17.576C78.5033 17.576 78.6953 17.5173 78.834 17.4C78.9727 17.2827 79.09 17.1173 79.186 16.904C79.2713 16.7013 79.3673 16.5467 79.474 16.44C79.5807 16.3333 79.714 16.28 79.874 16.28C80.1087 16.28 80.2793 16.3493 80.386 16.488C80.4927 16.6267 80.546 16.808 80.546 17.032C80.546 17.2987 80.4873 17.544 80.37 17.768C80.2527 17.992 80.0873 18.1893 79.874 18.36C79.6713 18.5307 79.4313 18.664 79.154 18.76C78.8767 18.856 78.578 18.904 78.258 18.904ZM74.386 31.096C74.0447 31.096 73.7727 31.0107 73.57 30.84C73.378 30.6693 73.282 30.44 73.282 30.152C73.282 29.9173 73.3193 29.672 73.394 29.416C73.4793 29.1493 73.57 28.888 73.666 28.632L76.578 20.84C76.7593 20.36 76.978 19.9973 77.234 19.752C77.5007 19.5067 77.8473 19.384 78.274 19.384C78.6793 19.384 79.0153 19.5067 79.282 19.752C79.5487 19.9973 79.7727 20.36 79.954 20.84L82.898 28.744C82.9833 28.9573 83.058 29.1867 83.122 29.432C83.1967 29.6667 83.234 29.9067 83.234 30.152C83.234 30.44 83.1327 30.6693 82.93 30.84C82.738 31.0107 82.4767 31.096 82.146 31.096C81.7833 31.096 81.5167 31 81.346 30.808C81.1753 30.6053 81.0313 30.312 80.914 29.928L80.514 28.744H76.002L75.618 29.896C75.4687 30.3653 75.3033 30.6853 75.122 30.856C74.9407 31.016 74.6953 31.096 74.386 31.096ZM79.826 26.616L78.322 21.992H78.29L76.69 26.616H79.826ZM85.1216 31.096C84.7803 31.096 84.503 30.9893 84.2896 30.776C84.0763 30.5627 83.9696 30.2693 83.9696 29.896V20.696C83.9696 20.3333 84.0763 20.0453 84.2896 19.832C84.503 19.6187 84.7803 19.512 85.1216 19.512C85.399 19.512 85.6176 19.5707 85.7776 19.688C85.9376 19.8053 86.1083 19.976 86.2896 20.2L91.3616 26.808H91.3936V20.712C91.3936 20.3387 91.5003 20.0453 91.7136 19.832C91.927 19.6187 92.2043 19.512 92.5456 19.512C92.887 19.512 93.1643 19.6187 93.3776 19.832C93.591 20.0453 93.6976 20.3387 93.6976 20.712V29.896C93.6976 30.2693 93.591 30.5627 93.3776 30.776C93.175 30.9893 92.8976 31.096 92.5456 31.096C92.2896 31.096 92.071 31.032 91.8896 30.904C91.719 30.776 91.527 30.5733 91.3136 30.296L86.3056 23.768H86.2736V29.896C86.2736 30.2693 86.167 30.5627 85.9536 30.776C85.751 30.9893 85.4736 31.096 85.1216 31.096ZM100.342 31.224C99.4249 31.224 98.6196 31.064 97.9263 30.744C97.2329 30.424 96.6516 29.9973 96.1823 29.464C95.7236 28.92 95.3769 28.296 95.1423 27.592C94.9183 26.8773 94.8063 26.136 94.8063 25.368C94.8063 24.504 94.9396 23.704 95.2063 22.968C95.4836 22.232 95.8623 21.6027 96.3423 21.08C96.8223 20.5467 97.3983 20.1307 98.0703 19.832C98.7423 19.5333 99.4783 19.384 100.278 19.384C101.036 19.384 101.745 19.496 102.406 19.72C103.068 19.9333 103.59 20.2107 103.974 20.552C104.38 20.9253 104.582 21.32 104.582 21.736C104.582 22.0347 104.486 22.2747 104.294 22.456C104.113 22.6373 103.868 22.728 103.558 22.728C103.398 22.728 103.249 22.696 103.11 22.632C102.972 22.568 102.822 22.4827 102.662 22.376C102.342 22.1413 102.006 21.9387 101.654 21.768C101.313 21.5973 100.886 21.512 100.374 21.512C99.9156 21.512 99.4943 21.608 99.1102 21.8C98.7369 21.992 98.4116 22.2587 98.1343 22.6C97.8676 22.9413 97.6596 23.3413 97.5103 23.8C97.3609 24.2587 97.2863 24.76 97.2863 25.304C97.2863 25.8587 97.3556 26.3707 97.4943 26.84C97.6329 27.2987 97.8356 27.6987 98.1023 28.04C98.3689 28.3707 98.6889 28.632 99.0623 28.824C99.4463 29.0053 99.8783 29.096 100.358 29.096C101.094 29.096 101.702 28.8613 102.182 28.392C102.662 27.9227 102.929 27.272 102.982 26.44H101.35C101.009 26.44 100.737 26.3493 100.534 26.168C100.332 25.976 100.23 25.7147 100.23 25.384C100.23 25.0427 100.332 24.7813 100.534 24.6C100.737 24.408 101.004 24.312 101.334 24.312H104.102C104.486 24.312 104.79 24.4293 105.014 24.664C105.238 24.888 105.35 25.256 105.35 25.768C105.35 26.5787 105.228 27.32 104.982 27.992C104.748 28.664 104.406 29.24 103.958 29.72C103.521 30.2 102.993 30.5733 102.374 30.84C101.766 31.096 101.089 31.224 100.342 31.224ZM111.95 31.096C111.608 31.096 111.331 30.9893 111.118 30.776C110.904 30.5627 110.798 30.2693 110.798 29.896V20.696C110.798 20.3333 110.904 20.0453 111.118 19.832C111.331 19.6187 111.608 19.512 111.95 19.512C112.227 19.512 112.446 19.5707 112.606 19.688C112.766 19.8053 112.936 19.976 113.118 20.2L118.19 26.808H118.222V20.712C118.222 20.3387 118.328 20.0453 118.542 19.832C118.755 19.6187 119.032 19.512 119.374 19.512C119.715 19.512 119.992 19.6187 120.206 19.832C120.419 20.0453 120.526 20.3387 120.526 20.712V29.896C120.526 30.2693 120.419 30.5627 120.206 30.776C120.003 30.9893 119.726 31.096 119.374 31.096C119.118 31.096 118.899 31.032 118.718 30.904C118.547 30.776 118.355 30.5733 118.142 30.296L113.134 23.768H113.102V29.896C113.102 30.2693 112.995 30.5627 112.782 30.776C112.579 30.9893 112.302 31.096 111.95 31.096ZM123.09 31.096C122.749 31.096 122.472 30.9893 122.258 30.776C122.045 30.5627 121.938 30.2693 121.938 29.896V20.712C121.938 20.3387 122.045 20.0453 122.258 19.832C122.472 19.6187 122.749 19.512 123.09 19.512C123.442 19.512 123.72 19.6187 123.922 19.832C124.136 20.0453 124.242 20.3387 124.242 20.712V24.088H129.362V20.712C129.362 20.3387 129.469 20.0453 129.682 19.832C129.896 19.6187 130.173 19.512 130.514 19.512C130.856 19.512 131.133 19.6187 131.346 19.832C131.56 20.0453 131.666 20.3387 131.666 20.712V29.896C131.666 30.2693 131.56 30.5627 131.346 30.776C131.133 30.9893 130.856 31.096 130.514 31.096C130.173 31.096 129.896 30.9893 129.682 30.776C129.469 30.5627 129.362 30.2693 129.362 29.896V26.232H124.242V29.896C124.242 30.2693 124.136 30.5627 123.922 30.776C123.72 30.9893 123.442 31.096 123.09 31.096ZM135.463 18.792C135.292 18.792 135.143 18.7227 135.015 18.584C134.897 18.4347 134.839 18.264 134.839 18.072C134.839 17.8373 134.881 17.656 134.967 17.528C135.063 17.4 135.228 17.2827 135.463 17.176L136.855 16.552C136.951 16.5093 137.052 16.472 137.159 16.44C137.265 16.408 137.34 16.392 137.383 16.392C137.457 16.392 137.559 16.4187 137.687 16.472C137.825 16.5253 137.991 16.5947 138.183 16.68L139.399 17.224C139.548 17.288 139.676 17.3787 139.783 17.496C139.889 17.6027 139.943 17.7947 139.943 18.072C139.943 18.264 139.879 18.4347 139.751 18.584C139.633 18.7227 139.484 18.792 139.303 18.792C139.196 18.792 139.089 18.776 138.983 18.744C138.876 18.712 138.727 18.6533 138.535 18.568L137.383 18.04L136.135 18.6C136.071 18.6427 135.975 18.6853 135.847 18.728C135.719 18.7707 135.591 18.792 135.463 18.792ZM133.527 31.096C133.185 31.096 132.913 31.0107 132.711 30.84C132.519 30.6693 132.423 30.44 132.423 30.152C132.423 29.9173 132.46 29.672 132.535 29.416C132.62 29.1493 132.711 28.888 132.807 28.632L135.719 20.84C135.9 20.36 136.119 19.9973 136.375 19.752C136.641 19.5067 136.988 19.384 137.415 19.384C137.82 19.384 138.156 19.5067 138.423 19.752C138.689 19.9973 138.913 20.36 139.095 20.84L142.039 28.744C142.124 28.9573 142.199 29.1867 142.263 29.432C142.337 29.6667 142.375 29.9067 142.375 30.152C142.375 30.44 142.273 30.6693 142.071 30.84C141.879 31.0107 141.617 31.096 141.287 31.096C140.924 31.096 140.657 31 140.487 30.808C140.316 30.6053 140.172 30.312 140.055 29.928L139.655 28.744H135.143L134.759 29.896C134.609 30.3653 134.444 30.6853 134.263 30.856C134.081 31.016 133.836 31.096 133.527 31.096ZM138.967 26.616L137.463 21.992H137.431L135.831 26.616H138.967ZM137.399 34.392C137.079 34.392 136.807 34.2747 136.583 34.04C136.359 33.816 136.247 33.544 136.247 33.224C136.247 32.904 136.359 32.632 136.583 32.408C136.817 32.184 137.089 32.072 137.399 32.072C137.719 32.072 137.991 32.184 138.215 32.408C138.439 32.632 138.551 32.904 138.551 33.224C138.551 33.544 138.439 33.816 138.215 34.04C137.991 34.2747 137.719 34.392 137.399 34.392ZM144.262 31.096C143.921 31.096 143.644 30.9893 143.43 30.776C143.217 30.5627 143.11 30.2693 143.11 29.896V20.728C143.11 20.408 143.217 20.1413 143.43 19.928C143.654 19.7147 143.932 19.608 144.262 19.608H147.446C147.937 19.608 148.406 19.6933 148.854 19.864C149.313 20.024 149.718 20.264 150.07 20.584C150.422 20.904 150.7 21.2933 150.902 21.752C151.116 22.2107 151.222 22.728 151.222 23.304C151.222 23.912 151.132 24.456 150.95 24.936C150.78 25.416 150.529 25.8267 150.198 26.168C149.868 26.4987 149.473 26.7547 149.014 26.936C148.556 27.1067 148.038 27.192 147.462 27.192H145.414V29.896C145.414 30.2693 145.308 30.5627 145.094 30.776C144.892 30.9893 144.614 31.096 144.262 31.096ZM146.998 25.144C147.542 25.144 147.985 24.9787 148.326 24.648C148.668 24.3067 148.838 23.896 148.838 23.416C148.838 22.872 148.668 22.4453 148.326 22.136C147.985 21.816 147.542 21.656 146.998 21.656H145.414V25.144H146.998ZM157.59 31C157.27 31 156.998 30.8933 156.774 30.68C156.55 30.4667 156.438 30.2 156.438 29.88V20.728C156.438 20.408 156.55 20.1413 156.774 19.928C156.998 19.7147 157.27 19.608 157.59 19.608H160.534C160.993 19.608 161.414 19.6773 161.798 19.816C162.182 19.9547 162.513 20.152 162.79 20.408C163.078 20.664 163.302 20.9733 163.462 21.336C163.622 21.6987 163.702 22.104 163.702 22.552C163.702 23.0427 163.58 23.48 163.334 23.864C163.1 24.2373 162.742 24.5307 162.262 24.744V24.792C162.988 24.9413 163.558 25.2507 163.974 25.72C164.401 26.1893 164.614 26.8133 164.614 27.592C164.614 28.1147 164.524 28.584 164.342 29C164.161 29.416 163.905 29.7733 163.574 30.072C163.244 30.3707 162.838 30.6 162.358 30.76C161.889 30.92 161.366 31 160.79 31H157.59ZM160.086 24.136C160.449 24.136 160.758 24.0293 161.014 23.816C161.27 23.6027 161.398 23.2933 161.398 22.888C161.398 22.4933 161.276 22.1893 161.03 21.976C160.785 21.7627 160.465 21.656 160.07 21.656H158.742V24.136H160.086ZM160.518 28.952C161.041 28.952 161.457 28.8347 161.766 28.6C162.076 28.3653 162.23 28.0187 162.23 27.56C162.23 27.112 162.06 26.7707 161.718 26.536C161.388 26.3013 160.982 26.184 160.502 26.184H158.742V28.952H160.518ZM170.359 16.088C170.284 16.088 170.204 16.0827 170.119 16.072C170.034 16.0507 169.884 15.992 169.671 15.896L167.911 15.144C167.73 15.0693 167.602 14.9787 167.527 14.872C167.463 14.7547 167.431 14.6213 167.431 14.472C167.431 14.2587 167.5 14.072 167.639 13.912C167.778 13.752 167.964 13.672 168.199 13.672C168.284 13.672 168.37 13.6773 168.455 13.688C168.54 13.6987 168.631 13.7307 168.727 13.784L170.647 14.6C170.828 14.6853 170.951 14.7813 171.015 14.888C171.079 14.9947 171.111 15.1227 171.111 15.272C171.111 15.5067 171.042 15.704 170.903 15.864C170.775 16.0133 170.594 16.088 170.359 16.088ZM170.055 18.904C169.735 18.904 169.436 18.856 169.159 18.76C168.882 18.664 168.636 18.5307 168.423 18.36C168.22 18.1893 168.06 17.992 167.943 17.768C167.826 17.544 167.767 17.2987 167.767 17.032C167.767 16.808 167.82 16.6267 167.927 16.488C168.044 16.3493 168.215 16.28 168.439 16.28C168.599 16.28 168.732 16.3333 168.839 16.44C168.946 16.5467 169.042 16.7013 169.127 16.904C169.234 17.1173 169.351 17.2827 169.479 17.4C169.618 17.5173 169.81 17.576 170.055 17.576C170.3 17.576 170.492 17.5173 170.631 17.4C170.77 17.2827 170.887 17.1173 170.983 16.904C171.068 16.7013 171.164 16.5467 171.271 16.44C171.378 16.3333 171.511 16.28 171.671 16.28C171.906 16.28 172.076 16.3493 172.183 16.488C172.29 16.6267 172.343 16.808 172.343 17.032C172.343 17.2987 172.284 17.544 172.167 17.768C172.05 17.992 171.884 18.1893 171.671 18.36C171.468 18.5307 171.228 18.664 170.951 18.76C170.674 18.856 170.375 18.904 170.055 18.904ZM166.183 31.096C165.842 31.096 165.57 31.0107 165.367 30.84C165.175 30.6693 165.079 30.44 165.079 30.152C165.079 29.9173 165.116 29.672 165.191 29.416C165.276 29.1493 165.367 28.888 165.463 28.632L168.375 20.84C168.556 20.36 168.775 19.9973 169.031 19.752C169.298 19.5067 169.644 19.384 170.071 19.384C170.476 19.384 170.812 19.5067 171.079 19.752C171.346 19.9973 171.57 20.36 171.751 20.84L174.695 28.744C174.78 28.9573 174.855 29.1867 174.919 29.432C174.994 29.6667 175.031 29.9067 175.031 30.152C175.031 30.44 174.93 30.6693 174.727 30.84C174.535 31.0107 174.274 31.096 173.943 31.096C173.58 31.096 173.314 31 173.143 30.808C172.972 30.6053 172.828 30.312 172.711 29.928L172.311 28.744H167.799L167.415 29.896C167.266 30.3653 167.1 30.6853 166.919 30.856C166.738 31.016 166.492 31.096 166.183 31.096ZM171.623 26.616L170.119 21.992H170.087L168.487 26.616H171.623ZM176.919 31.096C176.577 31.096 176.3 30.9893 176.087 30.776C175.873 30.5627 175.767 30.2693 175.767 29.896V20.696C175.767 20.3333 175.873 20.0453 176.087 19.832C176.3 19.6187 176.577 19.512 176.919 19.512C177.196 19.512 177.415 19.5707 177.575 19.688C177.735 19.8053 177.905 19.976 178.087 20.2L183.159 26.808H183.191V20.712C183.191 20.3387 183.297 20.0453 183.51 19.832C183.724 19.6187 184.001 19.512 184.343 19.512C184.684 19.512 184.961 19.6187 185.175 19.832C185.388 20.0453 185.495 20.3387 185.495 20.712V29.896C185.495 30.2693 185.388 30.5627 185.175 30.776C184.972 30.9893 184.695 31.096 184.343 31.096C184.087 31.096 183.868 31.032 183.687 30.904C183.516 30.776 183.324 30.5733 183.111 30.296L178.103 23.768H178.071V29.896C178.071 30.2693 177.964 30.5627 177.751 30.776C177.548 30.9893 177.271 31.096 176.919 31.096ZM192.139 31.224C191.222 31.224 190.416 31.064 189.723 30.744C189.03 30.424 188.448 29.9973 187.979 29.464C187.52 28.92 187.174 28.296 186.939 27.592C186.715 26.8773 186.603 26.136 186.603 25.368C186.603 24.504 186.736 23.704 187.003 22.968C187.28 22.232 187.659 21.6027 188.139 21.08C188.619 20.5467 189.195 20.1307 189.867 19.832C190.539 19.5333 191.275 19.384 192.075 19.384C192.832 19.384 193.542 19.496 194.203 19.72C194.864 19.9333 195.387 20.2107 195.771 20.552C196.176 20.9253 196.379 21.32 196.379 21.736C196.379 22.0347 196.283 22.2747 196.091 22.456C195.91 22.6373 195.664 22.728 195.355 22.728C195.195 22.728 195.046 22.696 194.907 22.632C194.768 22.568 194.619 22.4827 194.459 22.376C194.139 22.1413 193.803 21.9387 193.451 21.768C193.11 21.5973 192.683 21.512 192.171 21.512C191.712 21.512 191.291 21.608 190.907 21.8C190.534 21.992 190.208 22.2587 189.931 22.6C189.664 22.9413 189.456 23.3413 189.307 23.8C189.158 24.2587 189.083 24.76 189.083 25.304C189.083 25.8587 189.152 26.3707 189.291 26.84C189.43 27.2987 189.632 27.6987 189.899 28.04C190.166 28.3707 190.486 28.632 190.859 28.824C191.243 29.0053 191.675 29.096 192.155 29.096C192.891 29.096 193.499 28.8613 193.979 28.392C194.459 27.9227 194.726 27.272 194.779 26.44H193.147C192.806 26.44 192.534 26.3493 192.331 26.168C192.128 25.976 192.027 25.7147 192.027 25.384C192.027 25.0427 192.128 24.7813 192.331 24.6C192.534 24.408 192.8 24.312 193.131 24.312H195.899C196.283 24.312 196.587 24.4293 196.811 24.664C197.035 24.888 197.147 25.256 197.147 25.768C197.147 26.5787 197.024 27.32 196.779 27.992C196.544 28.664 196.203 29.24 195.755 29.72C195.318 30.2 194.79 30.5733 194.171 30.84C193.563 31.096 192.886 31.224 192.139 31.224ZM203.747 31.096C203.405 31.096 203.128 30.9893 202.915 30.776C202.701 30.5627 202.595 30.2693 202.595 29.896V20.744C202.595 20.4133 202.707 20.1413 202.931 19.928C203.165 19.7147 203.437 19.608 203.747 19.608H207.779C208.099 19.608 208.365 19.7093 208.579 19.912C208.792 20.104 208.899 20.36 208.899 20.68C208.899 21.0213 208.792 21.2827 208.579 21.464C208.365 21.6453 208.099 21.736 207.779 21.736H204.899V24.184H207.427C207.747 24.184 208.013 24.28 208.227 24.472C208.44 24.6533 208.547 24.9147 208.547 25.256C208.547 25.5973 208.44 25.864 208.227 26.056C208.013 26.2373 207.747 26.328 207.427 26.328H204.899V29.896C204.899 30.2693 204.792 30.5627 204.579 30.776C204.376 30.9893 204.099 31.096 203.747 31.096ZM209.136 31.096C208.795 31.096 208.523 31.0107 208.32 30.84C208.128 30.6693 208.032 30.44 208.032 30.152C208.032 29.9173 208.069 29.672 208.144 29.416C208.229 29.1493 208.32 28.888 208.416 28.632L211.328 20.84C211.509 20.36 211.728 19.9973 211.984 19.752C212.251 19.5067 212.597 19.384 213.024 19.384C213.429 19.384 213.765 19.5067 214.032 19.752C214.299 19.9973 214.523 20.36 214.704 20.84L217.648 28.744C217.733 28.9573 217.808 29.1867 217.872 29.432C217.947 29.6667 217.984 29.9067 217.984 30.152C217.984 30.44 217.883 30.6693 217.68 30.84C217.488 31.0107 217.227 31.096 216.896 31.096C216.533 31.096 216.267 31 216.096 30.808C215.925 30.6053 215.781 30.312 215.664 29.928L215.264 28.744H210.752L210.368 29.896C210.219 30.3653 210.053 30.6853 209.872 30.856C209.691 31.016 209.445 31.096 209.136 31.096ZM214.576 26.616L213.072 21.992H213.04L211.44 26.616H214.576ZM223.607 31.224C222.743 31.224 221.97 31.0747 221.287 30.776C220.604 30.4773 220.028 30.0667 219.559 29.544C219.09 29.0213 218.727 28.4027 218.471 27.688C218.226 26.9733 218.103 26.2053 218.103 25.384C218.103 24.5093 218.231 23.7093 218.487 22.984C218.743 22.248 219.111 21.6133 219.591 21.08C220.071 20.5467 220.647 20.1307 221.319 19.832C222.002 19.5333 222.764 19.384 223.607 19.384C224.13 19.384 224.604 19.4373 225.031 19.544C225.468 19.64 225.842 19.768 226.151 19.928C226.428 20.0773 226.647 20.264 226.807 20.488C226.967 20.7013 227.047 20.9307 227.047 21.176C227.047 21.4853 226.951 21.7467 226.759 21.96C226.567 22.1733 226.332 22.28 226.055 22.28C225.97 22.28 225.868 22.264 225.751 22.232C225.644 22.1893 225.527 22.1413 225.399 22.088C225.122 21.9493 224.839 21.832 224.551 21.736C224.263 21.64 223.959 21.592 223.639 21.592C223.159 21.592 222.732 21.688 222.359 21.88C221.986 22.0613 221.666 22.3227 221.399 22.664C221.132 22.9947 220.93 23.3893 220.791 23.848C220.652 24.296 220.583 24.792 220.583 25.336C220.583 25.8587 220.647 26.344 220.775 26.792C220.914 27.2293 221.111 27.608 221.367 27.928C221.623 28.248 221.932 28.4987 222.295 28.68C222.658 28.8507 223.068 28.936 223.527 28.936C223.975 28.936 224.348 28.8933 224.647 28.808C224.956 28.7227 225.218 28.6267 225.431 28.52C225.57 28.456 225.698 28.4027 225.815 28.36C225.932 28.3173 226.05 28.296 226.167 28.296C226.498 28.296 226.748 28.3973 226.919 28.6C227.09 28.792 227.175 29.0427 227.175 29.352C227.175 29.5973 227.1 29.8267 226.951 30.04C226.802 30.2533 226.599 30.4347 226.343 30.584C226.012 30.776 225.607 30.9307 225.127 31.048C224.658 31.1653 224.151 31.224 223.607 31.224ZM229.044 31C228.724 31 228.452 30.8933 228.228 30.68C228.004 30.4667 227.892 30.1947 227.892 29.864V20.728C227.892 20.408 228.004 20.1413 228.228 19.928C228.452 19.7147 228.724 19.608 229.044 19.608H233.044C233.364 19.608 233.63 19.7093 233.844 19.912C234.057 20.104 234.164 20.36 234.164 20.68C234.164 21.0213 234.057 21.2827 233.844 21.464C233.63 21.6453 233.364 21.736 233.044 21.736H230.212V24.216H232.836C233.156 24.216 233.422 24.312 233.636 24.504C233.849 24.6853 233.956 24.9467 233.956 25.288C233.956 25.6187 233.854 25.88 233.652 26.072C233.449 26.2533 233.177 26.344 232.836 26.344H230.196V28.872H233.14C233.481 28.872 233.753 28.9627 233.956 29.144C234.169 29.3253 234.276 29.5867 234.276 29.928C234.276 30.248 234.169 30.5093 233.956 30.712C233.742 30.904 233.476 31 233.156 31H229.044ZM236.387 31C236.067 31 235.795 30.8933 235.571 30.68C235.347 30.4667 235.235 30.2 235.235 29.88V20.728C235.235 20.408 235.347 20.1413 235.571 19.928C235.795 19.7147 236.067 19.608 236.387 19.608H239.331C239.79 19.608 240.211 19.6773 240.595 19.816C240.979 19.9547 241.31 20.152 241.587 20.408C241.875 20.664 242.099 20.9733 242.259 21.336C242.419 21.6987 242.499 22.104 242.499 22.552C242.499 23.0427 242.377 23.48 242.131 23.864C241.897 24.2373 241.539 24.5307 241.059 24.744V24.792C241.785 24.9413 242.355 25.2507 242.771 25.72C243.198 26.1893 243.411 26.8133 243.411 27.592C243.411 28.1147 243.321 28.584 243.139 29C242.958 29.416 242.702 29.7733 242.371 30.072C242.041 30.3707 241.635 30.6 241.155 30.76C240.686 30.92 240.163 31 239.587 31H236.387ZM238.883 24.136C239.246 24.136 239.555 24.0293 239.811 23.816C240.067 23.6027 240.195 23.2933 240.195 22.888C240.195 22.4933 240.073 22.1893 239.827 21.976C239.582 21.7627 239.262 21.656 238.867 21.656H237.539V24.136H238.883ZM239.315 28.952C239.838 28.952 240.254 28.8347 240.563 28.6C240.873 28.3653 241.027 28.0187 241.027 27.56C241.027 27.112 240.857 26.7707 240.515 26.536C240.185 26.3013 239.779 26.184 239.299 26.184H237.539V28.952H239.315ZM249.684 31.224C248.862 31.224 248.116 31.08 247.444 30.792C246.772 30.504 246.196 30.0987 245.716 29.576C245.246 29.0533 244.884 28.4293 244.628 27.704C244.372 26.9787 244.244 26.1787 244.244 25.304C244.244 24.408 244.372 23.5973 244.628 22.872C244.894 22.136 245.268 21.512 245.748 21C246.228 20.488 246.798 20.0933 247.46 19.816C248.132 19.528 248.873 19.384 249.684 19.384C250.505 19.384 251.252 19.528 251.924 19.816C252.596 20.104 253.166 20.5093 253.636 21.032C254.116 21.544 254.484 22.1627 254.74 22.888C255.006 23.6133 255.14 24.4187 255.14 25.304C255.14 26.168 255.012 26.9627 254.756 27.688C254.51 28.4133 254.148 29.0373 253.668 29.56C253.198 30.0827 252.628 30.4933 251.956 30.792C251.284 31.08 250.526 31.224 249.684 31.224ZM249.7 29.096C250.18 29.096 250.601 29 250.964 28.808C251.337 28.616 251.646 28.3547 251.892 28.024C252.148 27.6827 252.34 27.2827 252.468 26.824C252.596 26.3653 252.66 25.864 252.66 25.32C252.66 24.776 252.596 24.2693 252.468 23.8C252.34 23.3307 252.148 22.9307 251.892 22.6C251.646 22.2587 251.337 21.992 250.964 21.8C250.59 21.608 250.158 21.512 249.668 21.512C249.209 21.512 248.798 21.6027 248.436 21.784C248.073 21.9653 247.764 22.2267 247.508 22.568C247.252 22.8987 247.054 23.2987 246.916 23.768C246.788 24.2267 246.724 24.7387 246.724 25.304C246.724 25.848 246.788 26.3547 246.916 26.824C247.054 27.2827 247.246 27.6827 247.492 28.024C247.748 28.3547 248.057 28.616 248.42 28.808C248.793 29 249.22 29.096 249.7 29.096ZM261.371 31.224C260.55 31.224 259.803 31.08 259.131 30.792C258.459 30.504 257.883 30.0987 257.403 29.576C256.934 29.0533 256.571 28.4293 256.315 27.704C256.059 26.9787 255.931 26.1787 255.931 25.304C255.931 24.408 256.059 23.5973 256.315 22.872C256.582 22.136 256.955 21.512 257.435 21C257.915 20.488 258.486 20.0933 259.147 19.816C259.819 19.528 260.561 19.384 261.371 19.384C262.193 19.384 262.939 19.528 263.611 19.816C264.283 20.104 264.854 20.5093 265.323 21.032C265.803 21.544 266.171 22.1627 266.427 22.888C266.694 23.6133 266.827 24.4187 266.827 25.304C266.827 26.168 266.699 26.9627 266.443 27.688C266.198 28.4133 265.835 29.0373 265.355 29.56C264.886 30.0827 264.315 30.4933 263.643 30.792C262.971 31.08 262.214 31.224 261.371 31.224ZM261.387 29.096C261.867 29.096 262.289 29 262.651 28.808C263.025 28.616 263.334 28.3547 263.579 28.024C263.835 27.6827 264.027 27.2827 264.155 26.824C264.283 26.3653 264.347 25.864 264.347 25.32C264.347 24.776 264.283 24.2693 264.155 23.8C264.027 23.3307 263.835 22.9307 263.579 22.6C263.334 22.2587 263.025 21.992 262.651 21.8C262.278 21.608 261.846 21.512 261.355 21.512C260.897 21.512 260.486 21.6027 260.123 21.784C259.761 21.9653 259.451 22.2267 259.195 22.568C258.939 22.8987 258.742 23.2987 258.603 23.768C258.475 24.2267 258.411 24.7387 258.411 25.304C258.411 25.848 258.475 26.3547 258.603 26.824C258.742 27.2827 258.934 27.6827 259.179 28.024C259.435 28.3547 259.745 28.616 260.107 28.808C260.481 29 260.907 29.096 261.387 29.096ZM269.075 31.096C268.733 31.096 268.456 30.9893 268.243 30.776C268.029 30.5627 267.923 30.2693 267.923 29.896V20.712C267.923 20.3387 268.029 20.0453 268.243 19.832C268.456 19.6187 268.733 19.512 269.075 19.512C269.427 19.512 269.704 19.6187 269.907 19.832C270.12 20.0453 270.227 20.3387 270.227 20.712V24.136L274.035 20.184C274.259 19.9493 274.451 19.7787 274.611 19.672C274.781 19.5653 274.984 19.512 275.219 19.512C275.357 19.512 275.496 19.544 275.635 19.608C275.773 19.6613 275.896 19.7413 276.003 19.848C276.109 19.944 276.195 20.0613 276.259 20.2C276.323 20.328 276.355 20.4613 276.355 20.6C276.355 20.792 276.296 20.9787 276.179 21.16C276.072 21.3307 275.939 21.4907 275.779 21.64L272.435 24.92L276.451 29.144C276.707 29.4 276.835 29.6773 276.835 29.976C276.835 30.3067 276.723 30.5787 276.499 30.792C276.275 30.9947 275.987 31.096 275.635 31.096C275.56 31.096 275.48 31.0853 275.395 31.064C275.309 31.0533 275.213 31.0213 275.107 30.968C275 30.904 274.877 30.808 274.739 30.68C274.6 30.552 274.429 30.376 274.227 30.152L270.227 25.848V29.896C270.227 30.2693 270.12 30.5627 269.907 30.776C269.704 30.9893 269.427 31.096 269.075 31.096Z" fill="white"/>
<path d="M40.8955 16H23.1039C22.4946 16 22 16.4936 22 17.1039V34.8955C22 35.5057 22.4946 36 23.1039 36H32.6823V28.2548H30.0761V25.236H32.6823V23.0098C32.6823 20.427 34.2594 19.0198 36.564 19.0198C37.6688 19.0198 38.6163 19.1025 38.8926 19.1384V21.8381L37.2941 21.8388C36.041 21.8388 35.7993 22.4345 35.7993 23.3082V25.235H38.7888L38.3979 28.2535H35.799V35.999H40.8951C41.505 35.999 42 35.5041 42 34.8955V17.1032C41.9997 16.4936 41.5054 16 40.8955 16Z" fill="white"/>
</svg>
