<svg width="291" height="52" viewBox="0 0 291 52" fill="none" xmlns="http://www.w3.org/2000/svg">
<rect width="291" height="52" fill="#3B5998"/>
<path d="M64.856 31C64.536 31 64.264 30.8933 64.04 30.68C63.816 30.4667 63.704 30.2 63.704 29.88V26.136H63.448C63.1173 26.136 62.8507 26.0773 62.648 25.96C62.4453 25.832 62.344 25.5867 62.344 25.224C62.344 24.9253 62.4293 24.7013 62.6 24.552C62.76 24.392 63.0427 24.312 63.448 24.312H63.704V20.728C63.704 20.408 63.816 20.1413 64.04 19.928C64.264 19.7147 64.536 19.608 64.856 19.608H68.008C68.7547 19.608 69.4427 19.752 70.072 20.04C70.7013 20.3173 71.2453 20.712 71.704 21.224C72.1627 21.7253 72.52 22.3227 72.776 23.016C73.032 23.6987 73.16 24.4453 73.16 25.256C73.16 26.184 73.016 27.0053 72.728 27.72C72.44 28.4347 72.056 29.0373 71.576 29.528C71.096 30.008 70.5467 30.376 69.928 30.632C69.3093 30.8773 68.664 31 67.992 31H64.856ZM67.624 28.872C68.5733 28.872 69.32 28.5627 69.864 27.944C70.408 27.3147 70.68 26.408 70.68 25.224C70.68 24.1253 70.4133 23.272 69.88 22.664C69.3467 22.0453 68.6267 21.736 67.72 21.736H66.008V24.312H67.56C67.816 24.312 68.024 24.3973 68.184 24.568C68.3547 24.728 68.44 24.9467 68.44 25.224C68.44 25.5013 68.3547 25.7253 68.184 25.896C68.024 26.056 67.816 26.136 67.56 26.136H66.008V28.872H67.624ZM78.258 18.904C77.938 18.904 77.6393 18.856 77.362 18.76C77.0847 18.664 76.8393 18.5307 76.626 18.36C76.4233 18.1893 76.2633 17.992 76.146 17.768C76.0287 17.544 75.97 17.2987 75.97 17.032C75.97 16.808 76.0233 16.6267 76.13 16.488C76.2473 16.3493 76.418 16.28 76.642 16.28C76.802 16.28 76.9353 16.3333 77.042 16.44C77.1487 16.5467 77.2447 16.7013 77.33 16.904C77.4367 17.1173 77.554 17.2827 77.682 17.4C77.8207 17.5173 78.0127 17.576 78.258 17.576C78.5033 17.576 78.6953 17.5173 78.834 17.4C78.9727 17.2827 79.09 17.1173 79.186 16.904C79.2713 16.7013 79.3673 16.5467 79.474 16.44C79.5807 16.3333 79.714 16.28 79.874 16.28C80.1087 16.28 80.2793 16.3493 80.386 16.488C80.4927 16.6267 80.546 16.808 80.546 17.032C80.546 17.2987 80.4873 17.544 80.37 17.768C80.2527 17.992 80.0873 18.1893 79.874 18.36C79.6713 18.5307 79.4313 18.664 79.154 18.76C78.8767 18.856 78.578 18.904 78.258 18.904ZM74.386 31.096C74.0447 31.096 73.7727 31.0107 73.57 30.84C73.378 30.6693 73.282 30.44 73.282 30.152C73.282 29.9173 73.3193 29.672 73.394 29.416C73.4793 29.1493 73.57 28.888 73.666 28.632L76.578 20.84C76.7593 20.36 76.978 19.9973 77.234 19.752C77.5007 19.5067 77.8473 19.384 78.274 19.384C78.6793 19.384 79.0153 19.5067 79.282 19.752C79.5487 19.9973 79.7727 20.36 79.954 20.84L82.898 28.744C82.9833 28.9573 83.058 29.1867 83.122 29.432C83.1967 29.6667 83.234 29.9067 83.234 30.152C83.234 30.44 83.1327 30.6693 82.93 30.84C82.738 31.0107 82.4767 31.096 82.146 31.096C81.7833 31.096 81.5167 31 81.346 30.808C81.1753 30.6053 81.0313 30.312 80.914 29.928L80.514 28.744H76.002L75.618 29.896C75.4687 30.3653 75.3033 30.6853 75.122 30.856C74.9407 31.016 74.6953 31.096 74.386 31.096ZM79.826 26.616L78.322 21.992H78.29L76.69 26.616H79.826ZM85.1216 31.096C84.7803 31.096 84.503 30.9893 84.2896 30.776C84.0763 30.5627 83.9696 30.2693 83.9696 29.896V20.696C83.9696 20.3333 84.0763 20.0453 84.2896 19.832C84.503 19.6187 84.7803 19.512 85.1216 19.512C85.399 19.512 85.6176 19.5707 85.7776 19.688C85.9376 19.8053 86.1083 19.976 86.2896 20.2L91.3616 26.808H91.3936V20.712C91.3936 20.3387 91.5003 20.0453 91.7136 19.832C91.927 19.6187 92.2043 19.512 92.5456 19.512C92.887 19.512 93.1643 19.6187 93.3776 19.832C93.591 20.0453 93.6976 20.3387 93.6976 20.712V29.896C93.6976 30.2693 93.591 30.5627 93.3776 30.776C93.175 30.9893 92.8976 31.096 92.5456 31.096C92.2896 31.096 92.071 31.032 91.8896 30.904C91.719 30.776 91.527 30.5733 91.3136 30.296L86.3056 23.768H86.2736V29.896C86.2736 30.2693 86.167 30.5627 85.9536 30.776C85.751 30.9893 85.4736 31.096 85.1216 31.096ZM100.342 31.224C99.4249 31.224 98.6196 31.064 97.9263 30.744C97.2329 30.424 96.6516 29.9973 96.1823 29.464C95.7236 28.92 95.3769 28.296 95.1423 27.592C94.9183 26.8773 94.8063 26.136 94.8063 25.368C94.8063 24.504 94.9396 23.704 95.2063 22.968C95.4836 22.232 95.8623 21.6027 96.3423 21.08C96.8223 20.5467 97.3983 20.1307 98.0703 19.832C98.7423 19.5333 99.4783 19.384 100.278 19.384C101.036 19.384 101.745 19.496 102.406 19.72C103.068 19.9333 103.59 20.2107 103.974 20.552C104.38 20.9253 104.582 21.32 104.582 21.736C104.582 22.0347 104.486 22.2747 104.294 22.456C104.113 22.6373 103.868 22.728 103.558 22.728C103.398 22.728 103.249 22.696 103.11 22.632C102.972 22.568 102.822 22.4827 102.662 22.376C102.342 22.1413 102.006 21.9387 101.654 21.768C101.313 21.5973 100.886 21.512 100.374 21.512C99.9156 21.512 99.4943 21.608 99.1102 21.8C98.7369 21.992 98.4116 22.2587 98.1343 22.6C97.8676 22.9413 97.6596 23.3413 97.5103 23.8C97.3609 24.2587 97.2863 24.76 97.2863 25.304C97.2863 25.8587 97.3556 26.3707 97.4943 26.84C97.6329 27.2987 97.8356 27.6987 98.1023 28.04C98.3689 28.3707 98.6889 28.632 99.0623 28.824C99.4463 29.0053 99.8783 29.096 100.358 29.096C101.094 29.096 101.702 28.8613 102.182 28.392C102.662 27.9227 102.929 27.272 102.982 26.44H101.35C101.009 26.44 100.737 26.3493 100.534 26.168C100.332 25.976 100.23 25.7147 100.23 25.384C100.23 25.0427 100.332 24.7813 100.534 24.6C100.737 24.408 101.004 24.312 101.334 24.312H104.102C104.486 24.312 104.79 24.4293 105.014 24.664C105.238 24.888 105.35 25.256 105.35 25.768C105.35 26.5787 105.228 27.32 104.982 27.992C104.748 28.664 104.406 29.24 103.958 29.72C103.521 30.2 102.993 30.5733 102.374 30.84C101.766 31.096 101.089 31.224 100.342 31.224ZM111.95 31.096C111.608 31.096 111.331 30.9893 111.118 30.776C110.904 30.5627 110.798 30.2693 110.798 29.896V20.712C110.798 20.3387 110.904 20.0453 111.118 19.832C111.331 19.6187 111.608 19.512 111.95 19.512C112.302 19.512 112.579 19.6187 112.782 19.832C112.995 20.0453 113.102 20.3387 113.102 20.712V24.136L116.91 20.184C117.134 19.9493 117.326 19.7787 117.486 19.672C117.656 19.5653 117.859 19.512 118.094 19.512C118.232 19.512 118.371 19.544 118.51 19.608C118.648 19.6613 118.771 19.7413 118.878 19.848C118.984 19.944 119.07 20.0613 119.134 20.2C119.198 20.328 119.23 20.4613 119.23 20.6C119.23 20.792 119.171 20.9787 119.054 21.16C118.947 21.3307 118.814 21.4907 118.654 21.64L115.31 24.92L119.326 29.144C119.582 29.4 119.71 29.6773 119.71 29.976C119.71 30.3067 119.598 30.5787 119.374 30.792C119.15 30.9947 118.862 31.096 118.51 31.096C118.435 31.096 118.355 31.0853 118.27 31.064C118.184 31.0533 118.088 31.0213 117.982 30.968C117.875 30.904 117.752 30.808 117.614 30.68C117.475 30.552 117.304 30.376 117.102 30.152L113.102 25.848V29.896C113.102 30.2693 112.995 30.5627 112.782 30.776C112.579 30.9893 112.302 31.096 111.95 31.096ZM123.058 18.776C122.813 18.776 122.621 18.7013 122.482 18.552C122.354 18.392 122.29 18.1947 122.29 17.96C122.29 17.8107 122.322 17.6827 122.386 17.576C122.45 17.4693 122.573 17.3733 122.754 17.288L124.674 16.472C124.77 16.4187 124.861 16.3867 124.946 16.376C125.042 16.3653 125.133 16.36 125.218 16.36C125.442 16.36 125.624 16.44 125.762 16.6C125.901 16.76 125.97 16.9467 125.97 17.16C125.97 17.3093 125.938 17.4427 125.874 17.56C125.81 17.6667 125.688 17.7573 125.506 17.832L123.746 18.584C123.533 18.68 123.378 18.7387 123.282 18.76C123.197 18.7707 123.122 18.776 123.058 18.776ZM124.114 31.096C123.773 31.096 123.496 30.9893 123.282 30.776C123.069 30.5627 122.962 30.2693 122.962 29.896V25.64L120.626 22.296C120.296 21.848 120.056 21.496 119.906 21.24C119.746 20.984 119.666 20.744 119.666 20.52C119.666 20.232 119.778 19.992 120.002 19.8C120.237 19.608 120.525 19.512 120.866 19.512C121.037 19.512 121.186 19.544 121.314 19.608C121.442 19.672 121.554 19.752 121.65 19.848C121.746 19.9333 121.832 20.0293 121.906 20.136C121.981 20.2427 122.05 20.3387 122.114 20.424L124.114 23.4L126.178 20.328C126.445 19.944 126.669 19.7147 126.85 19.64C127.032 19.5547 127.208 19.512 127.378 19.512C127.72 19.512 128.002 19.608 128.226 19.8C128.461 19.992 128.578 20.232 128.578 20.52C128.578 20.7333 128.509 20.9627 128.37 21.208C128.232 21.4427 127.997 21.784 127.666 22.232L125.266 25.64V29.896C125.266 30.2693 125.16 30.5627 124.946 30.776C124.744 30.9893 124.466 31.096 124.114 31.096ZM134.512 31C134.192 31 133.92 30.8933 133.696 30.68C133.472 30.4667 133.36 30.2 133.36 29.88V20.728C133.36 20.408 133.472 20.1413 133.696 19.928C133.92 19.7147 134.192 19.608 134.512 19.608H137.456C137.915 19.608 138.336 19.6773 138.72 19.816C139.104 19.9547 139.435 20.152 139.712 20.408C140 20.664 140.224 20.9733 140.384 21.336C140.544 21.6987 140.624 22.104 140.624 22.552C140.624 23.0427 140.502 23.48 140.256 23.864C140.022 24.2373 139.664 24.5307 139.184 24.744V24.792C139.91 24.9413 140.48 25.2507 140.896 25.72C141.323 26.1893 141.536 26.8133 141.536 27.592C141.536 28.1147 141.446 28.584 141.264 29C141.083 29.416 140.827 29.7733 140.496 30.072C140.166 30.3707 139.76 30.6 139.28 30.76C138.811 30.92 138.288 31 137.712 31H134.512ZM137.008 24.136C137.371 24.136 137.68 24.0293 137.936 23.816C138.192 23.6027 138.32 23.2933 138.32 22.888C138.32 22.4933 138.198 22.1893 137.952 21.976C137.707 21.7627 137.387 21.656 136.992 21.656H135.664V24.136H137.008ZM137.44 28.952C137.963 28.952 138.379 28.8347 138.688 28.6C138.998 28.3653 139.152 28.0187 139.152 27.56C139.152 27.112 138.982 26.7707 138.64 26.536C138.31 26.3013 137.904 26.184 137.424 26.184H135.664V28.952H137.44ZM147.281 16.088C147.206 16.088 147.126 16.0827 147.041 16.072C146.955 16.0507 146.806 15.992 146.593 15.896L144.833 15.144C144.651 15.0693 144.523 14.9787 144.449 14.872C144.385 14.7547 144.353 14.6213 144.353 14.472C144.353 14.2587 144.422 14.072 144.561 13.912C144.699 13.752 144.886 13.672 145.121 13.672C145.206 13.672 145.291 13.6773 145.377 13.688C145.462 13.6987 145.553 13.7307 145.649 13.784L147.569 14.6C147.75 14.6853 147.873 14.7813 147.937 14.888C148.001 14.9947 148.033 15.1227 148.033 15.272C148.033 15.5067 147.963 15.704 147.825 15.864C147.697 16.0133 147.515 16.088 147.281 16.088ZM146.977 18.904C146.657 18.904 146.358 18.856 146.081 18.76C145.803 18.664 145.558 18.5307 145.345 18.36C145.142 18.1893 144.982 17.992 144.865 17.768C144.747 17.544 144.689 17.2987 144.689 17.032C144.689 16.808 144.742 16.6267 144.849 16.488C144.966 16.3493 145.137 16.28 145.361 16.28C145.521 16.28 145.654 16.3333 145.761 16.44C145.867 16.5467 145.963 16.7013 146.049 16.904C146.155 17.1173 146.273 17.2827 146.401 17.4C146.539 17.5173 146.731 17.576 146.977 17.576C147.222 17.576 147.414 17.5173 147.553 17.4C147.691 17.2827 147.809 17.1173 147.905 16.904C147.99 16.7013 148.086 16.5467 148.193 16.44C148.299 16.3333 148.433 16.28 148.593 16.28C148.827 16.28 148.998 16.3493 149.105 16.488C149.211 16.6267 149.265 16.808 149.265 17.032C149.265 17.2987 149.206 17.544 149.089 17.768C148.971 17.992 148.806 18.1893 148.593 18.36C148.39 18.5307 148.15 18.664 147.873 18.76C147.595 18.856 147.297 18.904 146.977 18.904ZM143.105 31.096C142.763 31.096 142.491 31.0107 142.289 30.84C142.097 30.6693 142.001 30.44 142.001 30.152C142.001 29.9173 142.038 29.672 142.113 29.416C142.198 29.1493 142.289 28.888 142.385 28.632L145.297 20.84C145.478 20.36 145.697 19.9973 145.953 19.752C146.219 19.5067 146.566 19.384 146.993 19.384C147.398 19.384 147.734 19.5067 148.001 19.752C148.267 19.9973 148.491 20.36 148.673 20.84L151.617 28.744C151.702 28.9573 151.777 29.1867 151.841 29.432C151.915 29.6667 151.953 29.9067 151.953 30.152C151.953 30.44 151.851 30.6693 151.649 30.84C151.457 31.0107 151.195 31.096 150.865 31.096C150.502 31.096 150.235 31 150.065 30.808C149.894 30.6053 149.75 30.312 149.633 29.928L149.233 28.744H144.721L144.337 29.896C144.187 30.3653 144.022 30.6853 143.841 30.856C143.659 31.016 143.414 31.096 143.105 31.096ZM148.545 26.616L147.041 21.992H147.009L145.409 26.616H148.545ZM153.84 31.096C153.499 31.096 153.222 30.9893 153.008 30.776C152.795 30.5627 152.688 30.2693 152.688 29.896V20.696C152.688 20.3333 152.795 20.0453 153.008 19.832C153.222 19.6187 153.499 19.512 153.84 19.512C154.118 19.512 154.336 19.5707 154.496 19.688C154.656 19.8053 154.827 19.976 155.008 20.2L160.08 26.808H160.112V20.712C160.112 20.3387 160.219 20.0453 160.432 19.832C160.646 19.6187 160.923 19.512 161.264 19.512C161.606 19.512 161.883 19.6187 162.096 19.832C162.31 20.0453 162.416 20.3387 162.416 20.712V29.896C162.416 30.2693 162.31 30.5627 162.096 30.776C161.894 30.9893 161.616 31.096 161.264 31.096C161.008 31.096 160.79 31.032 160.608 30.904C160.438 30.776 160.246 30.5733 160.032 30.296L155.024 23.768H154.992V29.896C154.992 30.2693 154.886 30.5627 154.672 30.776C154.47 30.9893 154.192 31.096 153.84 31.096ZM169.061 31.224C168.144 31.224 167.338 31.064 166.645 30.744C165.952 30.424 165.37 29.9973 164.901 29.464C164.442 28.92 164.096 28.296 163.861 27.592C163.637 26.8773 163.525 26.136 163.525 25.368C163.525 24.504 163.658 23.704 163.925 22.968C164.202 22.232 164.581 21.6027 165.061 21.08C165.541 20.5467 166.117 20.1307 166.789 19.832C167.461 19.5333 168.197 19.384 168.997 19.384C169.754 19.384 170.464 19.496 171.125 19.72C171.786 19.9333 172.309 20.2107 172.693 20.552C173.098 20.9253 173.301 21.32 173.301 21.736C173.301 22.0347 173.205 22.2747 173.013 22.456C172.832 22.6373 172.586 22.728 172.277 22.728C172.117 22.728 171.968 22.696 171.829 22.632C171.69 22.568 171.541 22.4827 171.381 22.376C171.061 22.1413 170.725 21.9387 170.373 21.768C170.032 21.5973 169.605 21.512 169.093 21.512C168.634 21.512 168.213 21.608 167.829 21.8C167.456 21.992 167.13 22.2587 166.853 22.6C166.586 22.9413 166.378 23.3413 166.229 23.8C166.08 24.2587 166.005 24.76 166.005 25.304C166.005 25.8587 166.074 26.3707 166.213 26.84C166.352 27.2987 166.554 27.6987 166.821 28.04C167.088 28.3707 167.408 28.632 167.781 28.824C168.165 29.0053 168.597 29.096 169.077 29.096C169.813 29.096 170.421 28.8613 170.901 28.392C171.381 27.9227 171.648 27.272 171.701 26.44H170.069C169.728 26.44 169.456 26.3493 169.253 26.168C169.05 25.976 168.949 25.7147 168.949 25.384C168.949 25.0427 169.05 24.7813 169.253 24.6C169.456 24.408 169.722 24.312 170.053 24.312H172.821C173.205 24.312 173.509 24.4293 173.733 24.664C173.957 24.888 174.069 25.256 174.069 25.768C174.069 26.5787 173.946 27.32 173.701 27.992C173.466 28.664 173.125 29.24 172.677 29.72C172.24 30.2 171.712 30.5733 171.093 30.84C170.485 31.096 169.808 31.224 169.061 31.224ZM180.669 31.096C180.327 31.096 180.05 30.9893 179.837 30.776C179.623 30.5627 179.517 30.2693 179.517 29.896V20.744C179.517 20.4133 179.629 20.1413 179.853 19.928C180.087 19.7147 180.359 19.608 180.669 19.608H184.701C185.021 19.608 185.287 19.7093 185.501 19.912C185.714 20.104 185.821 20.36 185.821 20.68C185.821 21.0213 185.714 21.2827 185.501 21.464C185.287 21.6453 185.021 21.736 184.701 21.736H181.821V24.184H184.349C184.669 24.184 184.935 24.28 185.149 24.472C185.362 24.6533 185.469 24.9147 185.469 25.256C185.469 25.5973 185.362 25.864 185.149 26.056C184.935 26.2373 184.669 26.328 184.349 26.328H181.821V29.896C181.821 30.2693 181.714 30.5627 181.501 30.776C181.298 30.9893 181.021 31.096 180.669 31.096ZM186.058 31.096C185.717 31.096 185.445 31.0107 185.242 30.84C185.05 30.6693 184.954 30.44 184.954 30.152C184.954 29.9173 184.991 29.672 185.066 29.416C185.151 29.1493 185.242 28.888 185.338 28.632L188.25 20.84C188.431 20.36 188.65 19.9973 188.906 19.752C189.173 19.5067 189.519 19.384 189.946 19.384C190.351 19.384 190.687 19.5067 190.954 19.752C191.221 19.9973 191.445 20.36 191.626 20.84L194.57 28.744C194.655 28.9573 194.73 29.1867 194.794 29.432C194.869 29.6667 194.906 29.9067 194.906 30.152C194.906 30.44 194.805 30.6693 194.602 30.84C194.41 31.0107 194.149 31.096 193.818 31.096C193.455 31.096 193.189 31 193.018 30.808C192.847 30.6053 192.703 30.312 192.586 29.928L192.186 28.744H187.674L187.29 29.896C187.141 30.3653 186.975 30.6853 186.794 30.856C186.613 31.016 186.367 31.096 186.058 31.096ZM191.498 26.616L189.994 21.992H189.962L188.362 26.616H191.498ZM200.529 31.224C199.665 31.224 198.892 31.0747 198.209 30.776C197.526 30.4773 196.95 30.0667 196.481 29.544C196.012 29.0213 195.649 28.4027 195.393 27.688C195.148 26.9733 195.025 26.2053 195.025 25.384C195.025 24.5093 195.153 23.7093 195.409 22.984C195.665 22.248 196.033 21.6133 196.513 21.08C196.993 20.5467 197.569 20.1307 198.241 19.832C198.924 19.5333 199.686 19.384 200.529 19.384C201.052 19.384 201.526 19.4373 201.953 19.544C202.39 19.64 202.764 19.768 203.073 19.928C203.35 20.0773 203.569 20.264 203.729 20.488C203.889 20.7013 203.969 20.9307 203.969 21.176C203.969 21.4853 203.873 21.7467 203.681 21.96C203.489 22.1733 203.254 22.28 202.977 22.28C202.892 22.28 202.79 22.264 202.673 22.232C202.566 22.1893 202.449 22.1413 202.321 22.088C202.044 21.9493 201.761 21.832 201.473 21.736C201.185 21.64 200.881 21.592 200.561 21.592C200.081 21.592 199.654 21.688 199.281 21.88C198.908 22.0613 198.588 22.3227 198.321 22.664C198.054 22.9947 197.852 23.3893 197.713 23.848C197.574 24.296 197.505 24.792 197.505 25.336C197.505 25.8587 197.569 26.344 197.697 26.792C197.836 27.2293 198.033 27.608 198.289 27.928C198.545 28.248 198.854 28.4987 199.217 28.68C199.58 28.8507 199.99 28.936 200.449 28.936C200.897 28.936 201.27 28.8933 201.569 28.808C201.878 28.7227 202.14 28.6267 202.353 28.52C202.492 28.456 202.62 28.4027 202.737 28.36C202.854 28.3173 202.972 28.296 203.089 28.296C203.42 28.296 203.67 28.3973 203.841 28.6C204.012 28.792 204.097 29.0427 204.097 29.352C204.097 29.5973 204.022 29.8267 203.873 30.04C203.724 30.2533 203.521 30.4347 203.265 30.584C202.934 30.776 202.529 30.9307 202.049 31.048C201.58 31.1653 201.073 31.224 200.529 31.224ZM205.965 31C205.645 31 205.373 30.8933 205.149 30.68C204.925 30.4667 204.813 30.1947 204.813 29.864V20.728C204.813 20.408 204.925 20.1413 205.149 19.928C205.373 19.7147 205.645 19.608 205.965 19.608H209.965C210.285 19.608 210.552 19.7093 210.765 19.912C210.979 20.104 211.085 20.36 211.085 20.68C211.085 21.0213 210.979 21.2827 210.765 21.464C210.552 21.6453 210.285 21.736 209.965 21.736H207.133V24.216H209.757C210.077 24.216 210.344 24.312 210.557 24.504C210.771 24.6853 210.877 24.9467 210.877 25.288C210.877 25.6187 210.776 25.88 210.573 26.072C210.371 26.2533 210.099 26.344 209.757 26.344H207.117V28.872H210.061C210.403 28.872 210.675 28.9627 210.877 29.144C211.091 29.3253 211.197 29.5867 211.197 29.928C211.197 30.248 211.091 30.5093 210.877 30.712C210.664 30.904 210.397 31 210.077 31H205.965ZM213.309 31C212.989 31 212.717 30.8933 212.493 30.68C212.269 30.4667 212.157 30.2 212.157 29.88V20.728C212.157 20.408 212.269 20.1413 212.493 19.928C212.717 19.7147 212.989 19.608 213.309 19.608H216.253C216.712 19.608 217.133 19.6773 217.517 19.816C217.901 19.9547 218.232 20.152 218.509 20.408C218.797 20.664 219.021 20.9733 219.181 21.336C219.341 21.6987 219.421 22.104 219.421 22.552C219.421 23.0427 219.298 23.48 219.053 23.864C218.818 24.2373 218.461 24.5307 217.981 24.744V24.792C218.706 24.9413 219.277 25.2507 219.693 25.72C220.12 26.1893 220.333 26.8133 220.333 27.592C220.333 28.1147 220.242 28.584 220.061 29C219.88 29.416 219.624 29.7733 219.293 30.072C218.962 30.3707 218.557 30.6 218.077 30.76C217.608 30.92 217.085 31 216.509 31H213.309ZM215.805 24.136C216.168 24.136 216.477 24.0293 216.733 23.816C216.989 23.6027 217.117 23.2933 217.117 22.888C217.117 22.4933 216.994 22.1893 216.749 21.976C216.504 21.7627 216.184 21.656 215.789 21.656H214.461V24.136H215.805ZM216.237 28.952C216.76 28.952 217.176 28.8347 217.485 28.6C217.794 28.3653 217.949 28.0187 217.949 27.56C217.949 27.112 217.778 26.7707 217.437 26.536C217.106 26.3013 216.701 26.184 216.221 26.184H214.461V28.952H216.237ZM226.606 31.224C225.784 31.224 225.038 31.08 224.366 30.792C223.694 30.504 223.118 30.0987 222.638 29.576C222.168 29.0533 221.806 28.4293 221.55 27.704C221.294 26.9787 221.166 26.1787 221.166 25.304C221.166 24.408 221.294 23.5973 221.55 22.872C221.816 22.136 222.19 21.512 222.67 21C223.15 20.488 223.72 20.0933 224.382 19.816C225.054 19.528 225.795 19.384 226.606 19.384C227.427 19.384 228.174 19.528 228.846 19.816C229.518 20.104 230.088 20.5093 230.558 21.032C231.038 21.544 231.406 22.1627 231.662 22.888C231.928 23.6133 232.062 24.4187 232.062 25.304C232.062 26.168 231.934 26.9627 231.678 27.688C231.432 28.4133 231.07 29.0373 230.59 29.56C230.12 30.0827 229.55 30.4933 228.878 30.792C228.206 31.08 227.448 31.224 226.606 31.224ZM226.622 29.096C227.102 29.096 227.523 29 227.886 28.808C228.259 28.616 228.568 28.3547 228.814 28.024C229.07 27.6827 229.262 27.2827 229.39 26.824C229.518 26.3653 229.582 25.864 229.582 25.32C229.582 24.776 229.518 24.2693 229.39 23.8C229.262 23.3307 229.07 22.9307 228.814 22.6C228.568 22.2587 228.259 21.992 227.886 21.8C227.512 21.608 227.08 21.512 226.59 21.512C226.131 21.512 225.72 21.6027 225.358 21.784C224.995 21.9653 224.686 22.2267 224.43 22.568C224.174 22.8987 223.976 23.2987 223.838 23.768C223.71 24.2267 223.646 24.7387 223.646 25.304C223.646 25.848 223.71 26.3547 223.838 26.824C223.976 27.2827 224.168 27.6827 224.414 28.024C224.67 28.3547 224.979 28.616 225.342 28.808C225.715 29 226.142 29.096 226.622 29.096ZM238.293 31.224C237.472 31.224 236.725 31.08 236.053 30.792C235.381 30.504 234.805 30.0987 234.325 29.576C233.856 29.0533 233.493 28.4293 233.237 27.704C232.981 26.9787 232.853 26.1787 232.853 25.304C232.853 24.408 232.981 23.5973 233.237 22.872C233.504 22.136 233.877 21.512 234.357 21C234.837 20.488 235.408 20.0933 236.069 19.816C236.741 19.528 237.482 19.384 238.293 19.384C239.114 19.384 239.861 19.528 240.533 19.816C241.205 20.104 241.776 20.5093 242.245 21.032C242.725 21.544 243.093 22.1627 243.349 22.888C243.616 23.6133 243.749 24.4187 243.749 25.304C243.749 26.168 243.621 26.9627 243.365 27.688C243.12 28.4133 242.757 29.0373 242.277 29.56C241.808 30.0827 241.237 30.4933 240.565 30.792C239.893 31.08 239.136 31.224 238.293 31.224ZM238.309 29.096C238.789 29.096 239.21 29 239.573 28.808C239.946 28.616 240.256 28.3547 240.501 28.024C240.757 27.6827 240.949 27.2827 241.077 26.824C241.205 26.3653 241.269 25.864 241.269 25.32C241.269 24.776 241.205 24.2693 241.077 23.8C240.949 23.3307 240.757 22.9307 240.501 22.6C240.256 22.2587 239.946 21.992 239.573 21.8C239.2 21.608 238.768 21.512 238.277 21.512C237.818 21.512 237.408 21.6027 237.045 21.784C236.682 21.9653 236.373 22.2267 236.117 22.568C235.861 22.8987 235.664 23.2987 235.525 23.768C235.397 24.2267 235.333 24.7387 235.333 25.304C235.333 25.848 235.397 26.3547 235.525 26.824C235.664 27.2827 235.856 27.6827 236.101 28.024C236.357 28.3547 236.666 28.616 237.029 28.808C237.402 29 237.829 29.096 238.309 29.096ZM245.997 31.096C245.655 31.096 245.378 30.9893 245.165 30.776C244.951 30.5627 244.845 30.2693 244.845 29.896V20.712C244.845 20.3387 244.951 20.0453 245.165 19.832C245.378 19.6187 245.655 19.512 245.997 19.512C246.349 19.512 246.626 19.6187 246.829 19.832C247.042 20.0453 247.149 20.3387 247.149 20.712V24.136L250.957 20.184C251.181 19.9493 251.373 19.7787 251.533 19.672C251.703 19.5653 251.906 19.512 252.141 19.512C252.279 19.512 252.418 19.544 252.557 19.608C252.695 19.6613 252.818 19.7413 252.925 19.848C253.031 19.944 253.117 20.0613 253.181 20.2C253.245 20.328 253.277 20.4613 253.277 20.6C253.277 20.792 253.218 20.9787 253.101 21.16C252.994 21.3307 252.861 21.4907 252.701 21.64L249.357 24.92L253.373 29.144C253.629 29.4 253.757 29.6773 253.757 29.976C253.757 30.3067 253.645 30.5787 253.421 30.792C253.197 30.9947 252.909 31.096 252.557 31.096C252.482 31.096 252.402 31.0853 252.317 31.064C252.231 31.0533 252.135 31.0213 252.029 30.968C251.922 30.904 251.799 30.808 251.661 30.68C251.522 30.552 251.351 30.376 251.149 30.152L247.149 25.848V29.896C247.149 30.2693 247.042 30.5627 246.829 30.776C246.626 30.9893 246.349 31.096 245.997 31.096Z" fill="white"/>
<path d="M40.8955 16H23.1039C22.4946 16 22 16.4936 22 17.1039V34.8955C22 35.5057 22.4946 36 23.1039 36H32.6823V28.2548H30.0761V25.236H32.6823V23.0098C32.6823 20.427 34.2594 19.0198 36.564 19.0198C37.6688 19.0198 38.6163 19.1025 38.8926 19.1384V21.8381L37.2941 21.8388C36.041 21.8388 35.7993 22.4345 35.7993 23.3082V25.235H38.7888L38.3979 28.2535H35.799V35.999H40.8951C41.505 35.999 42 35.5041 42 34.8955V17.1032C41.9997 16.4936 41.5054 16 40.8955 16Z" fill="white"/>
</svg>
