<svg id="Capa_1" enable-background="new 0 0 512.063 512.063" height="512" viewBox="0 0 512.063 512.063" width="512" xmlns="http://www.w3.org/2000/svg"><path d="m362.698 482h-106.667l-10.666 8.667 10.666 21.333h106.667z" fill="#d8d8d8"/><path d="m149.364 482h106.667v30h-106.667z" fill="#e7e7e7"/><path d="m256.031 0-32 224 32 288.062 10.696-10.88c5.462-5.555 134.145-136.726 167.396-195.091 17.494-30.707 26.741-65.721 26.741-101.259 0-112.944-91.887-204.832-204.833-204.832z" fill="#06b24b"/><path d="m51.198 204.833c0 35.538 9.247 70.552 26.741 101.258 33.251 58.365 161.934 189.536 167.395 195.091l10.696 10.88v-512.062c-112.944 0-204.832 91.888-204.832 204.833z" fill="#1fbd66"/><path d="m256.031 55.333-21.333 149.333 21.333 149.334c82.474 0 149.333-66.859 149.333-149.333s-66.858-149.334-149.333-149.334z" fill="#d8d8d8"/><path d="m106.698 204.667c0 82.475 66.859 149.333 149.333 149.333v-298.667c-82.474 0-149.333 66.859-149.333 149.334z" fill="#e7e7e7"/><path d="m256.031 85.333-10.666 108.667 10.667 130c65.801 0 119.333-53.533 119.333-119.333s-53.533-119.334-119.334-119.334z" fill="#f7f0eb"/><path d="m136.698 204.667c0 65.8 53.532 119.333 119.333 119.333v-238.667c-65.801 0-119.333 53.533-119.333 119.334z" fill="#fffbf5"/><path d="m260.41 147.18-2 17.268 2 8.177c5.187 1.339 8.587 4.698 8.587 9.531 0 4.981-3.967 8.8-8.587 13.072l-3 17.595 3 7.355h14.155c0-14.636 26.09-18.295 26.09-43.113.001-18.942-16.67-29.392-40.245-29.885z" fill="#fc3636"/><path d="m278.542 245.473c0-9.385-7.475-16.384-18.132-16.386l-2 17.986 2 15.104c10.657-.002 18.132-7.478 18.132-16.704z" fill="#fc3636"/><g fill="#fc5b3f"><path d="m242.429 245.473c0 9.227 7.318 16.704 17.977 16.704h.004v-33.09c-.001 0-.003 0-.004 0-10.659 0-17.977 7-17.977 16.386z"/><path d="m211.407 170.701 23.704 12.727c4.136-7.159 11.295-11.454 19.886-11.454 1.952 0 3.77.226 5.413.65v-25.444c-.582-.012-1.164-.024-1.754-.024-23.386 0-38.817 9.387-47.249 23.545z"/><path d="m246.247 220.178h14.163v-24.95c-6.445 5.962-14.163 12.81-14.163 24.95z"/></g></svg>