<svg height="512" viewBox="0 0 64 64" width="512" xmlns="http://www.w3.org/2000/svg"><g id="Gift_Shop" data-name="Gift Shop"><path d="m58 35h-2a3.992 3.992 0 0 1 -3 3.87 3.657 3.657 0 0 1 -1 .13 4 4 0 0 1 -4-4v-4a13.836 13.836 0 0 0 -1.66-6.6c-.14-.26-.29-.52-.44-.77a14.06 14.06 0 0 0 -11.68-6.62.01.01 0 0 0 .01-.01h5.77a17.993 17.993 0 0 1 18 18z" fill="#3d9ae2"/><path d="m29.78 17.01a14.06 14.06 0 0 0 -11.68 6.62c-.15.25-.3.51-.44.77a13.836 13.836 0 0 0 -1.66 6.6v4a4 4 0 0 1 -4 4 3.657 3.657 0 0 1 -1-.13 3.992 3.992 0 0 1 -3-3.87h-2a18.015 18.015 0 0 1 18-18h5.77a.01.01 0 0 0 .01.01z" fill="#ff6243"/><path d="m53 38.87v20.13a2.006 2.006 0 0 1 -2 2h-38a2.006 2.006 0 0 1 -2-2v-20.13a3.657 3.657 0 0 0 1 .13 4 4 0 0 0 4-4 4 4 0 0 0 8 0 4 4 0 0 0 8 0 4 4 0 0 0 8 0 4 4 0 0 0 8 0 4 4 0 0 0 4 4 3.657 3.657 0 0 0 1-.13z" fill="#00ccb3"/><path d="m27 47v14h-10v-14a2.006 2.006 0 0 1 2-2h6a2.006 2.006 0 0 1 2 2z" fill="#96c8ef"/><rect fill="#96c8ef" height="8" rx="1" width="14" x="33" y="45"/><path d="m40 25v10a4 4 0 0 1 -8 0v-18a8.076 8.076 0 0 1 1.98.25 8 8 0 0 1 5.96 6.75 8.262 8.262 0 0 1 .06 1z" fill="#3d9ae2"/><path d="m32 17a7.992 7.992 0 0 0 -7.94 7 8.262 8.262 0 0 0 -.06 1v10a4 4 0 0 1 -8 0v-4a13.836 13.836 0 0 1 1.66-6.6c.14-.26.29-.52.44-.77a14.06 14.06 0 0 1 11.68-6.62 1.62 1.62 0 0 1 .22-.01z" fill="#3d9ae2"/><path d="m48 31v4a4 4 0 0 1 -8 0v-10a8.262 8.262 0 0 0 -.06-1 8 8 0 0 0 -5.96-6.75 8.076 8.076 0 0 0 -1.98-.25h2a1.62 1.62 0 0 1 .22.01 14.06 14.06 0 0 1 11.68 6.62c.15.25.3.51.44.77a13.836 13.836 0 0 1 1.66 6.6z" fill="#ff6243"/><path d="m32 17v18a4 4 0 0 1 -8 0v-10a8.262 8.262 0 0 1 .06-1 8.009 8.009 0 0 1 7.94-7z" fill="#ff6243"/><path d="m53 38.87v2a3.657 3.657 0 0 1 -1 .13 4 4 0 0 1 -4-4 4 4 0 0 1 -8 0 4 4 0 0 1 -8 0 4 4 0 0 1 -8 0 4 4 0 0 1 -8 0 4 4 0 0 1 -4 4 3.657 3.657 0 0 1 -1-.13v-2a3.657 3.657 0 0 0 1 .13 4 4 0 0 0 4-4 4 4 0 0 0 8 0 4 4 0 0 0 8 0 4 4 0 0 0 8 0 4 4 0 0 0 8 0 4 4 0 0 0 4 4 3.657 3.657 0 0 0 1-.13z" fill="#00b39d"/><g fill="#78b9eb"><path d="m27 48v4l-9 9h-1v-3z"/><path d="m27 54v3.5l-3.5 3.5h-3.5z"/><path d="m47 46-7 7h-4l8-8h2a1 1 0 0 1 1 1z"/><path d="m47 48v3.5l-1.5 1.5h-3.5z"/></g><path d="m22 27h2v2h-2z" fill="#1e81ce"/><path d="m24 27h8v2h-8z" fill="#ed1c24"/><path d="m40 27h2v2h-2z" fill="#ed1c24"/><path d="m32 27h8v2h-8z" fill="#1e81ce"/><path d="m37.12 3.88a3 3 0 0 1 -2.12 5.12h-3v-3a3 3 0 0 1 5.12-2.12z" fill="#ff6243"/><path d="m29 3a3 3 0 0 0 0 6h3v-3a3 3 0 0 0 -3-3z" fill="#ff6243"/><path d="m34 9v6h-4v-6h2z" fill="#ff5023"/><path d="m30 9v6h-8-2v-6h9z" fill="#ee8700"/><path d="m44 9v6h-2-8v-6h1z" fill="#ee8700"/><path d="m42 15v12h-20v-12h8 4z" fill="#ff9811"/><path d="m46 44h-12a2 2 0 0 0 -2 2v6a2 2 0 0 0 2 2h12a2 2 0 0 0 2-2v-6a2 2 0 0 0 -2-2zm-12 8v-6h12v6z"/><path d="m53.816 60a2.966 2.966 0 0 0 .184-1v-19.423a4.98 4.98 0 0 0 2.9-3.577h1.1a1 1 0 0 0 1-1 18.955 18.955 0 0 0 -16-18.747v-.253h1a1 1 0 0 0 1-1v-6a1 1 0 0 0 -1-1h-5.556a3.959 3.959 0 0 0 .556-2 3.983 3.983 0 0 0 -7-2.618 3.979 3.979 0 0 0 -6.444 4.618h-5.556a1 1 0 0 0 -1 1v6a1 1 0 0 0 1 1h1v.257a18.961 18.961 0 0 0 -16 18.743 1 1 0 0 0 1 1h1.1a4.977 4.977 0 0 0 2.9 3.581v19.419a2.966 2.966 0 0 0 .184 1h-6.184v2h56v-2zm-1.794-37.024a16.923 16.923 0 0 1 4.95 11.024h-.972a1 1 0 0 0 -1 1 2.994 2.994 0 0 1 -2.271 2.907 2.634 2.634 0 0 1 -.729.093 3 3 0 0 1 -3-3v-4a14.96 14.96 0 0 0 -6-11.962v-.763a17.087 17.087 0 0 1 9.022 4.701zm-30.022 5.024h1v7a3 3 0 0 1 -6 0v-4a12.97 12.97 0 0 1 4-9.348v5.348a1 1 0 0 0 1 1zm3 0h6v7a3 3 0 0 1 -6 0zm8 0h6v7a3 3 0 0 1 -6 0zm8 0h1a1 1 0 0 0 1-1v-5.348a12.97 12.97 0 0 1 4 9.348v4a3 3 0 0 1 -6 0zm2-14h-8v-4h8zm-10-4v4h-2v-4zm2-6a2 2 0 0 1 0 4h-2v-2a2 2 0 0 1 2-2zm-8 2a2 2 0 0 1 4 0v2h-2a2 2 0 0 1 -2-2zm-6 4h8v4h-8zm20 6v10h-18v-10zm-32 19a1 1 0 0 0 -1-1h-.971a16.965 16.965 0 0 1 13.971-15.722v.76a14.96 14.96 0 0 0 -6 11.962v4a3 3 0 0 1 -3 3 2.713 2.713 0 0 1 -.754-.1 2.987 2.987 0 0 1 -2.246-2.9zm17 25h-8v-13a1 1 0 0 1 1-1h6a1 1 0 0 1 1 1zm2 0v-13a3 3 0 0 0 -3-3h-6a3 3 0 0 0 -3 3v13h-3a1 1 0 0 1 -1-1v-19a4.982 4.982 0 0 0 4-2.031 4.954 4.954 0 0 0 8 0 4.954 4.954 0 0 0 8 0 4.954 4.954 0 0 0 8 0 4.954 4.954 0 0 0 8 0 4.982 4.982 0 0 0 4 2.031v19a1 1 0 0 1 -1 1z"/><path d="m23 51h2v4h-2z"/></g></svg>