<svg xmlns="http://www.w3.org/2000/svg" viewBox="0 0 159.59 122.12"><defs><style>.cls-1{fill:#00ae42;}</style></defs><title>logo-grabfood</title><g id="Layer_2" data-name="Layer 2"><g id="Layer_1-2" data-name="Layer 1"><path class="cls-1" d="M127,19.36V0h4V16.64A23.59,23.59,0,0,0,127,19.36Zm-6.9,5.83a32.76,32.76,0,0,1,4-4.2V0h-4Zm-46,15.4A19.79,19.79,0,0,0,93.73,60.2a14.4,14.4,0,0,0,6-1.25V55a16.38,16.38,0,0,1-6,1.24A15.85,15.85,0,0,1,78.08,40.59V37A15.86,15.86,0,0,1,93.72,21.36,15.54,15.54,0,0,1,109.36,37V60.19h4v-24a19.81,19.81,0,0,0-6.09-13.34A19.62,19.62,0,0,0,74.1,37Zm59.44-9.52A9.32,9.32,0,0,1,140,28.24,8.65,8.65,0,0,1,148.71,37v3.58A8.65,8.65,0,0,1,140,49.31a8.28,8.28,0,0,1-6.46-3.66,14.31,14.31,0,0,1-2.79-7.44l-3.21,3.93a15,15,0,0,0,4.42,7.91,12,12,0,0,0,8,3.24,12.74,12.74,0,0,0,12.72-12.73V37A12.93,12.93,0,0,0,140,24.27c-2.1,0-5.43.75-9.41,4.33v0c-1.07,1.06-3.57,3.56-5.09,5.35-2.56,2.79-6.27,7-9.44,11.22V51.4c3.51-4.52,5.54-7,8.84-10.87A121.7,121.7,0,0,1,133.54,31.07Zm-93.8-7.46v-4.7C36.15,17,32.22,16.13,27,16.13a20.83,20.83,0,0,0-14.17,5.48A17.8,17.8,0,0,0,6.9,34.73V36A18.5,18.5,0,0,0,25.25,54.6c8.22,0,11.6-2.7,12.46-3.55V39.12H24.28v4H34v6h0a21.42,21.42,0,0,1-8.71,1.54,14.14,14.14,0,0,1-10.16-4.23A14.61,14.61,0,0,1,10.88,36V34.73c0-7.93,7.4-14.62,16.15-14.63C33.08,20.1,36.66,21.09,39.74,23.61Zm28.94,4.66a8.78,8.78,0,0,1,3.8.74,23.54,23.54,0,0,1,1.74-3.48c-1.08-.78-3.65-1.24-5.54-1.24A12.44,12.44,0,0,0,56,37v23.2h4V37A8.35,8.35,0,0,1,68.68,28.27ZM0,34.73V36a25.48,25.48,0,0,0,7.37,18.1A25,25,0,0,0,25.25,61.5a27.67,27.67,0,0,0,14.37-3.67,16.9,16.9,0,0,0,5-4.22V32.22H24.27v4H40.63V52.38h0c-1.92,1.92-6.46,5.13-15.37,5.13A21,21,0,0,1,10.1,51.28,21.55,21.55,0,0,1,4,36V34.73a20.91,20.91,0,0,1,6.81-15.09A23.74,23.74,0,0,1,27,13.2c5.64,0,9.57.86,12.72,2.77V11.51c-3.28-1.4-7.21-2-12.72-2C12.37,9.49,0,21.05,0,34.73ZM106.45,60.2V37A12.72,12.72,0,0,0,81,37v3.57A12.89,12.89,0,0,0,93.73,53.3a10.1,10.1,0,0,0,6-1.76v-4.2a9.84,9.84,0,0,1-6,2A8.65,8.65,0,0,1,85,40.58V37a8.75,8.75,0,0,1,17.49,0V60.2ZM68.67,21.37a14.18,14.18,0,0,1,7.15,1.77,37.15,37.15,0,0,1,2.73-3c-2.23-1.7-6-2.76-9.88-2.76A19,19,0,0,0,49.06,37V60.21h4V37C53,27.8,59.46,21.37,68.67,21.37Zm85.12,1.79A19.5,19.5,0,0,0,140,17.37a18.77,18.77,0,0,0-9.67,2.81c-4.33,2.88-7.88,6-14.28,14.28V40.4c5.43-7.07,10.57-12.65,14.47-15.72A15.51,15.51,0,0,1,155.61,37v3.58A15.71,15.71,0,0,1,140,56.21,15.29,15.29,0,0,1,125.21,44.9l-2.8,3.4c2,6.84,9.42,11.89,17.57,11.89a19.79,19.79,0,0,0,19.61-19.63V37A19.5,19.5,0,0,0,153.79,23.16Z"/><path class="cls-1" d="M29.9,101.94H11.55v19.31h-9V71.79h29.2v8.37H11.55v13.4H29.9Z"/><path class="cls-1" d="M73.38,99.37v3.35c0,11.57-7.49,19.39-19.06,19.4s-19.07-7.82-19.07-19.39V99.38c0-11.57,7.5-19.23,19.07-19.23S73.38,87.8,73.38,99.37Zm-8.78,0c0-6.38-4.31-10.69-10.29-10.69S44,93,44,99.38v3.35c0,6.38,4.31,10.93,10.3,10.93s10.29-4.56,10.29-10.94Z"/><path class="cls-1" d="M115.34,99.35v3.36c0,11.57-7.5,19.39-19.07,19.39s-19.07-7.81-19.07-19.38V99.37c0-11.57,7.49-19.23,19.06-19.24S115.34,87.79,115.34,99.35Zm-8.77,0c0-6.38-4.31-10.69-10.3-10.69S86,93,86,99.36v3.36c0,6.38,4.31,10.92,10.29,10.92s10.29-4.55,10.29-10.93Z"/><path class="cls-1" d="M119.81,102.7c0,11.57,7.43,19.39,19,19.39s18.9-7.83,18.9-19.4V65.51h-8.78v37.17c0,6.39-4.14,10.86-10.13,10.86s-10.21-4.47-10.21-10.85V99.27c0-6.3,4.22-10.61,10.2-10.61s10.14,4,10.14,9.89V84.19c-1.28-1.92-5.35-4.07-10.14-4.07-11.57,0-19,7.67-19,19.15Z"/></g></g></svg>