<svg width="23" height="22" viewBox="0 0 23 22" fill="none" xmlns="http://www.w3.org/2000/svg">
<g clip-path="url(#clip0)">
<path d="M11.5 0.3125C5.15893 0.3125 0 4.99413 0 10.7485C0 16.5025 5.15893 21.1846 11.5 21.1846C17.8406 21.1846 23 16.5025 23 10.7485C23 4.99413 17.8415 0.3125 11.5 0.3125ZM14.3599 11.1159H12.489C12.489 13.8286 12.489 17.1675 12.489 17.1675H9.71659C9.71659 17.1675 9.71659 13.8609 9.71659 11.1159H8.39872V8.97711H9.71659V7.59368C9.71659 6.60287 10.2354 5.05466 12.5145 5.05466L14.5689 5.06181V7.138C14.5689 7.138 13.3205 7.138 13.0777 7.138C12.835 7.138 12.4899 7.24814 12.4899 7.72063V8.97753H14.6022L14.3599 11.1159Z" fill="white"/>
</g>
<defs>
<clipPath id="clip0">
<rect width="23" height="20.8721" fill="white" transform="translate(0 0.3125)"/>
</clipPath>
</defs>
</svg>
