<?xml version="1.0" standalone="no"?>
<!DOCTYPE svg PUBLIC "-//W3C//DTD SVG 1.1//EN" "http://www.w3.org/Graphics/SVG/1.1/DTD/svg11.dtd" >
<svg xmlns="http://www.w3.org/2000/svg" xmlns:xlink="http://www.w3.org/1999/xlink" version="1.1">
<metadata>
Created by FontForge 20170910 at Mon Jan 25 17:36:19 2016
 By Jimmy Wärting
Copyright \\\(C\\\)2015 Commercial Type.
</metadata>
<defs>
<font id="SanomatSansVN-Light" horiz-adv-x="400" >
  <font-face 
    font-family="Sanomat Sans VN Light"
    font-weight="300"
    font-stretch="normal"
    units-per-em="1000"
    panose-1="0 0 0 0 0 0 0 0 0 0"
    ascent="790"
    descent="-210"
    x-height="520"
    cap-height="705"
    bbox="-231 -221 1182 1091"
    underline-thickness="68"
    underline-position="-73"
    stemh="59"
    stemv="64"
    unicode-range="U+0020-FB04"
  />
<missing-glyph horiz-adv-x="500" 
 />
    <glyph glyph-name="f_f" unicode="ff" horiz-adv-x="569" 
d="M349 0v466h-195v-466h-65v466h-68v54h68v52c0 142 93 172 161 172c23 0 37 -3 44 -5v-52c-8 1 -21 3 -39 3c-49 0 -101 -25 -101 -121v-49h195v62c0 143 99 172 169 172c24 0 40 -2 49 -4v-52c-9 1 -20 2 -48 2c-48 0 -105 -24 -105 -121v-59h133v-54h-133v-466h-65z" />
    <glyph glyph-name="f_f_i" unicode="ffi" horiz-adv-x="773" 
d="M637 636v74h70v-74h-70zM639 0v520h65v-520h-65zM349 0v466h-195v-466h-65v466h-68v54h68v52c0 142 93 172 161 172c23 0 37 -3 44 -5v-52c-8 1 -21 3 -39 3c-49 0 -101 -25 -101 -121v-49h195v62c0 143 99 172 169 172c24 0 40 -2 49 -4v-52c-9 1 -20 2 -48 2
c-48 0 -105 -24 -105 -121v-59h133v-54h-133v-466h-65z" />
    <glyph glyph-name="f_f_l" unicode="ffl" horiz-adv-x="774" 
d="M639 0v733l65 17v-750h-65zM349 0v466h-195v-466h-65v466h-68v54h68v52c0 142 93 172 161 172c23 0 37 -3 44 -5v-52c-8 1 -21 3 -39 3c-49 0 -101 -25 -101 -121v-49h195v62c0 143 99 172 169 172c24 0 40 -2 49 -4v-52c-9 1 -20 2 -48 2c-48 0 -105 -24 -105 -121v-59
h133v-54h-133v-466h-65z" />
    <glyph glyph-name="f_i" unicode="fi" horiz-adv-x="514" 
d="M377 636v74h70v-74h-70zM380 0v520h64v-520h-64zM287 466h-133v-466h-65v466h-68v54h68v62c0 143 99 172 169 172c25 0 41 -2 49 -4v-52c-8 1 -20 2 -47 2c-48 0 -106 -24 -106 -121v-59h133v-54z" />
    <glyph glyph-name="f_l" unicode="fl" horiz-adv-x="514" 
d="M380 0v733l64 17v-750h-64zM287 466h-133v-466h-65v466h-68v54h68v62c0 143 99 172 169 172c25 0 41 -2 49 -4v-52c-8 1 -20 2 -47 2c-48 0 -106 -24 -106 -121v-59h133v-54z" />
    <glyph glyph-name=".notdef" horiz-adv-x="500" 
 />
    <glyph glyph-name="space" unicode=" " horiz-adv-x="232" 
 />
    <glyph glyph-name="exclam" unicode="!" horiz-adv-x="206" 
d="M79 190l-9 515h67l-9 -515h-49zM66 0v77h74v-77h-74z" />
    <glyph glyph-name="quotedbl" unicode="&#x22;" horiz-adv-x="266" 
d="M107 705l-10 -189h-47l-10 189h67zM226 705l-11 -189h-46l-10 189h67z" />
    <glyph glyph-name="numbersign" unicode="#" horiz-adv-x="516" 
d="M315 264l22 173h-134l-22 -173h134zM281 0l26 205h-134l-26 -205h-57l26 205h-105v59h113l22 173h-106v59h113l25 194h57l-25 -194h134l25 194h56l-25 -194h105v-59h-112l-22 -173h105v-59h-113l-26 -205h-56z" />
    <glyph glyph-name="dollar" unicode="$" horiz-adv-x="504" 
d="M107 521c0 -64 36 -100 122 -129l27 247h-9c-86 0 -140 -43 -140 -118zM241 46c95 0 157 52 157 132c0 77 -47 108 -129 135l-30 -267h2zM241 -10h-9l-14 -123h-48l14 126c-64 9 -111 30 -145 53v64l3 2c42 -30 88 -54 149 -63l31 280c-112 38 -179 89 -179 186
c0 116 93 180 202 180h18l9 86h48l-10 -90c47 -7 81 -21 112 -41v-60l-3 -2c-38 24 -70 40 -115 47l-28 -260c110 -36 188 -78 188 -193c0 -123 -96 -192 -223 -192z" />
    <glyph glyph-name="percent" unicode="%" horiz-adv-x="787" 
d="M188 354c-92 0 -160 68 -160 171c0 100 68 170 160 170c93 0 160 -70 160 -170c0 -103 -67 -171 -160 -171zM136 0l461 690h58l-461 -690h-58zM188 404c64 0 103 51 103 121c0 68 -39 120 -103 120c-63 0 -103 -52 -103 -120c0 -70 40 -121 103 -121zM599 -10
c-91 0 -160 68 -160 171c0 100 69 170 160 170c93 0 160 -70 160 -170c0 -103 -67 -171 -160 -171zM599 40c64 0 103 51 103 121c0 68 -39 120 -103 120c-63 0 -103 -52 -103 -120c0 -70 40 -121 103 -121z" />
    <glyph glyph-name="ampersand" unicode="&#x26;" horiz-adv-x="622" 
d="M526 0l-62 76c-44 -48 -103 -87 -199 -87c-145 0 -239 89 -239 221c0 99 57 175 153 211c-28 39 -45 77 -45 128c0 90 66 166 176 166c60 0 90 -11 127 -30v-58l-3 -1c-36 18 -69 32 -120 32c-70 0 -114 -42 -114 -107c0 -59 36 -103 91 -170c11 -14 93 -112 172 -206
c29 62 36 151 38 224h61c-1 -80 -10 -194 -57 -275l101 -120v-4h-80zM265 46c78 0 128 32 162 74c-55 66 -181 216 -196 235l-20 24c-73 -26 -117 -90 -117 -169c0 -96 66 -164 171 -164z" />
    <glyph glyph-name="quotesingle" unicode="'" horiz-adv-x="147" 
d="M107 705l-10 -189h-47l-10 189h67z" />
    <glyph glyph-name="parenleft" unicode="(" horiz-adv-x="301" 
d="M218 -170c-104 128 -170 277 -170 473s67 344 170 471h66c-96 -125 -168 -268 -168 -471s71 -346 168 -473h-66z" />
    <glyph glyph-name="parenright" unicode=")" horiz-adv-x="301" 
d="M17 -170c98 127 168 270 168 473s-71 346 -168 471h66c103 -127 170 -275 170 -471s-66 -345 -170 -473h-66z" />
    <glyph glyph-name="asterisk" unicode="*" horiz-adv-x="370" 
d="M312 458l-110 76l10 -133h-55l11 134l-111 -77l-26 47l119 58l-119 59l26 47l111 -77l-11 134h55l-10 -133l110 76l27 -47l-120 -59l120 -58z" />
    <glyph glyph-name="plus" unicode="+" horiz-adv-x="507" 
d="M225 128v191h-174v54h174v191h57v-191h174v-54h-174v-191h-57z" />
    <glyph glyph-name="comma" unicode="," horiz-adv-x="199" 
d="M35 -115l37 192h74v-6l-61 -186h-50z" />
    <glyph glyph-name="hyphen" unicode="-" horiz-adv-x="293" 
d="M39 265v61h216v-61h-216z" />
    <glyph glyph-name="period" unicode="." horiz-adv-x="198" 
d="M62 0v77h74v-77h-74z" />
    <glyph glyph-name="slash" unicode="/" horiz-adv-x="394" 
d="M302 774h62l-306 -944h-62z" />
    <glyph glyph-name="zero" unicode="0" horiz-adv-x="592" 
d="M296 -10c-152 0 -261 136 -261 355s109 350 261 350c153 0 261 -131 261 -350s-108 -355 -261 -355zM296 49c112 0 190 103 190 296s-78 291 -190 291c-111 0 -190 -98 -190 -291s79 -296 190 -296z" />
    <glyph glyph-name="one" unicode="1" horiz-adv-x="316" 
d="M223 0h-68v603l-132 -79l-3 2v61l180 107h23v-694z" />
    <glyph glyph-name="two" unicode="2" horiz-adv-x="461" 
d="M18 0v23l231 266c64 73 103 143 103 222c0 73 -43 126 -137 126c-75 0 -118 -19 -170 -51l-3 1v62c44 27 94 46 175 46c116 0 202 -68 202 -184c0 -95 -56 -177 -129 -265l-165 -189h301v-57h-408z" />
    <glyph glyph-name="three" unicode="3" horiz-adv-x="478" 
d="M220 -10c-94 0 -150 25 -191 51v66l3 2c52 -37 102 -60 186 -60c103 0 158 60 158 142c0 81 -52 138 -165 138h-77v60h73c101 0 144 57 144 128c0 79 -54 120 -140 120c-74 0 -112 -17 -162 -48l-3 2v61c42 25 88 43 167 43c113 0 203 -56 203 -177
c0 -77 -47 -132 -113 -156c83 -20 140 -75 140 -168c0 -125 -88 -204 -223 -204z" />
    <glyph glyph-name="four" unicode="4" horiz-adv-x="517" 
d="M337 230v322l-240 -322h240zM507 175h-102v-175h-68v175h-330v27l367 493h31v-465h102v-55z" />
    <glyph glyph-name="five" unicode="5" horiz-adv-x="463" 
d="M193 -10c-78 0 -134 22 -176 48v65l3 2c53 -36 101 -56 173 -56c112 0 168 65 168 158c0 96 -62 151 -173 151c-63 0 -101 -11 -134 -22l-4 2v351h344v-58h-285v-227c24 7 54 11 89 11c139 0 229 -80 229 -204c0 -133 -86 -221 -234 -221z" />
    <glyph glyph-name="six" unicode="6" horiz-adv-x="526" 
d="M499 209c0 -112 -72 -219 -217 -219c-162 0 -245 123 -245 331c0 251 131 374 287 374c51 0 96 -10 132 -32v-66l-4 -1c-31 24 -74 40 -128 40c-118 0 -213 -88 -220 -292c40 40 99 73 182 73c116 0 213 -74 213 -208zM282 49c105 0 148 77 148 160
c0 102 -63 153 -156 153c-73 0 -126 -27 -170 -66c6 -158 61 -247 178 -247z" />
    <glyph glyph-name="seven" unicode="7" horiz-adv-x="467" 
d="M176 0h-68c30 146 103 298 168 433l98 199h-356v57h441v-21l-123 -252c-68 -141 -135 -291 -160 -416z" />
    <glyph glyph-name="eight" unicode="8" horiz-adv-x="509" 
d="M259 -10c-137 0 -230 74 -230 187c0 93 75 147 149 176c-72 32 -128 87 -128 169c0 107 90 173 201 173c119 0 208 -60 208 -177c0 -78 -63 -131 -128 -160c88 -34 149 -86 149 -178c0 -120 -85 -190 -221 -190zM262 382l14 -5c73 33 119 78 119 140
c0 75 -58 122 -144 122c-84 0 -138 -48 -138 -116c0 -65 51 -109 149 -141zM259 48c100 0 156 50 156 128c0 72 -53 114 -164 151l-20 7c-71 -29 -136 -70 -136 -152c0 -83 62 -134 164 -134z" />
    <glyph glyph-name="nine" unicode="9" horiz-adv-x="526" 
d="M251 320c73 0 127 27 170 65c-4 160 -57 251 -173 251c-106 0 -153 -75 -153 -158c0 -104 59 -158 156 -158zM196 -10c-54 0 -99 10 -135 32v66l3 1c31 -24 75 -40 132 -40c128 0 218 75 225 290c-40 -40 -97 -74 -182 -74c-118 0 -212 73 -212 213c0 112 75 217 221 217
c160 0 241 -123 241 -330c0 -266 -126 -375 -293 -375z" />
    <glyph glyph-name="colon" unicode=":" horiz-adv-x="206" 
d="M66 367v77h74v-77h-74zM66 0v77h74v-77h-74z" />
    <glyph glyph-name="semicolon" unicode=";" horiz-adv-x="204" 
d="M69 367v77h74v-77h-74zM35 -115l37 192h74v-6l-61 -186h-50z" />
    <glyph glyph-name="less" unicode="&#x3c;" horiz-adv-x="507" 
d="M432 121l-373 204v41l373 203l2 -2v-63l-292 -159l292 -159v-63z" />
    <glyph glyph-name="equal" unicode="=" horiz-adv-x="505" 
d="M63 375v55h379v-55h-379zM63 194v55h379v-55h-379z" />
    <glyph glyph-name="greater" unicode="&#x3e;" horiz-adv-x="507" 
d="M75 121l-3 2v63l293 159l-293 159v63l3 2l373 -204v-40z" />
    <glyph glyph-name="question" unicode="?" horiz-adv-x="437" 
d="M41 667c39 29 91 48 161 48c104 0 185 -59 185 -171c0 -88 -40 -137 -99 -191c-43 -38 -72 -70 -72 -134v-29h-62v29c0 81 29 121 90 177c50 45 78 79 78 148c0 67 -44 112 -123 112c-62 0 -108 -19 -155 -53l-3 2v62zM148 0v77h74v-77h-74z" />
    <glyph glyph-name="at" unicode="@" horiz-adv-x="901" 
d="M467 -179c-274 0 -433 179 -433 410c0 273 190 459 439 459c244 0 394 -165 394 -394c0 -174 -97 -258 -196 -258c-62 0 -108 24 -121 77c-39 -52 -87 -79 -146 -79c-112 0 -171 85 -171 188c0 144 87 251 218 251c56 0 98 -26 128 -67l6 50h65l-35 -276
c-10 -76 21 -98 66 -98c58 0 133 56 133 212c0 212 -132 348 -342 348c-207 0 -385 -158 -385 -417c0 -204 139 -360 380 -360c86 0 145 17 198 45l2 -1v-48c-53 -28 -113 -42 -200 -42zM414 91c53 0 96 21 133 67c0 5 0 9 1 14l24 183c-32 44 -66 65 -120 65
c-94 0 -154 -80 -154 -196c0 -83 47 -133 116 -133z" />
    <glyph glyph-name="B" unicode="B" horiz-adv-x="589" 
d="M298 645h-150v-242h160c100 0 137 47 137 121c0 84 -51 121 -147 121zM311 346h-163v-286h165c113 0 171 43 171 142c0 92 -55 144 -173 144zM80 0v705h213c134 0 220 -55 220 -177c0 -67 -26 -127 -112 -148c106 -23 152 -98 152 -178c0 -128 -85 -202 -235 -202h-238z
" />
    <glyph glyph-name="C" unicode="C" horiz-adv-x="652" 
d="M404 -10c-214 0 -367 153 -367 365s155 360 365 360c91 0 139 -17 189 -41v-68l-3 -1c-48 30 -105 51 -186 51c-179 0 -294 -122 -294 -301c0 -181 116 -306 296 -306c94 0 152 26 205 69l3 -2v-68c-43 -30 -100 -58 -208 -58z" />
    <glyph glyph-name="D" unicode="D" horiz-adv-x="684" 
d="M235 646h-87v-587h87c200 0 341 68 341 288c0 217 -141 299 -341 299zM80 0v705h160c234 0 407 -111 407 -358s-173 -347 -407 -347h-160z" />
    <glyph glyph-name="E" unicode="E" horiz-adv-x="504" 
d="M80 0v705h370v-59h-302v-252h264v-58h-264v-277h302v-59h-370z" />
    <glyph glyph-name="F" unicode="F" horiz-adv-x="485" 
d="M417 318h-269v-318h-68v705h369v-59h-301v-270h269v-58z" />
    <glyph glyph-name="G" unicode="G" horiz-adv-x="688" 
d="M625 62c-58 -39 -130 -72 -228 -72c-225 0 -360 154 -360 365s152 360 363 360c92 0 143 -18 194 -43v-66l-3 -2c-48 30 -109 52 -191 52c-178 0 -292 -122 -292 -301c0 -178 100 -306 289 -306c62 0 115 15 162 42v220h-178v58h244v-307z" />
    <glyph glyph-name="H" unicode="H" horiz-adv-x="703" 
d="M555 0v327h-407v-327h-68v705h68v-318h407v318h68v-705h-68z" />
    <glyph glyph-name="I" unicode="I" horiz-adv-x="232" 
d="M82 0v705h68v-705h-68z" />
    <glyph glyph-name="J" unicode="J" horiz-adv-x="237" 
d="M-32 -171v60c84 19 120 56 120 163v653h67v-657c0 -148 -65 -198 -187 -219z" />
    <glyph glyph-name="K" unicode="K" horiz-adv-x="588" 
d="M492 0l-250 360l-94 -103v-257h-68v705h68v-367l328 367h73v-4s-195 -220 -260 -292l279 -405v-4h-76z" />
    <glyph glyph-name="L" unicode="L" horiz-adv-x="485" 
d="M80 0v705h68v-647h303v-58h-371z" />
    <glyph glyph-name="M" unicode="M" horiz-adv-x="812" 
d="M664 0v580l-250 -587h-19l-252 594v-587h-63v705h76l251 -586l250 586h75v-705h-68z" />
    <glyph glyph-name="N" unicode="N" horiz-adv-x="712" 
d="M631 -13h-22l-463 578v-565h-66v716h24l462 -574v563h65v-718z" />
    <glyph glyph-name="O" unicode="O" horiz-adv-x="769" 
d="M385 -10c-199 0 -348 158 -348 365s149 360 348 360s347 -153 347 -360s-148 -365 -347 -365zM385 49c162 0 276 124 276 306s-114 301 -276 301c-161 0 -277 -119 -277 -301s116 -306 277 -306z" />
    <glyph glyph-name="P" unicode="P" horiz-adv-x="549" 
d="M272 645h-124v-297h133c114 0 169 54 169 152c0 97 -58 145 -178 145zM290 291h-142v-291h-68v705h194c152 0 245 -71 245 -208c0 -136 -95 -206 -229 -206z" />
    <glyph glyph-name="Q" unicode="Q" horiz-adv-x="769" 
d="M604 -165c-149 0 -231 74 -263 158c-177 21 -304 171 -304 362c0 207 149 360 348 360s347 -153 347 -360c0 -197 -134 -350 -318 -364c26 -57 77 -101 193 -101c31 0 57 5 75 11l3 -3v-53c-11 -4 -41 -10 -81 -10zM385 49c170 0 276 122 276 306
c0 182 -114 301 -276 301c-161 0 -277 -119 -277 -301s116 -306 277 -306z" />
    <glyph glyph-name="R" unicode="R" horiz-adv-x="579" 
d="M270 645h-122v-288h137c108 0 166 53 166 148s-61 140 -181 140zM490 0l-206 300h-136v-300h-68v705h192c152 0 249 -68 249 -202c0 -109 -70 -173 -168 -191l213 -307v-5h-76z" />
    <glyph glyph-name="S" unicode="S" horiz-adv-x="502" 
d="M240 -10c-94 0 -159 27 -203 56v69l4 2c54 -41 111 -68 199 -68c96 0 155 52 155 134c0 76 -42 107 -136 142l-57 20c-96 34 -160 88 -160 187c0 116 93 183 201 183c84 0 134 -17 178 -45v-64l-3 -1c-53 34 -95 52 -172 52c-87 0 -138 -47 -138 -122
c0 -63 36 -101 114 -129l57 -20c107 -38 183 -84 183 -199c0 -126 -94 -197 -222 -197z" />
    <glyph glyph-name="T" unicode="T" horiz-adv-x="528" 
d="M512 646h-214v-646h-68v646h-215v59h497v-59z" />
    <glyph glyph-name="U" unicode="U" horiz-adv-x="674" 
d="M335 -10c-155 0 -264 94 -264 267v448h68v-446c0 -137 76 -210 196 -210c119 0 201 73 201 210v446h67v-448c0 -173 -113 -267 -268 -267z" />
    <glyph glyph-name="V" unicode="V" horiz-adv-x="615" 
d="M313 -10h-12l-287 711v4h70l226 -569l225 569h66v-4z" />
    <glyph glyph-name="W" unicode="W" horiz-adv-x="921" 
d="M641 -10l-182 482l-181 -482h-12l-251 711v4h70l192 -555l150 404l-56 147v4h70l205 -553l192 553h68v-4l-253 -711h-12z" />
    <glyph glyph-name="X" unicode="X" horiz-adv-x="596" 
d="M501 0l-208 318l-204 -318h-68v4l235 367l-217 330v4h73l187 -288l188 288h68v-4l-219 -337l239 -360v-4h-74z" />
    <glyph glyph-name="Y" unicode="Y" horiz-adv-x="556" 
d="M314 0h-68v296l-237 405v4h71l200 -347l200 347h67v-4l-233 -401v-300z" />
    <glyph glyph-name="Z" unicode="Z" horiz-adv-x="570" 
d="M532 0h-519v17l422 629h-374v59h477v-19l-420 -627h414v-59z" />
    <glyph glyph-name="bracketleft" unicode="[" horiz-adv-x="342" 
d="M83 -170v944h220v-54h-154v-836h154v-54h-220z" />
    <glyph glyph-name="backslash" unicode="\" horiz-adv-x="394" 
d="M89 774l306 -944h-62l-306 944h62z" />
    <glyph glyph-name="bracketright" unicode="]" horiz-adv-x="342" 
d="M39 -170v54h154v836h-154v54h220v-944h-220z" />
    <glyph glyph-name="asciicircum" unicode="^" horiz-adv-x="478" 
d="M96 411h-70l189 294h48l189 -294h-71l-142 224z" />
    <glyph glyph-name="underscore" unicode="_" horiz-adv-x="350" 
d="M-10 -134v51h370v-51h-370z" />
    <glyph glyph-name="grave" unicode="`" 
d="M201 606l-120 164h81l102 -164h-63z" />
    <glyph glyph-name="a" unicode="a" horiz-adv-x="489" 
d="M209 45c77 0 126 35 154 76v141l-119 -20c-97 -16 -148 -40 -148 -105c0 -58 41 -92 113 -92zM372 0l-6 68c-27 -40 -77 -78 -161 -78c-101 0 -175 50 -175 147c0 104 88 135 201 154l132 23v13c0 111 -48 146 -143 146c-58 0 -103 -13 -150 -41l-3 2v54
c40 28 92 42 158 42c126 0 202 -53 202 -197v-333h-55z" />
    <glyph glyph-name="b" unicode="b" horiz-adv-x="573" 
d="M298 -11c-73 0 -130 29 -171 83l-5 -72h-56v733l64 17v-300c41 49 99 81 173 81c138 0 238 -98 238 -262c0 -171 -99 -280 -243 -280zM295 45c101 0 182 75 182 224c0 142 -82 206 -179 206c-77 0 -127 -30 -168 -77v-279c41 -48 90 -74 165 -74z" />
    <glyph glyph-name="c" unicode="c" horiz-adv-x="484" 
d="M299 -10c-156 0 -268 107 -268 271c0 166 117 269 264 269c68 0 115 -15 143 -32v-58l-3 -2c-37 21 -83 36 -140 36c-110 0 -198 -77 -198 -213c0 -133 81 -215 201 -215c68 0 113 20 150 46l3 -2v-56c-30 -24 -77 -44 -152 -44z" />
    <glyph glyph-name="d" unicode="d" horiz-adv-x="572" 
d="M456 0l-9 76c-41 -53 -102 -87 -179 -87c-138 0 -237 98 -237 264c0 169 100 278 244 278c71 0 126 -27 167 -78v280l64 17v-750h-50zM273 45c78 0 128 29 169 76v281c-41 48 -90 73 -164 73c-100 0 -182 -75 -182 -222c0 -144 80 -208 177 -208z" />
    <glyph glyph-name="e" unicode="e" horiz-adv-x="520" 
d="M276 473c-94 0 -159 -58 -176 -156h322c-2 101 -56 156 -146 156zM477 36c-31 -19 -94 -46 -178 -46c-162 0 -268 102 -268 271c0 162 102 269 246 269c125 0 225 -78 211 -265h-393v-4c0 -139 80 -214 206 -214c75 0 134 26 172 51l4 -2v-60z" />
    <glyph glyph-name="f" unicode="f" horiz-adv-x="309" 
d="M287 466h-133v-466h-65v466h-68v54h68v62c0 143 99 172 169 172c25 0 41 -2 49 -4v-52c-8 1 -20 2 -47 2c-48 0 -106 -24 -106 -121v-59h133v-54z" />
    <glyph glyph-name="g" unicode="g" horiz-adv-x="482" 
d="M230 226c71 0 129 49 129 126c0 80 -58 127 -129 127c-74 0 -129 -47 -129 -127c0 -77 57 -126 129 -126zM235 -218c-137 0 -226 45 -226 134c0 32 14 56 28 69h54l2 -2c-12 -14 -23 -34 -23 -62c0 -58 57 -88 165 -88c119 0 178 51 178 115c0 52 -33 66 -94 69l-146 7
c-79 3 -114 37 -114 90c0 43 24 73 65 93c-51 28 -85 79 -85 145c0 108 83 176 190 176c24 0 49 -5 71 -14l163 10v-53h-103c33 -24 59 -64 59 -119c0 -107 -86 -172 -190 -172c-20 0 -40 3 -59 8c-39 -14 -55 -32 -55 -62c0 -28 21 -39 66 -41l144 -6
c93 -5 151 -37 151 -129c0 -99 -89 -168 -241 -168z" />
    <glyph glyph-name="h" unicode="h" horiz-adv-x="532" 
d="M286 476c-62 0 -111 -23 -156 -57v-419h-64v733l64 17v-287c44 36 98 67 171 67c106 0 169 -58 169 -167v-363h-64v350c0 95 -52 126 -120 126z" />
    <glyph glyph-name="i" unicode="i" horiz-adv-x="203" 
d="M67 636v74h69v-74h-69zM69 0v520h65v-520h-65z" />
    <glyph glyph-name="j" unicode="j" horiz-adv-x="197" 
d="M64 636v74h69v-74h-69zM-25 -219v57c58 6 91 34 91 129v553h65v-556c0 -127 -57 -177 -156 -183z" />
    <glyph glyph-name="k" unicode="k" horiz-adv-x="477" 
d="M392 0l-193 264l-69 -75v-189h-64v733l64 17v-488l237 258h72v-4l-195 -208l217 -303v-5h-69z" />
    <glyph glyph-name="l" unicode="l" horiz-adv-x="204" 
d="M70 0v733l64 17v-750h-64z" />
    <glyph glyph-name="m" unicode="m" horiz-adv-x="829" 
d="M276 476c-60 0 -104 -23 -146 -57v-419h-64v520h56l6 -58c42 36 92 68 164 68c66 0 116 -29 140 -81c47 44 100 81 178 81c95 0 158 -58 158 -164v-366h-65v353c0 92 -50 123 -108 123c-61 0 -104 -21 -148 -58l2 -2v-416h-65v358c0 88 -50 118 -108 118z" />
    <glyph glyph-name="n" unicode="n" horiz-adv-x="532" 
d="M286 476c-62 0 -111 -23 -156 -57v-419h-64v520h56l6 -59c44 37 99 69 173 69c106 0 169 -58 169 -167v-363h-64v350c0 95 -52 126 -120 126z" />
    <glyph glyph-name="o" unicode="o" horiz-adv-x="587" 
d="M293 -10c-149 0 -262 107 -262 271s113 269 262 269c148 0 263 -105 263 -269s-115 -271 -263 -271zM293 46c113 0 198 82 198 215c0 131 -85 213 -198 213s-197 -82 -197 -213c0 -133 84 -215 197 -215z" />
    <glyph glyph-name="p" unicode="p" horiz-adv-x="573" 
d="M295 45c102 0 182 75 182 224c0 142 -82 206 -179 206c-76 0 -126 -29 -167 -76v-281c41 -48 90 -73 164 -73zM298 -11c-71 0 -126 27 -167 78v-277h-65v730h57l6 -72c41 51 99 83 174 83c138 0 238 -98 238 -262c0 -171 -98 -280 -243 -280z" />
    <glyph glyph-name="q" unicode="q" horiz-adv-x="572" 
d="M506 -210h-64v279c-42 -49 -100 -80 -174 -80c-138 0 -237 98 -237 264c0 169 100 278 244 278c73 0 129 -29 170 -81l6 70h55v-730zM273 45c78 0 128 29 169 76v281c-41 48 -90 73 -164 73c-101 0 -182 -75 -182 -222c0 -144 80 -208 177 -208z" />
    <glyph glyph-name="r" unicode="r" horiz-adv-x="333" 
d="M130 0h-64v520h56l7 -72c31 47 80 79 144 79c16 0 26 -1 42 -4v-58l-4 -3c-11 3 -25 6 -38 6c-69 0 -112 -27 -143 -75v-393z" />
    <glyph glyph-name="s" unicode="s" horiz-adv-x="419" 
d="M201 -8c-81 0 -134 22 -171 48v64l3 2c45 -36 95 -59 168 -59c74 0 121 34 121 92c0 56 -33 76 -102 96l-50 16c-82 24 -133 65 -133 141c0 86 72 140 174 140c66 0 110 -13 146 -33v-57l-3 -2c-40 23 -88 37 -145 37c-72 0 -107 -33 -107 -80c0 -49 31 -71 85 -88
l51 -15c98 -29 149 -59 149 -150c0 -102 -88 -152 -186 -152z" />
    <glyph glyph-name="t" unicode="t" horiz-adv-x="341" 
d="M310 5c-20 -7 -49 -13 -80 -13c-70 0 -132 33 -132 120v354h-72v54h72v94l65 11v-105h135v-54h-135v-347c0 -52 31 -72 80 -72c21 0 45 4 64 10l3 -2v-50z" />
    <glyph glyph-name="u" unicode="u" horiz-adv-x="536" 
d="M414 0l-6 59c-45 -37 -102 -69 -176 -69c-106 0 -172 56 -172 164v366h64v-353c0 -94 55 -123 123 -123c62 0 113 22 159 57v419h64v-520h-56z" />
    <glyph glyph-name="v" unicode="v" horiz-adv-x="489" 
d="M254 -8h-15l-231 524v4h66l173 -400l172 400h62v-4z" />
    <glyph glyph-name="w" unicode="w" horiz-adv-x="705" 
d="M507 -10l-155 407l-152 -407h-15l-172 526v4h67l119 -384l145 389h19l145 -390l119 385h65v-4l-170 -526h-15z" />
    <glyph glyph-name="x" unicode="x" horiz-adv-x="474" 
d="M387 0l-155 223l-153 -223h-63v4l182 266l-174 246v4h71l142 -203l139 203h63v-4l-169 -248l189 -264v-4h-72z" />
    <glyph glyph-name="y" unicode="y" horiz-adv-x="485" 
d="M48 -219v59c74 10 111 45 138 111l28 72l-206 493v4h68l172 -422l164 422h65v-4l-230 -579c-41 -102 -98 -148 -199 -156z" />
    <glyph glyph-name="z" unicode="z" horiz-adv-x="453" 
d="M419 0h-398v17l309 449h-274v54h372v-16l-311 -450h302v-54z" />
    <glyph glyph-name="braceleft" unicode="{" horiz-adv-x="356" 
d="M323 -170c-131 0 -231 47 -200 185l33 146c18 78 -20 114 -125 115v53c105 2 143 37 125 115l-33 144c-32 139 69 186 200 186v-51c-107 0 -160 -35 -135 -143l33 -139c19 -77 -10 -118 -93 -138c83 -21 112 -62 93 -139l-33 -141c-25 -107 28 -142 135 -142v-51z" />
    <glyph glyph-name="bar" unicode="|" horiz-adv-x="222" 
d="M82 -170v944h58v-944h-58z" />
    <glyph glyph-name="braceright" unicode="}" horiz-adv-x="356" 
d="M33 -170v51c107 0 160 35 135 142l-33 141c-18 77 10 118 93 139c-83 20 -111 61 -93 138l33 139c25 108 -28 143 -135 143v51c131 0 232 -47 200 -186l-33 -144c-18 -78 21 -113 125 -115v-53c-105 -1 -143 -37 -125 -115l33 -146c32 -138 -69 -185 -200 -185z" />
    <glyph glyph-name="asciitilde" unicode="~" 
d="M352 369v-59c-17 -27 -47 -46 -86 -46c-64 0 -92 36 -135 36c-33 0 -55 -13 -79 -45l-4 1v59c17 28 47 45 86 45c64 0 92 -35 139 -35c29 0 51 12 75 46z" />
    <glyph glyph-name="uni00A0" unicode="&#xa0;" horiz-adv-x="232" 
 />
    <glyph glyph-name="exclamdown" unicode="&#xa1;" horiz-adv-x="206" 
d="M140 570v-77h-74v77h74zM127 380l9 -515h-67l9 515h49z" />
    <glyph glyph-name="cent" unicode="&#xa2;" horiz-adv-x="481" 
d="M95 261c0 -110 55 -186 142 -208l46 421c-105 -5 -188 -81 -188 -213zM297 -10h-19l-11 -103h-48l12 110c-121 26 -202 124 -202 264c0 166 117 269 261 269l8 77h48l-9 -79c45 -5 78 -17 99 -30v-58l-4 -2c-28 16 -61 29 -101 34l-46 -426h10c68 0 114 20 151 46l3 -2
v-56c-30 -24 -77 -44 -152 -44z" />
    <glyph glyph-name="sterling" unicode="&#xa3;" horiz-adv-x="497" 
d="M474 57v-57h-462v27c73 61 91 105 107 203l12 70h-68v51h77l26 155c26 151 97 189 185 189c46 0 77 -8 113 -28v-60l-3 -1c-39 22 -68 31 -110 31c-59 0 -100 -27 -119 -136l-26 -150h165v-51h-173l-10 -57c-15 -85 -22 -129 -82 -186h368z" />
    <glyph glyph-name="yen" unicode="&#xa5;" horiz-adv-x="532" 
d="M468 152h-166v-152h-68v152h-166v47h166v80h-166v47h162l-206 360v4h71l171 -313l175 313h67v-4l-204 -360h164v-47h-166v-80h166v-47z" />
    <glyph glyph-name="brokenbar" unicode="&#xa6;" horiz-adv-x="222" 
d="M82 361v413h58v-413h-58zM82 -170v434h58v-434h-58z" />
    <glyph glyph-name="section" unicode="&#xa7;" horiz-adv-x="479" 
d="M213 -139c-72 0 -119 19 -150 41v62l3 1c38 -29 80 -48 145 -48c79 0 120 37 120 94c0 48 -31 74 -81 103l-96 57c-68 41 -125 85 -125 167c0 66 51 109 117 127c-37 33 -53 68 -53 112c0 82 63 140 167 140c60 0 102 -13 130 -31v-58l-3 -1c-37 22 -73 35 -127 35
c-72 0 -105 -36 -105 -83c0 -44 24 -72 86 -109l78 -45c74 -43 131 -79 131 -165c0 -70 -57 -110 -112 -132c40 -31 58 -61 58 -114c0 -100 -78 -153 -183 -153zM271 172l26 -16c49 21 89 52 89 101c0 58 -43 83 -90 111l-77 45c-15 9 -28 17 -40 26
c-55 -18 -88 -51 -88 -97c0 -55 35 -84 84 -113z" />
    <glyph glyph-name="dieresis" unicode="&#xa8;" 
d="M81 637v74h70v-74h-70zM249 637v74h70v-74h-70z" />
    <glyph glyph-name="copyright" unicode="&#xa9;" horiz-adv-x="795" 
d="M38 352c0 213 157 365 360 365s360 -152 360 -365c0 -211 -157 -364 -360 -364s-360 153 -360 364zM713 352c0 188 -134 326 -315 326c-180 0 -316 -138 -316 -326c0 -185 136 -325 316 -325c181 0 315 140 315 325zM413 156c-115 0 -198 81 -198 200
c0 121 86 200 194 200c55 0 92 -14 113 -28v-53h-2c-29 16 -67 29 -111 29c-74 0 -136 -55 -136 -148c0 -91 57 -150 138 -150c53 0 89 17 119 39l3 -2v-52c-23 -18 -60 -35 -120 -35z" />
    <glyph glyph-name="ordfeminine" unicode="&#xaa;" horiz-adv-x="424" 
d="M179 291c63 0 103 31 126 65v112l-96 -16c-78 -13 -122 -32 -122 -86c0 -47 33 -75 92 -75zM312 250l-5 56c-24 -33 -65 -64 -133 -64c-84 0 -146 40 -146 124c0 90 75 117 168 131l109 18v10c0 90 -37 117 -112 117c-51 0 -91 -9 -131 -33l-2 2v51c33 21 81 34 138 34
c106 0 169 -44 169 -166v-280h-55z" />
    <glyph glyph-name="guillemotleft" unicode="&#xab;" horiz-adv-x="378" 
d="M128 84l-111 176l111 176h65l-108 -176l108 -176h-65zM285 84l-111 176l111 176h65l-109 -176l109 -176h-65z" />
    <glyph glyph-name="registered" unicode="&#xae;" horiz-adv-x="587" 
d="M23 443c0 160 118 274 271 274c152 0 270 -114 270 -274c0 -159 -118 -274 -270 -274c-153 0 -271 115 -271 274zM522 443c0 136 -96 238 -228 238s-230 -102 -230 -238c0 -135 98 -238 230 -238s228 103 228 238zM289 544h-41v-89h44c36 0 54 16 54 46
c0 29 -17 43 -57 43zM360 308l-70 110h-42v-110h-45v274h87c69 0 102 -26 102 -82c0 -43 -21 -66 -58 -75l73 -115v-2h-47z" />
    <glyph glyph-name="macron" unicode="&#xaf;" 
d="M64 649v55h272v-55h-272z" />
    <glyph glyph-name="degree" unicode="&#xb0;" horiz-adv-x="404" 
d="M43 538c0 88 66 159 159 159s160 -71 160 -159c0 -87 -67 -159 -160 -159s-159 72 -159 159zM306 538c0 61 -41 110 -104 110c-62 0 -104 -49 -104 -110c0 -59 42 -108 104 -108c63 0 104 49 104 108z" />
    <glyph glyph-name="acute" unicode="&#xb4;" 
d="M199 606h-63l102 164h81z" />
    <glyph glyph-name="paragraph" unicode="&#xb6;" horiz-adv-x="540" 
d="M456 -130h-53v835h53v-835zM311 -130h-54v441h-13c-140 0 -210 71 -210 196c0 130 70 198 210 198h67v-835z" />
    <glyph glyph-name="periodcentered" unicode="&#xb7;" horiz-adv-x="198" 
d="M62 274v77h74v-77h-74z" />
    <glyph glyph-name="cedilla" unicode="&#xb8;" 
d="M109 -199v45l3 1c14 -7 36 -18 63 -18c31 0 50 16 50 42c0 30 -32 41 -75 46v87h50v-53c46 -9 85 -26 85 -82c0 -53 -39 -87 -102 -87c-37 0 -61 11 -74 19z" />
    <glyph glyph-name="ordmasculine" unicode="&#xba;" horiz-adv-x="489" 
d="M244 240c-125 0 -220 90 -220 229c0 137 95 227 220 227c124 0 220 -90 220 -227c0 -139 -96 -229 -220 -229zM244 294c91 0 160 68 160 175c0 106 -69 173 -160 173s-159 -67 -159 -173c0 -107 68 -175 159 -175z" />
    <glyph glyph-name="guillemotright" unicode="&#xbb;" horiz-adv-x="378" 
d="M28 84l108 176l-108 176h65l111 -176l-111 -176h-65zM185 84l108 176l-108 176h65l111 -176l-111 -176h-65z" />
    <glyph glyph-name="onequarter" unicode="&#xbc;" horiz-adv-x="716" 
d="M157 313h-56v311l-75 -42l-2 1v50l114 62h19v-382zM62 0l514 690h58l-514 -690h-58zM591 122v156l-117 -156h117zM699 79h-54v-79h-54v79h-184v23l211 281h27v-261h54v-43z" />
    <glyph glyph-name="onehalf" unicode="&#xbd;" horiz-adv-x="739" 
d="M157 313h-56v311l-75 -42l-2 1v50l114 62h19v-382zM463 0v19l128 141c34 37 56 72 56 111c0 38 -22 63 -72 63c-38 0 -63 -11 -91 -28l-2 2v47c24 15 55 26 102 26c74 0 120 -39 120 -105c0 -53 -31 -96 -71 -143l-83 -89h159v-44h-246zM62 0l514 690h58l-514 -690h-58z
" />
    <glyph glyph-name="threequarters" unicode="&#xbe;" horiz-adv-x="744" 
d="M90 0l514 690h58l-514 -690h-58zM619 122v156l-117 -156h117zM727 79h-54v-79h-54v79h-184v23l211 281h27v-261h54v-43zM130 307c-55 0 -87 16 -110 29v47l3 2c28 -19 55 -31 101 -31c52 0 80 28 80 68c0 38 -26 65 -81 65h-44v43h41c50 0 71 26 71 61
c0 38 -26 58 -72 58c-39 0 -61 -10 -87 -26l-2 2v45c23 14 50 24 98 24c67 0 120 -32 120 -97c0 -43 -25 -72 -64 -86c49 -11 77 -42 77 -92c0 -69 -49 -112 -131 -112z" />
    <glyph glyph-name="questiondown" unicode="&#xbf;" horiz-adv-x="437" 
d="M288 570v-77h-73v77h73zM396 -97c-39 -29 -91 -48 -161 -48c-104 0 -186 59 -186 171c0 88 41 137 100 191c42 38 72 70 72 134v29h62v-29c0 -81 -29 -121 -91 -177c-50 -45 -77 -79 -77 -148c0 -67 43 -112 122 -112c63 0 108 19 156 53l3 -2v-62z" />
    <glyph glyph-name="Agrave" unicode="&#xc0;" horiz-adv-x="621" 
d="M440 254l-131 320l-130 -320h261zM544 0l-80 196h-309l-80 -196h-67v4l297 710h11l298 -710v-4h-70zM285 764l-114 141h82l94 -141h-62z" />
    <glyph glyph-name="Aacute" unicode="&#xc1;" horiz-adv-x="621" 
d="M440 254l-131 320l-130 -320h261zM544 0l-80 196h-309l-80 -196h-67v4l297 710h11l298 -710v-4h-70zM340 764h-62l94 141h82z" />
    <glyph glyph-name="Acircumflex" unicode="&#xc2;" horiz-adv-x="621" 
d="M312 857l-90 -93h-64l121 144h64l121 -144h-64zM440 254l-131 320l-130 -320h261zM544 0l-80 196h-309l-80 -196h-67v4l297 710h11l298 -710v-4h-70z" />
    <glyph glyph-name="Atilde" unicode="&#xc3;" horiz-adv-x="621" 
d="M440 254l-131 320l-130 -320h261zM544 0l-80 196h-309l-80 -196h-67v4l297 710h11l298 -710v-4h-70zM374 828c26 0 47 12 68 40l4 -1l20 -42c-16 -27 -50 -53 -91 -53c-58 0 -87 31 -126 31c-30 0 -50 -10 -72 -39l-3 2l-19 45c19 27 55 49 94 49c53 0 81 -32 125 -32z
" />
    <glyph glyph-name="Adieresis" unicode="&#xc4;" horiz-adv-x="621" 
d="M440 254l-131 320l-130 -320h261zM544 0l-80 196h-309l-80 -196h-67v4l297 710h11l298 -710v-4h-70zM373 773v75h70v-75h-70zM179 773v75h70v-75h-70z" />
    <glyph glyph-name="Aring" unicode="&#xc5;" horiz-adv-x="621" 
d="M440 254l-131 320l-130 -320h261zM544 0l-80 196h-309l-80 -196h-67v4l297 710h11l298 -710v-4h-70zM311 749c-62 0 -105 42 -105 102c0 59 43 102 105 102s105 -43 105 -102c0 -60 -43 -102 -105 -102zM311 912c-35 0 -57 -26 -57 -61s22 -61 57 -61c36 0 58 26 58 61
s-22 61 -58 61z" />
    <glyph glyph-name="AE" unicode="&#xc6;" horiz-adv-x="871" 
d="M447 254v392h-6l-224 -392h230zM447 0v196h-264l-112 -196h-67v4l405 701h407v-59h-302v-252h264v-58h-264v-277h303v-59h-370z" />
    <glyph glyph-name="Ccedilla" unicode="&#xc7;" horiz-adv-x="652" 
d="M346 -218c-37 0 -61 11 -74 19v45l3 1c14 -7 36 -18 63 -18c31 0 50 16 50 42c0 30 -32 41 -75 46v83c-165 37 -276 174 -276 355c0 212 155 360 365 360c91 0 139 -17 189 -41v-68l-3 -1c-48 30 -105 51 -186 51c-179 0 -294 -122 -294 -301c0 -181 116 -306 296 -306
c94 0 152 26 205 69l3 -2v-68c-43 -30 -100 -58 -208 -58c-14 0 -28 1 -41 2v-41c46 -9 85 -26 85 -82c0 -53 -39 -87 -102 -87z" />
    <glyph glyph-name="Egrave" unicode="&#xc8;" horiz-adv-x="504" 
d="M241 764l-114 141h82l94 -141h-62zM80 0v705h370v-59h-302v-252h264v-58h-264v-277h302v-59h-370z" />
    <glyph glyph-name="Eacute" unicode="&#xc9;" horiz-adv-x="504" 
d="M296 764h-62l94 141h82zM80 0v705h370v-59h-302v-252h264v-58h-264v-277h302v-59h-370z" />
    <glyph glyph-name="Ecircumflex" unicode="&#xca;" horiz-adv-x="504" 
d="M268 857l-90 -93h-64l121 144h64l121 -144h-64zM80 0v705h370v-59h-302v-252h264v-58h-264v-277h302v-59h-370z" />
    <glyph glyph-name="Edieresis" unicode="&#xcb;" horiz-adv-x="504" 
d="M80 0v705h370v-59h-302v-252h264v-58h-264v-277h302v-59h-370zM329 773v75h70v-75h-70zM135 773v75h70v-75h-70z" />
    <glyph glyph-name="Igrave" unicode="&#xcc;" horiz-adv-x="232" 
d="M82 0v705h68v-705h-68zM90 764l-114 141h82l94 -141h-62z" />
    <glyph glyph-name="Iacute" unicode="&#xcd;" horiz-adv-x="232" 
d="M82 0v705h68v-705h-68zM145 764h-62l94 141h82z" />
    <glyph glyph-name="Icircumflex" unicode="&#xce;" horiz-adv-x="232" 
d="M82 0v705h68v-705h-68zM117 857l-90 -93h-64l121 144h64l121 -144h-64z" />
    <glyph glyph-name="Idieresis" unicode="&#xcf;" horiz-adv-x="232" 
d="M157 773v75h70v-75h-70zM6 773v75h69v-75h-69zM82 0v705h68v-705h-68z" />
    <glyph glyph-name="Eth" unicode="&#xd0;" horiz-adv-x="692" 
d="M368 334h-212v-275h87c200 0 342 68 342 288c0 217 -142 299 -342 299h-87v-257h212v-55zM88 0v334h-80v55h80v316h160c234 0 407 -111 407 -358s-173 -347 -407 -347h-160z" />
    <glyph glyph-name="Ntilde" unicode="&#xd1;" horiz-adv-x="712" 
d="M631 -13h-22l-463 578v-565h-66v716h24l462 -574v563h65v-718zM430 828c26 0 47 12 68 40l4 -1l20 -42c-16 -27 -50 -53 -91 -53c-58 0 -87 31 -126 31c-30 0 -50 -10 -72 -39l-3 2l-19 45c19 27 55 49 94 49c53 0 81 -32 125 -32z" />
    <glyph glyph-name="Ograve" unicode="&#xd2;" horiz-adv-x="769" 
d="M358 764l-114 141h82l94 -141h-62zM385 -10c-199 0 -348 158 -348 365s149 360 348 360s347 -153 347 -360s-148 -365 -347 -365zM385 49c162 0 276 124 276 306s-114 301 -276 301c-161 0 -277 -119 -277 -301s116 -306 277 -306z" />
    <glyph glyph-name="Oacute" unicode="&#xd3;" horiz-adv-x="769" 
d="M413 764h-62l94 141h82zM385 -10c-199 0 -348 158 -348 365s149 360 348 360s347 -153 347 -360s-148 -365 -347 -365zM385 49c162 0 276 124 276 306s-114 301 -276 301c-161 0 -277 -119 -277 -301s116 -306 277 -306z" />
    <glyph glyph-name="Ocircumflex" unicode="&#xd4;" horiz-adv-x="769" 
d="M385 857l-90 -93h-64l121 144h64l121 -144h-64zM385 -10c-199 0 -348 158 -348 365s149 360 348 360s347 -153 347 -360s-148 -365 -347 -365zM385 49c162 0 276 124 276 306s-114 301 -276 301c-161 0 -277 -119 -277 -301s116 -306 277 -306z" />
    <glyph glyph-name="Otilde" unicode="&#xd5;" horiz-adv-x="769" 
d="M448 828c26 0 47 12 68 40l4 -1l20 -42c-16 -27 -50 -53 -91 -53c-58 0 -87 31 -126 31c-30 0 -50 -10 -72 -39l-3 2l-19 45c19 27 55 49 94 49c53 0 81 -32 125 -32zM385 -10c-199 0 -348 158 -348 365s149 360 348 360s347 -153 347 -360s-148 -365 -347 -365zM385 49
c162 0 276 124 276 306s-114 301 -276 301c-161 0 -277 -119 -277 -301s116 -306 277 -306z" />
    <glyph glyph-name="Odieresis" unicode="&#xd6;" horiz-adv-x="769" 
d="M446 773v75h70v-75h-70zM252 773v75h70v-75h-70zM385 -10c-199 0 -348 158 -348 365s149 360 348 360s347 -153 347 -360s-148 -365 -347 -365zM385 49c162 0 276 124 276 306s-114 301 -276 301c-161 0 -277 -119 -277 -301s116 -306 277 -306z" />
    <glyph glyph-name="multiply" unicode="&#xd7;" horiz-adv-x="503" 
d="M405 153l-153 154l-155 -155l-39 41l154 154l-154 153l40 40l154 -153l153 153l39 -41l-152 -152l153 -154z" />
    <glyph glyph-name="Oslash" unicode="&#xd8;" horiz-adv-x="769" 
d="M108 355c0 -85 24 -157 66 -209l381 455c-45 35 -103 55 -170 55c-161 0 -277 -119 -277 -301zM385 49c162 0 276 124 276 306c0 86 -25 158 -68 209l-382 -456c47 -38 106 -59 174 -59zM385 -10c-81 0 -155 26 -212 72l-85 -101l-40 34l86 103c-61 65 -97 155 -97 257
c0 207 149 360 348 360c80 0 152 -25 209 -68l77 92l40 -34l-78 -93c62 -64 99 -154 99 -257c0 -207 -148 -365 -347 -365z" />
    <glyph glyph-name="Ugrave" unicode="&#xd9;" horiz-adv-x="674" 
d="M311 764l-114 141h82l94 -141h-62zM335 -10c-155 0 -264 94 -264 267v448h68v-446c0 -137 76 -210 196 -210c119 0 201 73 201 210v446h67v-448c0 -173 -113 -267 -268 -267z" />
    <glyph glyph-name="Uacute" unicode="&#xda;" horiz-adv-x="674" 
d="M366 764h-62l94 141h82zM335 -10c-155 0 -264 94 -264 267v448h68v-446c0 -137 76 -210 196 -210c119 0 201 73 201 210v446h67v-448c0 -173 -113 -267 -268 -267z" />
    <glyph glyph-name="Ucircumflex" unicode="&#xdb;" horiz-adv-x="674" 
d="M338 857l-90 -93h-64l121 144h64l121 -144h-64zM335 -10c-155 0 -264 94 -264 267v448h68v-446c0 -137 76 -210 196 -210c119 0 201 73 201 210v446h67v-448c0 -173 -113 -267 -268 -267z" />
    <glyph glyph-name="Udieresis" unicode="&#xdc;" horiz-adv-x="674" 
d="M335 -10c-155 0 -264 94 -264 267v448h68v-446c0 -137 76 -210 196 -210c119 0 201 73 201 210v446h67v-448c0 -173 -113 -267 -268 -267zM399 773v75h70v-75h-70zM205 773v75h70v-75h-70z" />
    <glyph glyph-name="Yacute" unicode="&#xdd;" horiz-adv-x="556" 
d="M314 0h-68v296l-237 405v4h71l200 -347l200 347h67v-4l-233 -401v-300zM309 764h-62l94 141h82z" />
    <glyph glyph-name="Thorn" unicode="&#xde;" horiz-adv-x="549" 
d="M285 496h-137v-268h146c110 0 155 49 155 137s-48 131 -164 131zM303 171h-155v-171h-68v705h68v-149h139c149 0 231 -66 231 -193s-84 -192 -215 -192z" />
    <glyph glyph-name="germandbls" unicode="&#xdf;" horiz-adv-x="535" 
d="M206 79l2 2c24 -16 60 -35 119 -35c66 0 120 32 120 99c0 115 -210 136 -210 232c0 89 150 114 150 219c0 61 -46 100 -118 100c-73 0 -139 -37 -139 -146v-550h-64v552c0 143 94 199 203 199c102 0 183 -59 183 -155c0 -122 -148 -164 -148 -213c0 -54 208 -89 208 -236
c0 -107 -77 -157 -175 -157c-66 0 -106 16 -131 32v57z" />
    <glyph glyph-name="agrave" unicode="&#xe0;" horiz-adv-x="489" 
d="M209 45c77 0 126 35 154 76v141l-119 -20c-97 -16 -148 -40 -148 -105c0 -58 41 -92 113 -92zM372 0l-6 68c-27 -40 -77 -78 -161 -78c-101 0 -175 50 -175 147c0 104 88 135 201 154l132 23v13c0 111 -48 146 -143 146c-58 0 -103 -13 -150 -41l-3 2v54
c40 28 92 42 158 42c126 0 202 -53 202 -197v-333h-55zM217 606l-120 164h81l102 -164h-63z" />
    <glyph glyph-name="aacute" unicode="&#xe1;" horiz-adv-x="489" 
d="M209 45c77 0 126 35 154 76v141l-119 -20c-97 -16 -148 -40 -148 -105c0 -58 41 -92 113 -92zM372 0l-6 68c-27 -40 -77 -78 -161 -78c-101 0 -175 50 -175 147c0 104 88 135 201 154l132 23v13c0 111 -48 146 -143 146c-58 0 -103 -13 -150 -41l-3 2v54
c40 28 92 42 158 42c126 0 202 -53 202 -197v-333h-55zM260 606h-63l102 164h81z" />
    <glyph glyph-name="acircumflex" unicode="&#xe2;" horiz-adv-x="489" 
d="M209 45c77 0 126 35 154 76v141l-119 -20c-97 -16 -148 -40 -148 -105c0 -58 41 -92 113 -92zM372 0l-6 68c-27 -40 -77 -78 -161 -78c-101 0 -175 50 -175 147c0 104 88 135 201 154l132 23v13c0 111 -48 146 -143 146c-58 0 -103 -13 -150 -41l-3 2v54
c40 28 92 42 158 42c126 0 202 -53 202 -197v-333h-55zM236 704l-85 -98h-62l116 147h64l116 -147h-62z" />
    <glyph glyph-name="atilde" unicode="&#xe3;" horiz-adv-x="489" 
d="M209 45c77 0 126 35 154 76v141l-119 -20c-97 -16 -148 -40 -148 -105c0 -58 41 -92 113 -92zM372 0l-6 68c-27 -40 -77 -78 -161 -78c-101 0 -175 50 -175 147c0 104 88 135 201 154l132 23v13c0 111 -48 146 -143 146c-58 0 -103 -13 -150 -41l-3 2v54
c40 28 92 42 158 42c126 0 202 -53 202 -197v-333h-55zM296 693c25 0 45 11 66 40l4 -2l21 -42c-17 -27 -49 -52 -90 -52c-58 0 -78 29 -118 29c-29 0 -47 -11 -69 -39l-3 1l-19 45c19 28 52 49 90 49c55 0 74 -29 118 -29z" />
    <glyph glyph-name="adieresis" unicode="&#xe4;" horiz-adv-x="489" 
d="M209 45c77 0 126 35 154 76v141l-119 -20c-97 -16 -148 -40 -148 -105c0 -58 41 -92 113 -92zM372 0l-6 68c-27 -40 -77 -78 -161 -78c-101 0 -175 50 -175 147c0 104 88 135 201 154l132 23v13c0 111 -48 146 -143 146c-58 0 -103 -13 -150 -41l-3 2v54
c40 28 92 42 158 42c126 0 202 -53 202 -197v-333h-55zM118 637v74h70v-74h-70zM286 637v74h70v-74h-70z" />
    <glyph glyph-name="aring" unicode="&#xe5;" horiz-adv-x="489" 
d="M209 45c77 0 126 35 154 76v141l-119 -20c-97 -16 -148 -40 -148 -105c0 -58 41 -92 113 -92zM372 0l-6 68c-27 -40 -77 -78 -161 -78c-101 0 -175 50 -175 147c0 104 88 135 201 154l132 23v13c0 111 -48 146 -143 146c-58 0 -103 -13 -150 -41l-3 2v54
c40 28 92 42 158 42c126 0 202 -53 202 -197v-333h-55zM237 589c-62 0 -105 43 -105 103c0 59 43 102 105 102s105 -43 105 -102c0 -60 -43 -103 -105 -103zM237 752c-35 0 -57 -25 -57 -60s22 -61 57 -61c36 0 58 26 58 61s-22 60 -58 60z" />
    <glyph glyph-name="ae" unicode="&#xe6;" horiz-adv-x="850" 
d="M607 473c-94 0 -158 -58 -175 -156h321c-2 101 -56 156 -146 156zM808 36c-30 -19 -94 -46 -178 -46c-95 0 -174 36 -221 105c-41 -62 -104 -105 -203 -105c-101 0 -174 51 -174 147c0 104 89 136 200 154l132 23v13c0 111 -47 146 -142 146c-59 0 -103 -13 -151 -41
l-3 2v54c41 28 92 42 159 42c96 0 161 -28 185 -111c39 70 108 111 196 111c125 0 225 -78 211 -265h-392v-4c0 -139 80 -214 205 -214c75 0 134 26 173 51l3 -2v-60zM210 45c87 0 146 43 169 110c-10 31 -16 67 -16 105l-117 -20c-96 -15 -149 -37 -149 -103
c0 -58 41 -92 113 -92z" />
    <glyph glyph-name="ccedilla" unicode="&#xe7;" horiz-adv-x="484" 
d="M247 -218c-37 0 -61 11 -74 19v45l3 1c14 -7 36 -18 63 -18c31 0 50 16 50 42c0 30 -32 41 -75 46v85c-110 31 -183 127 -183 259c0 166 117 269 264 269c68 0 115 -15 143 -32v-58l-3 -2c-37 21 -83 36 -140 36c-110 0 -198 -77 -198 -213c0 -133 81 -215 201 -215
c68 0 113 20 150 46l3 -2v-56c-30 -24 -77 -44 -152 -44c-12 0 -24 1 -35 2v-41c46 -9 85 -26 85 -82c0 -53 -39 -87 -102 -87z" />
    <glyph glyph-name="egrave" unicode="&#xe8;" horiz-adv-x="520" 
d="M276 473c-94 0 -159 -58 -176 -156h322c-2 101 -56 156 -146 156zM477 36c-31 -19 -94 -46 -178 -46c-162 0 -268 102 -268 271c0 162 102 269 246 269c125 0 225 -78 211 -265h-393v-4c0 -139 80 -214 206 -214c75 0 134 26 172 51l4 -2v-60zM250 606l-120 164h81
l102 -164h-63z" />
    <glyph glyph-name="eacute" unicode="&#xe9;" horiz-adv-x="520" 
d="M293 606h-63l102 164h81zM276 473c-94 0 -159 -58 -176 -156h322c-2 101 -56 156 -146 156zM477 36c-31 -19 -94 -46 -178 -46c-162 0 -268 102 -268 271c0 162 102 269 246 269c125 0 225 -78 211 -265h-393v-4c0 -139 80 -214 206 -214c75 0 134 26 172 51l4 -2v-60z
" />
    <glyph glyph-name="ecircumflex" unicode="&#xea;" horiz-adv-x="520" 
d="M269 704l-85 -98h-62l116 147h64l116 -147h-62zM276 473c-94 0 -159 -58 -176 -156h322c-2 101 -56 156 -146 156zM477 36c-31 -19 -94 -46 -178 -46c-162 0 -268 102 -268 271c0 162 102 269 246 269c125 0 225 -78 211 -265h-393v-4c0 -139 80 -214 206 -214
c75 0 134 26 172 51l4 -2v-60z" />
    <glyph glyph-name="edieresis" unicode="&#xeb;" horiz-adv-x="520" 
d="M151 637v74h70v-74h-70zM319 637v74h70v-74h-70zM276 473c-94 0 -159 -58 -176 -156h322c-2 101 -56 156 -146 156zM477 36c-31 -19 -94 -46 -178 -46c-162 0 -268 102 -268 271c0 162 102 269 246 269c125 0 225 -78 211 -265h-393v-4c0 -139 80 -214 206 -214
c75 0 134 26 172 51l4 -2v-60z" />
    <glyph glyph-name="igrave" unicode="&#xec;" horiz-adv-x="203" 
d="M69 0v520h65v-520h-65zM81 606l-120 164h81l102 -164h-63z" />
    <glyph glyph-name="iacute" unicode="&#xed;" horiz-adv-x="203" 
d="M125 606h-63l102 164h81zM69 0v520h65v-520h-65z" />
    <glyph glyph-name="icircumflex" unicode="&#xee;" horiz-adv-x="203" 
d="M101 704l-85 -98h-62l116 147h64l116 -147h-62zM69 0v520h65v-520h-65z" />
    <glyph glyph-name="idieresis" unicode="&#xef;" horiz-adv-x="203" 
d="M-2 637v74h70v-74h-70zM136 637v74h69v-74h-69zM69 0v520h65v-520h-65z" />
    <glyph glyph-name="eth" unicode="&#xf0;" horiz-adv-x="583" 
d="M290 -10c-146 0 -259 107 -259 271s112 269 250 269c68 0 129 -20 174 -70c-33 75 -90 131 -157 181l-136 -77l-21 40l117 65c-38 26 -79 51 -118 76l1 2h94c25 -15 51 -31 77 -48l100 56l21 -39l-81 -46c105 -80 197 -192 197 -368c0 -229 -116 -312 -259 -312zM290 46
c113 0 195 67 195 247c0 35 -3 66 -8 94c-47 62 -118 87 -186 87c-112 0 -195 -79 -195 -213c0 -135 86 -215 194 -215z" />
    <glyph glyph-name="ntilde" unicode="&#xf1;" horiz-adv-x="532" 
d="M286 476c-62 0 -111 -23 -156 -57v-419h-64v520h56l6 -59c44 37 99 69 173 69c106 0 169 -58 169 -167v-363h-64v350c0 95 -52 126 -120 126zM328 693c25 0 45 11 66 40l4 -2l21 -42c-17 -27 -49 -52 -90 -52c-58 0 -78 29 -118 29c-29 0 -47 -11 -69 -39l-3 1l-19 45
c19 28 52 49 90 49c55 0 74 -29 118 -29z" />
    <glyph glyph-name="ograve" unicode="&#xf2;" horiz-adv-x="587" 
d="M293 -10c-149 0 -262 107 -262 271s113 269 262 269c148 0 263 -105 263 -269s-115 -271 -263 -271zM293 46c113 0 198 82 198 215c0 131 -85 213 -198 213s-197 -82 -197 -213c0 -133 84 -215 197 -215zM273 606l-120 164h81l102 -164h-63z" />
    <glyph glyph-name="oacute" unicode="&#xf3;" horiz-adv-x="587" 
d="M316 606h-63l102 164h81zM293 -10c-149 0 -262 107 -262 271s113 269 262 269c148 0 263 -105 263 -269s-115 -271 -263 -271zM293 46c113 0 198 82 198 215c0 131 -85 213 -198 213s-197 -82 -197 -213c0 -133 84 -215 197 -215z" />
    <glyph glyph-name="ocircumflex" unicode="&#xf4;" horiz-adv-x="587" 
d="M292 704l-85 -98h-62l116 147h64l116 -147h-62zM293 -10c-149 0 -262 107 -262 271s113 269 262 269c148 0 263 -105 263 -269s-115 -271 -263 -271zM293 46c113 0 198 82 198 215c0 131 -85 213 -198 213s-197 -82 -197 -213c0 -133 84 -215 197 -215z" />
    <glyph glyph-name="otilde" unicode="&#xf5;" horiz-adv-x="587" 
d="M293 -10c-149 0 -262 107 -262 271s113 269 262 269c148 0 263 -105 263 -269s-115 -271 -263 -271zM293 46c113 0 198 82 198 215c0 131 -85 213 -198 213s-197 -82 -197 -213c0 -133 84 -215 197 -215zM353 693c25 0 45 11 66 40l4 -2l21 -42c-17 -27 -49 -52 -90 -52
c-58 0 -78 29 -118 29c-29 0 -47 -11 -69 -39l-3 1l-19 45c19 28 52 49 90 49c55 0 74 -29 118 -29z" />
    <glyph glyph-name="odieresis" unicode="&#xf6;" horiz-adv-x="587" 
d="M174 637v74h70v-74h-70zM342 637v74h70v-74h-70zM293 -10c-149 0 -262 107 -262 271s113 269 262 269c148 0 263 -105 263 -269s-115 -271 -263 -271zM293 46c113 0 198 82 198 215c0 131 -85 213 -198 213s-197 -82 -197 -213c0 -133 84 -215 197 -215z" />
    <glyph glyph-name="divide" unicode="&#xf7;" horiz-adv-x="507" 
d="M213 481v84h81v-84h-81zM51 319v54h405v-54h-405zM213 127v84h81v-84h-81z" />
    <glyph glyph-name="oslash" unicode="&#xf8;" horiz-adv-x="587" 
d="M95 261c0 -60 16 -109 43 -144l271 324c-32 22 -71 33 -116 33c-113 0 -198 -82 -198 -213zM293 46c113 0 199 82 199 215c0 62 -17 112 -48 148l-272 -326c32 -24 74 -37 121 -37zM293 -10c-60 0 -115 18 -158 49l-61 -72l-36 30l62 74c-43 47 -69 112 -69 190
c0 164 113 269 262 269c58 0 110 -16 153 -45l59 71l37 -30l-60 -71c46 -47 74 -113 74 -194c0 -164 -115 -271 -263 -271z" />
    <glyph glyph-name="ugrave" unicode="&#xf9;" horiz-adv-x="536" 
d="M414 0l-6 59c-45 -37 -102 -69 -176 -69c-106 0 -172 56 -172 164v366h64v-353c0 -94 55 -123 123 -123c62 0 113 22 159 57v419h64v-520h-56zM250 606l-120 164h81l102 -164h-63z" />
    <glyph glyph-name="uacute" unicode="&#xfa;" horiz-adv-x="536" 
d="M290 606h-63l102 164h81zM414 0l-6 59c-45 -37 -102 -69 -176 -69c-106 0 -172 56 -172 164v366h64v-353c0 -94 55 -123 123 -123c62 0 113 22 159 57v419h64v-520h-56z" />
    <glyph glyph-name="ucircumflex" unicode="&#xfb;" horiz-adv-x="536" 
d="M266 704l-85 -98h-62l116 147h64l116 -147h-62zM414 0l-6 59c-45 -37 -102 -69 -176 -69c-106 0 -172 56 -172 164v366h64v-353c0 -94 55 -123 123 -123c62 0 113 22 159 57v419h64v-520h-56z" />
    <glyph glyph-name="udieresis" unicode="&#xfc;" horiz-adv-x="536" 
d="M148 637v74h70v-74h-70zM316 637v74h70v-74h-70zM414 0l-6 59c-45 -37 -102 -69 -176 -69c-106 0 -172 56 -172 164v366h64v-353c0 -94 55 -123 123 -123c62 0 113 22 159 57v419h64v-520h-56z" />
    <glyph glyph-name="yacute" unicode="&#xfd;" horiz-adv-x="485" 
d="M48 -219v59c74 10 111 45 138 111l28 72l-206 493v4h68l172 -422l164 422h65v-4l-230 -579c-41 -102 -98 -148 -199 -156zM270 606h-63l102 164h81z" />
    <glyph glyph-name="thorn" unicode="&#xfe;" horiz-adv-x="573" 
d="M295 45c102 0 182 75 182 224c0 142 -82 206 -179 206c-76 0 -126 -29 -167 -76v-281c41 -48 90 -73 164 -73zM298 -11c-71 0 -126 27 -167 78v-277h-65v943l65 17v-299c41 49 99 80 172 80c138 0 238 -98 238 -262c0 -171 -98 -280 -243 -280z" />
    <glyph glyph-name="ydieresis" unicode="&#xff;" horiz-adv-x="485" 
d="M48 -219v59c74 10 111 45 138 111l28 72l-206 493v4h68l172 -422l164 422h65v-4l-230 -579c-41 -102 -98 -148 -199 -156zM130 637v74h70v-74h-70zM298 637v74h70v-74h-70z" />
    <glyph glyph-name="dotlessi" unicode="&#x131;" horiz-adv-x="203" 
d="M69 0v520h65v-520h-65z" />
    <glyph glyph-name="Lslash" unicode="&#x141;" horiz-adv-x="489" 
d="M85 0v265l-73 -28v58l73 28v382h68v-356l200 77v-57l-200 -77v-234h303v-58h-371z" />
    <glyph glyph-name="lslash" unicode="&#x142;" horiz-adv-x="230" 
d="M145 0h-65v375l-70 -42v59l70 42v299l65 17v-277l79 48v-59l-79 -48v-414z" />
    <glyph glyph-name="OE" unicode="&#x152;" horiz-adv-x="888" 
d="M391 59h72v587h-72c-166 0 -283 -113 -283 -291s117 -296 283 -296zM391 0c-204 0 -354 152 -354 355s150 350 354 350h442v-59h-302v-252h264v-58h-264v-277h302v-59h-442z" />
    <glyph glyph-name="oe" unicode="&#x153;" horiz-adv-x="978" 
d="M293 46c113 0 198 82 198 215c0 131 -85 213 -198 213s-197 -82 -197 -213c0 -133 84 -215 197 -215zM735 473c-94 0 -158 -58 -175 -156h321c-2 101 -56 156 -146 156zM936 36c-30 -19 -94 -46 -178 -46c-116 0 -200 56 -236 154c-38 -96 -123 -154 -229 -154
c-149 0 -262 107 -262 271s113 269 262 269c106 0 191 -57 229 -152c34 94 112 152 215 152c124 0 224 -78 210 -265h-392v-4c0 -139 80 -214 205 -214c75 0 135 26 173 51l3 -2v-60z" />
    <glyph glyph-name="Scaron" unicode="&#x160;" horiz-adv-x="502" 
d="M251 815l88 93h64l-121 -144h-64l-121 144h64zM240 -10c-94 0 -159 27 -203 56v69l4 2c54 -41 111 -68 199 -68c96 0 155 52 155 134c0 76 -42 107 -136 142l-57 20c-96 34 -160 88 -160 187c0 116 93 183 201 183c84 0 134 -17 178 -45v-64l-3 -1c-53 34 -95 52 -172 52
c-87 0 -138 -47 -138 -122c0 -63 36 -101 114 -129l57 -20c107 -38 183 -84 183 -199c0 -126 -94 -197 -222 -197z" />
    <glyph glyph-name="scaron" unicode="&#x161;" horiz-adv-x="419" 
d="M209 653l85 98h62l-116 -147h-64l-116 147h62zM201 -8c-81 0 -134 22 -171 48v64l3 2c45 -36 95 -59 168 -59c74 0 121 34 121 92c0 56 -33 76 -102 96l-50 16c-82 24 -133 65 -133 141c0 86 72 140 174 140c66 0 110 -13 146 -33v-57l-3 -2c-40 23 -88 37 -145 37
c-72 0 -107 -33 -107 -80c0 -49 31 -71 85 -88l51 -15c98 -29 149 -59 149 -150c0 -102 -88 -152 -186 -152z" />
    <glyph glyph-name="Ydieresis" unicode="&#x178;" horiz-adv-x="556" 
d="M314 0h-68v296l-237 405v4h71l200 -347l200 347h67v-4l-233 -401v-300zM342 773v75h70v-75h-70zM148 773v75h70v-75h-70z" />
    <glyph glyph-name="Zcaron" unicode="&#x17d;" horiz-adv-x="570" 
d="M289 815l88 93h64l-121 -144h-64l-121 144h64zM532 0h-519v17l422 629h-374v59h477v-19l-420 -627h414v-59z" />
    <glyph glyph-name="zcaron" unicode="&#x17e;" horiz-adv-x="453" 
d="M239 653l85 98h62l-116 -147h-64l-116 147h62zM419 0h-398v17l309 449h-274v54h372v-16l-311 -450h302v-54z" />
    <glyph glyph-name="circumflex" unicode="&#x2c6;" 
d="M199 704l-85 -98h-62l116 147h64l116 -147h-62z" />
    <glyph glyph-name="caron" unicode="&#x2c7;" 
d="M201 653l85 98h62l-116 -147h-64l-116 147h62z" />
    <glyph glyph-name="breve" unicode="&#x2d8;" 
d="M200 613c-79 0 -134 56 -139 134h53c7 -50 37 -80 86 -80s78 31 85 80h53c-5 -78 -59 -134 -138 -134z" />
    <glyph glyph-name="dotaccent" unicode="&#x2d9;" 
d="M163 635v78h73v-78h-73z" />
    <glyph glyph-name="ring" unicode="&#x2da;" 
d="M200 589c-62 0 -105 43 -105 103c0 59 43 102 105 102s105 -43 105 -102c0 -60 -43 -103 -105 -103zM200 752c-35 0 -57 -25 -57 -60s22 -61 57 -61c36 0 58 26 58 61s-22 60 -58 60z" />
    <glyph glyph-name="ogonek" unicode="&#x2db;" 
d="M292 -205c-14 -8 -38 -16 -64 -16c-77 0 -116 38 -116 94c0 52 28 91 90 127h63c-56 -33 -89 -76 -89 -114c0 -32 15 -52 59 -52c21 0 38 4 55 13l2 -2v-50z" />
    <glyph glyph-name="tilde" unicode="&#x2dc;" 
d="M251 693c25 0 45 11 66 40l4 -2l21 -42c-17 -27 -49 -52 -90 -52c-58 0 -78 29 -118 29c-29 0 -47 -11 -69 -39l-3 1l-19 45c19 28 52 49 90 49c55 0 74 -29 118 -29z" />
    <glyph glyph-name="hungarumlaut" unicode="&#x2dd;" 
d="M141 606h-53l65 164h72zM280 606h-53l66 164h72z" />
    <glyph glyph-name="endash" unicode="&#x2013;" horiz-adv-x="470" 
d="M34 266v58h403v-58h-403z" />
    <glyph glyph-name="emdash" unicode="&#x2014;" horiz-adv-x="883" 
d="M34 266v58h815v-58h-815z" />
    <glyph glyph-name="quoteleft" unicode="&#x2018;" horiz-adv-x="164" 
d="M28 526v6l49 173h48l-30 -179h-67z" />
    <glyph glyph-name="quoteright" unicode="&#x2019;" horiz-adv-x="164" 
d="M136 705v-6l-49 -173h-48l30 179h67z" />
    <glyph glyph-name="quotesinglbase" unicode="&#x201a;" horiz-adv-x="164" 
d="M129 89v-7l-49 -172h-48l29 179h68z" />
    <glyph glyph-name="quotedblleft" unicode="&#x201c;" horiz-adv-x="282" 
d="M28 526v6l49 173h48l-30 -179h-67zM146 526v6l49 173h48l-29 -179h-68z" />
    <glyph glyph-name="quotedblright" unicode="&#x201d;" horiz-adv-x="282" 
d="M254 705v-6l-49 -173h-48l30 179h67zM136 705v-6l-49 -173h-48l30 179h67z" />
    <glyph glyph-name="quotedblbase" unicode="&#x201e;" horiz-adv-x="282" 
d="M129 89v-7l-49 -172h-48l29 179h68zM247 89v-7l-49 -172h-48l29 179h68z" />
    <glyph glyph-name="dagger" unicode="&#x2020;" horiz-adv-x="345" 
d="M311 521h-109v-356h-59v356h-109v53h109v137l59 18v-155h109v-53z" />
    <glyph glyph-name="daggerdbl" unicode="&#x2021;" horiz-adv-x="345" 
d="M202 166l-59 -18v155h-109v53h109v165h-109v53h109v137l59 18v-155h109v-53h-109v-165h109v-53h-109v-137z" />
    <glyph glyph-name="bullet" unicode="&#x2022;" horiz-adv-x="332" 
d="M166 427c69 0 122 -54 122 -124s-53 -124 -122 -124c-70 0 -122 54 -122 124s52 124 122 124z" />
    <glyph glyph-name="ellipsis" unicode="&#x2026;" horiz-adv-x="642" 
d="M505 0v77h73v-77h-73zM284 0v77h74v-77h-74zM64 0v77h73v-77h-73z" />
    <glyph glyph-name="perthousand" unicode="&#x2030;" horiz-adv-x="1159" 
d="M188 354c-92 0 -160 68 -160 171c0 100 68 170 160 170c93 0 160 -70 160 -170c0 -103 -67 -171 -160 -171zM136 0l461 690h58l-461 -690h-58zM188 404c64 0 103 51 103 121c0 68 -39 120 -103 120c-63 0 -103 -52 -103 -120c0 -70 40 -121 103 -121zM971 -10
c-92 0 -160 68 -160 171c0 100 68 170 160 170c93 0 160 -70 160 -170c0 -103 -67 -171 -160 -171zM599 -10c-91 0 -160 68 -160 171c0 100 69 170 160 170c93 0 160 -70 160 -170c0 -103 -67 -171 -160 -171zM971 40c64 0 103 51 103 121c0 68 -39 120 -103 120
c-63 0 -103 -52 -103 -120c0 -70 40 -121 103 -121zM599 40c64 0 103 51 103 121c0 68 -39 120 -103 120c-63 0 -103 -52 -103 -120c0 -70 40 -121 103 -121z" />
    <glyph glyph-name="guilsinglleft" unicode="&#x2039;" horiz-adv-x="221" 
d="M128 84l-111 176l111 176h65l-108 -176l108 -176h-65z" />
    <glyph glyph-name="guilsinglright" unicode="&#x203a;" horiz-adv-x="221" 
d="M28 84l108 176l-108 176h65l111 -176l-111 -176h-65z" />
    <glyph glyph-name="fraction" unicode="&#x2044;" horiz-adv-x="111" 
d="M-231 0l514 690h58l-514 -690h-58z" />
    <glyph glyph-name="Euro" unicode="&#x20ac;" horiz-adv-x="536" 
d="M510 36c-34 -24 -85 -46 -163 -46c-155 0 -251 102 -274 272h-60v46h56c-1 12 -1 25 -1 38c0 12 0 24 1 36h-56v47h61c25 168 130 266 275 266c68 0 112 -16 148 -36v-62l-3 -2c-44 28 -86 42 -142 42c-112 0 -188 -70 -209 -208h229v-47h-234c-1 -12 -1 -24 -1 -36
c0 -13 0 -26 1 -38h234v-46h-230c20 -140 91 -213 211 -213c69 0 116 25 154 55l3 -2v-66z" />
    <glyph glyph-name="trademark" unicode="&#x2122;" horiz-adv-x="660" 
d="M260 640h-99v-278h-55v278h-99v48h253v-48zM574 362l-27 206l-88 -208h-19l-86 203l-28 -201h-50l44 329h27l104 -248l103 248h27l44 -329h-51z" />
    <glyph glyph-name="minus" unicode="&#x2212;" horiz-adv-x="507" 
d="M51 319v54h405v-54h-405z" />
    <glyph glyph-name="Dcroat" unicode="&#x110;" horiz-adv-x="692" 
d="M368 334h-212v-275h87c200 0 342 68 342 288c0 217 -142 299 -342 299h-87v-257h212v-55zM88 0v334h-80v55h80v316h160c234 0 407 -111 407 -358s-173 -347 -407 -347h-160z" />
    <glyph glyph-name="Eng" unicode="&#x14a;" horiz-adv-x="712" 
d="M444 -171v60c82 18 118 54 120 154l-418 522v-565h-66v716h24l462 -574v563h65v-657c0 -148 -65 -198 -187 -219z" />
    <glyph glyph-name="IJ" unicode="&#x132;" horiz-adv-x="462" 
d="M192 -171v60c84 19 120 56 120 163v653h68v-657c0 -148 -66 -198 -188 -219zM82 0v705h68v-705h-68z" />
    <glyph glyph-name="dcroat" unicode="&#x111;" horiz-adv-x="572" 
d="M456 0l-9 76c-41 -53 -102 -87 -179 -87c-138 0 -237 98 -237 264c0 169 100 278 244 278c71 0 126 -27 167 -78v150h-170v47h170v83l64 17v-100h73v-47h-73v-603h-50zM273 45c78 0 128 29 169 76v281c-41 48 -90 73 -164 73c-100 0 -182 -75 -182 -222
c0 -144 80 -208 177 -208z" />
    <glyph glyph-name="eng" unicode="&#x14b;" horiz-adv-x="532" 
d="M309 -219v57c60 6 97 31 97 129v383c0 95 -52 126 -120 126c-62 0 -111 -23 -156 -57v-419h-64v520h56l6 -59c44 37 99 69 173 69c106 0 169 -58 169 -167v-399c0 -130 -61 -177 -161 -183z" />
    <glyph glyph-name="ij" unicode="&#x133;" horiz-adv-x="419" 
d="M286 636v74h69v-74h-69zM67 636v74h69v-74h-69zM69 0v520h65v-520h-65zM194 -219v57c58 6 94 31 94 129v553h65v-556c0 -130 -61 -177 -159 -183z" />
    <glyph glyph-name="Abreve" unicode="&#x102;" horiz-adv-x="621" 
d="M440 254l-131 320l-130 -320h261zM544 0l-80 196h-309l-80 -196h-67v4l297 710h11l298 -710v-4h-70zM311 756c-80 0 -135 56 -140 134h53c7 -49 37 -79 87 -79s79 30 86 79h53c-5 -78 -59 -134 -139 -134z" />
    <glyph glyph-name="Amacron" unicode="&#x100;" horiz-adv-x="621" 
d="M440 254l-131 320l-130 -320h261zM544 0l-80 196h-309l-80 -196h-67v4l297 710h11l298 -710v-4h-70zM171 775v55h279v-55h-279z" />
    <glyph glyph-name="Aogonek" unicode="&#x104;" horiz-adv-x="621" 
d="M577 -221c-77 0 -116 38 -116 94c0 50 28 91 83 126l-81 197h-308l-80 -196h-67v4l297 710h11l298 -710v-4c-56 -33 -89 -77 -89 -114c0 -32 15 -52 59 -52c21 0 38 4 55 13l2 -2v-50c-14 -8 -38 -16 -64 -16zM440 254l-131 320l-130 -320h261z" />
    <glyph glyph-name="Aringacute" unicode="&#x1fa;" horiz-adv-x="621" 
d="M440 254l-131 320l-130 -320h261zM544 0l-80 196h-309l-80 -196h-67v4l297 710h11l298 -710v-4h-70zM340 950h-62l94 141h82zM311 726c-62 0 -105 42 -105 102c0 59 43 102 105 102s105 -43 105 -102c0 -60 -43 -102 -105 -102zM311 889c-35 0 -57 -26 -57 -61
s22 -61 57 -61c36 0 58 26 58 61s-22 61 -58 61z" />
    <glyph glyph-name="AEacute" unicode="&#x1fc;" horiz-adv-x="871" 
d="M586 764h-62l94 141h82zM447 254v392h-6l-224 -392h230zM447 0v196h-264l-112 -196h-67v4l405 701h407v-59h-302v-252h264v-58h-264v-277h303v-59h-370z" />
    <glyph glyph-name="Cacute" unicode="&#x106;" horiz-adv-x="652" 
d="M404 -10c-214 0 -367 153 -367 365s155 360 365 360c91 0 139 -17 189 -41v-68l-3 -1c-48 30 -105 51 -186 51c-179 0 -294 -122 -294 -301c0 -181 116 -306 296 -306c94 0 152 26 205 69l3 -2v-68c-43 -30 -100 -58 -208 -58zM407 764h-62l94 141h82z" />
    <glyph glyph-name="Ccaron" unicode="&#x10c;" horiz-adv-x="652" 
d="M379 815l88 93h64l-121 -144h-64l-121 144h64zM404 -10c-214 0 -367 153 -367 365s155 360 365 360c91 0 139 -17 189 -41v-68l-3 -1c-48 30 -105 51 -186 51c-179 0 -294 -122 -294 -301c0 -181 116 -306 296 -306c94 0 152 26 205 69l3 -2v-68
c-43 -30 -100 -58 -208 -58z" />
    <glyph glyph-name="Ccircumflex" unicode="&#x108;" horiz-adv-x="652" 
d="M379 857l-90 -93h-64l121 144h64l121 -144h-64zM404 -10c-214 0 -367 153 -367 365s155 360 365 360c91 0 139 -17 189 -41v-68l-3 -1c-48 30 -105 51 -186 51c-179 0 -294 -122 -294 -301c0 -181 116 -306 296 -306c94 0 152 26 205 69l3 -2v-68
c-43 -30 -100 -58 -208 -58z" />
    <glyph glyph-name="Cdotaccent" unicode="&#x10a;" horiz-adv-x="652" 
d="M404 -10c-214 0 -367 153 -367 365s155 360 365 360c91 0 139 -17 189 -41v-68l-3 -1c-48 30 -105 51 -186 51c-179 0 -294 -122 -294 -301c0 -181 116 -306 296 -306c94 0 152 26 205 69l3 -2v-68c-43 -30 -100 -58 -208 -58zM341 773v78h73v-78h-73z" />
    <glyph glyph-name="Dcaron" unicode="&#x10e;" horiz-adv-x="684" 
d="M321 815l88 93h64l-121 -144h-64l-121 144h64zM235 646h-87v-587h87c200 0 341 68 341 288c0 217 -141 299 -341 299zM80 0v705h160c234 0 407 -111 407 -358s-173 -347 -407 -347h-160z" />
    <glyph glyph-name="Ebreve" unicode="&#x114;" horiz-adv-x="504" 
d="M80 0v705h370v-59h-302v-252h264v-58h-264v-277h302v-59h-370zM268 756c-80 0 -135 56 -140 134h53c7 -49 37 -79 87 -79s79 30 86 79h53c-5 -78 -59 -134 -139 -134z" />
    <glyph glyph-name="Ecaron" unicode="&#x11a;" horiz-adv-x="504" 
d="M268 815l88 93h64l-121 -144h-64l-121 144h64zM80 0v705h370v-59h-302v-252h264v-58h-264v-277h302v-59h-370z" />
    <glyph glyph-name="Edotaccent" unicode="&#x116;" horiz-adv-x="504" 
d="M231 773v78h73v-78h-73zM80 0v705h370v-59h-302v-252h264v-58h-264v-277h302v-59h-370z" />
    <glyph glyph-name="Emacron" unicode="&#x112;" horiz-adv-x="504" 
d="M80 0v705h370v-59h-302v-252h264v-58h-264v-277h302v-59h-370zM128 775v55h279v-55h-279z" />
    <glyph glyph-name="Eogonek" unicode="&#x118;" horiz-adv-x="504" 
d="M80 0v705h370v-59h-302v-252h264v-58h-264v-277h302v-59h-47c-56 -33 -89 -76 -89 -114c0 -32 15 -52 59 -52c21 0 38 4 55 13l2 -2v-50c-14 -8 -38 -16 -64 -16c-77 0 -116 38 -116 94c0 52 28 91 90 127h-260z" />
    <glyph glyph-name="Gbreve" unicode="&#x11e;" horiz-adv-x="688" 
d="M378 756c-80 0 -135 56 -140 134h53c7 -49 37 -79 87 -79s79 30 86 79h53c-5 -78 -59 -134 -139 -134zM625 62c-58 -39 -130 -72 -228 -72c-225 0 -360 154 -360 365s152 360 363 360c92 0 143 -18 194 -43v-66l-3 -2c-48 30 -109 52 -191 52c-178 0 -292 -122 -292 -301
c0 -178 100 -306 289 -306c62 0 115 15 162 42v220h-178v58h244v-307z" />
    <glyph glyph-name="Gcircumflex" unicode="&#x11c;" horiz-adv-x="688" 
d="M379 857l-90 -93h-64l121 144h64l121 -144h-64zM625 62c-58 -39 -130 -72 -228 -72c-225 0 -360 154 -360 365s152 360 363 360c92 0 143 -18 194 -43v-66l-3 -2c-48 30 -109 52 -191 52c-178 0 -292 -122 -292 -301c0 -178 100 -306 289 -306c62 0 115 15 162 42v220
h-178v58h244v-307z" />
    <glyph glyph-name="uni0122" unicode="&#x122;" horiz-adv-x="688" 
d="M330 -199l12 144h71v-6l-30 -138h-53zM625 62c-58 -39 -130 -72 -228 -72c-225 0 -360 154 -360 365s152 360 363 360c92 0 143 -18 194 -43v-66l-3 -2c-48 30 -109 52 -191 52c-178 0 -292 -122 -292 -301c0 -178 100 -306 289 -306c62 0 115 15 162 42v220h-178v58h244
v-307z" />
    <glyph glyph-name="Gdotaccent" unicode="&#x120;" horiz-adv-x="688" 
d="M341 773v78h73v-78h-73zM625 62c-58 -39 -130 -72 -228 -72c-225 0 -360 154 -360 365s152 360 363 360c92 0 143 -18 194 -43v-66l-3 -2c-48 30 -109 52 -191 52c-178 0 -292 -122 -292 -301c0 -178 100 -306 289 -306c62 0 115 15 162 42v220h-178v58h244v-307z" />
    <glyph glyph-name="Hbar" unicode="&#x126;" horiz-adv-x="703" 
d="M555 387v124h-407v-124h407zM555 0v327h-407v-327h-68v511h-88v53h88v141h68v-141h407v141h68v-141h84v-53h-84v-511h-68z" />
    <glyph glyph-name="Hcircumflex" unicode="&#x124;" horiz-adv-x="703" 
d="M555 0v327h-407v-327h-68v705h68v-318h407v318h68v-705h-68zM352 857l-90 -93h-64l121 144h64l121 -144h-64z" />
    <glyph glyph-name="Ibreve" unicode="&#x12c;" horiz-adv-x="232" 
d="M82 0v705h68v-705h-68zM117 756c-80 0 -135 56 -140 134h53c7 -49 37 -79 87 -79s79 30 86 79h53c-5 -78 -59 -134 -139 -134z" />
    <glyph glyph-name="Idotaccent" unicode="&#x130;" horiz-adv-x="232" 
d="M82 0v705h68v-705h-68zM80 773v78h73v-78h-73z" />
    <glyph glyph-name="Imacron" unicode="&#x12a;" horiz-adv-x="232" 
d="M7 775v55h218v-55h-218zM82 0v705h68v-705h-68z" />
    <glyph glyph-name="Iogonek" unicode="&#x12e;" horiz-adv-x="232" 
d="M176 -205c-14 -8 -37 -16 -63 -16c-74 0 -114 37 -114 94c0 51 27 95 83 129v703h68v-705c-55 -33 -87 -77 -87 -115c0 -31 16 -51 57 -51c21 0 37 4 54 13l2 -2v-50z" />
    <glyph glyph-name="Itilde" unicode="&#x128;" horiz-adv-x="232" 
d="M82 0v705h68v-705h-68zM180 828c26 0 47 12 68 40l4 -1l20 -42c-16 -27 -50 -53 -91 -53c-58 0 -87 31 -126 31c-30 0 -50 -10 -72 -39l-3 2l-19 45c19 27 55 49 94 49c53 0 81 -32 125 -32z" />
    <glyph glyph-name="Jcircumflex" unicode="&#x134;" horiz-adv-x="237" 
d="M121 857l-90 -93h-64l121 144h64l121 -144h-64zM-32 -171v60c84 19 120 56 120 163v653h67v-657c0 -148 -65 -198 -187 -219z" />
    <glyph glyph-name="uni0136" unicode="&#x136;" horiz-adv-x="588" 
d="M492 0l-250 360l-94 -103v-257h-68v705h68v-367l328 367h73v-4s-195 -220 -260 -292l279 -405v-4h-76zM260 -199l12 144h71v-6l-30 -138h-53z" />
    <glyph glyph-name="Lacute" unicode="&#x139;" horiz-adv-x="485" 
d="M143 764h-62l94 141h82zM80 0v705h68v-647h303v-58h-371z" />
    <glyph glyph-name="Lcaron" unicode="&#x13d;" horiz-adv-x="485" 
d="M215 547l8 158h65v-6l-27 -152h-46zM80 0v705h68v-647h303v-58h-371z" />
    <glyph glyph-name="uni013B" unicode="&#x13b;" horiz-adv-x="485" 
d="M214 -199l12 144h71v-6l-30 -138h-53zM80 0v705h68v-647h303v-58h-371z" />
    <glyph glyph-name="Ldot" unicode="&#x13f;" horiz-adv-x="485" 
d="M345 342v76h74v-76h-74zM80 0v705h68v-647h303v-58h-371z" />
    <glyph glyph-name="Nacute" unicode="&#x143;" horiz-adv-x="712" 
d="M631 -13h-22l-463 578v-565h-66v716h24l462 -574v563h65v-718zM396 764h-62l94 141h82z" />
    <glyph glyph-name="Ncaron" unicode="&#x147;" horiz-adv-x="712" 
d="M631 -13h-22l-463 578v-565h-66v716h24l462 -574v563h65v-718zM368 815l88 93h64l-121 -144h-64l-121 144h64z" />
    <glyph glyph-name="uni0145" unicode="&#x145;" horiz-adv-x="712" 
d="M309 -199l12 144h71v-6l-30 -138h-53zM631 -13h-22l-463 578v-565h-66v716h24l462 -574v563h65v-718z" />
    <glyph glyph-name="Obreve" unicode="&#x14e;" horiz-adv-x="769" 
d="M385 756c-80 0 -135 56 -140 134h53c7 -49 37 -79 87 -79s79 30 86 79h53c-5 -78 -59 -134 -139 -134zM385 -10c-199 0 -348 158 -348 365s149 360 348 360s347 -153 347 -360s-148 -365 -347 -365zM385 49c162 0 276 124 276 306s-114 301 -276 301
c-161 0 -277 -119 -277 -301s116 -306 277 -306z" />
    <glyph glyph-name="Ohungarumlaut" unicode="&#x150;" horiz-adv-x="769" 
d="M336 764h-52l60 141h75c-1 0 -83 -141 -83 -141zM486 764h-53l61 141h75c-4 0 -83 -141 -83 -141zM385 -10c-199 0 -348 158 -348 365s149 360 348 360s347 -153 347 -360s-148 -365 -347 -365zM385 49c162 0 276 124 276 306s-114 301 -276 301
c-161 0 -277 -119 -277 -301s116 -306 277 -306z" />
    <glyph glyph-name="Omacron" unicode="&#x14c;" horiz-adv-x="769" 
d="M245 775v55h279v-55h-279zM385 -10c-199 0 -348 158 -348 365s149 360 348 360s347 -153 347 -360s-148 -365 -347 -365zM385 49c162 0 276 124 276 306s-114 301 -276 301c-161 0 -277 -119 -277 -301s116 -306 277 -306z" />
    <glyph glyph-name="Oslashacute" unicode="&#x1fe;" horiz-adv-x="769" 
d="M108 355c0 -85 24 -157 66 -209l381 455c-45 35 -103 55 -170 55c-161 0 -277 -119 -277 -301zM385 49c162 0 276 124 276 306c0 86 -25 158 -68 209l-382 -456c47 -38 106 -59 174 -59zM385 -10c-81 0 -155 26 -212 72l-85 -101l-40 34l86 103c-61 65 -97 155 -97 257
c0 207 149 360 348 360c80 0 152 -25 209 -68l77 92l40 -34l-78 -93c62 -64 99 -154 99 -257c0 -207 -148 -365 -347 -365zM413 764h-62l94 141h82z" />
    <glyph glyph-name="Racute" unicode="&#x154;" horiz-adv-x="579" 
d="M307 764h-62l94 141h82zM270 645h-122v-288h137c108 0 166 53 166 148s-61 140 -181 140zM490 0l-206 300h-136v-300h-68v705h192c152 0 249 -68 249 -202c0 -109 -70 -173 -168 -191l213 -307v-5h-76z" />
    <glyph glyph-name="Rcaron" unicode="&#x158;" horiz-adv-x="579" 
d="M279 815l88 93h64l-121 -144h-64l-121 144h64zM270 645h-122v-288h137c108 0 166 53 166 148s-61 140 -181 140zM490 0l-206 300h-136v-300h-68v705h192c152 0 249 -68 249 -202c0 -109 -70 -173 -168 -191l213 -307v-5h-76z" />
    <glyph glyph-name="uni0156" unicode="&#x156;" horiz-adv-x="579" 
d="M257 -199l12 144h71v-6l-30 -138h-53zM270 645h-122v-288h137c108 0 166 53 166 148s-61 140 -181 140zM490 0l-206 300h-136v-300h-68v705h192c152 0 249 -68 249 -202c0 -109 -70 -173 -168 -191l213 -307v-5h-76z" />
    <glyph glyph-name="Sacute" unicode="&#x15a;" horiz-adv-x="502" 
d="M240 -10c-94 0 -159 27 -203 56v69l4 2c54 -41 111 -68 199 -68c96 0 155 52 155 134c0 76 -42 107 -136 142l-57 20c-96 34 -160 88 -160 187c0 116 93 183 201 183c84 0 134 -17 178 -45v-64l-3 -1c-53 34 -95 52 -172 52c-87 0 -138 -47 -138 -122
c0 -63 36 -101 114 -129l57 -20c107 -38 183 -84 183 -199c0 -126 -94 -197 -222 -197zM278 764h-62l94 141h82z" />
    <glyph glyph-name="uni015E" unicode="&#x15e;" horiz-adv-x="502" 
d="M230 -218c-37 0 -61 11 -74 19v45l3 1c14 -7 36 -18 63 -18c31 0 50 16 50 42c0 30 -32 41 -75 46v75c-71 7 -123 30 -160 54v69l4 2c54 -41 111 -68 199 -68c96 0 155 52 155 134c0 76 -42 107 -136 142l-57 20c-96 34 -160 88 -160 187c0 116 93 183 201 183
c84 0 134 -17 178 -45v-64l-3 -1c-53 34 -95 52 -172 52c-87 0 -138 -47 -138 -122c0 -63 36 -101 114 -129l57 -20c107 -38 183 -84 183 -199c0 -124 -91 -194 -215 -197v-39c46 -9 85 -26 85 -82c0 -53 -39 -87 -102 -87z" />
    <glyph glyph-name="Scircumflex" unicode="&#x15c;" horiz-adv-x="502" 
d="M251 857l-90 -93h-64l121 144h64l121 -144h-64zM240 -10c-94 0 -159 27 -203 56v69l4 2c54 -41 111 -68 199 -68c96 0 155 52 155 134c0 76 -42 107 -136 142l-57 20c-96 34 -160 88 -160 187c0 116 93 183 201 183c84 0 134 -17 178 -45v-64l-3 -1
c-53 34 -95 52 -172 52c-87 0 -138 -47 -138 -122c0 -63 36 -101 114 -129l57 -20c107 -38 183 -84 183 -199c0 -126 -94 -197 -222 -197z" />
    <glyph glyph-name="uni0218" unicode="&#x218;" horiz-adv-x="502" 
d="M200 -199l12 144h71v-6l-30 -138h-53zM240 -10c-94 0 -159 27 -203 56v69l4 2c54 -41 111 -68 199 -68c96 0 155 52 155 134c0 76 -42 107 -136 142l-57 20c-96 34 -160 88 -160 187c0 116 93 183 201 183c84 0 134 -17 178 -45v-64l-3 -1c-53 34 -95 52 -172 52
c-87 0 -138 -47 -138 -122c0 -63 36 -101 114 -129l57 -20c107 -38 183 -84 183 -199c0 -126 -94 -197 -222 -197z" />
    <glyph glyph-name="Tcaron" unicode="&#x164;" horiz-adv-x="528" 
d="M265 815l88 93h64l-121 -144h-64l-121 144h64zM512 646h-214v-646h-68v646h-215v59h497v-59z" />
    <glyph glyph-name="Tcommaaccent" unicode="&#x162;" horiz-adv-x="528" 
d="M216 -199l12 144h71v-6l-30 -138h-53zM512 646h-214v-646h-68v646h-215v59h497v-59z" />
    <glyph glyph-name="uni021A" unicode="&#x21a;" horiz-adv-x="528" 
d="M216 -199l12 144h71v-6l-30 -138h-53zM512 646h-214v-646h-68v646h-215v59h497v-59z" />
    <glyph glyph-name="Tbar" unicode="&#x166;" horiz-adv-x="528" 
d="M459 374h-161v-374h-68v374h-160v53h160v219h-215v59h497v-59h-214v-219h161v-53z" />
    <glyph glyph-name="Ubreve" unicode="&#x16c;" horiz-adv-x="674" 
d="M335 -10c-155 0 -264 94 -264 267v448h68v-446c0 -137 76 -210 196 -210c119 0 201 73 201 210v446h67v-448c0 -173 -113 -267 -268 -267zM337 756c-80 0 -135 56 -140 134h53c7 -49 37 -79 87 -79s79 30 86 79h53c-5 -78 -59 -134 -139 -134z" />
    <glyph glyph-name="Uhungarumlaut" unicode="&#x170;" horiz-adv-x="674" 
d="M289 764h-52l60 141h75c-1 0 -83 -141 -83 -141zM439 764h-53l61 141h75c-4 0 -83 -141 -83 -141zM335 -10c-155 0 -264 94 -264 267v448h68v-446c0 -137 76 -210 196 -210c119 0 201 73 201 210v446h67v-448c0 -173 -113 -267 -268 -267z" />
    <glyph glyph-name="Umacron" unicode="&#x16a;" horiz-adv-x="674" 
d="M335 -10c-155 0 -264 94 -264 267v448h68v-446c0 -137 76 -210 196 -210c119 0 201 73 201 210v446h67v-448c0 -173 -113 -267 -268 -267zM197 775v55h279v-55h-279z" />
    <glyph glyph-name="Uogonek" unicode="&#x172;" horiz-adv-x="674" 
d="M398 -221c-76 0 -116 38 -116 94c0 48 27 90 78 118c-10 -1 -18 -1 -25 -1c-155 0 -264 94 -264 267v448h68v-446c0 -137 76 -210 196 -210c119 0 201 73 201 210v446h67v-448c0 -109 -44 -186 -117 -227c-74 -44 -140 -83 -140 -144c0 -32 15 -52 59 -52
c21 0 38 4 55 13l2 -2v-50c-14 -8 -37 -16 -64 -16z" />
    <glyph glyph-name="Uring" unicode="&#x16e;" horiz-adv-x="674" 
d="M335 -10c-155 0 -264 94 -264 267v448h68v-446c0 -137 76 -210 196 -210c119 0 201 73 201 210v446h67v-448c0 -173 -113 -267 -268 -267zM337 713c-62 0 -105 42 -105 102c0 59 43 102 105 102s105 -43 105 -102c0 -60 -43 -102 -105 -102zM337 876
c-35 0 -57 -26 -57 -61s22 -61 57 -61c36 0 58 26 58 61s-22 61 -58 61z" />
    <glyph glyph-name="Utilde" unicode="&#x168;" horiz-adv-x="674" 
d="M335 -10c-155 0 -264 94 -264 267v448h68v-446c0 -137 76 -210 196 -210c119 0 201 73 201 210v446h67v-448c0 -173 -113 -267 -268 -267zM400 828c26 0 47 12 68 40l4 -1l20 -42c-16 -27 -50 -53 -91 -53c-58 0 -87 31 -126 31c-30 0 -50 -10 -72 -39l-3 2l-19 45
c19 27 55 49 94 49c53 0 81 -32 125 -32z" />
    <glyph glyph-name="Wacute" unicode="&#x1e82;" horiz-adv-x="921" 
d="M641 -10l-182 482l-181 -482h-12l-251 711v4h70l192 -555l150 404l-56 147v4h70l205 -553l192 553h68v-4l-253 -711h-12zM449 764h-62l94 141h82z" />
    <glyph glyph-name="Wcircumflex" unicode="&#x174;" horiz-adv-x="921" 
d="M641 -10l-182 482l-181 -482h-12l-251 711v4h70l192 -555l150 404l-56 147v4h70l205 -553l192 553h68v-4l-253 -711h-12zM421 857l-90 -93h-64l121 144h64l121 -144h-64z" />
    <glyph glyph-name="Wdieresis" unicode="&#x1e84;" horiz-adv-x="921" 
d="M641 -10l-182 482l-181 -482h-12l-251 711v4h70l192 -555l150 404l-56 147v4h70l205 -553l192 553h68v-4l-253 -711h-12zM482 773v75h70v-75h-70zM288 773v75h70v-75h-70z" />
    <glyph glyph-name="Wgrave" unicode="&#x1e80;" horiz-adv-x="921" 
d="M641 -10l-182 482l-181 -482h-12l-251 711v4h70l192 -555l150 404l-56 147v4h70l205 -553l192 553h68v-4l-253 -711h-12zM394 764l-114 141h82l94 -141h-62z" />
    <glyph glyph-name="Ycircumflex" unicode="&#x176;" horiz-adv-x="556" 
d="M314 0h-68v296l-237 405v4h71l200 -347l200 347h67v-4l-233 -401v-300zM281 857l-90 -93h-64l121 144h64l121 -144h-64z" />
    <glyph glyph-name="Ygrave" unicode="&#x1ef2;" horiz-adv-x="556" 
d="M314 0h-68v296l-237 405v4h71l200 -347l200 347h67v-4l-233 -401v-300zM254 764l-114 141h82l94 -141h-62z" />
    <glyph glyph-name="Zacute" unicode="&#x179;" horiz-adv-x="570" 
d="M316 764h-62l94 141h82zM532 0h-519v17l422 629h-374v59h477v-19l-420 -627h414v-59z" />
    <glyph glyph-name="Zdotaccent" unicode="&#x17b;" horiz-adv-x="570" 
d="M251 773v78h73v-78h-73zM532 0h-519v17l422 629h-374v59h477v-19l-420 -627h414v-59z" />
    <glyph glyph-name="abreve" unicode="&#x103;" horiz-adv-x="489" 
d="M209 45c77 0 126 35 154 76v141l-119 -20c-97 -16 -148 -40 -148 -105c0 -58 41 -92 113 -92zM372 0l-6 68c-27 -40 -77 -78 -161 -78c-101 0 -175 50 -175 147c0 104 88 135 201 154l132 23v13c0 111 -48 146 -143 146c-58 0 -103 -13 -150 -41l-3 2v54
c40 28 92 42 158 42c126 0 202 -53 202 -197v-333h-55zM242 613c-79 0 -134 56 -139 134h53c7 -50 37 -80 86 -80s78 31 85 80h53c-5 -78 -59 -134 -138 -134z" />
    <glyph glyph-name="amacron" unicode="&#x101;" horiz-adv-x="489" 
d="M209 45c77 0 126 35 154 76v141l-119 -20c-97 -16 -148 -40 -148 -105c0 -58 41 -92 113 -92zM372 0l-6 68c-27 -40 -77 -78 -161 -78c-101 0 -175 50 -175 147c0 104 88 135 201 154l132 23v13c0 111 -48 146 -143 146c-58 0 -103 -13 -150 -41l-3 2v54
c40 28 92 42 158 42c126 0 202 -53 202 -197v-333h-55zM104 649v55h272v-55h-272z" />
    <glyph glyph-name="aogonek" unicode="&#x105;" horiz-adv-x="489" 
d="M209 45c77 0 126 35 154 76v141l-119 -20c-97 -16 -148 -40 -148 -105c0 -58 41 -92 113 -92zM455 -205c-14 -8 -37 -16 -64 -16c-76 0 -116 38 -116 94c0 52 30 95 96 133l-5 62c-27 -40 -77 -78 -161 -78c-101 0 -175 50 -175 147c0 104 88 135 201 154l132 23v13
c0 111 -48 146 -143 146c-58 0 -103 -13 -150 -41l-3 2v54c40 28 92 42 158 42c126 0 202 -53 202 -197v-333c-55 -34 -88 -77 -88 -114c0 -32 16 -52 59 -52c21 0 39 4 55 13l2 -2v-50z" />
    <glyph glyph-name="aringacute" unicode="&#x1fb;" horiz-adv-x="489" 
d="M209 45c77 0 126 35 154 76v141l-119 -20c-97 -16 -148 -40 -148 -105c0 -58 41 -92 113 -92zM372 0l-6 68c-27 -40 -77 -78 -161 -78c-101 0 -175 50 -175 147c0 104 88 135 201 154l132 23v13c0 111 -48 146 -143 146c-58 0 -103 -13 -150 -41l-3 2v54
c40 28 92 42 158 42c126 0 202 -53 202 -197v-333h-55zM243 589c-62 0 -105 43 -105 103c0 59 43 102 105 102s105 -43 105 -102c0 -60 -43 -103 -105 -103zM243 752c-35 0 -57 -25 -57 -60s22 -61 57 -61c36 0 58 26 58 61s-22 60 -58 60zM273 821h-62l94 141h82z" />
    <glyph glyph-name="aeacute" unicode="&#x1fd;" horiz-adv-x="850" 
d="M452 606h-63l102 164h81zM607 473c-94 0 -158 -58 -175 -156h321c-2 101 -56 156 -146 156zM808 36c-30 -19 -94 -46 -178 -46c-95 0 -174 36 -221 105c-41 -62 -104 -105 -203 -105c-101 0 -174 51 -174 147c0 104 89 136 200 154l132 23v13c0 111 -47 146 -142 146
c-59 0 -103 -13 -151 -41l-3 2v54c41 28 92 42 159 42c96 0 161 -28 185 -111c39 70 108 111 196 111c125 0 225 -78 211 -265h-392v-4c0 -139 80 -214 205 -214c75 0 134 26 173 51l3 -2v-60zM210 45c87 0 146 43 169 110c-10 31 -16 67 -16 105l-117 -20
c-96 -15 -149 -37 -149 -103c0 -58 41 -92 113 -92z" />
    <glyph glyph-name="cacute" unicode="&#x107;" horiz-adv-x="484" 
d="M298 606h-63l102 164h81zM299 -10c-156 0 -268 107 -268 271c0 166 117 269 264 269c68 0 115 -15 143 -32v-58l-3 -2c-37 21 -83 36 -140 36c-110 0 -198 -77 -198 -213c0 -133 81 -215 201 -215c68 0 113 20 150 46l3 -2v-56c-30 -24 -77 -44 -152 -44z" />
    <glyph glyph-name="ccaron" unicode="&#x10d;" horiz-adv-x="484" 
d="M276 653l85 98h62l-116 -147h-64l-116 147h62zM299 -10c-156 0 -268 107 -268 271c0 166 117 269 264 269c68 0 115 -15 143 -32v-58l-3 -2c-37 21 -83 36 -140 36c-110 0 -198 -77 -198 -213c0 -133 81 -215 201 -215c68 0 113 20 150 46l3 -2v-56
c-30 -24 -77 -44 -152 -44z" />
    <glyph glyph-name="ccircumflex" unicode="&#x109;" horiz-adv-x="484" 
d="M274 704l-85 -98h-62l116 147h64l116 -147h-62zM299 -10c-156 0 -268 107 -268 271c0 166 117 269 264 269c68 0 115 -15 143 -32v-58l-3 -2c-37 21 -83 36 -140 36c-110 0 -198 -77 -198 -213c0 -133 81 -215 201 -215c68 0 113 20 150 46l3 -2v-56
c-30 -24 -77 -44 -152 -44z" />
    <glyph glyph-name="cdotaccent" unicode="&#x10b;" horiz-adv-x="484" 
d="M299 -10c-156 0 -268 107 -268 271c0 166 117 269 264 269c68 0 115 -15 143 -32v-58l-3 -2c-37 21 -83 36 -140 36c-110 0 -198 -77 -198 -213c0 -133 81 -215 201 -215c68 0 113 20 150 46l3 -2v-56c-30 -24 -77 -44 -152 -44zM239 635v78h73v-78h-73z" />
    <glyph glyph-name="dcaron" unicode="&#x10f;" horiz-adv-x="572" 
d="M456 0l-9 76c-41 -53 -102 -87 -179 -87c-138 0 -237 98 -237 264c0 169 100 278 244 278c71 0 126 -27 167 -78v280l64 17v-750h-50zM273 45c78 0 128 29 169 76v281c-41 48 -90 73 -164 73c-100 0 -182 -75 -182 -222c0 -144 80 -208 177 -208zM556 581l8 158h65v-6
l-27 -152h-46z" />
    <glyph glyph-name="ebreve" unicode="&#x115;" horiz-adv-x="520" 
d="M276 473c-94 0 -159 -58 -176 -156h322c-2 101 -56 156 -146 156zM477 36c-31 -19 -94 -46 -178 -46c-162 0 -268 102 -268 271c0 162 102 269 246 269c125 0 225 -78 211 -265h-393v-4c0 -139 80 -214 206 -214c75 0 134 26 172 51l4 -2v-60zM271 613
c-79 0 -134 56 -139 134h53c7 -50 37 -80 86 -80s78 31 85 80h53c-5 -78 -59 -134 -138 -134z" />
    <glyph glyph-name="ecaron" unicode="&#x11b;" horiz-adv-x="520" 
d="M271 653l85 98h62l-116 -147h-64l-116 147h62zM276 473c-94 0 -159 -58 -176 -156h322c-2 101 -56 156 -146 156zM477 36c-31 -19 -94 -46 -178 -46c-162 0 -268 102 -268 271c0 162 102 269 246 269c125 0 225 -78 211 -265h-393v-4c0 -139 80 -214 206 -214
c75 0 134 26 172 51l4 -2v-60z" />
    <glyph glyph-name="edotaccent" unicode="&#x117;" horiz-adv-x="520" 
d="M276 473c-94 0 -159 -58 -176 -156h322c-2 101 -56 156 -146 156zM477 36c-31 -19 -94 -46 -178 -46c-162 0 -268 102 -268 271c0 162 102 269 246 269c125 0 225 -78 211 -265h-393v-4c0 -139 80 -214 206 -214c75 0 134 26 172 51l4 -2v-60zM234 635v78h73v-78h-73z
" />
    <glyph glyph-name="emacron" unicode="&#x113;" horiz-adv-x="520" 
d="M276 473c-94 0 -159 -58 -176 -156h322c-2 101 -56 156 -146 156zM477 36c-31 -19 -94 -46 -178 -46c-162 0 -268 102 -268 271c0 162 102 269 246 269c125 0 225 -78 211 -265h-393v-4c0 -139 80 -214 206 -214c75 0 134 26 172 51l4 -2v-60zM134 649v55h272v-55h-272z
" />
    <glyph glyph-name="eogonek" unicode="&#x119;" horiz-adv-x="519" 
d="M276 473c-94 0 -159 -58 -176 -156h322c-2 101 -56 156 -146 156zM436 -204c-14 -9 -39 -17 -67 -17c-80 0 -118 38 -118 95c0 48 25 86 78 119c-10 -2 -20 -3 -30 -3c-162 0 -268 102 -268 271c0 162 102 269 246 269c125 0 225 -78 211 -265h-393v-4
c0 -139 80 -214 206 -214c75 0 134 26 172 51l4 -2v-60c-22 -13 -52 -25 -77 -41c-44 -24 -85 -61 -85 -108c0 -33 15 -53 61 -53c22 0 41 5 57 14l3 -2v-50z" />
    <glyph glyph-name="gbreve" unicode="&#x11f;" horiz-adv-x="482" 
d="M230 226c71 0 129 49 129 126c0 80 -58 127 -129 127c-74 0 -129 -47 -129 -127c0 -77 57 -126 129 -126zM235 -218c-137 0 -226 45 -226 134c0 32 14 56 28 69h54l2 -2c-12 -14 -23 -34 -23 -62c0 -58 57 -88 165 -88c119 0 178 51 178 115c0 52 -33 66 -94 69l-146 7
c-79 3 -114 37 -114 90c0 43 24 73 65 93c-51 28 -85 79 -85 145c0 108 83 176 190 176c24 0 49 -5 71 -14l163 10v-53h-103c33 -24 59 -64 59 -119c0 -107 -86 -172 -190 -172c-20 0 -40 3 -59 8c-39 -14 -55 -32 -55 -62c0 -28 21 -39 66 -41l144 -6
c93 -5 151 -37 151 -129c0 -99 -89 -168 -241 -168zM242 613c-79 0 -134 56 -139 134h53c7 -50 37 -80 86 -80s78 31 85 80h53c-5 -78 -59 -134 -138 -134z" />
    <glyph glyph-name="gcircumflex" unicode="&#x11d;" horiz-adv-x="482" 
d="M240 704l-85 -98h-62l116 147h64l116 -147h-62zM230 226c71 0 129 49 129 126c0 80 -58 127 -129 127c-74 0 -129 -47 -129 -127c0 -77 57 -126 129 -126zM235 -218c-137 0 -226 45 -226 134c0 32 14 56 28 69h54l2 -2c-12 -14 -23 -34 -23 -62c0 -58 57 -88 165 -88
c119 0 178 51 178 115c0 52 -33 66 -94 69l-146 7c-79 3 -114 37 -114 90c0 43 24 73 65 93c-51 28 -85 79 -85 145c0 108 83 176 190 176c24 0 49 -5 71 -14l163 10v-53h-103c33 -24 59 -64 59 -119c0 -107 -86 -172 -190 -172c-20 0 -40 3 -59 8c-39 -14 -55 -32 -55 -62
c0 -28 21 -39 66 -41l144 -6c93 -5 151 -37 151 -129c0 -99 -89 -168 -241 -168z" />
    <glyph glyph-name="uni0123" unicode="&#x123;" horiz-adv-x="482" 
d="M282 752l-12 -143h-71l-1 2l31 141h53zM230 226c71 0 129 49 129 126c0 80 -58 127 -129 127c-74 0 -129 -47 -129 -127c0 -77 57 -126 129 -126zM235 -218c-137 0 -226 45 -226 134c0 32 14 56 28 69h54l2 -2c-12 -14 -23 -34 -23 -62c0 -58 57 -88 165 -88
c119 0 178 51 178 115c0 52 -33 66 -94 69l-146 7c-79 3 -114 37 -114 90c0 43 24 73 65 93c-51 28 -85 79 -85 145c0 108 83 176 190 176c24 0 49 -5 71 -14l163 10v-53h-103c33 -24 59 -64 59 -119c0 -107 -86 -172 -190 -172c-20 0 -40 3 -59 8c-39 -14 -55 -32 -55 -62
c0 -28 21 -39 66 -41l144 -6c93 -5 151 -37 151 -129c0 -99 -89 -168 -241 -168z" />
    <glyph glyph-name="gdotaccent" unicode="&#x121;" horiz-adv-x="482" 
d="M230 226c71 0 129 49 129 126c0 80 -58 127 -129 127c-74 0 -129 -47 -129 -127c0 -77 57 -126 129 -126zM235 -218c-137 0 -226 45 -226 134c0 32 14 56 28 69h54l2 -2c-12 -14 -23 -34 -23 -62c0 -58 57 -88 165 -88c119 0 178 51 178 115c0 52 -33 66 -94 69l-146 7
c-79 3 -114 37 -114 90c0 43 24 73 65 93c-51 28 -85 79 -85 145c0 108 83 176 190 176c24 0 49 -5 71 -14l163 10v-53h-103c33 -24 59 -64 59 -119c0 -107 -86 -172 -190 -172c-20 0 -40 3 -59 8c-39 -14 -55 -32 -55 -62c0 -28 21 -39 66 -41l144 -6
c93 -5 151 -37 151 -129c0 -99 -89 -168 -241 -168zM205 635v78h73v-78h-73z" />
    <glyph glyph-name="hbar" unicode="&#x127;" horiz-adv-x="532" 
d="M286 476c-62 0 -111 -23 -156 -57v-419h-64v603h-73v47h73v83l64 17v-100h170v-47h-170v-140c44 36 98 67 171 67c106 0 169 -58 169 -167v-363h-64v350c0 95 -52 126 -120 126z" />
    <glyph glyph-name="hcircumflex" unicode="&#x125;" horiz-adv-x="532" 
d="M286 476c-62 0 -111 -23 -156 -57v-419h-64v733l64 17v-287c44 36 98 67 171 67c106 0 169 -58 169 -167v-363h-64v350c0 95 -52 126 -120 126zM267 877l-90 -93h-64l121 144h64l121 -144h-64z" />
    <glyph glyph-name="ibreve" unicode="&#x12d;" horiz-adv-x="203" 
d="M69 0v520h65v-520h-65zM103 613c-79 0 -134 56 -139 134h53c7 -50 37 -80 86 -80s78 31 85 80h53c-5 -78 -59 -134 -138 -134z" />
    <glyph glyph-name="idotaccent" horiz-adv-x="203" 
d="M67 636v74h69v-74h-69zM69 0v520h65v-520h-65z" />
    <glyph glyph-name="imacron" unicode="&#x12b;" horiz-adv-x="203" 
d="M3 649v55h197v-55h-197zM69 0v520h65v-520h-65z" />
    <glyph glyph-name="iogonek" unicode="&#x12f;" horiz-adv-x="203" 
d="M67 636v74h69v-74h-69zM165 -205c-14 -8 -37 -16 -64 -16c-73 0 -113 37 -113 94c0 51 26 95 81 131v516h65v-520c-51 -33 -82 -77 -82 -115c0 -31 16 -51 57 -51c21 0 37 4 54 13l2 -2v-50z" />
    <glyph glyph-name="itilde" unicode="&#x129;" horiz-adv-x="203" 
d="M69 0v520h65v-520h-65zM161 693c25 0 45 11 66 40l4 -2l21 -42c-17 -27 -49 -52 -90 -52c-58 0 -78 29 -118 29c-29 0 -47 -11 -69 -39l-3 1l-19 45c19 28 52 49 90 49c55 0 74 -29 118 -29z" />
    <glyph glyph-name="jcircumflex" unicode="&#x135;" horiz-adv-x="197" 
d="M-28 -219v57c58 6 94 31 94 129v553h65v-556c0 -130 -60 -177 -159 -183zM99 704l-85 -98h-62l116 147h64l116 -147h-62z" />
    <glyph glyph-name="uni0137" unicode="&#x137;" horiz-adv-x="477" 
d="M200 -199l12 144h71v-6l-30 -138h-53zM392 0l-193 264l-69 -75v-189h-64v733l64 17v-488l237 258h72v-4l-195 -208l217 -303v-5h-69z" />
    <glyph glyph-name="lacute" unicode="&#x13a;" horiz-adv-x="204" 
d="M132 787h-62l94 141h82zM70 0v733l64 17v-750h-64z" />
    <glyph glyph-name="lcaron" unicode="&#x13e;" horiz-adv-x="204" 
d="M186 581l8 158h65v-6l-27 -152h-46zM70 0v733l64 17v-750h-64z" />
    <glyph glyph-name="uni013C" unicode="&#x13c;" horiz-adv-x="204" 
d="M55 -199l12 144h71v-6l-30 -138h-53zM70 0v733l64 17v-750h-64z" />
    <glyph glyph-name="ldot" unicode="&#x140;" horiz-adv-x="281" 
d="M70 0v733l64 17v-750h-64zM206 337v77h73v-77h-73z" />
    <glyph glyph-name="nacute" unicode="&#x144;" horiz-adv-x="532" 
d="M292 606h-63l102 164h81zM286 476c-62 0 -111 -23 -156 -57v-419h-64v520h56l6 -59c44 37 99 69 173 69c106 0 169 -58 169 -167v-363h-64v350c0 95 -52 126 -120 126z" />
    <glyph glyph-name="napostrophe" unicode="&#x149;" horiz-adv-x="543" 
d="M64 705v-6l-49 -173h-48l30 179h67zM298 476c-62 0 -111 -23 -156 -57v-419h-64v520h56l6 -59c44 37 99 69 173 69c106 0 169 -58 169 -167v-363h-64v350c0 95 -52 126 -120 126z" />
    <glyph glyph-name="ncaron" unicode="&#x148;" horiz-adv-x="532" 
d="M270 653l85 98h62l-116 -147h-64l-116 147h62zM286 476c-62 0 -111 -23 -156 -57v-419h-64v520h56l6 -59c44 37 99 69 173 69c106 0 169 -58 169 -167v-363h-64v350c0 95 -52 126 -120 126z" />
    <glyph glyph-name="uni0146" unicode="&#x146;" horiz-adv-x="532" 
d="M221 -199l12 144h71v-6l-30 -138h-53zM286 476c-62 0 -111 -23 -156 -57v-419h-64v520h56l6 -59c44 37 99 69 173 69c106 0 169 -58 169 -167v-363h-64v350c0 95 -52 126 -120 126z" />
    <glyph glyph-name="obreve" unicode="&#x14f;" horiz-adv-x="587" 
d="M293 -10c-149 0 -262 107 -262 271s113 269 262 269c148 0 263 -105 263 -269s-115 -271 -263 -271zM293 46c113 0 198 82 198 215c0 131 -85 213 -198 213s-197 -82 -197 -213c0 -133 84 -215 197 -215zM294 613c-79 0 -134 56 -139 134h53c7 -50 37 -80 86 -80
s78 31 85 80h53c-5 -78 -59 -134 -138 -134z" />
    <glyph glyph-name="ohungarumlaut" unicode="&#x151;" horiz-adv-x="587" 
d="M252 606h-53l65 164h72zM391 606h-53l66 164h72zM293 -10c-149 0 -262 107 -262 271s113 269 262 269c148 0 263 -105 263 -269s-115 -271 -263 -271zM293 46c113 0 198 82 198 215c0 131 -85 213 -198 213s-197 -82 -197 -213c0 -133 84 -215 197 -215z" />
    <glyph glyph-name="omacron" unicode="&#x14d;" horiz-adv-x="587" 
d="M157 649v55h272v-55h-272zM293 -10c-149 0 -262 107 -262 271s113 269 262 269c148 0 263 -105 263 -269s-115 -271 -263 -271zM293 46c113 0 198 82 198 215c0 131 -85 213 -198 213s-197 -82 -197 -213c0 -133 84 -215 197 -215z" />
    <glyph glyph-name="oslashacute" unicode="&#x1ff;" horiz-adv-x="587" 
d="M95 261c0 -60 16 -109 43 -144l271 324c-32 22 -71 33 -116 33c-113 0 -198 -82 -198 -213zM293 46c113 0 199 82 199 215c0 62 -17 112 -48 148l-272 -326c32 -24 74 -37 121 -37zM293 -10c-60 0 -115 18 -158 49l-61 -72l-36 30l62 74c-43 47 -69 112 -69 190
c0 164 113 269 262 269c58 0 110 -16 153 -45l59 71l37 -30l-60 -71c46 -47 74 -113 74 -194c0 -164 -115 -271 -263 -271zM316 606h-63l102 164h81z" />
    <glyph glyph-name="racute" unicode="&#x155;" horiz-adv-x="333" 
d="M214 606h-63l102 164h81zM130 0h-64v520h56l7 -72c31 47 80 79 144 79c16 0 26 -1 42 -4v-58l-4 -3c-11 3 -25 6 -38 6c-69 0 -112 -27 -143 -75v-393z" />
    <glyph glyph-name="rcaron" unicode="&#x159;" horiz-adv-x="333" 
d="M192 653l85 98h62l-116 -147h-64l-116 147h62zM130 0h-64v520h56l7 -72c31 47 80 79 144 79c16 0 26 -1 42 -4v-58l-4 -3c-11 3 -25 6 -38 6c-69 0 -112 -27 -143 -75v-393z" />
    <glyph glyph-name="uni0157" unicode="&#x157;" horiz-adv-x="333" 
d="M47 -199l12 144h71v-6l-30 -138h-53zM130 0h-64v520h56l7 -72c31 47 80 79 144 79c16 0 26 -1 42 -4v-58l-4 -3c-11 3 -25 6 -38 6c-69 0 -112 -27 -143 -75v-393z" />
    <glyph glyph-name="sacute" unicode="&#x15b;" horiz-adv-x="419" 
d="M231 606h-63l102 164h81zM201 -8c-81 0 -134 22 -171 48v64l3 2c45 -36 95 -59 168 -59c74 0 121 34 121 92c0 56 -33 76 -102 96l-50 16c-82 24 -133 65 -133 141c0 86 72 140 174 140c66 0 110 -13 146 -33v-57l-3 -2c-40 23 -88 37 -145 37c-72 0 -107 -33 -107 -80
c0 -49 31 -71 85 -88l51 -15c98 -29 149 -59 149 -150c0 -102 -88 -152 -186 -152z" />
    <glyph glyph-name="uni015F" unicode="&#x15f;" horiz-adv-x="419" 
d="M184 -218c-37 0 -61 11 -74 19v45l3 1c14 -7 36 -18 63 -18c31 0 50 16 50 42c0 30 -32 41 -75 46v78c-54 7 -92 25 -121 45v64l3 2c45 -36 95 -59 168 -59c74 0 121 34 121 92c0 56 -33 76 -102 96l-50 16c-82 24 -133 65 -133 141c0 86 72 140 174 140
c66 0 110 -13 146 -33v-57l-3 -2c-40 23 -88 37 -145 37c-72 0 -107 -33 -107 -80c0 -49 31 -71 85 -88l51 -15c98 -29 149 -59 149 -150c0 -102 -88 -152 -186 -152v-41c46 -9 85 -26 85 -82c0 -53 -39 -87 -102 -87z" />
    <glyph glyph-name="scircumflex" unicode="&#x15d;" horiz-adv-x="419" 
d="M207 704l-85 -98h-62l116 147h64l116 -147h-62zM201 -8c-81 0 -134 22 -171 48v64l3 2c45 -36 95 -59 168 -59c74 0 121 34 121 92c0 56 -33 76 -102 96l-50 16c-82 24 -133 65 -133 141c0 86 72 140 174 140c66 0 110 -13 146 -33v-57l-3 -2c-40 23 -88 37 -145 37
c-72 0 -107 -33 -107 -80c0 -49 31 -71 85 -88l51 -15c98 -29 149 -59 149 -150c0 -102 -88 -152 -186 -152z" />
    <glyph glyph-name="uni0219" unicode="&#x219;" horiz-adv-x="419" 
d="M154 -199l12 144h71v-6l-30 -138h-53zM201 -8c-81 0 -134 22 -171 48v64l3 2c45 -36 95 -59 168 -59c74 0 121 34 121 92c0 56 -33 76 -102 96l-50 16c-82 24 -133 65 -133 141c0 86 72 140 174 140c66 0 110 -13 146 -33v-57l-3 -2c-40 23 -88 37 -145 37
c-72 0 -107 -33 -107 -80c0 -49 31 -71 85 -88l51 -15c98 -29 149 -59 149 -150c0 -102 -88 -152 -186 -152z" />
    <glyph glyph-name="tbar" unicode="&#x167;" horiz-adv-x="341" 
d="M310 5c-20 -7 -49 -13 -80 -13c-70 0 -132 33 -132 120v187h-72v48h72v119h-72v54h72v94l65 11v-105h135v-54h-135v-119h135v-48h-135v-180c0 -52 31 -72 80 -72c21 0 45 4 64 10l3 -2v-50z" />
    <glyph glyph-name="tcaron" unicode="&#x165;" horiz-adv-x="343" 
d="M225 581l8 158h65v-6l-27 -152h-46zM310 5c-20 -7 -49 -13 -80 -13c-70 0 -132 33 -132 120v354h-72v54h72v94l65 11v-105h135v-54h-135v-347c0 -52 31 -72 80 -72c21 0 45 4 64 10l3 -2v-50z" />
    <glyph glyph-name="tcommaaccent" unicode="&#x163;" horiz-adv-x="341" 
d="M310 5c-20 -7 -49 -13 -80 -13c-70 0 -132 33 -132 120v354h-72v54h72v94l65 11v-105h135v-54h-135v-347c0 -52 31 -72 80 -72c21 0 45 4 64 10l3 -2v-50zM139 -199l12 144h71v-6l-30 -138h-53z" />
    <glyph glyph-name="uni021B" unicode="&#x21b;" horiz-adv-x="341" 
d="M310 5c-20 -7 -49 -13 -80 -13c-70 0 -132 33 -132 120v354h-72v54h72v94l65 11v-105h135v-54h-135v-347c0 -52 31 -72 80 -72c21 0 45 4 64 10l3 -2v-50zM139 -199l12 144h71v-6l-30 -138h-53z" />
    <glyph glyph-name="ubreve" unicode="&#x16d;" horiz-adv-x="536" 
d="M414 0l-6 59c-45 -37 -102 -69 -176 -69c-106 0 -172 56 -172 164v366h64v-353c0 -94 55 -123 123 -123c62 0 113 22 159 57v419h64v-520h-56zM268 613c-79 0 -134 56 -139 134h53c7 -50 37 -80 86 -80s78 31 85 80h53c-5 -78 -59 -134 -138 -134z" />
    <glyph glyph-name="uhungarumlaut" unicode="&#x171;" horiz-adv-x="536" 
d="M414 0l-6 59c-45 -37 -102 -69 -176 -69c-106 0 -172 56 -172 164v366h64v-353c0 -94 55 -123 123 -123c62 0 113 22 159 57v419h64v-520h-56zM226 606h-53l65 164h72zM365 606h-53l66 164h72z" />
    <glyph glyph-name="umacron" unicode="&#x16b;" horiz-adv-x="536" 
d="M414 0l-6 59c-45 -37 -102 -69 -176 -69c-106 0 -172 56 -172 164v366h64v-353c0 -94 55 -123 123 -123c62 0 113 22 159 57v419h64v-520h-56zM131 649v55h272v-55h-272z" />
    <glyph glyph-name="uogonek" unicode="&#x173;" horiz-adv-x="536" 
d="M498 -205c-14 -8 -37 -16 -64 -16c-76 0 -116 38 -116 94c0 52 30 95 95 133l-5 53c-45 -37 -102 -69 -176 -69c-106 0 -172 56 -172 164v366h64v-353c0 -94 55 -123 123 -123c62 0 113 22 159 57v419h64v-520c-55 -34 -88 -77 -88 -114c0 -32 16 -52 59 -52
c21 0 39 4 55 13l2 -2v-50z" />
    <glyph glyph-name="uring" unicode="&#x16f;" horiz-adv-x="536" 
d="M267 589c-62 0 -105 43 -105 103c0 59 43 102 105 102s105 -43 105 -102c0 -60 -43 -103 -105 -103zM267 752c-35 0 -57 -25 -57 -60s22 -61 57 -61c36 0 58 26 58 61s-22 60 -58 60zM414 0l-6 59c-45 -37 -102 -69 -176 -69c-106 0 -172 56 -172 164v366h64v-353
c0 -94 55 -123 123 -123c62 0 113 22 159 57v419h64v-520h-56z" />
    <glyph glyph-name="utilde" unicode="&#x169;" horiz-adv-x="536" 
d="M414 0l-6 59c-45 -37 -102 -69 -176 -69c-106 0 -172 56 -172 164v366h64v-353c0 -94 55 -123 123 -123c62 0 113 22 159 57v419h64v-520h-56zM327 693c25 0 45 11 66 40l4 -2l21 -42c-17 -27 -49 -52 -90 -52c-58 0 -78 29 -118 29c-29 0 -47 -11 -69 -39l-3 1l-19 45
c19 28 52 49 90 49c55 0 74 -29 118 -29z" />
    <glyph glyph-name="wacute" unicode="&#x1e83;" horiz-adv-x="705" 
d="M507 -10l-155 407l-152 -407h-15l-172 526v4h67l119 -384l145 389h19l145 -390l119 385h65v-4l-170 -526h-15zM375 606h-63l102 164h81z" />
    <glyph glyph-name="wcircumflex" unicode="&#x175;" horiz-adv-x="705" 
d="M507 -10l-155 407l-152 -407h-15l-172 526v4h67l119 -384l145 389h19l145 -390l119 385h65v-4l-170 -526h-15zM352 704l-85 -98h-62l116 147h64l116 -147h-62z" />
    <glyph glyph-name="wdieresis" unicode="&#x1e85;" horiz-adv-x="705" 
d="M507 -10l-155 407l-152 -407h-15l-172 526v4h67l119 -384l145 389h19l145 -390l119 385h65v-4l-170 -526h-15zM234 637v74h70v-74h-70zM402 637v74h70v-74h-70z" />
    <glyph glyph-name="wgrave" unicode="&#x1e81;" horiz-adv-x="705" 
d="M507 -10l-155 407l-152 -407h-15l-172 526v4h67l119 -384l145 389h19l145 -390l119 385h65v-4l-170 -526h-15zM332 606l-120 164h81l102 -164h-63z" />
    <glyph glyph-name="ycircumflex" unicode="&#x177;" horiz-adv-x="485" 
d="M48 -219v59c74 10 111 45 138 111l28 72l-206 493v4h68l172 -422l164 422h65v-4l-230 -579c-41 -102 -98 -148 -199 -156zM248 704l-85 -98h-62l116 147h64l116 -147h-62z" />
    <glyph glyph-name="ygrave" unicode="&#x1ef3;" horiz-adv-x="485" 
d="M48 -219v59c74 10 111 45 138 111l28 72l-206 493v4h68l172 -422l164 422h65v-4l-230 -579c-41 -102 -98 -148 -199 -156zM230 606l-120 164h81l102 -164h-63z" />
    <glyph glyph-name="zacute" unicode="&#x17a;" horiz-adv-x="453" 
d="M261 606h-63l102 164h81zM419 0h-398v17l309 449h-274v54h372v-16l-311 -450h302v-54z" />
    <glyph glyph-name="zdotaccent" unicode="&#x17c;" horiz-adv-x="453" 
d="M419 0h-398v17l309 449h-274v54h372v-16l-311 -450h302v-54zM202 635v78h73v-78h-73z" />
    <glyph glyph-name="breve_acute" 
d="M217 766h-58l75 122h77zM200 613c-79 0 -134 56 -139 134h53c7 -50 37 -80 86 -80s78 31 85 80h53c-5 -78 -59 -134 -138 -134z" />
    <glyph glyph-name="breve_grave" 
d="M183 766l-94 122h77l75 -122h-58zM200 613c-79 0 -134 56 -139 134h53c7 -50 37 -80 86 -80s78 31 85 80h53c-5 -78 -59 -134 -138 -134z" />
    <glyph glyph-name="breve_hook" 
d="M120 902c12 7 39 18 80 18c63 0 102 -23 102 -67c0 -59 -85 -67 -85 -89v-2h-54v3c0 48 81 53 81 85c0 18 -18 26 -53 26c-31 0 -54 -9 -69 -17l-2 1v42zM200 613c-79 0 -134 56 -139 134h53c7 -50 37 -80 86 -80s78 31 85 80h53c-5 -78 -59 -134 -138 -134z" />
    <glyph glyph-name="breve_tilde" 
d="M253 853c24 0 41 11 61 40l4 -2l19 -42c-15 -27 -43 -53 -82 -53c-49 0 -76 30 -107 30c-28 0 -43 -11 -63 -39l-3 1l-18 45c18 28 47 49 83 49c46 0 71 -29 106 -29zM200 613c-79 0 -134 56 -139 134h53c7 -50 37 -80 86 -80s78 31 85 80h53c-5 -78 -59 -134 -138 -134z
" />
    <glyph glyph-name="circumflex_acute" 
d="M366 713h-59l71 116h77zM199 704l-85 -98h-62l116 147h64l116 -147h-62z" />
    <glyph glyph-name="circumflex_grave" 
d="M349 713l-90 116h78l70 -116h-58zM199 704l-85 -98h-62l116 147h64l116 -147h-62z" />
    <glyph glyph-name="circumflex_hook" 
d="M279 842c12 8 37 19 77 19c60 0 93 -21 93 -68c0 -57 -76 -67 -76 -89v-2h-51v4c0 48 72 55 72 85c0 19 -14 27 -47 27c-30 0 -52 -9 -66 -17l-2 1v40zM199 704l-85 -98h-62l116 147h64l116 -147h-62z" />
    <glyph glyph-name="circumflex_tilde" 
d="M259 853c24 0 40 11 60 40l4 -2l19 -42c-15 -27 -43 -53 -82 -53c-49 0 -76 30 -107 30c-28 0 -43 -11 -63 -39l-3 1l-18 45c18 28 47 49 83 49c46 0 71 -29 107 -29zM199 704l-85 -98h-62l116 147h64l116 -147h-62z" />
    <glyph glyph-name="space_uni0326" 
d="M152 -199l12 144h71v-6l-30 -138h-53z" />
    <glyph glyph-name="oneeighth" unicode="&#x215b;" horiz-adv-x="741" 
d="M585 -6c-81 0 -135 40 -135 102c0 48 38 78 80 93c-42 19 -70 49 -70 94c0 62 55 98 121 98c70 0 124 -30 124 -97c0 -42 -32 -69 -68 -85c48 -20 80 -49 80 -100c0 -65 -50 -105 -132 -105zM591 214l5 -1c34 16 57 38 57 68c0 38 -29 58 -70 58s-68 -21 -68 -54
c0 -34 27 -54 76 -71zM584 36c50 0 77 25 77 61c0 37 -30 57 -86 76l-5 2c-35 -15 -66 -35 -66 -75s30 -64 80 -64zM157 313h-56v311l-75 -42l-2 1v50l114 62h19v-382zM55 0l514 690h58l-514 -690h-58z" />
    <glyph glyph-name="onethird" unicode="&#x2153;" horiz-adv-x="730" 
d="M571 -6c-55 0 -87 16 -110 29v47l3 2c28 -19 55 -31 101 -31c52 0 80 28 80 68c0 38 -26 65 -81 65h-44v43h41c50 0 71 26 71 61c0 38 -26 58 -72 58c-39 0 -61 -10 -87 -26l-2 2v45c23 14 50 24 98 24c67 0 120 -32 120 -97c0 -43 -25 -72 -64 -86c49 -11 77 -42 77 -92
c0 -69 -49 -112 -131 -112zM157 313h-56v311l-75 -42l-2 1v50l114 62h19v-382zM56 0l514 690h58l-514 -690h-58z" />
    <glyph glyph-name="threeeighths" unicode="&#x215c;" horiz-adv-x="794" 
d="M638 -6c-81 0 -135 40 -135 102c0 48 38 78 80 93c-42 19 -70 49 -70 94c0 62 55 98 121 98c70 0 124 -30 124 -97c0 -42 -32 -69 -68 -85c48 -20 80 -49 80 -100c0 -65 -50 -105 -132 -105zM644 214l5 -1c34 16 57 38 57 68c0 38 -29 58 -70 58s-68 -21 -68 -54
c0 -34 27 -54 76 -71zM637 36c50 0 77 25 77 61c0 37 -30 57 -86 76l-5 2c-35 -15 -66 -35 -66 -75s30 -64 80 -64zM107 0l514 690h58l-514 -690h-58zM130 307c-55 0 -87 16 -110 29v47l3 2c28 -19 55 -31 101 -31c52 0 80 28 80 68c0 38 -26 65 -81 65h-44v43h41
c50 0 71 26 71 61c0 38 -26 58 -72 58c-39 0 -61 -10 -87 -26l-2 2v45c23 14 50 24 98 24c67 0 120 -32 120 -97c0 -43 -25 -72 -64 -86c49 -11 77 -42 77 -92c0 -69 -49 -112 -131 -112z" />
    <glyph glyph-name="fiveeighths" unicode="&#x215d;" horiz-adv-x="786" 
d="M630 -6c-81 0 -135 40 -135 102c0 48 38 78 80 93c-42 19 -70 49 -70 94c0 62 55 98 121 98c70 0 124 -30 124 -97c0 -42 -32 -69 -68 -85c48 -20 80 -49 80 -100c0 -65 -50 -105 -132 -105zM636 214l5 -1c34 16 57 38 57 68c0 38 -29 58 -70 58s-68 -21 -68 -54
c0 -34 27 -54 76 -71zM629 36c50 0 77 25 77 61c0 37 -30 57 -86 76l-5 2c-35 -15 -66 -35 -66 -75s30 -64 80 -64zM100 0l514 690h58l-514 -690h-58zM124 307c-47 0 -82 13 -104 27v46l3 2c27 -18 54 -29 93 -29c58 0 87 30 87 76c0 47 -31 71 -89 71c-34 0 -57 -7 -74 -12
l-2 2v198h204v-44h-156v-105c13 3 28 5 44 5c81 0 130 -42 130 -113c0 -74 -51 -124 -136 -124z" />
    <glyph glyph-name="twothirds" unicode="&#x2154;" horiz-adv-x="771" 
d="M9 313v19l128 141c34 37 56 72 56 111c0 38 -22 63 -72 63c-38 0 -63 -11 -91 -28l-2 2v47c24 15 55 26 102 26c74 0 120 -39 120 -105c0 -53 -31 -96 -71 -143l-83 -89h159v-44h-246zM612 -6c-55 0 -87 16 -110 29v47l3 2c28 -19 55 -31 101 -31c52 0 80 28 80 68
c0 38 -26 65 -81 65h-44v43h41c50 0 71 26 71 61c0 38 -26 58 -72 58c-39 0 -61 -10 -87 -26l-2 2v45c23 14 50 24 98 24c67 0 120 -32 120 -97c0 -43 -25 -72 -64 -86c49 -11 77 -42 77 -92c0 -69 -49 -112 -131 -112zM96 0l514 690h58l-514 -690h-58z" />
    <glyph glyph-name="seveneighths" unicode="&#x215e;" horiz-adv-x="751" 
d="M123 313h-59c16 80 56 161 94 236l47 93h-188v46h258v-19l-65 -129c-39 -77 -75 -159 -87 -227zM595 -6c-81 0 -135 40 -135 102c0 48 38 78 80 93c-42 19 -70 49 -70 94c0 62 55 98 121 98c70 0 124 -30 124 -97c0 -42 -32 -69 -68 -85c48 -20 80 -49 80 -100
c0 -65 -50 -105 -132 -105zM601 214l5 -1c34 16 57 38 57 68c0 38 -29 58 -70 58s-68 -21 -68 -54c0 -34 27 -54 76 -71zM594 36c50 0 77 25 77 61c0 37 -30 57 -86 76l-5 2c-35 -15 -66 -35 -66 -75s30 -64 80 -64zM57 0l514 690h58l-514 -690h-58z" />
    <glyph glyph-name="uni2032" unicode="&#x2032;" horiz-adv-x="158" 
d="M123 705l-46 -189h-47l26 189h67z" />
    <glyph glyph-name="uni2033" unicode="&#x2033;" horiz-adv-x="277" 
d="M123 705l-46 -189h-47l26 189h67zM242 705l-47 -189h-46l26 189h67z" />
    <glyph glyph-name="uni24C5" unicode="&#x24c5;" horiz-adv-x="795" 
d="M38 352c0 213 157 365 360 365s360 -152 360 -365c0 -211 -157 -364 -360 -364s-360 153 -360 364zM713 352c0 188 -134 326 -315 326c-180 0 -316 -138 -316 -326c0 -185 136 -325 316 -325c181 0 315 140 315 325zM405 502h-67v-139h70c52 0 79 24 79 71s-27 68 -82 68
zM412 317h-74v-154h-57v385h124c91 0 140 -37 140 -115c0 -80 -53 -116 -133 -116z" />
    <glyph glyph-name="zero.num" horiz-adv-x="350" 
d="M175 307c-88 0 -153 74 -153 195s65 192 153 192c89 0 152 -71 153 -192c0 -121 -64 -195 -153 -195zM175 353c56 0 93 52 93 149s-37 146 -93 146c-55 0 -93 -49 -93 -146s38 -149 93 -149z" />
    <glyph glyph-name="one.num" horiz-adv-x="195" 
d="M143 313h-56v311l-75 -42l-2 1v50l114 62h19v-382z" />
    <glyph glyph-name="two.num" horiz-adv-x="275" 
d="M5 313v19l128 141c34 37 56 72 56 111c0 38 -22 63 -72 63c-38 0 -63 -11 -91 -28l-2 2v47c24 15 55 26 102 26c74 0 120 -39 120 -105c0 -53 -31 -96 -71 -143l-83 -89h159v-44h-246z" />
    <glyph glyph-name="three.num" horiz-adv-x="279" 
d="M127 307c-55 0 -87 16 -110 29v47l3 2c28 -19 55 -31 101 -31c52 0 80 28 80 68c0 38 -26 65 -81 65h-44v43h41c50 0 71 26 71 61c0 38 -26 58 -72 58c-39 0 -61 -10 -87 -26l-2 2v45c23 14 50 24 98 24c67 0 120 -32 120 -97c0 -43 -25 -72 -64 -86
c49 -11 77 -42 77 -92c0 -69 -49 -112 -131 -112z" />
    <glyph glyph-name="four.num" horiz-adv-x="305" 
d="M186 435v156l-117 -156h117zM294 392h-54v-79h-54v79h-184v23l211 281h27v-261h54v-43z" />
    <glyph glyph-name="five.num" horiz-adv-x="278" 
d="M121 307c-47 0 -82 13 -104 27v46l3 2c27 -18 54 -29 93 -29c58 0 87 30 87 76c0 47 -31 71 -89 71c-34 0 -57 -7 -74 -12l-2 2v198h204v-44h-156v-105c13 3 28 5 44 5c81 0 130 -42 130 -113c0 -74 -51 -124 -136 -124z" />
    <glyph glyph-name="six.num" horiz-adv-x="311" 
d="M295 430c0 -67 -44 -123 -128 -123c-92 0 -144 66 -144 180c0 140 75 207 167 207c33 0 60 -5 81 -18v-48l-3 -1c-19 13 -43 21 -73 21c-62 0 -108 -42 -113 -138c19 19 51 36 96 36c63 0 117 -39 117 -116zM166 351c50 0 71 36 71 79c0 52 -31 75 -75 75
c-35 0 -61 -14 -81 -32c3 -81 30 -122 85 -122z" />
    <glyph glyph-name="seven.num" horiz-adv-x="277" 
d="M119 313h-59c16 80 56 161 94 236l47 93h-188v46h258v-19l-65 -129c-39 -77 -75 -159 -87 -227z" />
    <glyph glyph-name="eight.num" horiz-adv-x="302" 
d="M153 307c-81 0 -135 40 -135 102c0 48 38 78 80 93c-42 19 -70 49 -70 94c0 62 55 98 121 98c70 0 124 -30 124 -97c0 -42 -32 -69 -68 -85c48 -20 80 -49 80 -100c0 -65 -50 -105 -132 -105zM159 527l5 -1c34 16 57 38 57 68c0 38 -29 58 -70 58s-68 -21 -68 -54
c0 -34 27 -54 76 -71zM152 349c50 0 77 25 77 61c0 37 -30 57 -86 76l-5 2c-35 -15 -66 -35 -66 -75s30 -64 80 -64z" />
    <glyph glyph-name="nine.num" horiz-adv-x="311" 
d="M148 497c35 0 62 13 82 30c-3 82 -29 123 -83 123c-50 0 -73 -35 -73 -78c0 -52 29 -75 74 -75zM117 307c-34 0 -61 6 -82 19v47l3 1c19 -12 43 -21 75 -21c70 0 111 38 116 138c-19 -19 -49 -35 -96 -35c-65 0 -117 38 -117 116c0 67 46 122 129 122
c92 0 142 -64 142 -179c0 -147 -68 -208 -170 -208z" />
    <glyph glyph-name="zero.den" horiz-adv-x="350" 
d="M175 -6c-88 0 -153 74 -153 195s65 192 153 192c89 0 152 -71 153 -192c0 -121 -64 -195 -153 -195zM175 40c56 0 93 52 93 149s-37 146 -93 146c-55 0 -93 -49 -93 -146s38 -149 93 -149z" />
    <glyph glyph-name="one.den" horiz-adv-x="195" 
d="M143 0h-56v311l-75 -42l-2 1v50l114 62h19v-382z" />
    <glyph glyph-name="two.den" horiz-adv-x="275" 
d="M5 0v19l128 141c34 37 56 72 56 111c0 38 -22 63 -72 63c-38 0 -63 -11 -91 -28l-2 2v47c24 15 55 26 102 26c74 0 120 -39 120 -105c0 -53 -31 -96 -71 -143l-83 -89h159v-44h-246z" />
    <glyph glyph-name="three.den" horiz-adv-x="279" 
d="M127 -6c-55 0 -87 16 -110 29v47l3 2c28 -19 55 -31 101 -31c52 0 80 28 80 68c0 38 -26 65 -81 65h-44v43h41c50 0 71 26 71 61c0 38 -26 58 -72 58c-39 0 -61 -10 -87 -26l-2 2v45c23 14 50 24 98 24c67 0 120 -32 120 -97c0 -43 -25 -72 -64 -86c49 -11 77 -42 77 -92
c0 -69 -49 -112 -131 -112z" />
    <glyph glyph-name="four.den" horiz-adv-x="305" 
d="M186 122v156l-117 -156h117zM294 79h-54v-79h-54v79h-184v23l211 281h27v-261h54v-43z" />
    <glyph glyph-name="five.den" horiz-adv-x="278" 
d="M121 -6c-47 0 -82 13 -104 27v46l3 2c27 -18 54 -29 93 -29c58 0 87 30 87 76c0 47 -31 71 -89 71c-34 0 -57 -7 -74 -12l-2 2v198h204v-44h-156v-105c13 3 28 5 44 5c82 0 130 -42 130 -113c0 -74 -51 -124 -136 -124z" />
    <glyph glyph-name="six.den" horiz-adv-x="311" 
d="M295 117c0 -67 -44 -123 -128 -123c-92 0 -144 66 -144 180c0 140 75 207 167 207c33 0 60 -5 81 -18v-48l-3 -1c-19 13 -43 21 -73 21c-62 0 -108 -42 -113 -138c19 19 51 36 96 36c63 0 117 -39 117 -116zM166 38c50 0 71 36 71 79c0 52 -31 75 -75 75
c-35 0 -61 -14 -81 -32c3 -81 30 -122 85 -122z" />
    <glyph glyph-name="seven.den" horiz-adv-x="277" 
d="M119 0h-59c16 80 56 161 94 236l47 93h-188v46h258v-19l-65 -129c-39 -77 -75 -159 -87 -227z" />
    <glyph glyph-name="eight.den" horiz-adv-x="302" 
d="M153 -6c-81 0 -135 40 -135 102c0 48 38 78 80 93c-42 19 -70 49 -70 94c0 62 55 98 121 98c70 0 124 -30 124 -97c0 -42 -32 -69 -68 -85c48 -20 80 -49 80 -100c0 -65 -50 -105 -132 -105zM159 214l5 -1c34 16 57 38 57 68c0 38 -29 58 -70 58s-68 -21 -68 -54
c0 -34 27 -54 76 -71zM152 36c50 0 77 25 77 61c0 37 -30 57 -86 76l-5 2c-35 -15 -66 -35 -66 -75s30 -64 80 -64z" />
    <glyph glyph-name="nine.den" horiz-adv-x="311" 
d="M148 184c35 0 62 13 82 30c-3 82 -29 123 -83 123c-50 0 -73 -35 -73 -78c0 -52 29 -75 74 -75zM117 -6c-34 0 -61 6 -82 19v47l3 1c19 -12 43 -21 75 -21c70 0 111 38 116 138c-19 -19 -49 -35 -96 -35c-65 0 -117 38 -117 116c0 67 46 122 129 122
c92 0 142 -64 142 -179c0 -147 -68 -208 -170 -208z" />
    <glyph glyph-name="zero.sub" horiz-adv-x="350" 
d="M175 -96c-88 0 -153 74 -153 195s65 192 153 192c89 0 152 -71 153 -192c0 -121 -64 -195 -153 -195zM175 -50c56 0 93 52 93 149s-37 146 -93 146c-55 0 -93 -49 -93 -146s38 -149 93 -149z" />
    <glyph glyph-name="one.sub" horiz-adv-x="195" 
d="M143 -90h-56v311l-75 -42l-2 1v50l114 62h19v-382z" />
    <glyph glyph-name="two.sub" horiz-adv-x="275" 
d="M5 -90v19l128 141c34 37 56 72 56 111c0 38 -22 63 -72 63c-38 0 -63 -11 -91 -28l-2 2v47c24 15 55 26 102 26c74 0 120 -39 120 -105c0 -53 -31 -96 -71 -143l-83 -89h159v-44h-246z" />
    <glyph glyph-name="three.sub" horiz-adv-x="279" 
d="M127 -96c-55 0 -87 16 -110 29v47l3 2c28 -19 55 -31 101 -31c52 0 80 28 80 68c0 38 -26 65 -81 65h-44v43h41c50 0 71 26 71 61c0 38 -26 58 -72 58c-39 0 -61 -10 -87 -26l-2 2v45c23 14 50 24 98 24c67 0 120 -32 120 -97c0 -43 -25 -72 -64 -86
c49 -11 77 -42 77 -92c0 -69 -49 -112 -131 -112z" />
    <glyph glyph-name="four.sub" horiz-adv-x="305" 
d="M186 32v156l-117 -156h117zM294 -11h-54v-79h-54v79h-184v23l211 281h27v-261h54v-43z" />
    <glyph glyph-name="five.sub" horiz-adv-x="278" 
d="M121 -99c-47 0 -82 13 -104 27v46l3 2c27 -18 54 -29 93 -29c58 0 87 30 87 76c0 47 -31 71 -89 71c-34 0 -57 -7 -74 -12l-2 2v198h204v-44h-156v-105c13 3 28 5 44 5c81 0 130 -42 130 -113c0 -74 -51 -124 -136 -124z" />
    <glyph glyph-name="six.sub" horiz-adv-x="311" 
d="M295 27c0 -67 -44 -123 -128 -123c-92 0 -144 66 -144 180c0 140 75 207 167 207c33 0 60 -5 81 -18v-48l-3 -1c-19 13 -43 21 -73 21c-62 0 -108 -42 -113 -138c19 19 51 36 96 36c63 0 117 -39 117 -116zM166 -52c50 0 71 36 71 79c0 52 -31 75 -75 75
c-35 0 -61 -14 -81 -32c3 -81 30 -122 85 -122z" />
    <glyph glyph-name="seven.sub" horiz-adv-x="277" 
d="M119 -90h-59c16 80 56 161 94 236l47 93h-188v46h258v-19l-65 -129c-39 -77 -75 -159 -87 -227z" />
    <glyph glyph-name="eight.sub" horiz-adv-x="302" 
d="M153 -96c-81 0 -135 40 -135 102c0 48 38 78 80 93c-42 19 -70 49 -70 94c0 62 55 98 121 98c70 0 124 -30 124 -97c0 -42 -32 -69 -68 -85c48 -20 80 -49 80 -100c0 -65 -50 -105 -132 -105zM159 124l5 -1c34 16 57 38 57 68c0 38 -29 58 -70 58s-68 -21 -68 -54
c0 -34 27 -54 76 -71zM152 -54c50 0 77 25 77 61c0 37 -30 57 -86 76l-5 2c-35 -15 -66 -35 -66 -75s30 -64 80 -64z" />
    <glyph glyph-name="nine.sub" horiz-adv-x="311" 
d="M148 94c35 0 62 13 82 30c-3 82 -29 123 -83 123c-50 0 -73 -35 -73 -78c0 -52 29 -75 74 -75zM117 -96c-34 0 -61 6 -82 19v47l3 1c19 -12 43 -21 75 -21c70 0 111 38 116 138c-19 -19 -49 -35 -96 -35c-65 0 -117 38 -117 116c0 67 46 122 129 122
c92 0 142 -64 142 -179c0 -147 -68 -208 -170 -208z" />
    <glyph glyph-name="plus.sub" horiz-adv-x="325" 
d="M140 -46v121h-110v44h110v121h46v-121h109v-44h-109v-121h-46z" />
    <glyph glyph-name="minus.sub" horiz-adv-x="325" 
d="M30 75v44h265v-44h-265z" />
    <glyph glyph-name="zero.sup" horiz-adv-x="350" 
d="M175 367c-88 0 -153 74 -153 195s65 192 153 192c89 0 152 -71 153 -192c0 -121 -64 -195 -153 -195zM175 413c56 0 93 52 93 149s-37 146 -93 146c-55 0 -93 -49 -93 -146s38 -149 93 -149z" />
    <glyph glyph-name="one.sup" horiz-adv-x="195" 
d="M143 373h-56v311l-75 -42l-2 1v50l114 62h19v-382z" />
    <glyph glyph-name="two.sup" horiz-adv-x="275" 
d="M5 373v19l128 141c34 37 56 72 56 111c0 38 -22 63 -72 63c-38 0 -63 -11 -91 -28l-2 2v47c24 15 55 26 102 26c74 0 120 -39 120 -105c0 -53 -31 -96 -71 -143l-83 -89h159v-44h-246z" />
    <glyph glyph-name="three.sup" horiz-adv-x="279" 
d="M127 367c-55 0 -87 16 -110 29v47l3 2c28 -19 55 -31 101 -31c52 0 80 28 80 68c0 38 -26 65 -81 65h-44v43h41c50 0 71 26 71 61c0 38 -26 58 -72 58c-39 0 -61 -10 -87 -26l-2 2v45c23 14 50 24 98 24c67 0 120 -32 120 -97c0 -43 -25 -72 -64 -86
c49 -11 77 -42 77 -92c0 -69 -49 -112 -131 -112z" />
    <glyph glyph-name="four.sup" horiz-adv-x="305" 
d="M186 495v156l-117 -156h117zM294 452h-54v-79h-54v79h-184v23l211 281h27v-261h54v-43z" />
    <glyph glyph-name="five.sup" horiz-adv-x="278" 
d="M121 367c-47 0 -82 13 -104 27v46l3 2c27 -18 54 -29 93 -29c58 0 87 30 87 76c0 47 -31 71 -89 71c-34 0 -57 -7 -74 -12l-2 2v198h204v-44h-156v-105c13 3 28 5 44 5c81 0 130 -42 130 -113c0 -74 -51 -124 -136 -124z" />
    <glyph glyph-name="six.sup" horiz-adv-x="311" 
d="M295 490c0 -67 -44 -123 -128 -123c-92 0 -144 66 -144 180c0 140 75 207 167 207c33 0 60 -5 81 -18v-48l-3 -1c-19 13 -43 21 -73 21c-62 0 -108 -42 -113 -138c19 19 51 36 96 36c63 0 117 -39 117 -116zM166 411c50 0 71 36 71 79c0 52 -31 75 -75 75
c-35 0 -61 -14 -81 -32c3 -81 30 -122 85 -122z" />
    <glyph glyph-name="seven.sup" horiz-adv-x="277" 
d="M119 373h-59c16 80 56 161 94 236l47 93h-188v46h258v-19l-65 -129c-39 -77 -75 -159 -87 -227z" />
    <glyph glyph-name="eight.sup" horiz-adv-x="302" 
d="M153 367c-81 0 -135 40 -135 102c0 48 38 78 80 93c-42 19 -70 49 -70 94c0 62 55 98 121 98c70 0 124 -30 124 -97c0 -42 -32 -69 -68 -85c48 -20 80 -49 80 -100c0 -65 -50 -105 -132 -105zM159 587l5 -1c34 16 57 38 57 68c0 38 -29 58 -70 58s-68 -21 -68 -54
c0 -34 27 -54 76 -71zM152 409c50 0 77 25 77 61c0 37 -30 57 -86 76l-5 2c-35 -15 -66 -35 -66 -75s30 -64 80 -64z" />
    <glyph glyph-name="nine.sup" horiz-adv-x="311" 
d="M148 557c35 0 62 13 82 30c-3 82 -29 123 -83 123c-50 0 -73 -35 -73 -78c0 -52 29 -75 74 -75zM117 367c-34 0 -61 6 -82 19v47l3 1c19 -12 43 -21 75 -21c70 0 111 38 116 138c-19 -19 -49 -35 -96 -35c-65 0 -117 38 -117 116c0 67 46 122 129 122
c92 0 142 -64 142 -179c0 -147 -68 -208 -170 -208z" />
    <glyph glyph-name="plus.sup" horiz-adv-x="325" 
d="M140 417v121h-110v44h110v121h46v-121h109v-44h-109v-121h-46z" />
    <glyph glyph-name="minus.sup" horiz-adv-x="325" 
d="M30 538v44h265v-44h-265z" />
    <glyph glyph-name="J.alt" unicode="&#xe489;" horiz-adv-x="369" 
d="M116 -5c-40 0 -71 7 -99 21v55l4 2c20 -11 52 -19 86 -19c80 0 124 36 124 136v515h67v-518c0 -146 -85 -192 -182 -192z" />
    <glyph glyph-name="K.alt" unicode="&#xe48a;" horiz-adv-x="571" 
d="M80 0v705h68v-705h-68zM555 0h-77l-309 366l287 339h73v-4l-282 -330l308 -367v-4z" />
    <glyph glyph-name="M.alt" unicode="&#xe48c;" horiz-adv-x="839" 
d="M712 0l-58 527l-229 -534h-19l-228 532l-53 -525h-65l74 714h26l258 -593l256 593h24l81 -714h-67z" />
    <glyph glyph-name="Q.alt" unicode="&#xe490;" horiz-adv-x="769" 
d="M385 49c65 0 121 18 165 51l-140 144l1 8h74l108 -111c44 53 68 126 68 214c0 182 -114 301 -276 301c-161 0 -277 -119 -277 -301s116 -306 277 -306zM647 0l-56 58c-57 -43 -128 -68 -206 -68c-199 0 -348 158 -348 365s149 360 348 360s347 -153 347 -360
c0 -102 -36 -193 -97 -257l87 -90l-2 -8h-73z" />
    <glyph glyph-name="W.alt" unicode="&#xe496;" horiz-adv-x="894" 
d="M645 -10l-198 568l-198 -568h-15l-219 711v4h70l163 -549l192 555h17l194 -554l161 548h67v-4l-219 -711h-15z" />
    <glyph glyph-name="IJ.alt" horiz-adv-x="594" 
d="M82 0v705h68v-705h-68zM345 -5c-40 0 -71 7 -99 21v55l4 2c20 -11 52 -19 86 -19c80 0 124 36 124 136v515h67v-518c0 -146 -85 -192 -182 -192z" />
    <glyph glyph-name="a.alt" unicode="&#xe4c0;" horiz-adv-x="566" 
d="M450 0l-9 75c-40 -53 -98 -86 -175 -86c-132 0 -235 98 -235 265c0 168 104 277 242 277c71 0 125 -28 165 -80l6 69h56v-520h-50zM271 45c77 0 124 29 164 75v283c-40 47 -85 72 -159 72c-95 0 -180 -74 -180 -221c0 -145 84 -209 175 -209z" />
    <glyph glyph-name="g.alt" unicode="&#xe4c6;" horiz-adv-x="570" 
d="M273 45c78 0 128 29 169 76v281c-41 48 -90 73 -164 73c-100 0 -182 -75 -182 -222c0 -144 80 -208 177 -208zM265 -220c-77 0 -143 16 -187 42v58l3 2c44 -26 110 -45 177 -45c117 0 184 49 184 149v83c-42 -49 -100 -80 -174 -80c-138 0 -237 98 -237 264
c0 169 100 278 244 278c72 0 128 -28 169 -80l4 69h58v-530c0 -159 -112 -210 -241 -210z" />
    <glyph glyph-name="k.alt" unicode="&#xe4ca;" horiz-adv-x="467" 
d="M66 0v733l64 17v-750h-64zM456 0h-76l-237 272l220 248h69v-4l-214 -240l238 -272v-4z" />
    <glyph glyph-name="k.alt1" unicode="&#xe4ea;" horiz-adv-x="490" 
d="M293 476c-71 0 -120 -37 -163 -77v-399h-64v733l64 17v-304c40 43 98 84 174 84c99 0 148 -57 148 -134c0 -88 -65 -149 -174 -185l187 -206v-5h-73l-197 214v13c113 31 192 87 192 165c0 54 -36 84 -94 84z" />
    <glyph glyph-name="l.alt" unicode="&#xe4cb;" horiz-adv-x="234" 
d="M161 -2c-57 0 -94 25 -94 99v636l65 17v-651c0 -32 16 -45 40 -45c18 0 29 3 41 7l2 -2v-51c-13 -6 -33 -10 -54 -10z" />
    <glyph glyph-name="t.alt" unicode="&#xe4d3;" horiz-adv-x="321" 
d="M291 466h-113v-466h-65v466h-85v54h85v111l65 10v-121h113v-54z" />
    <glyph glyph-name="y.alt" unicode="&#xe4d8;" horiz-adv-x="485" 
d="M188 -210h-69v4l95 231l-206 491v4h70l170 -424l165 424h64v-4z" />
    <glyph glyph-name="y.alt1" unicode="&#xe4f8;" horiz-adv-x="536" 
d="M254 -220c-75 0 -135 17 -177 42v58l3 2c43 -26 102 -45 167 -45c105 0 160 47 160 144v76c-45 -37 -103 -67 -175 -67c-106 0 -172 56 -172 164v366h64v-353c0 -94 55 -123 123 -123c62 0 115 22 160 57v419h65v-535c0 -156 -102 -205 -218 -205z" />
    <glyph glyph-name="Jcircumflex.alt" horiz-adv-x="369" 
d="M267 857l-90 -93h-64l121 144h64l121 -144h-64zM116 -5c-40 0 -71 7 -99 21v55l4 2c20 -11 52 -19 86 -19c80 0 124 36 124 136v515h67v-518c0 -146 -85 -192 -182 -192z" />
    <glyph glyph-name="Kcommaaccent.alt" horiz-adv-x="571" 
d="M255 -199l12 144h71v-6l-30 -138h-53zM80 0v705h68v-705h-68zM555 0h-77l-309 366l287 339h73v-4l-282 -330l308 -367v-4z" />
    <glyph glyph-name="Wacute.alt" horiz-adv-x="894" 
d="M476 764h-62l94 141h82zM645 -10l-198 568l-198 -568h-15l-219 711v4h70l163 -549l192 555h17l194 -554l161 548h67v-4l-219 -711h-15z" />
    <glyph glyph-name="Wcircumflex.alt" horiz-adv-x="894" 
d="M448 857l-90 -93h-64l121 144h64l121 -144h-64zM645 -10l-198 568l-198 -568h-15l-219 711v4h70l163 -549l192 555h17l194 -554l161 548h67v-4l-219 -711h-15z" />
    <glyph glyph-name="Wdieresis.alt" horiz-adv-x="894" 
d="M509 773v75h70v-75h-70zM315 773v75h70v-75h-70zM645 -10l-198 568l-198 -568h-15l-219 711v4h70l163 -549l192 555h17l194 -554l161 548h67v-4l-219 -711h-15z" />
    <glyph glyph-name="Wgrave.alt" horiz-adv-x="894" 
d="M421 764l-114 141h82l94 -141h-62zM645 -10l-198 568l-198 -568h-15l-219 711v4h70l163 -549l192 555h17l194 -554l161 548h67v-4l-219 -711h-15z" />
    <glyph glyph-name="aacute.alt" horiz-adv-x="566" 
d="M450 0l-9 75c-40 -53 -98 -86 -175 -86c-132 0 -235 98 -235 265c0 168 104 277 242 277c71 0 125 -28 165 -80l6 69h56v-520h-50zM271 45c77 0 124 29 164 75v283c-40 47 -85 72 -159 72c-95 0 -180 -74 -180 -221c0 -145 84 -209 175 -209zM309 606h-63l102 164h81z
" />
    <glyph glyph-name="abreve.alt" horiz-adv-x="566" 
d="M450 0l-9 75c-40 -53 -98 -86 -175 -86c-132 0 -235 98 -235 265c0 168 104 277 242 277c71 0 125 -28 165 -80l6 69h56v-520h-50zM271 45c77 0 124 29 164 75v283c-40 47 -85 72 -159 72c-95 0 -180 -74 -180 -221c0 -145 84 -209 175 -209zM287 613
c-79 0 -134 56 -139 134h53c7 -50 37 -80 86 -80s78 31 85 80h53c-5 -78 -59 -134 -138 -134z" />
    <glyph glyph-name="acircumflex.alt" horiz-adv-x="566" 
d="M450 0l-9 75c-40 -53 -98 -86 -175 -86c-132 0 -235 98 -235 265c0 168 104 277 242 277c71 0 125 -28 165 -80l6 69h56v-520h-50zM271 45c77 0 124 29 164 75v283c-40 47 -85 72 -159 72c-95 0 -180 -74 -180 -221c0 -145 84 -209 175 -209zM285 704l-85 -98h-62
l116 147h64l116 -147h-62z" />
    <glyph glyph-name="adieresis.alt" horiz-adv-x="566" 
d="M450 0l-9 75c-40 -53 -98 -86 -175 -86c-132 0 -235 98 -235 265c0 168 104 277 242 277c71 0 125 -28 165 -80l6 69h56v-520h-50zM271 45c77 0 124 29 164 75v283c-40 47 -85 72 -159 72c-95 0 -180 -74 -180 -221c0 -145 84 -209 175 -209zM167 637v74h70v-74h-70z
M335 637v74h70v-74h-70z" />
    <glyph glyph-name="agrave.alt" horiz-adv-x="566" 
d="M450 0l-9 75c-40 -53 -98 -86 -175 -86c-132 0 -235 98 -235 265c0 168 104 277 242 277c71 0 125 -28 165 -80l6 69h56v-520h-50zM271 45c77 0 124 29 164 75v283c-40 47 -85 72 -159 72c-95 0 -180 -74 -180 -221c0 -145 84 -209 175 -209zM266 606l-120 164h81
l102 -164h-63z" />
    <glyph glyph-name="amacron.alt" horiz-adv-x="566" 
d="M450 0l-9 75c-40 -53 -98 -86 -175 -86c-132 0 -235 98 -235 265c0 168 104 277 242 277c71 0 125 -28 165 -80l6 69h56v-520h-50zM271 45c77 0 124 29 164 75v283c-40 47 -85 72 -159 72c-95 0 -180 -74 -180 -221c0 -145 84 -209 175 -209zM150 649v55h272v-55h-272z
" />
    <glyph glyph-name="aogonek.alt" horiz-adv-x="566" 
d="M528 -205c-14 -8 -37 -16 -64 -16c-76 0 -116 38 -116 94c0 52 34 97 101 137l-8 65c-40 -53 -98 -86 -175 -86c-132 0 -235 98 -235 265c0 168 104 277 242 277c71 0 125 -28 165 -80l6 69h56v-520c-55 -34 -88 -77 -88 -114c0 -32 15 -52 59 -52c21 0 38 4 55 13l2 -2
v-50zM271 45c77 0 124 29 164 75v283c-40 47 -85 72 -159 72c-95 0 -180 -74 -180 -221c0 -145 84 -209 175 -209z" />
    <glyph glyph-name="aring.alt" horiz-adv-x="566" 
d="M450 0l-9 75c-40 -53 -98 -86 -175 -86c-132 0 -235 98 -235 265c0 168 104 277 242 277c71 0 125 -28 165 -80l6 69h56v-520h-50zM271 45c77 0 124 29 164 75v283c-40 47 -85 72 -159 72c-95 0 -180 -74 -180 -221c0 -145 84 -209 175 -209zM286 589
c-62 0 -105 43 -105 103c0 59 43 102 105 102s105 -43 105 -102c0 -60 -43 -103 -105 -103zM286 752c-35 0 -57 -25 -57 -60s22 -61 57 -61c36 0 58 26 58 61s-22 60 -58 60z" />
    <glyph glyph-name="aringacute.alt" horiz-adv-x="566" 
d="M450 0l-9 75c-40 -53 -98 -86 -175 -86c-132 0 -235 98 -235 265c0 168 104 277 242 277c71 0 125 -28 165 -80l6 69h56v-520h-50zM271 45c77 0 124 29 164 75v283c-40 47 -85 72 -159 72c-95 0 -180 -74 -180 -221c0 -145 84 -209 175 -209zM286 589
c-62 0 -105 43 -105 103c0 59 43 102 105 102s105 -43 105 -102c0 -60 -43 -103 -105 -103zM286 752c-35 0 -57 -25 -57 -60s22 -61 57 -61c36 0 58 26 58 61s-22 60 -58 60zM316 821h-62l94 141h82z" />
    <glyph glyph-name="atilde.alt" horiz-adv-x="566" 
d="M450 0l-9 75c-40 -53 -98 -86 -175 -86c-132 0 -235 98 -235 265c0 168 104 277 242 277c71 0 125 -28 165 -80l6 69h56v-520h-50zM271 45c77 0 124 29 164 75v283c-40 47 -85 72 -159 72c-95 0 -180 -74 -180 -221c0 -145 84 -209 175 -209zM345 693c25 0 45 11 66 40
l4 -2l21 -42c-17 -27 -49 -52 -90 -52c-58 0 -78 29 -118 29c-29 0 -47 -11 -69 -39l-3 1l-19 45c19 28 52 49 90 49c55 0 74 -29 118 -29z" />
    <glyph glyph-name="gbreve.alt" horiz-adv-x="570" 
d="M273 45c78 0 128 29 169 76v281c-41 48 -90 73 -164 73c-100 0 -182 -75 -182 -222c0 -144 80 -208 177 -208zM265 -220c-77 0 -143 16 -187 42v58l3 2c44 -26 110 -45 177 -45c117 0 184 49 184 149v83c-42 -49 -100 -80 -174 -80c-138 0 -237 98 -237 264
c0 169 100 278 244 278c72 0 128 -28 169 -80l4 69h58v-530c0 -159 -112 -210 -241 -210zM286 613c-79 0 -134 56 -139 134h53c7 -50 37 -80 86 -80s78 31 85 80h53c-5 -78 -59 -134 -138 -134z" />
    <glyph glyph-name="gcircumflex.alt" horiz-adv-x="570" 
d="M284 704l-85 -98h-62l116 147h64l116 -147h-62zM273 45c78 0 128 29 169 76v281c-41 48 -90 73 -164 73c-100 0 -182 -75 -182 -222c0 -144 80 -208 177 -208zM265 -220c-77 0 -143 16 -187 42v58l3 2c44 -26 110 -45 177 -45c117 0 184 49 184 149v83
c-42 -49 -100 -80 -174 -80c-138 0 -237 98 -237 264c0 169 100 278 244 278c72 0 128 -28 169 -80l4 69h58v-530c0 -159 -112 -210 -241 -210z" />
    <glyph glyph-name="gcommaaccent.alt" horiz-adv-x="570" 
d="M326 752l-12 -143h-71l-1 2l31 141h53zM273 45c78 0 128 29 169 76v281c-41 48 -90 73 -164 73c-100 0 -182 -75 -182 -222c0 -144 80 -208 177 -208zM265 -220c-77 0 -143 16 -187 42v58l3 2c44 -26 110 -45 177 -45c117 0 184 49 184 149v83c-42 -49 -100 -80 -174 -80
c-138 0 -237 98 -237 264c0 169 100 278 244 278c72 0 128 -28 169 -80l4 69h58v-530c0 -159 -112 -210 -241 -210z" />
    <glyph glyph-name="gdotaccent.alt" horiz-adv-x="570" 
d="M273 45c78 0 128 29 169 76v281c-41 48 -90 73 -164 73c-100 0 -182 -75 -182 -222c0 -144 80 -208 177 -208zM265 -220c-77 0 -143 16 -187 42v58l3 2c44 -26 110 -45 177 -45c117 0 184 49 184 149v83c-42 -49 -100 -80 -174 -80c-138 0 -237 98 -237 264
c0 169 100 278 244 278c72 0 128 -28 169 -80l4 69h58v-530c0 -159 -112 -210 -241 -210zM249 635v78h73v-78h-73z" />
    <glyph glyph-name="germandbls.alt" horiz-adv-x="535" 
d="M199 12v57l1 2c23 -12 53 -24 105 -24c73 0 137 53 137 150c0 121 -91 178 -198 210v43c84 19 143 61 143 141c0 64 -49 107 -121 107c-77 0 -136 -46 -136 -153v-545h-64v547c0 145 97 205 200 205c108 0 185 -61 185 -160c0 -89 -63 -139 -137 -159
c85 -29 193 -92 193 -236c0 -132 -82 -207 -193 -207c-55 0 -91 11 -115 22z" />
    <glyph glyph-name="kcommaaccent.alt" horiz-adv-x="467" 
d="M205 -199l12 144h71v-6l-30 -138h-53zM66 0v733l64 17v-750h-64zM456 0h-76l-237 272l220 248h69v-4l-214 -240l238 -272v-4z" />
    <glyph glyph-name="kcommaaccent.alt1" horiz-adv-x="490" 
d="M205 -199l12 144h71v-6l-30 -138h-53zM293 476c-71 0 -120 -37 -163 -77v-399h-64v733l64 17v-304c40 43 98 84 174 84c99 0 148 -57 148 -134c0 -88 -65 -149 -174 -185l187 -206v-5h-73l-197 214v13c113 31 192 87 192 165c0 54 -36 84 -94 84z" />
    <glyph glyph-name="lacute.alt" horiz-adv-x="234" 
d="M161 -2c-57 0 -94 25 -94 99v636l65 17v-651c0 -32 16 -45 40 -45c18 0 29 3 41 7l2 -2v-51c-13 -6 -33 -10 -54 -10zM130 787h-62l94 141h82z" />
    <glyph glyph-name="lcaron.alt" horiz-adv-x="234" 
d="M161 -2c-57 0 -94 25 -94 99v636l65 17v-651c0 -32 16 -45 40 -45c18 0 29 3 41 7l2 -2v-51c-13 -6 -33 -10 -54 -10zM183 581l8 158h65v-6l-27 -152h-46z" />
    <glyph glyph-name="lcommaaccent.alt" horiz-adv-x="234" 
d="M95 -199l12 144h71v-6l-30 -138h-53zM161 -2c-57 0 -94 25 -94 99v636l65 17v-651c0 -32 16 -45 40 -45c18 0 29 3 41 7l2 -2v-51c-13 -6 -33 -10 -54 -10z" />
    <glyph glyph-name="ldot.alt" horiz-adv-x="263" 
d="M161 -2c-57 0 -94 25 -94 99v636l65 17v-651c0 -32 16 -45 40 -45c18 0 29 3 41 7l2 -2v-51c-13 -6 -33 -10 -54 -10zM202 337v77h72v-77h-72z" />
    <glyph glyph-name="lslash.alt" horiz-adv-x="249" 
d="M173 -2c-57 0 -94 25 -94 99v277l-69 -41v59l69 41v300l65 17v-278l81 49v-59l-81 -49v-314c0 -32 16 -45 40 -45c18 0 29 3 41 7l2 -2v-51c-13 -6 -33 -10 -54 -10z" />
    <glyph glyph-name="tbar.alt" horiz-adv-x="321" 
d="M291 299h-113v-299h-65v299h-85v48h85v119h-85v54h85v111l65 10v-121h113v-54h-113v-119h113v-48z" />
    <glyph glyph-name="tcaron.alt" horiz-adv-x="321" 
d="M291 466h-113v-466h-65v466h-85v54h85v111l65 10v-121h113v-54zM234 581l8 158h65v-6l-27 -152h-46z" />
    <glyph glyph-name="tcommaaccent.alt" horiz-adv-x="321" 
d="M98 -199l12 144h71v-6l-30 -138h-53zM291 466h-113v-466h-65v466h-85v54h85v111l65 10v-121h113v-54z" />
    <glyph glyph-name="yacute.alt" horiz-adv-x="485" 
d="M270 606h-63l102 164h81zM188 -210h-69v4l95 231l-206 491v4h70l170 -424l165 424h64v-4z" />
    <glyph glyph-name="yacute.alt1" horiz-adv-x="536" 
d="M290 606h-63l102 164h81zM254 -220c-75 0 -135 17 -177 42v58l3 2c43 -26 102 -45 167 -45c105 0 160 47 160 144v76c-45 -37 -103 -67 -175 -67c-106 0 -172 56 -172 164v366h64v-353c0 -94 55 -123 123 -123c62 0 115 22 160 57v419h65v-535
c0 -156 -102 -205 -218 -205z" />
    <glyph glyph-name="ycircumflex.alt" horiz-adv-x="485" 
d="M247 704l-85 -98h-62l116 147h64l116 -147h-62zM188 -210h-69v4l95 231l-206 491v4h70l170 -424l165 424h64v-4z" />
    <glyph glyph-name="ycircumflex.alt1" horiz-adv-x="536" 
d="M266 704l-85 -98h-62l116 147h64l116 -147h-62zM254 -220c-75 0 -135 17 -177 42v58l3 2c43 -26 102 -45 167 -45c105 0 160 47 160 144v76c-45 -37 -103 -67 -175 -67c-106 0 -172 56 -172 164v366h64v-353c0 -94 55 -123 123 -123c62 0 115 22 160 57v419h65v-535
c0 -156 -102 -205 -218 -205z" />
    <glyph glyph-name="ydieresis.alt" horiz-adv-x="485" 
d="M129 637v74h70v-74h-70zM297 637v74h70v-74h-70zM188 -210h-69v4l95 231l-206 491v4h70l170 -424l165 424h64v-4z" />
    <glyph glyph-name="ydieresis.alt1" horiz-adv-x="536" 
d="M148 637v74h70v-74h-70zM316 637v74h70v-74h-70zM254 -220c-75 0 -135 17 -177 42v58l3 2c43 -26 102 -45 167 -45c105 0 160 47 160 144v76c-45 -37 -103 -67 -175 -67c-106 0 -172 56 -172 164v366h64v-353c0 -94 55 -123 123 -123c62 0 115 22 160 57v419h65v-535
c0 -156 -102 -205 -218 -205z" />
    <glyph glyph-name="ygrave.alt" horiz-adv-x="485" 
d="M188 -210h-69v4l95 231l-206 491v4h70l170 -424l165 424h64v-4zM230 606l-120 164h81l102 -164h-63z" />
    <glyph glyph-name="ygrave.alt1" horiz-adv-x="536" 
d="M254 -220c-75 0 -135 17 -177 42v58l3 2c43 -26 102 -45 167 -45c105 0 160 47 160 144v76c-45 -37 -103 -67 -175 -67c-106 0 -172 56 -172 164v366h64v-353c0 -94 55 -123 123 -123c62 0 115 22 160 57v419h65v-535c0 -156 -102 -205 -218 -205zM248 606l-120 164h81
l102 -164h-63z" />
    <glyph glyph-name="space_uni0326.alt" 
d="M237 752l-12 -143h-71l-1 2l31 141h53z" />
    <glyph glyph-name="ordfeminine.alt" horiz-adv-x="484" 
d="M231 292c63 0 101 23 134 61v232c-33 39 -70 59 -130 59c-77 0 -148 -62 -148 -182c0 -119 70 -170 144 -170zM378 249l-8 63c-34 -44 -82 -71 -147 -71c-110 0 -197 81 -197 221c0 142 88 234 204 234c59 0 104 -24 138 -67l5 58h54v-438h-49z" />
    <glyph glyph-name="asterisk.alt" horiz-adv-x="370" 
d="M265 409l-80 124l-81 -124l-43 34l92 108l-125 38l18 51l119 -53l-7 139h55l-8 -139l120 53l17 -51l-126 -38l92 -108z" />
    <glyph glyph-name="registered.alt" horiz-adv-x="795" 
d="M38 352c0 213 157 365 360 365s360 -152 360 -365c0 -211 -157 -364 -360 -364s-360 153 -360 364zM713 352c0 188 -134 326 -315 326c-180 0 -316 -138 -316 -326c0 -185 136 -325 316 -325c181 0 315 140 315 325zM397 502h-69v-135h73c48 0 76 24 76 69s-27 66 -80 66
zM495 163l-102 159h-65v-159h-57v385h125c90 0 138 -36 138 -113c0 -61 -33 -94 -85 -105l104 -163v-4h-58z" />
    <glyph glyph-name="caron.alt" 
d="M174 581l8 158h65v-6l-27 -152h-46z" />
    <glyph glyph-name="breve_acute.uc" 
d="M218 897h-59l74 107h78zM60 890c5 -78 60 -134 140 -134s134 56 139 134h-53c-7 -49 -36 -79 -86 -79s-80 30 -87 79h-53z" />
    <glyph glyph-name="breve_grave.uc" 
d="M182 897l-93 107h78l74 -107h-59zM200 756c-80 0 -135 56 -140 134h53c7 -49 37 -79 87 -79s79 30 86 79h53c-5 -78 -59 -134 -139 -134z" />
    <glyph glyph-name="breve_hook.uc" 
d="M120 1027c12 7 40 18 80 18c63 0 102 -22 102 -66c0 -57 -85 -65 -85 -85v-2h-53v3c0 46 80 51 80 82c0 17 -18 23 -53 23c-31 0 -54 -8 -69 -15h-2v42zM60 890c5 -78 60 -134 140 -134s134 56 139 134h-53c-7 -49 -36 -79 -86 -79s-80 30 -87 79h-53z" />
    <glyph glyph-name="breve_tilde.uc" 
d="M258 969c24 0 45 11 65 39l4 -1l21 -42c-16 -27 -49 -53 -90 -53c-54 0 -83 32 -119 32c-30 0 -48 -11 -70 -39l-3 1l-19 45c19 27 53 49 92 49c50 0 78 -31 119 -31zM200 756c-80 0 -135 56 -140 118h53c7 -34 37 -63 87 -63s79 30 86 63h53c-5 -62 -59 -118 -139 -118z
" />
    <glyph glyph-name="circumflex_acute.uc" 
d="M364 868h-59l69 111h77zM201 857l-90 -93h-64l121 144h64l121 -144h-64z" />
    <glyph glyph-name="circumflex_grave.uc" 
d="M345 868l-88 111h77l69 -111h-58zM201 857l-90 -93h-64l121 144h64l121 -144h-64z" />
    <glyph glyph-name="circumflex_hook.uc" 
d="M282 989c11 9 37 19 76 19c59 0 92 -22 92 -67c0 -56 -75 -65 -75 -86v-2h-51v4c0 47 71 53 71 83c0 17 -13 25 -46 25c-29 0 -51 -8 -65 -17l-2 2v39zM201 857l-90 -93h-64l121 144h64l121 -144h-64z" />
    <glyph glyph-name="circumflex_tilde.uc" 
d="M257 969c24 0 45 11 65 39l4 -1l21 -42c-16 -27 -49 -53 -90 -53c-54 0 -81 32 -117 32c-29 0 -48 -11 -69 -39l-4 1l-19 45c19 27 54 49 92 49c50 0 76 -31 117 -31zM201 830l-90 -66h-64l120 116h66l120 -116h-64z" />
    <glyph glyph-name="dollar.uc" horiz-adv-x="527" 
d="M110 540c0 -66 32 -104 132 -136l28 253h-11c-93 0 -149 -44 -149 -117zM253 52c102 0 167 49 167 133c0 78 -44 102 -140 134l-32 -267h5zM253 -7h-12l-15 -126h-48l15 130c-68 8 -119 30 -155 53v69l4 2c45 -33 94 -57 158 -66l34 281c-128 43 -189 99 -189 198
c0 117 97 181 212 181h20l10 88h48l-10 -92c50 -7 86 -21 120 -42v-64l-3 -1c-41 25 -76 42 -124 49l-30 -266c124 -42 199 -82 199 -198c0 -128 -100 -196 -234 -196z" />
    <glyph glyph-name="Euro.uc" horiz-adv-x="573" 
d="M546 40c-41 -25 -93 -50 -170 -50c-164 0 -272 105 -297 281h-65v46h60c-1 13 -1 26 -1 39s0 25 1 37h-60v47h65c26 174 136 275 293 275c69 0 119 -15 160 -40v-61l-3 -2c-51 31 -93 45 -154 45c-115 0 -200 -72 -223 -217h247v-47h-252c-1 -12 -1 -24 -1 -37
s0 -27 1 -39h252v-46h-247c21 -146 99 -222 224 -222c67 0 115 22 167 60l3 -2v-67z" />
    <glyph glyph-name="sterling.uc" horiz-adv-x="534" 
d="M509 57v-57h-494v28c82 67 99 116 115 206l13 74h-76v51h85l32 182c23 135 90 174 188 174c53 0 89 -8 128 -29v-60l-4 -1c-41 22 -76 32 -124 32c-60 0 -104 -28 -120 -120l-32 -178h179v-51h-188l-11 -58c-14 -84 -19 -133 -88 -193h397z" />
    <glyph glyph-name="yen.uc" horiz-adv-x="561" 
d="M495 155h-179v-155h-69v155h-176v47h176v83h-176v47h172l-218 369v4h73l183 -322l187 322h68v-4l-216 -369h175v-47h-179v-83h179v-47z" />
    <glyph glyph-name="zero.uc" horiz-adv-x="627" 
d="M314 -10c-162 0 -278 140 -278 365c0 226 116 360 278 360c163 0 276 -134 276 -360c0 -225 -113 -365 -276 -365zM314 49c120 0 203 107 203 306c0 200 -83 301 -203 301c-119 0 -205 -101 -205 -301c0 -199 86 -306 205 -306z" />
    <glyph glyph-name="one.uc" horiz-adv-x="335" 
d="M240 0h-70v619l-146 -82l-3 1v61l195 111h24v-710z" />
    <glyph glyph-name="two.uc" horiz-adv-x="494" 
d="M18 0v23l251 275c69 75 111 147 111 228c0 75 -48 131 -151 131c-80 0 -126 -21 -180 -54l-4 2v62c48 28 99 48 186 48c127 0 217 -70 217 -189c0 -98 -55 -182 -137 -270l-182 -199h329v-57h-440z" />
    <glyph glyph-name="three.uc" horiz-adv-x="511" 
d="M236 -10c-102 0 -161 26 -206 53v66l3 2c57 -38 111 -62 200 -62c112 0 173 62 173 147c0 84 -58 143 -179 143h-83v60h79c109 0 157 60 157 133c0 82 -60 125 -154 125c-80 0 -119 -17 -172 -49l-4 1v62c45 27 94 44 178 44c123 0 219 -58 219 -182
c0 -79 -49 -135 -120 -160c88 -21 147 -78 147 -173c0 -129 -91 -210 -238 -210z" />
    <glyph glyph-name="four.uc" horiz-adv-x="541" 
d="M352 232v338l-256 -338h256zM530 176h-108v-176h-70v176h-345v28l382 506h33v-478h108v-56z" />
    <glyph glyph-name="five.uc" horiz-adv-x="494" 
d="M206 -10c-84 0 -145 23 -188 49v65l3 2c57 -37 108 -57 185 -57c120 0 182 66 182 164s-67 155 -180 155c-74 0 -114 -11 -150 -24l-4 2v359h368v-57h-308v-235c27 7 62 12 105 12c142 0 238 -82 238 -209c0 -136 -94 -226 -251 -226z" />
    <glyph glyph-name="six.uc" horiz-adv-x="560" 
d="M531 215c0 -115 -75 -225 -231 -225c-174 0 -262 127 -262 340c0 258 140 385 307 385c54 0 103 -11 142 -34v-65l-3 -2c-34 25 -81 42 -139 42c-127 0 -230 -93 -237 -304c43 42 106 77 196 77c125 0 227 -76 227 -214zM300 49c113 0 161 80 161 166
c0 105 -69 159 -170 159c-78 0 -136 -29 -183 -70c6 -162 68 -255 192 -255z" />
    <glyph glyph-name="seven.uc" horiz-adv-x="499" 
d="M187 0h-71c33 150 112 305 183 444l104 204h-385v57h469v-26l-127 -253c-72 -145 -147 -298 -173 -426z" />
    <glyph glyph-name="eight.uc" horiz-adv-x="542" 
d="M276 -10c-141 0 -246 75 -246 191c0 96 81 151 161 180c-79 32 -138 91 -138 176c0 110 95 178 214 178c128 0 223 -62 223 -183c0 -80 -67 -134 -138 -164c96 -35 159 -91 159 -186c0 -122 -89 -192 -235 -192zM279 392l14 -5c80 35 130 81 130 145
c0 78 -63 126 -156 126c-90 0 -150 -49 -150 -120c0 -67 57 -113 162 -146zM276 48c108 0 169 54 169 130c0 74 -57 118 -177 157l-19 6c-79 -29 -150 -70 -150 -155c0 -87 66 -138 177 -138z" />
    <glyph glyph-name="nine.uc" horiz-adv-x="560" 
d="M268 328c79 0 136 28 183 69c-5 164 -62 259 -187 259c-114 0 -166 -79 -166 -165c0 -107 64 -163 170 -163zM207 -10c-56 0 -106 10 -144 33v66l3 1c34 -24 81 -41 141 -41c138 0 236 79 244 300c-44 -41 -106 -76 -196 -76c-128 0 -227 74 -227 218
c0 116 78 224 236 224c173 0 257 -127 257 -339c0 -274 -133 -386 -314 -386z" />
    <glyph glyph-name="percent.uc" horiz-adv-x="826" 
d="M29 541c0 102 71 174 168 174c98 0 168 -72 168 -174c0 -105 -70 -175 -168 -175c-97 0 -168 70 -168 175zM143 0l484 705h60l-485 -705h-59zM197 416c67 0 110 53 110 125c0 70 -43 124 -110 124c-66 0 -110 -54 -110 -124c0 -72 44 -125 110 -125zM630 339
c97 0 168 -72 168 -174c0 -106 -71 -175 -168 -175s-169 69 -169 175c0 102 72 174 169 174zM630 40c67 0 109 53 109 125c0 70 -42 124 -109 124s-111 -54 -111 -124c0 -72 44 -125 111 -125z" />
    <glyph glyph-name="perthousand.uc" horiz-adv-x="1211" 
d="M197 366c-97 0 -168 70 -168 175c0 102 71 174 168 174c98 0 168 -72 168 -174c0 -105 -70 -175 -168 -175zM143 0l481 705h60l-482 -705h-59zM197 416c67 0 110 53 110 125c0 70 -43 124 -110 124c-66 0 -110 -54 -110 -124c0 -72 44 -125 110 -125zM1014 -10
c-96 0 -168 69 -168 175c0 102 72 174 168 174c98 0 168 -72 168 -174c0 -106 -70 -175 -168 -175zM627 -8c-96 0 -166 69 -166 173c0 100 70 171 166 171s164 -71 164 -171c0 -104 -68 -173 -164 -173zM627 37c68 0 112 54 112 128c0 72 -44 126 -112 126
c-69 0 -114 -54 -114 -126c0 -74 45 -128 114 -128zM1014 40c67 0 110 53 110 125c0 70 -43 124 -110 124c-66 0 -109 -54 -109 -124c0 -72 43 -125 109 -125z" />
    <glyph glyph-name="questiondown.uc" horiz-adv-x="437" 
d="M288 705v-77h-73v77h73zM396 38c-39 -29 -91 -48 -161 -48c-104 0 -186 59 -186 171c0 88 41 137 100 191c42 38 72 70 72 134v29h62v-29c0 -81 -29 -121 -91 -177c-50 -45 -77 -79 -77 -148c0 -67 43 -112 122 -112c63 0 108 19 156 53l3 -2v-62z" />
    <glyph glyph-name="exclamdown.uc" horiz-adv-x="206" 
d="M140 705v-77h-74v77h74zM127 515l9 -515h-67l9 515h49z" />
    <glyph glyph-name="hyphen.uc" horiz-adv-x="293" 
d="M39 306v60h216v-60h-216z" />
    <glyph glyph-name="endash.uc" horiz-adv-x="470" 
d="M34 308v57h403v-57h-403z" />
    <glyph glyph-name="emdash.uc" horiz-adv-x="883" 
d="M34 308v57h815v-57h-815z" />
    <glyph glyph-name="guilsinglleft.uc" horiz-adv-x="225" 
d="M132 104l-115 186l115 186h66l-113 -186l113 -186h-66z" />
    <glyph glyph-name="guilsinglright.uc" horiz-adv-x="225" 
d="M28 104l113 186l-113 186h65l115 -186l-115 -186h-65z" />
    <glyph glyph-name="guillemotleft.uc" horiz-adv-x="382" 
d="M289 104l-115 186l115 186h65l-113 -186l113 -186h-65zM132 104l-115 186l115 186h66l-113 -186l113 -186h-66z" />
    <glyph glyph-name="guillemotright.uc" horiz-adv-x="382" 
d="M185 104l113 186l-113 186h65l115 -186l-115 -186h-65zM28 104l113 186l-113 186h65l115 -186l-115 -186h-65z" />
    <glyph glyph-name="parenleft.uc" horiz-adv-x="301" 
d="M215 -100c-100 122 -166 274 -166 438s66 314 166 436h66c-93 -120 -164 -265 -164 -436s71 -318 164 -438h-66z" />
    <glyph glyph-name="parenright.uc" horiz-adv-x="301" 
d="M86 -100h-65c92 120 164 267 164 438s-72 316 -164 436h65c100 -122 166 -272 166 -436s-66 -316 -166 -438z" />
    <glyph glyph-name="bracketleft.uc" horiz-adv-x="342" 
d="M83 -100v874h220v-54h-154v-766h154v-54h-220z" />
    <glyph glyph-name="bracketright.uc" horiz-adv-x="342" 
d="M39 -100v54h154v766h-154v54h220v-874h-220z" />
    <glyph glyph-name="braceleft.uc" horiz-adv-x="356" 
d="M323 -100c-131 0 -230 44 -198 183l25 112c18 79 -14 114 -119 116v52c105 2 137 38 119 116l-25 113c-32 138 67 182 198 182v-51c-107 0 -158 -33 -133 -140l25 -107c19 -76 -4 -119 -87 -139c83 -20 105 -61 87 -139l-25 -107c-26 -107 26 -140 133 -140v-51z" />
    <glyph glyph-name="braceright.uc" horiz-adv-x="356" 
d="M33 -100v51c107 0 159 33 133 140l-25 107c-18 76 4 118 87 139c-83 20 -106 61 -87 138l25 108c26 107 -26 140 -133 140v51c131 0 230 -43 198 -183l-25 -113c-18 -78 15 -113 119 -115v-53c-105 -1 -137 -37 -119 -115l25 -113c32 -138 -67 -182 -198 -182z" />
    <glyph glyph-name="slash.uc" horiz-adv-x="396" 
d="M19 -100l285 874h62l-285 -874h-62z" />
    <glyph glyph-name="backslash.uc" horiz-adv-x="396" 
d="M27 774h62l285 -874h-62z" />
    <glyph glyph-name="bar.uc" horiz-adv-x="222" 
d="M82 -100v874h58v-874h-58z" />
    <glyph glyph-name="at.uc" horiz-adv-x="882" 
d="M452 -110c-262 0 -412 173 -412 388c0 263 182 436 423 436c235 0 380 -156 380 -377c0 -163 -93 -247 -185 -247c-60 0 -106 23 -118 76c-39 -51 -87 -78 -145 -78c-108 0 -165 80 -165 182c0 139 88 245 213 245c54 0 96 -26 125 -68l7 51h65l-35 -268
c-9 -75 20 -93 63 -93c52 0 122 56 122 200c0 205 -126 331 -328 331c-199 0 -369 -145 -369 -394c0 -188 130 -338 362 -338c91 0 147 16 200 45l3 -2v-45c-56 -30 -123 -44 -206 -44zM404 144c54 0 96 20 133 65c0 4 0 8 1 12l23 175c-32 44 -65 64 -117 64
c-89 0 -149 -78 -149 -190c0 -83 44 -126 109 -126z" />
    <glyph glyph-name="grave.uc" 
d="M182 764l-114 141h82l94 -141h-62z" />
    <glyph glyph-name="dieresis.uc" 
d="M262 773v75h70v-75h-70zM68 773v75h70v-75h-70z" />
    <glyph glyph-name="macron.uc" horiz-adv-x="686" 
d="M201 775v55h279v-55h-279z" />
    <glyph glyph-name="acute.uc" 
d="M218 764h-62l94 141h82z" />
    <glyph glyph-name="circumflex.uc" 
d="M201 857l-90 -93h-64l121 144h64l121 -144h-64z" />
    <glyph glyph-name="caron.uc" 
d="M201 815l88 93h64l-121 -144h-64l-121 144h64z" />
    <glyph glyph-name="breve.uc" 
d="M200 756c-80 0 -135 56 -140 134h53c7 -49 37 -79 87 -79s79 30 86 79h53c-5 -78 -59 -134 -139 -134z" />
    <glyph glyph-name="dotaccent.uc" 
d="M163 773v78h73v-78h-73z" />
    <glyph glyph-name="ring.uc" 
d="M200 749c-62 0 -105 42 -105 102c0 59 43 102 105 102s105 -43 105 -102c0 -60 -43 -102 -105 -102zM200 912c-35 0 -57 -26 -57 -61s22 -61 57 -61c36 0 58 26 58 61s-22 61 -58 61z" />
    <glyph glyph-name="tilde.uc" 
d="M259 828c26 0 47 12 68 40l4 -1l20 -42c-16 -27 -50 -53 -91 -53c-58 0 -87 31 -126 31c-30 0 -50 -10 -72 -39l-3 2l-19 45c19 27 55 49 94 49c53 0 81 -32 125 -32z" />
    <glyph glyph-name="hungarumlaut.uc" 
d="M135 764h-52l60 141h75c-1 0 -83 -141 -83 -141zM285 764h-53l61 141h75c-4 0 -83 -141 -83 -141z" />
    <glyph glyph-name="A.flat" horiz-adv-x="621" 
d="M447 254l-138 358l-137 -358h275zM545 0l-76 196h-320l-75 -196h-66v4l274 701h57l275 -701v-4h-69z" />
    <glyph glyph-name="Aacute.flat" horiz-adv-x="621" 
d="M447 254l-138 358l-137 -358h275zM545 0l-76 196h-320l-75 -196h-66v4l274 701h57l275 -701v-4h-69zM340 764h-62l94 141h82z" />
    <glyph glyph-name="Abreve.flat" horiz-adv-x="621" 
d="M447 254l-138 358l-137 -358h275zM545 0l-76 196h-320l-75 -196h-66v4l274 701h57l275 -701v-4h-69zM311 756c-80 0 -135 56 -140 134h53c7 -49 37 -79 87 -79s79 30 86 79h53c-5 -78 -59 -134 -139 -134z" />
    <glyph glyph-name="Acircumflex.flat" horiz-adv-x="621" 
d="M447 254l-138 358l-137 -358h275zM545 0l-76 196h-320l-75 -196h-66v4l274 701h57l275 -701v-4h-69zM312 857l-90 -93h-64l121 144h64l121 -144h-64z" />
    <glyph glyph-name="Adieresis.flat" horiz-adv-x="621" 
d="M447 254l-138 358l-137 -358h275zM545 0l-76 196h-320l-75 -196h-66v4l274 701h57l275 -701v-4h-69zM373 773v75h70v-75h-70zM179 773v75h70v-75h-70z" />
    <glyph glyph-name="Agrave.flat" horiz-adv-x="621" 
d="M447 254l-138 358l-137 -358h275zM545 0l-76 196h-320l-75 -196h-66v4l274 701h57l275 -701v-4h-69zM285 764l-114 141h82l94 -141h-62z" />
    <glyph glyph-name="Amacron.flat" horiz-adv-x="621" 
d="M447 254l-138 358l-137 -358h275zM545 0l-76 196h-320l-75 -196h-66v4l274 701h57l275 -701v-4h-69zM171 775v55h279v-55h-279z" />
    <glyph glyph-name="Aogonek.flat" horiz-adv-x="621" 
d="M577 -221c-77 0 -116 38 -116 94c0 50 26 93 83 128l-75 195h-320l-75 -196h-66v4l274 701h57l275 -701v-4c-56 -33 -89 -77 -89 -114c0 -32 15 -52 59 -52c21 0 38 4 55 13l2 -2v-50c-14 -8 -38 -16 -64 -16zM447 254l-138 358l-137 -358h275z" />
    <glyph glyph-name="Aring.flat" horiz-adv-x="621" 
d="M447 254l-138 358l-137 -358h275zM545 0l-76 196h-320l-75 -196h-66v4l274 701h57l275 -701v-4h-69zM311 749c-62 0 -105 42 -105 102c0 59 43 102 105 102s105 -43 105 -102c0 -60 -43 -102 -105 -102zM311 912c-35 0 -57 -26 -57 -61s22 -61 57 -61c36 0 58 26 58 61
s-22 61 -58 61z" />
    <glyph glyph-name="Aringacute.flat" horiz-adv-x="621" 
d="M447 254l-138 358l-137 -358h275zM545 0l-76 196h-320l-75 -196h-66v4l274 701h57l275 -701v-4h-69zM340 950h-62l94 141h82zM311 726c-62 0 -105 42 -105 102c0 59 43 102 105 102s105 -43 105 -102c0 -60 -43 -102 -105 -102zM311 889c-35 0 -57 -26 -57 -61
s22 -61 57 -61c36 0 58 26 58 61s-22 61 -58 61z" />
    <glyph glyph-name="Atilde.flat" horiz-adv-x="621" 
d="M447 254l-138 358l-137 -358h275zM545 0l-76 196h-320l-75 -196h-66v4l274 701h57l275 -701v-4h-69zM374 828c26 0 47 12 68 40l4 -1l20 -42c-16 -27 -50 -53 -91 -53c-58 0 -87 31 -126 31c-30 0 -50 -10 -72 -39l-3 2l-19 45c19 27 55 49 94 49c53 0 81 -32 125 -32z
" />
    <glyph glyph-name="Eng.flat" horiz-adv-x="711" 
d="M441 -171v60c72 16 109 46 118 121l-416 584v-594h-63v705h62l419 -589v5h4v584h64v-657c0 -148 -66 -198 -188 -219z" />
    <glyph glyph-name="M.flat" horiz-adv-x="808" 
d="M376 0l-233 611v-611h-63v705h90l232 -605l237 605h89v-705h-67v606l-238 -606h-47z" />
    <glyph glyph-name="M.flatalt" horiz-adv-x="839" 
d="M390 0l-217 555l-48 -555h-65l62 705h56l239 -609l238 609h54l70 -705h-67l-54 557l-218 -557h-50z" />
    <glyph glyph-name="N.flat" horiz-adv-x="709" 
d="M576 0l-433 595v-595h-63v705h62l423 -581v581h64v-705h-53z" />
    <glyph glyph-name="Nacute.flat" horiz-adv-x="709" 
d="M395 764h-62l94 141h82zM576 0l-433 595v-595h-63v705h62l423 -581v581h64v-705h-53z" />
    <glyph glyph-name="Ncaron.flat" horiz-adv-x="709" 
d="M367 815l88 93h64l-121 -144h-64l-121 144h64zM576 0l-433 595v-595h-63v705h62l423 -581v581h64v-705h-53z" />
    <glyph glyph-name="Ncommaaccent.flat" horiz-adv-x="709" 
d="M303 -199l12 144h71v-6l-30 -138h-53zM576 0l-433 595v-595h-63v705h62l423 -581v581h64v-705h-53z" />
    <glyph glyph-name="Ntilde.flat" horiz-adv-x="709" 
d="M429 828c26 0 47 12 68 40l4 -1l20 -42c-16 -27 -50 -53 -91 -53c-58 0 -87 31 -126 31c-30 0 -50 -10 -72 -39l-3 2l-19 45c19 27 55 49 94 49c53 0 81 -32 125 -32zM576 0l-433 595v-595h-63v705h62l423 -581v581h64v-705h-53z" />
    <glyph glyph-name="V.flat" horiz-adv-x="615" 
d="M336 0h-58l-264 701v4h70l226 -610l225 610h66v-4z" />
    <glyph glyph-name="W.flat" horiz-adv-x="899" 
d="M599 0l-140 433l-153 -433h-57l-234 701v4h70l195 -601l148 417l-60 180v4h67l194 -603l188 603h67v-4l-228 -701h-57z" />
    <glyph glyph-name="W.flatalt" horiz-adv-x="898" 
d="M622 0l-173 583l-175 -583h-60l-197 701v4h69l161 -599l180 599h47l180 -597l160 597h67v-4l-199 -701h-60z" />
    <glyph glyph-name="Wacute.flat" horiz-adv-x="899" 
d="M444 764h-62l94 141h82zM599 0l-140 433l-153 -433h-57l-234 701v4h70l195 -601l148 417l-60 180v4h67l194 -603l188 603h67v-4l-228 -701h-57z" />
    <glyph glyph-name="Wacute.flatalt" horiz-adv-x="898" 
d="M479 764h-62l94 141h82zM622 0l-173 583l-175 -583h-60l-197 701v4h69l161 -599l180 599h47l180 -597l160 597h67v-4l-199 -701h-60z" />
    <glyph glyph-name="Wcircumflex.flat" horiz-adv-x="899" 
d="M417 857l-90 -93h-64l121 144h64l121 -144h-64zM599 0l-140 433l-153 -433h-57l-234 701v4h70l195 -601l148 417l-60 180v4h67l194 -603l188 603h67v-4l-228 -701h-57z" />
    <glyph glyph-name="Wcircumflex.flatalt" horiz-adv-x="898" 
d="M451 857l-90 -93h-64l121 144h64l121 -144h-64zM622 0l-173 583l-175 -583h-60l-197 701v4h69l161 -599l180 599h47l180 -597l160 597h67v-4l-199 -701h-60z" />
    <glyph glyph-name="Wdieresis.flat" horiz-adv-x="899" 
d="M478 773v75h70v-75h-70zM284 773v75h70v-75h-70zM599 0l-140 433l-153 -433h-57l-234 701v4h70l195 -601l148 417l-60 180v4h67l194 -603l188 603h67v-4l-228 -701h-57z" />
    <glyph glyph-name="Wdieresis.flatalt" horiz-adv-x="898" 
d="M622 0l-173 583l-175 -583h-60l-197 701v4h69l161 -599l180 599h47l180 -597l160 597h67v-4l-199 -701h-60zM512 773v75h70v-75h-70zM318 773v75h70v-75h-70z" />
    <glyph glyph-name="Wgrave.flat" horiz-adv-x="899" 
d="M390 764l-114 141h82l94 -141h-62zM599 0l-140 433l-153 -433h-57l-234 701v4h70l195 -601l148 417l-60 180v4h67l194 -603l188 603h67v-4l-228 -701h-57z" />
    <glyph glyph-name="Wgrave.flatalt" horiz-adv-x="898" 
d="M424 764l-114 141h82l94 -141h-62zM622 0l-173 583l-175 -583h-60l-197 701v4h69l161 -599l180 599h47l180 -597l160 597h67v-4l-199 -701h-60z" />
    <glyph glyph-name="Z.flat" horiz-adv-x="570" 
d="M532 0h-501v55l419 591h-389v59h462v-64l-412 -582h421v-59z" />
    <glyph glyph-name="Zacute.flat" horiz-adv-x="570" 
d="M320 764h-62l94 141h82zM532 0h-501v55l419 591h-389v59h462v-64l-412 -582h421v-59z" />
    <glyph glyph-name="Zcaron.flat" horiz-adv-x="570" 
d="M292 815l88 93h64l-121 -144h-64l-121 144h64zM532 0h-501v55l419 591h-389v59h462v-64l-412 -582h421v-59z" />
    <glyph glyph-name="Zdotaccent.flat" horiz-adv-x="570" 
d="M532 0h-501v55l419 591h-389v59h462v-64l-412 -582h421v-59zM254 773v78h73v-78h-73z" />
    <glyph glyph-name="four.denflat" horiz-adv-x="309" 
d="M190 136v172l-121 -172h121zM299 94h-55v-94h-54v94h-178v32l177 252h55v-242h55v-42z" />
    <glyph glyph-name="four.flat" horiz-adv-x="519" 
d="M339 239v354l-246 -354h246zM509 184h-102v-184h-68v184h-322v40l323 466h67v-451h102v-55z" />
    <glyph glyph-name="four.numflat" horiz-adv-x="309" 
d="M190 449v172l-121 -172h121zM299 407h-55v-94h-54v94h-178v32l177 252h55v-242h55v-42z" />
    <glyph glyph-name="four.subflat" horiz-adv-x="309" 
d="M190 46v172l-121 -172h121zM299 3h-55v-93h-54v93h-178v33l177 252h55v-242h55v-43z" />
    <glyph glyph-name="four.supflat" horiz-adv-x="309" 
d="M190 509v172l-121 -172h121zM299 466h-55v-93h-54v93h-178v33l177 252h55v-242h55v-43z" />
    <glyph glyph-name="four.ucflat" horiz-adv-x="549" 
d="M359 244v366l-263 -366h263zM537 189h-108v-189h-70v189h-341v40l343 476h68v-461h108v-55z" />
    <glyph glyph-name="hook" 
d="M123 779c12 8 39 19 80 19c63 0 103 -23 103 -77c0 -69 -87 -74 -87 -118v-3h-53v7c0 66 81 69 81 112c0 23 -19 32 -53 32c-31 0 -54 -9 -69 -18l-2 2v44z" />
    <glyph glyph-name="hook.uc" 
d="M123 921c12 8 39 19 80 19c63 0 103 -22 103 -74c0 -69 -85 -69 -85 -103v-2h-53v6c0 56 80 59 80 97c0 21 -20 30 -54 30c-31 0 -54 -10 -69 -18l-2 1v44z" />
    <glyph glyph-name="one.denflat" horiz-adv-x="195" 
d="M143 0h-56v317l-75 -48l-2 1v50l92 58h41v-378z" />
    <glyph glyph-name="one.flat" horiz-adv-x="316" 
d="M223 0h-68v609l-132 -85l-3 2v61l162 103h41v-690z" />
    <glyph glyph-name="one.numflat" horiz-adv-x="195" 
d="M143 313h-56v317l-75 -48l-2 1v50l92 58h41v-378z" />
    <glyph glyph-name="one.subflat" horiz-adv-x="195" 
d="M143 -90h-56v317l-75 -48l-2 1v50l92 58h41v-378z" />
    <glyph glyph-name="one.supflat" horiz-adv-x="195" 
d="M143 373h-56v317l-75 -48l-2 1v50l92 58h41v-378z" />
    <glyph glyph-name="one.ucflat" horiz-adv-x="335" 
d="M240 0h-70v626l-146 -89l-3 1v61l173 106h46v-705z" />
    <glyph glyph-name="oneeighth.flat" horiz-adv-x="741" 
d="M585 -6c-81 0 -135 40 -135 102c0 48 38 78 80 93c-42 19 -70 49 -70 94c0 62 55 98 121 98c70 0 124 -30 124 -97c0 -42 -32 -69 -68 -85c48 -20 80 -49 80 -100c0 -65 -50 -105 -132 -105zM591 214l5 -1c34 16 57 38 57 68c0 38 -29 58 -70 58s-68 -21 -68 -54
c0 -34 27 -54 76 -71zM584 36c50 0 77 25 77 61c0 37 -30 57 -86 76l-5 2c-35 -15 -66 -35 -66 -75s30 -64 80 -64zM157 313h-56v317l-75 -48l-2 1v50l92 58h41v-378zM55 0l514 690h58l-514 -690h-58z" />
    <glyph glyph-name="onehalf.flat" horiz-adv-x="739" 
d="M475 0v33l116 127c33 38 55 72 55 111c0 38 -22 63 -71 63c-39 0 -64 -11 -91 -28l-3 2v47c25 15 55 26 102 26c74 0 121 -39 121 -105c0 -53 -31 -96 -72 -143l-83 -89h160v-44h-234zM157 313h-56v317l-75 -48l-2 1v50l92 58h41v-378zM62 0l514 690h58l-514 -690h-58z
" />
    <glyph glyph-name="onequarter.flat" horiz-adv-x="722" 
d="M157 313h-56v317l-75 -48l-2 1v50l92 58h41v-378zM62 0l514 690h58l-514 -690h-58zM597 136v172l-121 -172h121zM706 94h-55v-94h-54v94h-178v32l177 252h55v-242h55v-42z" />
    <glyph glyph-name="onethird.flat" horiz-adv-x="730" 
d="M571 -6c-55 0 -87 16 -110 29v47l3 2c28 -19 55 -31 101 -31c52 0 80 28 80 68c0 38 -26 65 -81 65h-44v43h41c50 0 71 26 71 61c0 38 -26 58 -72 58c-39 0 -61 -10 -87 -26l-2 2v45c23 14 50 24 98 24c67 0 120 -32 120 -97c0 -43 -25 -72 -64 -86c49 -11 77 -42 77 -92
c0 -69 -49 -112 -131 -112zM157 313h-56v317l-75 -48l-2 1v50l92 58h41v-378zM55 0l514 690h58l-514 -690h-58z" />
    <glyph glyph-name="seven.denflat" horiz-adv-x="275" 
d="M119 0h-59c16 80 55 161 94 236l47 93h-188v46h246v-38l-54 -110c-38 -77 -74 -159 -86 -227z" />
    <glyph glyph-name="seven.flat" horiz-adv-x="466" 
d="M175 0h-68c30 146 104 298 170 433l97 199h-357v57h427v-48l-107 -225c-68 -141 -137 -291 -162 -416z" />
    <glyph glyph-name="seven.numflat" horiz-adv-x="275" 
d="M119 313h-59c16 80 55 161 94 236l47 93h-188v46h246v-38l-54 -110c-38 -77 -74 -159 -86 -227z" />
    <glyph glyph-name="seven.subflat" horiz-adv-x="275" 
d="M119 -90h-59c16 80 55 161 94 236l47 93h-188v46h246v-38l-54 -110c-38 -77 -74 -159 -86 -227z" />
    <glyph glyph-name="seven.supflat" horiz-adv-x="275" 
d="M119 373h-59c16 80 55 161 94 236l47 93h-188v46h246v-38l-54 -110c-38 -77 -74 -159 -86 -227z" />
    <glyph glyph-name="seven.ucflat" horiz-adv-x="498" 
d="M187 0h-71c33 150 113 305 183 444l103 204h-384v57h456v-49l-114 -230c-72 -145 -147 -298 -173 -426z" />
    <glyph glyph-name="seveneighths.flat" horiz-adv-x="751" 
d="M595 -6c-81 0 -135 40 -135 102c0 48 38 78 80 93c-42 19 -70 49 -70 94c0 62 55 98 121 98c70 0 124 -30 124 -97c0 -42 -32 -69 -68 -85c48 -20 80 -49 80 -100c0 -65 -50 -105 -132 -105zM601 214l5 -1c34 16 57 38 57 68c0 38 -29 58 -70 58s-68 -21 -68 -54
c0 -34 27 -54 76 -71zM594 36c50 0 77 25 77 61c0 37 -30 57 -86 76l-5 2c-35 -15 -66 -35 -66 -75s30 -64 80 -64zM123 313h-59c16 80 55 161 94 236l47 93h-188v46h246v-38l-54 -110c-38 -77 -74 -159 -86 -227zM65 0l514 690h58l-514 -690h-58z" />
    <glyph glyph-name="sterling.flat" horiz-adv-x="497" 
d="M474 57v-57h-445v47c71 66 76 101 93 196l10 57h-69v51h77l30 175c21 131 85 169 176 169c49 0 82 -8 118 -28v-60l-3 -1c-39 22 -70 31 -115 31c-56 0 -95 -27 -110 -115l-29 -171h164v-51h-173l-10 -57c-15 -91 -24 -128 -88 -186h374z" />
    <glyph glyph-name="sterling.ucflat" horiz-adv-x="533" 
d="M509 57v-57h-479v47c76 69 84 105 102 203l10 58h-76v51h85l32 182c24 135 91 174 188 174c54 0 89 -8 128 -29v-60l-3 -1c-42 22 -77 32 -125 32c-60 0 -104 -28 -120 -120l-32 -178h179v-51h-188l-11 -58c-16 -93 -24 -133 -92 -193h402z" />
    <glyph glyph-name="threequarters.flat" horiz-adv-x="750" 
d="M625 136v172l-121 -172h121zM734 94h-55v-94h-54v94h-178v32l177 252h55v-242h55v-42zM90 0l514 690h58l-514 -690h-58zM130 307c-55 0 -87 16 -110 29v47l3 2c28 -19 55 -31 101 -31c52 0 80 28 80 68c0 38 -26 65 -81 65h-44v43h41c50 0 71 26 71 61
c0 38 -26 58 -72 58c-39 0 -61 -10 -87 -26l-2 2v45c23 14 50 24 98 24c67 0 120 -32 120 -97c0 -43 -25 -72 -64 -86c49 -11 77 -42 77 -92c0 -69 -49 -112 -131 -112z" />
    <glyph glyph-name="trademark.flat" horiz-adv-x="681" 
d="M260 640h-99v-278h-55v278h-99v48h253v-48zM452 362l-92 251v-251h-49v326h67l90 -247l89 247h68v-326h-51v251l-92 -251h-30z" />
    <glyph glyph-name="two.denflat" horiz-adv-x="274" 
d="M17 0v33l116 127c33 38 55 72 55 111c0 38 -22 63 -71 63c-39 0 -64 -11 -91 -28l-3 2v47c25 15 55 26 102 26c74 0 121 -39 121 -105c0 -53 -31 -96 -72 -143l-83 -89h160v-44h-234z" />
    <glyph glyph-name="two.flat" horiz-adv-x="459" 
d="M29 0v37l219 252c62 76 103 143 103 222c0 73 -44 126 -138 126c-74 0 -118 -19 -169 -51l-3 1v62c43 27 94 46 174 46c117 0 203 -68 203 -184c0 -95 -57 -177 -129 -265l-166 -189h302v-57h-396z" />
    <glyph glyph-name="two.numflat" horiz-adv-x="274" 
d="M17 313v33l116 127c33 38 55 72 55 111c0 38 -22 63 -71 63c-39 0 -64 -11 -91 -28l-3 2v47c25 15 55 26 102 26c74 0 121 -39 121 -105c0 -53 -31 -96 -72 -143l-83 -89h160v-44h-234z" />
    <glyph glyph-name="two.subflat" horiz-adv-x="274" 
d="M17 -90v33l116 127c33 38 55 72 55 111c0 38 -22 63 -71 63c-39 0 -64 -11 -91 -28l-3 2v47c25 15 55 26 102 26c74 0 121 -39 121 -105c0 -53 -31 -96 -72 -143l-83 -89h160v-44h-234z" />
    <glyph glyph-name="two.supflat" horiz-adv-x="274" 
d="M17 373v33l116 127c33 38 55 72 55 111c0 38 -22 63 -71 63c-39 0 -64 -11 -91 -28l-3 2v47c25 15 55 26 102 26c74 0 121 -39 121 -105c0 -53 -31 -96 -72 -143l-83 -89h160v-44h-234z" />
    <glyph glyph-name="two.ucflat" horiz-adv-x="492" 
d="M30 0v38l237 260c68 77 111 147 111 228c0 75 -48 131 -150 131c-80 0 -126 -21 -180 -54l-4 2v62c47 28 99 48 186 48c126 0 217 -70 217 -189c0 -98 -56 -182 -137 -270l-182 -199h329v-57h-427z" />
    <glyph glyph-name="twothirds.flat" horiz-adv-x="771" 
d="M612 -6c-55 0 -87 16 -110 29v47l3 2c28 -19 55 -31 101 -31c52 0 80 28 80 68c0 38 -26 65 -81 65h-44v43h41c50 0 71 26 71 61c0 38 -26 58 -72 58c-39 0 -61 -10 -87 -26l-2 2v45c23 14 50 24 98 24c67 0 120 -32 120 -97c0 -43 -25 -72 -64 -86c49 -11 77 -42 77 -92
c0 -69 -49 -112 -131 -112zM21 313v33l116 127c33 38 55 72 55 111c0 38 -22 63 -71 63c-39 0 -64 -11 -91 -28l-3 2v47c25 15 55 26 102 26c74 0 121 -39 121 -105c0 -53 -31 -96 -72 -143l-83 -89h160v-44h-234zM96 0l514 690h58l-514 -690h-58z" />
    <glyph glyph-name="underdot" 
d="M163 -190v78h73v-78h-73z" />
    <glyph glyph-name="uni0192" unicode="&#x192;" horiz-adv-x="370" 
d="M325 328h-150l-67 -538h-64l67 538h-80v57h87l15 124c18 145 106 177 182 177c27 0 42 -3 56 -8v-52l-3 -2c-13 4 -28 8 -53 8c-51 0 -105 -25 -117 -123l-16 -124h143v-57z" />
    <glyph glyph-name="uni01A0" unicode="&#x1a0;" horiz-adv-x="780" 
d="M385 -10c-199 0 -348 158 -348 365s149 360 348 360c108 0 153 -44 216 -44c50 0 93 32 97 112h58c-3 -103 -57 -152 -138 -161c70 -57 114 -157 114 -267c0 -207 -148 -365 -347 -365zM385 49c162 0 276 124 276 306s-114 301 -276 301c-161 0 -277 -119 -277 -301
s116 -306 277 -306z" />
    <glyph glyph-name="uni01A1" unicode="&#x1a1;" horiz-adv-x="619" 
d="M293 -10c-149 0 -262 107 -262 271s113 269 262 269c66 0 87 -14 136 -13c70 1 108 34 111 114h54c-3 -102 -53 -151 -135 -162c60 -42 97 -115 97 -208c0 -164 -115 -271 -263 -271zM293 46c113 0 198 82 198 215c0 131 -85 213 -198 213s-197 -82 -197 -213
c0 -133 84 -215 197 -215z" />
    <glyph glyph-name="uni01AF" unicode="&#x1af;" horiz-adv-x="710" 
d="M335 -10c-155 0 -264 94 -264 267v448h68v-446c0 -137 76 -210 196 -210c119 0 201 73 201 210v446h37c71 0 109 33 114 115h57c-3 -103 -56 -156 -141 -165v-398c0 -173 -113 -267 -268 -267z" />
    <glyph glyph-name="uni01B0" unicode="&#x1b0;" horiz-adv-x="591" 
d="M414 0l-6 59c-45 -37 -102 -69 -176 -69c-106 0 -172 56 -172 164v366h64v-353c0 -94 55 -123 123 -123c62 0 113 22 159 57v419h37c70 0 103 34 107 112h54c-3 -100 -51 -153 -134 -162v-470h-56z" />
    <glyph glyph-name="uni0237" unicode="&#x237;" horiz-adv-x="197" 
d="M-28 -219v57c58 6 94 31 94 129v553h65v-556c0 -130 -60 -177 -159 -183z" />
    <glyph glyph-name="uni1EA0" unicode="&#x1ea0;" horiz-adv-x="621" 
d="M440 254l-131 320l-130 -320h261zM544 0l-80 196h-309l-80 -196h-67v4l297 710h11l298 -710v-4h-70zM274 -190v78h73v-78h-73z" />
    <glyph glyph-name="uni1EA0.flat" horiz-adv-x="621" 
d="M447 254l-138 358l-137 -358h275zM545 0l-76 196h-320l-75 -196h-66v4l274 701h57l275 -701v-4h-69zM274 -190v78h73v-78h-73z" />
    <glyph glyph-name="uni1EA1" unicode="&#x1ea1;" horiz-adv-x="489" 
d="M209 45c77 0 126 35 154 76v141l-119 -20c-97 -16 -148 -40 -148 -105c0 -58 41 -92 113 -92zM372 0l-6 68c-27 -40 -77 -78 -161 -78c-101 0 -175 50 -175 147c0 104 88 135 201 154l132 23v13c0 111 -48 146 -143 146c-58 0 -103 -13 -150 -41l-3 2v54
c40 28 92 42 158 42c126 0 202 -53 202 -197v-333h-55zM200 -190v78h73v-78h-73z" />
    <glyph glyph-name="uni1EA1.alt" horiz-adv-x="566" 
d="M450 0l-9 75c-40 -53 -98 -86 -175 -86c-132 0 -235 98 -235 265c0 168 104 277 242 277c71 0 125 -28 165 -80l6 69h56v-520h-50zM271 45c77 0 124 29 164 75v283c-40 47 -85 72 -159 72c-95 0 -180 -74 -180 -221c0 -145 84 -209 175 -209zM249 -190v78h73v-78h-73z
" />
    <glyph glyph-name="uni1EA2" unicode="&#x1ea2;" horiz-adv-x="621" 
d="M440 254l-131 320l-130 -320h261zM544 0l-80 196h-309l-80 -196h-67v4l297 710h11l298 -710v-4h-70zM233 921c12 8 39 19 80 19c63 0 103 -22 103 -74c0 -69 -85 -69 -85 -103v-2h-53v6c0 56 80 59 80 97c0 21 -20 30 -54 30c-31 0 -54 -10 -69 -18l-2 1v44z" />
    <glyph glyph-name="uni1EA2.flat" horiz-adv-x="621" 
d="M447 254l-138 358l-137 -358h275zM545 0l-76 196h-320l-75 -196h-66v4l274 701h57l275 -701v-4h-69zM234 921c12 8 39 19 80 19c63 0 103 -22 103 -74c0 -69 -85 -69 -85 -103v-2h-53v6c0 56 80 59 80 97c0 21 -20 30 -54 30c-31 0 -54 -10 -69 -18l-2 1v44z" />
    <glyph glyph-name="uni1EA3" unicode="&#x1ea3;" horiz-adv-x="489" 
d="M209 45c77 0 126 35 154 76v141l-119 -20c-97 -16 -148 -40 -148 -105c0 -58 41 -92 113 -92zM372 0l-6 68c-27 -40 -77 -78 -161 -78c-101 0 -175 50 -175 147c0 104 88 135 201 154l132 23v13c0 111 -48 146 -143 146c-58 0 -103 -13 -150 -41l-3 2v54
c40 28 92 42 158 42c126 0 202 -53 202 -197v-333h-55zM160 779c12 8 39 19 80 19c63 0 103 -23 103 -77c0 -69 -87 -74 -87 -118v-3h-53v7c0 66 81 69 81 112c0 23 -19 32 -53 32c-31 0 -54 -9 -69 -18l-2 2v44z" />
    <glyph glyph-name="uni1EA3.alt" horiz-adv-x="566" 
d="M450 0l-9 75c-40 -53 -98 -86 -175 -86c-132 0 -235 98 -235 265c0 168 104 277 242 277c71 0 125 -28 165 -80l6 69h56v-520h-50zM271 45c77 0 124 29 164 75v283c-40 47 -85 72 -159 72c-95 0 -180 -74 -180 -221c0 -145 84 -209 175 -209zM209 779c12 8 39 19 80 19
c63 0 103 -23 103 -77c0 -69 -87 -74 -87 -118v-3h-53v7c0 66 81 69 81 112c0 23 -19 32 -53 32c-31 0 -54 -9 -69 -18l-2 2v44z" />
    <glyph glyph-name="uni1EA4" unicode="&#x1ea4;" horiz-adv-x="621" 
d="M440 254l-131 320l-130 -320h261zM544 0l-80 196h-309l-80 -196h-67v4l297 710h11l298 -710v-4h-70zM475 868h-59l69 111h77zM312 857l-90 -93h-64l121 144h64l121 -144h-64z" />
    <glyph glyph-name="uni1EA4.flat" horiz-adv-x="621" 
d="M447 254l-138 358l-137 -358h275zM545 0l-76 196h-320l-75 -196h-66v4l274 701h57l275 -701v-4h-69zM475 868h-59l69 111h77zM312 857l-90 -93h-64l121 144h64l121 -144h-64z" />
    <glyph glyph-name="uni1EA5" unicode="&#x1ea5;" horiz-adv-x="489" 
d="M209 45c77 0 126 35 154 76v141l-119 -20c-97 -16 -148 -40 -148 -105c0 -58 41 -92 113 -92zM372 0l-6 68c-27 -40 -77 -78 -161 -78c-101 0 -175 50 -175 147c0 104 88 135 201 154l132 23v13c0 111 -48 146 -143 146c-58 0 -103 -13 -150 -41l-3 2v54
c40 28 92 42 158 42c126 0 202 -53 202 -197v-333h-55zM403 713h-59l71 116h77zM236 704l-85 -98h-62l116 147h64l116 -147h-62z" />
    <glyph glyph-name="uni1EA5.alt" horiz-adv-x="566" 
d="M450 0l-9 75c-40 -53 -98 -86 -175 -86c-132 0 -235 98 -235 265c0 168 104 277 242 277c71 0 125 -28 165 -80l6 69h56v-520h-50zM271 45c77 0 124 29 164 75v283c-40 47 -85 72 -159 72c-95 0 -180 -74 -180 -221c0 -145 84 -209 175 -209zM285 704l-85 -98h-62
l116 147h64l116 -147h-62zM452 713h-59l71 116h77z" />
    <glyph glyph-name="uni1EA6" unicode="&#x1ea6;" horiz-adv-x="621" 
d="M440 254l-131 320l-130 -320h261zM544 0l-80 196h-309l-80 -196h-67v4l297 710h11l298 -710v-4h-70zM456 868l-88 111h77l69 -111h-58zM312 857l-90 -93h-64l121 144h64l121 -144h-64z" />
    <glyph glyph-name="uni1EA6.flat" horiz-adv-x="621" 
d="M447 254l-138 358l-137 -358h275zM545 0l-76 196h-320l-75 -196h-66v4l274 701h57l275 -701v-4h-69zM456 868l-88 111h77l69 -111h-58zM312 857l-90 -93h-64l121 144h64l121 -144h-64z" />
    <glyph glyph-name="uni1EA7" unicode="&#x1ea7;" horiz-adv-x="489" 
d="M209 45c77 0 126 35 154 76v141l-119 -20c-97 -16 -148 -40 -148 -105c0 -58 41 -92 113 -92zM372 0l-6 68c-27 -40 -77 -78 -161 -78c-101 0 -175 50 -175 147c0 104 88 135 201 154l132 23v13c0 111 -48 146 -143 146c-58 0 -103 -13 -150 -41l-3 2v54
c40 28 92 42 158 42c126 0 202 -53 202 -197v-333h-55zM386 713l-90 116h78l70 -116h-58zM236 704l-85 -98h-62l116 147h64l116 -147h-62z" />
    <glyph glyph-name="uni1EA7.alt" horiz-adv-x="566" 
d="M450 0l-9 75c-40 -53 -98 -86 -175 -86c-132 0 -235 98 -235 265c0 168 104 277 242 277c71 0 125 -28 165 -80l6 69h56v-520h-50zM271 45c77 0 124 29 164 75v283c-40 47 -85 72 -159 72c-95 0 -180 -74 -180 -221c0 -145 84 -209 175 -209zM285 704l-85 -98h-62
l116 147h64l116 -147h-62zM435 713l-90 116h78l70 -116h-58z" />
    <glyph glyph-name="uni1EA8" unicode="&#x1ea8;" horiz-adv-x="621" 
d="M440 254l-131 320l-130 -320h261zM544 0l-80 196h-309l-80 -196h-67v4l297 710h11l298 -710v-4h-70zM393 989c11 9 37 19 76 19c59 0 92 -22 92 -67c0 -56 -75 -65 -75 -86v-2h-51v4c0 47 71 53 71 83c0 17 -13 25 -46 25c-29 0 -51 -8 -65 -17l-2 2v39zM312 857l-90 -93
h-64l121 144h64l121 -144h-64z" />
    <glyph glyph-name="uni1EA8.flat" horiz-adv-x="621" 
d="M447 254l-138 358l-137 -358h275zM545 0l-76 196h-320l-75 -196h-66v4l274 701h57l275 -701v-4h-69zM393 989c11 9 37 19 76 19c59 0 92 -22 92 -67c0 -56 -75 -65 -75 -86v-2h-51v4c0 47 71 53 71 83c0 17 -13 25 -46 25c-29 0 -51 -8 -65 -17l-2 2v39zM312 857l-90 -93
h-64l121 144h64l121 -144h-64z" />
    <glyph glyph-name="uni1EA9" unicode="&#x1ea9;" horiz-adv-x="489" 
d="M209 45c77 0 126 35 154 76v141l-119 -20c-97 -16 -148 -40 -148 -105c0 -58 41 -92 113 -92zM372 0l-6 68c-27 -40 -77 -78 -161 -78c-101 0 -175 50 -175 147c0 104 88 135 201 154l132 23v13c0 111 -48 146 -143 146c-58 0 -103 -13 -150 -41l-3 2v54
c40 28 92 42 158 42c126 0 202 -53 202 -197v-333h-55zM316 842c12 8 37 19 77 19c60 0 93 -21 93 -68c0 -57 -76 -67 -76 -89v-2h-51v4c0 48 72 55 72 85c0 19 -14 27 -47 27c-30 0 -52 -9 -66 -17l-2 1v40zM236 704l-85 -98h-62l116 147h64l116 -147h-62z" />
    <glyph glyph-name="uni1EA9.alt" horiz-adv-x="566" 
d="M450 0l-9 75c-40 -53 -98 -86 -175 -86c-132 0 -235 98 -235 265c0 168 104 277 242 277c71 0 125 -28 165 -80l6 69h56v-520h-50zM271 45c77 0 124 29 164 75v283c-40 47 -85 72 -159 72c-95 0 -180 -74 -180 -221c0 -145 84 -209 175 -209zM285 704l-85 -98h-62
l116 147h64l116 -147h-62zM365 842c12 8 37 19 77 19c60 0 93 -21 93 -68c0 -57 -76 -67 -76 -89v-2h-51v4c0 48 72 55 72 85c0 19 -14 27 -47 27c-30 0 -52 -9 -66 -17l-2 1v40z" />
    <glyph glyph-name="uni1EAA" unicode="&#x1eaa;" horiz-adv-x="621" 
d="M440 254l-131 320l-130 -320h261zM544 0l-80 196h-309l-80 -196h-67v4l297 710h11l298 -710v-4h-70zM368 969c24 0 45 11 65 39l4 -1l21 -42c-16 -27 -49 -53 -90 -53c-54 0 -81 32 -117 32c-29 0 -48 -11 -69 -39l-4 1l-19 45c19 27 54 49 92 49c50 0 76 -31 117 -31z
M312 830l-90 -66h-64l120 116h66l120 -116h-64z" />
    <glyph glyph-name="uni1EAA.flat" horiz-adv-x="621" 
d="M447 254l-138 358l-137 -358h275zM545 0l-76 196h-320l-75 -196h-66v4l274 701h57l275 -701v-4h-69zM368 969c24 0 45 11 65 39l4 -1l21 -42c-16 -27 -49 -53 -90 -53c-54 0 -81 32 -117 32c-29 0 -48 -11 -69 -39l-4 1l-19 45c19 27 54 49 92 49c50 0 76 -31 117 -31z
M312 830l-90 -66h-64l120 116h66l120 -116h-64z" />
    <glyph glyph-name="uni1EAB" unicode="&#x1eab;" horiz-adv-x="489" 
d="M209 45c77 0 126 35 154 76v141l-119 -20c-97 -16 -148 -40 -148 -105c0 -58 41 -92 113 -92zM372 0l-6 68c-27 -40 -77 -78 -161 -78c-101 0 -175 50 -175 147c0 104 88 135 201 154l132 23v13c0 111 -48 146 -143 146c-58 0 -103 -13 -150 -41l-3 2v54
c40 28 92 42 158 42c126 0 202 -53 202 -197v-333h-55zM296 853c24 0 40 11 60 40l4 -2l19 -42c-15 -27 -43 -53 -82 -53c-49 0 -76 30 -107 30c-28 0 -43 -11 -63 -39l-3 1l-18 45c18 28 47 49 83 49c46 0 71 -29 107 -29zM236 704l-85 -98h-62l116 147h64l116 -147h-62z
" />
    <glyph glyph-name="uni1EAB.alt" horiz-adv-x="566" 
d="M450 0l-9 75c-40 -53 -98 -86 -175 -86c-132 0 -235 98 -235 265c0 168 104 277 242 277c71 0 125 -28 165 -80l6 69h56v-520h-50zM271 45c77 0 124 29 164 75v283c-40 47 -85 72 -159 72c-95 0 -180 -74 -180 -221c0 -145 84 -209 175 -209zM285 704l-85 -98h-62
l116 147h64l116 -147h-62zM345 853c24 0 40 11 60 40l4 -2l19 -42c-15 -27 -43 -53 -82 -53c-49 0 -76 30 -107 30c-28 0 -43 -11 -63 -39l-3 1l-18 45c18 28 47 49 83 49c46 0 71 -29 107 -29z" />
    <glyph glyph-name="uni1EAC" unicode="&#x1eac;" horiz-adv-x="621" 
d="M440 254l-131 320l-130 -320h261zM544 0l-80 196h-309l-80 -196h-67v4l297 710h11l298 -710v-4h-70zM312 857l-90 -93h-64l121 144h64l121 -144h-64zM274 -190v78h73v-78h-73z" />
    <glyph glyph-name="uni1EAC.flat" horiz-adv-x="621" 
d="M447 254l-138 358l-137 -358h275zM545 0l-76 196h-320l-75 -196h-66v4l274 701h57l275 -701v-4h-69zM312 857l-90 -93h-64l121 144h64l121 -144h-64zM274 -190v78h73v-78h-73z" />
    <glyph glyph-name="uni1EAD" unicode="&#x1ead;" horiz-adv-x="489" 
d="M372 0l-6 68c-27 -40 -77 -78 -161 -78c-101 0 -175 50 -175 147c0 104 88 135 201 154l132 23v13c0 111 -48 146 -143 146c-58 0 -103 -13 -150 -41l-3 2v54c40 28 92 42 158 42c126 0 202 -53 202 -197v-333h-55zM209 45c77 0 126 35 154 76v141l-119 -20
c-97 -16 -148 -40 -148 -105c0 -58 41 -92 113 -92zM236 704l-85 -98h-62l116 147h64l116 -147h-62zM200 -190v78h73v-78h-73z" />
    <glyph glyph-name="uni1EAD.alt" horiz-adv-x="566" 
d="M450 0l-9 75c-40 -53 -98 -86 -175 -86c-132 0 -235 98 -235 265c0 168 104 277 242 277c71 0 125 -28 165 -80l6 69h56v-520h-50zM271 45c77 0 124 29 164 75v283c-40 47 -85 72 -159 72c-95 0 -180 -74 -180 -221c0 -145 84 -209 175 -209zM285 704l-85 -98h-62
l116 147h64l116 -147h-62z" />
    <glyph glyph-name="uni1EAE" unicode="&#x1eae;" horiz-adv-x="621" 
d="M440 254l-131 320l-130 -320h261zM544 0l-80 196h-309l-80 -196h-67v4l297 710h11l298 -710v-4h-70zM329 897h-59l74 107h78zM171 890c5 -78 60 -134 140 -134s134 56 139 134h-53c-7 -49 -36 -79 -86 -79s-80 30 -87 79h-53z" />
    <glyph glyph-name="uni1EAE.flat" horiz-adv-x="621" 
d="M447 254l-138 358l-137 -358h275zM545 0l-76 196h-320l-75 -196h-66v4l274 701h57l275 -701v-4h-69zM329 897h-59l74 107h78zM171 890c5 -78 60 -134 140 -134s134 56 139 134h-53c-7 -49 -36 -79 -86 -79s-80 30 -87 79h-53z" />
    <glyph glyph-name="uni1EAF" unicode="&#x1eaf;" horiz-adv-x="489" 
d="M209 45c77 0 126 35 154 76v141l-119 -20c-97 -16 -148 -40 -148 -105c0 -58 41 -92 113 -92zM372 0l-6 68c-27 -40 -77 -78 -161 -78c-101 0 -175 50 -175 147c0 104 88 135 201 154l132 23v13c0 111 -48 146 -143 146c-58 0 -103 -13 -150 -41l-3 2v54
c40 28 92 42 158 42c126 0 202 -53 202 -197v-333h-55zM254 766h-58l75 122h77zM237 613c-79 0 -134 56 -139 134h53c7 -50 37 -80 86 -80s78 31 85 80h53c-5 -78 -59 -134 -138 -134z" />
    <glyph glyph-name="uni1EAF.alt" horiz-adv-x="566" 
d="M450 0l-9 75c-40 -53 -98 -86 -175 -86c-132 0 -235 98 -235 265c0 168 104 277 242 277c71 0 125 -28 165 -80l6 69h56v-520h-50zM271 45c77 0 124 29 164 75v283c-40 47 -85 72 -159 72c-95 0 -180 -74 -180 -221c0 -145 84 -209 175 -209zM286 613
c-79 0 -134 56 -139 134h53c7 -50 37 -80 86 -80s78 31 85 80h53c-5 -78 -59 -134 -138 -134zM303 766h-58l75 122h77z" />
    <glyph glyph-name="uni1EB0" unicode="&#x1eb0;" horiz-adv-x="621" 
d="M440 254l-131 320l-130 -320h261zM544 0l-80 196h-309l-80 -196h-67v4l297 710h11l298 -710v-4h-70zM293 897l-93 107h78l74 -107h-59zM311 756c-80 0 -135 56 -140 134h53c7 -49 37 -79 87 -79s79 30 86 79h53c-5 -78 -59 -134 -139 -134z" />
    <glyph glyph-name="uni1EB0.flat" horiz-adv-x="621" 
d="M447 254l-138 358l-137 -358h275zM545 0l-76 196h-320l-75 -196h-66v4l274 701h57l275 -701v-4h-69zM293 897l-93 107h78l74 -107h-59zM311 756c-80 0 -135 56 -140 134h53c7 -49 37 -79 87 -79s79 30 86 79h53c-5 -78 -59 -134 -139 -134z" />
    <glyph glyph-name="uni1EB1" unicode="&#x1eb1;" horiz-adv-x="489" 
d="M209 45c77 0 126 35 154 76v141l-119 -20c-97 -16 -148 -40 -148 -105c0 -58 41 -92 113 -92zM372 0l-6 68c-27 -40 -77 -78 -161 -78c-101 0 -175 50 -175 147c0 104 88 135 201 154l132 23v13c0 111 -48 146 -143 146c-58 0 -103 -13 -150 -41l-3 2v54
c40 28 92 42 158 42c126 0 202 -53 202 -197v-333h-55zM220 766l-94 122h77l75 -122h-58zM237 613c-79 0 -134 56 -139 134h53c7 -50 37 -80 86 -80s78 31 85 80h53c-5 -78 -59 -134 -138 -134z" />
    <glyph glyph-name="uni1EB1.alt" horiz-adv-x="566" 
d="M450 0l-9 75c-40 -53 -98 -86 -175 -86c-132 0 -235 98 -235 265c0 168 104 277 242 277c71 0 125 -28 165 -80l6 69h56v-520h-50zM271 45c77 0 124 29 164 75v283c-40 47 -85 72 -159 72c-95 0 -180 -74 -180 -221c0 -145 84 -209 175 -209zM286 613
c-79 0 -134 56 -139 134h53c7 -50 37 -80 86 -80s78 31 85 80h53c-5 -78 -59 -134 -138 -134zM269 766l-94 122h77l75 -122h-58z" />
    <glyph glyph-name="uni1EB2" unicode="&#x1eb2;" horiz-adv-x="621" 
d="M440 254l-131 320l-130 -320h261zM544 0l-80 196h-309l-80 -196h-67v4l297 710h11l298 -710v-4h-70zM231 1027c12 7 40 18 80 18c63 0 102 -22 102 -66c0 -57 -85 -65 -85 -85v-2h-53v3c0 46 80 51 80 82c0 17 -18 23 -53 23c-31 0 -54 -8 -69 -15h-2v42zM171 890
c5 -78 60 -134 140 -134s134 56 139 134h-53c-7 -49 -36 -79 -86 -79s-80 30 -87 79h-53z" />
    <glyph glyph-name="uni1EB2.flat" horiz-adv-x="621" 
d="M447 254l-138 358l-137 -358h275zM545 0l-76 196h-320l-75 -196h-66v4l274 701h57l275 -701v-4h-69zM231 1027c12 7 40 18 80 18c63 0 102 -22 102 -66c0 -57 -85 -65 -85 -85v-2h-53v3c0 46 80 51 80 82c0 17 -18 23 -53 23c-31 0 -54 -8 -69 -15h-2v42zM171 890
c5 -78 60 -134 140 -134s134 56 139 134h-53c-7 -49 -36 -79 -86 -79s-80 30 -87 79h-53z" />
    <glyph glyph-name="uni1EB3" unicode="&#x1eb3;" horiz-adv-x="489" 
d="M209 45c77 0 126 35 154 76v141l-119 -20c-97 -16 -148 -40 -148 -105c0 -58 41 -92 113 -92zM372 0l-6 68c-27 -40 -77 -78 -161 -78c-101 0 -175 50 -175 147c0 104 88 135 201 154l132 23v13c0 111 -48 146 -143 146c-58 0 -103 -13 -150 -41l-3 2v54
c40 28 92 42 158 42c126 0 202 -53 202 -197v-333h-55zM157 902c12 7 39 18 80 18c63 0 102 -23 102 -67c0 -59 -85 -67 -85 -89v-2h-54v3c0 48 81 53 81 85c0 18 -18 26 -53 26c-31 0 -54 -9 -69 -17l-2 1v42zM237 613c-79 0 -134 56 -139 134h53c7 -50 37 -80 86 -80
s78 31 85 80h53c-5 -78 -59 -134 -138 -134z" />
    <glyph glyph-name="uni1EB3.alt" horiz-adv-x="566" 
d="M450 0l-9 75c-40 -53 -98 -86 -175 -86c-132 0 -235 98 -235 265c0 168 104 277 242 277c71 0 125 -28 165 -80l6 69h56v-520h-50zM271 45c77 0 124 29 164 75v283c-40 47 -85 72 -159 72c-95 0 -180 -74 -180 -221c0 -145 84 -209 175 -209zM286 613
c-79 0 -134 56 -139 134h53c7 -50 37 -80 86 -80s78 31 85 80h53c-5 -78 -59 -134 -138 -134zM206 902c12 7 39 18 80 18c63 0 102 -23 102 -67c0 -59 -85 -67 -85 -89v-2h-54v3c0 48 81 53 81 85c0 18 -18 26 -53 26c-31 0 -54 -9 -69 -17l-2 1v42z" />
    <glyph glyph-name="uni1EB4" unicode="&#x1eb4;" horiz-adv-x="621" 
d="M440 254l-131 320l-130 -320h261zM544 0l-80 196h-309l-80 -196h-67v4l297 710h11l298 -710v-4h-70zM369 969c24 0 45 11 65 39l4 -1l21 -42c-16 -27 -49 -53 -90 -53c-54 0 -83 32 -119 32c-30 0 -48 -11 -70 -39l-3 1l-19 45c19 27 53 49 92 49c50 0 78 -31 119 -31z
M311 756c-80 0 -135 56 -140 118h53c7 -34 37 -63 87 -63s79 30 86 63h53c-5 -62 -59 -118 -139 -118z" />
    <glyph glyph-name="uni1EB4.flat" horiz-adv-x="621" 
d="M447 254l-138 358l-137 -358h275zM545 0l-76 196h-320l-75 -196h-66v4l274 701h57l275 -701v-4h-69zM369 969c24 0 45 11 65 39l4 -1l21 -42c-16 -27 -49 -53 -90 -53c-54 0 -83 32 -119 32c-30 0 -48 -11 -70 -39l-3 1l-19 45c19 27 53 49 92 49c50 0 78 -31 119 -31z
M311 756c-80 0 -135 56 -140 118h53c7 -34 37 -63 87 -63s79 30 86 63h53c-5 -62 -59 -118 -139 -118z" />
    <glyph glyph-name="uni1EB5" unicode="&#x1eb5;" horiz-adv-x="489" 
d="M209 45c77 0 126 35 154 76v141l-119 -20c-97 -16 -148 -40 -148 -105c0 -58 41 -92 113 -92zM372 0l-6 68c-27 -40 -77 -78 -161 -78c-101 0 -175 50 -175 147c0 104 88 135 201 154l132 23v13c0 111 -48 146 -143 146c-58 0 -103 -13 -150 -41l-3 2v54
c40 28 92 42 158 42c126 0 202 -53 202 -197v-333h-55zM290 853c24 0 41 11 61 40l4 -2l19 -42c-15 -27 -43 -53 -82 -53c-49 0 -76 30 -107 30c-28 0 -43 -11 -63 -39l-3 1l-18 45c18 28 47 49 83 49c46 0 71 -29 106 -29zM237 613c-79 0 -134 56 -139 134h53
c7 -50 37 -80 86 -80s78 31 85 80h53c-5 -78 -59 -134 -138 -134z" />
    <glyph glyph-name="uni1EB5.alt" horiz-adv-x="566" 
d="M450 0l-9 75c-40 -53 -98 -86 -175 -86c-132 0 -235 98 -235 265c0 168 104 277 242 277c71 0 125 -28 165 -80l6 69h56v-520h-50zM271 45c77 0 124 29 164 75v283c-40 47 -85 72 -159 72c-95 0 -180 -74 -180 -221c0 -145 84 -209 175 -209zM286 613
c-79 0 -134 56 -139 134h53c7 -50 37 -80 86 -80s78 31 85 80h53c-5 -78 -59 -134 -138 -134zM339 853c24 0 41 11 61 40l4 -2l19 -42c-15 -27 -43 -53 -82 -53c-49 0 -76 30 -107 30c-28 0 -43 -11 -63 -39l-3 1l-18 45c18 28 47 49 83 49c46 0 71 -29 106 -29z" />
    <glyph glyph-name="uni1EB6" unicode="&#x1eb6;" horiz-adv-x="621" 
d="M440 254l-131 320l-130 -320h261zM544 0l-80 196h-309l-80 -196h-67v4l297 710h11l298 -710v-4h-70zM311 756c-80 0 -135 56 -140 134h53c7 -49 37 -79 87 -79s79 30 86 79h53c-5 -78 -59 -134 -139 -134zM274 -190v78h73v-78h-73z" />
    <glyph glyph-name="uni1EB6.flat" horiz-adv-x="621" 
d="M447 254l-138 358l-137 -358h275zM545 0l-76 196h-320l-75 -196h-66v4l274 701h57l275 -701v-4h-69zM311 756c-80 0 -135 56 -140 134h53c7 -49 37 -79 87 -79s79 30 86 79h53c-5 -78 -59 -134 -139 -134zM274 -190v78h73v-78h-73z" />
    <glyph glyph-name="uni1EB7" unicode="&#x1eb7;" horiz-adv-x="489" 
d="M372 0l-6 68c-27 -40 -77 -78 -161 -78c-101 0 -175 50 -175 147c0 104 88 135 201 154l132 23v13c0 111 -48 146 -143 146c-58 0 -103 -13 -150 -41l-3 2v54c40 28 92 42 158 42c126 0 202 -53 202 -197v-333h-55zM209 45c77 0 126 35 154 76v141l-119 -20
c-97 -16 -148 -40 -148 -105c0 -58 41 -92 113 -92zM242 613c-79 0 -134 56 -139 134h53c7 -50 37 -80 86 -80s78 31 85 80h53c-5 -78 -59 -134 -138 -134zM205 -190v78h73v-78h-73z" />
    <glyph glyph-name="uni1EB7.alt" horiz-adv-x="566" 
d="M450 0l-9 75c-40 -53 -98 -86 -175 -86c-132 0 -235 98 -235 265c0 168 104 277 242 277c71 0 125 -28 165 -80l6 69h56v-520h-50zM271 45c77 0 124 29 164 75v283c-40 47 -85 72 -159 72c-95 0 -180 -74 -180 -221c0 -145 84 -209 175 -209zM287 613
c-79 0 -134 56 -139 134h53c7 -50 37 -80 86 -80s78 31 85 80h53c-5 -78 -59 -134 -138 -134zM249 -190v78h73v-78h-73z" />
    <glyph glyph-name="uni1EB8" unicode="&#x1eb8;" horiz-adv-x="504" 
d="M80 0v705h370v-59h-302v-252h264v-58h-264v-277h302v-59h-370zM230 -190v78h73v-78h-73z" />
    <glyph glyph-name="uni1EB9" unicode="&#x1eb9;" horiz-adv-x="521" 
d="M276 473c-94 0 -159 -58 -176 -156h322c-2 101 -56 156 -146 156zM477 36c-31 -19 -94 -46 -178 -46c-162 0 -268 102 -268 271c0 162 102 269 246 269c125 0 225 -78 211 -265h-393v-4c0 -139 80 -214 206 -214c75 0 134 26 172 51l4 -2v-60zM233 -190v78h73v-78h-73z
" />
    <glyph glyph-name="uni1EBA" unicode="&#x1eba;" horiz-adv-x="504" 
d="M80 0v705h370v-59h-302v-252h264v-58h-264v-277h302v-59h-370zM190 921c12 8 39 19 80 19c63 0 103 -22 103 -74c0 -69 -85 -69 -85 -103v-2h-53v6c0 56 80 59 80 97c0 21 -20 30 -54 30c-31 0 -54 -10 -69 -18l-2 1v44z" />
    <glyph glyph-name="uni1EBB" unicode="&#x1ebb;" horiz-adv-x="521" 
d="M276 473c-94 0 -159 -58 -176 -156h322c-2 101 -56 156 -146 156zM477 36c-31 -19 -94 -46 -178 -46c-162 0 -268 102 -268 271c0 162 102 269 246 269c125 0 225 -78 211 -265h-393v-4c0 -139 80 -214 206 -214c75 0 134 26 172 51l4 -2v-60zM193 779c12 8 39 19 80 19
c63 0 103 -23 103 -77c0 -69 -87 -74 -87 -118v-3h-53v7c0 66 81 69 81 112c0 23 -19 32 -53 32c-31 0 -54 -9 -69 -18l-2 2v44z" />
    <glyph glyph-name="uni1EBC" unicode="&#x1ebc;" horiz-adv-x="504" 
d="M80 0v705h370v-59h-302v-252h264v-58h-264v-277h302v-59h-370zM326 828c26 0 47 12 68 40l4 -1l20 -42c-16 -27 -50 -53 -91 -53c-58 0 -87 31 -126 31c-30 0 -50 -10 -72 -39l-3 2l-19 45c19 27 55 49 94 49c53 0 81 -32 125 -32z" />
    <glyph glyph-name="uni1EBD" unicode="&#x1ebd;" horiz-adv-x="521" 
d="M276 473c-94 0 -159 -58 -176 -156h322c-2 101 -56 156 -146 156zM477 36c-31 -19 -94 -46 -178 -46c-162 0 -268 102 -268 271c0 162 102 269 246 269c125 0 225 -78 211 -265h-393v-4c0 -139 80 -214 206 -214c75 0 134 26 172 51l4 -2v-60zM321 693c25 0 45 11 66 40
l4 -2l21 -42c-17 -27 -49 -52 -90 -52c-58 0 -78 29 -118 29c-29 0 -47 -11 -69 -39l-3 1l-19 45c19 28 52 49 90 49c55 0 74 -29 118 -29z" />
    <glyph glyph-name="uni1EBE" unicode="&#x1ebe;" horiz-adv-x="504" 
d="M80 0v705h370v-59h-302v-252h264v-58h-264v-277h302v-59h-370zM431 868h-59l69 111h77zM268 857l-90 -93h-64l121 144h64l121 -144h-64z" />
    <glyph glyph-name="uni1EBF" unicode="&#x1ebf;" horiz-adv-x="521" 
d="M276 473c-94 0 -159 -58 -176 -156h322c-2 101 -56 156 -146 156zM477 36c-31 -19 -94 -46 -178 -46c-162 0 -268 102 -268 271c0 162 102 269 246 269c125 0 225 -78 211 -265h-393v-4c0 -139 80 -214 206 -214c75 0 134 26 172 51l4 -2v-60zM436 713h-59l71 116h77z
M269 704l-85 -98h-62l116 147h64l116 -147h-62z" />
    <glyph glyph-name="uni1EC0" unicode="&#x1ec0;" horiz-adv-x="504" 
d="M80 0v705h370v-59h-302v-252h264v-58h-264v-277h302v-59h-370zM412 868l-88 111h77l69 -111h-58zM268 857l-90 -93h-64l121 144h64l121 -144h-64z" />
    <glyph glyph-name="uni1EC1" unicode="&#x1ec1;" horiz-adv-x="521" 
d="M276 473c-94 0 -159 -58 -176 -156h322c-2 101 -56 156 -146 156zM477 36c-31 -19 -94 -46 -178 -46c-162 0 -268 102 -268 271c0 162 102 269 246 269c125 0 225 -78 211 -265h-393v-4c0 -139 80 -214 206 -214c75 0 134 26 172 51l4 -2v-60zM419 713l-90 116h78
l70 -116h-58zM269 704l-85 -98h-62l116 147h64l116 -147h-62z" />
    <glyph glyph-name="uni1EC2" unicode="&#x1ec2;" horiz-adv-x="504" 
d="M80 0v705h370v-59h-302v-252h264v-58h-264v-277h302v-59h-370zM349 989c11 9 37 19 76 19c59 0 92 -22 92 -67c0 -56 -75 -65 -75 -86v-2h-51v4c0 47 71 53 71 83c0 17 -13 25 -46 25c-29 0 -51 -8 -65 -17l-2 2v39zM268 857l-90 -93h-64l121 144h64l121 -144h-64z" />
    <glyph glyph-name="uni1EC3" unicode="&#x1ec3;" horiz-adv-x="521" 
d="M276 473c-94 0 -159 -58 -176 -156h322c-2 101 -56 156 -146 156zM477 36c-31 -19 -94 -46 -178 -46c-162 0 -268 102 -268 271c0 162 102 269 246 269c125 0 225 -78 211 -265h-393v-4c0 -139 80 -214 206 -214c75 0 134 26 172 51l4 -2v-60zM349 842c12 8 37 19 77 19
c60 0 93 -21 93 -68c0 -57 -76 -67 -76 -89v-2h-51v4c0 48 72 55 72 85c0 19 -14 27 -47 27c-30 0 -52 -9 -66 -17l-2 1v40zM269 704l-85 -98h-62l116 147h64l116 -147h-62z" />
    <glyph glyph-name="uni1EC4" unicode="&#x1ec4;" horiz-adv-x="504" 
d="M80 0v705h370v-59h-302v-252h264v-58h-264v-277h302v-59h-370zM324 969c24 0 45 11 65 39l4 -1l21 -42c-16 -27 -49 -53 -90 -53c-54 0 -81 32 -117 32c-29 0 -48 -11 -69 -39l-4 1l-19 45c19 27 54 49 92 49c50 0 76 -31 117 -31zM268 830l-90 -66h-64l120 116h66
l120 -116h-64z" />
    <glyph glyph-name="uni1EC5" unicode="&#x1ec5;" horiz-adv-x="521" 
d="M276 473c-94 0 -159 -58 -176 -156h322c-2 101 -56 156 -146 156zM477 36c-31 -19 -94 -46 -178 -46c-162 0 -268 102 -268 271c0 162 102 269 246 269c125 0 225 -78 211 -265h-393v-4c0 -139 80 -214 206 -214c75 0 134 26 172 51l4 -2v-60zM329 853c24 0 40 11 60 40
l4 -2l19 -42c-15 -27 -43 -53 -82 -53c-49 0 -76 30 -107 30c-28 0 -43 -11 -63 -39l-3 1l-18 45c18 28 47 49 83 49c46 0 71 -29 107 -29zM269 704l-85 -98h-62l116 147h64l116 -147h-62z" />
    <glyph glyph-name="uni1EC6" unicode="&#x1ec6;" horiz-adv-x="504" 
d="M80 0v705h370v-59h-302v-252h264v-58h-264v-277h302v-59h-370zM268 857l-90 -93h-64l121 144h64l121 -144h-64zM230 -190v78h73v-78h-73z" />
    <glyph glyph-name="uni1EC7" unicode="&#x1ec7;" horiz-adv-x="521" 
d="M276 473c-94 0 -159 -58 -176 -156h322c-2 101 -56 156 -146 156zM477 36c-31 -19 -94 -46 -178 -46c-162 0 -268 102 -268 271c0 162 102 269 246 269c125 0 225 -78 211 -265h-393v-4c0 -139 80 -214 206 -214c75 0 134 26 172 51l4 -2v-60zM269 704l-85 -98h-62
l116 147h64l116 -147h-62zM233 -190v78h73v-78h-73z" />
    <glyph glyph-name="uni1EC8" unicode="&#x1ec8;" horiz-adv-x="232" 
d="M82 0v705h68v-705h-68zM39 921c12 8 39 19 80 19c63 0 103 -22 103 -74c0 -69 -85 -69 -85 -103v-2h-53v6c0 56 80 59 80 97c0 21 -20 30 -54 30c-31 0 -54 -10 -69 -18l-2 1v44z" />
    <glyph glyph-name="uni1EC9" unicode="&#x1ec9;" horiz-adv-x="203" 
d="M69 0v520h65v-520h-65zM24 779c12 8 39 19 80 19c63 0 103 -23 103 -77c0 -69 -87 -74 -87 -118v-3h-53v7c0 66 81 69 81 112c0 23 -19 32 -53 32c-31 0 -54 -9 -69 -18l-2 2v44z" />
    <glyph glyph-name="uni1ECA" unicode="&#x1eca;" horiz-adv-x="232" 
d="M82 0v705h68v-705h-68zM80 -190v78h73v-78h-73z" />
    <glyph glyph-name="uni1ECB" unicode="&#x1ecb;" horiz-adv-x="203" 
d="M67 636v74h69v-74h-69zM69 0v520h65v-520h-65zM65 -190v78h73v-78h-73z" />
    <glyph glyph-name="uni1ECC" unicode="&#x1ecc;" horiz-adv-x="769" 
d="M385 -10c-199 0 -348 158 -348 365s149 360 348 360s347 -153 347 -360s-148 -365 -347 -365zM385 49c162 0 276 124 276 306s-114 301 -276 301c-161 0 -277 -119 -277 -301s116 -306 277 -306zM347 -190v78h73v-78h-73z" />
    <glyph glyph-name="uni1ECD" unicode="&#x1ecd;" horiz-adv-x="587" 
d="M293 -10c-149 0 -262 107 -262 271s113 269 262 269c148 0 263 -105 263 -269s-115 -271 -263 -271zM293 46c113 0 198 82 198 215c0 131 -85 213 -198 213s-197 -82 -197 -213c0 -133 84 -215 197 -215zM256 -190v78h73v-78h-73z" />
    <glyph glyph-name="uni1ECE" unicode="&#x1ece;" horiz-adv-x="769" 
d="M385 -10c-199 0 -348 158 -348 365s149 360 348 360s347 -153 347 -360s-148 -365 -347 -365zM385 49c162 0 276 124 276 306s-114 301 -276 301c-161 0 -277 -119 -277 -301s116 -306 277 -306zM307 921c12 8 39 19 80 19c63 0 103 -22 103 -74c0 -69 -85 -69 -85 -103
v-2h-53v6c0 56 80 59 80 97c0 21 -20 30 -54 30c-31 0 -54 -10 -69 -18l-2 1v44z" />
    <glyph glyph-name="uni1ECF" unicode="&#x1ecf;" horiz-adv-x="587" 
d="M293 -10c-149 0 -262 107 -262 271s113 269 262 269c148 0 263 -105 263 -269s-115 -271 -263 -271zM293 46c113 0 198 82 198 215c0 131 -85 213 -198 213s-197 -82 -197 -213c0 -133 84 -215 197 -215zM216 779c12 8 39 19 80 19c63 0 103 -23 103 -77
c0 -69 -87 -74 -87 -118v-3h-53v7c0 66 81 69 81 112c0 23 -19 32 -53 32c-31 0 -54 -9 -69 -18l-2 2v44z" />
    <glyph glyph-name="uni1ED0" unicode="&#x1ed0;" horiz-adv-x="769" 
d="M385 -10c-199 0 -348 158 -348 365s149 360 348 360s347 -153 347 -360s-148 -365 -347 -365zM385 49c162 0 276 124 276 306s-114 301 -276 301c-161 0 -277 -119 -277 -301s116 -306 277 -306zM548 868h-59l69 111h77zM385 857l-90 -93h-64l121 144h64l121 -144h-64z
" />
    <glyph glyph-name="uni1ED1" unicode="&#x1ed1;" horiz-adv-x="587" 
d="M293 -10c-149 0 -262 107 -262 271s113 269 262 269c148 0 263 -105 263 -269s-115 -271 -263 -271zM293 46c113 0 198 82 198 215c0 131 -85 213 -198 213s-197 -82 -197 -213c0 -133 84 -215 197 -215zM459 713h-59l71 116h77zM292 704l-85 -98h-62l116 147h64
l116 -147h-62z" />
    <glyph glyph-name="uni1ED2" unicode="&#x1ed2;" horiz-adv-x="769" 
d="M385 -10c-199 0 -348 158 -348 365s149 360 348 360s347 -153 347 -360s-148 -365 -347 -365zM385 49c162 0 276 124 276 306s-114 301 -276 301c-161 0 -277 -119 -277 -301s116 -306 277 -306zM529 868l-88 111h77l69 -111h-58zM385 857l-90 -93h-64l121 144h64
l121 -144h-64z" />
    <glyph glyph-name="uni1ED3" unicode="&#x1ed3;" horiz-adv-x="587" 
d="M293 -10c-149 0 -262 107 -262 271s113 269 262 269c148 0 263 -105 263 -269s-115 -271 -263 -271zM293 46c113 0 198 82 198 215c0 131 -85 213 -198 213s-197 -82 -197 -213c0 -133 84 -215 197 -215zM442 713l-90 116h78l70 -116h-58zM292 704l-85 -98h-62l116 147
h64l116 -147h-62z" />
    <glyph glyph-name="uni1ED4" unicode="&#x1ed4;" horiz-adv-x="769" 
d="M385 -10c-199 0 -348 158 -348 365s149 360 348 360s347 -153 347 -360s-148 -365 -347 -365zM385 49c162 0 276 124 276 306s-114 301 -276 301c-161 0 -277 -119 -277 -301s116 -306 277 -306zM466 989c11 9 37 19 76 19c59 0 92 -22 92 -67c0 -56 -75 -65 -75 -86v-2
h-51v4c0 47 71 53 71 83c0 17 -13 25 -46 25c-29 0 -51 -8 -65 -17l-2 2v39zM385 857l-90 -93h-64l121 144h64l121 -144h-64z" />
    <glyph glyph-name="uni1ED5" unicode="&#x1ed5;" horiz-adv-x="587" 
d="M293 -10c-149 0 -262 107 -262 271s113 269 262 269c148 0 263 -105 263 -269s-115 -271 -263 -271zM293 46c113 0 198 82 198 215c0 131 -85 213 -198 213s-197 -82 -197 -213c0 -133 84 -215 197 -215zM372 842c12 8 37 19 77 19c60 0 93 -21 93 -68
c0 -57 -76 -67 -76 -89v-2h-51v4c0 48 72 55 72 85c0 19 -14 27 -47 27c-30 0 -52 -9 -66 -17l-2 1v40zM292 704l-85 -98h-62l116 147h64l116 -147h-62z" />
    <glyph glyph-name="uni1ED6" unicode="&#x1ed6;" horiz-adv-x="769" 
d="M385 -10c-199 0 -348 158 -348 365s149 360 348 360s347 -153 347 -360s-148 -365 -347 -365zM385 49c162 0 276 124 276 306s-114 301 -276 301c-161 0 -277 -119 -277 -301s116 -306 277 -306zM441 969c24 0 45 11 65 39l4 -1l21 -42c-16 -27 -49 -53 -90 -53
c-54 0 -81 32 -117 32c-29 0 -48 -11 -69 -39l-4 1l-19 45c19 27 54 49 92 49c50 0 76 -31 117 -31zM385 830l-90 -66h-64l120 116h66l120 -116h-64z" />
    <glyph glyph-name="uni1ED7" unicode="&#x1ed7;" horiz-adv-x="587" 
d="M293 -10c-149 0 -262 107 -262 271s113 269 262 269c148 0 263 -105 263 -269s-115 -271 -263 -271zM293 46c113 0 198 82 198 215c0 131 -85 213 -198 213s-197 -82 -197 -213c0 -133 84 -215 197 -215zM352 853c24 0 40 11 60 40l4 -2l19 -42c-15 -27 -43 -53 -82 -53
c-49 0 -76 30 -107 30c-28 0 -43 -11 -63 -39l-3 1l-18 45c18 28 47 49 83 49c46 0 71 -29 107 -29zM292 704l-85 -98h-62l116 147h64l116 -147h-62z" />
    <glyph glyph-name="uni1ED8" unicode="&#x1ed8;" horiz-adv-x="769" 
d="M385 -10c-199 0 -348 158 -348 365s149 360 348 360s347 -153 347 -360s-148 -365 -347 -365zM385 49c162 0 276 124 276 306s-114 301 -276 301c-161 0 -277 -119 -277 -301s116 -306 277 -306zM385 857l-90 -93h-64l121 144h64l121 -144h-64zM347 -190v78h73v-78h-73z
" />
    <glyph glyph-name="uni1ED9" unicode="&#x1ed9;" horiz-adv-x="587" 
d="M293 -10c-149 0 -262 107 -262 271s113 269 262 269c148 0 263 -105 263 -269s-115 -271 -263 -271zM293 46c113 0 198 82 198 215c0 131 -85 213 -198 213s-197 -82 -197 -213c0 -133 84 -215 197 -215zM292 704l-85 -98h-62l116 147h64l116 -147h-62zM256 -190v78h73
v-78h-73z" />
    <glyph glyph-name="uni1EDA" unicode="&#x1eda;" horiz-adv-x="780" 
d="M413 764h-62l94 141h82zM385 -10c-199 0 -348 158 -348 365s149 360 348 360c108 0 153 -44 216 -44c50 0 93 32 97 112h58c-3 -103 -57 -152 -138 -161c70 -57 114 -157 114 -267c0 -207 -148 -365 -347 -365zM385 49c162 0 276 124 276 306s-114 301 -276 301
c-161 0 -277 -119 -277 -301s116 -306 277 -306z" />
    <glyph glyph-name="uni1EDB" unicode="&#x1edb;" horiz-adv-x="619" 
d="M316 606h-63l102 164h81zM293 -10c-149 0 -262 107 -262 271s113 269 262 269c66 0 87 -14 136 -13c70 1 108 34 111 114h54c-3 -102 -53 -151 -135 -162c60 -42 97 -115 97 -208c0 -164 -115 -271 -263 -271zM293 46c113 0 198 82 198 215c0 131 -85 213 -198 213
s-197 -82 -197 -213c0 -133 84 -215 197 -215z" />
    <glyph glyph-name="uni1EDC" unicode="&#x1edc;" horiz-adv-x="780" 
d="M358 764l-114 141h82l94 -141h-62zM385 -10c-199 0 -348 158 -348 365s149 360 348 360c108 0 153 -44 216 -44c50 0 93 32 97 112h58c-3 -103 -57 -152 -138 -161c70 -57 114 -157 114 -267c0 -207 -148 -365 -347 -365zM385 49c162 0 276 124 276 306
s-114 301 -276 301c-161 0 -277 -119 -277 -301s116 -306 277 -306z" />
    <glyph glyph-name="uni1EDD" unicode="&#x1edd;" horiz-adv-x="619" 
d="M273 606l-120 164h81l102 -164h-63zM293 -10c-149 0 -262 107 -262 271s113 269 262 269c66 0 87 -14 136 -13c70 1 108 34 111 114h54c-3 -102 -53 -151 -135 -162c60 -42 97 -115 97 -208c0 -164 -115 -271 -263 -271zM293 46c113 0 198 82 198 215
c0 131 -85 213 -198 213s-197 -82 -197 -213c0 -133 84 -215 197 -215z" />
    <glyph glyph-name="uni1EDE" unicode="&#x1ede;" horiz-adv-x="780" 
d="M307 921c12 8 39 19 80 19c63 0 103 -22 103 -74c0 -69 -85 -69 -85 -103v-2h-53v6c0 56 80 59 80 97c0 21 -20 30 -54 30c-31 0 -54 -10 -69 -18l-2 1v44zM385 -10c-199 0 -348 158 -348 365s149 360 348 360c108 0 153 -44 216 -44c50 0 93 32 97 112h58
c-3 -103 -57 -152 -138 -161c70 -57 114 -157 114 -267c0 -207 -148 -365 -347 -365zM385 49c162 0 276 124 276 306s-114 301 -276 301c-161 0 -277 -119 -277 -301s116 -306 277 -306z" />
    <glyph glyph-name="uni1EDF" unicode="&#x1edf;" horiz-adv-x="619" 
d="M216 779c12 8 39 19 80 19c63 0 103 -23 103 -77c0 -69 -87 -74 -87 -118v-3h-53v7c0 66 81 69 81 112c0 23 -19 32 -53 32c-31 0 -54 -9 -69 -18l-2 2v44zM293 -10c-149 0 -262 107 -262 271s113 269 262 269c66 0 87 -14 136 -13c70 1 108 34 111 114h54
c-3 -102 -53 -151 -135 -162c60 -42 97 -115 97 -208c0 -164 -115 -271 -263 -271zM293 46c113 0 198 82 198 215c0 131 -85 213 -198 213s-197 -82 -197 -213c0 -133 84 -215 197 -215z" />
    <glyph glyph-name="uni1EE0" unicode="&#x1ee0;" horiz-adv-x="780" 
d="M448 828c26 0 47 12 68 40l4 -1l20 -42c-16 -27 -50 -53 -91 -53c-58 0 -87 31 -126 31c-30 0 -50 -10 -72 -39l-3 2l-19 45c19 27 55 49 94 49c53 0 81 -32 125 -32zM385 -10c-199 0 -348 158 -348 365s149 360 348 360c108 0 153 -44 216 -44c50 0 93 32 97 112h58
c-3 -103 -57 -152 -138 -161c70 -57 114 -157 114 -267c0 -207 -148 -365 -347 -365zM385 49c162 0 276 124 276 306s-114 301 -276 301c-161 0 -277 -119 -277 -301s116 -306 277 -306z" />
    <glyph glyph-name="uni1EE1" unicode="&#x1ee1;" horiz-adv-x="619" 
d="M353 693c25 0 45 11 66 40l4 -2l21 -42c-17 -27 -49 -52 -90 -52c-58 0 -78 29 -118 29c-29 0 -47 -11 -69 -39l-3 1l-19 45c19 28 52 49 90 49c55 0 74 -29 118 -29zM293 -10c-149 0 -262 107 -262 271s113 269 262 269c66 0 87 -14 136 -13c70 1 108 34 111 114h54
c-3 -102 -53 -151 -135 -162c60 -42 97 -115 97 -208c0 -164 -115 -271 -263 -271zM293 46c113 0 198 82 198 215c0 131 -85 213 -198 213s-197 -82 -197 -213c0 -133 84 -215 197 -215z" />
    <glyph glyph-name="uni1EE2" unicode="&#x1ee2;" horiz-adv-x="780" 
d="M347 -190v78h73v-78h-73zM385 -10c-199 0 -348 158 -348 365s149 360 348 360c108 0 153 -44 216 -44c50 0 93 32 97 112h58c-3 -103 -57 -152 -138 -161c70 -57 114 -157 114 -267c0 -207 -148 -365 -347 -365zM385 49c162 0 276 124 276 306s-114 301 -276 301
c-161 0 -277 -119 -277 -301s116 -306 277 -306z" />
    <glyph glyph-name="uni1EE3" unicode="&#x1ee3;" horiz-adv-x="619" 
d="M256 -190v78h73v-78h-73zM293 -10c-149 0 -262 107 -262 271s113 269 262 269c66 0 87 -14 136 -13c70 1 108 34 111 114h54c-3 -102 -53 -151 -135 -162c60 -42 97 -115 97 -208c0 -164 -115 -271 -263 -271zM293 46c113 0 198 82 198 215c0 131 -85 213 -198 213
s-197 -82 -197 -213c0 -133 84 -215 197 -215z" />
    <glyph glyph-name="uni1EE4" unicode="&#x1ee4;" horiz-adv-x="674" 
d="M335 -10c-155 0 -264 94 -264 267v448h68v-446c0 -137 76 -210 196 -210c119 0 201 73 201 210v446h67v-448c0 -173 -113 -267 -268 -267zM300 -190v78h73v-78h-73z" />
    <glyph glyph-name="uni1EE5" unicode="&#x1ee5;" horiz-adv-x="536" 
d="M414 0l-6 59c-45 -37 -102 -69 -176 -69c-106 0 -172 56 -172 164v366h64v-353c0 -94 55 -123 123 -123c62 0 113 22 159 57v419h64v-520h-56zM230 -190v78h73v-78h-73z" />
    <glyph glyph-name="uni1EE6" unicode="&#x1ee6;" horiz-adv-x="674" 
d="M335 -10c-155 0 -264 94 -264 267v448h68v-446c0 -137 76 -210 196 -210c119 0 201 73 201 210v446h67v-448c0 -173 -113 -267 -268 -267zM260 921c12 8 39 19 80 19c63 0 103 -22 103 -74c0 -69 -85 -69 -85 -103v-2h-53v6c0 56 80 59 80 97c0 21 -20 30 -54 30
c-31 0 -54 -10 -69 -18l-2 1v44z" />
    <glyph glyph-name="uni1EE7" unicode="&#x1ee7;" horiz-adv-x="536" 
d="M414 0l-6 59c-45 -37 -102 -69 -176 -69c-106 0 -172 56 -172 164v366h64v-353c0 -94 55 -123 123 -123c62 0 113 22 159 57v419h64v-520h-56zM190 779c12 8 39 19 80 19c63 0 103 -23 103 -77c0 -69 -87 -74 -87 -118v-3h-53v7c0 66 81 69 81 112c0 23 -19 32 -53 32
c-31 0 -54 -9 -69 -18l-2 2v44z" />
    <glyph glyph-name="uni1EE8" unicode="&#x1ee8;" horiz-adv-x="710" 
d="M366 764h-62l94 141h82zM335 -10c-155 0 -264 94 -264 267v448h68v-446c0 -137 76 -210 196 -210c119 0 201 73 201 210v446h37c71 0 109 33 114 115h57c-3 -103 -56 -156 -141 -165v-398c0 -173 -113 -267 -268 -267z" />
    <glyph glyph-name="uni1EE9" unicode="&#x1ee9;" horiz-adv-x="591" 
d="M290 606h-63l102 164h81zM414 0l-6 59c-45 -37 -102 -69 -176 -69c-106 0 -172 56 -172 164v366h64v-353c0 -94 55 -123 123 -123c62 0 113 22 159 57v419h37c70 0 103 34 107 112h54c-3 -100 -51 -153 -134 -162v-470h-56z" />
    <glyph glyph-name="uni1EEA" unicode="&#x1eea;" horiz-adv-x="710" 
d="M311 764l-114 141h82l94 -141h-62zM335 -10c-155 0 -264 94 -264 267v448h68v-446c0 -137 76 -210 196 -210c119 0 201 73 201 210v446h37c71 0 109 33 114 115h57c-3 -103 -56 -156 -141 -165v-398c0 -173 -113 -267 -268 -267z" />
    <glyph glyph-name="uni1EEB" unicode="&#x1eeb;" horiz-adv-x="591" 
d="M250 606l-120 164h81l102 -164h-63zM414 0l-6 59c-45 -37 -102 -69 -176 -69c-106 0 -172 56 -172 164v366h64v-353c0 -94 55 -123 123 -123c62 0 113 22 159 57v419h37c70 0 103 34 107 112h54c-3 -100 -51 -153 -134 -162v-470h-56z" />
    <glyph glyph-name="uni1EEC" unicode="&#x1eec;" horiz-adv-x="710" 
d="M260 921c12 8 39 19 80 19c63 0 103 -22 103 -74c0 -69 -85 -69 -85 -103v-2h-53v6c0 56 80 59 80 97c0 21 -20 30 -54 30c-31 0 -54 -10 -69 -18l-2 1v44zM335 -10c-155 0 -264 94 -264 267v448h68v-446c0 -137 76 -210 196 -210c119 0 201 73 201 210v446h37
c71 0 109 33 114 115h57c-3 -103 -56 -156 -141 -165v-398c0 -173 -113 -267 -268 -267z" />
    <glyph glyph-name="uni1EED" unicode="&#x1eed;" horiz-adv-x="591" 
d="M190 779c12 8 39 19 80 19c63 0 103 -23 103 -77c0 -69 -87 -74 -87 -118v-3h-53v7c0 66 81 69 81 112c0 23 -19 32 -53 32c-31 0 -54 -9 -69 -18l-2 2v44zM414 0l-6 59c-45 -37 -102 -69 -176 -69c-106 0 -172 56 -172 164v366h64v-353c0 -94 55 -123 123 -123
c62 0 113 22 159 57v419h37c70 0 103 34 107 112h54c-3 -100 -51 -153 -134 -162v-470h-56z" />
    <glyph glyph-name="uni1EEE" unicode="&#x1eee;" horiz-adv-x="710" 
d="M400 828c26 0 47 12 68 40l4 -1l20 -42c-16 -27 -50 -53 -91 -53c-58 0 -87 31 -126 31c-30 0 -50 -10 -72 -39l-3 2l-19 45c19 27 55 49 94 49c53 0 81 -32 125 -32zM335 -10c-155 0 -264 94 -264 267v448h68v-446c0 -137 76 -210 196 -210c119 0 201 73 201 210v446h37
c71 0 109 33 114 115h57c-3 -103 -56 -156 -141 -165v-398c0 -173 -113 -267 -268 -267z" />
    <glyph glyph-name="uni1EEF" unicode="&#x1eef;" horiz-adv-x="591" 
d="M327 693c25 0 45 11 66 40l4 -2l21 -42c-17 -27 -49 -52 -90 -52c-58 0 -78 29 -118 29c-29 0 -47 -11 -69 -39l-3 1l-19 45c19 28 52 49 90 49c55 0 74 -29 118 -29zM414 0l-6 59c-45 -37 -102 -69 -176 -69c-106 0 -172 56 -172 164v366h64v-353
c0 -94 55 -123 123 -123c62 0 113 22 159 57v419h37c70 0 103 34 107 112h54c-3 -100 -51 -153 -134 -162v-470h-56z" />
    <glyph glyph-name="uni1EF0" unicode="&#x1ef0;" horiz-adv-x="710" 
d="M300 -190v78h73v-78h-73zM335 -10c-155 0 -264 94 -264 267v448h68v-446c0 -137 76 -210 196 -210c119 0 201 73 201 210v446h37c71 0 109 33 114 115h57c-3 -103 -56 -156 -141 -165v-398c0 -173 -113 -267 -268 -267z" />
    <glyph glyph-name="uni1EF1" unicode="&#x1ef1;" horiz-adv-x="591" 
d="M230 -190v78h73v-78h-73zM414 0l-6 59c-45 -37 -102 -69 -176 -69c-106 0 -172 56 -172 164v366h64v-353c0 -94 55 -123 123 -123c62 0 113 22 159 57v419h37c70 0 103 34 107 112h54c-3 -100 -51 -153 -134 -162v-470h-56z" />
    <glyph glyph-name="uni1EF4" unicode="&#x1ef4;" horiz-adv-x="556" 
d="M314 0h-68v296l-237 405v4h71l200 -347l200 347h67v-4l-233 -401v-300zM243 -190v78h73v-78h-73z" />
    <glyph glyph-name="uni1EF5" unicode="&#x1ef5;" horiz-adv-x="485" 
d="M48 -219v59c74 10 111 45 138 111l28 72l-206 493v4h68l172 -422l164 422h65v-4l-230 -579c-41 -102 -98 -148 -199 -156zM298 -190v78h73v-78h-73z" />
    <glyph glyph-name="uni1EF5.alt" horiz-adv-x="485" 
d="M188 -210h-69v4l95 231l-206 491v4h70l170 -424l165 424h64v-4zM310 -190v78h73v-78h-73z" />
    <glyph glyph-name="uni1EF5.alt1" horiz-adv-x="536" 
d="M254 -220c-75 0 -135 17 -177 42v58l3 2c43 -26 102 -45 167 -45c105 0 160 47 160 144v76c-45 -37 -103 -67 -175 -67c-106 0 -172 56 -172 164v366h64v-353c0 -94 55 -123 123 -123c62 0 115 22 160 57v419h65v-535c0 -156 -102 -205 -218 -205zM507 -190v78h73v-78
h-73z" />
    <glyph glyph-name="uni1EF6" unicode="&#x1ef6;" horiz-adv-x="556" 
d="M314 0h-68v296l-237 405v4h71l200 -347l200 347h67v-4l-233 -401v-300zM203 921c12 8 39 19 80 19c63 0 103 -22 103 -74c0 -69 -85 -69 -85 -103v-2h-53v6c0 56 80 59 80 97c0 21 -20 30 -54 30c-31 0 -54 -10 -69 -18l-2 1v44z" />
    <glyph glyph-name="uni1EF7" unicode="&#x1ef7;" horiz-adv-x="485" 
d="M48 -219v59c74 10 111 45 138 111l28 72l-206 493v4h68l172 -422l164 422h65v-4l-230 -579c-41 -102 -98 -148 -199 -156zM172 779c12 8 39 19 80 19c63 0 103 -23 103 -77c0 -69 -87 -74 -87 -118v-3h-53v7c0 66 81 69 81 112c0 23 -19 32 -53 32c-31 0 -54 -9 -69 -18
l-2 2v44z" />
    <glyph glyph-name="uni1EF7.alt" horiz-adv-x="485" 
d="M188 -210h-69v4l95 231l-206 491v4h70l170 -424l165 424h64v-4zM171 779c12 8 39 19 80 19c63 0 103 -23 103 -77c0 -69 -87 -74 -87 -118v-3h-53v7c0 66 81 69 81 112c0 23 -19 32 -53 32c-31 0 -54 -9 -69 -18l-2 2v44z" />
    <glyph glyph-name="uni1EF7.alt1" horiz-adv-x="536" 
d="M254 -220c-75 0 -135 17 -177 42v58l3 2c43 -26 102 -45 167 -45c105 0 160 47 160 144v76c-45 -37 -103 -67 -175 -67c-106 0 -172 56 -172 164v366h64v-353c0 -94 55 -123 123 -123c62 0 115 22 160 57v419h65v-535c0 -156 -102 -205 -218 -205zM190 779
c12 8 39 19 80 19c63 0 103 -23 103 -77c0 -69 -87 -74 -87 -118v-3h-53v7c0 66 81 69 81 112c0 23 -19 32 -53 32c-31 0 -54 -9 -69 -18l-2 2v44z" />
    <glyph glyph-name="uni1EF8" unicode="&#x1ef8;" horiz-adv-x="556" 
d="M314 0h-68v296l-237 405v4h71l200 -347l200 347h67v-4l-233 -401v-300zM339 828c26 0 47 12 68 40l4 -1l20 -42c-16 -27 -50 -53 -91 -53c-58 0 -87 31 -126 31c-30 0 -50 -10 -72 -39l-3 2l-19 45c19 27 55 49 94 49c53 0 81 -32 125 -32z" />
    <glyph glyph-name="uni1EF9" unicode="&#x1ef9;" horiz-adv-x="485" 
d="M48 -219v59c74 10 111 45 138 111l28 72l-206 493v4h68l172 -422l164 422h65v-4l-230 -579c-41 -102 -98 -148 -199 -156zM300 693c25 0 45 11 66 40l4 -2l21 -42c-17 -27 -49 -52 -90 -52c-58 0 -78 29 -118 29c-29 0 -47 -11 -69 -39l-3 1l-19 45c19 28 52 49 90 49
c55 0 74 -29 118 -29z" />
    <glyph glyph-name="uni1EF9.alt" horiz-adv-x="485" 
d="M188 -210h-69v4l95 231l-206 491v4h70l170 -424l165 424h64v-4zM299 693c25 0 45 11 66 40l4 -2l21 -42c-17 -27 -49 -52 -90 -52c-58 0 -78 29 -118 29c-29 0 -47 -11 -69 -39l-3 1l-19 45c19 28 52 49 90 49c55 0 74 -29 118 -29z" />
    <glyph glyph-name="uni1EF9.alt1" horiz-adv-x="536" 
d="M254 -220c-75 0 -135 17 -177 42v58l3 2c43 -26 102 -45 167 -45c105 0 160 47 160 144v76c-45 -37 -103 -67 -175 -67c-106 0 -172 56 -172 164v366h64v-353c0 -94 55 -123 123 -123c62 0 115 22 160 57v419h65v-535c0 -156 -102 -205 -218 -205zM318 693
c25 0 45 11 66 40l4 -2l21 -42c-17 -27 -49 -52 -90 -52c-58 0 -78 29 -118 29c-29 0 -47 -11 -69 -39l-3 1l-19 45c19 28 52 49 90 49c55 0 74 -29 118 -29z" />
    <glyph glyph-name="uni2009" unicode="&#x2009;" horiz-adv-x="75" 
 />
    <glyph glyph-name="uni20AB" unicode="&#x20ab;" horiz-adv-x="572" 
d="M456 0l-9 76c-41 -53 -102 -87 -179 -87c-138 0 -237 98 -237 264c0 169 100 278 244 278c71 0 126 -27 167 -78v150h-170v47h170v83l64 17v-100h73v-47h-73v-603h-50zM273 45c78 0 128 29 169 76v281c-41 48 -90 73 -164 73c-100 0 -182 -75 -182 -222
c0 -144 80 -208 177 -208zM109 -154v51h370v-51h-370z" />
    <glyph glyph-name="v.flat" horiz-adv-x="489" 
d="M267 0h-44l-215 514v6h66l172 -423l171 423h64v-4z" />
    <glyph glyph-name="w.flat" horiz-adv-x="704" 
d="M494 0l-143 417l-139 -417h-40l-159 516v4h65l119 -405l133 405h46l134 -404l120 404h61v-4l-157 -516h-40z" />
    <glyph glyph-name="wacute.flat" horiz-adv-x="704" 
d="M375 606h-63l102 164h81zM494 0l-143 417l-139 -417h-40l-159 516v4h65l119 -405l133 405h46l134 -404l120 404h61v-4l-157 -516h-40z" />
    <glyph glyph-name="wcircumflex.flat" horiz-adv-x="704" 
d="M351 704l-85 -98h-62l116 147h64l116 -147h-62zM494 0l-143 417l-139 -417h-40l-159 516v4h65l119 -405l133 405h46l134 -404l120 404h61v-4l-157 -516h-40z" />
    <glyph glyph-name="wdieresis.flat" horiz-adv-x="704" 
d="M233 637v74h70v-74h-70zM401 637v74h70v-74h-70zM494 0l-143 417l-139 -417h-40l-159 516v4h65l119 -405l133 405h46l134 -404l120 404h61v-4l-157 -516h-40z" />
    <glyph glyph-name="wgrave.flat" horiz-adv-x="704" 
d="M494 0l-143 417l-139 -417h-40l-159 516v4h65l119 -405l133 405h46l134 -404l120 404h61v-4l-157 -516h-40zM332 606l-120 164h81l102 -164h-63z" />
    <glyph glyph-name="z.flat" horiz-adv-x="455" 
d="M424 0h-394v39l310 427h-288v54h365v-47l-305 -419h312v-54z" />
    <glyph glyph-name="zacute.flat" horiz-adv-x="455" 
d="M264 606h-63l102 164h81zM424 0h-394v39l310 427h-288v54h365v-47l-305 -419h312v-54z" />
    <glyph glyph-name="zcaron.flat" horiz-adv-x="455" 
d="M242 653l85 98h62l-116 -147h-64l-116 147h62zM424 0h-394v39l310 427h-288v54h365v-47l-305 -419h312v-54z" />
    <glyph glyph-name="zdotaccent.flat" horiz-adv-x="455" 
d="M424 0h-394v39l310 427h-288v54h365v-47l-305 -419h312v-54zM204 635v78h73v-78h-73z" />
    <glyph glyph-name="A" unicode="A" horiz-adv-x="621" 
d="M440 254l-131 320l-130 -320h261zM544 0l-80 196h-309l-80 -196h-67v4l297 710h11l298 -710v-4h-70z" />
    </font>
</defs>
</svg>
