<?xml version="1.0" standalone="no"?>
<!DOCTYPE svg PUBLIC "-//W3C//DTD SVG 1.1//EN" "http://www.w3.org/Graphics/SVG/1.1/DTD/svg11.dtd" >
<svg xmlns="http://www.w3.org/2000/svg" xmlns:xlink="http://www.w3.org/1999/xlink" version="1.1">
<metadata>
Created by FontForge 20170910 at Mon Jan 25 17:38:31 2016
 By Jimmy Wärting
Copyright \\\(C\\\)2015 Commercial Type.
</metadata>
<defs>
<font id="SanomatSansVN-Regular" horiz-adv-x="632" >
  <font-face 
    font-family="Sanomat Sans VN Regular"
    font-weight="400"
    font-stretch="normal"
    units-per-em="1000"
    panose-1="0 0 0 0 0 0 0 0 0 0"
    ascent="790"
    descent="-210"
    x-height="520"
    cap-height="705"
    bbox="-243 -222 1204 1108"
    underline-thickness="68"
    underline-position="-73"
    stemh="78"
    stemv="86"
    unicode-range="U+0020-FB04"
  />
<missing-glyph horiz-adv-x="500" 
 />
    <glyph glyph-name="f_f" unicode="ff" horiz-adv-x="596" 
d="M361 0v448h-186v-448h-86v448h-68v72h68v55c0 148 102 177 168 177c28 0 43 -4 49 -6v-69c-7 1 -21 3 -41 3c-43 0 -90 -23 -90 -109v-51h186v65c0 150 110 177 180 177c29 0 47 -3 55 -5v-69c-8 1 -20 2 -53 2c-41 0 -96 -21 -96 -109v-61h123v-72h-123v-448h-86z" />
    <glyph glyph-name="f_f_i" unicode="ffi" horiz-adv-x="822" 
d="M663 639v91h92v-91h-92zM666 0v520h86v-520h-86zM361 0v448h-186v-448h-86v448h-68v72h68v55c0 148 102 177 168 177c28 0 43 -4 49 -6v-69c-7 1 -21 3 -41 3c-43 0 -90 -23 -90 -109v-51h186v65c0 150 110 177 180 177c29 0 47 -3 55 -5v-69c-8 1 -20 2 -53 2
c-41 0 -96 -21 -96 -109v-61h123v-72h-123v-448h-86z" />
    <glyph glyph-name="f_f_l" unicode="ffl" horiz-adv-x="822" 
d="M666 0v734l86 23v-757h-86zM361 0v448h-186v-448h-86v448h-68v72h68v55c0 148 102 177 168 177c28 0 43 -4 49 -6v-69c-7 1 -21 3 -41 3c-43 0 -90 -23 -90 -109v-51h186v65c0 150 110 177 180 177c29 0 47 -3 55 -5v-69c-8 1 -20 2 -53 2c-41 0 -96 -21 -96 -109v-61
h123v-72h-123v-448h-86z" />
    <glyph glyph-name="f_i" unicode="fi" horiz-adv-x="550" 
d="M391 639v91h92v-91h-92zM394 0v520h86v-520h-86zM298 448h-123v-448h-86v448h-68v72h68v65c0 150 110 177 180 177c29 0 47 -3 55 -5v-69c-8 1 -20 2 -53 2c-41 0 -96 -21 -96 -109v-61h123v-72z" />
    <glyph glyph-name="f_l" unicode="fl" horiz-adv-x="550" 
d="M394 0v734l86 23v-757h-86zM298 448h-123v-448h-86v448h-68v72h68v65c0 150 110 177 180 177c29 0 47 -3 55 -5v-69c-8 1 -20 2 -53 2c-41 0 -96 -21 -96 -109v-61h123v-72z" />
    <glyph glyph-name=".notdef" horiz-adv-x="500" 
 />
    <glyph glyph-name="space" unicode=" " horiz-adv-x="240" 
 />
    <glyph glyph-name="exclam" unicode="!" horiz-adv-x="215" 
d="M75 203l-12 502h90l-12 -502h-66zM59 0v93h97v-93h-97z" />
    <glyph glyph-name="quotedbl" unicode="&#x22;" horiz-adv-x="316" 
d="M131 705l-14 -212h-61l-14 212h89zM274 705l-14 -212h-61l-14 212h89z" />
    <glyph glyph-name="numbersign" unicode="#" horiz-adv-x="517" 
d="M308 275l20 154h-116l-20 -154h116zM273 0l25 197h-116l-25 -197h-75l25 197h-100v78h110l20 154h-101v78h111l23 183h75l-23 -183h116l23 183h74l-23 -183h98v-78h-108l-20 -154h99v-78h-109l-25 -197h-74z" />
    <glyph glyph-name="dollar" unicode="$" horiz-adv-x="508" 
d="M124 518c0 -57 25 -90 100 -116l25 221c-84 0 -125 -41 -125 -105zM382 179c0 68 -35 93 -106 118l-26 -234c82 4 132 48 132 116zM228 -133h-63l14 125c-62 7 -106 27 -139 47v85l4 2c45 -29 86 -51 143 -59l28 251c-107 38 -176 92 -176 191c0 120 94 188 208 188h10
l9 84h63l-10 -89c44 -7 76 -20 106 -38v-80l-4 -2c-38 24 -69 39 -110 46l-26 -237c109 -38 184 -78 184 -197c0 -128 -99 -196 -228 -196z" />
    <glyph glyph-name="percent" unicode="%" horiz-adv-x="798" 
d="M191 350c-93 0 -164 69 -164 174c0 102 71 173 164 173c94 0 164 -71 164 -173c0 -105 -70 -174 -164 -174zM136 0l454 690h76l-454 -690h-76zM191 416c56 0 89 47 89 108c0 60 -33 107 -89 107c-55 0 -89 -47 -89 -107c0 -61 34 -108 89 -108zM607 -12
c-93 0 -164 69 -164 174c0 102 71 173 164 173c94 0 164 -71 164 -173c0 -105 -70 -174 -164 -174zM607 54c56 0 89 47 89 108c0 60 -33 107 -89 107c-55 0 -89 -47 -89 -107c0 -61 34 -108 89 -108z" />
    <glyph glyph-name="ampersand" unicode="&#x26;" horiz-adv-x="640" 
d="M272 62c70 0 114 30 146 66l-202 240c-64 -27 -103 -88 -103 -157c0 -87 59 -149 159 -149zM525 0l-59 71c-43 -45 -101 -85 -194 -85c-153 0 -249 90 -249 226c0 94 56 171 150 210c-23 34 -40 72 -40 122c0 90 69 173 188 173c66 0 97 -13 133 -31v-77l-4 -2
c-35 18 -70 34 -123 34c-66 0 -106 -38 -106 -94c0 -51 33 -95 71 -140l172 -204c21 55 28 137 33 207h80c-4 -80 -12 -196 -55 -276l109 -129v-5h-106z" />
    <glyph glyph-name="quotesingle" unicode="'" horiz-adv-x="173" 
d="M131 705l-14 -212h-61l-14 212h89z" />
    <glyph glyph-name="parenleft" unicode="(" horiz-adv-x="311" 
d="M212 -170c-104 128 -170 280 -170 473s66 343 170 471h87c-94 -126 -166 -268 -166 -471s72 -347 166 -473h-87z" />
    <glyph glyph-name="parenright" unicode=")" horiz-adv-x="311" 
d="M12 -170c94 126 166 270 166 473s-72 345 -166 471h87c104 -128 170 -278 170 -471s-66 -345 -170 -473h-87z" />
    <glyph glyph-name="asterisk" unicode="*" horiz-adv-x="381" 
d="M317 447l-102 74l11 -125h-72l13 126l-104 -75l-34 61l115 53l-115 53l34 61l104 -75l-13 126h72l-11 -125l102 74l35 -61l-114 -53l114 -53z" />
    <glyph glyph-name="plus" unicode="+" horiz-adv-x="528" 
d="M226 124v186h-169v72h169v186h76v-186h169v-72h-169v-186h-76z" />
    <glyph glyph-name="comma" unicode="," horiz-adv-x="221" 
d="M32 -126l41 219h97v-8l-72 -211h-66z" />
    <glyph glyph-name="hyphen" unicode="-" horiz-adv-x="313" 
d="M40 253v81h233v-81h-233z" />
    <glyph glyph-name="period" unicode="." horiz-adv-x="221" 
d="M62 0v93h97v-93h-97z" />
    <glyph glyph-name="slash" unicode="/" horiz-adv-x="403" 
d="M296 774h82l-306 -944h-82z" />
    <glyph glyph-name="zero" unicode="0" horiz-adv-x="595" 
d="M298 -12c-157 0 -264 138 -264 357s107 352 264 352s263 -133 263 -352s-106 -357 -263 -357zM298 66c102 0 169 92 169 279s-67 274 -169 274c-101 0 -170 -87 -170 -274s69 -279 170 -279z" />
    <glyph glyph-name="one" unicode="1" horiz-adv-x="334" 
d="M241 0h-90v575l-128 -73l-4 2v81l192 110h30v-695z" />
    <glyph glyph-name="two" unicode="2" horiz-adv-x="464" 
d="M15 0v30l228 271c60 71 91 136 91 208c0 60 -33 111 -121 111c-75 0 -115 -18 -171 -53l-4 2v82c45 28 94 46 178 46c117 0 207 -70 207 -188c0 -94 -55 -175 -125 -265l-143 -168h275v-76h-415z" />
    <glyph glyph-name="three" unicode="3" horiz-adv-x="484" 
d="M226 -12c-99 0 -155 27 -198 53v88l4 2c58 -41 107 -64 191 -64c93 0 139 53 139 123c0 72 -41 128 -154 128h-73v79h65c107 0 137 56 137 116c0 70 -44 107 -125 107c-75 0 -109 -16 -165 -51l-4 2v82c45 27 90 44 172 44c115 0 209 -56 209 -183
c0 -73 -44 -126 -107 -152c80 -23 134 -76 134 -167c0 -129 -90 -207 -225 -207z" />
    <glyph glyph-name="four" unicode="4" horiz-adv-x="521" 
d="M324 244v265l-202 -265h202zM516 171h-102v-171h-90v171h-321v36l371 488h40v-451h102v-73z" />
    <glyph glyph-name="five" unicode="5" horiz-adv-x="465" 
d="M192 -12c-80 0 -138 24 -180 51v87l4 2c58 -41 105 -61 176 -61c105 0 149 58 149 141c0 86 -53 134 -159 134c-63 0 -103 -11 -129 -19l-5 2v365h350v-76h-272v-203c19 4 45 7 70 7c142 0 234 -82 234 -205c0 -136 -86 -225 -238 -225z" />
    <glyph glyph-name="six" unicode="6" horiz-adv-x="530" 
d="M505 212c0 -114 -72 -224 -221 -224c-163 0 -248 124 -248 331c0 255 132 378 289 378c50 0 98 -10 134 -33v-87l-4 -2c-30 25 -74 44 -130 44c-104 0 -188 -75 -198 -263c39 37 94 67 166 67c119 0 212 -79 212 -211zM284 66c96 0 130 71 130 146c0 89 -49 138 -138 138
c-58 0 -107 -21 -150 -57c5 -146 54 -227 158 -227z" />
    <glyph glyph-name="seven" unicode="7" horiz-adv-x="473" 
d="M189 0h-91c34 155 108 305 172 438l86 177h-337v75h449v-27l-119 -247c-67 -141 -134 -290 -160 -416z" />
    <glyph glyph-name="eight" unicode="8" horiz-adv-x="514" 
d="M261 -12c-139 0 -234 77 -234 192c0 86 66 143 132 171c-67 34 -111 91 -111 165c0 112 93 181 204 181c123 0 215 -61 215 -184c0 -71 -55 -125 -113 -155c83 -34 133 -85 133 -174c0 -123 -90 -196 -226 -196zM273 386l10 -3c66 34 98 79 98 129c0 67 -50 110 -129 110
c-76 0 -120 -45 -120 -105c0 -49 35 -96 141 -131zM261 65c89 0 140 46 140 114c0 61 -36 100 -155 140l-19 6c-64 -28 -112 -68 -112 -139c0 -76 53 -121 146 -121z" />
    <glyph glyph-name="nine" unicode="9" horiz-adv-x="530" 
d="M253 331c59 0 108 21 150 56c-4 150 -48 232 -153 232c-96 0 -135 -69 -135 -144c0 -91 43 -144 138 -144zM192 -12c-50 0 -98 10 -134 33v87l3 2c30 -25 75 -44 131 -44c115 0 200 57 210 259c-39 -37 -93 -67 -166 -67c-122 0 -212 77 -212 217c0 114 77 222 226 222
c163 0 243 -124 243 -331c0 -275 -133 -378 -301 -378z" />
    <glyph glyph-name="colon" unicode=":" horiz-adv-x="229" 
d="M66 366v93h97v-93h-97zM66 0v93h97v-93h-97z" />
    <glyph glyph-name="semicolon" unicode=";" horiz-adv-x="229" 
d="M70 366v93h97v-93h-97zM32 -126l41 219h97v-8l-72 -211h-66z" />
    <glyph glyph-name="less" unicode="&#x3c;" horiz-adv-x="515" 
d="M435 115l-373 205v51l373 204l3 -2v-84l-264 -144l264 -144v-84z" />
    <glyph glyph-name="equal" unicode="=" horiz-adv-x="530" 
d="M72 369v73h386v-73h-386zM72 182v73h386v-73h-386z" />
    <glyph glyph-name="greater" unicode="&#x3e;" horiz-adv-x="515" 
d="M80 115l-3 2v84l264 144l-264 144v84l3 2l373 -205v-51z" />
    <glyph glyph-name="question" unicode="?" horiz-adv-x="443" 
d="M41 671c39 28 90 46 162 46c108 0 193 -59 193 -175c0 -88 -43 -140 -99 -190c-41 -36 -70 -64 -70 -120v-29h-82v29c0 78 27 117 94 176c44 38 70 71 70 134c0 55 -34 97 -109 97c-63 0 -105 -18 -155 -53l-4 2v83zM138 0v93h97v-93h-97z" />
    <glyph glyph-name="at" unicode="@" horiz-adv-x="901" 
d="M465 -179c-274 0 -433 179 -433 410c0 273 190 459 439 459c245 0 398 -167 398 -394c0 -174 -99 -261 -202 -261c-63 0 -110 23 -127 70c-37 -46 -83 -70 -139 -70c-113 0 -174 87 -174 189c0 143 89 251 221 251c51 0 90 -21 119 -56l5 39h86l-34 -272
c-9 -73 20 -90 57 -90c47 0 118 48 118 200c0 206 -129 334 -330 334c-193 0 -367 -148 -367 -404c0 -196 133 -345 363 -345c86 0 144 17 195 46l3 -2v-62c-52 -29 -110 -42 -198 -42zM414 108c48 0 86 15 120 50c0 5 0 9 1 14l23 180c-31 36 -60 50 -109 50
c-83 0 -136 -72 -136 -178c0 -77 45 -116 101 -116z" />
    <glyph glyph-name="B" unicode="B" horiz-adv-x="603" 
d="M305 625h-134v-215h141c87 0 125 39 125 110c0 73 -42 105 -132 105zM318 334h-147v-254h147c109 0 158 35 158 126c0 86 -50 128 -158 128zM81 0v705h217c142 0 229 -56 229 -180c0 -65 -25 -122 -106 -145c104 -25 147 -99 147 -174c0 -130 -86 -206 -243 -206h-244z
" />
    <glyph glyph-name="C" unicode="C" horiz-adv-x="661" 
d="M412 -12c-220 0 -376 156 -376 367s155 362 370 362c92 0 140 -16 192 -42v-90l-4 -2c-49 34 -110 56 -188 56c-173 0 -276 -116 -276 -284c0 -171 108 -288 282 -288c88 0 147 26 205 75l4 -2v-91c-43 -32 -101 -61 -209 -61z" />
    <glyph glyph-name="D" unicode="D" horiz-adv-x="694" 
d="M246 627h-75v-549h75c189 0 318 57 318 269c0 208 -129 280 -318 280zM81 0v705h172c234 0 405 -111 405 -358s-171 -347 -405 -347h-172z" />
    <glyph glyph-name="E" unicode="E" horiz-adv-x="510" 
d="M81 0v705h374v-78h-284v-223h247v-77h-247v-249h284v-78h-374z" />
    <glyph glyph-name="F" unicode="F" horiz-adv-x="494" 
d="M430 307h-259v-307h-90v705h378v-78h-288v-243h259v-77z" />
    <glyph glyph-name="G" unicode="G" horiz-adv-x="692" 
d="M631 59c-59 -38 -131 -71 -229 -71c-230 0 -366 156 -366 367s153 362 368 362c92 0 145 -18 198 -44v-89l-4 -2c-49 34 -116 57 -194 57c-172 0 -274 -115 -274 -284c0 -168 89 -288 272 -288c52 0 98 11 140 32v203h-167v77h256v-320z" />
    <glyph glyph-name="H" unicode="H" horiz-adv-x="727" 
d="M556 0v317h-385v-317h-90v705h90v-308h385v308h90v-705h-90z" />
    <glyph glyph-name="I" unicode="I" horiz-adv-x="256" 
d="M83 0v705h90v-705h-90z" />
    <glyph glyph-name="J" unicode="J" horiz-adv-x="262" 
d="M-24 -174v79c82 19 113 50 113 155v645h90v-650c0 -160 -70 -208 -203 -229z" />
    <glyph glyph-name="K" unicode="K" horiz-adv-x="611" 
d="M492 0l-229 353l-92 -100v-253h-90v705h90v-345l308 345h96v-5l-249 -281l267 -414v-5h-101z" />
    <glyph glyph-name="L" unicode="L" horiz-adv-x="481" 
d="M81 0v705h90v-628h281v-77h-371z" />
    <glyph glyph-name="M" unicode="M" horiz-adv-x="833" 
d="M662 0v541l-234 -549h-26l-237 557v-549h-84v705h101l236 -549l235 549h99v-705h-90z" />
    <glyph glyph-name="N" unicode="N" horiz-adv-x="734" 
d="M653 -17h-30l-455 539v-522h-87v719h31l454 -535v521h87v-722z" />
    <glyph glyph-name="O" unicode="O" horiz-adv-x="771" 
d="M386 -12c-202 0 -350 160 -350 367s148 362 350 362s349 -155 349 -362s-147 -367 -349 -367zM386 66c153 0 255 114 255 289s-102 284 -255 284c-152 0 -256 -109 -256 -284s104 -289 256 -289z" />
    <glyph glyph-name="P" unicode="P" horiz-adv-x="564" 
d="M282 625h-111v-265h118c110 0 154 51 154 137s-48 128 -161 128zM301 285h-130v-285h-90v705h204c155 0 250 -73 250 -211s-97 -209 -234 -209z" />
    <glyph glyph-name="Q" unicode="Q" horiz-adv-x="771" 
d="M607 -171c-158 0 -246 79 -279 164c-172 27 -292 175 -292 362c0 207 148 362 350 362s349 -155 349 -362c0 -193 -128 -346 -309 -365c26 -48 72 -87 184 -87c31 0 58 4 78 11l4 -4v-70c-10 -4 -43 -11 -85 -11zM386 66c164 0 255 112 255 289c0 175 -102 284 -255 284
c-152 0 -256 -109 -256 -284s104 -289 256 -289z" />
    <glyph glyph-name="R" unicode="R" horiz-adv-x="599" 
d="M282 625h-111v-262h118c110 0 158 50 158 136s-52 126 -165 126zM492 0l-203 288h-118v-288h-90v705h204c155 0 254 -71 254 -209c0 -106 -64 -170 -160 -191l214 -298v-7h-101z" />
    <glyph glyph-name="S" unicode="S" horiz-adv-x="508" 
d="M239 -12c-96 0 -156 25 -199 51v92l4 2c58 -41 108 -66 195 -66c91 0 141 45 141 118c0 66 -28 91 -125 127l-52 19c-98 36 -164 92 -164 195c0 120 94 191 208 191c84 0 134 -16 178 -43v-85l-4 -2c-56 35 -96 53 -171 53c-85 0 -124 -45 -124 -109
c0 -55 27 -90 103 -118l52 -19c113 -41 188 -85 188 -204c0 -132 -97 -202 -230 -202z" />
    <glyph glyph-name="T" unicode="T" horiz-adv-x="522" 
d="M511 627h-205v-627h-90v627h-205v78h500v-78z" />
    <glyph glyph-name="U" unicode="U" horiz-adv-x="685" 
d="M340 -12c-156 0 -269 95 -269 270v447h90v-443c0 -129 70 -196 179 -196s184 67 184 196v443h90v-447c0 -175 -118 -270 -274 -270z" />
    <glyph glyph-name="V" unicode="V" horiz-adv-x="628" 
d="M321 -13h-16l-291 713v5h93l211 -526l207 526h89v-5z" />
    <glyph glyph-name="W" unicode="W" horiz-adv-x="935" 
d="M650 -13l-188 475l-179 -475h-16l-253 713v5h93l175 -504l137 368l-53 131v5h93l196 -505l175 505h91v-5l-255 -713h-16z" />
    <glyph glyph-name="X" unicode="X" horiz-adv-x="616" 
d="M497 0l-196 303l-190 -303h-90v5l232 370l-212 325v5h98l172 -269l171 269h90v-5l-214 -334l237 -361v-5h-98z" />
    <glyph glyph-name="Y" unicode="Y" horiz-adv-x="569" 
d="M332 0h-90v291l-233 409v5h95l183 -330l184 330h89v-5l-228 -403v-297z" />
    <glyph glyph-name="Z" unicode="Z" horiz-adv-x="581" 
d="M539 0h-529v23l404 604h-350v78h486v-26l-400 -601h389v-78z" />
    <glyph glyph-name="bracketleft" unicode="[" horiz-adv-x="344" 
d="M77 -170v944h232v-72h-145v-800h145v-72h-232z" />
    <glyph glyph-name="backslash" unicode="\" horiz-adv-x="403" 
d="M102 774l306 -944h-82l-306 944h82z" />
    <glyph glyph-name="bracketright" unicode="]" horiz-adv-x="344" 
d="M35 -170v72h145v800h-145v72h232v-944h-232z" />
    <glyph glyph-name="asciicircum" unicode="^" horiz-adv-x="497" 
d="M116 398h-92l194 307h61l194 -307h-94l-131 211z" />
    <glyph glyph-name="underscore" unicode="_" horiz-adv-x="350" 
d="M-13 -141v68h376v-68h-376z" />
    <glyph glyph-name="grave" unicode="`" horiz-adv-x="400" 
d="M192 610l-124 165h109l98 -165h-83z" />
    <glyph glyph-name="a" unicode="a" horiz-adv-x="504" 
d="M215 61c68 0 113 28 141 66v122l-95 -15c-105 -16 -145 -38 -145 -95c0 -47 33 -78 99 -78zM368 0l-7 60c-27 -37 -73 -72 -152 -72c-103 0 -180 53 -180 151c0 108 90 141 213 160l114 18v5c0 102 -43 134 -133 134c-60 0 -100 -11 -151 -39l-4 2v72c41 28 92 41 162 41
c131 0 212 -56 212 -202v-330h-74z" />
    <glyph glyph-name="b" unicode="b" horiz-adv-x="579" 
d="M304 -12c-66 0 -118 26 -157 71l-6 -59h-75v734l86 23v-294c39 43 91 69 159 69c141 0 238 -100 238 -264c0 -168 -97 -280 -245 -280zM300 62c90 0 163 66 163 206c0 136 -73 190 -159 190c-73 0 -115 -23 -152 -62v-277c38 -37 80 -57 148 -57z" />
    <glyph glyph-name="c" unicode="c" horiz-adv-x="485" 
d="M301 -12c-159 0 -271 108 -271 273c0 167 117 271 267 271c67 0 116 -16 143 -33v-77l-4 -2c-41 22 -87 37 -139 37c-100 0 -180 -69 -180 -196c0 -124 71 -199 182 -199c64 0 110 20 150 48l4 -2v-75c-30 -24 -78 -45 -152 -45z" />
    <glyph glyph-name="d" unicode="d" horiz-adv-x="578" 
d="M446 0l-11 67c-39 -50 -94 -79 -167 -79c-141 0 -238 100 -238 264c0 168 97 280 245 280c63 0 112 -23 151 -65v267l86 23v-757h-66zM275 62c72 0 114 23 151 61v279c-38 36 -80 56 -147 56c-90 0 -163 -66 -163 -206c0 -136 73 -190 159 -190z" />
    <glyph glyph-name="e" unicode="e" horiz-adv-x="524" 
d="M276 457c-83 0 -138 -47 -155 -133h283c-4 83 -48 133 -128 133zM478 33c-32 -20 -94 -45 -176 -45c-165 0 -272 103 -272 273c0 163 103 271 248 271c126 0 230 -79 214 -276h-377c2 -128 75 -193 190 -193c71 0 127 24 169 52l4 -2v-80z" />
    <glyph glyph-name="f" unicode="f" horiz-adv-x="324" 
d="M298 448h-123v-448h-86v448h-68v72h68v65c0 150 110 177 180 177c29 0 47 -3 55 -5v-69c-8 1 -20 2 -53 2c-41 0 -96 -21 -96 -109v-61h123v-72z" />
    <glyph glyph-name="g" unicode="g" horiz-adv-x="485" 
d="M231 237c64 0 113 44 113 114c0 72 -49 114 -113 114c-65 0 -113 -42 -113 -114c0 -70 48 -114 113 -114zM235 -222c-137 0 -229 45 -229 135c0 34 16 60 31 72h70l2 -3c-11 -14 -22 -33 -22 -62c0 -49 47 -74 148 -74c111 0 161 47 161 103c0 44 -22 55 -82 58l-137 6
c-87 4 -123 42 -123 98c0 44 23 75 63 95c-48 30 -81 80 -81 145c0 110 84 179 194 179c28 0 58 -7 83 -17l162 12v-70h-94c23 -23 43 -58 43 -104c0 -109 -88 -175 -194 -175c-19 0 -37 2 -55 6c-34 -11 -47 -27 -47 -53c0 -25 18 -32 59 -34l135 -6
c101 -5 157 -40 157 -138c0 -103 -91 -173 -244 -173z" />
    <glyph glyph-name="h" unicode="h" horiz-adv-x="543" 
d="M291 460c-56 0 -96 -15 -139 -44v-416h-86v734l86 23v-285c42 33 91 60 160 60c107 0 169 -59 169 -167v-365h-86v347c0 91 -48 113 -104 113z" />
    <glyph glyph-name="i" unicode="i" horiz-adv-x="226" 
d="M67 639v91h92v-91h-92zM70 0v520h86v-520h-86z" />
    <glyph glyph-name="j" unicode="j" horiz-adv-x="218" 
d="M63 639v91h92v-91h-92zM-17 -222v77c55 5 83 30 83 115v550h86v-555c0 -126 -60 -181 -169 -187z" />
    <glyph glyph-name="k" unicode="k" horiz-adv-x="499" 
d="M396 0l-173 258l-71 -79v-179h-86v734l86 23v-480l217 243h95v-5l-180 -197l204 -312v-6h-92z" />
    <glyph glyph-name="l" unicode="l" horiz-adv-x="226" 
d="M70 0v734l86 23v-757h-86z" />
    <glyph glyph-name="m" unicode="m" horiz-adv-x="836" 
d="M282 460c-54 0 -90 -15 -130 -44v-416h-86v520h75l7 -50c40 34 86 62 155 62c67 0 114 -26 140 -76c44 39 92 76 171 76c101 0 160 -59 160 -167v-365h-86v347c0 91 -44 113 -95 113c-54 0 -90 -15 -130 -44v-416h-86v347c0 91 -44 113 -95 113z" />
    <glyph glyph-name="n" unicode="n" horiz-adv-x="543" 
d="M291 460c-56 0 -96 -15 -139 -44v-416h-86v520h75l7 -51c43 34 93 63 164 63c107 0 169 -59 169 -167v-365h-86v347c0 91 -48 113 -104 113z" />
    <glyph glyph-name="o" unicode="o" horiz-adv-x="592" 
d="M295 -12c-151 0 -265 109 -265 273s114 271 265 271s267 -107 267 -271s-116 -273 -267 -273zM295 62c104 0 181 76 181 199c0 121 -77 197 -181 197s-179 -76 -179 -197c0 -123 75 -199 179 -199z" />
    <glyph glyph-name="p" unicode="p" horiz-adv-x="579" 
d="M300 62c90 0 163 66 163 206c0 136 -73 190 -159 190c-72 0 -114 -23 -151 -61v-279c38 -36 80 -56 147 -56zM304 -12c-63 0 -112 23 -151 65v-263h-87v730h76l7 -60c39 45 92 72 162 72c141 0 238 -100 238 -264c0 -168 -97 -280 -245 -280z" />
    <glyph glyph-name="q" unicode="q" horiz-adv-x="578" 
d="M512 -210h-86v266c-39 -43 -91 -68 -158 -68c-141 0 -238 100 -238 264c0 168 97 280 245 280c65 0 117 -25 156 -70l7 58h74v-730zM275 62c72 0 114 23 151 61v279c-38 36 -80 56 -147 56c-90 0 -163 -66 -163 -206c0 -136 73 -190 159 -190z" />
    <glyph glyph-name="r" unicode="r" horiz-adv-x="347" 
d="M288 450c-67 0 -104 -18 -136 -68v-382h-86v520h75l8 -69c29 48 75 77 139 77c16 0 26 -1 42 -4v-77l-5 -3c-10 3 -25 6 -37 6z" />
    <glyph glyph-name="s" unicode="s" horiz-adv-x="427" 
d="M205 -10c-82 0 -135 21 -173 48v85l4 2c49 -39 97 -62 169 -62c68 0 106 29 106 78c0 47 -25 66 -89 84l-55 16c-81 23 -132 69 -132 145c0 92 75 148 180 148c65 0 109 -12 147 -31v-76l-4 -2c-41 23 -93 37 -146 37c-67 0 -91 -31 -91 -69c0 -40 25 -61 70 -74l55 -16
c102 -30 152 -61 152 -155c0 -108 -93 -158 -193 -158z" />
    <glyph glyph-name="t" unicode="t" horiz-adv-x="345" 
d="M313 4c-19 -7 -50 -13 -84 -13c-69 0 -135 32 -135 119v338h-68v72h68v98l86 14v-112h123v-72h-123v-329c0 -40 26 -55 67 -55c20 0 45 4 62 9l4 -2v-67z" />
    <glyph glyph-name="u" unicode="u" horiz-adv-x="551" 
d="M410 0l-7 51c-44 -34 -98 -63 -169 -63c-107 0 -174 59 -174 167v365h86v-347c0 -91 53 -113 109 -113s100 15 144 45v415h86v-520h-75z" />
    <glyph glyph-name="v" unicode="v" horiz-adv-x="502" 
d="M264 -10h-21l-236 525v5h88l159 -362l158 362h83v-5z" />
    <glyph glyph-name="w" unicode="w" horiz-adv-x="708" 
d="M504 -12l-150 370l-146 -370h-21l-175 527v5h89l106 -343l136 349h26l136 -350l105 344h86v-5l-172 -527h-20z" />
    <glyph glyph-name="x" unicode="x" horiz-adv-x="487" 
d="M377 0l-140 208l-138 -208h-84v5l178 267l-170 243v5h95l126 -187l125 187h84v-5l-165 -247l184 -263v-5h-95z" />
    <glyph glyph-name="y" unicode="y" horiz-adv-x="494" 
d="M54 -222v79c72 11 103 40 127 99l27 68l-201 491v5h91l155 -394l148 394h86v-5l-225 -578c-41 -104 -100 -151 -208 -159z" />
    <glyph glyph-name="z" unicode="z" horiz-adv-x="459" 
d="M425 0h-403v23l284 425h-249v72h378v-22l-287 -426h277v-72z" />
    <glyph glyph-name="braceleft" unicode="{" horiz-adv-x="354" 
d="M329 -170c-135 0 -245 46 -214 183l31 139c18 79 -22 114 -124 116v69c101 3 142 37 124 116l-31 137c-31 138 79 184 214 184v-68c-105 0 -150 -31 -127 -128l31 -130c19 -81 -12 -122 -101 -145c89 -24 120 -65 101 -146l-31 -131c-23 -97 22 -128 127 -128v-68z" />
    <glyph glyph-name="bar" unicode="|" horiz-adv-x="235" 
d="M79 -170v944h77v-944h-77z" />
    <glyph glyph-name="braceright" unicode="}" horiz-adv-x="354" 
d="M25 -170v68c105 0 150 31 127 128l-31 131c-19 81 12 122 101 146c-89 23 -120 64 -101 145l31 130c23 97 -22 128 -127 128v68c135 0 245 -46 214 -184l-31 -137c-18 -79 23 -113 124 -116v-69c-102 -2 -142 -37 -124 -116l31 -139c31 -137 -79 -183 -214 -183z" />
    <glyph glyph-name="asciitilde" unicode="~" horiz-adv-x="394" 
d="M351 379v-78c-17 -27 -47 -47 -89 -47c-66 0 -95 35 -134 35c-34 0 -54 -11 -80 -45l-5 2v78c17 29 47 46 89 46c66 0 95 -35 140 -35c28 0 48 11 74 46z" />
    <glyph glyph-name="uni00A0" unicode="&#xa0;" horiz-adv-x="240" 
 />
    <glyph glyph-name="exclamdown" unicode="&#xa1;" horiz-adv-x="215" 
d="M156 570v-93h-97v93h97zM140 367l12 -502h-90l12 502h66z" />
    <glyph glyph-name="cent" unicode="&#xa2;" horiz-adv-x="475" 
d="M114 261c0 -98 45 -166 118 -190l42 385c-91 -9 -160 -77 -160 -195zM298 -12h-11l-11 -101h-63l11 109c-118 29 -197 127 -197 265c0 162 111 265 255 271l8 75h63l-8 -78c41 -6 72 -18 92 -30v-77l-4 -2c-29 16 -62 28 -97 34l-42 -392h2c64 0 110 20 150 48l4 -2v-75
c-30 -24 -78 -45 -152 -45z" />
    <glyph glyph-name="sterling" unicode="&#xa3;" horiz-adv-x="495" 
d="M473 76v-76h-469v37c66 53 86 93 102 190l11 65h-61v67h72l24 141c27 158 105 197 198 197c46 0 77 -8 113 -28v-79l-4 -2c-40 22 -69 32 -109 32c-56 0 -93 -27 -110 -126l-23 -135h154v-67h-166l-8 -46c-13 -77 -19 -121 -71 -170h347z" />
    <glyph glyph-name="yen" unicode="&#xa5;" horiz-adv-x="545" 
d="M479 141h-159v-141h-90v141h-159v61h159v67h-159v61h154l-202 355v5h95l155 -289l160 289h89v-5l-200 -355h157v-61h-159v-67h159v-61z" />
    <glyph glyph-name="brokenbar" unicode="&#xa6;" horiz-adv-x="235" 
d="M79 369v405h77v-405h-77zM79 -170v434h77v-434h-77z" />
    <glyph glyph-name="section" unicode="&#xa7;" horiz-adv-x="490" 
d="M219 -139c-73 0 -120 19 -151 41v81l4 2c41 -31 81 -50 144 -50c70 0 101 32 101 79c0 41 -30 67 -66 88l-89 53c-74 44 -135 93 -135 178c0 67 51 109 116 129c-32 33 -47 67 -47 109c0 89 66 146 170 146c60 0 104 -12 131 -30v-76l-4 -2c-41 23 -75 35 -127 35
c-62 0 -87 -28 -87 -70c0 -38 21 -66 77 -99l67 -38c83 -49 140 -83 140 -176c0 -69 -55 -110 -110 -132c35 -29 51 -60 51 -110c0 -106 -82 -158 -185 -158zM278 179l21 -12c46 19 79 48 79 90c0 56 -36 75 -84 104l-67 38c-16 10 -31 19 -44 29c-49 -20 -74 -49 -74 -89
c0 -50 30 -77 80 -107z" />
    <glyph glyph-name="dieresis" unicode="&#xa8;" horiz-adv-x="400" 
d="M64 639v91h92v-91h-92zM244 639v91h92v-91h-92z" />
    <glyph glyph-name="copyright" unicode="&#xa9;" horiz-adv-x="792" 
d="M36 352c0 213 157 365 360 365s360 -152 360 -365c0 -211 -157 -364 -360 -364s-360 153 -360 364zM698 352c0 180 -127 315 -302 315c-173 0 -302 -135 -302 -315c0 -177 129 -314 302 -314c175 0 302 137 302 314zM411 155c-117 0 -200 82 -200 201
c0 120 86 200 196 200c55 0 95 -14 116 -27v-70l-3 -1c-33 18 -73 29 -113 29c-66 0 -119 -48 -119 -131c0 -81 47 -134 121 -134c50 0 89 16 121 39l4 -2v-68c-24 -19 -63 -36 -123 -36z" />
    <glyph glyph-name="ordfeminine" unicode="&#xaa;" horiz-adv-x="441" 
d="M186 300c56 0 93 26 116 58v96l-76 -12c-84 -13 -120 -31 -120 -78c0 -38 26 -64 80 -64zM311 245l-6 52c-23 -32 -62 -61 -125 -61c-87 0 -152 41 -152 128c0 96 78 123 180 138l94 14v2c0 83 -33 107 -103 107c-53 0 -91 -8 -134 -32l-3 2v67c34 22 83 35 144 35
c111 0 178 -47 178 -172v-280h-73z" />
    <glyph glyph-name="guillemotleft" unicode="&#xab;" horiz-adv-x="397" 
d="M119 84l-103 176l103 176h86l-100 -176l100 -176h-86zM286 84l-103 176l103 176h86l-100 -176l100 -176h-86z" />
    <glyph glyph-name="registered" unicode="&#xae;" horiz-adv-x="586" 
d="M22 443c0 160 119 274 271 274s271 -114 271 -274c0 -159 -119 -274 -271 -274s-271 115 -271 274zM510 443c0 129 -90 228 -217 228c-125 0 -218 -99 -218 -228c0 -128 93 -228 218 -228c127 0 217 100 217 228zM288 530h-30v-70h30c35 0 46 13 46 37
c0 23 -11 33 -46 33zM348 312l-63 100h-27v-100h-59v267h90c73 0 106 -26 106 -84c0 -40 -19 -63 -53 -73l68 -108v-2h-62z" />
    <glyph glyph-name="macron" unicode="&#xaf;" horiz-adv-x="400" 
d="M54 651v73h292v-73h-292z" />
    <glyph glyph-name="degree" unicode="&#xb0;" horiz-adv-x="417" 
d="M42 532c0 91 70 165 166 165s167 -74 167 -165s-71 -165 -167 -165s-166 74 -166 165zM302 532c0 55 -38 101 -94 101c-55 0 -93 -46 -93 -101c0 -54 38 -99 93 -99c56 0 94 45 94 99z" />
    <glyph glyph-name="acute" unicode="&#xb4;" horiz-adv-x="400" 
d="M208 610h-83l98 165h109z" />
    <glyph glyph-name="paragraph" unicode="&#xb6;" horiz-adv-x="556" 
d="M469 -130h-69v835h69v-835zM324 -130h-70v445h-14c-139 0 -206 71 -206 194c0 129 67 196 206 196h84v-835z" />
    <glyph glyph-name="periodcentered" unicode="&#xb7;" horiz-adv-x="221" 
d="M62 266v93h97v-93h-97z" />
    <glyph glyph-name="cedilla" unicode="&#xb8;" horiz-adv-x="400" 
d="M109 -200v55l3 2c16 -9 34 -17 60 -17c27 0 41 12 41 32c0 24 -24 34 -67 39v94h61v-53c47 -11 82 -26 82 -82c0 -55 -40 -89 -105 -89c-39 0 -63 11 -75 19z" />
    <glyph glyph-name="ordmasculine" unicode="&#xba;" horiz-adv-x="496" 
d="M247 232c-128 0 -225 94 -225 234c0 139 97 231 225 231s227 -92 227 -231c0 -140 -99 -234 -227 -234zM247 304c84 0 147 63 147 162c0 98 -63 160 -147 160c-83 0 -144 -62 -144 -160c0 -99 61 -162 144 -162z" />
    <glyph glyph-name="guillemotright" unicode="&#xbb;" horiz-adv-x="397" 
d="M25 84l100 176l-100 176h86l103 -176l-103 -176h-86zM192 84l100 176l-100 176h86l103 -176l-103 -176h-86z" />
    <glyph glyph-name="onequarter" unicode="&#xbc;" horiz-adv-x="707" 
d="M50 0l514 690h76l-514 -690h-76zM156 313h-73v290l-70 -36l-2 1v66l120 61h25v-382zM577 127v120l-91 -120h91zM701 71h-53v-71h-71v71h-179v30l215 282h35v-256h53v-56z" />
    <glyph glyph-name="onehalf" unicode="&#xbd;" horiz-adv-x="732" 
d="M51 0l514 690h76l-514 -690h-76zM156 313h-73v290l-70 -36l-2 1v66l120 61h25v-382zM459 0v25l125 142c31 35 47 66 47 100c0 30 -17 54 -60 54c-38 0 -60 -10 -89 -28l-3 2v61c25 16 55 26 104 26c74 0 124 -40 124 -109c0 -52 -29 -94 -69 -141l-67 -74h141v-58h-253z
" />
    <glyph glyph-name="threequarters" unicode="&#xbe;" horiz-adv-x="737" 
d="M80 0l514 690h76l-514 -690h-76zM607 127v120l-91 -120h91zM731 71h-53v-71h-71v71h-179v30l215 282h35v-256h53v-56zM130 306c-59 0 -91 16 -114 29v62l3 2c31 -20 56 -32 102 -32c45 0 66 24 66 56s-18 56 -70 56h-41v56h36c49 0 63 24 63 52c0 31 -20 49 -61 49
c-39 0 -58 -9 -87 -26l-3 2v59c25 15 52 24 102 24c69 0 124 -32 124 -100c0 -42 -23 -70 -62 -83c48 -12 75 -43 75 -92c0 -71 -50 -114 -133 -114z" />
    <glyph glyph-name="questiondown" unicode="&#xbf;" horiz-adv-x="443" 
d="M305 570v-93h-97v93h97zM402 -101c-39 -28 -90 -46 -162 -46c-108 0 -193 59 -193 175c0 88 43 140 99 190c41 36 70 64 70 120v29h82v-29c0 -78 -27 -117 -94 -176c-44 -38 -70 -71 -70 -134c0 -55 34 -97 109 -97c63 0 105 18 155 53l4 -2v-83z" />
    <glyph glyph-name="Agrave" unicode="&#xc0;" 
d="M424 264l-110 266l-110 -266h220zM534 0l-77 186h-285l-77 -186h-90v5l303 711h16l303 -711v-5h-93zM280 763l-114 145h109l88 -145h-83z" />
    <glyph glyph-name="Aacute" unicode="&#xc1;" 
d="M424 264l-110 266l-110 -266h220zM534 0l-77 186h-285l-77 -186h-90v5l303 711h16l303 -711v-5h-93zM356 763h-83l88 145h109z" />
    <glyph glyph-name="Acircumflex" unicode="&#xc2;" 
d="M424 264l-110 266l-110 -266h220zM534 0l-77 186h-285l-77 -186h-90v5l303 711h16l303 -711v-5h-93zM317 851l-81 -88h-85l122 156h86l122 -156h-85z" />
    <glyph glyph-name="Atilde" unicode="&#xc3;" 
d="M424 264l-110 266l-110 -266h220zM534 0l-77 186h-285l-77 -186h-90v5l303 711h16l303 -711v-5h-93zM379 838c25 0 46 12 66 40l5 -2l27 -56c-14 -26 -51 -57 -97 -57c-59 0 -90 30 -125 30c-31 0 -50 -11 -71 -39l-4 2l-25 60c18 27 58 52 100 52c54 0 83 -30 124 -30z
" />
    <glyph glyph-name="Adieresis" unicode="&#xc4;" 
d="M424 264l-110 266l-110 -266h220zM534 0l-77 186h-285l-77 -186h-90v5l303 711h16l303 -711v-5h-93zM374 770v91h92v-91h-92zM166 770v91h92v-91h-92z" />
    <glyph glyph-name="Aring" unicode="&#xc5;" 
d="M424 264l-110 266l-110 -266h220zM534 0l-77 186h-285l-77 -186h-90v5l303 711h16l303 -711v-5h-93zM316 746c-67 0 -113 45 -113 109s46 109 113 109s113 -45 113 -109s-46 -109 -113 -109zM316 910c-32 0 -51 -24 -51 -55s19 -55 51 -55c33 0 52 24 52 55
s-19 55 -52 55z" />
    <glyph glyph-name="AE" unicode="&#xc6;" horiz-adv-x="874" 
d="M445 264v363h-6l-202 -363h208zM445 0v186h-251l-103 -186h-89v5l392 700h425v-78h-284v-223h247v-77h-247v-249h284v-78h-374z" />
    <glyph glyph-name="Ccedilla" unicode="&#xc7;" horiz-adv-x="661" 
d="M353 -219c-39 0 -63 11 -75 19v55l3 2c16 -9 34 -17 60 -17c27 0 41 12 41 32c0 24 -24 34 -67 39v88c-167 38 -279 178 -279 356c0 211 155 362 370 362c92 0 140 -16 192 -42v-90l-4 -2c-49 34 -110 56 -188 56c-173 0 -276 -116 -276 -284c0 -171 108 -288 282 -288
c88 0 147 26 205 75l4 -2v-91c-43 -32 -101 -61 -209 -61c-12 0 -24 0 -36 1v-37c47 -11 82 -26 82 -82c0 -55 -40 -89 -105 -89z" />
    <glyph glyph-name="Egrave" unicode="&#xc8;" horiz-adv-x="510" 
d="M81 0v705h374v-78h-284v-223h247v-77h-247v-249h284v-78h-374zM236 763l-114 145h109l88 -145h-83z" />
    <glyph glyph-name="Eacute" unicode="&#xc9;" horiz-adv-x="510" 
d="M81 0v705h374v-78h-284v-223h247v-77h-247v-249h284v-78h-374zM312 763h-83l88 145h109z" />
    <glyph glyph-name="Ecircumflex" unicode="&#xca;" horiz-adv-x="510" 
d="M81 0v705h374v-78h-284v-223h247v-77h-247v-249h284v-78h-374zM273 851l-81 -88h-85l122 156h86l122 -156h-85z" />
    <glyph glyph-name="Edieresis" unicode="&#xcb;" horiz-adv-x="510" 
d="M81 0v705h374v-78h-284v-223h247v-77h-247v-249h284v-78h-374zM330 770v91h92v-91h-92zM122 770v91h92v-91h-92z" />
    <glyph glyph-name="Igrave" unicode="&#xcc;" horiz-adv-x="256" 
d="M83 0v705h90v-705h-90zM92 763l-114 145h109l88 -145h-83z" />
    <glyph glyph-name="Iacute" unicode="&#xcd;" horiz-adv-x="256" 
d="M83 0v705h90v-705h-90zM168 763h-83l88 145h109z" />
    <glyph glyph-name="Icircumflex" unicode="&#xce;" horiz-adv-x="256" 
d="M83 0v705h90v-705h-90zM129 851l-81 -88h-85l122 156h86l122 -156h-85z" />
    <glyph glyph-name="Idieresis" unicode="&#xcf;" horiz-adv-x="256" 
d="M166 770v91h92v-91h-92zM-2 770v91h92v-91h-92zM83 0v705h90v-705h-90z" />
    <glyph glyph-name="Eth" unicode="&#xd0;" horiz-adv-x="700" 
d="M374 324h-197v-246h75c189 0 318 57 318 269c0 208 -129 280 -318 280h-75v-230h197v-73zM87 0v324h-80v73h80v308h172c234 0 405 -111 405 -358s-171 -347 -405 -347h-172z" />
    <glyph glyph-name="Ntilde" unicode="&#xd1;" horiz-adv-x="734" 
d="M653 -17h-30l-455 539v-522h-87v719h31l454 -535v521h87v-722zM440 838c25 0 46 12 66 40l5 -2l27 -56c-14 -26 -51 -57 -97 -57c-59 0 -90 30 -125 30c-31 0 -50 -11 -71 -39l-4 2l-25 60c18 27 58 52 100 52c54 0 83 -30 124 -30z" />
    <glyph glyph-name="Ograve" unicode="&#xd2;" horiz-adv-x="771" 
d="M386 -12c-202 0 -350 160 -350 367s148 362 350 362s349 -155 349 -362s-147 -367 -349 -367zM386 66c153 0 255 114 255 289s-102 284 -255 284c-152 0 -256 -109 -256 -284s104 -289 256 -289zM349 763l-114 145h109l88 -145h-83z" />
    <glyph glyph-name="Oacute" unicode="&#xd3;" horiz-adv-x="771" 
d="M386 -12c-202 0 -350 160 -350 367s148 362 350 362s349 -155 349 -362s-147 -367 -349 -367zM386 66c153 0 255 114 255 289s-102 284 -255 284c-152 0 -256 -109 -256 -284s104 -289 256 -289zM425 763h-83l88 145h109z" />
    <glyph glyph-name="Ocircumflex" unicode="&#xd4;" horiz-adv-x="771" 
d="M386 -12c-202 0 -350 160 -350 367s148 362 350 362s349 -155 349 -362s-147 -367 -349 -367zM386 66c153 0 255 114 255 289s-102 284 -255 284c-152 0 -256 -109 -256 -284s104 -289 256 -289zM386 851l-81 -88h-85l122 156h86l122 -156h-85z" />
    <glyph glyph-name="Otilde" unicode="&#xd5;" horiz-adv-x="771" 
d="M386 -12c-202 0 -350 160 -350 367s148 362 350 362s349 -155 349 -362s-147 -367 -349 -367zM386 66c153 0 255 114 255 289s-102 284 -255 284c-152 0 -256 -109 -256 -284s104 -289 256 -289zM448 838c25 0 46 12 66 40l5 -2l27 -56c-14 -26 -51 -57 -97 -57
c-59 0 -90 30 -125 30c-31 0 -50 -11 -71 -39l-4 2l-25 60c18 27 58 52 100 52c54 0 83 -30 124 -30z" />
    <glyph glyph-name="Odieresis" unicode="&#xd6;" horiz-adv-x="771" 
d="M386 -12c-202 0 -350 160 -350 367s148 362 350 362s349 -155 349 -362s-147 -367 -349 -367zM386 66c153 0 255 114 255 289s-102 284 -255 284c-152 0 -256 -109 -256 -284s104 -289 256 -289zM443 770v91h92v-91h-92zM235 770v91h92v-91h-92z" />
    <glyph glyph-name="multiply" unicode="&#xd7;" horiz-adv-x="510" 
d="M402 147l-147 147l-148 -148l-52 53l148 148l-148 147l53 52l147 -147l147 147l52 -53l-146 -146l147 -148z" />
    <glyph glyph-name="Oslash" unicode="&#xd8;" horiz-adv-x="771" 
d="M130 355c0 -76 19 -141 52 -189l357 427c-41 30 -93 46 -153 46c-152 0 -256 -109 -256 -284zM386 66c153 0 255 114 255 289c0 77 -19 141 -53 189l-358 -428c41 -32 94 -50 156 -50zM386 -12c-79 0 -150 25 -207 67l-84 -100l-52 45l85 102c-58 65 -92 154 -92 253
c0 207 148 362 350 362c78 0 148 -23 204 -63l76 90l52 -45l-76 -91c58 -64 93 -153 93 -253c0 -207 -147 -367 -349 -367z" />
    <glyph glyph-name="Ugrave" unicode="&#xd9;" horiz-adv-x="685" 
d="M340 -12c-156 0 -269 95 -269 270v447h90v-443c0 -129 70 -196 179 -196s184 67 184 196v443h90v-447c0 -175 -118 -270 -274 -270zM306 763l-114 145h109l88 -145h-83z" />
    <glyph glyph-name="Uacute" unicode="&#xda;" horiz-adv-x="685" 
d="M340 -12c-156 0 -269 95 -269 270v447h90v-443c0 -129 70 -196 179 -196s184 67 184 196v443h90v-447c0 -175 -118 -270 -274 -270zM382 763h-83l88 145h109z" />
    <glyph glyph-name="Ucircumflex" unicode="&#xdb;" horiz-adv-x="685" 
d="M340 -12c-156 0 -269 95 -269 270v447h90v-443c0 -129 70 -196 179 -196s184 67 184 196v443h90v-447c0 -175 -118 -270 -274 -270zM343 851l-81 -88h-85l122 156h86l122 -156h-85z" />
    <glyph glyph-name="Udieresis" unicode="&#xdc;" horiz-adv-x="685" 
d="M340 -12c-156 0 -269 95 -269 270v447h90v-443c0 -129 70 -196 179 -196s184 67 184 196v443h90v-447c0 -175 -118 -270 -274 -270zM400 770v91h92v-91h-92zM192 770v91h92v-91h-92z" />
    <glyph glyph-name="Yacute" unicode="&#xdd;" horiz-adv-x="569" 
d="M332 0h-90v291l-233 409v5h95l183 -330l184 330h89v-5l-228 -403v-297zM327 763h-83l88 145h109z" />
    <glyph glyph-name="Thorn" unicode="&#xde;" horiz-adv-x="564" 
d="M297 482h-126v-241h133c105 0 139 46 139 125s-38 116 -146 116zM316 166h-145v-166h-90v705h90v-143h129c150 0 235 -68 235 -199s-87 -197 -219 -197z" />
    <glyph glyph-name="germandbls" unicode="&#xdf;" horiz-adv-x="556" 
d="M219 93l2 2c22 -13 57 -33 115 -33c60 0 111 30 111 88c0 104 -208 118 -208 226c0 99 147 121 147 219c0 54 -39 90 -107 90c-66 0 -127 -34 -127 -133v-552h-86v554c0 145 99 204 213 204c106 0 193 -61 193 -162c0 -122 -144 -165 -144 -212c0 -54 205 -85 205 -231
c0 -111 -81 -165 -183 -165c-68 0 -106 14 -131 30v75z" />
    <glyph glyph-name="agrave" unicode="&#xe0;" horiz-adv-x="504" 
d="M215 61c68 0 113 28 141 66v122l-95 -15c-105 -16 -145 -38 -145 -95c0 -47 33 -78 99 -78zM368 0l-7 60c-27 -37 -73 -72 -152 -72c-103 0 -180 53 -180 151c0 108 90 141 213 160l114 18v5c0 102 -43 134 -133 134c-60 0 -100 -11 -151 -39l-4 2v72c41 28 92 41 162 41
c131 0 212 -56 212 -202v-330h-74zM214 610l-124 165h109l98 -165h-83z" />
    <glyph glyph-name="aacute" unicode="&#xe1;" horiz-adv-x="504" 
d="M215 61c68 0 113 28 141 66v122l-95 -15c-105 -16 -145 -38 -145 -95c0 -47 33 -78 99 -78zM368 0l-7 60c-27 -37 -73 -72 -152 -72c-103 0 -180 53 -180 151c0 108 90 141 213 160l114 18v5c0 102 -43 134 -133 134c-60 0 -100 -11 -151 -39l-4 2v72c41 28 92 41 162 41
c131 0 212 -56 212 -202v-330h-74zM271 610h-83l98 165h109z" />
    <glyph glyph-name="acircumflex" unicode="&#xe2;" horiz-adv-x="504" 
d="M215 61c68 0 113 28 141 66v122l-95 -15c-105 -16 -145 -38 -145 -95c0 -47 33 -78 99 -78zM368 0l-7 60c-27 -37 -73 -72 -152 -72c-103 0 -180 53 -180 151c0 108 90 141 213 160l114 18v5c0 102 -43 134 -133 134c-60 0 -100 -11 -151 -39l-4 2v72c41 28 92 41 162 41
c131 0 212 -56 212 -202v-330h-74zM239 701l-75 -91h-82l115 156h86l115 -156h-82z" />
    <glyph glyph-name="atilde" unicode="&#xe3;" horiz-adv-x="504" 
d="M215 61c68 0 113 28 141 66v122l-95 -15c-105 -16 -145 -38 -145 -95c0 -47 33 -78 99 -78zM368 0l-7 60c-27 -37 -73 -72 -152 -72c-103 0 -180 53 -180 151c0 108 90 141 213 160l114 18v5c0 102 -43 134 -133 134c-60 0 -100 -11 -151 -39l-4 2v72c41 28 92 41 162 41
c131 0 212 -56 212 -202v-330h-74zM298 716c25 0 44 12 64 40l5 -2l27 -56c-14 -26 -49 -57 -94 -57c-60 0 -81 27 -116 27c-31 0 -47 -11 -68 -39l-4 2l-25 60c18 27 55 52 95 52c56 0 75 -27 116 -27z" />
    <glyph glyph-name="adieresis" unicode="&#xe4;" horiz-adv-x="504" 
d="M215 61c68 0 113 28 141 66v122l-95 -15c-105 -16 -145 -38 -145 -95c0 -47 33 -78 99 -78zM368 0l-7 60c-27 -37 -73 -72 -152 -72c-103 0 -180 53 -180 151c0 108 90 141 213 160l114 18v5c0 102 -43 134 -133 134c-60 0 -100 -11 -151 -39l-4 2v72c41 28 92 41 162 41
c131 0 212 -56 212 -202v-330h-74zM104 639v91h92v-91h-92zM284 639v91h92v-91h-92z" />
    <glyph glyph-name="aring" unicode="&#xe5;" horiz-adv-x="504" 
d="M215 61c68 0 113 28 141 66v122l-95 -15c-105 -16 -145 -38 -145 -95c0 -47 33 -78 99 -78zM368 0l-7 60c-27 -37 -73 -72 -152 -72c-103 0 -180 53 -180 151c0 108 90 141 213 160l114 18v5c0 102 -43 134 -133 134c-60 0 -100 -11 -151 -39l-4 2v72c41 28 92 41 162 41
c131 0 212 -56 212 -202v-330h-74zM240 591c-67 0 -113 45 -113 109s46 109 113 109s113 -45 113 -109s-46 -109 -113 -109zM240 755c-32 0 -51 -24 -51 -55s19 -55 51 -55c33 0 52 24 52 55s-19 55 -52 55z" />
    <glyph glyph-name="ae" unicode="&#xe6;" horiz-adv-x="848" 
d="M602 457c-83 0 -138 -47 -155 -133h283c-4 83 -48 133 -128 133zM804 33c-32 -20 -94 -45 -176 -45c-89 0 -164 30 -213 90c-48 -56 -109 -90 -204 -90c-103 0 -180 54 -180 152c0 108 92 141 213 159l114 18v5c0 102 -43 134 -133 134c-60 0 -100 -11 -151 -39l-4 2v72
c41 28 92 41 162 41c91 0 156 -24 187 -90c40 57 104 90 185 90c126 0 230 -79 214 -276h-377c2 -128 75 -193 190 -193c71 0 127 24 169 52l4 -2v-80zM217 61c76 0 131 32 157 92c-10 27 -15 59 -17 94l-94 -15c-103 -15 -145 -35 -145 -92c0 -47 33 -79 99 -79z" />
    <glyph glyph-name="ccedilla" unicode="&#xe7;" horiz-adv-x="485" 
d="M247 -219c-39 0 -63 11 -75 19v55l3 2c16 -9 34 -17 60 -17c27 0 41 12 41 32c0 24 -24 34 -67 39v90c-109 34 -179 129 -179 260c0 167 117 271 267 271c67 0 116 -16 143 -33v-77l-4 -2c-41 22 -87 37 -139 37c-100 0 -180 -69 -180 -196c0 -124 71 -199 182 -199
c64 0 110 20 150 48l4 -2v-75c-30 -24 -78 -45 -152 -45c-11 0 -21 0 -31 1v-37c47 -11 82 -26 82 -82c0 -55 -40 -89 -105 -89z" />
    <glyph glyph-name="egrave" unicode="&#xe8;" horiz-adv-x="524" 
d="M276 457c-83 0 -138 -47 -155 -133h283c-4 83 -48 133 -128 133zM478 33c-32 -20 -94 -45 -176 -45c-165 0 -272 103 -272 273c0 163 103 271 248 271c126 0 230 -79 214 -276h-377c2 -128 75 -193 190 -193c71 0 127 24 169 52l4 -2v-80zM243 610l-124 165h109l98 -165
h-83z" />
    <glyph glyph-name="eacute" unicode="&#xe9;" horiz-adv-x="524" 
d="M276 457c-83 0 -138 -47 -155 -133h283c-4 83 -48 133 -128 133zM478 33c-32 -20 -94 -45 -176 -45c-165 0 -272 103 -272 273c0 163 103 271 248 271c126 0 230 -79 214 -276h-377c2 -128 75 -193 190 -193c71 0 127 24 169 52l4 -2v-80zM300 610h-83l98 165h109z" />
    <glyph glyph-name="ecircumflex" unicode="&#xea;" horiz-adv-x="524" 
d="M276 457c-83 0 -138 -47 -155 -133h283c-4 83 -48 133 -128 133zM478 33c-32 -20 -94 -45 -176 -45c-165 0 -272 103 -272 273c0 163 103 271 248 271c126 0 230 -79 214 -276h-377c2 -128 75 -193 190 -193c71 0 127 24 169 52l4 -2v-80zM268 701l-75 -91h-82l115 156
h86l115 -156h-82z" />
    <glyph glyph-name="edieresis" unicode="&#xeb;" horiz-adv-x="524" 
d="M276 457c-83 0 -138 -47 -155 -133h283c-4 83 -48 133 -128 133zM478 33c-32 -20 -94 -45 -176 -45c-165 0 -272 103 -272 273c0 163 103 271 248 271c126 0 230 -79 214 -276h-377c2 -128 75 -193 190 -193c71 0 127 24 169 52l4 -2v-80zM133 639v91h92v-91h-92z
M313 639v91h92v-91h-92z" />
    <glyph glyph-name="igrave" unicode="&#xec;" horiz-adv-x="226" 
d="M70 0v520h86v-520h-86zM87 610l-124 165h109l98 -165h-83z" />
    <glyph glyph-name="iacute" unicode="&#xed;" horiz-adv-x="226" 
d="M70 0v520h86v-520h-86zM144 610h-83l98 165h109z" />
    <glyph glyph-name="icircumflex" unicode="&#xee;" horiz-adv-x="226" 
d="M70 0v520h86v-520h-86zM112 701l-75 -91h-82l115 156h86l115 -156h-82z" />
    <glyph glyph-name="idieresis" unicode="&#xef;" horiz-adv-x="226" 
d="M-10 639v91h92v-91h-92zM144 639v91h92v-91h-92zM70 0v520h86v-520h-86z" />
    <glyph glyph-name="eth" unicode="&#xf0;" horiz-adv-x="589" 
d="M293 -12c-150 0 -263 109 -263 273s112 271 250 271c59 0 112 -15 153 -52c-32 61 -81 107 -139 149l-145 -78l-27 52l117 62c-41 26 -84 51 -126 78l1 3h125c23 -13 47 -27 71 -43l102 55l27 -52l-75 -40c102 -77 192 -188 192 -364c0 -229 -117 -314 -263 -314zM293 62
c106 0 178 63 178 228c0 38 -2 70 -8 99c-43 47 -108 69 -170 69c-103 0 -177 -73 -177 -197c0 -126 77 -199 177 -199z" />
    <glyph glyph-name="ntilde" unicode="&#xf1;" horiz-adv-x="543" 
d="M291 460c-56 0 -96 -15 -139 -44v-416h-86v520h75l7 -51c43 34 93 63 164 63c107 0 169 -59 169 -167v-365h-86v347c0 91 -48 113 -104 113zM332 716c25 0 44 12 64 40l5 -2l27 -56c-14 -26 -49 -57 -94 -57c-60 0 -81 27 -116 27c-31 0 -47 -11 -68 -39l-4 2l-25 60
c18 27 55 52 95 52c56 0 75 -27 116 -27z" />
    <glyph glyph-name="ograve" unicode="&#xf2;" horiz-adv-x="592" 
d="M295 -12c-151 0 -265 109 -265 273s114 271 265 271s267 -107 267 -271s-116 -273 -267 -273zM295 62c104 0 181 76 181 199c0 121 -77 197 -181 197s-179 -76 -179 -197c0 -123 75 -199 179 -199zM270 610l-124 165h109l98 -165h-83z" />
    <glyph glyph-name="oacute" unicode="&#xf3;" horiz-adv-x="592" 
d="M295 -12c-151 0 -265 109 -265 273s114 271 265 271s267 -107 267 -271s-116 -273 -267 -273zM295 62c104 0 181 76 181 199c0 121 -77 197 -181 197s-179 -76 -179 -197c0 -123 75 -199 179 -199zM327 610h-83l98 165h109z" />
    <glyph glyph-name="ocircumflex" unicode="&#xf4;" horiz-adv-x="592" 
d="M295 -12c-151 0 -265 109 -265 273s114 271 265 271s267 -107 267 -271s-116 -273 -267 -273zM295 62c104 0 181 76 181 199c0 121 -77 197 -181 197s-179 -76 -179 -197c0 -123 75 -199 179 -199zM295 701l-75 -91h-82l115 156h86l115 -156h-82z" />
    <glyph glyph-name="otilde" unicode="&#xf5;" horiz-adv-x="592" 
d="M295 -12c-151 0 -265 109 -265 273s114 271 265 271s267 -107 267 -271s-116 -273 -267 -273zM295 62c104 0 181 76 181 199c0 121 -77 197 -181 197s-179 -76 -179 -197c0 -123 75 -199 179 -199zM354 716c25 0 44 12 64 40l5 -2l27 -56c-14 -26 -49 -57 -94 -57
c-60 0 -81 27 -116 27c-31 0 -47 -11 -68 -39l-4 2l-25 60c18 27 55 52 95 52c56 0 75 -27 116 -27z" />
    <glyph glyph-name="odieresis" unicode="&#xf6;" horiz-adv-x="592" 
d="M295 -12c-151 0 -265 109 -265 273s114 271 265 271s267 -107 267 -271s-116 -273 -267 -273zM295 62c104 0 181 76 181 199c0 121 -77 197 -181 197s-179 -76 -179 -197c0 -123 75 -199 179 -199zM160 639v91h92v-91h-92zM340 639v91h92v-91h-92z" />
    <glyph glyph-name="divide" unicode="&#xf7;" horiz-adv-x="528" 
d="M211 471v103h107v-103h-107zM57 310v72h414v-72h-414zM211 118v103h107v-103h-107z" />
    <glyph glyph-name="oslash" unicode="&#xf8;" horiz-adv-x="592" 
d="M115 261c0 -51 11 -94 32 -126l249 297c-28 17 -63 26 -101 26c-104 0 -180 -76 -180 -197zM295 62c104 0 183 76 183 199c0 54 -13 97 -37 130l-250 -300c28 -19 63 -29 104 -29zM295 -12c-58 0 -110 16 -153 45l-62 -74l-48 39l64 76c-42 47 -66 111 -66 187
c0 164 114 271 265 271c56 0 107 -15 149 -42l61 73l48 -39l-61 -73c44 -47 70 -112 70 -190c0 -164 -116 -273 -267 -273z" />
    <glyph glyph-name="ugrave" unicode="&#xf9;" horiz-adv-x="551" 
d="M410 0l-7 51c-44 -34 -98 -63 -169 -63c-107 0 -174 59 -174 167v365h86v-347c0 -91 53 -113 109 -113s100 15 144 45v415h86v-520h-75zM249 610l-124 165h109l98 -165h-83z" />
    <glyph glyph-name="uacute" unicode="&#xfa;" horiz-adv-x="551" 
d="M410 0l-7 51c-44 -34 -98 -63 -169 -63c-107 0 -174 59 -174 167v365h86v-347c0 -91 53 -113 109 -113s100 15 144 45v415h86v-520h-75zM306 610h-83l98 165h109z" />
    <glyph glyph-name="ucircumflex" unicode="&#xfb;" horiz-adv-x="551" 
d="M410 0l-7 51c-44 -34 -98 -63 -169 -63c-107 0 -174 59 -174 167v365h86v-347c0 -91 53 -113 109 -113s100 15 144 45v415h86v-520h-75zM274 701l-75 -91h-82l115 156h86l115 -156h-82z" />
    <glyph glyph-name="udieresis" unicode="&#xfc;" horiz-adv-x="551" 
d="M410 0l-7 51c-44 -34 -98 -63 -169 -63c-107 0 -174 59 -174 167v365h86v-347c0 -91 53 -113 109 -113s100 15 144 45v415h86v-520h-75zM139 639v91h92v-91h-92zM319 639v91h92v-91h-92z" />
    <glyph glyph-name="yacute" unicode="&#xfd;" horiz-adv-x="494" 
d="M54 -222v79c72 11 103 40 127 99l27 68l-201 491v5h91l155 -394l148 394h86v-5l-225 -578c-41 -104 -100 -151 -208 -159zM284 610h-83l98 165h109z" />
    <glyph glyph-name="thorn" unicode="&#xfe;" horiz-adv-x="579" 
d="M300 62c90 0 163 66 163 206c0 136 -73 190 -159 190c-72 0 -114 -23 -151 -61v-279c38 -36 80 -56 147 -56zM304 -12c-63 0 -112 23 -151 65v-263h-87v944l87 23v-293c39 43 91 68 158 68c141 0 238 -100 238 -264c0 -168 -97 -280 -245 -280z" />
    <glyph glyph-name="ydieresis" unicode="&#xff;" horiz-adv-x="494" 
d="M54 -222v79c72 11 103 40 127 99l27 68l-201 491v5h91l155 -394l148 394h86v-5l-225 -578c-41 -104 -100 -151 -208 -159zM117 639v91h92v-91h-92zM297 639v91h92v-91h-92z" />
    <glyph glyph-name="dotlessi" unicode="&#x131;" horiz-adv-x="226" 
d="M70 0v520h86v-520h-86z" />
    <glyph glyph-name="Lslash" unicode="&#x141;" horiz-adv-x="481" 
d="M81 0v257l-72 -28v76l72 28v372h90v-337l182 70v-76l-182 -70v-215h281v-77h-371z" />
    <glyph glyph-name="lslash" unicode="&#x142;" horiz-adv-x="251" 
d="M166 0h-86v345l-70 -42v78l70 42v311l86 23v-283l80 47v-78l-80 -47v-396z" />
    <glyph glyph-name="OE" unicode="&#x152;" horiz-adv-x="892" 
d="M394 78h69v549h-69c-159 0 -264 -102 -264 -272s105 -277 264 -277zM394 0c-209 0 -358 153 -358 355s149 350 358 350h443v-78h-284v-223h247v-77h-247v-249h284v-78h-443z" />
    <glyph glyph-name="oe" unicode="&#x153;" horiz-adv-x="968" 
d="M295 62c104 0 181 76 181 199c0 121 -77 197 -181 197s-179 -76 -179 -197c0 -123 75 -199 179 -199zM722 457c-83 0 -138 -47 -155 -133h283c-4 83 -48 133 -128 133zM924 33c-32 -20 -94 -45 -176 -45c-112 0 -192 51 -230 140c-41 -87 -122 -140 -223 -140
c-151 0 -265 109 -265 273s114 271 265 271c101 0 182 -52 223 -138c36 86 110 138 206 138c126 0 230 -79 214 -276h-377c2 -128 75 -193 190 -193c71 0 127 24 169 52l4 -2v-80z" />
    <glyph glyph-name="Scaron" unicode="&#x160;" horiz-adv-x="508" 
d="M239 -12c-96 0 -156 25 -199 51v92l4 2c58 -41 108 -66 195 -66c91 0 141 45 141 118c0 66 -28 91 -125 127l-52 19c-98 36 -164 92 -164 195c0 120 94 191 208 191c84 0 134 -16 178 -43v-85l-4 -2c-56 35 -96 53 -171 53c-85 0 -124 -45 -124 -109
c0 -55 27 -90 103 -118l52 -19c113 -41 188 -85 188 -204c0 -132 -97 -202 -230 -202zM252 831l79 88h85l-122 -156h-86l-122 156h85z" />
    <glyph glyph-name="scaron" unicode="&#x161;" horiz-adv-x="427" 
d="M205 -10c-82 0 -135 21 -173 48v85l4 2c49 -39 97 -62 169 -62c68 0 106 29 106 78c0 47 -25 66 -89 84l-55 16c-81 23 -132 69 -132 145c0 92 75 148 180 148c65 0 109 -12 147 -31v-76l-4 -2c-41 23 -93 37 -146 37c-67 0 -91 -31 -91 -69c0 -40 25 -61 70 -74l55 -16
c102 -30 152 -61 152 -155c0 -108 -93 -158 -193 -158zM213 675l75 91h82l-115 -156h-86l-115 156h82z" />
    <glyph glyph-name="Ydieresis" unicode="&#x178;" horiz-adv-x="569" 
d="M332 0h-90v291l-233 409v5h95l183 -330l184 330h89v-5l-228 -403v-297zM345 770v91h92v-91h-92zM137 770v91h92v-91h-92z" />
    <glyph glyph-name="Zcaron" unicode="&#x17d;" horiz-adv-x="581" 
d="M539 0h-529v23l404 604h-350v78h486v-26l-400 -601h389v-78zM292 831l79 88h85l-122 -156h-86l-122 156h85z" />
    <glyph glyph-name="zcaron" unicode="&#x17e;" horiz-adv-x="459" 
d="M425 0h-403v23l284 425h-249v72h378v-22l-287 -426h277v-72zM240 675l75 91h82l-115 -156h-86l-115 156h82z" />
    <glyph glyph-name="circumflex" unicode="&#x2c6;" horiz-adv-x="400" 
d="M199 701l-75 -91h-82l115 156h86l115 -156h-82z" />
    <glyph glyph-name="caron" unicode="&#x2c7;" horiz-adv-x="400" 
d="M201 675l75 91h82l-115 -156h-86l-115 156h82z" />
    <glyph glyph-name="breve" unicode="&#x2d8;" horiz-adv-x="400" 
d="M200 618c-81 0 -141 58 -146 143h70c8 -48 34 -71 76 -71s67 24 75 71h70c-5 -85 -64 -143 -145 -143z" />
    <glyph glyph-name="dotaccent" unicode="&#x2d9;" horiz-adv-x="400" 
d="M152 637v95h96v-95h-96z" />
    <glyph glyph-name="ring" unicode="&#x2da;" horiz-adv-x="400" 
d="M200 591c-67 0 -113 45 -113 109s46 109 113 109s113 -45 113 -109s-46 -109 -113 -109zM200 755c-32 0 -51 -24 -51 -55s19 -55 51 -55c33 0 52 24 52 55s-19 55 -52 55z" />
    <glyph glyph-name="ogonek" unicode="&#x2db;" horiz-adv-x="400" 
d="M297 -206c-14 -8 -39 -16 -66 -16c-83 0 -125 38 -125 98c0 49 20 86 87 124h83c-57 -32 -85 -76 -85 -107c0 -26 10 -43 50 -43c19 0 36 4 53 12l3 -2v-66z" />
    <glyph glyph-name="tilde" unicode="&#x2dc;" horiz-adv-x="400" 
d="M247 716c25 0 44 12 64 40l5 -2l27 -56c-14 -26 -49 -57 -94 -57c-60 0 -81 27 -116 27c-31 0 -47 -11 -68 -39l-4 2l-25 60c18 27 55 52 95 52c56 0 75 -27 116 -27z" />
    <glyph glyph-name="hungarumlaut" unicode="&#x2dd;" horiz-adv-x="400" 
d="M145 610h-69l59 165h96zM297 610h-69l59 165h96z" />
    <glyph glyph-name="endash" unicode="&#x2013;" horiz-adv-x="494" 
d="M35 255v76h424v-76h-424z" />
    <glyph glyph-name="emdash" unicode="&#x2014;" horiz-adv-x="914" 
d="M35 255v76h844v-76h-844z" />
    <glyph glyph-name="quoteleft" unicode="&#x2018;" horiz-adv-x="187" 
d="M26 503v8l57 194h63l-31 -202h-89z" />
    <glyph glyph-name="quoteright" unicode="&#x2019;" horiz-adv-x="187" 
d="M161 705v-8l-57 -194h-63l31 202h89z" />
    <glyph glyph-name="quotesinglbase" unicode="&#x201a;" horiz-adv-x="187" 
d="M151 93v-8l-57 -194h-63l31 202h89z" />
    <glyph glyph-name="quotedblleft" unicode="&#x201c;" horiz-adv-x="329" 
d="M26 503v8l57 194h63l-31 -202h-89zM168 503v8l57 194h63l-31 -202h-89z" />
    <glyph glyph-name="quotedblright" unicode="&#x201d;" horiz-adv-x="329" 
d="M303 705v-8l-57 -194h-63l31 202h89zM161 705v-8l-57 -194h-63l31 202h89z" />
    <glyph glyph-name="quotedblbase" unicode="&#x201e;" horiz-adv-x="329" 
d="M151 93v-8l-57 -194h-63l31 202h89zM293 93v-8l-57 -194h-63l31 202h89z" />
    <glyph glyph-name="dagger" unicode="&#x2020;" horiz-adv-x="354" 
d="M322 509h-106v-350h-78v350h-106v70h106v127l78 23v-150h106v-70z" />
    <glyph glyph-name="daggerdbl" unicode="&#x2021;" horiz-adv-x="354" 
d="M216 159l-78 -23v150h-106v70h106v153h-106v70h106v127l78 23v-150h106v-70h-106v-153h106v-70h-106v-127z" />
    <glyph glyph-name="bullet" unicode="&#x2022;" horiz-adv-x="343" 
d="M171 433c73 0 128 -57 128 -130s-55 -130 -128 -130s-128 57 -128 130s55 130 128 130z" />
    <glyph glyph-name="ellipsis" unicode="&#x2026;" horiz-adv-x="695" 
d="M536 0v93h97v-93h-97zM299 0v93h97v-93h-97zM62 0v93h97v-93h-97z" />
    <glyph glyph-name="perthousand" unicode="&#x2030;" horiz-adv-x="1179" 
d="M191 350c-93 0 -164 69 -164 174c0 102 71 173 164 173c94 0 164 -71 164 -173c0 -105 -70 -174 -164 -174zM136 0l454 690h76l-454 -690h-76zM191 416c56 0 89 47 89 108c0 60 -33 107 -89 107c-55 0 -89 -47 -89 -107c0 -61 34 -108 89 -108zM988 -12
c-93 0 -164 69 -164 174c0 102 71 173 164 173c94 0 164 -71 164 -173c0 -105 -70 -174 -164 -174zM607 -12c-93 0 -164 69 -164 174c0 102 71 173 164 173c94 0 164 -71 164 -173c0 -105 -70 -174 -164 -174zM988 54c56 0 89 47 89 108c0 60 -33 107 -89 107
c-55 0 -89 -47 -89 -107c0 -61 34 -108 89 -108zM607 54c56 0 89 47 89 108c0 60 -33 107 -89 107c-55 0 -89 -47 -89 -107c0 -61 34 -108 89 -108z" />
    <glyph glyph-name="guilsinglleft" unicode="&#x2039;" horiz-adv-x="230" 
d="M119 84l-103 176l103 176h86l-100 -176l100 -176h-86z" />
    <glyph glyph-name="guilsinglright" unicode="&#x203a;" horiz-adv-x="230" 
d="M25 84l100 176l-100 176h86l103 -176l-103 -176h-86z" />
    <glyph glyph-name="fraction" unicode="&#x2044;" horiz-adv-x="104" 
d="M-243 0l514 690h76l-514 -690h-76z" />
    <glyph glyph-name="Euro" unicode="&#x20ac;" horiz-adv-x="530" 
d="M510 34c-37 -26 -87 -46 -163 -46c-156 0 -251 99 -277 262h-61v61h55c-1 11 -1 22 -1 34c0 11 0 22 1 33h-55v61h62c28 162 130 258 275 258c68 0 112 -16 149 -37v-82l-4 -2c-48 30 -88 44 -141 44c-99 0 -166 -58 -188 -181h214v-61h-220c-1 -10 -1 -22 -1 -33
c0 -12 0 -23 1 -34h220v-61h-214c20 -123 84 -184 193 -184c65 0 109 25 151 58l4 -2v-88z" />
    <glyph glyph-name="trademark" unicode="&#x2122;" horiz-adv-x="666" 
d="M264 625h-95v-266h-72v266h-95v63h262v-63zM563 359l-23 176l-77 -177h-26l-73 170l-26 -169h-65l46 332h36l98 -228l95 228h36l46 -332h-67z" />
    <glyph glyph-name="minus" unicode="&#x2212;" horiz-adv-x="528" 
d="M57 310v72h414v-72h-414z" />
    <glyph glyph-name="Dcroat" unicode="&#x110;" horiz-adv-x="700" 
d="M374 324h-197v-246h75c189 0 318 57 318 269c0 208 -129 280 -318 280h-75v-230h197v-73zM87 0v324h-80v73h80v308h172c234 0 405 -111 405 -358s-171 -347 -405 -347h-172z" />
    <glyph glyph-name="Eng" unicode="&#x14a;" horiz-adv-x="734" 
d="M450 -174v79c82 19 113 50 113 149l-395 468v-522h-87v719h31l454 -535v521h87v-650c0 -160 -70 -208 -203 -229z" />
    <glyph glyph-name="IJ" unicode="&#x132;" horiz-adv-x="508" 
d="M222 -174v79c82 19 113 50 113 155v645h90v-650c0 -160 -70 -208 -203 -229zM83 0v705h90v-705h-90z" />
    <glyph glyph-name="dcroat" unicode="&#x111;" horiz-adv-x="578" 
d="M446 0l-11 67c-39 -50 -94 -79 -167 -79c-141 0 -238 100 -238 264c0 168 97 280 245 280c63 0 112 -23 151 -65v128h-162v63h162v76l86 23v-99h69v-63h-69v-595h-66zM275 62c72 0 114 23 151 61v279c-38 36 -80 56 -147 56c-90 0 -163 -66 -163 -206
c0 -136 73 -190 159 -190z" />
    <glyph glyph-name="eng" unicode="&#x14b;" horiz-adv-x="543" 
d="M312 -222v77c55 5 83 30 83 115v377c0 91 -48 113 -104 113s-96 -15 -139 -44v-416h-86v520h75l7 -51c43 34 93 63 164 63c107 0 169 -59 169 -167v-400c0 -126 -60 -181 -169 -187z" />
    <glyph glyph-name="ij" unicode="&#x133;" horiz-adv-x="470" 
d="M315 639v91h92v-91h-92zM67 639v91h92v-91h-92zM70 0v520h86v-520h-86zM235 -222v77c55 5 83 30 83 115v550h86v-555c0 -126 -60 -181 -169 -187z" />
    <glyph glyph-name="Abreve" unicode="&#x102;" 
d="M424 264l-110 266l-110 -266h220zM534 0l-77 186h-285l-77 -186h-90v5l303 711h16l303 -711v-5h-93zM317 751c-81 0 -141 58 -146 143h70c8 -48 34 -71 76 -71s67 24 75 71h70c-5 -85 -64 -143 -145 -143z" />
    <glyph glyph-name="Amacron" unicode="&#x100;" 
d="M424 264l-110 266l-110 -266h220zM534 0l-77 186h-285l-77 -186h-90v5l303 711h16l303 -711v-5h-93zM167 769v73h298v-73h-298z" />
    <glyph glyph-name="Aogonek" unicode="&#x104;" 
d="M582 -222c-83 0 -125 38 -125 98c0 47 20 87 77 122l-77 188h-285l-77 -186h-90v5l303 711h16l303 -711v-5c-57 -32 -85 -76 -85 -107c0 -26 10 -43 50 -43c19 0 36 4 53 12l3 -2v-66c-14 -8 -39 -16 -66 -16zM424 264l-110 266l-110 -266h220z" />
    <glyph glyph-name="Aringacute" unicode="&#x1fa;" 
d="M424 264l-110 266l-110 -266h220zM534 0l-77 186h-285l-77 -186h-90v5l303 711h16l303 -711v-5h-93zM316 726c-67 0 -113 45 -113 109s46 109 113 109s113 -45 113 -109s-46 -109 -113 -109zM316 890c-32 0 -51 -24 -51 -55s19 -55 51 -55c33 0 52 24 52 55
s-19 55 -52 55zM356 963h-83l88 145h109z" />
    <glyph glyph-name="AEacute" unicode="&#x1fc;" horiz-adv-x="874" 
d="M445 264v363h-6l-202 -363h208zM445 0v186h-251l-103 -186h-89v5l392 700h425v-78h-284v-223h247v-77h-247v-249h284v-78h-374zM609 763h-83l88 145h109z" />
    <glyph glyph-name="Cacute" unicode="&#x106;" horiz-adv-x="661" 
d="M412 -12c-220 0 -376 156 -376 367s155 362 370 362c92 0 140 -16 192 -42v-90l-4 -2c-49 34 -110 56 -188 56c-173 0 -276 -116 -276 -284c0 -171 108 -288 282 -288c88 0 147 26 205 75l4 -2v-91c-43 -32 -101 -61 -209 -61zM421 763h-83l88 145h109z" />
    <glyph glyph-name="Ccaron" unicode="&#x10c;" horiz-adv-x="661" 
d="M412 -12c-220 0 -376 156 -376 367s155 362 370 362c92 0 140 -16 192 -42v-90l-4 -2c-49 34 -110 56 -188 56c-173 0 -276 -116 -276 -284c0 -171 108 -288 282 -288c88 0 147 26 205 75l4 -2v-91c-43 -32 -101 -61 -209 -61zM382 831l79 88h85l-122 -156h-86l-122 156
h85z" />
    <glyph glyph-name="Ccircumflex" unicode="&#x108;" horiz-adv-x="661" 
d="M412 -12c-220 0 -376 156 -376 367s155 362 370 362c92 0 140 -16 192 -42v-90l-4 -2c-49 34 -110 56 -188 56c-173 0 -276 -116 -276 -284c0 -171 108 -288 282 -288c88 0 147 26 205 75l4 -2v-91c-43 -32 -101 -61 -209 -61zM382 851l-81 -88h-85l122 156h86l122 -156
h-85z" />
    <glyph glyph-name="Cdotaccent" unicode="&#x10a;" horiz-adv-x="661" 
d="M412 -12c-220 0 -376 156 -376 367s155 362 370 362c92 0 140 -16 192 -42v-90l-4 -2c-49 34 -110 56 -188 56c-173 0 -276 -116 -276 -284c0 -171 108 -288 282 -288c88 0 147 26 205 75l4 -2v-91c-43 -32 -101 -61 -209 -61zM333 770v95h96v-95h-96z" />
    <glyph glyph-name="Dcaron" unicode="&#x10e;" horiz-adv-x="694" 
d="M246 627h-75v-549h75c189 0 318 57 318 269c0 208 -129 280 -318 280zM81 0v705h172c234 0 405 -111 405 -358s-171 -347 -405 -347h-172zM328 831l79 88h85l-122 -156h-86l-122 156h85z" />
    <glyph glyph-name="Ebreve" unicode="&#x114;" horiz-adv-x="510" 
d="M81 0v705h374v-78h-284v-223h247v-77h-247v-249h284v-78h-374zM273 751c-81 0 -141 58 -146 143h70c8 -48 34 -71 76 -71s67 24 75 71h70c-5 -85 -64 -143 -145 -143z" />
    <glyph glyph-name="Ecaron" unicode="&#x11a;" horiz-adv-x="510" 
d="M81 0v705h374v-78h-284v-223h247v-77h-247v-249h284v-78h-374zM273 831l79 88h85l-122 -156h-86l-122 156h85z" />
    <glyph glyph-name="Edotaccent" unicode="&#x116;" horiz-adv-x="510" 
d="M81 0v705h374v-78h-284v-223h247v-77h-247v-249h284v-78h-374zM224 770v95h96v-95h-96z" />
    <glyph glyph-name="Emacron" unicode="&#x112;" horiz-adv-x="510" 
d="M81 0v705h374v-78h-284v-223h247v-77h-247v-249h284v-78h-374zM123 769v73h298v-73h-298z" />
    <glyph glyph-name="Eogonek" unicode="&#x118;" horiz-adv-x="510" 
d="M81 0v705h374v-78h-284v-223h247v-77h-247v-249h284v-78h-48c-57 -32 -85 -76 -85 -107c0 -26 10 -43 50 -43c19 0 36 4 53 12l3 -2v-66c-14 -8 -39 -16 -66 -16c-83 0 -125 38 -125 98c0 49 20 86 87 124h-243z" />
    <glyph glyph-name="Gbreve" unicode="&#x11e;" horiz-adv-x="692" 
d="M631 59c-59 -38 -131 -71 -229 -71c-230 0 -366 156 -366 367s153 362 368 362c92 0 145 -18 198 -44v-89l-4 -2c-49 34 -116 57 -194 57c-172 0 -274 -115 -274 -284c0 -168 89 -288 272 -288c52 0 98 11 140 32v203h-167v77h256v-320zM381 751c-81 0 -141 58 -146 143
h70c8 -48 34 -71 76 -71s67 24 75 71h70c-5 -85 -64 -143 -145 -143z" />
    <glyph glyph-name="Gcircumflex" unicode="&#x11c;" horiz-adv-x="692" 
d="M631 59c-59 -38 -131 -71 -229 -71c-230 0 -366 156 -366 367s153 362 368 362c92 0 145 -18 198 -44v-89l-4 -2c-49 34 -116 57 -194 57c-172 0 -274 -115 -274 -284c0 -168 89 -288 272 -288c52 0 98 11 140 32v203h-167v77h256v-320zM381 851l-81 -88h-85l122 156h86
l122 -156h-85z" />
    <glyph glyph-name="uni0122" unicode="&#x122;" horiz-adv-x="692" 
d="M631 59c-59 -38 -131 -71 -229 -71c-230 0 -366 156 -366 367s153 362 368 362c92 0 145 -18 198 -44v-89l-4 -2c-49 34 -116 57 -194 57c-172 0 -274 -115 -274 -284c0 -168 89 -288 272 -288c52 0 98 11 140 32v203h-167v77h256v-320zM324 -213l9 155h95v-8l-34 -147
h-70z" />
    <glyph glyph-name="Gdotaccent" unicode="&#x120;" horiz-adv-x="692" 
d="M631 59c-59 -38 -131 -71 -229 -71c-230 0 -366 156 -366 367s153 362 368 362c92 0 145 -18 198 -44v-89l-4 -2c-49 34 -116 57 -194 57c-172 0 -274 -115 -274 -284c0 -168 89 -288 272 -288c52 0 98 11 140 32v203h-167v77h256v-320zM332 770v95h96v-95h-96z" />
    <glyph glyph-name="Hbar" unicode="&#x126;" horiz-adv-x="727" 
d="M556 397v105h-385v-105h385zM556 0v317h-385v-317h-90v502h-86v70h86v133h90v-133h385v133h90v-133h82v-70h-82v-502h-90z" />
    <glyph glyph-name="Hcircumflex" unicode="&#x124;" horiz-adv-x="727" 
d="M556 0v317h-385v-317h-90v705h90v-308h385v308h90v-705h-90zM364 851l-81 -88h-85l122 156h86l122 -156h-85z" />
    <glyph glyph-name="Ibreve" unicode="&#x12c;" horiz-adv-x="256" 
d="M83 0v705h90v-705h-90zM129 751c-81 0 -141 58 -146 143h70c8 -48 34 -71 76 -71s67 24 75 71h70c-5 -85 -64 -143 -145 -143z" />
    <glyph glyph-name="Idotaccent" unicode="&#x130;" horiz-adv-x="256" 
d="M83 0v705h90v-705h-90zM80 770v95h96v-95h-96z" />
    <glyph glyph-name="Imacron" unicode="&#x12a;" horiz-adv-x="256" 
d="M9 769v73h238v-73h-238zM83 0v705h90v-705h-90z" />
    <glyph glyph-name="Iogonek" unicode="&#x12e;" horiz-adv-x="256" 
d="M192 -206c-14 -8 -39 -16 -66 -16c-83 0 -125 38 -125 98c0 47 20 89 82 126v703h90v-705c-57 -32 -87 -76 -87 -107c0 -26 10 -43 50 -43c19 0 36 4 53 12l3 -2v-66z" />
    <glyph glyph-name="Itilde" unicode="&#x128;" horiz-adv-x="256" 
d="M83 0v705h90v-705h-90zM191 838c25 0 46 12 66 40l5 -2l27 -56c-14 -26 -51 -57 -97 -57c-59 0 -90 30 -125 30c-31 0 -50 -11 -71 -39l-4 2l-25 60c18 27 58 52 100 52c54 0 83 -30 124 -30z" />
    <glyph glyph-name="Jcircumflex" unicode="&#x134;" horiz-adv-x="262" 
d="M-24 -174v79c82 19 113 50 113 155v645h90v-650c0 -160 -70 -208 -203 -229zM133 851l-81 -88h-85l122 156h86l122 -156h-85z" />
    <glyph glyph-name="uni0136" unicode="&#x136;" horiz-adv-x="611" 
d="M492 0l-229 353l-92 -100v-253h-90v705h90v-345l308 345h96v-5l-249 -281l267 -414v-5h-101zM267 -213l9 155h95v-8l-34 -147h-70z" />
    <glyph glyph-name="Lacute" unicode="&#x139;" horiz-adv-x="481" 
d="M81 0v705h90v-628h281v-77h-371zM166 763h-83l88 145h109z" />
    <glyph glyph-name="Lcaron" unicode="&#x13d;" horiz-adv-x="481" 
d="M81 0v705h90v-628h281v-77h-371zM233 543l7 162h86v-8l-32 -154h-61z" />
    <glyph glyph-name="uni013B" unicode="&#x13b;" horiz-adv-x="481" 
d="M81 0v705h90v-628h281v-77h-371zM206 -213l9 155h95v-8l-34 -147h-70z" />
    <glyph glyph-name="Ldot" unicode="&#x13f;" horiz-adv-x="481" 
d="M334 333v93h97v-93h-97zM81 0v705h90v-628h281v-77h-371z" />
    <glyph glyph-name="Nacute" unicode="&#x143;" horiz-adv-x="734" 
d="M653 -17h-30l-455 539v-522h-87v719h31l454 -535v521h87v-722zM417 763h-83l88 145h109z" />
    <glyph glyph-name="Ncaron" unicode="&#x147;" horiz-adv-x="734" 
d="M653 -17h-30l-455 539v-522h-87v719h31l454 -535v521h87v-722zM378 831l79 88h85l-122 -156h-86l-122 156h85z" />
    <glyph glyph-name="uni0145" unicode="&#x145;" horiz-adv-x="734" 
d="M653 -17h-30l-455 539v-522h-87v719h31l454 -535v521h87v-722zM314 -213l9 155h95v-8l-34 -147h-70z" />
    <glyph glyph-name="Obreve" unicode="&#x14e;" horiz-adv-x="771" 
d="M386 -12c-202 0 -350 160 -350 367s148 362 350 362s349 -155 349 -362s-147 -367 -349 -367zM386 66c153 0 255 114 255 289s-102 284 -255 284c-152 0 -256 -109 -256 -284s104 -289 256 -289zM386 751c-81 0 -141 58 -146 143h70c8 -48 34 -71 76 -71s67 24 75 71h70
c-5 -85 -64 -143 -145 -143z" />
    <glyph glyph-name="Ohungarumlaut" unicode="&#x150;" horiz-adv-x="771" 
d="M386 -12c-202 0 -350 160 -350 367s148 362 350 362s349 -155 349 -362s-147 -367 -349 -367zM386 66c153 0 255 114 255 289s-102 284 -255 284c-152 0 -256 -109 -256 -284s104 -289 256 -289zM338 763h-69l52 145h100c-2 0 -83 -145 -83 -145zM504 763h-69l52 145h100
c-5 0 -83 -145 -83 -145z" />
    <glyph glyph-name="Omacron" unicode="&#x14c;" horiz-adv-x="771" 
d="M386 -12c-202 0 -350 160 -350 367s148 362 350 362s349 -155 349 -362s-147 -367 -349 -367zM386 66c153 0 255 114 255 289s-102 284 -255 284c-152 0 -256 -109 -256 -284s104 -289 256 -289zM236 769v73h298v-73h-298z" />
    <glyph glyph-name="Oslashacute" unicode="&#x1fe;" horiz-adv-x="771" 
d="M130 355c0 -76 19 -141 52 -189l357 427c-41 30 -93 46 -153 46c-152 0 -256 -109 -256 -284zM386 66c153 0 255 114 255 289c0 77 -19 141 -53 189l-358 -428c41 -32 94 -50 156 -50zM386 -12c-79 0 -150 25 -207 67l-84 -100l-52 45l85 102c-58 65 -92 154 -92 253
c0 207 148 362 350 362c78 0 148 -23 204 -63l76 90l52 -45l-76 -91c58 -64 93 -153 93 -253c0 -207 -147 -367 -349 -367zM425 763h-83l88 145h109z" />
    <glyph glyph-name="Racute" unicode="&#x154;" horiz-adv-x="599" 
d="M282 625h-111v-262h118c110 0 158 50 158 136s-52 126 -165 126zM492 0l-203 288h-118v-288h-90v705h204c155 0 254 -71 254 -209c0 -106 -64 -170 -160 -191l214 -298v-7h-101zM328 763h-83l88 145h109z" />
    <glyph glyph-name="Rcaron" unicode="&#x158;" horiz-adv-x="599" 
d="M282 625h-111v-262h118c110 0 158 50 158 136s-52 126 -165 126zM492 0l-203 288h-118v-288h-90v705h204c155 0 254 -71 254 -209c0 -106 -64 -170 -160 -191l214 -298v-7h-101zM289 831l79 88h85l-122 -156h-86l-122 156h85z" />
    <glyph glyph-name="uni0156" unicode="&#x156;" horiz-adv-x="599" 
d="M282 625h-111v-262h118c110 0 158 50 158 136s-52 126 -165 126zM492 0l-203 288h-118v-288h-90v705h204c155 0 254 -71 254 -209c0 -106 -64 -170 -160 -191l214 -298v-7h-101zM258 -213l9 155h95v-8l-34 -147h-70z" />
    <glyph glyph-name="Sacute" unicode="&#x15a;" horiz-adv-x="508" 
d="M239 -12c-96 0 -156 25 -199 51v92l4 2c58 -41 108 -66 195 -66c91 0 141 45 141 118c0 66 -28 91 -125 127l-52 19c-98 36 -164 92 -164 195c0 120 94 191 208 191c84 0 134 -16 178 -43v-85l-4 -2c-56 35 -96 53 -171 53c-85 0 -124 -45 -124 -109
c0 -55 27 -90 103 -118l52 -19c113 -41 188 -85 188 -204c0 -132 -97 -202 -230 -202zM291 763h-83l88 145h109z" />
    <glyph glyph-name="uni015E" unicode="&#x15e;" horiz-adv-x="508" 
d="M230 -219c-39 0 -63 11 -75 19v55l3 2c16 -9 34 -17 60 -17c27 0 41 12 41 32c0 24 -24 34 -67 39v79c-69 7 -116 28 -152 49v92l4 2c58 -41 108 -66 195 -66c91 0 141 45 141 118c0 66 -28 91 -125 127l-52 19c-98 36 -164 92 -164 195c0 120 94 191 208 191
c84 0 134 -16 178 -43v-85l-4 -2c-56 35 -96 53 -171 53c-85 0 -124 -45 -124 -109c0 -55 27 -90 103 -118l52 -19c113 -41 188 -85 188 -204c0 -127 -90 -197 -216 -202v-36c47 -11 82 -26 82 -82c0 -55 -40 -89 -105 -89z" />
    <glyph glyph-name="Scircumflex" unicode="&#x15c;" horiz-adv-x="508" 
d="M239 -12c-96 0 -156 25 -199 51v92l4 2c58 -41 108 -66 195 -66c91 0 141 45 141 118c0 66 -28 91 -125 127l-52 19c-98 36 -164 92 -164 195c0 120 94 191 208 191c84 0 134 -16 178 -43v-85l-4 -2c-56 35 -96 53 -171 53c-85 0 -124 -45 -124 -109
c0 -55 27 -90 103 -118l52 -19c113 -41 188 -85 188 -204c0 -132 -97 -202 -230 -202zM252 851l-81 -88h-85l122 156h86l122 -156h-85z" />
    <glyph glyph-name="uni0218" unicode="&#x218;" horiz-adv-x="508" 
d="M239 -12c-96 0 -156 25 -199 51v92l4 2c58 -41 108 -66 195 -66c91 0 141 45 141 118c0 66 -28 91 -125 127l-52 19c-98 36 -164 92 -164 195c0 120 94 191 208 191c84 0 134 -16 178 -43v-85l-4 -2c-56 35 -96 53 -171 53c-85 0 -124 -45 -124 -109
c0 -55 27 -90 103 -118l52 -19c113 -41 188 -85 188 -204c0 -132 -97 -202 -230 -202zM195 -213l9 155h95v-8l-34 -147h-70z" />
    <glyph glyph-name="Tcaron" unicode="&#x164;" horiz-adv-x="522" 
d="M511 627h-205v-627h-90v627h-205v78h500v-78zM262 831l79 88h85l-122 -156h-86l-122 156h85z" />
    <glyph glyph-name="Tcommaaccent" unicode="&#x162;" horiz-adv-x="522" 
d="M511 627h-205v-627h-90v627h-205v78h500v-78zM205 -213l9 155h95v-8l-34 -147h-70z" />
    <glyph glyph-name="uni021A" unicode="&#x21a;" horiz-adv-x="522" 
d="M511 627h-205v-627h-90v627h-205v78h500v-78zM205 -213l9 155h95v-8l-34 -147h-70z" />
    <glyph glyph-name="Tbar" unicode="&#x166;" horiz-adv-x="522" 
d="M461 359h-155v-359h-90v359h-155v70h155v198h-205v78h500v-78h-205v-198h155v-70z" />
    <glyph glyph-name="Ubreve" unicode="&#x16c;" horiz-adv-x="685" 
d="M340 -12c-156 0 -269 95 -269 270v447h90v-443c0 -129 70 -196 179 -196s184 67 184 196v443h90v-447c0 -175 -118 -270 -274 -270zM343 751c-81 0 -141 58 -146 143h70c8 -48 34 -71 76 -71s67 24 75 71h70c-5 -85 -64 -143 -145 -143z" />
    <glyph glyph-name="Uhungarumlaut" unicode="&#x170;" horiz-adv-x="685" 
d="M340 -12c-156 0 -269 95 -269 270v447h90v-443c0 -129 70 -196 179 -196s184 67 184 196v443h90v-447c0 -175 -118 -270 -274 -270zM295 763h-69l52 145h100c-2 0 -83 -145 -83 -145zM461 763h-69l52 145h100c-5 0 -83 -145 -83 -145z" />
    <glyph glyph-name="Umacron" unicode="&#x16a;" horiz-adv-x="685" 
d="M340 -12c-156 0 -269 95 -269 270v447h90v-443c0 -129 70 -196 179 -196s184 67 184 196v443h90v-447c0 -175 -118 -270 -274 -270zM193 769v73h298v-73h-298z" />
    <glyph glyph-name="Uogonek" unicode="&#x172;" horiz-adv-x="685" 
d="M413 -222c-83 0 -125 38 -125 98c0 44 20 84 68 112h-16c-156 0 -269 95 -269 270v447h90v-443c0 -129 70 -196 179 -196s184 67 184 196v443h90v-447c0 -101 -39 -176 -103 -220c-74 -51 -138 -87 -138 -145c0 -26 10 -43 50 -43c19 0 36 4 53 12l3 -2v-66
c-14 -8 -39 -16 -66 -16z" />
    <glyph glyph-name="Uring" unicode="&#x16e;" horiz-adv-x="685" 
d="M340 -12c-156 0 -269 95 -269 270v447h90v-443c0 -129 70 -196 179 -196s184 67 184 196v443h90v-447c0 -175 -118 -270 -274 -270zM342 711c-67 0 -113 45 -113 109s46 109 113 109s113 -45 113 -109s-46 -109 -113 -109zM342 875c-32 0 -51 -24 -51 -55s19 -55 51 -55
c33 0 52 24 52 55s-19 55 -52 55z" />
    <glyph glyph-name="Utilde" unicode="&#x168;" horiz-adv-x="685" 
d="M340 -12c-156 0 -269 95 -269 270v447h90v-443c0 -129 70 -196 179 -196s184 67 184 196v443h90v-447c0 -175 -118 -270 -274 -270zM405 838c25 0 46 12 66 40l5 -2l27 -56c-14 -26 -51 -57 -97 -57c-59 0 -90 30 -125 30c-31 0 -50 -11 -71 -39l-4 2l-25 60
c18 27 58 52 100 52c54 0 83 -30 124 -30z" />
    <glyph glyph-name="Wacute" unicode="&#x1e82;" horiz-adv-x="935" 
d="M650 -13l-188 475l-179 -475h-16l-253 713v5h93l175 -504l137 368l-53 131v5h93l196 -505l175 505h91v-5l-255 -713h-16zM470 763h-83l88 145h109z" />
    <glyph glyph-name="Wcircumflex" unicode="&#x174;" horiz-adv-x="935" 
d="M650 -13l-188 475l-179 -475h-16l-253 713v5h93l175 -504l137 368l-53 131v5h93l196 -505l175 505h91v-5l-255 -713h-16zM431 851l-81 -88h-85l122 156h86l122 -156h-85z" />
    <glyph glyph-name="Wdieresis" unicode="&#x1e84;" horiz-adv-x="935" 
d="M650 -13l-188 475l-179 -475h-16l-253 713v5h93l175 -504l137 368l-53 131v5h93l196 -505l175 505h91v-5l-255 -713h-16zM488 770v91h92v-91h-92zM280 770v91h92v-91h-92z" />
    <glyph glyph-name="Wgrave" unicode="&#x1e80;" horiz-adv-x="935" 
d="M650 -13l-188 475l-179 -475h-16l-253 713v5h93l175 -504l137 368l-53 131v5h93l196 -505l175 505h91v-5l-255 -713h-16zM394 763l-114 145h109l88 -145h-83z" />
    <glyph glyph-name="Ycircumflex" unicode="&#x176;" horiz-adv-x="569" 
d="M332 0h-90v291l-233 409v5h95l183 -330l184 330h89v-5l-228 -403v-297zM288 851l-81 -88h-85l122 156h86l122 -156h-85z" />
    <glyph glyph-name="Ygrave" unicode="&#x1ef2;" horiz-adv-x="569" 
d="M332 0h-90v291l-233 409v5h95l183 -330l184 330h89v-5l-228 -403v-297zM251 763l-114 145h109l88 -145h-83z" />
    <glyph glyph-name="Zacute" unicode="&#x179;" horiz-adv-x="581" 
d="M539 0h-529v23l404 604h-350v78h486v-26l-400 -601h389v-78zM331 763h-83l88 145h109z" />
    <glyph glyph-name="Zdotaccent" unicode="&#x17b;" horiz-adv-x="581" 
d="M539 0h-529v23l404 604h-350v78h486v-26l-400 -601h389v-78zM243 770v95h96v-95h-96z" />
    <glyph glyph-name="abreve" unicode="&#x103;" horiz-adv-x="504" 
d="M215 61c68 0 113 28 141 66v122l-95 -15c-105 -16 -145 -38 -145 -95c0 -47 33 -78 99 -78zM368 0l-7 60c-27 -37 -73 -72 -152 -72c-103 0 -180 53 -180 151c0 108 90 141 213 160l114 18v5c0 102 -43 134 -133 134c-60 0 -100 -11 -151 -39l-4 2v72c41 28 92 41 162 41
c131 0 212 -56 212 -202v-330h-74zM246 618c-81 0 -141 58 -146 143h70c8 -48 34 -71 76 -71s67 24 75 71h70c-5 -85 -64 -143 -145 -143z" />
    <glyph glyph-name="amacron" unicode="&#x101;" horiz-adv-x="504" 
d="M215 61c68 0 113 28 141 66v122l-95 -15c-105 -16 -145 -38 -145 -95c0 -47 33 -78 99 -78zM368 0l-7 60c-27 -37 -73 -72 -152 -72c-103 0 -180 53 -180 151c0 108 90 141 213 160l114 18v5c0 102 -43 134 -133 134c-60 0 -100 -11 -151 -39l-4 2v72c41 28 92 41 162 41
c131 0 212 -56 212 -202v-330h-74zM98 651v73h292v-73h-292z" />
    <glyph glyph-name="aogonek" unicode="&#x105;" horiz-adv-x="504" 
d="M215 61c68 0 113 28 141 66v122l-95 -15c-105 -16 -145 -38 -145 -95c0 -47 33 -78 99 -78zM463 -206c-14 -8 -39 -16 -66 -16c-83 0 -125 38 -125 98c0 49 22 91 95 132l-6 52c-27 -37 -73 -72 -152 -72c-103 0 -180 53 -180 151c0 108 90 141 213 160l114 18v5
c0 102 -43 134 -133 134c-60 0 -100 -11 -151 -39l-4 2v72c41 28 92 41 162 41c131 0 212 -56 212 -202v-330c-57 -32 -85 -76 -85 -107c0 -26 10 -43 50 -43c19 0 36 4 53 12l3 -2v-66z" />
    <glyph glyph-name="aringacute" unicode="&#x1fb;" horiz-adv-x="504" 
d="M215 61c68 0 113 28 141 66v122l-95 -15c-105 -16 -145 -38 -145 -95c0 -47 33 -78 99 -78zM368 0l-7 60c-27 -37 -73 -72 -152 -72c-103 0 -180 53 -180 151c0 108 90 141 213 160l114 18v5c0 102 -43 134 -133 134c-60 0 -100 -11 -151 -39l-4 2v72c41 28 92 41 162 41
c131 0 212 -56 212 -202v-330h-74zM248 591c-67 0 -113 45 -113 109s46 109 113 109s113 -45 113 -109s-46 -109 -113 -109zM248 755c-32 0 -51 -24 -51 -55s19 -55 51 -55c33 0 52 24 52 55s-19 55 -52 55zM289 833h-83l88 145h109z" />
    <glyph glyph-name="aeacute" unicode="&#x1fd;" horiz-adv-x="848" 
d="M602 457c-83 0 -138 -47 -155 -133h283c-4 83 -48 133 -128 133zM804 33c-32 -20 -94 -45 -176 -45c-89 0 -164 30 -213 90c-48 -56 -109 -90 -204 -90c-103 0 -180 54 -180 152c0 108 92 141 213 159l114 18v5c0 102 -43 134 -133 134c-60 0 -100 -11 -151 -39l-4 2v72
c41 28 92 41 162 41c91 0 156 -24 187 -90c40 57 104 90 185 90c126 0 230 -79 214 -276h-377c2 -128 75 -193 190 -193c71 0 127 24 169 52l4 -2v-80zM217 61c76 0 131 32 157 92c-10 27 -15 59 -17 94l-94 -15c-103 -15 -145 -35 -145 -92c0 -47 33 -79 99 -79zM465 610
h-83l98 165h109z" />
    <glyph glyph-name="cacute" unicode="&#x107;" horiz-adv-x="485" 
d="M301 -12c-159 0 -271 108 -271 273c0 167 117 271 267 271c67 0 116 -16 143 -33v-77l-4 -2c-41 22 -87 37 -139 37c-100 0 -180 -69 -180 -196c0 -124 71 -199 182 -199c64 0 110 20 150 48l4 -2v-75c-30 -24 -78 -45 -152 -45zM306 610h-83l98 165h109z" />
    <glyph glyph-name="ccaron" unicode="&#x10d;" horiz-adv-x="485" 
d="M301 -12c-159 0 -271 108 -271 273c0 167 117 271 267 271c67 0 116 -16 143 -33v-77l-4 -2c-41 22 -87 37 -139 37c-100 0 -180 -69 -180 -196c0 -124 71 -199 182 -199c64 0 110 20 150 48l4 -2v-75c-30 -24 -78 -45 -152 -45zM276 675l75 91h82l-115 -156h-86
l-115 156h82z" />
    <glyph glyph-name="ccircumflex" unicode="&#x109;" horiz-adv-x="485" 
d="M301 -12c-159 0 -271 108 -271 273c0 167 117 271 267 271c67 0 116 -16 143 -33v-77l-4 -2c-41 22 -87 37 -139 37c-100 0 -180 -69 -180 -196c0 -124 71 -199 182 -199c64 0 110 20 150 48l4 -2v-75c-30 -24 -78 -45 -152 -45zM274 701l-75 -91h-82l115 156h86
l115 -156h-82z" />
    <glyph glyph-name="cdotaccent" unicode="&#x10b;" horiz-adv-x="485" 
d="M301 -12c-159 0 -271 108 -271 273c0 167 117 271 267 271c67 0 116 -16 143 -33v-77l-4 -2c-41 22 -87 37 -139 37c-100 0 -180 -69 -180 -196c0 -124 71 -199 182 -199c64 0 110 20 150 48l4 -2v-75c-30 -24 -78 -45 -152 -45zM227 637v95h96v-95h-96z" />
    <glyph glyph-name="dcaron" unicode="&#x10f;" horiz-adv-x="578" 
d="M446 0l-11 67c-39 -50 -94 -79 -167 -79c-141 0 -238 100 -238 264c0 168 97 280 245 280c63 0 112 -23 151 -65v267l86 23v-757h-66zM275 62c72 0 114 23 151 61v279c-38 36 -80 56 -147 56c-90 0 -163 -66 -163 -206c0 -136 73 -190 159 -190zM561 581l7 162h86v-8
l-32 -154h-61z" />
    <glyph glyph-name="ebreve" unicode="&#x115;" horiz-adv-x="524" 
d="M276 457c-83 0 -138 -47 -155 -133h283c-4 83 -48 133 -128 133zM478 33c-32 -20 -94 -45 -176 -45c-165 0 -272 103 -272 273c0 163 103 271 248 271c126 0 230 -79 214 -276h-377c2 -128 75 -193 190 -193c71 0 127 24 169 52l4 -2v-80zM270 618
c-81 0 -141 58 -146 143h70c8 -48 34 -71 76 -71s67 24 75 71h70c-5 -85 -64 -143 -145 -143z" />
    <glyph glyph-name="ecaron" unicode="&#x11b;" horiz-adv-x="524" 
d="M276 457c-83 0 -138 -47 -155 -133h283c-4 83 -48 133 -128 133zM478 33c-32 -20 -94 -45 -176 -45c-165 0 -272 103 -272 273c0 163 103 271 248 271c126 0 230 -79 214 -276h-377c2 -128 75 -193 190 -193c71 0 127 24 169 52l4 -2v-80zM270 675l75 91h82l-115 -156
h-86l-115 156h82z" />
    <glyph glyph-name="edotaccent" unicode="&#x117;" horiz-adv-x="524" 
d="M276 457c-83 0 -138 -47 -155 -133h283c-4 83 -48 133 -128 133zM478 33c-32 -20 -94 -45 -176 -45c-165 0 -272 103 -272 273c0 163 103 271 248 271c126 0 230 -79 214 -276h-377c2 -128 75 -193 190 -193c71 0 127 24 169 52l4 -2v-80zM221 637v95h96v-95h-96z" />
    <glyph glyph-name="emacron" unicode="&#x113;" horiz-adv-x="524" 
d="M276 457c-83 0 -138 -47 -155 -133h283c-4 83 -48 133 -128 133zM478 33c-32 -20 -94 -45 -176 -45c-165 0 -272 103 -272 273c0 163 103 271 248 271c126 0 230 -79 214 -276h-377c2 -128 75 -193 190 -193c71 0 127 24 169 52l4 -2v-80zM123 651v73h292v-73h-292z" />
    <glyph glyph-name="eogonek" unicode="&#x119;" horiz-adv-x="522" 
d="M276 457c-83 0 -138 -47 -155 -133h283c-4 83 -48 133 -128 133zM435 -206c-14 -8 -39 -16 -66 -16c-83 0 -125 38 -125 98c0 44 16 78 68 112h-10c-165 0 -272 103 -272 273c0 163 103 271 248 271c126 0 230 -79 214 -276h-377c2 -128 75 -193 190 -193
c71 0 127 24 169 52l4 -2v-80c-23 -13 -55 -27 -84 -46c-35 -24 -65 -53 -65 -94c0 -26 10 -43 50 -43c19 0 36 4 53 12l3 -2v-66z" />
    <glyph glyph-name="gbreve" unicode="&#x11f;" horiz-adv-x="485" 
d="M231 237c64 0 113 44 113 114c0 72 -49 114 -113 114c-65 0 -113 -42 -113 -114c0 -70 48 -114 113 -114zM235 -222c-137 0 -229 45 -229 135c0 34 16 60 31 72h70l2 -3c-11 -14 -22 -33 -22 -62c0 -49 47 -74 148 -74c111 0 161 47 161 103c0 44 -22 55 -82 58l-137 6
c-87 4 -123 42 -123 98c0 44 23 75 63 95c-48 30 -81 80 -81 145c0 110 84 179 194 179c28 0 58 -7 83 -17l162 12v-70h-94c23 -23 43 -58 43 -104c0 -109 -88 -175 -194 -175c-19 0 -37 2 -55 6c-34 -11 -47 -27 -47 -53c0 -25 18 -32 59 -34l135 -6
c101 -5 157 -40 157 -138c0 -103 -91 -173 -244 -173zM242 618c-81 0 -141 58 -146 143h70c8 -48 34 -71 76 -71s67 24 75 71h70c-5 -85 -64 -143 -145 -143z" />
    <glyph glyph-name="gcircumflex" unicode="&#x11d;" horiz-adv-x="485" 
d="M231 237c64 0 113 44 113 114c0 72 -49 114 -113 114c-65 0 -113 -42 -113 -114c0 -70 48 -114 113 -114zM235 -222c-137 0 -229 45 -229 135c0 34 16 60 31 72h70l2 -3c-11 -14 -22 -33 -22 -62c0 -49 47 -74 148 -74c111 0 161 47 161 103c0 44 -22 55 -82 58l-137 6
c-87 4 -123 42 -123 98c0 44 23 75 63 95c-48 30 -81 80 -81 145c0 110 84 179 194 179c28 0 58 -7 83 -17l162 12v-70h-94c23 -23 43 -58 43 -104c0 -109 -88 -175 -194 -175c-19 0 -37 2 -55 6c-34 -11 -47 -27 -47 -53c0 -25 18 -32 59 -34l135 -6
c101 -5 157 -40 157 -138c0 -103 -91 -173 -244 -173zM240 701l-75 -91h-82l115 156h86l115 -156h-82z" />
    <glyph glyph-name="uni0123" unicode="&#x123;" horiz-adv-x="485" 
d="M231 237c64 0 113 44 113 114c0 72 -49 114 -113 114c-65 0 -113 -42 -113 -114c0 -70 48 -114 113 -114zM235 -222c-137 0 -229 45 -229 135c0 34 16 60 31 72h70l2 -3c-11 -14 -22 -33 -22 -62c0 -49 47 -74 148 -74c111 0 161 47 161 103c0 44 -22 55 -82 58l-137 6
c-87 4 -123 42 -123 98c0 44 23 75 63 95c-48 30 -81 80 -81 145c0 110 84 179 194 179c28 0 58 -7 83 -17l162 12v-70h-94c23 -23 43 -58 43 -104c0 -109 -88 -175 -194 -175c-19 0 -37 2 -55 6c-34 -11 -47 -27 -47 -53c0 -25 18 -32 59 -34l135 -6
c101 -5 157 -40 157 -138c0 -103 -91 -173 -244 -173zM290 765l-9 -155h-94l-2 3l35 152h70z" />
    <glyph glyph-name="gdotaccent" unicode="&#x121;" horiz-adv-x="485" 
d="M231 237c64 0 113 44 113 114c0 72 -49 114 -113 114c-65 0 -113 -42 -113 -114c0 -70 48 -114 113 -114zM235 -222c-137 0 -229 45 -229 135c0 34 16 60 31 72h70l2 -3c-11 -14 -22 -33 -22 -62c0 -49 47 -74 148 -74c111 0 161 47 161 103c0 44 -22 55 -82 58l-137 6
c-87 4 -123 42 -123 98c0 44 23 75 63 95c-48 30 -81 80 -81 145c0 110 84 179 194 179c28 0 58 -7 83 -17l162 12v-70h-94c23 -23 43 -58 43 -104c0 -109 -88 -175 -194 -175c-19 0 -37 2 -55 6c-34 -11 -47 -27 -47 -53c0 -25 18 -32 59 -34l135 -6
c101 -5 157 -40 157 -138c0 -103 -91 -173 -244 -173zM193 637v95h96v-95h-96z" />
    <glyph glyph-name="hbar" unicode="&#x127;" horiz-adv-x="543" 
d="M291 460c-56 0 -96 -15 -139 -44v-416h-86v595h-69v63h69v76l86 23v-99h162v-63h-162v-123c42 33 91 60 160 60c107 0 169 -59 169 -167v-365h-86v347c0 91 -48 113 -104 113z" />
    <glyph glyph-name="hcircumflex" unicode="&#x125;" horiz-adv-x="543" 
d="M291 460c-56 0 -96 -15 -139 -44v-416h-86v734l86 23v-285c42 33 91 60 160 60c107 0 169 -59 169 -167v-365h-86v347c0 91 -48 113 -104 113zM272 879l-81 -88h-85l122 156h86l122 -156h-85z" />
    <glyph glyph-name="ibreve" unicode="&#x12d;" horiz-adv-x="226" 
d="M70 0v520h86v-520h-86zM114 618c-81 0 -141 58 -146 143h70c8 -48 34 -71 76 -71s67 24 75 71h70c-5 -85 -64 -143 -145 -143z" />
    <glyph glyph-name="idotaccent" horiz-adv-x="226" 
d="M67 639v91h92v-91h-92zM70 0v520h86v-520h-86z" />
    <glyph glyph-name="imacron" unicode="&#x12b;" horiz-adv-x="226" 
d="M7 651v73h212v-73h-212zM70 0v520h86v-520h-86z" />
    <glyph glyph-name="iogonek" unicode="&#x12f;" horiz-adv-x="226" 
d="M67 639v91h92v-91h-92zM182 -206c-14 -8 -39 -16 -66 -16c-83 0 -125 38 -125 98c0 49 20 92 79 128v516h86v-520c-52 -32 -80 -76 -80 -107c0 -26 10 -43 50 -43c19 0 36 4 53 12l3 -2v-66z" />
    <glyph glyph-name="itilde" unicode="&#x129;" horiz-adv-x="226" 
d="M70 0v520h86v-520h-86zM171 716c25 0 44 12 64 40l5 -2l27 -56c-14 -26 -49 -57 -94 -57c-60 0 -81 27 -116 27c-31 0 -47 -11 -68 -39l-4 2l-25 60c18 27 55 52 95 52c56 0 75 -27 116 -27z" />
    <glyph glyph-name="jcircumflex" unicode="&#x135;" horiz-adv-x="218" 
d="M-17 -222v77c55 5 83 30 83 115v550h86v-555c0 -126 -60 -181 -169 -187zM109 701l-75 -91h-82l115 156h86l115 -156h-82z" />
    <glyph glyph-name="uni0137" unicode="&#x137;" horiz-adv-x="499" 
d="M396 0l-173 258l-71 -79v-179h-86v734l86 23v-480l217 243h95v-5l-180 -197l204 -312v-6h-92zM202 -213l9 155h95v-8l-34 -147h-70z" />
    <glyph glyph-name="lacute" unicode="&#x13a;" horiz-adv-x="226" 
d="M70 0v734l86 23v-757h-86zM153 791h-83l88 145h109z" />
    <glyph glyph-name="lcaron" unicode="&#x13e;" horiz-adv-x="226" 
d="M70 0v734l86 23v-757h-86zM208 581l7 162h86v-8l-32 -154h-61z" />
    <glyph glyph-name="uni013C" unicode="&#x13c;" horiz-adv-x="226" 
d="M70 0v734l86 23v-757h-86zM57 -213l9 155h95v-8l-34 -147h-70z" />
    <glyph glyph-name="ldot" unicode="&#x140;" horiz-adv-x="313" 
d="M70 0v734l86 23v-757h-86zM221 326v93h97v-93h-97z" />
    <glyph glyph-name="nacute" unicode="&#x144;" horiz-adv-x="543" 
d="M291 460c-56 0 -96 -15 -139 -44v-416h-86v520h75l7 -51c43 34 93 63 164 63c107 0 169 -59 169 -167v-365h-86v347c0 91 -48 113 -104 113zM305 610h-83l98 165h109z" />
    <glyph glyph-name="napostrophe" unicode="&#x149;" horiz-adv-x="563" 
d="M311 460c-56 0 -96 -15 -139 -44v-416h-86v520h75l7 -51c43 34 93 63 164 63c107 0 169 -59 169 -167v-365h-86v347c0 91 -48 113 -104 113zM77 705v-8l-57 -194h-63l31 202h89z" />
    <glyph glyph-name="ncaron" unicode="&#x148;" horiz-adv-x="543" 
d="M291 460c-56 0 -96 -15 -139 -44v-416h-86v520h75l7 -51c43 34 93 63 164 63c107 0 169 -59 169 -167v-365h-86v347c0 91 -48 113 -104 113zM275 675l75 91h82l-115 -156h-86l-115 156h82z" />
    <glyph glyph-name="uni0146" unicode="&#x146;" horiz-adv-x="543" 
d="M291 460c-56 0 -96 -15 -139 -44v-416h-86v520h75l7 -51c43 34 93 63 164 63c107 0 169 -59 169 -167v-365h-86v347c0 91 -48 113 -104 113zM218 -213l9 155h95v-8l-34 -147h-70z" />
    <glyph glyph-name="obreve" unicode="&#x14f;" horiz-adv-x="592" 
d="M295 -12c-151 0 -265 109 -265 273s114 271 265 271s267 -107 267 -271s-116 -273 -267 -273zM295 62c104 0 181 76 181 199c0 121 -77 197 -181 197s-179 -76 -179 -197c0 -123 75 -199 179 -199zM297 618c-81 0 -141 58 -146 143h70c8 -48 34 -71 76 -71s67 24 75 71
h70c-5 -85 -64 -143 -145 -143z" />
    <glyph glyph-name="ohungarumlaut" unicode="&#x151;" horiz-adv-x="592" 
d="M295 -12c-151 0 -265 109 -265 273s114 271 265 271s267 -107 267 -271s-116 -273 -267 -273zM295 62c104 0 181 76 181 199c0 121 -77 197 -181 197s-179 -76 -179 -197c0 -123 75 -199 179 -199zM257 610h-69l59 165h96zM409 610h-69l59 165h96z" />
    <glyph glyph-name="omacron" unicode="&#x14d;" horiz-adv-x="592" 
d="M295 -12c-151 0 -265 109 -265 273s114 271 265 271s267 -107 267 -271s-116 -273 -267 -273zM295 62c104 0 181 76 181 199c0 121 -77 197 -181 197s-179 -76 -179 -197c0 -123 75 -199 179 -199zM150 651v73h292v-73h-292z" />
    <glyph glyph-name="oslashacute" unicode="&#x1ff;" horiz-adv-x="592" 
d="M115 261c0 -51 11 -94 32 -126l249 297c-28 17 -63 26 -101 26c-104 0 -180 -76 -180 -197zM295 62c104 0 183 76 183 199c0 54 -13 97 -37 130l-250 -300c28 -19 63 -29 104 -29zM295 -12c-58 0 -110 16 -153 45l-62 -74l-48 39l64 76c-42 47 -66 111 -66 187
c0 164 114 271 265 271c56 0 107 -15 149 -42l61 73l48 -39l-61 -73c44 -47 70 -112 70 -190c0 -164 -116 -273 -267 -273zM327 610h-83l98 165h109z" />
    <glyph glyph-name="racute" unicode="&#x155;" horiz-adv-x="347" 
d="M288 450c-67 0 -104 -18 -136 -68v-382h-86v520h75l8 -69c29 48 75 77 139 77c16 0 26 -1 42 -4v-77l-5 -3c-10 3 -25 6 -37 6zM233 610h-83l98 165h109z" />
    <glyph glyph-name="rcaron" unicode="&#x159;" horiz-adv-x="347" 
d="M288 450c-67 0 -104 -18 -136 -68v-382h-86v520h75l8 -69c29 48 75 77 139 77c16 0 26 -1 42 -4v-77l-5 -3c-10 3 -25 6 -37 6zM203 675l75 91h82l-115 -156h-86l-115 156h82z" />
    <glyph glyph-name="uni0157" unicode="&#x157;" horiz-adv-x="347" 
d="M288 450c-67 0 -104 -18 -136 -68v-382h-86v520h75l8 -69c29 48 75 77 139 77c16 0 26 -1 42 -4v-77l-5 -3c-10 3 -25 6 -37 6zM48 -213l9 155h95v-8l-34 -147h-70z" />
    <glyph glyph-name="sacute" unicode="&#x15b;" horiz-adv-x="427" 
d="M205 -10c-82 0 -135 21 -173 48v85l4 2c49 -39 97 -62 169 -62c68 0 106 29 106 78c0 47 -25 66 -89 84l-55 16c-81 23 -132 69 -132 145c0 92 75 148 180 148c65 0 109 -12 147 -31v-76l-4 -2c-41 23 -93 37 -146 37c-67 0 -91 -31 -91 -69c0 -40 25 -61 70 -74l55 -16
c102 -30 152 -61 152 -155c0 -108 -93 -158 -193 -158zM243 610h-83l98 165h109z" />
    <glyph glyph-name="uni015F" unicode="&#x15f;" horiz-adv-x="427" 
d="M187 -219c-39 0 -63 11 -75 19v55l3 2c16 -9 34 -17 60 -17c27 0 41 12 41 32c0 24 -24 34 -67 39v83c-51 7 -88 24 -117 44v85l4 2c49 -39 97 -62 169 -62c68 0 106 29 106 78c0 47 -25 66 -89 84l-55 16c-81 23 -132 69 -132 145c0 92 75 148 180 148
c65 0 109 -12 147 -31v-76l-4 -2c-41 23 -93 37 -146 37c-67 0 -91 -31 -91 -69c0 -40 25 -61 70 -74l55 -16c102 -30 152 -61 152 -155c0 -108 -93 -158 -188 -158v-38c47 -11 82 -26 82 -82c0 -55 -40 -89 -105 -89z" />
    <glyph glyph-name="scircumflex" unicode="&#x15d;" horiz-adv-x="427" 
d="M205 -10c-82 0 -135 21 -173 48v85l4 2c49 -39 97 -62 169 -62c68 0 106 29 106 78c0 47 -25 66 -89 84l-55 16c-81 23 -132 69 -132 145c0 92 75 148 180 148c65 0 109 -12 147 -31v-76l-4 -2c-41 23 -93 37 -146 37c-67 0 -91 -31 -91 -69c0 -40 25 -61 70 -74l55 -16
c102 -30 152 -61 152 -155c0 -108 -93 -158 -193 -158zM211 701l-75 -91h-82l115 156h86l115 -156h-82z" />
    <glyph glyph-name="uni0219" unicode="&#x219;" horiz-adv-x="427" 
d="M205 -10c-82 0 -135 21 -173 48v85l4 2c49 -39 97 -62 169 -62c68 0 106 29 106 78c0 47 -25 66 -89 84l-55 16c-81 23 -132 69 -132 145c0 92 75 148 180 148c65 0 109 -12 147 -31v-76l-4 -2c-41 23 -93 37 -146 37c-67 0 -91 -31 -91 -69c0 -40 25 -61 70 -74l55 -16
c102 -30 152 -61 152 -155c0 -108 -93 -158 -193 -158zM151 -213l9 155h95v-8l-34 -147h-70z" />
    <glyph glyph-name="tbar" unicode="&#x167;" horiz-adv-x="345" 
d="M313 4c-19 -7 -50 -13 -84 -13c-69 0 -135 32 -135 119v167h-68v63h68v108h-68v72h68v98l86 14v-112h123v-72h-123v-108h123v-63h-123v-158c0 -40 26 -55 67 -55c20 0 45 4 62 9l4 -2v-67z" />
    <glyph glyph-name="tcaron" unicode="&#x165;" horiz-adv-x="345" 
d="M313 4c-19 -7 -50 -13 -84 -13c-69 0 -135 32 -135 119v338h-68v72h68v98l86 14v-112h123v-72h-123v-329c0 -40 26 -55 67 -55c20 0 45 4 62 9l4 -2v-67zM228 581l7 162h86v-8l-32 -154h-61z" />
    <glyph glyph-name="tcommaaccent" unicode="&#x163;" horiz-adv-x="345" 
d="M313 4c-19 -7 -50 -13 -84 -13c-69 0 -135 32 -135 119v338h-68v72h68v98l86 14v-112h123v-72h-123v-329c0 -40 26 -55 67 -55c20 0 45 4 62 9l4 -2v-67zM126 -213l9 155h95v-8l-34 -147h-70z" />
    <glyph glyph-name="uni021B" unicode="&#x21b;" horiz-adv-x="345" 
d="M313 4c-19 -7 -50 -13 -84 -13c-69 0 -135 32 -135 119v338h-68v72h68v98l86 14v-112h123v-72h-123v-329c0 -40 26 -55 67 -55c20 0 45 4 62 9l4 -2v-67zM126 -213l9 155h95v-8l-34 -147h-70z" />
    <glyph glyph-name="ubreve" unicode="&#x16d;" horiz-adv-x="551" 
d="M410 0l-7 51c-44 -34 -98 -63 -169 -63c-107 0 -174 59 -174 167v365h86v-347c0 -91 53 -113 109 -113s100 15 144 45v415h86v-520h-75zM276 618c-81 0 -141 58 -146 143h70c8 -48 34 -71 76 -71s67 24 75 71h70c-5 -85 -64 -143 -145 -143z" />
    <glyph glyph-name="uhungarumlaut" unicode="&#x171;" horiz-adv-x="551" 
d="M410 0l-7 51c-44 -34 -98 -63 -169 -63c-107 0 -174 59 -174 167v365h86v-347c0 -91 53 -113 109 -113s100 15 144 45v415h86v-520h-75zM236 610h-69l59 165h96zM388 610h-69l59 165h96z" />
    <glyph glyph-name="umacron" unicode="&#x16b;" horiz-adv-x="551" 
d="M410 0l-7 51c-44 -34 -98 -63 -169 -63c-107 0 -174 59 -174 167v365h86v-347c0 -91 53 -113 109 -113s100 15 144 45v415h86v-520h-75zM129 651v73h292v-73h-292z" />
    <glyph glyph-name="uogonek" unicode="&#x173;" horiz-adv-x="551" 
d="M506 -206c-14 -8 -39 -16 -66 -16c-83 0 -125 38 -125 98c0 49 22 91 94 131l-6 44c-44 -34 -98 -63 -169 -63c-107 0 -174 59 -174 167v365h86v-347c0 -91 53 -113 109 -113s100 15 144 45v415h86v-520c-57 -32 -85 -76 -85 -107c0 -26 10 -43 50 -43c19 0 36 4 53 12
l3 -2v-66z" />
    <glyph glyph-name="uring" unicode="&#x16f;" horiz-adv-x="551" 
d="M410 0l-7 51c-44 -34 -98 -63 -169 -63c-107 0 -174 59 -174 167v365h86v-347c0 -91 53 -113 109 -113s100 15 144 45v415h86v-520h-75zM275 591c-67 0 -113 45 -113 109s46 109 113 109s113 -45 113 -109s-46 -109 -113 -109zM275 755c-32 0 -51 -24 -51 -55
s19 -55 51 -55c33 0 52 24 52 55s-19 55 -52 55z" />
    <glyph glyph-name="utilde" unicode="&#x169;" horiz-adv-x="551" 
d="M410 0l-7 51c-44 -34 -98 -63 -169 -63c-107 0 -174 59 -174 167v365h86v-347c0 -91 53 -113 109 -113s100 15 144 45v415h86v-520h-75zM333 716c25 0 44 12 64 40l5 -2l27 -56c-14 -26 -49 -57 -94 -57c-60 0 -81 27 -116 27c-31 0 -47 -11 -68 -39l-4 2l-25 60
c18 27 55 52 95 52c56 0 75 -27 116 -27z" />
    <glyph glyph-name="wacute" unicode="&#x1e83;" horiz-adv-x="708" 
d="M504 -12l-150 370l-146 -370h-21l-175 527v5h89l106 -343l136 349h26l136 -350l105 344h86v-5l-172 -527h-20zM385 610h-83l98 165h109z" />
    <glyph glyph-name="wcircumflex" unicode="&#x175;" horiz-adv-x="708" 
d="M504 -12l-150 370l-146 -370h-21l-175 527v5h89l106 -343l136 349h26l136 -350l105 344h86v-5l-172 -527h-20zM353 701l-75 -91h-82l115 156h86l115 -156h-82z" />
    <glyph glyph-name="wdieresis" unicode="&#x1e85;" horiz-adv-x="708" 
d="M504 -12l-150 370l-146 -370h-21l-175 527v5h89l106 -343l136 349h26l136 -350l105 344h86v-5l-172 -527h-20zM218 639v91h92v-91h-92zM398 639v91h92v-91h-92z" />
    <glyph glyph-name="wgrave" unicode="&#x1e81;" horiz-adv-x="708" 
d="M504 -12l-150 370l-146 -370h-21l-175 527v5h89l106 -343l136 349h26l136 -350l105 344h86v-5l-172 -527h-20zM328 610l-124 165h109l98 -165h-83z" />
    <glyph glyph-name="ycircumflex" unicode="&#x177;" horiz-adv-x="494" 
d="M54 -222v79c72 11 103 40 127 99l27 68l-201 491v5h91l155 -394l148 394h86v-5l-225 -578c-41 -104 -100 -151 -208 -159zM252 701l-75 -91h-82l115 156h86l115 -156h-82z" />
    <glyph glyph-name="ygrave" unicode="&#x1ef3;" horiz-adv-x="494" 
d="M54 -222v79c72 11 103 40 127 99l27 68l-201 491v5h91l155 -394l148 394h86v-5l-225 -578c-41 -104 -100 -151 -208 -159zM227 610l-124 165h109l98 -165h-83z" />
    <glyph glyph-name="zacute" unicode="&#x17a;" horiz-adv-x="459" 
d="M425 0h-403v23l284 425h-249v72h378v-22l-287 -426h277v-72zM270 610h-83l98 165h109z" />
    <glyph glyph-name="zdotaccent" unicode="&#x17c;" horiz-adv-x="459" 
d="M425 0h-403v23l284 425h-249v72h378v-22l-287 -426h277v-72zM191 637v95h96v-95h-96z" />
    <glyph glyph-name="breve_acute" horiz-adv-x="400" 
d="M230 781h-77l65 115h103zM200 618c-81 0 -141 58 -146 143h70c8 -48 34 -71 76 -71s67 24 75 71h70c-5 -85 -64 -143 -145 -143z" />
    <glyph glyph-name="breve_grave" horiz-adv-x="400" 
d="M170 781l-91 115h103l65 -115h-77zM200 618c-81 0 -141 58 -146 143h70c8 -48 34 -71 76 -71s67 24 75 71h70c-5 -85 -64 -143 -145 -143z" />
    <glyph glyph-name="breve_hook" horiz-adv-x="400" 
d="M116 915c12 7 40 18 84 18c69 0 112 -24 112 -72c0 -61 -85 -68 -85 -84v-2h-70v4c0 49 78 52 78 78c0 13 -15 18 -48 18c-30 0 -52 -7 -68 -15l-3 1v54zM200 618c-81 0 -141 58 -146 143h70c8 -48 34 -71 76 -71s67 24 75 71h70c-5 -85 -64 -143 -145 -143z" />
    <glyph glyph-name="breve_tilde" horiz-adv-x="400" 
d="M256 884c24 0 40 12 59 40l5 -2l25 -56c-13 -26 -44 -57 -87 -57c-52 0 -82 27 -110 27c-30 0 -43 -11 -63 -39l-4 2l-23 60c17 27 50 52 88 52c48 0 76 -27 110 -27zM200 618c-81 0 -141 58 -146 143h70c8 -48 34 -71 76 -71s67 24 75 71h70c-5 -85 -64 -143 -145 -143z
" />
    <glyph glyph-name="circumflex_acute" horiz-adv-x="400" 
d="M390 723h-77l65 115h103zM199 701l-75 -91h-82l115 156h86l115 -156h-82z" />
    <glyph glyph-name="circumflex_grave" horiz-adv-x="400" 
d="M349 723l-91 115h103l65 -115h-77zM199 701l-75 -91h-82l115 156h86l115 -156h-82z" />
    <glyph glyph-name="circumflex_hook" horiz-adv-x="400" 
d="M288 855c11 9 37 20 79 20c65 0 102 -24 102 -76c0 -62 -74 -69 -74 -86v-2h-67v4c0 51 68 55 68 82c0 15 -10 21 -41 21c-29 0 -49 -7 -64 -16l-3 2v51zM199 701l-75 -91h-82l115 156h86l115 -156h-82z" />
    <glyph glyph-name="circumflex_tilde" horiz-adv-x="400" 
d="M258 884c24 0 40 12 59 40l5 -2l25 -56c-13 -26 -44 -57 -87 -57c-52 0 -82 27 -110 27c-30 0 -43 -11 -63 -39l-4 2l-23 60c17 27 50 52 88 52c48 0 76 -27 110 -27zM199 701l-75 -91h-82l115 156h86l115 -156h-82z" />
    <glyph glyph-name="space_uni0326" horiz-adv-x="400" 
d="M141 -213l9 155h95v-8l-34 -147h-70z" />
    <glyph glyph-name="oneeighth" unicode="&#x215b;" horiz-adv-x="728" 
d="M41 0l514 690h76l-514 -690h-76zM156 313h-73v290l-70 -36l-2 1v66l120 61h25v-382zM577 -7c-83 0 -139 41 -139 104c0 44 32 75 71 89c-39 20 -61 53 -61 93c0 65 57 103 125 103c72 0 129 -30 129 -101c0 -38 -28 -66 -60 -81c45 -21 71 -50 71 -98
c0 -68 -52 -109 -136 -109zM589 218h2c27 16 42 36 42 59c0 33 -24 51 -58 51s-54 -20 -54 -47c0 -24 17 -45 68 -63zM576 48c41 0 63 22 63 51s-20 48 -78 67l-4 1c-27 -13 -48 -32 -48 -64c0 -35 24 -55 67 -55z" />
    <glyph glyph-name="onethird" unicode="&#x2153;" horiz-adv-x="721" 
d="M42 0l514 690h76l-514 -690h-76zM156 313h-73v290l-70 -36l-2 1v66l120 61h25v-382zM572 -7c-59 0 -91 16 -114 29v62l3 2c31 -20 56 -32 102 -32c45 0 66 24 66 56s-18 56 -70 56h-41v56h36c49 0 63 24 63 52c0 31 -20 49 -61 49c-39 0 -58 -9 -87 -26l-3 2v59
c25 15 52 24 102 24c69 0 124 -32 124 -100c0 -42 -23 -70 -62 -83c48 -12 75 -43 75 -92c0 -71 -50 -114 -133 -114z" />
    <glyph glyph-name="threeeighths" unicode="&#x215c;" horiz-adv-x="791" 
d="M104 0l514 690h76l-514 -690h-76zM640 -7c-83 0 -139 41 -139 104c0 44 32 75 71 89c-39 20 -61 53 -61 93c0 65 57 103 125 103c72 0 129 -30 129 -101c0 -38 -28 -66 -60 -81c45 -21 71 -50 71 -98c0 -68 -52 -109 -136 -109zM652 218h2c27 16 42 36 42 59
c0 33 -24 51 -58 51s-54 -20 -54 -47c0 -24 17 -45 68 -63zM639 48c41 0 63 22 63 51s-20 48 -78 67l-4 1c-27 -13 -48 -32 -48 -64c0 -35 24 -55 67 -55zM130 306c-59 0 -91 16 -114 29v62l3 2c31 -20 56 -32 102 -32c45 0 66 24 66 56s-18 56 -70 56h-41v56h36
c49 0 63 24 63 52c0 31 -20 49 -61 49c-39 0 -58 -9 -87 -26l-3 2v59c25 15 52 24 102 24c69 0 124 -32 124 -100c0 -42 -23 -70 -62 -83c48 -12 75 -43 75 -92c0 -71 -50 -114 -133 -114z" />
    <glyph glyph-name="fiveeighths" unicode="&#x215d;" horiz-adv-x="774" 
d="M88 0l514 690h76l-514 -690h-76zM123 306c-50 0 -85 13 -108 28v60l4 2c29 -19 54 -30 93 -30c52 0 74 25 74 64s-26 59 -80 59c-34 0 -55 -7 -69 -11l-3 2v208h211v-58h-147v-86c9 1 19 2 30 2c84 0 134 -43 134 -114c0 -76 -52 -126 -139 -126zM623 -7
c-83 0 -139 41 -139 104c0 44 32 75 71 89c-39 20 -61 53 -61 93c0 65 57 103 125 103c72 0 129 -30 129 -101c0 -38 -28 -66 -60 -81c45 -21 71 -50 71 -98c0 -68 -52 -109 -136 -109zM635 218h2c27 16 42 36 42 59c0 33 -24 51 -58 51s-54 -20 -54 -47
c0 -24 17 -45 68 -63zM622 48c41 0 63 22 63 51s-20 48 -78 67l-4 1c-27 -13 -48 -32 -48 -64c0 -35 24 -55 67 -55z" />
    <glyph glyph-name="twothirds" unicode="&#x2154;" horiz-adv-x="766" 
d="M1 313v25l125 142c31 35 47 66 47 100c0 30 -17 54 -60 54c-38 0 -60 -10 -89 -28l-3 2v61c25 16 55 26 104 26c74 0 124 -40 124 -109c0 -52 -29 -94 -69 -141l-67 -74h141v-58h-253zM617 -7c-59 0 -91 16 -114 29v62l3 2c31 -20 56 -32 102 -32c45 0 66 24 66 56
s-18 56 -70 56h-41v56h36c49 0 63 24 63 52c0 31 -20 49 -61 49c-39 0 -58 -9 -87 -26l-3 2v59c25 15 52 24 102 24c69 0 124 -32 124 -100c0 -42 -23 -70 -62 -83c48 -12 75 -43 75 -92c0 -71 -50 -114 -133 -114zM86 0l514 690h76l-514 -690h-76z" />
    <glyph glyph-name="seveneighths" unicode="&#x215e;" horiz-adv-x="743" 
d="M45 0l514 690h76l-514 -690h-76zM128 313h-77c17 84 58 164 96 239l38 75h-173v61h265v-25l-62 -123c-39 -78 -74 -158 -87 -227zM592 -7c-83 0 -139 41 -139 104c0 44 32 75 71 89c-39 20 -61 53 -61 93c0 65 57 103 125 103c72 0 129 -30 129 -101
c0 -38 -28 -66 -60 -81c45 -21 71 -50 71 -98c0 -68 -52 -109 -136 -109zM604 218h2c27 16 42 36 42 59c0 33 -24 51 -58 51s-54 -20 -54 -47c0 -24 17 -45 68 -63zM591 48c41 0 63 22 63 51s-20 48 -78 67l-4 1c-27 -13 -48 -32 -48 -64c0 -35 24 -55 67 -55z" />
    <glyph glyph-name="uni2032" unicode="&#x2032;" horiz-adv-x="177" 
d="M145 705l-57 -212h-61l29 212h89z" />
    <glyph glyph-name="uni2033" unicode="&#x2033;" horiz-adv-x="320" 
d="M145 705l-57 -212h-61l29 212h89zM288 705l-57 -212h-61l29 212h89z" />
    <glyph glyph-name="uni24C5" unicode="&#x24c5;" horiz-adv-x="792" 
d="M36 352c0 213 157 365 360 365s360 -152 360 -365c0 -211 -157 -364 -360 -364s-360 153 -360 364zM698 352c0 180 -127 315 -302 315c-173 0 -302 -135 -302 -315c0 -177 129 -314 302 -314c175 0 302 137 302 314zM408 488h-58v-115h58c47 0 67 21 67 59
c0 39 -20 56 -67 56zM413 313h-63v-151h-75v387h133c94 0 144 -37 144 -118c0 -82 -55 -118 -139 -118z" />
    <glyph glyph-name="zero.num" horiz-adv-x="348" 
d="M174 306c-92 0 -156 74 -157 196c0 122 65 193 157 193c93 0 156 -71 157 -193c0 -122 -64 -196 -157 -196zM174 366c49 0 77 46 77 136s-28 133 -77 133c-48 0 -77 -43 -77 -133s29 -136 77 -136z" />
    <glyph glyph-name="one.num" horiz-adv-x="203" 
d="M156 313h-73v290l-70 -36l-2 1v66l120 61h25v-382z" />
    <glyph glyph-name="two.num" horiz-adv-x="274" 
d="M1 313v25l125 142c31 35 47 66 47 100c0 30 -17 54 -60 54c-38 0 -60 -10 -89 -28l-3 2v61c25 16 55 26 104 26c74 0 124 -40 124 -109c0 -52 -29 -94 -69 -141l-67 -74h141v-58h-253z" />
    <glyph glyph-name="three.num" horiz-adv-x="279" 
d="M130 306c-59 0 -91 16 -114 29v62l3 2c31 -20 56 -32 102 -32c45 0 66 24 66 56s-18 56 -70 56h-41v56h36c49 0 63 24 63 52c0 31 -20 49 -61 49c-39 0 -58 -9 -87 -26l-3 2v59c25 15 52 24 102 24c69 0 124 -32 124 -100c0 -42 -23 -70 -62 -83c48 -12 75 -43 75 -92
c0 -71 -50 -114 -133 -114z" />
    <glyph glyph-name="four.num" horiz-adv-x="305" 
d="M175 440v120l-91 -120h91zM299 384h-53v-71h-71v71h-179v30l215 282h35v-256h53v-56z" />
    <glyph glyph-name="five.num" horiz-adv-x="279" 
d="M123 306c-50 0 -85 13 -108 28v60l4 2c29 -19 54 -30 93 -30c52 0 74 25 74 64s-26 59 -80 59c-34 0 -55 -7 -69 -11l-3 2v208h211v-58h-147v-86c9 1 19 2 30 2c84 0 134 -43 134 -114c0 -76 -52 -126 -139 -126z" />
    <glyph glyph-name="six.num" horiz-adv-x="311" 
d="M298 432c0 -69 -45 -126 -132 -126c-93 0 -148 66 -148 180c0 142 76 209 171 209c33 0 62 -5 84 -18v-63l-4 -2c-18 14 -43 23 -74 23c-54 0 -91 -32 -99 -115c19 16 48 30 86 30c63 0 116 -41 116 -118zM164 364c42 0 58 30 58 68c0 44 -22 65 -62 65
c-26 0 -47 -9 -65 -23c3 -75 25 -110 69 -110z" />
    <glyph glyph-name="seven.num" horiz-adv-x="280" 
d="M128 313h-77c17 84 58 164 96 239l38 75h-173v61h265v-25l-62 -123c-39 -78 -74 -158 -87 -227z" />
    <glyph glyph-name="eight.num" horiz-adv-x="305" 
d="M154 306c-83 0 -139 41 -139 104c0 44 32 75 71 89c-39 20 -61 53 -61 93c0 65 57 103 125 103c72 0 129 -30 129 -101c0 -38 -28 -66 -60 -81c45 -21 71 -50 71 -98c0 -68 -52 -109 -136 -109zM166 531h2c27 16 42 36 42 59c0 33 -24 51 -58 51s-54 -20 -54 -47
c0 -24 17 -45 68 -63zM153 361c41 0 63 22 63 51s-20 48 -78 67l-4 1c-27 -13 -48 -32 -48 -64c0 -35 24 -55 67 -55z" />
    <glyph glyph-name="nine.num" horiz-adv-x="311" 
d="M151 505c26 0 47 9 65 22c-2 75 -23 110 -67 110c-42 0 -60 -29 -60 -67c0 -44 20 -65 62 -65zM116 306c-34 0 -63 6 -85 19v63l4 1c18 -13 43 -23 75 -23c61 0 98 27 105 115c-19 -16 -45 -29 -85 -29c-66 0 -117 39 -117 118c0 69 48 125 134 125
c93 0 145 -63 145 -179c0 -151 -73 -210 -176 -210z" />
    <glyph glyph-name="zero.den" horiz-adv-x="348" 
d="M174 -7c-92 0 -156 74 -157 196c0 122 65 193 157 193c93 0 156 -71 157 -193c0 -122 -64 -196 -157 -196zM174 53c49 0 77 46 77 136s-28 133 -77 133c-48 0 -77 -43 -77 -133s29 -136 77 -136z" />
    <glyph glyph-name="one.den" horiz-adv-x="203" 
d="M156 0h-73v290l-70 -36l-2 1v66l120 61h25v-382z" />
    <glyph glyph-name="two.den" horiz-adv-x="274" 
d="M1 0v25l125 142c31 35 47 66 47 100c0 30 -17 54 -60 54c-38 0 -60 -10 -89 -28l-3 2v61c25 16 55 26 104 26c74 0 124 -40 124 -109c0 -52 -29 -94 -69 -141l-67 -74h141v-58h-253z" />
    <glyph glyph-name="three.den" horiz-adv-x="279" 
d="M130 -7c-59 0 -91 16 -114 29v62l3 2c31 -20 56 -32 102 -32c45 0 66 24 66 56s-18 56 -70 56h-41v56h36c49 0 63 24 63 52c0 31 -20 49 -61 49c-39 0 -58 -9 -87 -26l-3 2v59c25 15 52 24 102 24c69 0 124 -32 124 -100c0 -42 -23 -70 -62 -83c48 -12 75 -43 75 -92
c0 -71 -50 -114 -133 -114z" />
    <glyph glyph-name="four.den" horiz-adv-x="305" 
d="M175 127v120l-91 -120h91zM299 71h-53v-71h-71v71h-179v30l215 282h35v-256h53v-56z" />
    <glyph glyph-name="five.den" horiz-adv-x="279" 
d="M123 -7c-50 0 -85 13 -108 28v60l4 2c29 -19 54 -30 93 -30c52 0 74 25 74 64s-26 59 -80 59c-34 0 -55 -7 -69 -11l-3 2v208h211v-58h-147v-86c9 1 19 2 30 2c84 0 134 -43 134 -114c0 -76 -52 -126 -139 -126z" />
    <glyph glyph-name="six.den" horiz-adv-x="311" 
d="M298 119c0 -69 -45 -126 -132 -126c-93 0 -148 66 -148 180c0 142 76 209 171 209c33 0 62 -5 84 -18v-63l-4 -2c-18 14 -43 23 -74 23c-54 0 -91 -32 -99 -115c19 16 48 30 86 30c63 0 116 -41 116 -118zM164 51c42 0 58 30 58 68c0 44 -22 65 -62 65
c-26 0 -47 -9 -65 -23c3 -75 25 -110 69 -110z" />
    <glyph glyph-name="seven.den" horiz-adv-x="280" 
d="M128 0h-77c17 84 58 164 96 239l38 75h-173v61h265v-25l-62 -123c-39 -78 -74 -158 -87 -227z" />
    <glyph glyph-name="eight.den" horiz-adv-x="305" 
d="M154 -7c-83 0 -139 41 -139 104c0 44 32 75 71 89c-39 20 -61 53 -61 93c0 65 57 103 125 103c72 0 129 -30 129 -101c0 -38 -28 -66 -60 -81c45 -21 71 -50 71 -98c0 -68 -52 -109 -136 -109zM166 218h2c27 16 42 36 42 59c0 33 -24 51 -58 51s-54 -20 -54 -47
c0 -24 17 -45 68 -63zM153 48c41 0 63 22 63 51s-20 48 -78 67l-4 1c-27 -13 -48 -32 -48 -64c0 -35 24 -55 67 -55z" />
    <glyph glyph-name="nine.den" horiz-adv-x="311" 
d="M151 192c26 0 47 9 65 22c-2 75 -23 110 -67 110c-42 0 -60 -29 -60 -67c0 -44 20 -65 62 -65zM116 -7c-34 0 -63 6 -85 19v63l4 1c18 -13 43 -23 75 -23c61 0 98 27 105 115c-19 -16 -45 -29 -85 -29c-66 0 -117 39 -117 118c0 69 48 125 134 125c93 0 145 -63 145 -179
c0 -151 -73 -210 -176 -210z" />
    <glyph glyph-name="zero.sub" horiz-adv-x="348" 
d="M174 -97c-92 0 -156 74 -157 196c0 122 65 193 157 193c93 0 156 -71 157 -193c0 -122 -64 -196 -157 -196zM174 -37c49 0 77 46 77 136s-28 133 -77 133c-48 0 -77 -43 -77 -133s29 -136 77 -136z" />
    <glyph glyph-name="one.sub" horiz-adv-x="203" 
d="M156 -90h-73v290l-70 -36l-2 1v66l120 61h25v-382z" />
    <glyph glyph-name="two.sub" horiz-adv-x="274" 
d="M1 -90v25l125 142c31 35 47 66 47 100c0 30 -17 54 -60 54c-38 0 -60 -10 -89 -28l-3 2v61c25 16 55 26 104 26c74 0 124 -40 124 -109c0 -52 -29 -94 -69 -141l-67 -74h141v-58h-253z" />
    <glyph glyph-name="three.sub" horiz-adv-x="279" 
d="M130 -97c-59 0 -91 16 -114 29v62l3 2c31 -20 56 -32 102 -32c45 0 66 24 66 56s-18 56 -70 56h-41v56h36c49 0 63 24 63 52c0 31 -20 49 -61 49c-39 0 -58 -9 -87 -26l-3 2v59c25 15 52 24 102 24c69 0 124 -32 124 -100c0 -42 -23 -70 -62 -83c48 -12 75 -43 75 -92
c0 -71 -50 -114 -133 -114z" />
    <glyph glyph-name="four.sub" horiz-adv-x="305" 
d="M175 37v120l-91 -120h91zM299 -19h-53v-71h-71v71h-179v30l215 282h35v-256h53v-56z" />
    <glyph glyph-name="five.sub" horiz-adv-x="279" 
d="M123 -100c-50 0 -85 13 -108 28v60l4 2c29 -19 54 -30 93 -30c52 0 74 25 74 64s-26 59 -80 59c-34 0 -55 -7 -69 -11l-3 2v208h211v-58h-147v-86c9 1 19 2 30 2c84 0 134 -43 134 -114c0 -76 -52 -126 -139 -126z" />
    <glyph glyph-name="six.sub" horiz-adv-x="311" 
d="M298 29c0 -69 -45 -126 -132 -126c-93 0 -148 66 -148 180c0 142 76 209 171 209c33 0 62 -5 84 -18v-63l-4 -2c-18 14 -43 23 -74 23c-54 0 -91 -32 -99 -115c19 16 48 30 86 30c63 0 116 -41 116 -118zM164 -39c42 0 58 30 58 68c0 44 -22 65 -62 65
c-26 0 -47 -9 -65 -23c3 -75 25 -110 69 -110z" />
    <glyph glyph-name="seven.sub" horiz-adv-x="280" 
d="M128 -90h-77c17 84 58 164 96 239l38 75h-173v61h265v-25l-62 -123c-39 -78 -74 -158 -87 -227z" />
    <glyph glyph-name="eight.sub" horiz-adv-x="305" 
d="M154 -97c-83 0 -139 41 -139 104c0 44 32 75 71 89c-39 20 -61 53 -61 93c0 65 57 103 125 103c72 0 129 -30 129 -101c0 -38 -28 -66 -60 -81c45 -21 71 -50 71 -98c0 -68 -52 -109 -136 -109zM166 128h2c27 16 42 36 42 59c0 33 -24 51 -58 51s-54 -20 -54 -47
c0 -24 17 -45 68 -63zM153 -42c41 0 63 22 63 51s-20 48 -78 67l-4 1c-27 -13 -48 -32 -48 -64c0 -35 24 -55 67 -55z" />
    <glyph glyph-name="nine.sub" horiz-adv-x="311" 
d="M151 102c26 0 47 9 65 22c-2 75 -23 110 -67 110c-42 0 -60 -29 -60 -67c0 -44 20 -65 62 -65zM116 -97c-34 0 -63 6 -85 19v63l4 1c18 -13 43 -23 75 -23c61 0 98 27 105 115c-19 -16 -45 -29 -85 -29c-66 0 -117 39 -117 118c0 69 48 125 134 125
c93 0 145 -63 145 -179c0 -151 -73 -210 -176 -210z" />
    <glyph glyph-name="plus.sub" horiz-adv-x="324" 
d="M132 -49v117h-105v58h105v117h60v-117h105v-58h-105v-117h-60z" />
    <glyph glyph-name="minus.sub" horiz-adv-x="324" 
d="M27 68v58h270v-58h-270z" />
    <glyph glyph-name="zero.sup" horiz-adv-x="348" 
d="M174 366c-92 0 -156 74 -157 196c0 122 65 193 157 193c93 0 156 -71 157 -193c0 -122 -64 -196 -157 -196zM174 426c49 0 77 46 77 136s-28 133 -77 133c-48 0 -77 -43 -77 -133s29 -136 77 -136z" />
    <glyph glyph-name="one.sup" horiz-adv-x="203" 
d="M156 373h-73v290l-70 -36l-2 1v66l120 61h25v-382z" />
    <glyph glyph-name="two.sup" horiz-adv-x="274" 
d="M1 373v25l125 142c31 35 47 66 47 100c0 30 -17 54 -60 54c-38 0 -60 -10 -89 -28l-3 2v61c25 16 55 26 104 26c74 0 124 -40 124 -109c0 -52 -29 -94 -69 -141l-67 -74h141v-58h-253z" />
    <glyph glyph-name="three.sup" horiz-adv-x="279" 
d="M130 366c-59 0 -91 16 -114 29v62l3 2c31 -20 56 -32 102 -32c45 0 66 24 66 56s-18 56 -70 56h-41v56h36c49 0 63 24 63 52c0 31 -20 49 -61 49c-39 0 -58 -9 -87 -26l-3 2v59c25 15 52 24 102 24c69 0 124 -32 124 -100c0 -42 -23 -70 -62 -83c48 -12 75 -43 75 -92
c0 -71 -50 -114 -133 -114z" />
    <glyph glyph-name="four.sup" horiz-adv-x="305" 
d="M175 500v120l-91 -120h91zM299 444h-53v-71h-71v71h-179v30l215 282h35v-256h53v-56z" />
    <glyph glyph-name="five.sup" horiz-adv-x="279" 
d="M123 366c-50 0 -85 13 -108 28v60l4 2c29 -19 54 -30 93 -30c52 0 74 25 74 64s-26 59 -80 59c-34 0 -55 -7 -69 -11l-3 2v208h211v-58h-147v-86c9 1 19 2 30 2c84 0 134 -43 134 -114c0 -76 -52 -126 -139 -126z" />
    <glyph glyph-name="six.sup" horiz-adv-x="311" 
d="M298 492c0 -69 -45 -126 -132 -126c-93 0 -148 66 -148 180c0 142 76 209 171 209c33 0 62 -5 84 -18v-63l-4 -2c-18 14 -43 23 -74 23c-54 0 -91 -32 -99 -115c19 16 48 30 86 30c63 0 116 -41 116 -118zM164 424c42 0 58 30 58 68c0 44 -22 65 -62 65
c-26 0 -47 -9 -65 -23c3 -75 25 -110 69 -110z" />
    <glyph glyph-name="seven.sup" horiz-adv-x="280" 
d="M128 373h-77c17 84 58 164 96 239l38 75h-173v61h265v-25l-62 -123c-39 -78 -74 -158 -87 -227z" />
    <glyph glyph-name="eight.sup" horiz-adv-x="305" 
d="M154 366c-83 0 -139 41 -139 104c0 44 32 75 71 89c-39 20 -61 53 -61 93c0 65 57 103 125 103c72 0 129 -30 129 -101c0 -38 -28 -66 -60 -81c45 -21 71 -50 71 -98c0 -68 -52 -109 -136 -109zM166 591h2c27 16 42 36 42 59c0 33 -24 51 -58 51s-54 -20 -54 -47
c0 -24 17 -45 68 -63zM153 421c41 0 63 22 63 51s-20 48 -78 67l-4 1c-27 -13 -48 -32 -48 -64c0 -35 24 -55 67 -55z" />
    <glyph glyph-name="nine.sup" horiz-adv-x="311" 
d="M151 565c26 0 47 9 65 22c-2 75 -23 110 -67 110c-42 0 -60 -29 -60 -67c0 -44 20 -65 62 -65zM116 366c-34 0 -63 6 -85 19v63l4 1c18 -13 43 -23 75 -23c61 0 98 27 105 115c-19 -16 -45 -29 -85 -29c-66 0 -117 39 -117 118c0 69 48 125 134 125
c93 0 145 -63 145 -179c0 -151 -73 -210 -176 -210z" />
    <glyph glyph-name="plus.sup" horiz-adv-x="324" 
d="M132 414v117h-105v58h105v117h60v-117h105v-58h-105v-117h-60z" />
    <glyph glyph-name="minus.sup" horiz-adv-x="324" 
d="M27 531v58h270v-58h-270z" />
    <glyph glyph-name="J.alt" unicode="&#xe489;" horiz-adv-x="378" 
d="M115 -6c-40 0 -71 7 -101 22v73l4 2c20 -11 52 -19 85 -19c75 0 114 31 114 125v508h90v-513c0 -154 -95 -198 -192 -198z" />
    <glyph glyph-name="K.alt" unicode="&#xe48a;" horiz-adv-x="596" 
d="M81 0v705h90v-705h-90zM584 0h-103l-291 366l269 339h97v-5l-264 -328l292 -367v-5z" />
    <glyph glyph-name="M.alt" unicode="&#xe48c;" horiz-adv-x="853" 
d="M702 0l-55 473l-214 -481h-26l-212 476l-47 -468h-87l76 716h34l252 -559l251 559h32l86 -716h-90z" />
    <glyph glyph-name="Q.alt" unicode="&#xe490;" horiz-adv-x="771" 
d="M386 66c57 0 106 14 145 39l-148 149l2 11h98l104 -105c36 49 54 115 54 195c0 175 -102 284 -255 284c-152 0 -256 -109 -256 -284s104 -289 256 -289zM635 0l-50 50c-56 -39 -124 -62 -199 -62c-202 0 -350 160 -350 367s148 362 350 362s349 -155 349 -362
c0 -99 -34 -187 -91 -252l91 -92l-2 -11h-98z" />
    <glyph glyph-name="W.alt" unicode="&#xe496;" horiz-adv-x="914" 
d="M652 -13l-195 525l-196 -525h-20l-227 713v5h93l153 -499l188 505h23l189 -505l151 499h89v-5l-228 -713h-20z" />
    <glyph glyph-name="IJ.alt" horiz-adv-x="629" 
d="M83 0v705h90v-705h-90zM374 -6c-40 0 -71 7 -101 22v73l4 2c20 -11 52 -19 85 -19c75 0 114 31 114 125v508h90v-513c0 -154 -95 -198 -192 -198z" />
    <glyph glyph-name="a.alt" unicode="&#xe4c0;" horiz-adv-x="572" 
d="M440 0l-10 66c-39 -49 -91 -78 -164 -78c-134 0 -236 101 -236 265c0 168 102 279 243 279c65 0 114 -25 152 -69l7 57h74v-520h-66zM273 62c72 0 111 23 147 61v279c-37 36 -76 56 -143 56c-83 0 -161 -65 -161 -205c0 -136 78 -191 157 -191z" />
    <glyph glyph-name="g.alt" unicode="&#xe4c6;" horiz-adv-x="575" 
d="M275 62c72 0 114 23 151 61v279c-38 36 -80 56 -147 56c-90 0 -163 -66 -163 -206c0 -136 73 -190 159 -190zM264 -222c-74 0 -145 16 -187 42v78l4 2c43 -27 112 -46 173 -46c123 0 172 51 172 135v67c-39 -43 -91 -68 -158 -68c-141 0 -238 100 -238 264
c0 168 97 280 245 280c65 0 116 -25 155 -69l5 57h77v-525c0 -164 -112 -217 -248 -217z" />
    <glyph glyph-name="k.alt" unicode="&#xe4ca;" horiz-adv-x="485" 
d="M66 0v734l86 23v-757h-86zM480 0h-101l-221 272l205 248h91v-5l-198 -237l224 -273v-5z" />
    <glyph glyph-name="k.alt1" unicode="&#xe4ea;" horiz-adv-x="507" 
d="M301 460c-64 0 -107 -29 -149 -66v-394h-86v734l86 23v-303c40 44 92 78 164 78c103 0 154 -57 154 -137c0 -92 -65 -148 -163 -186l181 -203v-6h-96l-192 211v17c98 33 184 82 184 161c0 51 -37 71 -83 71z" />
    <glyph glyph-name="l.alt" unicode="&#xe4cb;" horiz-adv-x="256" 
d="M178 -2c-68 0 -112 29 -112 116v620l86 23v-640c0 -32 16 -45 40 -45c18 0 29 3 41 7l3 -2v-67c-14 -7 -36 -12 -58 -12z" />
    <glyph glyph-name="t.alt" unicode="&#xe4d3;" horiz-adv-x="337" 
d="M306 448h-109v-448h-86v448h-82v72h82v109l86 14v-123h109v-72z" />
    <glyph glyph-name="y.alt" unicode="&#xe4d8;" horiz-adv-x="494" 
d="M204 -210h-92v5l95 233l-200 487v5h93l153 -394l149 394h85v-5z" />
    <glyph glyph-name="y.alt1" unicode="&#xe4f8;" horiz-adv-x="551" 
d="M264 -222c-74 0 -138 16 -180 42v78l4 2c43 -27 105 -46 166 -46c109 0 147 51 147 135v59c-43 -33 -98 -60 -167 -60c-107 0 -174 59 -174 167v365h86v-347c0 -91 53 -113 109 -113s102 15 146 45v415h86v-525c0 -164 -101 -217 -223 -217z" />
    <glyph glyph-name="Jcircumflex.alt" horiz-adv-x="378" 
d="M115 -6c-40 0 -71 7 -101 22v73l4 2c20 -11 52 -19 85 -19c75 0 114 31 114 125v508h90v-513c0 -154 -95 -198 -192 -198zM265 851l-81 -88h-85l122 156h86l122 -156h-85z" />
    <glyph glyph-name="Kcommaaccent.alt" horiz-adv-x="596" 
d="M81 0v705h90v-705h-90zM584 0h-103l-291 366l269 339h97v-5l-264 -328l292 -367v-5zM262 -213l9 155h95v-8l-34 -147h-70z" />
    <glyph glyph-name="Wacute.alt" horiz-adv-x="914" 
d="M652 -13l-195 525l-196 -525h-20l-227 713v5h93l153 -499l188 505h23l189 -505l151 499h89v-5l-228 -713h-20zM497 763h-83l88 145h109z" />
    <glyph glyph-name="Wcircumflex.alt" horiz-adv-x="914" 
d="M652 -13l-195 525l-196 -525h-20l-227 713v5h93l153 -499l188 505h23l189 -505l151 499h89v-5l-228 -713h-20zM458 851l-81 -88h-85l122 156h86l122 -156h-85z" />
    <glyph glyph-name="Wdieresis.alt" horiz-adv-x="914" 
d="M652 -13l-195 525l-196 -525h-20l-227 713v5h93l153 -499l188 505h23l189 -505l151 499h89v-5l-228 -713h-20zM515 770v91h92v-91h-92zM307 770v91h92v-91h-92z" />
    <glyph glyph-name="Wgrave.alt" horiz-adv-x="914" 
d="M652 -13l-195 525l-196 -525h-20l-227 713v5h93l153 -499l188 505h23l189 -505l151 499h89v-5l-228 -713h-20zM421 763l-114 145h109l88 -145h-83z" />
    <glyph glyph-name="aacute.alt" horiz-adv-x="572" 
d="M440 0l-10 66c-39 -49 -91 -78 -164 -78c-134 0 -236 101 -236 265c0 168 102 279 243 279c65 0 114 -25 152 -69l7 57h74v-520h-66zM273 62c72 0 111 23 147 61v279c-37 36 -76 56 -143 56c-83 0 -161 -65 -161 -205c0 -136 78 -191 157 -191zM317 610h-83l98 165h109z
" />
    <glyph glyph-name="abreve.alt" horiz-adv-x="572" 
d="M440 0l-10 66c-39 -49 -91 -78 -164 -78c-134 0 -236 101 -236 265c0 168 102 279 243 279c65 0 114 -25 152 -69l7 57h74v-520h-66zM273 62c72 0 111 23 147 61v279c-37 36 -76 56 -143 56c-83 0 -161 -65 -161 -205c0 -136 78 -191 157 -191zM287 618
c-81 0 -141 58 -146 143h70c8 -48 34 -71 76 -71s67 24 75 71h70c-5 -85 -64 -143 -145 -143z" />
    <glyph glyph-name="acircumflex.alt" horiz-adv-x="572" 
d="M440 0l-10 66c-39 -49 -91 -78 -164 -78c-134 0 -236 101 -236 265c0 168 102 279 243 279c65 0 114 -25 152 -69l7 57h74v-520h-66zM273 62c72 0 111 23 147 61v279c-37 36 -76 56 -143 56c-83 0 -161 -65 -161 -205c0 -136 78 -191 157 -191zM285 701l-75 -91h-82
l115 156h86l115 -156h-82z" />
    <glyph glyph-name="adieresis.alt" horiz-adv-x="572" 
d="M440 0l-10 66c-39 -49 -91 -78 -164 -78c-134 0 -236 101 -236 265c0 168 102 279 243 279c65 0 114 -25 152 -69l7 57h74v-520h-66zM273 62c72 0 111 23 147 61v279c-37 36 -76 56 -143 56c-83 0 -161 -65 -161 -205c0 -136 78 -191 157 -191zM150 639v91h92v-91h-92z
M330 639v91h92v-91h-92z" />
    <glyph glyph-name="agrave.alt" horiz-adv-x="572" 
d="M440 0l-10 66c-39 -49 -91 -78 -164 -78c-134 0 -236 101 -236 265c0 168 102 279 243 279c65 0 114 -25 152 -69l7 57h74v-520h-66zM273 62c72 0 111 23 147 61v279c-37 36 -76 56 -143 56c-83 0 -161 -65 -161 -205c0 -136 78 -191 157 -191zM260 610l-124 165h109
l98 -165h-83z" />
    <glyph glyph-name="amacron.alt" horiz-adv-x="572" 
d="M440 0l-10 66c-39 -49 -91 -78 -164 -78c-134 0 -236 101 -236 265c0 168 102 279 243 279c65 0 114 -25 152 -69l7 57h74v-520h-66zM273 62c72 0 111 23 147 61v279c-37 36 -76 56 -143 56c-83 0 -161 -65 -161 -205c0 -136 78 -191 157 -191zM140 651v73h292v-73h-292z
" />
    <glyph glyph-name="aogonek.alt" horiz-adv-x="572" 
d="M527 -206c-14 -8 -39 -16 -66 -16c-83 0 -125 38 -125 98c0 49 28 95 102 136l-8 54c-39 -49 -91 -78 -164 -78c-134 0 -236 101 -236 265c0 168 102 279 243 279c65 0 114 -25 152 -69l7 57h74v-520c-57 -32 -85 -76 -85 -107c0 -26 10 -43 50 -43c19 0 36 4 53 12l3 -2
v-66zM273 62c72 0 111 23 147 61v279c-37 36 -76 56 -143 56c-83 0 -161 -65 -161 -205c0 -136 78 -191 157 -191z" />
    <glyph glyph-name="aring.alt" horiz-adv-x="572" 
d="M440 0l-10 66c-39 -49 -91 -78 -164 -78c-134 0 -236 101 -236 265c0 168 102 279 243 279c65 0 114 -25 152 -69l7 57h74v-520h-66zM273 62c72 0 111 23 147 61v279c-37 36 -76 56 -143 56c-83 0 -161 -65 -161 -205c0 -136 78 -191 157 -191zM286 591
c-67 0 -113 45 -113 109s46 109 113 109s113 -45 113 -109s-46 -109 -113 -109zM286 755c-32 0 -51 -24 -51 -55s19 -55 51 -55c33 0 52 24 52 55s-19 55 -52 55z" />
    <glyph glyph-name="aringacute.alt" horiz-adv-x="572" 
d="M440 0l-10 66c-39 -49 -91 -78 -164 -78c-134 0 -236 101 -236 265c0 168 102 279 243 279c65 0 114 -25 152 -69l7 57h74v-520h-66zM273 62c72 0 111 23 147 61v279c-37 36 -76 56 -143 56c-83 0 -161 -65 -161 -205c0 -136 78 -191 157 -191zM286 591
c-67 0 -113 45 -113 109s46 109 113 109s113 -45 113 -109s-46 -109 -113 -109zM328 833h-83l88 145h109zM286 755c-32 0 -51 -24 -51 -55s19 -55 51 -55c33 0 52 24 52 55s-19 55 -52 55z" />
    <glyph glyph-name="atilde.alt" horiz-adv-x="572" 
d="M440 0l-10 66c-39 -49 -91 -78 -164 -78c-134 0 -236 101 -236 265c0 168 102 279 243 279c65 0 114 -25 152 -69l7 57h74v-520h-66zM273 62c72 0 111 23 147 61v279c-37 36 -76 56 -143 56c-83 0 -161 -65 -161 -205c0 -136 78 -191 157 -191zM344 716c25 0 44 12 64 40
l5 -2l27 -56c-14 -26 -49 -57 -94 -57c-60 0 -81 27 -116 27c-31 0 -47 -11 -68 -39l-4 2l-25 60c18 27 55 52 95 52c56 0 75 -27 116 -27z" />
    <glyph glyph-name="gbreve.alt" horiz-adv-x="575" 
d="M275 62c72 0 114 23 151 61v279c-38 36 -80 56 -147 56c-90 0 -163 -66 -163 -206c0 -136 73 -190 159 -190zM264 -222c-74 0 -145 16 -187 42v78l4 2c43 -27 112 -46 173 -46c123 0 172 51 172 135v67c-39 -43 -91 -68 -158 -68c-141 0 -238 100 -238 264
c0 168 97 280 245 280c65 0 116 -25 155 -69l5 57h77v-525c0 -164 -112 -217 -248 -217zM286 618c-81 0 -141 58 -146 143h70c8 -48 34 -71 76 -71s67 24 75 71h70c-5 -85 -64 -143 -145 -143z" />
    <glyph glyph-name="gcircumflex.alt" horiz-adv-x="575" 
d="M275 62c72 0 114 23 151 61v279c-38 36 -80 56 -147 56c-90 0 -163 -66 -163 -206c0 -136 73 -190 159 -190zM264 -222c-74 0 -145 16 -187 42v78l4 2c43 -27 112 -46 173 -46c123 0 172 51 172 135v67c-39 -43 -91 -68 -158 -68c-141 0 -238 100 -238 264
c0 168 97 280 245 280c65 0 116 -25 155 -69l5 57h77v-525c0 -164 -112 -217 -248 -217zM284 701l-75 -91h-82l115 156h86l115 -156h-82z" />
    <glyph glyph-name="gcommaaccent.alt" horiz-adv-x="575" 
d="M275 62c72 0 114 23 151 61v279c-38 36 -80 56 -147 56c-90 0 -163 -66 -163 -206c0 -136 73 -190 159 -190zM264 -222c-74 0 -145 16 -187 42v78l4 2c43 -27 112 -46 173 -46c123 0 172 51 172 135v67c-39 -43 -91 -68 -158 -68c-141 0 -238 100 -238 264
c0 168 97 280 245 280c65 0 116 -25 155 -69l5 57h77v-525c0 -164 -112 -217 -248 -217zM334 765l-9 -155h-94l-2 3l35 152h70z" />
    <glyph glyph-name="gdotaccent.alt" horiz-adv-x="575" 
d="M275 62c72 0 114 23 151 61v279c-38 36 -80 56 -147 56c-90 0 -163 -66 -163 -206c0 -136 73 -190 159 -190zM264 -222c-74 0 -145 16 -187 42v78l4 2c43 -27 112 -46 173 -46c123 0 172 51 172 135v67c-39 -43 -91 -68 -158 -68c-141 0 -238 100 -238 264
c0 168 97 280 245 280c65 0 116 -25 155 -69l5 57h77v-525c0 -164 -112 -217 -248 -217zM237 637v95h96v-95h-96z" />
    <glyph glyph-name="germandbls.alt" horiz-adv-x="553" 
d="M210 9v75l2 2c20 -10 50 -23 100 -23c65 0 128 52 128 140c0 110 -74 163 -188 197v56c82 21 134 59 134 134c0 58 -45 97 -110 97c-73 0 -124 -46 -124 -143v-544h-86v548c0 146 103 211 210 211c113 0 196 -63 196 -168c0 -87 -59 -135 -129 -156
c82 -28 183 -88 183 -232c0 -134 -86 -215 -202 -215c-54 0 -91 11 -114 21z" />
    <glyph glyph-name="kcommaaccent.alt" horiz-adv-x="485" 
d="M66 0v734l86 23v-757h-86zM480 0h-101l-221 272l205 248h91v-5l-198 -237l224 -273v-5zM208 -213l9 155h95v-8l-34 -147h-70z" />
    <glyph glyph-name="kcommaaccent.alt1" horiz-adv-x="507" 
d="M301 460c-64 0 -107 -29 -149 -66v-394h-86v734l86 23v-303c40 44 92 78 164 78c103 0 154 -57 154 -137c0 -92 -65 -148 -163 -186l181 -203v-6h-96l-192 211v17c98 33 184 82 184 161c0 51 -37 71 -83 71zM207 -213l9 155h95v-8l-34 -147h-70z" />
    <glyph glyph-name="lacute.alt" horiz-adv-x="256" 
d="M178 -2c-68 0 -112 29 -112 116v620l86 23v-640c0 -32 16 -45 40 -45c18 0 29 3 41 7l3 -2v-67c-14 -7 -36 -12 -58 -12zM150 791h-83l88 145h109z" />
    <glyph glyph-name="lcaron.alt" horiz-adv-x="256" 
d="M178 -2c-68 0 -112 29 -112 116v620l86 23v-640c0 -32 16 -45 40 -45c18 0 29 3 41 7l3 -2v-67c-14 -7 -36 -12 -58 -12zM204 581l7 162h86v-8l-32 -154h-61z" />
    <glyph glyph-name="lcommaaccent.alt" horiz-adv-x="256" 
d="M178 -2c-68 0 -112 29 -112 116v620l86 23v-640c0 -32 16 -45 40 -45c18 0 29 3 41 7l3 -2v-67c-14 -7 -36 -12 -58 -12zM97 -213l9 155h95v-8l-34 -147h-70z" />
    <glyph glyph-name="ldot.alt" horiz-adv-x="288" 
d="M178 -2c-68 0 -112 29 -112 116v620l86 23v-640c0 -32 16 -45 40 -45c18 0 29 3 41 7l3 -2v-67c-14 -7 -36 -12 -58 -12zM215 326v93h97v-93h-97z" />
    <glyph glyph-name="lslash.alt" horiz-adv-x="274" 
d="M190 -2c-68 0 -112 29 -112 116v229l-68 -40v78l68 40v313l86 23v-285l82 49v-78l-82 -49v-277c0 -32 16 -45 40 -45c18 0 29 3 41 7l3 -2v-67c-14 -7 -36 -12 -58 -12z" />
    <glyph glyph-name="tbar.alt" horiz-adv-x="337" 
d="M306 277h-109v-277h-86v277h-82v63h82v108h-82v72h82v109l86 14v-123h109v-72h-109v-108h109v-63z" />
    <glyph glyph-name="tcaron.alt" horiz-adv-x="337" 
d="M306 448h-109v-448h-86v448h-82v72h82v109l86 14v-123h109v-72zM246 581l7 162h86v-8l-32 -154h-61z" />
    <glyph glyph-name="tcommaaccent.alt" horiz-adv-x="337" 
d="M306 448h-109v-448h-86v448h-82v72h82v109l86 14v-123h109v-72zM98 -213l9 155h95v-8l-34 -147h-70z" />
    <glyph glyph-name="yacute.alt" horiz-adv-x="494" 
d="M204 -210h-92v5l95 233l-200 487v5h93l153 -394l149 394h85v-5zM283 610h-83l98 165h109z" />
    <glyph glyph-name="yacute.alt1" horiz-adv-x="551" 
d="M264 -222c-74 0 -138 16 -180 42v78l4 2c43 -27 105 -46 166 -46c109 0 147 51 147 135v59c-43 -33 -98 -60 -167 -60c-107 0 -174 59 -174 167v365h86v-347c0 -91 53 -113 109 -113s102 15 146 45v415h86v-525c0 -164 -101 -217 -223 -217zM306 610h-83l98 165h109z" />
    <glyph glyph-name="ycircumflex.alt" horiz-adv-x="494" 
d="M204 -210h-92v5l95 233l-200 487v5h93l153 -394l149 394h85v-5zM251 701l-75 -91h-82l115 156h86l115 -156h-82z" />
    <glyph glyph-name="ycircumflex.alt1" horiz-adv-x="551" 
d="M264 -222c-74 0 -138 16 -180 42v78l4 2c43 -27 105 -46 166 -46c109 0 147 51 147 135v59c-43 -33 -98 -60 -167 -60c-107 0 -174 59 -174 167v365h86v-347c0 -91 53 -113 109 -113s102 15 146 45v415h86v-525c0 -164 -101 -217 -223 -217zM274 701l-75 -91h-82l115 156
h86l115 -156h-82z" />
    <glyph glyph-name="ydieresis.alt" horiz-adv-x="494" 
d="M204 -210h-92v5l95 233l-200 487v5h93l153 -394l149 394h85v-5zM116 639v91h92v-91h-92zM296 639v91h92v-91h-92z" />
    <glyph glyph-name="ydieresis.alt1" horiz-adv-x="551" 
d="M264 -222c-74 0 -138 16 -180 42v78l4 2c43 -27 105 -46 166 -46c109 0 147 51 147 135v59c-43 -33 -98 -60 -167 -60c-107 0 -174 59 -174 167v365h86v-347c0 -91 53 -113 109 -113s102 15 146 45v415h86v-525c0 -164 -101 -217 -223 -217zM139 639v91h92v-91h-92z
M319 639v91h92v-91h-92z" />
    <glyph glyph-name="ygrave.alt" horiz-adv-x="494" 
d="M204 -210h-92v5l95 233l-200 487v5h93l153 -394l149 394h85v-5zM226 610l-124 165h109l98 -165h-83z" />
    <glyph glyph-name="ygrave.alt1" horiz-adv-x="551" 
d="M264 -222c-74 0 -138 16 -180 42v78l4 2c43 -27 105 -46 166 -46c109 0 147 51 147 135v59c-43 -33 -98 -60 -167 -60c-107 0 -174 59 -174 167v365h86v-347c0 -91 53 -113 109 -113s102 15 146 45v415h86v-525c0 -164 -101 -217 -223 -217zM249 610l-124 165h109
l98 -165h-83z" />
    <glyph glyph-name="space_uni0326.alt" horiz-adv-x="400" 
d="M244 765l-9 -155h-94l-2 3l35 152h70z" />
    <glyph glyph-name="ordfeminine.alt" horiz-adv-x="495" 
d="M236 303c59 0 90 18 120 51v228c-30 31 -62 47 -117 47c-69 0 -134 -55 -134 -170c0 -112 65 -156 131 -156zM373 245l-9 57c-33 -42 -77 -67 -139 -67c-113 0 -201 84 -201 224c0 143 88 238 207 238c55 0 97 -21 129 -59l6 49h72v-442h-65z" />
    <glyph glyph-name="asterisk.alt" horiz-adv-x="381" 
d="M268 397l-78 123l-78 -123l-56 44l91 104l-122 35l24 67l114 -54l-8 133h72l-9 -134l115 55l23 -67l-123 -35l91 -104z" />
    <glyph glyph-name="registered.alt" horiz-adv-x="792" 
d="M36 352c0 213 157 365 360 365s360 -152 360 -365c0 -211 -157 -364 -360 -364s-360 153 -360 364zM698 352c0 180 -127 315 -302 315c-173 0 -302 -135 -302 -315c0 -177 129 -314 302 -314c175 0 302 137 302 314zM396 488h-58v-115h58c47 0 67 21 67 59
c0 39 -20 56 -67 56zM481 162l-96 152h-47v-152h-75v387h132c94 0 143 -37 143 -118c0 -60 -31 -92 -80 -105l99 -158v-6h-76z" />
    <glyph glyph-name="caron.alt" horiz-adv-x="400" 
d="M169 581l7 162h86v-8l-32 -154h-61z" />
    <glyph glyph-name="breve_acute.uc" horiz-adv-x="400" 
d="M230 901h-77l65 105h103zM54 894c5 -85 65 -143 146 -143s140 58 145 143h-70c-8 -47 -33 -71 -75 -71s-68 23 -76 71h-70z" />
    <glyph glyph-name="breve_grave.uc" horiz-adv-x="400" 
d="M170 901l-91 105h103l65 -105h-77zM200 751c-81 0 -141 58 -146 143h70c8 -48 34 -71 76 -71s67 24 75 71h70c-5 -85 -64 -143 -145 -143z" />
    <glyph glyph-name="breve_hook.uc" horiz-adv-x="400" 
d="M116 1036c12 7 40 18 84 18c69 0 112 -24 112 -72c0 -61 -85 -68 -85 -84v-2h-70v4c0 49 78 52 78 78c0 13 -15 18 -48 18c-30 0 -52 -7 -68 -15l-3 1v54zM54 894c5 -85 65 -143 146 -143s140 58 145 143h-70c-8 -47 -33 -71 -75 -71s-68 23 -76 71h-70z" />
    <glyph glyph-name="breve_tilde.uc" horiz-adv-x="400" 
d="M260 990c25 0 46 12 66 40l5 -2l27 -56c-14 -26 -51 -57 -97 -57c-59 0 -90 30 -125 30c-31 0 -50 -11 -71 -39l-4 2l-25 60c18 27 58 52 100 52c54 0 83 -30 124 -30zM200 751c-81 0 -141 58 -146 129h70c8 -34 34 -57 76 -57s67 24 75 57h70c-5 -71 -64 -129 -145 -129
z" />
    <glyph glyph-name="circumflex_acute.uc" horiz-adv-x="400" 
d="M389 872h-77l65 115h103zM201 851l-81 -88h-85l122 156h86l122 -156h-85z" />
    <glyph glyph-name="circumflex_grave.uc" horiz-adv-x="400" 
d="M349 872l-91 115h103l65 -115h-77zM201 851l-81 -88h-85l122 156h86l122 -156h-85z" />
    <glyph glyph-name="circumflex_hook.uc" horiz-adv-x="400" 
d="M290 1002c11 9 37 20 79 20c65 0 102 -24 102 -76c0 -62 -74 -69 -74 -86v-2h-67v4c0 51 68 55 68 82c0 15 -10 21 -41 21c-29 0 -49 -7 -64 -16l-3 2v51zM201 851l-81 -88h-85l122 156h86l122 -156h-85z" />
    <glyph glyph-name="circumflex_tilde.uc" horiz-adv-x="400" 
d="M260 990c25 0 46 12 66 40l5 -2l27 -56c-14 -26 -51 -57 -97 -57c-59 0 -90 30 -125 30c-31 0 -50 -11 -71 -39l-4 2l-25 60c18 27 58 52 100 52c54 0 83 -30 124 -30zM201 819l-81 -56h-85l121 123h88l121 -123h-85z" />
    <glyph glyph-name="dollar.uc" horiz-adv-x="526" 
d="M127 536c0 -59 26 -93 107 -122l25 226c-91 0 -132 -43 -132 -104zM398 185c0 65 -26 84 -114 116l-27 -231c91 3 141 43 141 115zM234 -133h-63l15 128c-66 8 -112 28 -147 48v92l4 2c48 -33 91 -56 152 -64l28 250c-118 45 -183 99 -183 204c0 120 97 190 217 190h11
l10 86h63l-10 -91c46 -6 81 -20 113 -39v-85l-4 -2c-41 25 -75 42 -118 49l-28 -244c118 -41 193 -79 193 -200c0 -134 -101 -200 -239 -200z" />
    <glyph glyph-name="Euro.uc" horiz-adv-x="567" 
d="M546 40c-45 -28 -95 -52 -168 -52c-165 0 -272 102 -301 271h-67v61h60c-1 11 -1 23 -1 35s0 23 1 34h-60v61h67c28 169 134 267 291 267c68 0 118 -15 162 -41v-82l-4 -2c-57 35 -96 48 -154 48c-101 0 -175 -61 -198 -190h229v-61h-236c-1 -11 -1 -22 -1 -34
s0 -24 1 -35h236v-61h-230c22 -129 92 -193 205 -193c60 0 103 21 164 65l4 -2v-89z" />
    <glyph glyph-name="sterling.uc" horiz-adv-x="532" 
d="M509 76v-76h-501v38c76 60 93 108 108 193l12 69h-68v67h80l31 177c23 133 94 173 199 173c53 0 90 -8 129 -29v-79l-5 -2c-42 22 -78 33 -124 33c-57 0 -95 -28 -108 -102l-31 -171h168v-67h-180l-9 -47c-14 -76 -16 -124 -75 -177h374z" />
    <glyph glyph-name="yen.uc" horiz-adv-x="574" 
d="M506 144h-172v-144h-91v144h-169v61h169v70h-169v61h164l-214 364v5h98l166 -298l171 298h91v-5l-212 -364h168v-61h-172v-70h172v-61z" />
    <glyph glyph-name="zero.uc" horiz-adv-x="631" 
d="M317 -12c-168 0 -282 142 -282 367c0 226 114 362 282 362c167 0 279 -136 279 -362c0 -225 -112 -367 -279 -367zM317 66c109 0 182 96 182 289c0 194 -73 284 -182 284s-185 -90 -185 -284c0 -193 76 -289 185 -289z" />
    <glyph glyph-name="one.uc" horiz-adv-x="353" 
d="M257 0h-93v591l-140 -76l-4 2v81l205 112h32v-710z" />
    <glyph glyph-name="two.uc" horiz-adv-x="497" 
d="M15 0v31l248 280c64 72 97 139 97 213c0 63 -37 116 -133 116c-81 0 -122 -20 -181 -56l-5 3v82c49 28 98 48 189 48c127 0 221 -72 221 -193c0 -97 -52 -179 -132 -269l-159 -179h302v-76h-447z" />
    <glyph glyph-name="three.uc" horiz-adv-x="517" 
d="M242 -12c-107 0 -166 28 -213 55v88l4 2c63 -42 116 -66 206 -66c101 0 152 55 152 129s-46 132 -168 132h-78v79h70c115 0 150 59 150 121c0 74 -50 112 -137 112c-81 0 -116 -16 -176 -52l-5 2v82c49 29 96 45 184 45c124 0 224 -57 224 -188c0 -74 -46 -129 -114 -156
c86 -24 141 -79 141 -172c0 -133 -93 -213 -240 -213z" />
    <glyph glyph-name="four.uc" horiz-adv-x="543" 
d="M336 245v280l-215 -280h215zM537 172h-108v-172h-93v172h-333v37l383 501h43v-465h108v-73z" />
    <glyph glyph-name="five.uc" horiz-adv-x="494" 
d="M205 -12c-87 0 -150 25 -192 52v87l4 2c62 -42 112 -63 188 -63c112 0 161 60 161 147c0 88 -59 139 -162 139c-77 0 -118 -12 -147 -22l-5 2v373h373v-76h-293v-210c22 5 53 8 87 8c142 0 239 -84 239 -209c0 -139 -93 -230 -253 -230z" />
    <glyph glyph-name="six.uc" horiz-adv-x="563" 
d="M537 218c0 -117 -75 -230 -236 -230c-175 0 -264 128 -264 340c0 263 140 389 308 389c54 0 106 -10 145 -34v-87l-4 -2c-32 25 -80 45 -141 45c-112 0 -204 -79 -214 -275c41 39 101 71 180 71c128 0 226 -81 226 -217zM301 66c104 0 142 74 142 152
c0 92 -53 144 -150 144c-64 0 -117 -23 -163 -60c6 -151 60 -236 171 -236z" />
    <glyph glyph-name="seven.uc" horiz-adv-x="504" 
d="M200 0h-94c37 158 117 311 186 448l91 182h-364v75h474v-34l-120 -246c-70 -145 -145 -296 -173 -425z" />
    <glyph glyph-name="eight.uc" horiz-adv-x="547" 
d="M277 -12c-139 0 -249 77 -249 195c0 90 71 147 143 175c-72 35 -120 97 -120 173c0 115 98 186 217 186c132 0 229 -63 229 -189c0 -74 -59 -129 -122 -160c91 -36 143 -91 143 -183c0 -126 -94 -197 -241 -197zM291 396l9 -3c72 36 108 82 108 134
c0 70 -54 115 -140 115c-82 0 -131 -47 -131 -110c0 -50 40 -100 154 -136zM277 65c97 0 153 51 153 115c0 63 -39 104 -167 145l-19 6c-71 -28 -125 -67 -125 -141c0 -80 58 -125 158 -125z" />
    <glyph glyph-name="nine.uc" horiz-adv-x="563" 
d="M269 339c64 0 117 22 163 59c-4 155 -52 241 -166 241c-104 0 -147 -72 -147 -150c0 -95 47 -150 150 -150zM203 -12c-53 0 -105 10 -144 34v87l4 2c32 -25 81 -45 140 -45c124 0 218 61 228 270c-42 -39 -101 -70 -180 -70c-132 0 -226 79 -226 223
c0 117 79 228 241 228c176 0 259 -128 259 -340c0 -283 -140 -389 -322 -389z" />
    <glyph glyph-name="percent.uc" horiz-adv-x="839" 
d="M28 540c0 104 75 177 173 177c99 0 172 -73 172 -177c0 -108 -73 -178 -172 -178c-98 0 -173 70 -173 178zM144 0l477 705h79l-478 -705h-78zM201 428c59 0 95 48 95 112c0 62 -36 111 -95 111c-58 0 -96 -49 -96 -111c0 -64 38 -112 96 -112zM639 343
c99 0 172 -73 172 -177c0 -108 -73 -178 -172 -178c-98 0 -173 70 -173 178c0 104 75 177 173 177zM639 54c59 0 95 48 95 112c0 62 -36 111 -95 111s-96 -49 -96 -111c0 -64 37 -112 96 -112z" />
    <glyph glyph-name="perthousand.uc" horiz-adv-x="1233" 
d="M201 362c-98 0 -173 70 -173 178c0 104 75 177 173 177c99 0 172 -73 172 -177c0 -108 -73 -178 -172 -178zM144 0l473 705h79l-474 -705h-78zM201 428c59 0 95 48 95 112c0 62 -36 111 -95 111c-58 0 -96 -49 -96 -111c0 -64 38 -112 96 -112zM1032 -12
c-97 0 -173 70 -173 178c0 104 76 177 173 177c99 0 172 -73 172 -177c0 -108 -73 -178 -172 -178zM635 -12c-98 0 -173 70 -173 178c0 104 75 177 173 177c99 0 172 -73 172 -177c0 -108 -73 -178 -172 -178zM1032 54c59 0 95 48 95 112c0 62 -36 111 -95 111
c-58 0 -95 -49 -95 -111c0 -64 37 -112 95 -112zM635 54c59 0 95 48 95 112c0 62 -36 111 -95 111s-96 -49 -96 -111c0 -64 37 -112 96 -112z" />
    <glyph glyph-name="questiondown.uc" horiz-adv-x="443" 
d="M305 705v-93h-97v93h97zM402 34c-39 -28 -90 -46 -162 -46c-108 0 -193 59 -193 175c0 88 43 140 99 190c41 36 70 64 70 120v29h82v-29c0 -78 -27 -117 -94 -176c-44 -38 -70 -71 -70 -134c0 -55 34 -97 109 -97c63 0 105 18 155 53l4 -2v-83z" />
    <glyph glyph-name="exclamdown.uc" horiz-adv-x="215" 
d="M156 705v-93h-97v93h97zM140 502l12 -502h-90l12 502h66z" />
    <glyph glyph-name="hyphen.uc" horiz-adv-x="313" 
d="M40 302v81h233v-81h-233z" />
    <glyph glyph-name="endash.uc" horiz-adv-x="494" 
d="M35 305v76h424v-76h-424z" />
    <glyph glyph-name="emdash.uc" horiz-adv-x="914" 
d="M35 305v76h844v-76h-844z" />
    <glyph glyph-name="guilsinglleft.uc" horiz-adv-x="234" 
d="M123 104l-107 186l107 186h86l-104 -186l104 -186h-86z" />
    <glyph glyph-name="guilsinglright.uc" horiz-adv-x="234" 
d="M25 104l104 186l-104 186h86l107 -186l-107 -186h-86z" />
    <glyph glyph-name="guillemotleft.uc" horiz-adv-x="401" 
d="M290 104l-107 186l107 186h86l-104 -186l104 -186h-86zM123 104l-107 186l107 186h86l-104 -186l104 -186h-86z" />
    <glyph glyph-name="guillemotright.uc" horiz-adv-x="401" 
d="M192 104l104 186l-104 186h86l107 -186l-107 -186h-86zM25 104l104 186l-104 186h86l107 -186l-107 -186h-86z" />
    <glyph glyph-name="parenleft.uc" horiz-adv-x="311" 
d="M210 -100c-96 122 -166 275 -166 438s70 314 166 436h87c-86 -120 -163 -263 -163 -436s77 -318 163 -438h-87z" />
    <glyph glyph-name="parenright.uc" horiz-adv-x="311" 
d="M101 -100h-87c86 120 163 265 163 438s-77 316 -163 436h87c96 -122 166 -273 166 -436s-70 -316 -166 -438z" />
    <glyph glyph-name="bracketleft.uc" horiz-adv-x="344" 
d="M77 -100v874h232v-72h-145v-730h145v-72h-232z" />
    <glyph glyph-name="bracketright.uc" horiz-adv-x="344" 
d="M35 -100v72h145v730h-145v72h232v-874h-232z" />
    <glyph glyph-name="braceleft.uc" horiz-adv-x="354" 
d="M329 -100c-135 0 -246 45 -214 184l23 103c18 79 -15 113 -116 116v69c102 2 134 37 116 116l-23 103c-32 137 79 183 214 183v-68c-105 0 -151 -32 -127 -128l23 -95c19 -80 -4 -122 -93 -146c89 -23 112 -64 93 -145l-23 -96c-24 -96 22 -128 127 -128v-68z" />
    <glyph glyph-name="braceright.uc" horiz-adv-x="354" 
d="M25 -100v68c105 0 151 32 127 128l-23 95c-19 80 4 122 93 146c-89 23 -112 64 -93 145l23 96c24 96 -22 128 -127 128v68c135 0 246 -45 214 -184l-23 -103c-18 -79 15 -113 116 -116v-69c-102 -2 -134 -37 -116 -116l23 -103c32 -137 -79 -183 -214 -183z" />
    <glyph glyph-name="slash.uc" horiz-adv-x="406" 
d="M13 -100l286 874h82l-286 -874h-82z" />
    <glyph glyph-name="backslash.uc" horiz-adv-x="406" 
d="M20 774h82l286 -874h-82z" />
    <glyph glyph-name="bar.uc" horiz-adv-x="235" 
d="M79 -100v874h77v-874h-77z" />
    <glyph glyph-name="at.uc" horiz-adv-x="885" 
d="M451 -110c-261 0 -411 173 -411 388c0 263 183 436 423 436c237 0 382 -155 382 -377c0 -162 -92 -250 -189 -250c-62 0 -108 23 -125 70c-37 -46 -82 -70 -138 -70c-110 0 -168 84 -168 183c0 138 90 245 217 245c49 0 87 -21 116 -55l5 38h87l-34 -260
c-9 -72 14 -90 54 -90c41 0 105 49 105 189c0 201 -121 317 -314 317c-184 0 -351 -135 -351 -381c0 -180 124 -323 344 -323c93 0 146 16 198 45l3 -2v-59c-55 -30 -123 -44 -204 -44zM406 161c46 0 85 14 119 47c0 6 0 11 1 16l23 170c-31 35 -59 48 -106 48
c-78 0 -132 -69 -132 -172c0 -75 42 -109 95 -109z" />
    <glyph glyph-name="grave.uc" horiz-adv-x="400" 
d="M165 763l-114 145h109l88 -145h-83z" />
    <glyph glyph-name="dieresis.uc" horiz-adv-x="400" 
d="M258 770v91h92v-91h-92zM50 770v91h92v-91h-92z" />
    <glyph glyph-name="macron.uc" horiz-adv-x="797" 
d="M246 769v73h298v-73h-298z" />
    <glyph glyph-name="acute.uc" horiz-adv-x="400" 
d="M235 763h-83l88 145h109z" />
    <glyph glyph-name="circumflex.uc" horiz-adv-x="400" 
d="M201 851l-81 -88h-85l122 156h86l122 -156h-85z" />
    <glyph glyph-name="caron.uc" horiz-adv-x="400" 
d="M201 831l79 88h85l-122 -156h-86l-122 156h85z" />
    <glyph glyph-name="breve.uc" horiz-adv-x="400" 
d="M200 751c-81 0 -141 58 -146 143h70c8 -48 34 -71 76 -71s67 24 75 71h70c-5 -85 -64 -143 -145 -143z" />
    <glyph glyph-name="dotaccent.uc" horiz-adv-x="400" 
d="M152 770v95h96v-95h-96z" />
    <glyph glyph-name="ring.uc" horiz-adv-x="400" 
d="M200 746c-67 0 -113 45 -113 109s46 109 113 109s113 -45 113 -109s-46 -109 -113 -109zM200 910c-32 0 -51 -24 -51 -55s19 -55 51 -55c33 0 52 24 52 55s-19 55 -52 55z" />
    <glyph glyph-name="tilde.uc" horiz-adv-x="400" 
d="M257 838c25 0 46 12 66 40l5 -2l27 -56c-14 -26 -51 -57 -97 -57c-59 0 -90 30 -125 30c-31 0 -50 -11 -71 -39l-4 2l-25 60c18 27 58 52 100 52c54 0 83 -30 124 -30z" />
    <glyph glyph-name="hungarumlaut.uc" horiz-adv-x="400" 
d="M138 763h-69l52 145h100c-2 0 -83 -145 -83 -145zM304 763h-69l52 145h100c-5 0 -83 -145 -83 -145z" />
    <glyph glyph-name="A.flat" 
d="M434 264l-120 317l-121 -317h241zM535 0l-71 186h-300l-71 -186h-88v5l273 700h76l273 -700v-5h-92z" />
    <glyph glyph-name="Aacute.flat" 
d="M434 264l-120 317l-121 -317h241zM535 0l-71 186h-300l-71 -186h-88v5l273 700h76l273 -700v-5h-92zM356 763h-83l88 145h109z" />
    <glyph glyph-name="Abreve.flat" 
d="M434 264l-120 317l-121 -317h241zM535 0l-71 186h-300l-71 -186h-88v5l273 700h76l273 -700v-5h-92zM317 751c-81 0 -141 58 -146 143h70c8 -48 34 -71 76 -71s67 24 75 71h70c-5 -85 -64 -143 -145 -143z" />
    <glyph glyph-name="Acircumflex.flat" 
d="M434 264l-120 317l-121 -317h241zM535 0l-71 186h-300l-71 -186h-88v5l273 700h76l273 -700v-5h-92zM317 851l-81 -88h-85l122 156h86l122 -156h-85z" />
    <glyph glyph-name="Adieresis.flat" 
d="M434 264l-120 317l-121 -317h241zM535 0l-71 186h-300l-71 -186h-88v5l273 700h76l273 -700v-5h-92zM374 770v91h92v-91h-92zM166 770v91h92v-91h-92z" />
    <glyph glyph-name="Agrave.flat" 
d="M434 264l-120 317l-121 -317h241zM535 0l-71 186h-300l-71 -186h-88v5l273 700h76l273 -700v-5h-92zM280 763l-114 145h109l88 -145h-83z" />
    <glyph glyph-name="Amacron.flat" 
d="M434 264l-120 317l-121 -317h241zM535 0l-71 186h-300l-71 -186h-88v5l273 700h76l273 -700v-5h-92zM167 769v73h298v-73h-298z" />
    <glyph glyph-name="Aogonek.flat" 
d="M582 -222c-83 0 -125 38 -125 98c0 47 18 88 78 125l-71 185h-300l-71 -186h-88v5l273 700h76l273 -700v-5c-57 -32 -85 -76 -85 -107c0 -26 10 -43 50 -43c19 0 36 4 53 12l3 -2v-66c-14 -8 -39 -16 -66 -16zM434 264l-120 317l-121 -317h241z" />
    <glyph glyph-name="Aring.flat" 
d="M434 264l-120 317l-121 -317h241zM535 0l-71 186h-300l-71 -186h-88v5l273 700h76l273 -700v-5h-92zM316 746c-67 0 -113 45 -113 109s46 109 113 109s113 -45 113 -109s-46 -109 -113 -109zM316 910c-32 0 -51 -24 -51 -55s19 -55 51 -55c33 0 52 24 52 55
s-19 55 -52 55z" />
    <glyph glyph-name="Aringacute.flat" 
d="M434 264l-120 317l-121 -317h241zM535 0l-71 186h-300l-71 -186h-88v5l273 700h76l273 -700v-5h-92zM316 726c-67 0 -113 45 -113 109s46 109 113 109s113 -45 113 -109s-46 -109 -113 -109zM316 890c-32 0 -51 -24 -51 -55s19 -55 51 -55c33 0 52 24 52 55
s-19 55 -52 55zM356 963h-83l88 145h109z" />
    <glyph glyph-name="Atilde.flat" 
d="M434 264l-120 317l-121 -317h241zM535 0l-71 186h-300l-71 -186h-88v5l273 700h76l273 -700v-5h-92zM379 838c25 0 46 12 66 40l5 -2l27 -56c-14 -26 -51 -57 -97 -57c-59 0 -90 30 -125 30c-31 0 -50 -11 -71 -39l-4 2l-25 60c18 27 58 52 100 52c54 0 83 -30 124 -30z
" />
    <glyph glyph-name="Eng.flat" horiz-adv-x="736" 
d="M450 -174v79c68 16 101 40 110 107l-395 544v-556h-84v705h81l407 -561v561h84v-650c0 -160 -70 -208 -203 -229z" />
    <glyph glyph-name="M.flat" horiz-adv-x="833" 
d="M379 0l-214 579v-579h-84v705h120l213 -571l220 571h118v-705h-90v573l-221 -573h-62z" />
    <glyph glyph-name="M.flatalt" horiz-adv-x="853" 
d="M387 0l-199 506l-40 -506h-87l60 705h74l228 -578l227 578h72l70 -705h-90l-49 510l-200 -510h-66z" />
    <glyph glyph-name="N.flat" horiz-adv-x="734" 
d="M583 0l-418 559v-559h-84v705h81l407 -544v544h84v-705h-70z" />
    <glyph glyph-name="Nacute.flat" horiz-adv-x="734" 
d="M583 0l-418 559v-559h-84v705h81l407 -544v544h84v-705h-70zM417 763h-83l88 145h109z" />
    <glyph glyph-name="Ncaron.flat" horiz-adv-x="734" 
d="M583 0l-418 559v-559h-84v705h81l407 -544v544h84v-705h-70zM378 831l79 88h85l-122 -156h-86l-122 156h85z" />
    <glyph glyph-name="Ncommaaccent.flat" horiz-adv-x="734" 
d="M583 0l-418 559v-559h-84v705h81l407 -544v544h84v-705h-70zM305 -213l9 155h95v-8l-34 -147h-70z" />
    <glyph glyph-name="Ntilde.flat" horiz-adv-x="734" 
d="M583 0l-418 559v-559h-84v705h81l407 -544v544h84v-705h-70zM440 838c25 0 46 12 66 40l5 -2l27 -56c-14 -26 -51 -57 -97 -57c-59 0 -90 30 -125 30c-31 0 -50 -11 -71 -39l-4 2l-25 60c18 27 58 52 100 52c54 0 83 -30 124 -30z" />
    <glyph glyph-name="V.flat" horiz-adv-x="628" 
d="M351 0h-76l-261 700v5h93l209 -577l209 577h89v-5z" />
    <glyph glyph-name="W.flat" horiz-adv-x="905" 
d="M592 0l-130 405l-141 -405h-76l-231 700v5h93l180 -566l134 384l-58 177v5h89l181 -568l169 568h89v-5l-223 -700h-76z" />
    <glyph glyph-name="W.flatalt" horiz-adv-x="919" 
d="M622 0l-163 544l-164 -544h-80l-199 700v5h93l150 -564l171 564h63l172 -563l148 563h90v-5l-201 -700h-80z" />
    <glyph glyph-name="Wacute.flat" horiz-adv-x="905" 
d="M592 0l-130 405l-141 -405h-76l-231 700v5h93l180 -566l134 384l-58 177v5h89l181 -568l169 568h89v-5l-223 -700h-76zM464 763h-83l88 145h109z" />
    <glyph glyph-name="Wacute.flatalt" horiz-adv-x="919" 
d="M622 0l-163 544l-164 -544h-80l-199 700v5h93l150 -564l171 564h63l172 -563l148 563h90v-5l-201 -700h-80zM501 763h-83l88 145h109z" />
    <glyph glyph-name="Wcircumflex.flat" horiz-adv-x="905" 
d="M592 0l-130 405l-141 -405h-76l-231 700v5h93l180 -566l134 384l-58 177v5h89l181 -568l169 568h89v-5l-223 -700h-76zM425 851l-81 -88h-85l122 156h86l122 -156h-85z" />
    <glyph glyph-name="Wcircumflex.flatalt" horiz-adv-x="919" 
d="M622 0l-163 544l-164 -544h-80l-199 700v5h93l150 -564l171 564h63l172 -563l148 563h90v-5l-201 -700h-80zM462 851l-81 -88h-85l122 156h86l122 -156h-85z" />
    <glyph glyph-name="Wdieresis.flat" horiz-adv-x="905" 
d="M592 0l-130 405l-141 -405h-76l-231 700v5h93l180 -566l134 384l-58 177v5h89l181 -568l169 568h89v-5l-223 -700h-76zM482 770v91h92v-91h-92zM274 770v91h92v-91h-92z" />
    <glyph glyph-name="Wdieresis.flatalt" horiz-adv-x="919" 
d="M622 0l-163 544l-164 -544h-80l-199 700v5h93l150 -564l171 564h63l172 -563l148 563h90v-5l-201 -700h-80zM519 770v91h92v-91h-92zM311 770v91h92v-91h-92z" />
    <glyph glyph-name="Wgrave.flat" horiz-adv-x="905" 
d="M592 0l-130 405l-141 -405h-76l-231 700v5h93l180 -566l134 384l-58 177v5h89l181 -568l169 568h89v-5l-223 -700h-76zM388 763l-114 145h109l88 -145h-83z" />
    <glyph glyph-name="Wgrave.flatalt" horiz-adv-x="919" 
d="M622 0l-163 544l-164 -544h-80l-199 700v5h93l150 -564l171 564h63l172 -563l148 563h90v-5l-201 -700h-80zM425 763l-114 145h109l88 -145h-83z" />
    <glyph glyph-name="Z.flat" horiz-adv-x="581" 
d="M539 0h-505v73l399 554h-369v78h466v-86l-390 -541h399v-78z" />
    <glyph glyph-name="Zacute.flat" horiz-adv-x="581" 
d="M539 0h-505v73l399 554h-369v78h466v-86l-390 -541h399v-78zM337 763h-83l88 145h109z" />
    <glyph glyph-name="Zcaron.flat" horiz-adv-x="581" 
d="M539 0h-505v73l399 554h-369v78h466v-86l-390 -541h399v-78zM298 831l79 88h85l-122 -156h-86l-122 156h85z" />
    <glyph glyph-name="Zdotaccent.flat" horiz-adv-x="581" 
d="M539 0h-505v73l399 554h-369v78h466v-86l-390 -541h399v-78zM249 770v95h96v-95h-96z" />
    <glyph glyph-name="four.denflat" horiz-adv-x="311" 
d="M181 147v140l-97 -140h97zM305 91h-53v-91h-71v91h-171v43l169 244h73v-231h53v-56z" />
    <glyph glyph-name="four.flat" horiz-adv-x="524" 
d="M327 257v307l-210 -307h210zM519 184h-102v-184h-90v184h-311v53l312 453h89v-433h102v-73z" />
    <glyph glyph-name="four.numflat" horiz-adv-x="311" 
d="M181 460v140l-97 -140h97zM305 404h-53v-91h-71v91h-171v43l169 244h73v-231h53v-56z" />
    <glyph glyph-name="four.subflat" horiz-adv-x="311" 
d="M181 56v141l-98 -141h98zM305 0h-53v-90h-71v90h-171v44l169 244h73v-232h53v-56z" />
    <glyph glyph-name="four.supflat" horiz-adv-x="311" 
d="M181 519v141l-98 -141h98zM305 463h-53v-90h-71v90h-171v44l169 244h73v-232h53v-56z" />
    <glyph glyph-name="four.ucflat" horiz-adv-x="553" 
d="M346 262v318l-226 -318h226zM547 189h-108v-189h-93v189h-329v53l331 463h91v-443h108v-73z" />
    <glyph glyph-name="hook" horiz-adv-x="400" 
d="M116 786c12 8 40 19 84 19c69 0 112 -26 112 -83c0 -76 -88 -78 -88 -120v-4h-70v10c0 69 81 70 81 111c0 16 -15 25 -48 25c-30 0 -52 -8 -68 -17l-3 2v57z" />
    <glyph glyph-name="hook.uc" horiz-adv-x="400" 
d="M116 929c12 8 40 19 84 19c69 0 112 -26 112 -83c0 -78 -85 -72 -85 -105v-1h-70v7c0 60 78 59 78 96c0 16 -15 25 -48 25c-30 0 -52 -8 -68 -17l-3 2v57z" />
    <glyph glyph-name="one.denflat" horiz-adv-x="203" 
d="M156 0h-73v298l-70 -44l-2 1v66l92 57h53v-378z" />
    <glyph glyph-name="one.flat" horiz-adv-x="334" 
d="M241 0h-90v582l-128 -80l-4 2v81l168 105h54v-690z" />
    <glyph glyph-name="one.numflat" horiz-adv-x="203" 
d="M156 313h-73v298l-70 -44l-2 1v66l92 57h53v-378z" />
    <glyph glyph-name="one.subflat" horiz-adv-x="203" 
d="M156 -90h-73v298l-70 -44l-2 1v66l92 57h53v-378z" />
    <glyph glyph-name="one.supflat" horiz-adv-x="203" 
d="M156 373h-73v298l-70 -44l-2 1v66l92 57h53v-378z" />
    <glyph glyph-name="one.ucflat" horiz-adv-x="353" 
d="M257 0h-93v600l-140 -85l-4 2v81l177 107h60v-705z" />
    <glyph glyph-name="oneeighth.flat" horiz-adv-x="728" 
d="M156 313h-73v298l-70 -44l-2 1v66l92 57h53v-378zM41 0l514 690h76l-514 -690h-76zM577 -7c-83 0 -139 41 -139 104c0 44 32 75 71 89c-39 20 -61 53 -61 93c0 65 57 103 125 103c72 0 129 -30 129 -101c0 -38 -28 -66 -60 -81c45 -21 71 -50 71 -98
c0 -68 -52 -109 -136 -109zM589 218h2c27 16 42 36 42 59c0 33 -24 51 -58 51s-54 -20 -54 -47c0 -24 17 -45 68 -63zM576 48c41 0 63 22 63 51s-20 48 -78 67l-4 1c-27 -13 -48 -32 -48 -64c0 -35 24 -55 67 -55z" />
    <glyph glyph-name="onehalf.flat" horiz-adv-x="732" 
d="M156 313h-73v298l-70 -44l-2 1v66l92 57h53v-378zM475 0v43l109 124c30 36 47 66 47 100c0 30 -17 54 -60 54c-38 0 -60 -10 -89 -28l-3 2v61c25 16 55 26 104 26c74 0 124 -40 124 -109c0 -52 -29 -94 -69 -141l-67 -74h141v-58h-237zM51 0l514 690h76l-514 -690h-76z
" />
    <glyph glyph-name="onequarter.flat" horiz-adv-x="716" 
d="M156 313h-73v298l-70 -44l-2 1v66l92 57h53v-378zM586 147v140l-97 -140h97zM710 91h-53v-91h-71v91h-171v43l169 244h73v-231h53v-56zM51 0l514 690h76l-514 -690h-76z" />
    <glyph glyph-name="onethird.flat" horiz-adv-x="721" 
d="M156 313h-73v298l-70 -44l-2 1v66l92 57h53v-378zM41 0l514 690h76l-514 -690h-76zM572 -7c-59 0 -91 16 -114 29v62l3 2c31 -20 56 -32 102 -32c45 0 66 24 66 56s-18 56 -70 56h-41v56h36c49 0 63 24 63 52c0 31 -20 49 -61 49c-39 0 -58 -9 -87 -26l-3 2v59
c25 15 52 24 102 24c69 0 124 -32 124 -100c0 -42 -23 -70 -62 -83c48 -12 75 -43 75 -92c0 -71 -50 -114 -133 -114z" />
    <glyph glyph-name="seven.denflat" horiz-adv-x="277" 
d="M128 0h-77c17 84 57 164 96 239l38 75h-173v61h250v-50l-48 -98c-38 -78 -73 -158 -86 -227z" />
    <glyph glyph-name="seven.flat" horiz-adv-x="472" 
d="M188 0h-91c34 155 109 305 174 438l84 177h-337v75h430v-63l-98 -211c-67 -141 -136 -290 -162 -416z" />
    <glyph glyph-name="seven.numflat" horiz-adv-x="277" 
d="M128 313h-77c17 84 57 164 96 239l38 75h-173v61h250v-50l-48 -98c-38 -78 -73 -158 -86 -227z" />
    <glyph glyph-name="seven.subflat" horiz-adv-x="277" 
d="M128 -90h-77c17 84 57 164 96 239l38 75h-173v61h250v-50l-48 -98c-38 -78 -73 -158 -86 -227z" />
    <glyph glyph-name="seven.supflat" horiz-adv-x="277" 
d="M128 373h-77c17 84 57 164 96 239l38 75h-173v61h250v-50l-48 -98c-38 -78 -73 -158 -86 -227z" />
    <glyph glyph-name="seven.ucflat" horiz-adv-x="502" 
d="M200 0h-94c37 158 118 311 186 448l91 182h-364v75h458v-64l-104 -216c-70 -145 -145 -296 -173 -425z" />
    <glyph glyph-name="seveneighths.flat" horiz-adv-x="743" 
d="M128 313h-77c17 84 57 164 96 239l38 75h-173v61h250v-50l-48 -98c-38 -78 -73 -158 -86 -227zM57 0l514 690h76l-514 -690h-76zM592 -7c-83 0 -139 41 -139 104c0 44 32 75 71 89c-39 20 -61 53 -61 93c0 65 57 103 125 103c72 0 129 -30 129 -101
c0 -38 -28 -66 -60 -81c45 -21 71 -50 71 -98c0 -68 -52 -109 -136 -109zM604 218h2c27 16 42 36 42 59c0 33 -24 51 -58 51s-54 -20 -54 -47c0 -24 17 -45 68 -63zM591 48c41 0 63 22 63 51s-20 48 -78 67l-4 1c-27 -13 -48 -32 -48 -64c0 -35 24 -55 67 -55z" />
    <glyph glyph-name="sterling.flat" horiz-adv-x="495" 
d="M473 76v-76h-446v64c63 60 66 88 82 182l8 46h-61v67h72l29 170c21 129 89 168 187 168c49 0 83 -8 119 -28v-79l-4 -2c-40 22 -72 32 -115 32c-53 0 -87 -27 -99 -97l-28 -164h154v-67h-166l-8 -46c-14 -86 -22 -119 -77 -170h353z" />
    <glyph glyph-name="sterling.ucflat" horiz-adv-x="531" 
d="M508 76v-76h-480v64c68 62 73 92 91 189l8 47h-68v67h80l31 177c23 133 94 173 199 173c53 0 90 -8 129 -29v-79l-5 -2c-42 22 -78 33 -124 33c-57 0 -95 -28 -108 -102l-31 -171h168v-67h-180l-9 -47c-15 -88 -22 -124 -81 -177h380z" />
    <glyph glyph-name="threequarters.flat" horiz-adv-x="745" 
d="M615 147v140l-97 -140h97zM739 91h-53v-91h-71v91h-171v43l169 244h73v-231h53v-56zM80 0l514 690h76l-514 -690h-76zM130 306c-59 0 -91 16 -114 29v62l3 2c31 -20 56 -32 102 -32c45 0 66 24 66 56s-18 56 -70 56h-41v56h36c49 0 63 24 63 52c0 31 -20 49 -61 49
c-39 0 -58 -9 -87 -26l-3 2v59c25 15 52 24 102 24c69 0 124 -32 124 -100c0 -42 -23 -70 -62 -83c48 -12 75 -43 75 -92c0 -71 -50 -114 -133 -114z" />
    <glyph glyph-name="trademark.flat" horiz-adv-x="695" 
d="M264 625h-95v-266h-72v266h-95v63h262v-63zM455 359l-78 229v-229h-64v329h89l74 -219l73 219h89v-329h-67v228l-77 -228h-39z" />
    <glyph glyph-name="two.denflat" horiz-adv-x="273" 
d="M16 0v43l109 124c30 36 47 66 47 100c0 30 -17 54 -60 54c-38 0 -60 -10 -89 -28l-3 2v61c25 16 55 26 104 26c74 0 124 -40 124 -109c0 -52 -29 -94 -69 -141l-67 -74h141v-58h-237z" />
    <glyph glyph-name="two.flat" horiz-adv-x="462" 
d="M29 0v49l213 253c57 73 90 135 90 207c0 60 -33 111 -121 111c-75 0 -115 -18 -171 -53l-4 2v82c45 28 94 46 178 46c117 0 207 -70 207 -188c0 -94 -55 -175 -125 -265l-143 -168h275v-76h-399z" />
    <glyph glyph-name="two.numflat" horiz-adv-x="273" 
d="M16 313v43l109 124c30 36 47 66 47 100c0 30 -17 54 -60 54c-38 0 -60 -10 -89 -28l-3 2v61c25 16 55 26 104 26c74 0 124 -40 124 -109c0 -52 -29 -94 -69 -141l-67 -74h141v-58h-237z" />
    <glyph glyph-name="two.subflat" horiz-adv-x="273" 
d="M16 -90v43l109 124c30 36 47 66 47 100c0 30 -17 54 -60 54c-38 0 -60 -10 -89 -28l-3 2v61c25 16 55 26 104 26c74 0 124 -40 124 -109c0 -52 -29 -94 -69 -141l-67 -74h141v-58h-237z" />
    <glyph glyph-name="two.supflat" horiz-adv-x="273" 
d="M16 373v43l109 124c30 36 47 66 47 100c0 30 -17 54 -60 54c-38 0 -60 -10 -89 -28l-3 2v61c25 16 55 26 104 26c74 0 124 -40 124 -109c0 -52 -29 -94 -69 -141l-67 -74h141v-58h-237z" />
    <glyph glyph-name="two.ucflat" horiz-adv-x="495" 
d="M30 0v50l231 261c62 75 97 139 97 213c0 63 -37 116 -133 116c-81 0 -122 -20 -181 -56l-5 3v82c49 28 98 48 189 48c127 0 221 -72 221 -193c0 -97 -52 -179 -132 -269l-159 -179h302v-76h-430z" />
    <glyph glyph-name="twothirds.flat" horiz-adv-x="766" 
d="M16 313v43l109 124c30 36 47 66 47 100c0 30 -17 54 -60 54c-38 0 -60 -10 -89 -28l-3 2v61c25 16 55 26 104 26c74 0 124 -40 124 -109c0 -52 -29 -94 -69 -141l-67 -74h141v-58h-237zM617 -7c-59 0 -91 16 -114 29v62l3 2c31 -20 56 -32 102 -32c45 0 66 24 66 56
s-18 56 -70 56h-41v56h36c49 0 63 24 63 52c0 31 -20 49 -61 49c-39 0 -58 -9 -87 -26l-3 2v59c25 15 52 24 102 24c69 0 124 -32 124 -100c0 -42 -23 -70 -62 -83c48 -12 75 -43 75 -92c0 -71 -50 -114 -133 -114zM86 0l514 690h76l-514 -690h-76z" />
    <glyph glyph-name="underdot" horiz-adv-x="400" 
d="M152 -210v95h96v-95h-96z" />
    <glyph glyph-name="uni0192" unicode="&#x192;" horiz-adv-x="384" 
d="M341 314h-147l-65 -524h-86l65 524h-81v76h90l16 125c19 151 118 182 193 182c30 0 46 -4 61 -9v-68l-3 -3c-15 4 -30 8 -58 8c-42 0 -96 -22 -107 -110l-16 -125h138v-76z" />
    <glyph glyph-name="uni01A0" unicode="&#x1a0;" horiz-adv-x="786" 
d="M386 -12c-202 0 -350 160 -350 367s148 362 350 362c106 0 154 -43 222 -43c44 0 89 27 93 112h76c-3 -111 -59 -163 -142 -175c63 -58 100 -153 100 -256c0 -207 -147 -367 -349 -367zM386 66c153 0 255 114 255 289s-102 284 -255 284c-152 0 -256 -109 -256 -284
s104 -289 256 -289z" />
    <glyph glyph-name="uni01A1" unicode="&#x1a1;" horiz-adv-x="637" 
d="M295 -12c-151 0 -265 109 -265 273s114 271 265 271c70 0 91 -13 143 -12c64 1 104 26 108 116h70c-3 -116 -57 -165 -138 -178c53 -42 84 -112 84 -197c0 -164 -116 -273 -267 -273zM295 62c104 0 181 76 181 199c0 121 -77 197 -181 197s-179 -76 -179 -197
c0 -123 75 -199 179 -199z" />
    <glyph glyph-name="uni01AF" unicode="&#x1af;" horiz-adv-x="725" 
d="M340 -12c-156 0 -269 95 -269 270v447h90v-443c0 -129 70 -196 179 -196s184 67 184 196v443h49c73 0 110 29 115 116h76c-3 -114 -60 -171 -150 -182v-381c0 -175 -118 -270 -274 -270z" />
    <glyph glyph-name="uni01B0" unicode="&#x1b0;" horiz-adv-x="621" 
d="M410 0l-7 51c-44 -34 -98 -63 -169 -63c-107 0 -174 59 -174 167v365h86v-347c0 -91 53 -113 109 -113s100 15 144 45v415h50c72 0 106 29 111 116h70c-3 -114 -56 -171 -145 -182v-454h-75z" />
    <glyph glyph-name="uni0237" unicode="&#x237;" horiz-adv-x="218" 
d="M-17 -222v77c55 5 83 30 83 115v550h86v-555c0 -126 -60 -181 -169 -187z" />
    <glyph glyph-name="uni1EA0" unicode="&#x1ea0;" 
d="M424 264l-110 266l-110 -266h220zM534 0l-77 186h-285l-77 -186h-90v5l303 711h16l303 -711v-5h-93zM268 -210v95h96v-95h-96z" />
    <glyph glyph-name="uni1EA0.flat" 
d="M434 264l-120 317l-121 -317h241zM535 0l-71 186h-300l-71 -186h-88v5l273 700h76l273 -700v-5h-92zM268 -210v95h96v-95h-96z" />
    <glyph glyph-name="uni1EA1" unicode="&#x1ea1;" horiz-adv-x="504" 
d="M215 61c68 0 113 28 141 66v122l-95 -15c-105 -16 -145 -38 -145 -95c0 -47 33 -78 99 -78zM368 0l-7 60c-27 -37 -73 -72 -152 -72c-103 0 -180 53 -180 151c0 108 90 141 213 160l114 18v5c0 102 -43 134 -133 134c-60 0 -100 -11 -151 -39l-4 2v72c41 28 92 41 162 41
c131 0 212 -56 212 -202v-330h-74zM192 -210v95h96v-95h-96z" />
    <glyph glyph-name="uni1EA1.alt" horiz-adv-x="572" 
d="M440 0l-10 66c-39 -49 -91 -78 -164 -78c-134 0 -236 101 -236 265c0 168 102 279 243 279c65 0 114 -25 152 -69l7 57h74v-520h-66zM273 62c72 0 111 23 147 61v279c-37 36 -76 56 -143 56c-83 0 -161 -65 -161 -205c0 -136 78 -191 157 -191zM238 -210v95h96v-95h-96z
" />
    <glyph glyph-name="uni1EA2" unicode="&#x1ea2;" 
d="M424 264l-110 266l-110 -266h220zM534 0l-77 186h-285l-77 -186h-90v5l303 711h16l303 -711v-5h-93zM232 929c12 8 40 19 84 19c69 0 112 -26 112 -83c0 -78 -85 -72 -85 -105v-1h-70v7c0 60 78 59 78 96c0 16 -15 25 -48 25c-30 0 -52 -8 -68 -17l-3 2v57z" />
    <glyph glyph-name="uni1EA2.flat" 
d="M434 264l-120 317l-121 -317h241zM535 0l-71 186h-300l-71 -186h-88v5l273 700h76l273 -700v-5h-92zM232 929c12 8 40 19 84 19c69 0 112 -26 112 -83c0 -78 -85 -72 -85 -105v-1h-70v7c0 60 78 59 78 96c0 16 -15 25 -48 25c-30 0 -52 -8 -68 -17l-3 2v57z" />
    <glyph glyph-name="uni1EA3" unicode="&#x1ea3;" horiz-adv-x="504" 
d="M215 61c68 0 113 28 141 66v122l-95 -15c-105 -16 -145 -38 -145 -95c0 -47 33 -78 99 -78zM368 0l-7 60c-27 -37 -73 -72 -152 -72c-103 0 -180 53 -180 151c0 108 90 141 213 160l114 18v5c0 102 -43 134 -133 134c-60 0 -100 -11 -151 -39l-4 2v72c41 28 92 41 162 41
c131 0 212 -56 212 -202v-330h-74zM156 786c12 8 40 19 84 19c69 0 112 -26 112 -83c0 -76 -88 -78 -88 -120v-4h-70v10c0 69 81 70 81 111c0 16 -15 25 -48 25c-30 0 -52 -8 -68 -17l-3 2v57z" />
    <glyph glyph-name="uni1EA3.alt" horiz-adv-x="572" 
d="M440 0l-10 66c-39 -49 -91 -78 -164 -78c-134 0 -236 101 -236 265c0 168 102 279 243 279c65 0 114 -25 152 -69l7 57h74v-520h-66zM273 62c72 0 111 23 147 61v279c-37 36 -76 56 -143 56c-83 0 -161 -65 -161 -205c0 -136 78 -191 157 -191zM202 786c12 8 40 19 84 19
c69 0 112 -26 112 -83c0 -76 -88 -78 -88 -120v-4h-70v10c0 69 81 70 81 111c0 16 -15 25 -48 25c-30 0 -52 -8 -68 -17l-3 2v57z" />
    <glyph glyph-name="uni1EA4" unicode="&#x1ea4;" 
d="M424 264l-110 266l-110 -266h220zM534 0l-77 186h-285l-77 -186h-90v5l303 711h16l303 -711v-5h-93zM505 872h-77l65 115h103zM317 851l-81 -88h-85l122 156h86l122 -156h-85z" />
    <glyph glyph-name="uni1EA4.flat" 
d="M434 264l-120 317l-121 -317h241zM535 0l-71 186h-300l-71 -186h-88v5l273 700h76l273 -700v-5h-92zM505 872h-77l65 115h103zM317 851l-81 -88h-85l122 156h86l122 -156h-85z" />
    <glyph glyph-name="uni1EA5" unicode="&#x1ea5;" horiz-adv-x="504" 
d="M215 61c68 0 113 28 141 66v122l-95 -15c-105 -16 -145 -38 -145 -95c0 -47 33 -78 99 -78zM368 0l-7 60c-27 -37 -73 -72 -152 -72c-103 0 -180 53 -180 151c0 108 90 141 213 160l114 18v5c0 102 -43 134 -133 134c-60 0 -100 -11 -151 -39l-4 2v72c41 28 92 41 162 41
c131 0 212 -56 212 -202v-330h-74zM430 723h-77l65 115h103zM239 701l-75 -91h-82l115 156h86l115 -156h-82z" />
    <glyph glyph-name="uni1EA5.alt" horiz-adv-x="572" 
d="M440 0l-10 66c-39 -49 -91 -78 -164 -78c-134 0 -236 101 -236 265c0 168 102 279 243 279c65 0 114 -25 152 -69l7 57h74v-520h-66zM273 62c72 0 111 23 147 61v279c-37 36 -76 56 -143 56c-83 0 -161 -65 -161 -205c0 -136 78 -191 157 -191zM285 701l-75 -91h-82
l115 156h86l115 -156h-82zM476 723h-77l65 115h103z" />
    <glyph glyph-name="uni1EA6" unicode="&#x1ea6;" 
d="M424 264l-110 266l-110 -266h220zM534 0l-77 186h-285l-77 -186h-90v5l303 711h16l303 -711v-5h-93zM465 872l-91 115h103l65 -115h-77zM317 851l-81 -88h-85l122 156h86l122 -156h-85z" />
    <glyph glyph-name="uni1EA6.flat" 
d="M434 264l-120 317l-121 -317h241zM535 0l-71 186h-300l-71 -186h-88v5l273 700h76l273 -700v-5h-92zM465 872l-91 115h103l65 -115h-77zM317 851l-81 -88h-85l122 156h86l122 -156h-85z" />
    <glyph glyph-name="uni1EA7" unicode="&#x1ea7;" horiz-adv-x="504" 
d="M215 61c68 0 113 28 141 66v122l-95 -15c-105 -16 -145 -38 -145 -95c0 -47 33 -78 99 -78zM368 0l-7 60c-27 -37 -73 -72 -152 -72c-103 0 -180 53 -180 151c0 108 90 141 213 160l114 18v5c0 102 -43 134 -133 134c-60 0 -100 -11 -151 -39l-4 2v72c41 28 92 41 162 41
c131 0 212 -56 212 -202v-330h-74zM389 723l-91 115h103l65 -115h-77zM239 701l-75 -91h-82l115 156h86l115 -156h-82z" />
    <glyph glyph-name="uni1EA7.alt" horiz-adv-x="572" 
d="M440 0l-10 66c-39 -49 -91 -78 -164 -78c-134 0 -236 101 -236 265c0 168 102 279 243 279c65 0 114 -25 152 -69l7 57h74v-520h-66zM273 62c72 0 111 23 147 61v279c-37 36 -76 56 -143 56c-83 0 -161 -65 -161 -205c0 -136 78 -191 157 -191zM285 701l-75 -91h-82
l115 156h86l115 -156h-82zM435 723l-91 115h103l65 -115h-77z" />
    <glyph glyph-name="uni1EA8" unicode="&#x1ea8;" 
d="M424 264l-110 266l-110 -266h220zM534 0l-77 186h-285l-77 -186h-90v5l303 711h16l303 -711v-5h-93zM406 1002c11 9 37 20 79 20c65 0 102 -24 102 -76c0 -62 -74 -69 -74 -86v-2h-67v4c0 51 68 55 68 82c0 15 -10 21 -41 21c-29 0 -49 -7 -64 -16l-3 2v51zM317 851
l-81 -88h-85l122 156h86l122 -156h-85z" />
    <glyph glyph-name="uni1EA8.flat" 
d="M434 264l-120 317l-121 -317h241zM535 0l-71 186h-300l-71 -186h-88v5l273 700h76l273 -700v-5h-92zM406 1002c11 9 37 20 79 20c65 0 102 -24 102 -76c0 -62 -74 -69 -74 -86v-2h-67v4c0 51 68 55 68 82c0 15 -10 21 -41 21c-29 0 -49 -7 -64 -16l-3 2v51zM317 851
l-81 -88h-85l122 156h86l122 -156h-85z" />
    <glyph glyph-name="uni1EA9" unicode="&#x1ea9;" horiz-adv-x="504" 
d="M215 61c68 0 113 28 141 66v122l-95 -15c-105 -16 -145 -38 -145 -95c0 -47 33 -78 99 -78zM368 0l-7 60c-27 -37 -73 -72 -152 -72c-103 0 -180 53 -180 151c0 108 90 141 213 160l114 18v5c0 102 -43 134 -133 134c-60 0 -100 -11 -151 -39l-4 2v72c41 28 92 41 162 41
c131 0 212 -56 212 -202v-330h-74zM328 855c11 9 37 20 79 20c65 0 102 -24 102 -76c0 -62 -74 -69 -74 -86v-2h-67v4c0 51 68 55 68 82c0 15 -10 21 -41 21c-29 0 -49 -7 -64 -16l-3 2v51zM239 701l-75 -91h-82l115 156h86l115 -156h-82z" />
    <glyph glyph-name="uni1EA9.alt" horiz-adv-x="572" 
d="M440 0l-10 66c-39 -49 -91 -78 -164 -78c-134 0 -236 101 -236 265c0 168 102 279 243 279c65 0 114 -25 152 -69l7 57h74v-520h-66zM273 62c72 0 111 23 147 61v279c-37 36 -76 56 -143 56c-83 0 -161 -65 -161 -205c0 -136 78 -191 157 -191zM285 701l-75 -91h-82
l115 156h86l115 -156h-82zM374 855c11 9 37 20 79 20c65 0 102 -24 102 -76c0 -62 -74 -69 -74 -86v-2h-67v4c0 51 68 55 68 82c0 15 -10 21 -41 21c-29 0 -49 -7 -64 -16l-3 2v51z" />
    <glyph glyph-name="uni1EAA" unicode="&#x1eaa;" 
d="M424 264l-110 266l-110 -266h220zM534 0l-77 186h-285l-77 -186h-90v5l303 711h16l303 -711v-5h-93zM376 990c25 0 46 12 66 40l5 -2l27 -56c-14 -26 -51 -57 -97 -57c-59 0 -90 30 -125 30c-31 0 -50 -11 -71 -39l-4 2l-25 60c18 27 58 52 100 52c54 0 83 -30 124 -30z
M317 819l-81 -56h-85l121 123h88l121 -123h-85z" />
    <glyph glyph-name="uni1EAA.flat" 
d="M434 264l-120 317l-121 -317h241zM535 0l-71 186h-300l-71 -186h-88v5l273 700h76l273 -700v-5h-92zM376 990c25 0 46 12 66 40l5 -2l27 -56c-14 -26 -51 -57 -97 -57c-59 0 -90 30 -125 30c-31 0 -50 -11 -71 -39l-4 2l-25 60c18 27 58 52 100 52c54 0 83 -30 124 -30z
M317 819l-81 -56h-85l121 123h88l121 -123h-85z" />
    <glyph glyph-name="uni1EAB" unicode="&#x1eab;" horiz-adv-x="504" 
d="M215 61c68 0 113 28 141 66v122l-95 -15c-105 -16 -145 -38 -145 -95c0 -47 33 -78 99 -78zM368 0l-7 60c-27 -37 -73 -72 -152 -72c-103 0 -180 53 -180 151c0 108 90 141 213 160l114 18v5c0 102 -43 134 -133 134c-60 0 -100 -11 -151 -39l-4 2v72c41 28 92 41 162 41
c131 0 212 -56 212 -202v-330h-74zM298 884c24 0 40 12 59 40l5 -2l25 -56c-13 -26 -44 -57 -87 -57c-52 0 -82 27 -110 27c-30 0 -43 -11 -63 -39l-4 2l-23 60c17 27 50 52 88 52c48 0 76 -27 110 -27zM239 701l-75 -91h-82l115 156h86l115 -156h-82z" />
    <glyph glyph-name="uni1EAB.alt" horiz-adv-x="572" 
d="M440 0l-10 66c-39 -49 -91 -78 -164 -78c-134 0 -236 101 -236 265c0 168 102 279 243 279c65 0 114 -25 152 -69l7 57h74v-520h-66zM273 62c72 0 111 23 147 61v279c-37 36 -76 56 -143 56c-83 0 -161 -65 -161 -205c0 -136 78 -191 157 -191zM285 701l-75 -91h-82
l115 156h86l115 -156h-82zM344 884c24 0 40 12 59 40l5 -2l25 -56c-13 -26 -44 -57 -87 -57c-52 0 -82 27 -110 27c-30 0 -43 -11 -63 -39l-4 2l-23 60c17 27 50 52 88 52c48 0 76 -27 110 -27z" />
    <glyph glyph-name="uni1EAC" unicode="&#x1eac;" 
d="M424 264l-110 266l-110 -266h220zM534 0l-77 186h-285l-77 -186h-90v5l303 711h16l303 -711v-5h-93zM317 851l-81 -88h-85l122 156h86l122 -156h-85zM268 -210v95h96v-95h-96z" />
    <glyph glyph-name="uni1EAC.flat" 
d="M434 264l-120 317l-121 -317h241zM535 0l-71 186h-300l-71 -186h-88v5l273 700h76l273 -700v-5h-92zM317 851l-81 -88h-85l122 156h86l122 -156h-85zM268 -210v95h96v-95h-96z" />
    <glyph glyph-name="uni1EAD" unicode="&#x1ead;" horiz-adv-x="504" 
d="M368 0l-7 60c-27 -37 -73 -72 -152 -72c-103 0 -180 53 -180 151c0 108 90 141 213 160l114 18v5c0 102 -43 134 -133 134c-60 0 -100 -11 -151 -39l-4 2v72c41 28 92 41 162 41c131 0 212 -56 212 -202v-330h-74zM215 61c68 0 113 28 141 66v122l-95 -15
c-105 -16 -145 -38 -145 -95c0 -47 33 -78 99 -78zM239 701l-75 -91h-82l115 156h86l115 -156h-82zM192 -210v95h96v-95h-96z" />
    <glyph glyph-name="uni1EAD.alt" horiz-adv-x="572" 
d="M440 0l-10 66c-39 -49 -91 -78 -164 -78c-134 0 -236 101 -236 265c0 168 102 279 243 279c65 0 114 -25 152 -69l7 57h74v-520h-66zM273 62c72 0 111 23 147 61v279c-37 36 -76 56 -143 56c-83 0 -161 -65 -161 -205c0 -136 78 -191 157 -191zM285 701l-75 -91h-82
l115 156h86l115 -156h-82z" />
    <glyph glyph-name="uni1EAE" unicode="&#x1eae;" 
d="M424 264l-110 266l-110 -266h220zM534 0l-77 186h-285l-77 -186h-90v5l303 711h16l303 -711v-5h-93zM346 901h-77l65 105h103zM170 894c5 -85 65 -143 146 -143s140 58 145 143h-70c-8 -47 -33 -71 -75 -71s-68 23 -76 71h-70z" />
    <glyph glyph-name="uni1EAE.flat" 
d="M434 264l-120 317l-121 -317h241zM535 0l-71 186h-300l-71 -186h-88v5l273 700h76l273 -700v-5h-92zM346 901h-77l65 105h103zM170 894c5 -85 65 -143 146 -143s140 58 145 143h-70c-8 -47 -33 -71 -75 -71s-68 23 -76 71h-70z" />
    <glyph glyph-name="uni1EAF" unicode="&#x1eaf;" horiz-adv-x="504" 
d="M215 61c68 0 113 28 141 66v122l-95 -15c-105 -16 -145 -38 -145 -95c0 -47 33 -78 99 -78zM368 0l-7 60c-27 -37 -73 -72 -152 -72c-103 0 -180 53 -180 151c0 108 90 141 213 160l114 18v5c0 102 -43 134 -133 134c-60 0 -100 -11 -151 -39l-4 2v72c41 28 92 41 162 41
c131 0 212 -56 212 -202v-330h-74zM270 781h-77l65 115h103zM240 618c-81 0 -141 58 -146 143h70c8 -48 34 -71 76 -71s67 24 75 71h70c-5 -85 -64 -143 -145 -143z" />
    <glyph glyph-name="uni1EAF.alt" horiz-adv-x="572" 
d="M440 0l-10 66c-39 -49 -91 -78 -164 -78c-134 0 -236 101 -236 265c0 168 102 279 243 279c65 0 114 -25 152 -69l7 57h74v-520h-66zM273 62c72 0 111 23 147 61v279c-37 36 -76 56 -143 56c-83 0 -161 -65 -161 -205c0 -136 78 -191 157 -191zM286 618
c-81 0 -141 58 -146 143h70c8 -48 34 -71 76 -71s67 24 75 71h70c-5 -85 -64 -143 -145 -143zM316 781h-77l65 115h103z" />
    <glyph glyph-name="uni1EB0" unicode="&#x1eb0;" 
d="M424 264l-110 266l-110 -266h220zM534 0l-77 186h-285l-77 -186h-90v5l303 711h16l303 -711v-5h-93zM286 901l-91 105h103l65 -105h-77zM316 751c-81 0 -141 58 -146 143h70c8 -48 34 -71 76 -71s67 24 75 71h70c-5 -85 -64 -143 -145 -143z" />
    <glyph glyph-name="uni1EB0.flat" 
d="M434 264l-120 317l-121 -317h241zM535 0l-71 186h-300l-71 -186h-88v5l273 700h76l273 -700v-5h-92zM286 901l-91 105h103l65 -105h-77zM316 751c-81 0 -141 58 -146 143h70c8 -48 34 -71 76 -71s67 24 75 71h70c-5 -85 -64 -143 -145 -143z" />
    <glyph glyph-name="uni1EB1" unicode="&#x1eb1;" horiz-adv-x="504" 
d="M215 61c68 0 113 28 141 66v122l-95 -15c-105 -16 -145 -38 -145 -95c0 -47 33 -78 99 -78zM368 0l-7 60c-27 -37 -73 -72 -152 -72c-103 0 -180 53 -180 151c0 108 90 141 213 160l114 18v5c0 102 -43 134 -133 134c-60 0 -100 -11 -151 -39l-4 2v72c41 28 92 41 162 41
c131 0 212 -56 212 -202v-330h-74zM210 781l-91 115h103l65 -115h-77zM240 618c-81 0 -141 58 -146 143h70c8 -48 34 -71 76 -71s67 24 75 71h70c-5 -85 -64 -143 -145 -143z" />
    <glyph glyph-name="uni1EB1.alt" horiz-adv-x="572" 
d="M440 0l-10 66c-39 -49 -91 -78 -164 -78c-134 0 -236 101 -236 265c0 168 102 279 243 279c65 0 114 -25 152 -69l7 57h74v-520h-66zM273 62c72 0 111 23 147 61v279c-37 36 -76 56 -143 56c-83 0 -161 -65 -161 -205c0 -136 78 -191 157 -191zM286 618
c-81 0 -141 58 -146 143h70c8 -48 34 -71 76 -71s67 24 75 71h70c-5 -85 -64 -143 -145 -143zM256 781l-91 115h103l65 -115h-77z" />
    <glyph glyph-name="uni1EB2" unicode="&#x1eb2;" 
d="M424 264l-110 266l-110 -266h220zM534 0l-77 186h-285l-77 -186h-90v5l303 711h16l303 -711v-5h-93zM232 1036c12 7 40 18 84 18c69 0 112 -24 112 -72c0 -61 -85 -68 -85 -84v-2h-70v4c0 49 78 52 78 78c0 13 -15 18 -48 18c-30 0 -52 -7 -68 -15l-3 1v54zM170 894
c5 -85 65 -143 146 -143s140 58 145 143h-70c-8 -47 -33 -71 -75 -71s-68 23 -76 71h-70z" />
    <glyph glyph-name="uni1EB2.flat" 
d="M434 264l-120 317l-121 -317h241zM535 0l-71 186h-300l-71 -186h-88v5l273 700h76l273 -700v-5h-92zM232 1036c12 7 40 18 84 18c69 0 112 -24 112 -72c0 -61 -85 -68 -85 -84v-2h-70v4c0 49 78 52 78 78c0 13 -15 18 -48 18c-30 0 -52 -7 -68 -15l-3 1v54zM170 894
c5 -85 65 -143 146 -143s140 58 145 143h-70c-8 -47 -33 -71 -75 -71s-68 23 -76 71h-70z" />
    <glyph glyph-name="uni1EB3" unicode="&#x1eb3;" horiz-adv-x="504" 
d="M215 61c68 0 113 28 141 66v122l-95 -15c-105 -16 -145 -38 -145 -95c0 -47 33 -78 99 -78zM368 0l-7 60c-27 -37 -73 -72 -152 -72c-103 0 -180 53 -180 151c0 108 90 141 213 160l114 18v5c0 102 -43 134 -133 134c-60 0 -100 -11 -151 -39l-4 2v72c41 28 92 41 162 41
c131 0 212 -56 212 -202v-330h-74zM156 915c12 7 40 18 84 18c69 0 112 -24 112 -72c0 -61 -85 -68 -85 -84v-2h-70v4c0 49 78 52 78 78c0 13 -15 18 -48 18c-30 0 -52 -7 -68 -15l-3 1v54zM240 618c-81 0 -141 58 -146 143h70c8 -48 34 -71 76 -71s67 24 75 71h70
c-5 -85 -64 -143 -145 -143z" />
    <glyph glyph-name="uni1EB3.alt" horiz-adv-x="572" 
d="M440 0l-10 66c-39 -49 -91 -78 -164 -78c-134 0 -236 101 -236 265c0 168 102 279 243 279c65 0 114 -25 152 -69l7 57h74v-520h-66zM273 62c72 0 111 23 147 61v279c-37 36 -76 56 -143 56c-83 0 -161 -65 -161 -205c0 -136 78 -191 157 -191zM286 618
c-81 0 -141 58 -146 143h70c8 -48 34 -71 76 -71s67 24 75 71h70c-5 -85 -64 -143 -145 -143zM202 915c12 7 40 18 84 18c69 0 112 -24 112 -72c0 -61 -85 -68 -85 -84v-2h-70v4c0 49 78 52 78 78c0 13 -15 18 -48 18c-30 0 -52 -7 -68 -15l-3 1v54z" />
    <glyph glyph-name="uni1EB4" unicode="&#x1eb4;" 
d="M424 264l-110 266l-110 -266h220zM534 0l-77 186h-285l-77 -186h-90v5l303 711h16l303 -711v-5h-93zM376 990c25 0 46 12 66 40l5 -2l27 -56c-14 -26 -51 -57 -97 -57c-59 0 -90 30 -125 30c-31 0 -50 -11 -71 -39l-4 2l-25 60c18 27 58 52 100 52c54 0 83 -30 124 -30z
M316 751c-81 0 -141 58 -146 129h70c8 -34 34 -57 76 -57s67 24 75 57h70c-5 -71 -64 -129 -145 -129z" />
    <glyph glyph-name="uni1EB4.flat" 
d="M434 264l-120 317l-121 -317h241zM535 0l-71 186h-300l-71 -186h-88v5l273 700h76l273 -700v-5h-92zM376 990c25 0 46 12 66 40l5 -2l27 -56c-14 -26 -51 -57 -97 -57c-59 0 -90 30 -125 30c-31 0 -50 -11 -71 -39l-4 2l-25 60c18 27 58 52 100 52c54 0 83 -30 124 -30z
M316 751c-81 0 -141 58 -146 129h70c8 -34 34 -57 76 -57s67 24 75 57h70c-5 -71 -64 -129 -145 -129z" />
    <glyph glyph-name="uni1EB5" unicode="&#x1eb5;" horiz-adv-x="504" 
d="M215 61c68 0 113 28 141 66v122l-95 -15c-105 -16 -145 -38 -145 -95c0 -47 33 -78 99 -78zM368 0l-7 60c-27 -37 -73 -72 -152 -72c-103 0 -180 53 -180 151c0 108 90 141 213 160l114 18v5c0 102 -43 134 -133 134c-60 0 -100 -11 -151 -39l-4 2v72c41 28 92 41 162 41
c131 0 212 -56 212 -202v-330h-74zM296 884c24 0 40 12 59 40l5 -2l25 -56c-13 -26 -44 -57 -87 -57c-52 0 -82 27 -110 27c-30 0 -43 -11 -63 -39l-4 2l-23 60c17 27 50 52 88 52c48 0 76 -27 110 -27zM240 618c-81 0 -141 58 -146 143h70c8 -48 34 -71 76 -71s67 24 75 71
h70c-5 -85 -64 -143 -145 -143z" />
    <glyph glyph-name="uni1EB5.alt" horiz-adv-x="572" 
d="M440 0l-10 66c-39 -49 -91 -78 -164 -78c-134 0 -236 101 -236 265c0 168 102 279 243 279c65 0 114 -25 152 -69l7 57h74v-520h-66zM273 62c72 0 111 23 147 61v279c-37 36 -76 56 -143 56c-83 0 -161 -65 -161 -205c0 -136 78 -191 157 -191zM286 618
c-81 0 -141 58 -146 143h70c8 -48 34 -71 76 -71s67 24 75 71h70c-5 -85 -64 -143 -145 -143zM342 884c24 0 40 12 59 40l5 -2l25 -56c-13 -26 -44 -57 -87 -57c-52 0 -82 27 -110 27c-30 0 -43 -11 -63 -39l-4 2l-23 60c17 27 50 52 88 52c48 0 76 -27 110 -27z" />
    <glyph glyph-name="uni1EB6" unicode="&#x1eb6;" 
d="M424 264l-110 266l-110 -266h220zM534 0l-77 186h-285l-77 -186h-90v5l303 711h16l303 -711v-5h-93zM317 751c-81 0 -141 58 -146 143h70c8 -48 34 -71 76 -71s67 24 75 71h70c-5 -85 -64 -143 -145 -143zM269 -210v95h96v-95h-96z" />
    <glyph glyph-name="uni1EB6.flat" 
d="M434 264l-120 317l-121 -317h241zM535 0l-71 186h-300l-71 -186h-88v5l273 700h76l273 -700v-5h-92zM317 751c-81 0 -141 58 -146 143h70c8 -48 34 -71 76 -71s67 24 75 71h70c-5 -85 -64 -143 -145 -143zM269 -210v95h96v-95h-96z" />
    <glyph glyph-name="uni1EB7" unicode="&#x1eb7;" horiz-adv-x="504" 
d="M368 0l-7 60c-27 -37 -73 -72 -152 -72c-103 0 -180 53 -180 151c0 108 90 141 213 160l114 18v5c0 102 -43 134 -133 134c-60 0 -100 -11 -151 -39l-4 2v72c41 28 92 41 162 41c131 0 212 -56 212 -202v-330h-74zM215 61c68 0 113 28 141 66v122l-95 -15
c-105 -16 -145 -38 -145 -95c0 -47 33 -78 99 -78zM246 618c-81 0 -141 58 -146 143h70c8 -48 34 -71 76 -71s67 24 75 71h70c-5 -85 -64 -143 -145 -143zM198 -210v95h96v-95h-96z" />
    <glyph glyph-name="uni1EB7.alt" horiz-adv-x="572" 
d="M440 0l-10 66c-39 -49 -91 -78 -164 -78c-134 0 -236 101 -236 265c0 168 102 279 243 279c65 0 114 -25 152 -69l7 57h74v-520h-66zM273 62c72 0 111 23 147 61v279c-37 36 -76 56 -143 56c-83 0 -161 -65 -161 -205c0 -136 78 -191 157 -191zM287 618
c-81 0 -141 58 -146 143h70c8 -48 34 -71 76 -71s67 24 75 71h70c-5 -85 -64 -143 -145 -143zM238 -210v95h96v-95h-96z" />
    <glyph glyph-name="uni1EB8" unicode="&#x1eb8;" horiz-adv-x="510" 
d="M81 0v705h374v-78h-284v-223h247v-77h-247v-249h284v-78h-374zM224 -210v95h96v-95h-96z" />
    <glyph glyph-name="uni1EB9" unicode="&#x1eb9;" horiz-adv-x="524" 
d="M276 457c-83 0 -138 -47 -155 -133h283c-4 83 -48 133 -128 133zM478 33c-32 -20 -94 -45 -176 -45c-165 0 -272 103 -272 273c0 163 103 271 248 271c126 0 230 -79 214 -276h-377c2 -128 75 -193 190 -193c71 0 127 24 169 52l4 -2v-80zM221 -210v95h96v-95h-96z" />
    <glyph glyph-name="uni1EBA" unicode="&#x1eba;" horiz-adv-x="510" 
d="M81 0v705h374v-78h-284v-223h247v-77h-247v-249h284v-78h-374zM188 929c12 8 40 19 84 19c69 0 112 -26 112 -83c0 -78 -85 -72 -85 -105v-1h-70v7c0 60 78 59 78 96c0 16 -15 25 -48 25c-30 0 -52 -8 -68 -17l-3 2v57z" />
    <glyph glyph-name="uni1EBB" unicode="&#x1ebb;" horiz-adv-x="524" 
d="M276 457c-83 0 -138 -47 -155 -133h283c-4 83 -48 133 -128 133zM478 33c-32 -20 -94 -45 -176 -45c-165 0 -272 103 -272 273c0 163 103 271 248 271c126 0 230 -79 214 -276h-377c2 -128 75 -193 190 -193c71 0 127 24 169 52l4 -2v-80zM185 786c12 8 40 19 84 19
c69 0 112 -26 112 -83c0 -76 -88 -78 -88 -120v-4h-70v10c0 69 81 70 81 111c0 16 -15 25 -48 25c-30 0 -52 -8 -68 -17l-3 2v57z" />
    <glyph glyph-name="uni1EBC" unicode="&#x1ebc;" horiz-adv-x="510" 
d="M81 0v705h374v-78h-284v-223h247v-77h-247v-249h284v-78h-374zM329 838c25 0 46 12 66 40l5 -2l27 -56c-14 -26 -51 -57 -97 -57c-59 0 -90 30 -125 30c-31 0 -50 -11 -71 -39l-4 2l-25 60c18 27 58 52 100 52c54 0 83 -30 124 -30z" />
    <glyph glyph-name="uni1EBD" unicode="&#x1ebd;" horiz-adv-x="524" 
d="M276 457c-83 0 -138 -47 -155 -133h283c-4 83 -48 133 -128 133zM478 33c-32 -20 -94 -45 -176 -45c-165 0 -272 103 -272 273c0 163 103 271 248 271c126 0 230 -79 214 -276h-377c2 -128 75 -193 190 -193c71 0 127 24 169 52l4 -2v-80zM316 716c25 0 44 12 64 40l5 -2
l27 -56c-14 -26 -49 -57 -94 -57c-60 0 -81 27 -116 27c-31 0 -47 -11 -68 -39l-4 2l-25 60c18 27 55 52 95 52c56 0 75 -27 116 -27z" />
    <glyph glyph-name="uni1EBE" unicode="&#x1ebe;" horiz-adv-x="510" 
d="M81 0v705h374v-78h-284v-223h247v-77h-247v-249h284v-78h-374zM461 872h-77l65 115h103zM273 851l-81 -88h-85l122 156h86l122 -156h-85z" />
    <glyph glyph-name="uni1EBF" unicode="&#x1ebf;" horiz-adv-x="524" 
d="M276 457c-83 0 -138 -47 -155 -133h283c-4 83 -48 133 -128 133zM478 33c-32 -20 -94 -45 -176 -45c-165 0 -272 103 -272 273c0 163 103 271 248 271c126 0 230 -79 214 -276h-377c2 -128 75 -193 190 -193c71 0 127 24 169 52l4 -2v-80zM459 723h-77l65 115h103z
M268 701l-75 -91h-82l115 156h86l115 -156h-82z" />
    <glyph glyph-name="uni1EC0" unicode="&#x1ec0;" horiz-adv-x="510" 
d="M81 0v705h374v-78h-284v-223h247v-77h-247v-249h284v-78h-374zM421 872l-91 115h103l65 -115h-77zM273 851l-81 -88h-85l122 156h86l122 -156h-85z" />
    <glyph glyph-name="uni1EC1" unicode="&#x1ec1;" horiz-adv-x="524" 
d="M276 457c-83 0 -138 -47 -155 -133h283c-4 83 -48 133 -128 133zM478 33c-32 -20 -94 -45 -176 -45c-165 0 -272 103 -272 273c0 163 103 271 248 271c126 0 230 -79 214 -276h-377c2 -128 75 -193 190 -193c71 0 127 24 169 52l4 -2v-80zM418 723l-91 115h103l65 -115
h-77zM268 701l-75 -91h-82l115 156h86l115 -156h-82z" />
    <glyph glyph-name="uni1EC2" unicode="&#x1ec2;" horiz-adv-x="510" 
d="M81 0v705h374v-78h-284v-223h247v-77h-247v-249h284v-78h-374zM362 1002c11 9 37 20 79 20c65 0 102 -24 102 -76c0 -62 -74 -69 -74 -86v-2h-67v4c0 51 68 55 68 82c0 15 -10 21 -41 21c-29 0 -49 -7 -64 -16l-3 2v51zM273 851l-81 -88h-85l122 156h86l122 -156h-85z
" />
    <glyph glyph-name="uni1EC3" unicode="&#x1ec3;" horiz-adv-x="524" 
d="M276 457c-83 0 -138 -47 -155 -133h283c-4 83 -48 133 -128 133zM478 33c-32 -20 -94 -45 -176 -45c-165 0 -272 103 -272 273c0 163 103 271 248 271c126 0 230 -79 214 -276h-377c2 -128 75 -193 190 -193c71 0 127 24 169 52l4 -2v-80zM357 855c11 9 37 20 79 20
c65 0 102 -24 102 -76c0 -62 -74 -69 -74 -86v-2h-67v4c0 51 68 55 68 82c0 15 -10 21 -41 21c-29 0 -49 -7 -64 -16l-3 2v51zM268 701l-75 -91h-82l115 156h86l115 -156h-82z" />
    <glyph glyph-name="uni1EC4" unicode="&#x1ec4;" horiz-adv-x="510" 
d="M81 0v705h374v-78h-284v-223h247v-77h-247v-249h284v-78h-374zM332 990c25 0 46 12 66 40l5 -2l27 -56c-14 -26 -51 -57 -97 -57c-59 0 -90 30 -125 30c-31 0 -50 -11 -71 -39l-4 2l-25 60c18 27 58 52 100 52c54 0 83 -30 124 -30zM273 819l-81 -56h-85l121 123h88
l121 -123h-85z" />
    <glyph glyph-name="uni1EC5" unicode="&#x1ec5;" horiz-adv-x="524" 
d="M276 457c-83 0 -138 -47 -155 -133h283c-4 83 -48 133 -128 133zM478 33c-32 -20 -94 -45 -176 -45c-165 0 -272 103 -272 273c0 163 103 271 248 271c126 0 230 -79 214 -276h-377c2 -128 75 -193 190 -193c71 0 127 24 169 52l4 -2v-80zM327 884c24 0 40 12 59 40l5 -2
l25 -56c-13 -26 -44 -57 -87 -57c-52 0 -82 27 -110 27c-30 0 -43 -11 -63 -39l-4 2l-23 60c17 27 50 52 88 52c48 0 76 -27 110 -27zM268 701l-75 -91h-82l115 156h86l115 -156h-82z" />
    <glyph glyph-name="uni1EC6" unicode="&#x1ec6;" horiz-adv-x="510" 
d="M81 0v705h374v-78h-284v-223h247v-77h-247v-249h284v-78h-374zM273 851l-81 -88h-85l122 156h86l122 -156h-85zM224 -210v95h96v-95h-96z" />
    <glyph glyph-name="uni1EC7" unicode="&#x1ec7;" horiz-adv-x="524" 
d="M276 457c-83 0 -138 -47 -155 -133h283c-4 83 -48 133 -128 133zM478 33c-32 -20 -94 -45 -176 -45c-165 0 -272 103 -272 273c0 163 103 271 248 271c126 0 230 -79 214 -276h-377c2 -128 75 -193 190 -193c71 0 127 24 169 52l4 -2v-80zM268 701l-75 -91h-82l115 156
h86l115 -156h-82zM221 -210v95h96v-95h-96z" />
    <glyph glyph-name="uni1EC8" unicode="&#x1ec8;" horiz-adv-x="256" 
d="M83 0v705h90v-705h-90zM44 929c12 8 40 19 84 19c69 0 112 -26 112 -83c0 -78 -85 -72 -85 -105v-1h-70v7c0 60 78 59 78 96c0 16 -15 25 -48 25c-30 0 -52 -8 -68 -17l-3 2v57z" />
    <glyph glyph-name="uni1EC9" unicode="&#x1ec9;" horiz-adv-x="226" 
d="M70 0v520h86v-520h-86zM29 786c12 8 40 19 84 19c69 0 112 -26 112 -83c0 -76 -88 -78 -88 -120v-4h-70v10c0 69 81 70 81 111c0 16 -15 25 -48 25c-30 0 -52 -8 -68 -17l-3 2v57z" />
    <glyph glyph-name="uni1ECA" unicode="&#x1eca;" horiz-adv-x="256" 
d="M83 0v705h90v-705h-90zM81 -210v95h96v-95h-96z" />
    <glyph glyph-name="uni1ECB" unicode="&#x1ecb;" horiz-adv-x="226" 
d="M67 639v91h92v-91h-92zM70 0v520h86v-520h-86zM65 -210v95h96v-95h-96z" />
    <glyph glyph-name="uni1ECC" unicode="&#x1ecc;" horiz-adv-x="771" 
d="M386 -12c-202 0 -350 160 -350 367s148 362 350 362s349 -155 349 -362s-147 -367 -349 -367zM386 66c153 0 255 114 255 289s-102 284 -255 284c-152 0 -256 -109 -256 -284s104 -289 256 -289zM337 -210v95h96v-95h-96z" />
    <glyph glyph-name="uni1ECD" unicode="&#x1ecd;" horiz-adv-x="592" 
d="M295 -12c-151 0 -265 109 -265 273s114 271 265 271s267 -107 267 -271s-116 -273 -267 -273zM295 62c104 0 181 76 181 199c0 121 -77 197 -181 197s-179 -76 -179 -197c0 -123 75 -199 179 -199zM248 -210v95h96v-95h-96z" />
    <glyph glyph-name="uni1ECE" unicode="&#x1ece;" horiz-adv-x="771" 
d="M386 -12c-202 0 -350 160 -350 367s148 362 350 362s349 -155 349 -362s-147 -367 -349 -367zM386 66c153 0 255 114 255 289s-102 284 -255 284c-152 0 -256 -109 -256 -284s104 -289 256 -289zM301 929c12 8 40 19 84 19c69 0 112 -26 112 -83c0 -78 -85 -72 -85 -105
v-1h-70v7c0 60 78 59 78 96c0 16 -15 25 -48 25c-30 0 -52 -8 -68 -17l-3 2v57z" />
    <glyph glyph-name="uni1ECF" unicode="&#x1ecf;" horiz-adv-x="592" 
d="M295 -12c-151 0 -265 109 -265 273s114 271 265 271s267 -107 267 -271s-116 -273 -267 -273zM295 62c104 0 181 76 181 199c0 121 -77 197 -181 197s-179 -76 -179 -197c0 -123 75 -199 179 -199zM212 786c12 8 40 19 84 19c69 0 112 -26 112 -83
c0 -76 -88 -78 -88 -120v-4h-70v10c0 69 81 70 81 111c0 16 -15 25 -48 25c-30 0 -52 -8 -68 -17l-3 2v57z" />
    <glyph glyph-name="uni1ED0" unicode="&#x1ed0;" horiz-adv-x="771" 
d="M386 -12c-202 0 -350 160 -350 367s148 362 350 362s349 -155 349 -362s-147 -367 -349 -367zM386 66c153 0 255 114 255 289s-102 284 -255 284c-152 0 -256 -109 -256 -284s104 -289 256 -289zM574 872h-77l65 115h103zM386 851l-81 -88h-85l122 156h86l122 -156h-85z
" />
    <glyph glyph-name="uni1ED1" unicode="&#x1ed1;" horiz-adv-x="592" 
d="M295 -12c-151 0 -265 109 -265 273s114 271 265 271s267 -107 267 -271s-116 -273 -267 -273zM295 62c104 0 181 76 181 199c0 121 -77 197 -181 197s-179 -76 -179 -197c0 -123 75 -199 179 -199zM486 723h-77l65 115h103zM295 701l-75 -91h-82l115 156h86l115 -156h-82
z" />
    <glyph glyph-name="uni1ED2" unicode="&#x1ed2;" horiz-adv-x="771" 
d="M386 -12c-202 0 -350 160 -350 367s148 362 350 362s349 -155 349 -362s-147 -367 -349 -367zM386 66c153 0 255 114 255 289s-102 284 -255 284c-152 0 -256 -109 -256 -284s104 -289 256 -289zM534 872l-91 115h103l65 -115h-77zM386 851l-81 -88h-85l122 156h86
l122 -156h-85z" />
    <glyph glyph-name="uni1ED3" unicode="&#x1ed3;" horiz-adv-x="592" 
d="M295 -12c-151 0 -265 109 -265 273s114 271 265 271s267 -107 267 -271s-116 -273 -267 -273zM295 62c104 0 181 76 181 199c0 121 -77 197 -181 197s-179 -76 -179 -197c0 -123 75 -199 179 -199zM445 723l-91 115h103l65 -115h-77zM295 701l-75 -91h-82l115 156h86
l115 -156h-82z" />
    <glyph glyph-name="uni1ED4" unicode="&#x1ed4;" horiz-adv-x="771" 
d="M386 -12c-202 0 -350 160 -350 367s148 362 350 362s349 -155 349 -362s-147 -367 -349 -367zM386 66c153 0 255 114 255 289s-102 284 -255 284c-152 0 -256 -109 -256 -284s104 -289 256 -289zM475 1002c11 9 37 20 79 20c65 0 102 -24 102 -76c0 -62 -74 -69 -74 -86
v-2h-67v4c0 51 68 55 68 82c0 15 -10 21 -41 21c-29 0 -49 -7 -64 -16l-3 2v51zM386 851l-81 -88h-85l122 156h86l122 -156h-85z" />
    <glyph glyph-name="uni1ED5" unicode="&#x1ed5;" horiz-adv-x="592" 
d="M295 -12c-151 0 -265 109 -265 273s114 271 265 271s267 -107 267 -271s-116 -273 -267 -273zM295 62c104 0 181 76 181 199c0 121 -77 197 -181 197s-179 -76 -179 -197c0 -123 75 -199 179 -199zM384 855c11 9 37 20 79 20c65 0 102 -24 102 -76c0 -62 -74 -69 -74 -86
v-2h-67v4c0 51 68 55 68 82c0 15 -10 21 -41 21c-29 0 -49 -7 -64 -16l-3 2v51zM295 701l-75 -91h-82l115 156h86l115 -156h-82z" />
    <glyph glyph-name="uni1ED6" unicode="&#x1ed6;" horiz-adv-x="771" 
d="M386 -12c-202 0 -350 160 -350 367s148 362 350 362s349 -155 349 -362s-147 -367 -349 -367zM386 66c153 0 255 114 255 289s-102 284 -255 284c-152 0 -256 -109 -256 -284s104 -289 256 -289zM445 990c25 0 46 12 66 40l5 -2l27 -56c-14 -26 -51 -57 -97 -57
c-59 0 -90 30 -125 30c-31 0 -50 -11 -71 -39l-4 2l-25 60c18 27 58 52 100 52c54 0 83 -30 124 -30zM386 819l-81 -56h-85l121 123h88l121 -123h-85z" />
    <glyph glyph-name="uni1ED7" unicode="&#x1ed7;" horiz-adv-x="592" 
d="M295 -12c-151 0 -265 109 -265 273s114 271 265 271s267 -107 267 -271s-116 -273 -267 -273zM295 62c104 0 181 76 181 199c0 121 -77 197 -181 197s-179 -76 -179 -197c0 -123 75 -199 179 -199zM354 884c24 0 40 12 59 40l5 -2l25 -56c-13 -26 -44 -57 -87 -57
c-52 0 -82 27 -110 27c-30 0 -43 -11 -63 -39l-4 2l-23 60c17 27 50 52 88 52c48 0 76 -27 110 -27zM295 701l-75 -91h-82l115 156h86l115 -156h-82z" />
    <glyph glyph-name="uni1ED8" unicode="&#x1ed8;" horiz-adv-x="771" 
d="M386 -12c-202 0 -350 160 -350 367s148 362 350 362s349 -155 349 -362s-147 -367 -349 -367zM386 66c153 0 255 114 255 289s-102 284 -255 284c-152 0 -256 -109 -256 -284s104 -289 256 -289zM386 851l-81 -88h-85l122 156h86l122 -156h-85zM337 -210v95h96v-95h-96z
" />
    <glyph glyph-name="uni1ED9" unicode="&#x1ed9;" horiz-adv-x="592" 
d="M295 -12c-151 0 -265 109 -265 273s114 271 265 271s267 -107 267 -271s-116 -273 -267 -273zM295 62c104 0 181 76 181 199c0 121 -77 197 -181 197s-179 -76 -179 -197c0 -123 75 -199 179 -199zM295 701l-75 -91h-82l115 156h86l115 -156h-82zM248 -210v95h96v-95h-96
z" />
    <glyph glyph-name="uni1EDA" unicode="&#x1eda;" horiz-adv-x="786" 
d="M425 763h-83l88 145h109zM386 -12c-202 0 -350 160 -350 367s148 362 350 362c106 0 154 -43 222 -43c44 0 89 27 93 112h76c-3 -111 -59 -163 -142 -175c63 -58 100 -153 100 -256c0 -207 -147 -367 -349 -367zM386 66c153 0 255 114 255 289s-102 284 -255 284
c-152 0 -256 -109 -256 -284s104 -289 256 -289z" />
    <glyph glyph-name="uni1EDB" unicode="&#x1edb;" horiz-adv-x="637" 
d="M327 610h-83l98 165h109zM295 -12c-151 0 -265 109 -265 273s114 271 265 271c70 0 91 -13 143 -12c64 1 104 26 108 116h70c-3 -116 -57 -165 -138 -178c53 -42 84 -112 84 -197c0 -164 -116 -273 -267 -273zM295 62c104 0 181 76 181 199c0 121 -77 197 -181 197
s-179 -76 -179 -197c0 -123 75 -199 179 -199z" />
    <glyph glyph-name="uni1EDC" unicode="&#x1edc;" horiz-adv-x="786" 
d="M349 763l-114 145h109l88 -145h-83zM386 -12c-202 0 -350 160 -350 367s148 362 350 362c106 0 154 -43 222 -43c44 0 89 27 93 112h76c-3 -111 -59 -163 -142 -175c63 -58 100 -153 100 -256c0 -207 -147 -367 -349 -367zM386 66c153 0 255 114 255 289
s-102 284 -255 284c-152 0 -256 -109 -256 -284s104 -289 256 -289z" />
    <glyph glyph-name="uni1EDD" unicode="&#x1edd;" horiz-adv-x="637" 
d="M270 610l-124 165h109l98 -165h-83zM295 -12c-151 0 -265 109 -265 273s114 271 265 271c70 0 91 -13 143 -12c64 1 104 26 108 116h70c-3 -116 -57 -165 -138 -178c53 -42 84 -112 84 -197c0 -164 -116 -273 -267 -273zM295 62c104 0 181 76 181 199
c0 121 -77 197 -181 197s-179 -76 -179 -197c0 -123 75 -199 179 -199z" />
    <glyph glyph-name="uni1EDE" unicode="&#x1ede;" horiz-adv-x="786" 
d="M301 929c12 8 40 19 84 19c69 0 112 -26 112 -83c0 -78 -85 -72 -85 -105v-1h-70v7c0 60 78 59 78 96c0 16 -15 25 -48 25c-30 0 -52 -8 -68 -17l-3 2v57zM386 -12c-202 0 -350 160 -350 367s148 362 350 362c106 0 154 -43 222 -43c44 0 89 27 93 112h76
c-3 -111 -59 -163 -142 -175c63 -58 100 -153 100 -256c0 -207 -147 -367 -349 -367zM386 66c153 0 255 114 255 289s-102 284 -255 284c-152 0 -256 -109 -256 -284s104 -289 256 -289z" />
    <glyph glyph-name="uni1EDF" unicode="&#x1edf;" horiz-adv-x="637" 
d="M212 786c12 8 40 19 84 19c69 0 112 -26 112 -83c0 -76 -88 -78 -88 -120v-4h-70v10c0 69 81 70 81 111c0 16 -15 25 -48 25c-30 0 -52 -8 -68 -17l-3 2v57zM295 -12c-151 0 -265 109 -265 273s114 271 265 271c70 0 91 -13 143 -12c64 1 104 26 108 116h70
c-3 -116 -57 -165 -138 -178c53 -42 84 -112 84 -197c0 -164 -116 -273 -267 -273zM295 62c104 0 181 76 181 199c0 121 -77 197 -181 197s-179 -76 -179 -197c0 -123 75 -199 179 -199z" />
    <glyph glyph-name="uni1EE0" unicode="&#x1ee0;" horiz-adv-x="786" 
d="M448 838c25 0 46 12 66 40l5 -2l27 -56c-14 -26 -51 -57 -97 -57c-59 0 -90 30 -125 30c-31 0 -50 -11 -71 -39l-4 2l-25 60c18 27 58 52 100 52c54 0 83 -30 124 -30zM386 -12c-202 0 -350 160 -350 367s148 362 350 362c106 0 154 -43 222 -43c44 0 89 27 93 112h76
c-3 -111 -59 -163 -142 -175c63 -58 100 -153 100 -256c0 -207 -147 -367 -349 -367zM386 66c153 0 255 114 255 289s-102 284 -255 284c-152 0 -256 -109 -256 -284s104 -289 256 -289z" />
    <glyph glyph-name="uni1EE1" unicode="&#x1ee1;" horiz-adv-x="637" 
d="M354 716c25 0 44 12 64 40l5 -2l27 -56c-14 -26 -49 -57 -94 -57c-60 0 -81 27 -116 27c-31 0 -47 -11 -68 -39l-4 2l-25 60c18 27 55 52 95 52c56 0 75 -27 116 -27zM295 -12c-151 0 -265 109 -265 273s114 271 265 271c70 0 91 -13 143 -12c64 1 104 26 108 116h70
c-3 -116 -57 -165 -138 -178c53 -42 84 -112 84 -197c0 -164 -116 -273 -267 -273zM295 62c104 0 181 76 181 199c0 121 -77 197 -181 197s-179 -76 -179 -197c0 -123 75 -199 179 -199z" />
    <glyph glyph-name="uni1EE2" unicode="&#x1ee2;" horiz-adv-x="786" 
d="M337 -210v95h96v-95h-96zM386 -12c-202 0 -350 160 -350 367s148 362 350 362c106 0 154 -43 222 -43c44 0 89 27 93 112h76c-3 -111 -59 -163 -142 -175c63 -58 100 -153 100 -256c0 -207 -147 -367 -349 -367zM386 66c153 0 255 114 255 289s-102 284 -255 284
c-152 0 -256 -109 -256 -284s104 -289 256 -289z" />
    <glyph glyph-name="uni1EE3" unicode="&#x1ee3;" horiz-adv-x="637" 
d="M248 -210v95h96v-95h-96zM295 -12c-151 0 -265 109 -265 273s114 271 265 271c70 0 91 -13 143 -12c64 1 104 26 108 116h70c-3 -116 -57 -165 -138 -178c53 -42 84 -112 84 -197c0 -164 -116 -273 -267 -273zM295 62c104 0 181 76 181 199c0 121 -77 197 -181 197
s-179 -76 -179 -197c0 -123 75 -199 179 -199z" />
    <glyph glyph-name="uni1EE4" unicode="&#x1ee4;" horiz-adv-x="685" 
d="M340 -12c-156 0 -269 95 -269 270v447h90v-443c0 -129 70 -196 179 -196s184 67 184 196v443h90v-447c0 -175 -118 -270 -274 -270zM294 -210v95h96v-95h-96z" />
    <glyph glyph-name="uni1EE5" unicode="&#x1ee5;" horiz-adv-x="551" 
d="M410 0l-7 51c-44 -34 -98 -63 -169 -63c-107 0 -174 59 -174 167v365h86v-347c0 -91 53 -113 109 -113s100 15 144 45v415h86v-520h-75zM227 -210v95h96v-95h-96z" />
    <glyph glyph-name="uni1EE6" unicode="&#x1ee6;" horiz-adv-x="685" 
d="M340 -12c-156 0 -269 95 -269 270v447h90v-443c0 -129 70 -196 179 -196s184 67 184 196v443h90v-447c0 -175 -118 -270 -274 -270zM258 929c12 8 40 19 84 19c69 0 112 -26 112 -83c0 -78 -85 -72 -85 -105v-1h-70v7c0 60 78 59 78 96c0 16 -15 25 -48 25
c-30 0 -52 -8 -68 -17l-3 2v57z" />
    <glyph glyph-name="uni1EE7" unicode="&#x1ee7;" horiz-adv-x="551" 
d="M410 0l-7 51c-44 -34 -98 -63 -169 -63c-107 0 -174 59 -174 167v365h86v-347c0 -91 53 -113 109 -113s100 15 144 45v415h86v-520h-75zM191 786c12 8 40 19 84 19c69 0 112 -26 112 -83c0 -76 -88 -78 -88 -120v-4h-70v10c0 69 81 70 81 111c0 16 -15 25 -48 25
c-30 0 -52 -8 -68 -17l-3 2v57z" />
    <glyph glyph-name="uni1EE8" unicode="&#x1ee8;" horiz-adv-x="725" 
d="M382 763h-83l88 145h109zM340 -12c-156 0 -269 95 -269 270v447h90v-443c0 -129 70 -196 179 -196s184 67 184 196v443h49c73 0 110 29 115 116h76c-3 -114 -60 -171 -150 -182v-381c0 -175 -118 -270 -274 -270z" />
    <glyph glyph-name="uni1EE9" unicode="&#x1ee9;" horiz-adv-x="621" 
d="M306 610h-83l98 165h109zM410 0l-7 51c-44 -34 -98 -63 -169 -63c-107 0 -174 59 -174 167v365h86v-347c0 -91 53 -113 109 -113s100 15 144 45v415h50c72 0 106 29 111 116h70c-3 -114 -56 -171 -145 -182v-454h-75z" />
    <glyph glyph-name="uni1EEA" unicode="&#x1eea;" horiz-adv-x="725" 
d="M306 763l-114 145h109l88 -145h-83zM340 -12c-156 0 -269 95 -269 270v447h90v-443c0 -129 70 -196 179 -196s184 67 184 196v443h49c73 0 110 29 115 116h76c-3 -114 -60 -171 -150 -182v-381c0 -175 -118 -270 -274 -270z" />
    <glyph glyph-name="uni1EEB" unicode="&#x1eeb;" horiz-adv-x="621" 
d="M249 610l-124 165h109l98 -165h-83zM410 0l-7 51c-44 -34 -98 -63 -169 -63c-107 0 -174 59 -174 167v365h86v-347c0 -91 53 -113 109 -113s100 15 144 45v415h50c72 0 106 29 111 116h70c-3 -114 -56 -171 -145 -182v-454h-75z" />
    <glyph glyph-name="uni1EEC" unicode="&#x1eec;" horiz-adv-x="725" 
d="M258 929c12 8 40 19 84 19c69 0 112 -26 112 -83c0 -78 -85 -72 -85 -105v-1h-70v7c0 60 78 59 78 96c0 16 -15 25 -48 25c-30 0 -52 -8 -68 -17l-3 2v57zM340 -12c-156 0 -269 95 -269 270v447h90v-443c0 -129 70 -196 179 -196s184 67 184 196v443h49
c73 0 110 29 115 116h76c-3 -114 -60 -171 -150 -182v-381c0 -175 -118 -270 -274 -270z" />
    <glyph glyph-name="uni1EED" unicode="&#x1eed;" horiz-adv-x="621" 
d="M191 786c12 8 40 19 84 19c69 0 112 -26 112 -83c0 -76 -88 -78 -88 -120v-4h-70v10c0 69 81 70 81 111c0 16 -15 25 -48 25c-30 0 -52 -8 -68 -17l-3 2v57zM410 0l-7 51c-44 -34 -98 -63 -169 -63c-107 0 -174 59 -174 167v365h86v-347c0 -91 53 -113 109 -113
s100 15 144 45v415h50c72 0 106 29 111 116h70c-3 -114 -56 -171 -145 -182v-454h-75z" />
    <glyph glyph-name="uni1EEE" unicode="&#x1eee;" horiz-adv-x="725" 
d="M405 838c25 0 46 12 66 40l5 -2l27 -56c-14 -26 -51 -57 -97 -57c-59 0 -90 30 -125 30c-31 0 -50 -11 -71 -39l-4 2l-25 60c18 27 58 52 100 52c54 0 83 -30 124 -30zM340 -12c-156 0 -269 95 -269 270v447h90v-443c0 -129 70 -196 179 -196s184 67 184 196v443h49
c73 0 110 29 115 116h76c-3 -114 -60 -171 -150 -182v-381c0 -175 -118 -270 -274 -270z" />
    <glyph glyph-name="uni1EEF" unicode="&#x1eef;" horiz-adv-x="621" 
d="M333 716c25 0 44 12 64 40l5 -2l27 -56c-14 -26 -49 -57 -94 -57c-60 0 -81 27 -116 27c-31 0 -47 -11 -68 -39l-4 2l-25 60c18 27 55 52 95 52c56 0 75 -27 116 -27zM410 0l-7 51c-44 -34 -98 -63 -169 -63c-107 0 -174 59 -174 167v365h86v-347c0 -91 53 -113 109 -113
s100 15 144 45v415h50c72 0 106 29 111 116h70c-3 -114 -56 -171 -145 -182v-454h-75z" />
    <glyph glyph-name="uni1EF0" unicode="&#x1ef0;" horiz-adv-x="725" 
d="M294 -210v95h96v-95h-96zM340 -12c-156 0 -269 95 -269 270v447h90v-443c0 -129 70 -196 179 -196s184 67 184 196v443h49c73 0 110 29 115 116h76c-3 -114 -60 -171 -150 -182v-381c0 -175 -118 -270 -274 -270z" />
    <glyph glyph-name="uni1EF1" unicode="&#x1ef1;" horiz-adv-x="621" 
d="M227 -210v95h96v-95h-96zM410 0l-7 51c-44 -34 -98 -63 -169 -63c-107 0 -174 59 -174 167v365h86v-347c0 -91 53 -113 109 -113s100 15 144 45v415h50c72 0 106 29 111 116h70c-3 -114 -56 -171 -145 -182v-454h-75z" />
    <glyph glyph-name="uni1EF4" unicode="&#x1ef4;" horiz-adv-x="569" 
d="M332 0h-90v291l-233 409v5h95l183 -330l184 330h89v-5l-228 -403v-297zM239 -210v95h96v-95h-96z" />
    <glyph glyph-name="uni1EF5" unicode="&#x1ef5;" horiz-adv-x="494" 
d="M54 -222v79c72 11 103 40 127 99l27 68l-201 491v5h91l155 -394l148 394h86v-5l-225 -578c-41 -104 -100 -151 -208 -159zM314 -210v95h96v-95h-96z" />
    <glyph glyph-name="uni1EF5.alt" horiz-adv-x="494" 
d="M204 -210h-92v5l95 233l-200 487v5h93l153 -394l149 394h85v-5zM324 -210v95h96v-95h-96z" />
    <glyph glyph-name="uni1EF5.alt1" horiz-adv-x="551" 
d="M264 -222c-74 0 -138 16 -180 42v78l4 2c43 -27 105 -46 166 -46c109 0 147 51 147 135v59c-43 -33 -98 -60 -167 -60c-107 0 -174 59 -174 167v365h86v-347c0 -91 53 -113 109 -113s102 15 146 45v415h86v-525c0 -164 -101 -217 -223 -217zM521 -210v95h96v-95h-96z" />
    <glyph glyph-name="uni1EF6" unicode="&#x1ef6;" horiz-adv-x="569" 
d="M332 0h-90v291l-233 409v5h95l183 -330l184 330h89v-5l-228 -403v-297zM203 929c12 8 40 19 84 19c69 0 112 -26 112 -83c0 -78 -85 -72 -85 -105v-1h-70v7c0 60 78 59 78 96c0 16 -15 25 -48 25c-30 0 -52 -8 -68 -17l-3 2v57z" />
    <glyph glyph-name="uni1EF7" unicode="&#x1ef7;" horiz-adv-x="494" 
d="M54 -222v79c72 11 103 40 127 99l27 68l-201 491v5h91l155 -394l148 394h86v-5l-225 -578c-41 -104 -100 -151 -208 -159zM169 786c12 8 40 19 84 19c69 0 112 -26 112 -83c0 -76 -88 -78 -88 -120v-4h-70v10c0 69 81 70 81 111c0 16 -15 25 -48 25c-30 0 -52 -8 -68 -17
l-3 2v57z" />
    <glyph glyph-name="uni1EF7.alt" horiz-adv-x="494" 
d="M204 -210h-92v5l95 233l-200 487v5h93l153 -394l149 394h85v-5zM168 786c12 8 40 19 84 19c69 0 112 -26 112 -83c0 -76 -88 -78 -88 -120v-4h-70v10c0 69 81 70 81 111c0 16 -15 25 -48 25c-30 0 -52 -8 -68 -17l-3 2v57z" />
    <glyph glyph-name="uni1EF7.alt1" horiz-adv-x="551" 
d="M264 -222c-74 0 -138 16 -180 42v78l4 2c43 -27 105 -46 166 -46c109 0 147 51 147 135v59c-43 -33 -98 -60 -167 -60c-107 0 -174 59 -174 167v365h86v-347c0 -91 53 -113 109 -113s102 15 146 45v415h86v-525c0 -164 -101 -217 -223 -217zM191 786c12 8 40 19 84 19
c69 0 112 -26 112 -83c0 -76 -88 -78 -88 -120v-4h-70v10c0 69 81 70 81 111c0 16 -15 25 -48 25c-30 0 -52 -8 -68 -17l-3 2v57z" />
    <glyph glyph-name="uni1EF8" unicode="&#x1ef8;" horiz-adv-x="569" 
d="M332 0h-90v291l-233 409v5h95l183 -330l184 330h89v-5l-228 -403v-297zM344 838c25 0 46 12 66 40l5 -2l27 -56c-14 -26 -51 -57 -97 -57c-59 0 -90 30 -125 30c-31 0 -50 -11 -71 -39l-4 2l-25 60c18 27 58 52 100 52c54 0 83 -30 124 -30z" />
    <glyph glyph-name="uni1EF9" unicode="&#x1ef9;" horiz-adv-x="494" 
d="M54 -222v79c72 11 103 40 127 99l27 68l-201 491v5h91l155 -394l148 394h86v-5l-225 -578c-41 -104 -100 -151 -208 -159zM300 716c25 0 44 12 64 40l5 -2l27 -56c-14 -26 -49 -57 -94 -57c-60 0 -81 27 -116 27c-31 0 -47 -11 -68 -39l-4 2l-25 60c18 27 55 52 95 52
c56 0 75 -27 116 -27z" />
    <glyph glyph-name="uni1EF9.alt" horiz-adv-x="494" 
d="M204 -210h-92v5l95 233l-200 487v5h93l153 -394l149 394h85v-5zM299 716c25 0 44 12 64 40l5 -2l27 -56c-14 -26 -49 -57 -94 -57c-60 0 -81 27 -116 27c-31 0 -47 -11 -68 -39l-4 2l-25 60c18 27 55 52 95 52c56 0 75 -27 116 -27z" />
    <glyph glyph-name="uni1EF9.alt1" horiz-adv-x="551" 
d="M264 -222c-74 0 -138 16 -180 42v78l4 2c43 -27 105 -46 166 -46c109 0 147 51 147 135v59c-43 -33 -98 -60 -167 -60c-107 0 -174 59 -174 167v365h86v-347c0 -91 53 -113 109 -113s102 15 146 45v415h86v-525c0 -164 -101 -217 -223 -217zM322 716c25 0 44 12 64 40
l5 -2l27 -56c-14 -26 -49 -57 -94 -57c-60 0 -81 27 -116 27c-31 0 -47 -11 -68 -39l-4 2l-25 60c18 27 55 52 95 52c56 0 75 -27 116 -27z" />
    <glyph glyph-name="uni2009" unicode="&#x2009;" horiz-adv-x="75" 
 />
    <glyph glyph-name="uni20AB" unicode="&#x20ab;" horiz-adv-x="578" 
d="M446 0l-11 67c-39 -50 -94 -79 -167 -79c-141 0 -238 100 -238 264c0 168 97 280 245 280c63 0 112 -23 151 -65v128h-162v63h162v76l86 23v-99h69v-63h-69v-595h-66zM275 62c72 0 114 23 151 61v279c-38 36 -80 56 -147 56c-90 0 -163 -66 -163 -206
c0 -136 73 -190 159 -190zM110 -161v68h376v-68h-376z" />
    <glyph glyph-name="v.flat" horiz-adv-x="502" 
d="M281 0h-59l-215 512v8h88l159 -391l157 391h84v-5z" />
    <glyph glyph-name="w.flat" horiz-adv-x="706" 
d="M487 0l-135 384l-129 -384h-53l-158 515v5h86l106 -365l120 365h62l121 -364l106 364h81v-5l-155 -515h-52z" />
    <glyph glyph-name="wacute.flat" horiz-adv-x="706" 
d="M487 0l-135 384l-129 -384h-53l-158 515v5h86l106 -365l120 365h62l121 -364l106 364h81v-5l-155 -515h-52zM384 610h-83l98 165h109z" />
    <glyph glyph-name="wcircumflex.flat" horiz-adv-x="706" 
d="M487 0l-135 384l-129 -384h-53l-158 515v5h86l106 -365l120 365h62l121 -364l106 364h81v-5l-155 -515h-52zM352 701l-75 -91h-82l115 156h86l115 -156h-82z" />
    <glyph glyph-name="wdieresis.flat" horiz-adv-x="706" 
d="M487 0l-135 384l-129 -384h-53l-158 515v5h86l106 -365l120 365h62l121 -364l106 364h81v-5l-155 -515h-52zM217 639v91h92v-91h-92zM397 639v91h92v-91h-92z" />
    <glyph glyph-name="wgrave.flat" horiz-adv-x="706" 
d="M487 0l-135 384l-129 -384h-53l-158 515v5h86l106 -365l120 365h62l121 -364l106 364h81v-5l-155 -515h-52zM327 610l-124 165h109l98 -165h-83z" />
    <glyph glyph-name="z.flat" horiz-adv-x="462" 
d="M431 0h-398v51l286 397h-267v72h369v-62l-278 -386h288v-72z" />
    <glyph glyph-name="zacute.flat" horiz-adv-x="462" 
d="M431 0h-398v51l286 397h-267v72h369v-62l-278 -386h288v-72zM273 610h-83l98 165h109z" />
    <glyph glyph-name="zcaron.flat" horiz-adv-x="462" 
d="M431 0h-398v51l286 397h-267v72h369v-62l-278 -386h288v-72zM243 675l75 91h82l-115 -156h-86l-115 156h82z" />
    <glyph glyph-name="zdotaccent.flat" horiz-adv-x="462" 
d="M431 0h-398v51l286 397h-267v72h369v-62l-278 -386h288v-72zM194 637v95h96v-95h-96z" />
    <glyph glyph-name="g.alt2" horiz-adv-x="485" 
d="M231 237c64 0 113 44 113 114c0 72 -49 114 -113 114c-65 0 -113 -42 -113 -114c0 -70 48 -114 113 -114zM235 -222c-137 0 -229 45 -229 135c0 34 16 60 31 72h70l2 -3c-11 -14 -22 -33 -22 -62c0 -49 47 -74 148 -74c111 0 161 47 161 103c0 44 -22 55 -82 58l-137 6
c-87 4 -123 42 -123 98c0 44 23 75 63 95c-48 30 -81 80 -81 145c0 110 84 179 194 179c28 0 58 -7 83 -17l162 12v-70h-94c23 -23 43 -58 43 -104c0 -109 -88 -175 -194 -175c-19 0 -37 2 -55 6c-34 -11 -47 -27 -47 -53c0 -25 18 -32 59 -34l135 -6
c101 -5 157 -40 157 -138c0 -103 -91 -173 -244 -173z" />
    <glyph glyph-name="A" unicode="A" 
d="M424 264l-110 266l-110 -266h220zM534 0l-77 186h-285l-77 -186h-90v5l303 711h16l303 -711v-5h-93z" />
    </font>
</defs>
</svg>
