<svg width="23" height="22" viewBox="0 0 23 22" fill="none" xmlns="http://www.w3.org/2000/svg">
<g clip-path="url(#clip0)">
<path d="M11.4996 12.8376C12.7684 12.8376 13.8028 11.9006 13.8028 10.7484C13.8028 10.2936 13.6388 9.87362 13.3673 9.5306C12.949 9.0043 12.269 8.65918 11.501 8.65918C10.7325 8.65918 10.053 9.00388 9.63374 9.53018C9.36136 9.8732 9.19877 10.2931 9.1983 10.748C9.19691 11.9002 10.2304 12.8376 11.4996 12.8376Z" fill="white"/>
<path d="M16.5268 8.19198V6.44122V6.18066L16.2383 6.1815L14.3094 6.18697L14.3168 8.19871L16.5268 8.19198Z" fill="white"/>
<path d="M11.5 0.3125C5.15893 0.3125 0 4.99413 0 10.7485C0 16.5025 5.15893 21.1846 11.5 21.1846C17.8406 21.1846 23 16.5025 23 10.7485C23 4.99413 17.8415 0.3125 11.5 0.3125ZM18.0403 9.53073V14.3902C18.0403 15.6559 16.9063 16.6845 15.5124 16.6845H7.48755C6.09325 16.6845 4.95974 15.6559 4.95974 14.3902V9.53073V7.10774C4.95974 5.84243 6.09325 4.81379 7.48755 4.81379H15.512C16.9063 4.81379 18.0403 5.84243 18.0403 7.10774V9.53073Z" fill="white"/>
<path d="M15.0775 10.7486C15.0775 12.5381 13.4728 13.9951 11.5 13.9951C9.5271 13.9951 7.92296 12.5381 7.92296 10.7486C7.92296 10.3181 8.01746 9.90657 8.18607 9.53076H6.23358V14.3902C6.23358 15.0182 6.79547 15.5269 7.48707 15.5269H15.5115C16.2022 15.5269 16.765 15.0182 16.765 14.3902V9.53076H14.8116C14.9816 9.90657 15.0775 10.3181 15.0775 10.7486Z" fill="white"/>
</g>
<defs>
<clipPath id="clip0">
<rect width="23" height="20.8721" fill="white" transform="translate(0 0.3125)"/>
</clipPath>
</defs>
</svg>
