<?xml version="1.0" encoding="utf-8"?>
<!-- Generator: Adobe Illustrator 23.0.0, SVG Export Plug-In . SVG Version: 6.00 Build 0)  -->
<svg version="1.1" id="Layer_1" xmlns="http://www.w3.org/2000/svg" xmlns:xlink="http://www.w3.org/1999/xlink" x="0px" y="0px"
	 viewBox="0 0 159.6 122.1" style="enable-background:new 0 0 159.6 122.1;" xml:space="preserve">
<style type="text/css">
	.st0{fill:#FFFFFF;}
</style>
<title>logo-grabfood</title>
<g>
	<g id="Layer_1-2">
		<path class="st0" d="M127,19.4V0h4v16.6C129.6,17.4,128.2,18.3,127,19.4z M120.1,25.2c1.2-1.5,2.5-2.9,4-4.2V0h-4V25.2z
			 M74.1,40.6c0.1,10.8,8.8,19.5,19.6,19.6c2.1,0,4.1-0.4,6-1.3v-4c-1.9,0.8-3.9,1.2-6,1.2c-8.6-0.1-15.5-7.1-15.7-15.7V37
			c0.1-8.6,7.1-15.5,15.6-15.6c8.6-0.1,15.6,6.9,15.6,15.4c0,0.1,0,0.1,0,0.2v23.2h4v-24c-0.2-5.1-2.4-9.8-6.1-13.3
			c-7.8-7.5-20.3-7.2-27.7,0.6c-3.5,3.6-5.4,8.5-5.4,13.5V40.6z M133.5,31.1c1.7-1.8,4-2.8,6.5-2.8c4.8,0,8.7,3.8,8.7,8.6
			c0,0.1,0,0.1,0,0.2v3.6c0,4.8-3.8,8.7-8.6,8.7c0,0-0.1,0-0.1,0c-2.6-0.1-5-1.5-6.5-3.7c-1.6-2.2-2.6-4.7-2.8-7.4l-3.2,3.9
			c0.6,3,2.2,5.8,4.4,7.9c2.2,2,5,3.2,8,3.2c7,0,12.7-5.7,12.7-12.7V37c-0.1-7-5.7-12.6-12.7-12.7c-2.1,0-5.4,0.8-9.4,4.3l0,0
			c-1.1,1.1-3.6,3.6-5.1,5.4c-2.6,2.8-6.3,7-9.4,11.2v6.2c3.5-4.5,5.5-7,8.8-10.9C127.6,37.2,130.5,34.1,133.5,31.1z M39.7,23.6
			v-4.7c-3.6-1.9-7.5-2.8-12.7-2.8c-5.2,0-10.3,1.9-14.2,5.5C9.1,25,6.9,29.7,6.9,34.7V36c-0.1,10.2,8.2,18.5,18.4,18.6
			c8.2,0,11.6-2.7,12.5-3.5V39.1H24.3v4H34v6l0,0c-2.8,1.1-5.7,1.6-8.7,1.5c-3.8,0-7.5-1.5-10.2-4.2c-2.8-2.8-4.3-6.5-4.3-10.4v-1.3
			c0-7.9,7.4-14.6,16.1-14.6C33.1,20.1,36.7,21.1,39.7,23.6L39.7,23.6z M68.7,28.3c1.3,0,2.6,0.2,3.8,0.7c0.5-1.2,1.1-2.4,1.7-3.5
			c-1.1-0.8-3.7-1.2-5.5-1.2c-6.9-0.1-12.5,5.3-12.7,12.2c0,0.2,0,0.3,0,0.5v23.2h4V37c-0.2-4.6,3.3-8.5,8-8.7
			C68.2,28.3,68.4,28.3,68.7,28.3z M0,34.7V36c0,6.8,2.6,13.3,7.4,18.1c4.7,4.8,11.2,7.4,17.9,7.4c5,0.1,10-1.2,14.4-3.7
			c1.9-1.1,3.6-2.5,5-4.2V32.2H24.3v4h16.4v16.2l0,0c-1.9,1.9-6.5,5.1-15.4,5.1c-5.7,0.1-11.2-2.2-15.2-6.2C6.1,47.2,3.9,41.7,4,36
			v-1.3c0.1-5.8,2.6-11.2,6.8-15.1c4.4-4.1,10.2-6.4,16.2-6.4c5.6,0,9.6,0.9,12.7,2.8v-4.5c-3.3-1.4-7.2-2-12.7-2
			C12.4,9.5,0,21.1,0,34.7z M106.4,60.2V37c0-7-5.7-12.7-12.7-12.7S81,30,81,37v3.6c0.1,7,5.7,12.6,12.7,12.7c2.1,0.1,4.2-0.6,6-1.8
			v-4.2c-1.7,1.3-3.8,2-6,2c-4.8,0-8.7-3.8-8.7-8.6c0-0.1,0-0.1,0-0.2V37c0.2-4.8,4.2-8.6,9-8.4c4.6,0.2,8.3,3.8,8.4,8.4v23.2H106.4
			z M68.7,21.4c2.5-0.1,5,0.6,7.2,1.8c0.9-1,1.8-2.1,2.7-3c-2.2-1.7-6-2.8-9.9-2.8C58.2,17,49.4,25.3,49.1,35.7c0,0.4,0,0.8,0,1.3
			v23.2h4V37C53,27.8,59.5,21.4,68.7,21.4z M153.8,23.2c-3.6-3.7-8.6-5.8-13.8-5.8c-3.4,0-6.8,1-9.7,2.8c-4.3,2.9-7.9,6-14.3,14.3
			v5.9c5.4-7.1,10.6-12.6,14.5-15.7c6.7-5.3,16.5-4.1,21.8,2.6c2.2,2.8,3.3,6.2,3.3,9.7v3.6c0,8.6-7,15.6-15.6,15.6
			c-6.9,0-13-4.6-14.8-11.3l-2.8,3.4c2,6.8,9.4,11.9,17.6,11.9c10.8-0.1,19.5-8.8,19.6-19.6V37C159.6,31.8,157.5,26.8,153.8,23.2
			L153.8,23.2z"/>
		<path class="st0" d="M29.9,101.9H11.6v19.3h-9V71.8h29.2v8.4H11.6v13.4h18.3V101.9z"/>
		<path class="st0" d="M73.4,99.4v3.3c0,11.6-7.5,19.4-19.1,19.4s-19.1-7.8-19.1-19.4v-3.4c0-11.6,7.5-19.2,19.1-19.2
			S73.4,87.8,73.4,99.4z M64.6,99.4c0-6.4-4.3-10.7-10.3-10.7S44,93,44,99.4v3.3c0,6.4,4.3,10.9,10.3,10.9s10.3-4.6,10.3-10.9
			L64.6,99.4z"/>
		<path class="st0" d="M115.3,99.4v3.4c0,11.6-7.5,19.4-19.1,19.4s-19.1-7.8-19.1-19.4v-3.3c0-11.6,7.5-19.2,19.1-19.2
			S115.3,87.8,115.3,99.4z M106.6,99.4c0-6.4-4.3-10.7-10.3-10.7S86,93,86,99.4v3.4c0,6.4,4.3,10.9,10.3,10.9s10.3-4.6,10.3-10.9
			L106.6,99.4z"/>
		<path class="st0" d="M119.8,102.7c0,11.6,7.4,19.4,19,19.4s18.9-7.8,18.9-19.4V65.5h-8.8v37.2c0,6.4-4.1,10.9-10.1,10.9
			s-10.2-4.5-10.2-10.8v-3.4c0-6.3,4.2-10.6,10.2-10.6s10.1,4,10.1,9.9V84.2c-1.3-1.9-5.4-4.1-10.1-4.1c-11.6,0-19,7.7-19,19.2
			L119.8,102.7z"/>
	</g>
</g>
</svg>
