<svg width="90" height="62" viewBox="0 0 90 62" fill="none" xmlns="http://www.w3.org/2000/svg">
<path fill-rule="evenodd" clip-rule="evenodd" d="M83.908 4.15905C82.1282 2.54339 79.8741 1.48378 77.4088 1.21139C72.0506 0.611662 66.6438 0.309786 61.2191 0.158432C55.8292 0.00811803 50.4161 0.00811821 45.0151 0.0112325C39.6149 0.00811823 34.2023 0.00811806 28.8116 0.158432C23.3863 0.309784 17.9779 0.611659 12.6166 1.21139C10.1537 1.48392 7.90062 2.54401 6.12243 4.16037C4.35555 5.76634 3.0574 7.92319 2.4895 10.4025C1.72284 13.726 1.33501 17.1935 1.13909 20.6825C0.942413 24.1863 0.9375 27.6457 0.9375 31.0041C0.9375 34.3581 0.93757 37.813 1.12961 41.3189C1.32076 44.8064 1.70388 48.2738 2.47095 51.5978C3.04224 54.0782 4.34101 56.2357 6.10776 57.8415C7.88488 59.457 10.1358 60.5165 12.598 60.789C17.9599 61.3887 23.3683 61.6905 28.7937 61.8418C34.1842 61.9921 39.5969 61.9921 44.9979 61.989C50.4013 61.9921 55.8139 61.9921 61.2037 61.8418C66.6283 61.6905 72.0351 61.3887 77.3964 60.789C79.8581 60.5165 82.1086 59.4574 83.8865 57.8424C85.6541 56.2366 86.9547 54.0789 87.5297 51.5978C88.2934 48.2737 88.6766 44.8063 88.8684 41.3189C89.0577 37.8799 89.0593 34.3912 89.059 31.0042H89.0627V30.8341H89.059C89.0591 24.1046 89.0591 16.9772 87.5483 10.4026C86.977 7.92215 85.6768 5.76488 83.908 4.15909L83.908 4.15905Z" fill="#E42B26"/>
<path fill-rule="evenodd" clip-rule="evenodd" d="M61.721 29.3457C56.7004 26.7237 51.7135 24.1214 46.7325 21.5223C42.592 19.3618 38.4554 17.2032 34.3067 15.0371L32.937 14.322V15.8648V44.3853V45.9241L34.303 45.2166C38.8852 42.843 43.4478 40.4783 48.0102 38.1128L61.7174 31.0046L63.3129 30.1771L61.721 29.3457V29.3457Z" fill="#FFFFFE"/>
</svg>
